<?xml version="1.0" encoding="iso-8859-1"?>
<!-- Generator: Adobe Illustrator 19.0.0, SVG Export Plug-In . SVG Version: 6.00 Build 0)  -->
<svg version="1.1" id="Capa_1" xmlns="http://www.w3.org/2000/svg" xmlns:xlink="http://www.w3.org/1999/xlink" x="0px" y="0px"
	 viewBox="0 0 512 512" style="enable-background:new 0 0 512 512;" xml:space="preserve">
<g>
	<g>
		<polygon style="fill:#BDC3C7;" points="432.552,141.241 344.188,249.644 326.621,194.207 432.552,61.793 		"/>
		<polygon style="fill:#BDC3C7;" points="79.448,141.241 167.812,249.644 185.379,194.207 79.448,61.793 		"/>
		<rect x="203.034" y="317.705" style="fill:#BDC3C7;" width="105.931" height="158.985"/>
		<path style="fill:#BDC3C7;" d="M35.31,167.724v273.655h35.31V17.655C70.621,7.904,62.716,0,52.966,0l0,0
			C43.215,0,35.31,7.904,35.31,17.655V167.724z"/>
	</g>
	<g>
		<path style="fill:#7F8C8D;" d="M26.483,44.138h52.966c4.875,0,8.828,3.952,8.828,8.828v105.931c0,4.875-3.952,8.828-8.828,8.828
			H26.483c-4.875,0-8.828-3.952-8.828-8.828V52.966C17.655,48.09,21.607,44.138,26.483,44.138z"/>
		<path style="fill:#7F8C8D;" d="M105.931,450.207v-17.655c-0.029-9.739-7.916-17.627-17.655-17.655H17.655
			C7.916,414.925,0.029,422.813,0,432.552V512h105.931"/>
	</g>
	<path style="fill:#BDC3C7;" d="M441.379,167.724v264.828h35.31V17.655C476.69,7.904,468.785,0,459.034,0l0,0
		c-9.751,0-17.655,7.904-17.655,17.655V167.724z"/>
	<g>
		<path style="fill:#7F8C8D;" d="M432.552,44.138h52.966c4.875,0,8.828,3.952,8.828,8.828v105.931c0,4.875-3.952,8.828-8.828,8.828
			h-52.966c-4.875,0-8.828-3.952-8.828-8.828V52.966C423.724,48.09,427.676,44.138,432.552,44.138z"/>
		<path style="fill:#7F8C8D;" d="M406.069,512H512v-79.448c-0.029-9.739-7.916-17.627-17.655-17.655h-70.621
			c-9.739,0.029-17.627,7.916-17.655,17.655v17.655"/>
	</g>
	<path style="fill:#95A5A5;" d="M308.966,70.621V8.828c-0.014-4.869-3.958-8.813-8.828-8.828h-88.276
		c-4.869,0.014-8.813,3.958-8.828,8.828v61.793H308.966z"/>
	<rect x="203.034" y="70.621" style="fill:#BDC3C7;" width="105.931" height="134.621"/>
	<path style="fill:#7F8C8D;" d="M176.552,44.138h158.897c4.875,0,8.828,3.952,8.828,8.828v35.31c0,4.875-3.952,8.828-8.828,8.828
		H176.552c-4.875,0-8.828-3.952-8.828-8.828v-35.31C167.724,48.09,171.676,44.138,176.552,44.138z"/>
	<g>
		<path style="fill:#95A5A5;" d="M61.793,450.207h388.414c4.875,0,8.828,3.952,8.828,8.828V512H52.966v-52.966
			C52.966,454.159,56.918,450.207,61.793,450.207z"/>
		<path style="fill:#95A5A5;" d="M256,406.069c-4.875,0-8.828-3.952-8.828-8.828v-26.483c0-4.875,3.952-8.828,8.828-8.828
			s8.828,3.952,8.828,8.828v26.483C264.828,402.117,260.875,406.069,256,406.069z"/>
	</g>
	<rect x="238.345" y="322.074" style="fill:#7F8C8D;" width="35.31" height="48.684"/>
	<circle style="fill:#95A5A5;" cx="256" cy="247.172" r="88.276"/>
</g>
<g>
</g>
<g>
</g>
<g>
</g>
<g>
</g>
<g>
</g>
<g>
</g>
<g>
</g>
<g>
</g>
<g>
</g>
<g>
</g>
<g>
</g>
<g>
</g>
<g>
</g>
<g>
</g>
<g>
</g>
</svg>
