<?xml version="1.0" encoding="iso-8859-1"?>
<!-- Generator: Adobe Illustrator 19.0.0, SVG Export Plug-In . SVG Version: 6.00 Build 0)  -->
<svg version="1.1" id="Capa_1" xmlns="http://www.w3.org/2000/svg" xmlns:xlink="http://www.w3.org/1999/xlink" x="0px" y="0px"
	 viewBox="0 0 512 512" style="enable-background:new 0 0 512 512;" xml:space="preserve">
<g>
	<path style="fill:#35495E;" d="M44.138,83.862h423.724c9.751,0,17.655,7.904,17.655,17.655v300.138H26.483V101.517
		C26.483,91.766,34.387,83.862,44.138,83.862z"/>
	<path style="fill:#7F8C8D;" d="M6.194,404.742c-10.922-5.96-6.567-20.523,6.558-20.739c0.122-0.002,0.245-0.003,0.368-0.003
		h485.345c13.432,0.11,18.611,14.366,7.434,20.465l-38.857,21.202c-3.067,1.64-6.494,2.489-9.971,2.471H53.262
		c-2.678,0.014-5.316-0.64-7.678-1.903L6.194,404.742z"/>
	<path style="fill:#BDC3C7;" d="M202.83,384l15.034,37.586c1.637,4.093,4.393,6.552,7.345,6.552h61.172
		c2.952,0,5.708-2.458,7.345-6.552L308.762,384H202.83z"/>
	<polygon style="fill:#3B97D3;" points="220.69,172.138 180.965,207.448 101.517,207.448 61.793,172.138 101.517,136.827 
		180.965,136.827 	"/>
	<g>
		<polygon style="fill:#285680;" points="105.931,207.448 105.931,331.034 101.517,331.034 61.793,295.724 61.793,172.138 
			101.517,207.448 		"/>
		<polygon style="fill:#285680;" points="220.69,172.138 220.69,295.724 180.965,331.034 176.552,331.034 176.552,207.448 
			180.965,207.448 		"/>
	</g>
	<rect x="101.517" y="207.448" style="fill:#4482C3;" width="79.078" height="123.586"/>
	<g>
		<path style="fill:#95A5A5;" d="M432.552,198.621h-88.276c-4.875,0-8.828-3.952-8.828-8.828s3.952-8.828,8.828-8.828h88.276
			c4.875,0,8.828,3.952,8.828,8.828S437.427,198.621,432.552,198.621z"/>
		<path style="fill:#95A5A5;" d="M308.966,198.621H291.31c-4.875,0-8.828-3.952-8.828-8.828s3.952-8.828,8.828-8.828h17.655
			c4.875,0,8.828,3.952,8.828,8.828S313.841,198.621,308.966,198.621z"/>
	</g>
	<circle style="fill:#BDC3C7;" cx="326.621" cy="189.793" r="17.655"/>
	<g>
		<path style="fill:#95A5A5;" d="M432.552,304.552h-88.276c-4.875,0-8.828-3.952-8.828-8.828s3.952-8.828,8.828-8.828h88.276
			c4.875,0,8.828,3.952,8.828,8.828S437.427,304.552,432.552,304.552z"/>
		<path style="fill:#95A5A5;" d="M308.966,304.552H291.31c-4.875,0-8.828-3.952-8.828-8.828s3.952-8.828,8.828-8.828h17.655
			c4.875,0,8.828,3.952,8.828,8.828S313.841,304.552,308.966,304.552z"/>
	</g>
	<circle style="fill:#BDC3C7;" cx="326.621" cy="295.724" r="17.655"/>
	<g>
		<path style="fill:#95A5A5;" d="M379.586,251.586H291.31c-4.875,0-8.828-3.952-8.828-8.828s3.952-8.828,8.828-8.828h88.276
			c4.875,0,8.828,3.952,8.828,8.828S384.462,251.586,379.586,251.586z"/>
		<path style="fill:#95A5A5;" d="M432.552,251.586h-17.655c-4.875,0-8.828-3.952-8.828-8.828s3.952-8.828,8.828-8.828h17.655
			c4.875,0,8.828,3.952,8.828,8.828S437.427,251.586,432.552,251.586z"/>
	</g>
	<circle style="fill:#BDC3C7;" cx="397.241" cy="242.758" r="17.655"/>
</g>
<g>
</g>
<g>
</g>
<g>
</g>
<g>
</g>
<g>
</g>
<g>
</g>
<g>
</g>
<g>
</g>
<g>
</g>
<g>
</g>
<g>
</g>
<g>
</g>
<g>
</g>
<g>
</g>
<g>
</g>
</svg>
