<?xml version="1.0" encoding="iso-8859-1"?>
<!-- Generator: Adobe Illustrator 19.0.0, SVG Export Plug-In . SVG Version: 6.00 Build 0)  -->
<svg version="1.1" id="Capa_1" xmlns="http://www.w3.org/2000/svg" xmlns:xlink="http://www.w3.org/1999/xlink" x="0px" y="0px"
	 viewBox="0 0 512 512" style="enable-background:new 0 0 512 512;" xml:space="preserve">
<g>
	<path style="fill:#BDC3C7;" d="M17.655,0h476.69C504.095,0,512,7.904,512,17.655v476.69c0,9.751-7.905,17.655-17.655,17.655H17.655
		C7.904,512,0,504.095,0,494.345V17.655C0,7.904,7.904,0,17.655,0z"/>
	<path style="fill:#5E5F62;" d="M238.345,211.862v-52.966h35.31v52.966c0,9.751-7.904,17.655-17.655,17.655l0,0
		C246.249,229.517,238.345,221.613,238.345,211.862z"/>
	<g>
		<path style="fill:#95A5A5;" d="M512,432.552v61.793c-0.029,9.739-7.916,17.627-17.655,17.655H17.655
			C7.916,511.971,0.029,504.084,0,494.345v-61.793H512z"/>
		<rect y="35.31" style="fill:#95A5A5;" width="512" height="52.966"/>
	</g>
	<path style="fill:#7F8C8D;" d="M306.677,123.586H205.323c-3.878-0.231-7.219-2.812-8.422-6.506l-11.522-28.804h141.241
		l-11.522,28.804C313.896,120.774,310.555,123.355,306.677,123.586z"/>
	<path style="fill:#95A5A5;" d="M211.862,123.586h88.276v17.655c0,9.751-7.905,17.655-17.655,17.655h-52.966
		c-9.751,0-17.655-7.904-17.655-17.655V123.586z"/>
	<path style="fill:#E4C05C;" d="M361.931,370.759c0,50.953-36.275,94.687-86.349,104.106
		c-50.075,9.419-99.761-18.147-118.273-65.618l-0.088-0.088c-15.158-39.161-5.782-83.577,23.91-113.27s74.109-39.069,113.27-23.911
		l0.088,0.088C335.161,287.919,361.939,327.105,361.931,370.759z"/>
	<path style="fill:#F3D55B;" d="M326.621,344.276c-0.012,40.207-24.796,76.251-62.334,90.656
		c-37.538,14.405-80.072,4.193-106.978-25.685l-0.088-0.088c-15.158-39.161-5.782-83.577,23.91-113.27s74.109-39.069,113.27-23.911
		l0.088,0.088C314.951,290.493,326.63,316.739,326.621,344.276L326.621,344.276z"/>
	<circle style="fill:#B19046;" cx="225.103" cy="331.034" r="22.069"/>
</g>
<g>
</g>
<g>
</g>
<g>
</g>
<g>
</g>
<g>
</g>
<g>
</g>
<g>
</g>
<g>
</g>
<g>
</g>
<g>
</g>
<g>
</g>
<g>
</g>
<g>
</g>
<g>
</g>
<g>
</g>
</svg>
