<?xml version="1.0" encoding="iso-8859-1"?>
<!-- Generator: Adobe Illustrator 19.0.0, SVG Export Plug-In . SVG Version: 6.00 Build 0)  -->
<svg version="1.1" id="Capa_1" xmlns="http://www.w3.org/2000/svg" xmlns:xlink="http://www.w3.org/1999/xlink" x="0px" y="0px"
	 viewBox="0 0 512 512" style="enable-background:new 0 0 512 512;" xml:space="preserve">
<g>
	<path style="fill:#A5A5A4;" d="M494.345,0H176.552c-9.739,0.028-17.627,7.916-17.655,17.655v476.69
		c0.029,9.739,7.916,17.627,17.655,17.655h317.793c9.739-0.029,17.627-7.916,17.655-17.655V17.655
		C511.972,7.917,504.084,0.029,494.345,0z M344.276,406.069c-0.029,9.739-7.916,17.627-17.655,17.655h-61.793
		c-9.739-0.029-17.627-7.916-17.655-17.655V105.931c0.028-9.739,7.916-17.627,17.655-17.655h61.793
		c9.739,0.028,17.627,7.916,17.655,17.655V406.069z"/>
	<path style="fill:#D1D4D1;" d="M361.932,52.966H229.518c-9.739,0.028-17.627,7.916-17.655,17.655V441.38
		c0.029,9.739,7.916,17.627,17.655,17.655h132.414c9.739-0.029,17.627-7.916,17.655-17.655V70.621
		C379.558,60.882,371.67,52.994,361.932,52.966z M344.276,406.069c-0.029,9.739-7.916,17.627-17.655,17.655h-61.793
		c-9.739-0.029-17.627-7.916-17.655-17.655V105.931c0.028-9.739,7.916-17.627,17.655-17.655h61.793
		c9.739,0.028,17.627,7.916,17.655,17.655V406.069z"/>
	<path style="fill:#FDD7AD;" d="M335.625,266.152c-0.015,0.592-0.074,1.182-0.177,1.766c-0.698,5.585-3.246,10.775-7.239,14.742
		c-1.584,1.6-3.364,2.994-5.297,4.149c-4.506,2.885-9.745,4.417-15.095,4.414l-16.066,0.177c7.573-0.04,14.79,3.214,19.774,8.916
		h0.088c8.852,10.077,8.738,25.191-0.265,35.134c-5.112,5.67-12.405,8.883-20.039,8.828h-34.869
		c7.384,0.046,14.392,3.261,19.244,8.828c4.941,5.481,7.567,12.663,7.327,20.039c-1.184,13.856-12.933,24.407-26.836,24.099h-53.142
		l-44.138,0.088h-8.828l-61.793-0.088c-23.122,0.467-45.461-8.379-61.996-24.548S0.403,334.388,0.354,311.261L0,217.247
		c-0.07-18.634,7.303-36.524,20.48-49.699L139.918,60.999c5.17-4.684,12.018-7.072,18.979-6.621v59.674l-38.312,36.458
		c-6.062,5.44-10.287,12.626-12.094,20.568c-1.501,7.68-0.088,14.301,6.268,14.301h176.552c10.475-0.02,19.973,6.147,24.217,15.724
		s2.432,20.756-4.62,28.502c-0.27,0.345-0.565,0.67-0.883,0.971c-4.958,4.974-11.692,7.769-18.714,7.768v0.088l17.743-0.088
		c0.297-0.014,0.595,0.015,0.883,0.088c4.368,0.115,8.641,1.296,12.447,3.443v0.088c2.457,1.389,4.665,3.179,6.532,5.297
		c3.691,4.163,5.977,9.383,6.532,14.919C335.64,263.495,335.699,264.825,335.625,266.152z"/>
</g>
<g>
</g>
<g>
</g>
<g>
</g>
<g>
</g>
<g>
</g>
<g>
</g>
<g>
</g>
<g>
</g>
<g>
</g>
<g>
</g>
<g>
</g>
<g>
</g>
<g>
</g>
<g>
</g>
<g>
</g>
</svg>
