<?xml version="1.0" encoding="UTF-8" standalone="no"?>
<!-- Generator: Adobe Illustrator 19.0.0, SVG Export Plug-In . SVG Version: 6.00 Build 0)  -->

<svg
   xmlns:dc="http://purl.org/dc/elements/1.1/"
   xmlns:cc="http://creativecommons.org/ns#"
   xmlns:rdf="http://www.w3.org/1999/02/22-rdf-syntax-ns#"
   xmlns:svg="http://www.w3.org/2000/svg"
   xmlns="http://www.w3.org/2000/svg"
   xmlns:sodipodi="http://sodipodi.sourceforge.net/DTD/sodipodi-0.dtd"
   xmlns:inkscape="http://www.inkscape.org/namespaces/inkscape"
   version="1.1"
   id="Capa_1"
   x="0px"
   y="0px"
   viewBox="0 0 507.608 507.608"
   style="enable-background:new 0 0 507.608 507.608;"
   xml:space="preserve"
   inkscape:version="0.91 r13725"
   sodipodi:docname="3d-printing-6.svg"><metadata
     id="metadata53"><rdf:RDF><cc:Work
         rdf:about=""><dc:format>image/svg+xml</dc:format><dc:type
           rdf:resource="http://purl.org/dc/dcmitype/StillImage" /></cc:Work></rdf:RDF></metadata><defs
     id="defs51" /><sodipodi:namedview
     pagecolor="#ffffff"
     bordercolor="#666666"
     borderopacity="1"
     objecttolerance="10"
     gridtolerance="10"
     guidetolerance="10"
     inkscape:pageopacity="0"
     inkscape:pageshadow="2"
     inkscape:window-width="908"
     inkscape:window-height="669"
     id="namedview49"
     showgrid="false"
     inkscape:zoom="0.46492569"
     inkscape:cx="253.804"
     inkscape:cy="253.804"
     inkscape:window-x="1235"
     inkscape:window-y="605"
     inkscape:window-maximized="0"
     inkscape:current-layer="g3" /><g
     id="g3"><path
       style="fill:#146edc;fill-opacity:1"
       d="M451.998,128.905v148.039c-0.003,18.726-10.272,35.943-26.748,44.844l-148.657,78.477   c-14.19,7.769-31.361,7.769-45.55,0L82.387,321.788c-16.476-8.901-26.745-26.118-26.748-44.844V128.905   c0.015-8.479,2.138-16.822,6.179-24.276h0.088c4.649-8.681,11.779-15.78,20.48-20.392L231.044,5.76   c14.212-7.68,31.338-7.68,45.55,0l148.657,78.477c8.701,4.612,15.831,11.711,20.48,20.392h0.088   C449.86,112.083,451.983,120.426,451.998,128.905z"
       id="path5" /><path
       style="fill:#1464cc;fill-opacity:1"
       d="M253.819,202.909v203.225c-7.961-0.039-15.79-2.041-22.794-5.828L82.369,321.754   c-16.499-8.882-26.78-26.114-26.759-44.852V128.916c0.02-8.496,2.149-16.854,6.194-24.325L253.819,202.909z"
       id="path7" /><path
       style="fill:#00a6fc;fill-opacity:1"
       d="M445.834,104.769l-192.015,98.287L61.804,104.769c4.634-8.753,11.801-15.904,20.565-20.519   L231.025,5.721c14.246-7.599,31.342-7.599,45.587,0l148.657,78.529C434.032,88.865,441.199,96.016,445.834,104.769L445.834,104.769   z"
       id="path9" /><circle
       style="fill:#00a6fb;fill-opacity:1"
       cx="253.819"
       cy="392.85"
       r="114.759"
       id="circle11" /><g
       id="g13"><path
         style="fill:#ffffff;fill-opacity:1"
         d="M235.853,347.651c-2.414-2.425-5.278-4.356-8.431-5.685c-6.591-2.759-14.013-2.759-20.604,0    c-3.151,1.325-6.012,3.253-8.422,5.677c-2.413,2.411-4.339,5.265-5.672,8.405c-1.904,4.49,0.191,9.673,4.681,11.578    c4.49,1.904,9.673-0.191,11.578-4.681c0.447-1.057,1.094-2.017,1.905-2.828c0.801-0.802,1.749-1.441,2.793-1.884    c3.319-1.407,7.16-0.651,9.698,1.91c1.646,1.653,2.57,3.891,2.569,6.224v8.828c0.004,1.176-0.23,2.34-0.69,3.422    c-1.374,3.278-4.583,5.41-8.138,5.405c-4.875,0-8.828,3.952-8.828,8.828s3.952,8.828,8.828,8.828    c3.553,0.002,6.759,2.131,8.138,5.405c0.459,1.082,0.694,2.247,0.69,3.422v8.828c0.004,1.176-0.23,2.34-0.69,3.422    c-0.895,2.121-2.58,3.81-4.698,4.711c-2.16,0.911-4.593,0.926-6.765,0.043c-2.171-0.884-3.903-2.594-4.813-4.754    c-1.904-4.49-7.088-6.585-11.578-4.681c-4.49,1.904-6.585,7.088-4.681,11.578c1.331,3.137,3.254,5.987,5.664,8.397    c7.569,7.586,18.965,9.862,28.867,5.763c9.902-4.099,16.356-13.762,16.349-24.479v-8.828c0.049-6.548-2.412-12.866-6.876-17.657    c4.465-4.789,6.925-11.106,6.876-17.653v-8.828C243.613,359.346,240.824,352.61,235.853,347.651L235.853,347.651z"
         id="path15" /><path
         style="fill:#ffffff;fill-opacity:1"
         d="M272.103,339.94c-4.743-0.216-9.367,1.523-12.793,4.81c-3.501,3.357-5.484,7.995-5.491,12.845    v70.509c0.007,4.85,1.99,9.488,5.491,12.845c3.216,3.104,7.513,4.835,11.983,4.828c0.267,0,0.543-0.004,0.81-0.018    c10.207-0.474,43.509-5.689,43.509-52.909S282.31,340.414,272.103,339.94z M271.474,428.104v-70.502    c17.562,0.895,26.483,12.743,26.483,35.248C297.957,415.436,288.983,427.302,271.474,428.104z"
         id="path17" /></g></g><g
     id="g19" /><g
     id="g21" /><g
     id="g23" /><g
     id="g25" /><g
     id="g27" /><g
     id="g29" /><g
     id="g31" /><g
     id="g33" /><g
     id="g35" /><g
     id="g37" /><g
     id="g39" /><g
     id="g41" /><g
     id="g43" /><g
     id="g45" /><g
     id="g47" /></svg>