<?xml version="1.0" encoding="iso-8859-1"?>
<!-- Generator: Adobe Illustrator 19.0.0, SVG Export Plug-In . SVG Version: 6.00 Build 0)  -->
<svg version="1.1" id="Capa_1" xmlns="http://www.w3.org/2000/svg" xmlns:xlink="http://www.w3.org/1999/xlink" x="0px" y="0px"
	 viewBox="0 0 512 512" style="enable-background:new 0 0 512 512;" xml:space="preserve">
<g>
	<path style="fill:#B49ACA;" d="M273.655,158.897v105.931h220.69c9.739,0.029,17.627,7.916,17.655,17.655v70.621
		c-0.029,9.739-7.916,17.627-17.655,17.655H35.31v35.31h459.034c9.739,0.029,17.627,7.916,17.655,17.655v70.621
		c-0.029,9.739-7.916,17.627-17.655,17.655H17.655C7.904,512,0,504.095,0,494.345s7.904-17.655,17.655-17.655H476.69v-35.31H17.655
		C7.916,441.351,0.029,433.463,0,423.724v-70.621c0.029-9.739,7.916-17.627,17.655-17.655H476.69v-35.31H256
		c-9.739-0.029-17.627-7.916-17.655-17.655V158.897H273.655z"/>
	<polygon style="fill:#2C3E50;" points="273.655,185.379 238.345,185.379 194.207,97.103 195.31,70.621 321.421,77.082 
		317.793,97.103 	"/>
	<path style="fill:#4482C3;" d="M220.69,0h70.621c4.875,0,8.828,3.952,8.828,8.828v52.966h-88.276V8.828
		C211.862,3.952,215.814,0,220.69,0z"/>
	<path style="fill:#35495E;" d="M326.621,97.103H185.379c-4.875,0-8.828-3.952-8.828-8.828v-35.31c0-4.875,3.952-8.828,8.828-8.828
		h141.241c4.875,0,8.828,3.952,8.828,8.828v35.31C335.448,93.151,331.496,97.103,326.621,97.103z"/>
</g>
<g>
</g>
<g>
</g>
<g>
</g>
<g>
</g>
<g>
</g>
<g>
</g>
<g>
</g>
<g>
</g>
<g>
</g>
<g>
</g>
<g>
</g>
<g>
</g>
<g>
</g>
<g>
</g>
<g>
</g>
</svg>
