<?xml version="1.0" encoding="iso-8859-1"?>
<!-- Generator: Adobe Illustrator 19.0.0, SVG Export Plug-In . SVG Version: 6.00 Build 0)  -->
<svg version="1.1" id="Capa_1" xmlns="http://www.w3.org/2000/svg" xmlns:xlink="http://www.w3.org/1999/xlink" x="0px" y="0px"
	 viewBox="0 0 512.002 512.002" style="enable-background:new 0 0 512.002 512.002;" xml:space="preserve">
<g>
	<path style="fill:none;stroke:#000000;stroke-width:2;stroke-linecap:round;stroke-linejoin:round;" d="M256.001,258.989v-2.987"/>
	<g>
		<g>
			<path style="fill:#2C2F38;" d="M33.134,393.831c-1.389,0.002-2.757-0.339-3.983-0.992l-7.542-3.996
				c-2.793-1.48-4.54-4.381-4.542-7.542v-8.533c0-4.713,3.821-8.533,8.533-8.533s8.533,3.82,8.533,8.533v3.396l3,1.592
				c3.468,1.834,5.238,5.796,4.291,9.603C40.478,391.166,37.057,393.836,33.134,393.831L33.134,393.831z"/>
			<path style="fill:#2C2F38;" d="M25.601,347.94c-2.263,0.001-4.434-0.898-6.035-2.499c-1.6-1.6-2.499-3.771-2.499-6.035v-16.679
				c0-4.713,3.821-8.533,8.533-8.533s8.533,3.82,8.533,8.533v16.679c0.001,2.263-0.898,4.434-2.499,6.035
				C30.035,347.041,27.864,347.94,25.601,347.94L25.601,347.94z M25.601,297.898c-2.263,0.001-4.434-0.898-6.035-2.499
				c-1.6-1.6-2.499-3.771-2.499-6.035v-16.679c0-3.049,1.626-5.866,4.267-7.39c2.64-1.524,5.893-1.524,8.533,0
				c2.64,1.524,4.267,4.341,4.267,7.39v16.679c0.001,2.263-0.898,4.434-2.499,6.035C30.035,297,27.864,297.899,25.601,297.898
				L25.601,297.898z M25.601,247.856c-2.263,0.001-4.434-0.898-6.035-2.499c-1.6-1.6-2.499-3.771-2.499-6.035V222.64
				c0-4.713,3.821-8.533,8.533-8.533s8.533,3.82,8.533,8.533v16.683c0.001,2.263-0.898,4.434-2.499,6.035
				C30.035,246.958,27.864,247.857,25.601,247.856L25.601,247.856z M25.601,197.815c-2.263,0.001-4.434-0.898-6.035-2.499
				c-1.6-1.6-2.499-3.771-2.499-6.035v-16.683c0-4.713,3.821-8.533,8.533-8.533s8.533,3.821,8.533,8.533v16.683
				c0.001,2.263-0.898,4.434-2.499,6.035C30.035,196.916,27.864,197.815,25.601,197.815L25.601,197.815z"/>
			<path style="fill:#2C2F38;" d="M25.601,147.769c-2.263,0.001-4.434-0.898-6.035-2.499c-1.6-1.6-2.499-3.771-2.499-6.035v-8.533
				c0.002-3.161,1.749-6.062,4.542-7.542l7.542-3.996c2.695-1.431,5.949-1.314,8.534,0.307c2.585,1.621,4.108,4.498,3.995,7.548
				c-0.114,3.049-1.847,5.806-4.545,7.229l-3,1.592v3.396c0.001,2.263-0.898,4.434-2.499,6.035
				C30.035,146.871,27.864,147.769,25.601,147.769z"/>
			<path style="fill:#2C2F38;" d="M63.909,118.927c-3.922,0.004-7.342-2.665-8.291-6.47s0.818-7.767,4.282-9.605l15.383-8.154
				c4.165-2.209,9.333-0.623,11.542,3.542c2.209,4.165,0.623,9.333-3.542,11.542l-15.384,8.154
				C66.672,118.588,65.301,118.928,63.909,118.927L63.909,118.927z M110.051,94.46c-3.922,0.004-7.342-2.665-8.291-6.47
				s0.818-7.767,4.282-9.605l15.383-8.154c4.165-2.209,9.333-0.623,11.542,3.542c2.209,4.165,0.623,9.333-3.542,11.542
				l-15.383,8.154C112.813,94.121,111.443,94.462,110.051,94.46L110.051,94.46z M156.193,69.998
				c-3.922,0.006-7.342-2.662-8.291-6.467c-0.949-3.805,0.818-7.767,4.283-9.604l15.375-8.154c2.696-1.456,5.965-1.355,8.566,0.264
				c2.601,1.619,4.134,4.508,4.017,7.57c-0.117,3.061-1.866,5.825-4.583,7.241l-15.375,8.154
				C158.955,69.656,157.585,69.998,156.193,69.998L156.193,69.998z M202.335,45.531c-3.922,0.006-7.342-2.662-8.291-6.467
				s0.818-7.767,4.283-9.604l15.375-8.154c2.696-1.456,5.965-1.355,8.566,0.264c2.601,1.619,4.134,4.508,4.017,7.57
				s-1.866,5.825-4.583,7.241l-15.375,8.154C205.097,45.189,203.726,45.531,202.335,45.531L202.335,45.531z"/>
			<path style="fill:#2C2F38;" d="M263.534,21.065c-1.389,0.002-2.757-0.338-3.983-0.992l-3.55-1.879l-3.55,1.879
				c-4.165,2.205-9.329,0.615-11.533-3.55c-2.205-4.165-0.615-9.329,3.55-11.533l7.542-3.996c2.496-1.325,5.487-1.325,7.983,0
				l7.542,3.996c3.468,1.834,5.238,5.796,4.291,9.603C270.878,18.399,267.457,21.069,263.534,21.065L263.534,21.065z"/>
			<path style="fill:#2C2F38;" d="M448.093,118.931c-1.392,0-2.763-0.342-3.992-0.996l-15.375-8.158
				c-2.717-1.416-4.466-4.18-4.583-7.241c-0.117-3.061,1.416-5.951,4.017-7.57c2.601-1.619,5.87-1.72,8.566-0.264l15.375,8.158
				c3.465,1.836,5.232,5.798,4.283,9.604S452.014,118.937,448.093,118.931L448.093,118.931z M401.951,94.464
				c-1.392,0.002-2.763-0.34-3.992-0.996l-15.375-8.154c-2.717-1.416-4.466-4.18-4.583-7.241c-0.117-3.061,1.416-5.951,4.017-7.57
				c2.601-1.619,5.87-1.72,8.566-0.264l15.375,8.154c3.465,1.836,5.232,5.798,4.283,9.604
				C409.294,91.803,405.873,94.471,401.951,94.464L401.951,94.464z M355.809,69.998c-1.392,0.002-2.763-0.34-3.992-0.996
				l-15.375-8.154c-2.717-1.416-4.466-4.18-4.583-7.241c-0.117-3.061,1.416-5.951,4.017-7.57c2.601-1.619,5.87-1.72,8.566-0.264
				l15.375,8.154c3.465,1.836,5.232,5.798,4.283,9.604C363.152,67.336,359.731,70.004,355.809,69.998L355.809,69.998z
				 M309.676,45.531c-1.392,0.001-2.762-0.339-3.992-0.992l-15.383-8.154c-4.165-2.209-5.751-7.377-3.542-11.542
				s7.376-5.751,11.542-3.542l15.383,8.154c3.465,1.838,5.231,5.8,4.282,9.605S313.598,45.536,309.676,45.531L309.676,45.531z"/>
			<path style="fill:#2C2F38;" d="M486.401,147.769c-2.263,0.001-4.434-0.898-6.035-2.499c-1.6-1.6-2.499-3.771-2.499-6.035v-3.396
				l-3-1.592c-2.699-1.424-4.432-4.18-4.545-7.229c-0.114-3.049,1.41-5.927,3.995-7.548c2.585-1.621,5.839-1.738,8.534-0.307
				l7.542,3.996c2.793,1.48,4.54,4.381,4.542,7.542v8.533c0.001,2.263-0.898,4.434-2.499,6.035
				C490.835,146.871,488.664,147.769,486.401,147.769z"/>
			<path style="fill:#2C2F38;" d="M486.401,347.94c-2.263,0.001-4.434-0.898-6.035-2.499c-1.6-1.6-2.499-3.771-2.499-6.035v-16.683
				c0-4.713,3.821-8.533,8.533-8.533c4.713,0,8.533,3.82,8.533,8.533v16.683c0.001,2.263-0.898,4.434-2.499,6.035
				C490.835,347.041,488.664,347.94,486.401,347.94L486.401,347.94z M486.401,297.898c-2.263,0.001-4.434-0.898-6.035-2.499
				c-1.6-1.6-2.499-3.771-2.499-6.035v-16.683c0-4.713,3.821-8.533,8.533-8.533c4.713,0,8.533,3.82,8.533,8.533v16.683
				c0.001,2.263-0.898,4.434-2.499,6.035C490.835,297,488.664,297.899,486.401,297.898L486.401,297.898z M486.401,247.852
				c-2.263,0.001-4.434-0.898-6.035-2.499c-1.6-1.6-2.499-3.771-2.499-6.035V222.64c0-4.713,3.821-8.533,8.533-8.533
				c4.713,0,8.533,3.82,8.533,8.533v16.679c0.001,2.263-0.898,4.434-2.499,6.035C490.835,246.954,488.664,247.853,486.401,247.852
				L486.401,247.852z M486.401,197.81c-2.263,0.001-4.434-0.898-6.035-2.499c-1.6-1.6-2.499-3.771-2.499-6.035v-16.679
				c0-4.713,3.821-8.533,8.533-8.533c4.713,0,8.533,3.821,8.533,8.533v16.679c0.001,2.263-0.898,4.434-2.499,6.035
				S488.664,197.811,486.401,197.81L486.401,197.81z"/>
			<path style="fill:#2C2F38;" d="M478.868,393.831c-3.923,0.005-7.343-2.666-8.291-6.472c-0.947-3.807,0.823-7.769,4.291-9.603
				l3-1.592v-3.396c0-4.713,3.821-8.533,8.533-8.533c4.713,0,8.533,3.82,8.533,8.533v8.533c-0.002,3.161-1.749,6.062-4.542,7.542
				l-7.542,3.996C481.625,393.493,480.257,393.833,478.868,393.831L478.868,393.831z"/>
			<path style="fill:#2C2F38;" d="M294.309,491.694c-3.922,0.006-7.342-2.662-8.291-6.467s0.818-7.767,4.283-9.604l15.375-8.154
				c2.696-1.456,5.965-1.355,8.566,0.264c2.601,1.619,4.134,4.508,4.017,7.57c-0.117,3.061-1.866,5.825-4.583,7.241l-15.375,8.154
				C297.072,491.352,295.701,491.693,294.309,491.694z M340.451,467.227c-3.922,0.006-7.342-2.662-8.291-6.467
				c-0.949-3.805,0.818-7.767,4.283-9.604l15.375-8.154c2.696-1.456,5.965-1.355,8.566,0.264c2.601,1.619,4.134,4.508,4.017,7.57
				c-0.117,3.061-1.866,5.825-4.583,7.241l-15.375,8.154C343.214,466.885,341.843,467.227,340.451,467.227L340.451,467.227z
				 M386.584,442.765c-3.922,0.004-7.342-2.665-8.291-6.47c-0.949-3.805,0.818-7.767,4.282-9.605l15.383-8.154
				c4.165-2.209,9.333-0.624,11.542,3.542c2.209,4.165,0.623,9.333-3.542,11.542l-15.383,8.154
				C389.347,442.425,387.976,442.766,386.584,442.765L386.584,442.765z M432.726,418.298c-3.922,0.004-7.342-2.665-8.291-6.47
				c-0.949-3.805,0.818-7.767,4.282-9.605l15.383-8.154c4.165-2.209,9.333-0.624,11.542,3.542c2.209,4.165,0.624,9.333-3.542,11.542
				l-15.383,8.154C435.489,417.958,434.118,418.299,432.726,418.298L432.726,418.298z"/>
			<path style="fill:#2C2F38;" d="M256.001,512.002c-1.392,0.001-2.762-0.339-3.992-0.992l-7.542-3.996
				c-2.699-1.424-4.432-4.18-4.545-7.229c-0.114-3.049,1.41-5.927,3.995-7.548c2.585-1.621,5.839-1.738,8.534-0.307l3.55,1.879
				l3.55-1.879c2.695-1.431,5.949-1.314,8.534,0.307c2.585,1.621,4.108,4.498,3.995,7.548c-0.114,3.049-1.847,5.805-4.545,7.229
				l-7.542,3.996C258.763,511.663,257.393,512.003,256.001,512.002z"/>
			<path style="fill:#2C2F38;" d="M217.693,491.694c-1.392,0.001-2.762-0.339-3.992-0.992l-15.383-8.154
				c-4.165-2.209-5.751-7.377-3.542-11.542c2.209-4.165,7.377-5.751,11.542-3.542l15.383,8.154c3.465,1.838,5.231,5.8,4.282,9.605
				C225.034,489.029,221.615,491.698,217.693,491.694L217.693,491.694z M171.551,467.227c-1.392,0.002-2.763-0.34-3.992-0.996
				l-15.375-8.154c-2.717-1.416-4.466-4.18-4.583-7.241c-0.117-3.061,1.416-5.951,4.017-7.57c2.601-1.619,5.87-1.72,8.566-0.264
				l15.375,8.154c3.465,1.836,5.232,5.798,4.283,9.604C178.894,464.565,175.473,467.233,171.551,467.227L171.551,467.227z
				 M125.409,442.76c-1.392,0.002-2.763-0.34-3.992-0.996l-15.375-8.154c-2.717-1.416-4.466-4.18-4.583-7.241
				c-0.117-3.061,1.416-5.951,4.017-7.57c2.601-1.619,5.87-1.72,8.566-0.264l15.375,8.154c3.465,1.836,5.232,5.798,4.283,9.604
				C132.752,440.098,129.331,442.766,125.409,442.76L125.409,442.76z M79.268,418.298c-1.392,0-2.763-0.342-3.992-0.996
				l-15.375-8.158c-2.717-1.416-4.466-4.18-4.583-7.241c-0.117-3.061,1.416-5.951,4.017-7.57c2.601-1.619,5.87-1.72,8.566-0.264
				l15.375,8.158c3.465,1.836,5.232,5.798,4.283,9.604C86.61,415.635,83.189,418.304,79.268,418.298L79.268,418.298z"/>
		</g>
		<polygon style="fill:#547580;" points="452.268,155.053 452.268,356.951 257.196,460.119 256.001,460.802 59.734,356.951 
			59.734,155.053 256.001,51.202 		"/>
		<polygon style="fill:#35495E;" points="257.196,460.119 256.001,460.802 59.734,356.951 59.734,155.053 256.001,258.989 
			256.001,457.815 		"/>
		<polygon style="fill:#84B5CB;" points="452.268,155.053 256.001,258.989 59.734,155.053 256.001,51.202 		"/>
	</g>
</g>
<g>
</g>
<g>
</g>
<g>
</g>
<g>
</g>
<g>
</g>
<g>
</g>
<g>
</g>
<g>
</g>
<g>
</g>
<g>
</g>
<g>
</g>
<g>
</g>
<g>
</g>
<g>
</g>
<g>
</g>
</svg>
