<?xml version="1.0" encoding="iso-8859-1"?>
<!-- Generator: Adobe Illustrator 19.0.0, SVG Export Plug-In . SVG Version: 6.00 Build 0)  -->
<svg version="1.1" id="Capa_1" xmlns="http://www.w3.org/2000/svg" xmlns:xlink="http://www.w3.org/1999/xlink" x="0px" y="0px"
	 viewBox="0 0 512 512" style="enable-background:new 0 0 512 512;" xml:space="preserve">
<g>
	<rect x="220.69" y="353.103" style="fill:#9FC9D3;" width="70.621" height="81.267"/>
	<path style="fill:#3F5C6C;" d="M158.897,282.483c14.421,8.782,26.529,20.89,35.31,35.31c7.907,11.227,13.589,23.866,16.74,37.232
		c0.863,4.054,4.461,6.941,8.606,6.906h72.894c4.145,0.035,7.743-2.851,8.606-6.906c3.151-13.366,8.833-26.005,16.74-37.232
		c8.782-14.421,20.89-26.529,35.31-35.31l8.824-9.612l-207.447,0.785L158.897,282.483z"/>
	<rect x="81.117" y="194.383" style="fill:#7F8C8D;" width="349.934" height="88.099"/>
	<path style="fill:#9FC9D3;" d="M335.36,79.448c27.183,8.43,51.784,23.616,71.503,44.138l25.688,30.295l-79.448,57.981H158.897
		l-72.941-61.79l19.181-26.486c19.719-20.522,44.32-35.708,71.503-44.138H335.36z"/>
	<circle style="fill:#95A5A5;" cx="79.448" cy="203.034" r="79.448"/>
	<g>
		<path style="fill:#BDC3C7;" d="M35.31,211.862c-0.592-0.02-1.183-0.079-1.767-0.177c-0.552-0.098-1.086-0.277-1.586-0.53
			c-0.565-0.194-1.101-0.462-1.595-0.797c-0.44-0.35-0.879-0.703-1.319-1.056c-0.353-0.444-0.707-0.884-1.06-1.323
			c-0.336-0.492-0.603-1.027-0.793-1.591c-0.255-0.501-0.435-1.037-0.535-1.591c-0.1-0.583-0.157-1.172-0.172-1.763
			c0.014-1.155,0.254-2.296,0.707-3.358c0.426-1.08,1.055-2.067,1.853-2.91l1.319-1.06c0.494-0.335,1.03-0.604,1.595-0.797
			c0.499-0.254,1.034-0.431,1.587-0.526c1.72-0.361,3.51-0.177,5.121,0.526c0.542,0.177,1.05,0.447,1.5,0.797
			c0.526,0.353,0.974,0.707,1.414,1.06c0.799,0.842,1.428,1.83,1.854,2.909c0.453,1.062,0.693,2.203,0.707,3.358
			c-0.013,0.592-0.074,1.181-0.181,1.763c-0.093,0.554-0.27,1.091-0.526,1.591c-0.194,0.562-0.461,1.097-0.793,1.591
			c-0.353,0.44-0.707,0.879-1.06,1.323c-0.44,0.353-0.888,0.707-1.414,1.056c-0.45,0.351-0.958,0.62-1.5,0.797
			C37.603,211.608,36.464,211.848,35.31,211.862L35.31,211.862z"/>
		<path style="fill:#BDC3C7;" d="M79.448,167.724c-1.158,0.03-2.306-0.212-3.353-0.707c-1.069-0.448-2.055-1.075-2.914-1.853
			c-1.629-1.682-2.546-3.927-2.56-6.268c0.014-1.155,0.254-2.296,0.707-3.358c1.501-3.948,5.668-6.2,9.793-5.293
			c0.586,0.081,1.154,0.259,1.681,0.526c0.542,0.177,1.05,0.447,1.5,0.797c0.526,0.353,0.974,0.707,1.414,1.06
			c0.799,0.842,1.428,1.83,1.854,2.909c0.453,1.062,0.693,2.203,0.707,3.358c-0.018,2.34-0.935,4.584-2.56,6.268
			c-0.44,0.353-0.888,0.707-1.414,1.056c-0.45,0.351-0.958,0.62-1.5,0.797c-0.528,0.266-1.096,0.445-1.681,0.53
			C80.569,167.649,80.01,167.708,79.448,167.724z"/>
		<path style="fill:#BDC3C7;" d="M123.586,211.862c-1.153-0.014-2.293-0.254-3.353-0.707c-1.08-0.428-2.069-1.057-2.914-1.854
			c-3.427-3.455-3.412-9.031,0.034-12.467s9.022-3.436,12.467,0c3.445,3.436,3.46,9.013,0.034,12.467
			C128.169,210.925,125.926,211.842,123.586,211.862z"/>
		<path style="fill:#BDC3C7;" d="M79.448,256c-1.153-0.014-2.293-0.254-3.353-0.707c-1.08-0.427-2.069-1.056-2.914-1.853
			c-1.614-1.691-2.529-3.93-2.56-6.268c0.014-1.155,0.254-2.296,0.707-3.358c0.447-1.068,1.074-2.053,1.853-2.91
			c0.844-0.8,1.833-1.43,2.914-1.858c1.579-0.698,3.337-0.882,5.026-0.526c0.586,0.081,1.154,0.259,1.681,0.526
			c0.542,0.177,1.05,0.447,1.5,0.797c0.526,0.353,0.974,0.707,1.414,1.06c0.779,0.857,1.406,1.841,1.854,2.909
			c0.453,1.062,0.693,2.203,0.707,3.358c-0.035,2.337-0.949,4.574-2.56,6.268c-0.44,0.353-0.888,0.707-1.414,1.056
			c-0.45,0.351-0.958,0.62-1.5,0.797c-0.528,0.266-1.096,0.445-1.681,0.53C80.569,255.925,80.01,255.984,79.448,256z"/>
	</g>
	<circle style="fill:#95A5A5;" cx="432.552" cy="203.034" r="79.448"/>
	<g>
		<path style="fill:#BDC3C7;" d="M388.414,211.862c-0.592-0.02-1.183-0.079-1.767-0.177c-0.552-0.098-1.086-0.277-1.586-0.53
			c-0.565-0.194-1.101-0.462-1.595-0.797c-0.44-0.35-0.879-0.703-1.319-1.056c-0.378-0.421-0.732-0.862-1.06-1.323
			c-0.336-0.492-0.603-1.027-0.793-1.591c-0.255-0.501-0.435-1.037-0.535-1.591c-0.1-0.583-0.157-1.172-0.172-1.763
			c0.014-1.155,0.254-2.296,0.707-3.358c0.448-1.068,1.075-2.052,1.854-2.91c3.539-3.267,8.995-3.267,12.534,0
			c0.779,0.857,1.406,1.841,1.854,2.91c0.453,1.062,0.693,2.203,0.706,3.358c-0.013,0.592-0.074,1.181-0.181,1.763
			c-0.093,0.554-0.27,1.091-0.526,1.591c-0.194,0.562-0.461,1.097-0.793,1.591c-0.353,0.44-0.707,0.879-1.06,1.323
			c-0.44,0.353-0.888,0.707-1.328,1.056c-0.491,0.335-1.024,0.603-1.586,0.797c-0.5,0.252-1.035,0.431-1.586,0.53
			C389.596,211.782,389.006,211.841,388.414,211.862z"/>
		<path style="fill:#BDC3C7;" d="M432.552,167.724c-0.564-0.016-1.126-0.075-1.681-0.177c-0.583-0.085-1.147-0.264-1.672-0.53
			c-0.565-0.194-1.101-0.462-1.595-0.797c-0.44-0.35-0.879-0.703-1.319-1.056c-3.414-3.481-3.414-9.054,0-12.534l1.319-1.06
			c0.494-0.335,1.03-0.604,1.595-0.797c0.524-0.267,1.09-0.445,1.672-0.526c2.881-0.58,5.862,0.313,7.948,2.383
			c0.353,0.44,0.707,0.879,1.06,1.41c0.347,0.452,0.615,0.959,0.793,1.5c0.269,0.526,0.447,1.095,0.526,1.681
			c0.107,0.553,0.168,1.114,0.181,1.677c-0.018,0.591-0.078,1.18-0.181,1.763c-0.093,0.554-0.27,1.09-0.526,1.591
			c-0.194,0.562-0.461,1.097-0.793,1.591c-0.353,0.44-0.707,0.879-1.06,1.323c-0.44,0.353-0.888,0.707-1.328,1.056
			c-0.491,0.335-1.024,0.603-1.586,0.797c-0.528,0.266-1.096,0.445-1.681,0.53C433.672,167.649,433.113,167.708,432.552,167.724z"/>
		<path style="fill:#BDC3C7;" d="M432.552,211.862c-0.564-0.016-1.126-0.075-1.681-0.177c-0.583-0.085-1.147-0.264-1.672-0.53
			c-0.565-0.194-1.101-0.462-1.595-0.797c-0.44-0.35-0.879-0.703-1.319-1.056c-3.414-3.481-3.414-9.054,0-12.534l1.319-1.06
			c0.494-0.335,1.03-0.604,1.595-0.797c0.524-0.267,1.09-0.445,1.672-0.526c2.881-0.58,5.862,0.313,7.948,2.383
			c0.353,0.44,0.707,0.879,1.06,1.41c0.347,0.452,0.615,0.959,0.793,1.5c0.269,0.526,0.447,1.095,0.526,1.681
			c0.107,0.553,0.168,1.114,0.181,1.677c-0.018,0.591-0.078,1.18-0.181,1.763c-0.093,0.554-0.27,1.091-0.526,1.591
			c-0.194,0.562-0.461,1.097-0.793,1.591c-0.353,0.44-0.707,0.879-1.06,1.323c-0.44,0.353-0.888,0.707-1.328,1.056
			c-0.491,0.335-1.024,0.603-1.586,0.797c-0.528,0.266-1.096,0.445-1.681,0.53C433.672,211.787,433.113,211.846,432.552,211.862z"/>
		<path style="fill:#BDC3C7;" d="M476.69,211.862c-0.593-0.016-1.183-0.075-1.767-0.177c-0.552-0.098-1.086-0.277-1.586-0.53
			c-0.565-0.194-1.101-0.462-1.595-0.797c-0.461-0.324-0.902-0.677-1.319-1.056c-0.798-0.844-1.427-1.833-1.854-2.914
			c-0.943-2.138-0.943-4.573,0-6.711c0.448-1.068,1.075-2.052,1.854-2.91c3.539-3.267,8.995-3.267,12.534,0
			c0.779,0.857,1.406,1.841,1.854,2.91c0.943,2.138,0.943,4.573,0,6.711c-0.448,1.07-1.075,2.055-1.854,2.914
			c-0.42,0.379-0.863,0.732-1.328,1.056c-0.491,0.335-1.024,0.603-1.586,0.797c-0.528,0.266-1.096,0.445-1.681,0.53
			C477.81,211.787,477.251,211.846,476.69,211.862L476.69,211.862z"/>
		<path style="fill:#BDC3C7;" d="M432.552,256c-0.564-0.016-1.126-0.075-1.681-0.177c-0.583-0.085-1.147-0.264-1.672-0.53
			c-0.565-0.194-1.101-0.462-1.595-0.797c-0.44-0.35-0.879-0.703-1.319-1.056c-3.414-3.481-3.414-9.054,0-12.534l1.319-1.06
			c0.494-0.335,1.03-0.604,1.595-0.797c0.524-0.267,1.09-0.445,1.672-0.526c2.881-0.58,5.862,0.313,7.948,2.383
			c0.353,0.44,0.707,0.879,1.06,1.41c0.347,0.452,0.615,0.959,0.793,1.5c0.269,0.526,0.447,1.095,0.526,1.681
			c0.107,0.553,0.168,1.114,0.181,1.677c-0.018,0.591-0.078,1.18-0.181,1.763c-0.093,0.554-0.27,1.09-0.526,1.591
			c-0.194,0.562-0.461,1.097-0.793,1.591c-0.353,0.44-0.707,0.879-1.06,1.323c-0.44,0.353-0.888,0.707-1.328,1.056
			c-0.491,0.335-1.024,0.603-1.586,0.797c-0.528,0.266-1.096,0.445-1.681,0.53C433.672,255.925,433.113,255.984,432.552,256
			L432.552,256z"/>
	</g>
	<circle style="fill:#95A5A5;" cx="256" cy="79.448" r="79.448"/>
	<g>
		<path style="fill:#BDC3C7;" d="M211.862,88.276c-1.153-0.014-2.293-0.254-3.353-0.707c-3.359-1.294-5.575-4.523-5.575-8.123
			s2.216-6.828,5.575-8.123c3.293-1.33,7.06-0.603,9.621,1.857c2.546,2.525,3.312,6.341,1.937,9.653
			C218.691,86.146,215.448,88.297,211.862,88.276z"/>
		<path style="fill:#BDC3C7;" d="M256,44.138c-2.348,0.023-4.607-0.9-6.267-2.56c-1.66-1.66-2.583-3.919-2.56-6.267
			c0.031-2.338,0.945-4.577,2.56-6.268c2.557-2.468,6.329-3.196,9.621-1.858c1.07,0.45,2.055,1.078,2.914,1.858
			c3.414,3.481,3.414,9.054,0,12.534C260.574,43.187,258.337,44.102,256,44.138z"/>
		<path style="fill:#BDC3C7;" d="M256,88.276c-3.569-0.014-6.782-2.168-8.151-5.464c-1.369-3.297-0.626-7.093,1.883-9.631
			c2.557-2.468,6.329-3.196,9.621-1.858c1.07,0.45,2.055,1.078,2.914,1.858c2.546,2.525,3.312,6.341,1.937,9.653
			C262.829,86.146,259.586,88.297,256,88.276z"/>
		<path style="fill:#BDC3C7;" d="M300.138,88.276c-2.348,0.023-4.607-0.9-6.267-2.56c-1.66-1.66-2.583-3.919-2.56-6.267
			c-0.033-1.159,0.21-2.31,0.707-3.358c0.447-1.068,1.074-2.053,1.853-2.91c3.539-3.267,8.995-3.267,12.534,0
			c0.779,0.857,1.406,1.841,1.854,2.909c0.453,1.062,0.693,2.203,0.707,3.358c0.023,2.348-0.9,4.607-2.56,6.267
			C304.745,87.376,302.486,88.299,300.138,88.276z"/>
		<path style="fill:#BDC3C7;" d="M256,132.414c-2.337-0.035-4.575-0.949-6.268-2.56c-0.779-0.859-1.406-1.844-1.854-2.914
			c-0.943-2.138-0.943-4.573,0-6.711c0.448-1.068,1.075-2.052,1.854-2.909c3.539-3.267,8.995-3.267,12.534,0
			c0.779,0.857,1.406,1.841,1.854,2.909c0.943,2.138,0.943,4.573,0,6.711c-0.448,1.07-1.074,2.055-1.854,2.914
			C260.573,131.464,258.336,132.377,256,132.414z"/>
	</g>
	<g>
		<path style="fill:#95A5A5;" d="M273.655,256h-88.276c-4.875,0-8.828-3.952-8.828-8.828s3.952-8.828,8.828-8.828h88.276
			c4.875,0,8.828,3.952,8.828,8.828S278.531,256,273.655,256z"/>
		<path style="fill:#95A5A5;" d="M326.621,256h-17.655c-4.875,0-8.828-3.952-8.828-8.828s3.952-8.828,8.828-8.828h17.655
			c4.875,0,8.828,3.952,8.828,8.828S331.496,256,326.621,256z"/>
	</g>
	<path style="fill:#3F5C6C;" d="M220.69,423.724h70.621c9.751,0,17.655,7.905,17.655,17.655v52.966
		c0,9.751-7.905,17.655-17.655,17.655H220.69c-9.751,0-17.655-7.905-17.655-17.655v-52.966
		C203.034,431.629,210.939,423.724,220.69,423.724z"/>
	<path style="fill:#BDC3C7;" d="M79.448,211.862c-1.153-0.014-2.293-0.254-3.353-0.707c-1.069-0.448-2.055-1.075-2.914-1.853
		c-0.798-0.844-1.427-1.833-1.854-2.914c-0.452-1.061-0.692-2.2-0.706-3.354c0.014-2.341,0.931-4.586,2.56-6.268
		c0.858-0.781,1.843-1.41,2.914-1.858c1.579-0.698,3.337-0.882,5.026-0.526c0.586,0.081,1.154,0.259,1.681,0.526
		c0.542,0.177,1.05,0.447,1.5,0.797c0.526,0.353,0.974,0.707,1.414,1.06c1.626,1.684,2.542,3.927,2.561,6.268
		c-0.014,1.153-0.254,2.293-0.707,3.353c-0.427,1.08-1.056,2.069-1.854,2.914c-0.44,0.353-0.888,0.707-1.414,1.056
		c-0.45,0.351-0.958,0.62-1.5,0.797c-0.528,0.266-1.096,0.445-1.681,0.53C80.568,211.787,80.009,211.846,79.448,211.862
		L79.448,211.862z"/>
</g>
<g>
</g>
<g>
</g>
<g>
</g>
<g>
</g>
<g>
</g>
<g>
</g>
<g>
</g>
<g>
</g>
<g>
</g>
<g>
</g>
<g>
</g>
<g>
</g>
<g>
</g>
<g>
</g>
<g>
</g>
</svg>
