<?xml version="1.0" encoding="iso-8859-1"?>
<!-- Generator: Adobe Illustrator 19.0.0, SVG Export Plug-In . SVG Version: 6.00 Build 0)  -->
<svg version="1.1" id="Capa_1" xmlns="http://www.w3.org/2000/svg" xmlns:xlink="http://www.w3.org/1999/xlink" x="0px" y="0px"
	 viewBox="0 0 512 512" style="enable-background:new 0 0 512 512;" xml:space="preserve">
<g>
	<path style="fill:#2C3E50;" d="M503.322,121.492c-4.793,0-8.678-3.885-8.678-8.678V21.522c-0.091-1.591-1.049-3.003-2.494-3.675
		c-1.445-0.672-3.142-0.496-4.418,0.459l-21.081,16.852c-3.745,2.976-9.193,2.361-12.18-1.376
		c-2.987-3.737-2.387-9.186,1.341-12.184l21.174-16.924c6.481-5.139,15.328-6.125,22.781-2.538S511.972,13.251,512,21.522v91.292
		C512,117.607,508.115,121.492,503.322,121.492z"/>
	<polygon style="fill:#285680;" points="312.407,381.831 312.407,468.611 234.305,512 156.204,468.611 78.102,512 0,468.611 
		0,381.831 78.102,338.441 78.102,251.661 156.204,208.272 234.305,251.661 234.305,338.441 	"/>
	<g>
		<polygon style="fill:#4482C3;" points="78.102,425.221 78.102,512 0,468.611 0,381.831 		"/>
		<polygon style="fill:#4482C3;" points="234.305,425.221 234.305,512 156.204,468.611 156.204,381.831 		"/>
	</g>
	<polygon style="fill:#285680;" points="312.407,381.831 312.407,468.611 234.305,512 156.204,468.611 78.102,512 0,468.611 
		0,381.831 78.102,338.441 78.102,251.661 156.204,208.272 234.305,251.661 234.305,338.441 	"/>
	<polygon style="fill:#3B97D3;" points="312.407,381.831 234.305,425.221 156.204,381.831 234.305,338.441 	"/>
	<polygon style="fill:#4482C3;" points="156.204,295.051 156.204,381.831 78.102,338.441 78.102,251.661 	"/>
	<polygon style="fill:#3B97D3;" points="234.305,251.661 156.204,295.051 78.102,251.661 156.204,208.272 	"/>
	<g>
		<polygon style="fill:#4482C3;" points="78.102,425.221 78.102,512 0,468.611 0,381.831 		"/>
		<polygon style="fill:#4482C3;" points="234.305,425.221 234.305,512 156.204,468.611 156.204,381.831 		"/>
	</g>
	<g>
		<polygon style="fill:#3B97D3;" points="312.407,381.831 234.305,425.221 156.204,381.831 234.305,338.441 		"/>
		<polygon style="fill:#3B97D3;" points="156.204,381.831 78.102,425.221 0,381.831 78.102,338.441 		"/>
	</g>
	<polygon style="fill:#4482C3;" points="156.204,295.051 156.204,381.831 78.102,338.441 78.102,251.661 	"/>
	<polygon style="fill:#3B97D3;" points="234.305,251.661 156.204,295.051 78.102,251.661 156.204,208.272 	"/>
	<path style="fill:#4482C3;" d="M469.912,49.638c-0.04,8.043-3.252,15.746-8.938,21.435l-130.517,130.43
		c-0.355,0.316-0.732,0.606-1.128,0.868l-42.522-42.522c0.26-0.434,0.521-0.781,0.781-1.215L418.105,28.117
		c8.696-8.662,21.751-11.239,33.086-6.53S469.913,37.364,469.912,49.638z"/>
	<polygon style="fill:#35495E;" points="329.329,202.371 328.288,203.152 295.051,220.16 269.017,194.126 286.026,160.89 
		286.807,159.848 	"/>
	<path style="fill:#2C3E50;" d="M295.051,220.16l-15.794,10.5c-5.942,3.947-13.838,3.187-18.918-1.822
		c-5.02-5.066-5.816-12.951-1.909-18.918l10.587-15.794L295.051,220.16z"/>
</g>
<g>
</g>
<g>
</g>
<g>
</g>
<g>
</g>
<g>
</g>
<g>
</g>
<g>
</g>
<g>
</g>
<g>
</g>
<g>
</g>
<g>
</g>
<g>
</g>
<g>
</g>
<g>
</g>
<g>
</g>
</svg>
