<?xml version="1.0" encoding="iso-8859-1"?>
<!-- Generator: Adobe Illustrator 19.0.0, SVG Export Plug-In . SVG Version: 6.00 Build 0)  -->
<svg version="1.1" id="Capa_1" xmlns="http://www.w3.org/2000/svg" xmlns:xlink="http://www.w3.org/1999/xlink" x="0px" y="0px"
	 viewBox="0 0 512 512" style="enable-background:new 0 0 512 512;" xml:space="preserve">
<g>
	<path style="fill:#BDC3C7;" d="M507.435,228.37l-6.532,49.788c-1.274,7.414-5.811,13.863-12.358,17.567l-42.726,25.6l3.002-11.564
		l28.337-110.168l1.235-4.855l17.302,10.858C503.786,210.179,508.395,219.119,507.435,228.37z"/>
	<path style="fill:#95A5A5;" d="M498.784,150.069l-0.795,2.913l-10.77,41.754l-1.235,4.855L457.648,309.76l-3.002,11.564
		l-12.711,49.346c0,0-20.834,17.743-75.741,17.743c-45.726,0-66.56-17.743-66.56-17.743l-56.054-217.688l-0.795-2.913
		c0-14.654,57.291-26.483,128-26.483S498.784,135.415,498.784,150.069z"/>
	<path style="fill:#7F8C8D;" d="M498.784,150.069l-0.795,2.913c-6.885,13.241-61.174,23.57-127.205,23.57
		s-120.32-10.328-127.205-23.57l-0.795-2.913c0-14.654,57.291-26.483,128-26.483S498.784,135.415,498.784,150.069z"/>
	<g>
		<path style="fill:#CC4B4C;" d="M189.819,264.828h-35.31c-4.875,0-8.828-3.952-8.828-8.828s3.952-8.828,8.828-8.828h35.31
			c4.875-0.007,8.833,3.939,8.841,8.815c0.007,4.875-3.939,8.833-8.815,8.841H189.819z"/>
		<path style="fill:#CC4B4C;" d="M260.439,264.828h-35.31c-4.875,0-8.828-3.952-8.828-8.828s3.952-8.828,8.828-8.828h35.31
			c4.875-0.007,8.833,3.939,8.841,8.815s-3.939,8.833-8.815,8.841H260.439z"/>
		<path style="fill:#CC4B4C;" d="M331.06,264.828h-35.31c-4.875,0-8.828-3.952-8.828-8.828s3.952-8.828,8.828-8.828h35.31
			c4.875-0.007,8.833,3.939,8.841,8.815s-3.939,8.833-8.815,8.841H331.06z"/>
		<path style="fill:#CC4B4C;" d="M401.681,264.828h-35.31c-4.875,0-8.828-3.952-8.828-8.828s3.952-8.828,8.828-8.828h35.31
			c4.875-0.007,8.833,3.939,8.841,8.815c0.007,4.875-3.939,8.833-8.815,8.841H401.681z"/>
		<path style="fill:#CC4B4C;" d="M472.301,264.828h-35.31c-4.875,0-8.828-3.952-8.828-8.828s3.952-8.828,8.828-8.828h35.31
			c4.875-0.007,8.833,3.939,8.841,8.815s-3.939,8.833-8.815,8.841H472.301z"/>
		<path style="fill:#CC4B4C;" d="M189.819,432.552h-35.31c-4.875,0-8.828-3.952-8.828-8.828c0-4.875,3.952-8.828,8.828-8.828h35.31
			c4.875-0.007,8.833,3.939,8.841,8.815c0.007,4.875-3.939,8.833-8.815,8.841H189.819z"/>
		<path style="fill:#CC4B4C;" d="M260.439,432.552h-35.31c-4.875,0-8.828-3.952-8.828-8.828c0-4.875,3.952-8.828,8.828-8.828h35.31
			c4.875-0.007,8.833,3.939,8.841,8.815s-3.939,8.833-8.815,8.841H260.439z"/>
		<path style="fill:#CC4B4C;" d="M331.06,432.552h-35.31c-4.875,0-8.828-3.952-8.828-8.828c0-4.875,3.952-8.828,8.828-8.828h35.31
			c4.875-0.007,8.833,3.939,8.841,8.815s-3.939,8.833-8.815,8.841H331.06z"/>
		<path style="fill:#CC4B4C;" d="M401.681,432.552h-35.31c-4.875,0-8.828-3.952-8.828-8.828c0-4.875,3.952-8.828,8.828-8.828h35.31
			c4.875-0.007,8.833,3.939,8.841,8.815c0.007,4.875-3.939,8.833-8.815,8.841H401.681z"/>
		<path style="fill:#CC4B4C;" d="M472.301,432.552h-35.31c-4.875,0-8.828-3.952-8.828-8.828c0-4.875,3.952-8.828,8.828-8.828h35.31
			c4.875-0.007,8.833,3.939,8.841,8.815s-3.939,8.833-8.815,8.841H472.301z"/>
		<path style="fill:#CC4B4C;" d="M189.819,97.103h-35.31c-4.875,0-8.828-3.952-8.828-8.828c0-4.875,3.952-8.828,8.828-8.828h35.31
			c4.875-0.007,8.833,3.939,8.841,8.815c0.007,4.875-3.939,8.833-8.815,8.841H189.819z"/>
		<path style="fill:#CC4B4C;" d="M260.439,97.103h-35.31c-4.875,0-8.828-3.952-8.828-8.828c0-4.875,3.952-8.828,8.828-8.828h35.31
			c4.875-0.007,8.833,3.939,8.841,8.815c0.007,4.875-3.939,8.833-8.815,8.841H260.439z"/>
		<path style="fill:#CC4B4C;" d="M331.06,97.103h-35.31c-4.875,0-8.828-3.952-8.828-8.828c0-4.875,3.952-8.828,8.828-8.828h35.31
			c4.875-0.007,8.833,3.939,8.841,8.815c0.007,4.875-3.939,8.833-8.815,8.841H331.06z"/>
		<path style="fill:#CC4B4C;" d="M401.681,97.103h-35.31c-4.875,0-8.828-3.952-8.828-8.828c0-4.875,3.952-8.828,8.828-8.828h35.31
			c4.875-0.007,8.833,3.939,8.841,8.815c0.007,4.875-3.939,8.833-8.815,8.841H401.681z"/>
		<path style="fill:#CC4B4C;" d="M472.301,97.103h-35.31c-4.875,0-8.828-3.952-8.828-8.828c0-4.875,3.952-8.828,8.828-8.828h35.31
			c4.875-0.007,8.833,3.939,8.841,8.815c0.007,4.875-3.939,8.833-8.815,8.841H472.301z"/>
	</g>
	<g>
		<path style="fill:#BDC3C7;" d="M92.715,44.138h35.31c9.751,0,17.655,7.904,17.655,17.655v52.966
			c0,9.751-7.904,17.655-17.655,17.655h-35.31V44.138z"/>
		<path style="fill:#BDC3C7;" d="M92.715,211.862h35.31c9.751,0,17.655,7.904,17.655,17.655v52.966
			c0,9.751-7.904,17.655-17.655,17.655h-35.31V211.862z"/>
		<path style="fill:#BDC3C7;" d="M92.715,379.586h35.31c9.751,0,17.655,7.904,17.655,17.655v52.966
			c0,9.751-7.904,17.655-17.655,17.655h-35.31V379.586z"/>
	</g>
	<path style="fill:#7F8C8D;" d="M39.75,0h35.31c19.501,0,35.31,15.809,35.31,35.31V476.69c0,19.501-15.809,35.31-35.31,35.31H39.75
		c-19.501,0-35.31-15.809-35.31-35.31V35.31C4.439,15.809,20.248,0,39.75,0z"/>
	<path style="fill:#BDC3C7;" d="M39.75,476.69c-2.341,0.001-4.587-0.929-6.243-2.585c-1.656-1.656-2.585-3.901-2.585-6.243V44.138
		c0-4.875,3.952-8.828,8.828-8.828s8.828,3.952,8.828,8.828v423.724c0.001,2.341-0.929,4.587-2.585,6.243
		C44.337,475.76,42.091,476.69,39.75,476.69z"/>
</g>
<g>
</g>
<g>
</g>
<g>
</g>
<g>
</g>
<g>
</g>
<g>
</g>
<g>
</g>
<g>
</g>
<g>
</g>
<g>
</g>
<g>
</g>
<g>
</g>
<g>
</g>
<g>
</g>
<g>
</g>
</svg>
