<?xml version="1.0" encoding="iso-8859-1"?>
<!-- Generator: Adobe Illustrator 19.0.0, SVG Export Plug-In . SVG Version: 6.00 Build 0)  -->
<svg version="1.1" id="Capa_1" xmlns="http://www.w3.org/2000/svg" xmlns:xlink="http://www.w3.org/1999/xlink" x="0px" y="0px"
	 viewBox="0 0 512 512" style="enable-background:new 0 0 512 512;" xml:space="preserve">
<g>
	<path style="fill:#CC4B4C;" d="M446.136,509.674l-53.651-30.658c-2.668-1.524-5.687-2.326-8.759-2.326H120.104
		c-3.486,0-6.893,1.032-9.793,2.965l-44.07,29.38c-2.9,1.933-6.308,2.965-9.793,2.965H17.655C7.904,512,0,504.095,0,494.345V17.655
		C0,7.904,7.904,0,17.655,0h476.69C504.095,0,512,7.904,512,17.655v476.69c0,9.751-7.905,17.655-17.655,17.655h-39.449
		C451.823,512,448.804,511.198,446.136,509.674z"/>
	<path style="fill:#B0D3F0;" d="M149.008,44.138h213.984c4.949,0,9.671,2.077,13.015,5.725l87.215,95.144
		c2.985,3.256,4.641,7.513,4.641,11.93v160.856c0,9.751-7.904,17.655-17.655,17.655H300.138c-9.751,0-17.655,7.905-17.655,17.655
		v70.621c0,9.751-7.904,17.655-17.655,17.655H130.899c-4.682,0-9.173-1.86-12.484-5.171l-69.106-69.106
		c-3.311-3.311-5.171-7.802-5.171-12.484V156.937c0-4.417,1.656-8.674,4.641-11.93l87.215-95.144
		C139.337,46.215,144.059,44.138,149.008,44.138z"/>
	<path style="fill:#90BAE1;" d="M335.448,370.759h114.759c9.751,0,17.655,7.905,17.655,17.655v35.31
		c0,9.751-7.904,17.655-17.655,17.655H335.448c-9.751,0-17.655-7.904-17.655-17.655v-35.31
		C317.793,378.663,325.698,370.759,335.448,370.759z"/>
	<g>
		<path style="fill:#FB7B76;" d="M35.31,114.759c-3.463-0.002-6.605-2.028-8.037-5.182c-1.431-3.153-0.888-6.852,1.39-9.461
			l61.793-70.621c3.214-3.659,8.784-4.025,12.45-0.819c3.666,3.207,4.043,8.776,0.844,12.448l-61.793,70.621
			C40.28,113.662,37.857,114.761,35.31,114.759z"/>
		<path style="fill:#FB7B76;" d="M35.31,61.793c-3.57-0.001-6.788-2.152-8.154-5.45c-1.366-3.298-0.611-7.094,1.913-9.619
			l17.655-17.655c3.456-3.394,9.001-3.369,12.426,0.056s3.45,8.97,0.056,12.426L41.551,59.207
			C39.898,60.865,37.652,61.796,35.31,61.793z"/>
	</g>
	<g>
		<rect x="44.138" y="150.069" style="fill:#B49ACA;" width="423.724" height="35.31"/>
		<polygon style="fill:#B49ACA;" points="79.448,397.241 282.483,397.241 282.483,361.931 44.138,361.931 		"/>
	</g>
	<rect x="167.724" y="150.069" style="fill:#556080;" width="123.586" height="35.31"/>
	<path style="fill:#B49ACA;" d="M194.216,317.793c-4.092,0.001-7.648-2.81-8.593-6.792c-0.944-3.982,0.971-8.09,4.627-9.927
		c6.647-3.341,25.241-14.694,31.371-26.953c4.698-9.397,2.647-33.578-0.353-41.47c-1.12-2.947-0.582-6.268,1.411-8.712
		c1.993-2.443,5.138-3.638,8.25-3.134c3.112,0.504,5.719,2.63,6.839,5.578c3.552,9.332,7.706,39.517-0.353,55.634
		c-10.026,20.056-38.069,34.25-39.259,34.845C196.933,317.475,195.584,317.794,194.216,317.793L194.216,317.793z"/>
	<g>
		<path style="fill:#E6E7E8;" d="M397.241,414.897h-44.138c-4.875,0-8.828-3.952-8.828-8.828s3.952-8.828,8.828-8.828h44.138
			c4.875,0,8.828,3.952,8.828,8.828S402.117,414.897,397.241,414.897z"/>
		<path style="fill:#E6E7E8;" d="M432.552,414.897c-0.564-0.016-1.126-0.075-1.681-0.177c-0.583-0.085-1.147-0.264-1.672-0.53
			c-0.565-0.194-1.101-0.462-1.595-0.797c-0.44-0.35-0.879-0.703-1.319-1.056c-3.414-3.481-3.414-9.054,0-12.534l1.319-1.06
			c0.494-0.335,1.03-0.604,1.595-0.797c0.524-0.267,1.09-0.445,1.672-0.526c2.881-0.58,5.862,0.313,7.948,2.383
			c0.353,0.44,0.707,0.879,1.06,1.41c0.347,0.452,0.615,0.959,0.793,1.5c0.269,0.526,0.447,1.095,0.526,1.681
			c0.107,0.553,0.168,1.114,0.181,1.677c-0.018,0.591-0.078,1.18-0.181,1.763c-0.093,0.554-0.27,1.091-0.526,1.591
			c-0.194,0.562-0.461,1.097-0.793,1.591c-0.353,0.44-0.707,0.879-1.06,1.323c-0.44,0.353-0.888,0.707-1.328,1.056
			c-0.491,0.335-1.024,0.603-1.586,0.797c-0.528,0.266-1.096,0.445-1.681,0.53C433.672,414.821,433.113,414.88,432.552,414.897
			L432.552,414.897z"/>
	</g>
	<path style="fill:#8697CB;" d="M259.656,215.519l-17.655,17.655c-3.311,3.311-7.802,5.171-12.484,5.171s-9.173-1.86-12.484-5.171
		l-17.655-17.655c-3.311-3.311-5.171-7.802-5.171-12.484v-17.655h70.621v17.655C264.828,207.717,262.967,212.208,259.656,215.519z"
		/>
	<path style="fill:#B49ACA;" d="M194.207,370.759h-70.621c-3.799,0.002-7.172-2.43-8.371-6.034L97.56,311.759
		c-1.395-4.167,0.491-8.726,4.423-10.69l52.966-26.483c3.4-1.694,7.501-1.028,10.19,1.655l35.31,35.31
		c1.655,1.655,2.586,3.9,2.586,6.241v44.138c0.001,2.341-0.929,4.587-2.585,6.243C198.794,369.829,196.548,370.759,194.207,370.759
		L194.207,370.759z M129.948,353.103h55.431v-31.655l-28.224-28.224l-40.431,20.211L129.948,353.103z"/>
</g>
<g>
</g>
<g>
</g>
<g>
</g>
<g>
</g>
<g>
</g>
<g>
</g>
<g>
</g>
<g>
</g>
<g>
</g>
<g>
</g>
<g>
</g>
<g>
</g>
<g>
</g>
<g>
</g>
<g>
</g>
</svg>
