<?xml version="1.0" encoding="iso-8859-1"?>
<!-- Generator: Adobe Illustrator 19.0.0, SVG Export Plug-In . SVG Version: 6.00 Build 0)  -->
<svg version="1.1" id="Capa_1" xmlns="http://www.w3.org/2000/svg" xmlns:xlink="http://www.w3.org/1999/xlink" x="0px" y="0px"
	 viewBox="0 0 512 512" style="enable-background:new 0 0 512 512;" xml:space="preserve">
<g>
	<path style="fill:#F29C1F;" d="M469.333,100.847v184.636c0.039,3.458-1.298,6.79-3.716,9.263s-5.719,3.883-9.178,3.921h-348.16
		c-3.458-0.038-6.76-1.449-9.178-3.921c-2.418-2.473-3.755-5.804-3.716-9.263V21.717c-0.039-3.464,1.303-6.801,3.728-9.275
		c2.425-2.474,5.736-3.88,9.2-3.909h348.16c7.188,0.098,12.94,5.996,12.86,13.184V100.847z"/>
	<path style="fill:#F3D55B;" d="M466.108,13.082l-171.29,149.615c-7.134,6.204-17.749,6.204-24.883,0L98.645,13.082
		c2.392-2.871,5.932-4.536,9.668-4.548h348.16C460.198,8.556,463.724,10.22,466.108,13.082z"/>
	<path style="fill:#ffffff;" d="M464.759,295.501c-2.295,2.034-5.254,3.159-8.32,3.166h-348.16c-3.066-0.007-6.025-1.132-8.32-3.166
		L242.79,139.025l27.145,23.671c7.134,6.204,17.749,6.204,24.883,0l27.076-23.671L464.759,295.501z"/>
	<path style="fill:#00a6fb;" d="M416.58,305.647v184.636c0.039,3.458-1.298,6.79-3.716,9.263c-2.418,2.473-5.719,3.883-9.178,3.921
		H55.561c-3.458-0.038-6.76-1.449-9.178-3.921c-2.418-2.473-3.755-5.804-3.716-9.263V226.517c-0.039-3.458,1.298-6.79,3.716-9.263
		c2.418-2.473,5.719-3.883,9.178-3.921h348.16c3.458,0.038,6.76,1.449,9.178,3.921c2.418,2.473,3.755,5.804,3.716,9.263v79.13
		H416.58z"/>
	<path style="fill:#ffffff;" d="M413.355,217.882l-171.29,149.615c-7.134,6.204-17.749,6.204-24.883,0L45.892,217.882
		c2.392-2.871,5.932-4.536,9.668-4.548h348.16C407.445,213.356,410.97,215.02,413.355,217.882z"/>
	<path style="fill:#1464C8;" d="M412.006,500.301c-2.295,2.034-5.254,3.159-8.32,3.166H55.561c-3.066-0.007-6.025-1.132-8.32-3.166
		l142.797-156.476l27.145,23.672c7.134,6.204,17.749,6.204,24.883,0l27.076-23.672L412.006,500.301z"/>
	<g>
		<path style="fill:#ffffff;" d="M76.8,401.067H34.133c-4.713,0-8.533,3.821-8.533,8.533c0,4.713,3.821,8.533,8.533,8.533H76.8
			c4.713,0,8.533-3.821,8.533-8.533C85.333,404.887,81.513,401.067,76.8,401.067z"/>
		<path style="fill:#ffffff;" d="M51.2,332.8c4.713,0,8.533-3.82,8.533-8.533s-3.821-8.533-8.533-8.533H8.533
			c-4.713,0-8.533,3.821-8.533,8.533s3.821,8.533,8.533,8.533H51.2z"/>
		<path style="fill:#ffffff;" d="M68.267,366.933c0-4.713-3.821-8.533-8.533-8.533H17.067c-4.713,0-8.533,3.82-8.533,8.533
			s3.821,8.533,8.533,8.533h42.667C64.446,375.467,68.267,371.646,68.267,366.933z"/>
	</g>
	<g>
		<path style="fill:#F3D55B;" d="M477.867,187.733H435.2c-4.713,0-8.533,3.821-8.533,8.533s3.82,8.533,8.533,8.533h42.667
			c4.713,0,8.533-3.821,8.533-8.533S482.58,187.733,477.867,187.733z"/>
		<path style="fill:#F3D55B;" d="M503.467,102.4H460.8c-4.713,0-8.533,3.821-8.533,8.533c0,4.713,3.82,8.533,8.533,8.533h42.667
			c4.713,0,8.533-3.821,8.533-8.533C512,106.221,508.18,102.4,503.467,102.4z"/>
		<path style="fill:#F3D55B;" d="M494.933,145.067h-42.667c-4.713,0-8.533,3.82-8.533,8.533s3.82,8.533,8.533,8.533h42.667
			c4.713,0,8.533-3.821,8.533-8.533S499.646,145.067,494.933,145.067z"/>
	</g>
</g>
<g>
</g>
<g>
</g>
<g>
</g>
<g>
</g>
<g>
</g>
<g>
</g>
<g>
</g>
<g>
</g>
<g>
</g>
<g>
</g>
<g>
</g>
<g>
</g>
<g>
</g>
<g>
</g>
<g>
</g>
</svg>
