<?xml version="1.0" encoding="iso-8859-1"?>
<!-- Generator: Adobe Illustrator 19.0.0, SVG Export Plug-In . SVG Version: 6.00 Build 0)  -->
<svg version="1.1" id="Capa_1" xmlns="http://www.w3.org/2000/svg" xmlns:xlink="http://www.w3.org/1999/xlink" x="0px" y="0px"
	 viewBox="0 0 512 512" style="enable-background:new 0 0 512 512;" xml:space="preserve">
<g>
	<path style="fill:#00a6fb;" d="M506.086,194.207l2.207-2.825l3.708,2.825v300.138c-0.029,9.739-7.917,17.626-17.655,17.655H17.655
		C7.917,511.971,0.029,504.083,0,494.345V194.207l3.708-2.825l2.207,2.825H506.086z"/>
	<path style="fill:#1464C8;" d="M508.292,191.382l-2.207,2.825L264.828,379.586h-17.655L5.914,194.207l-2.207-2.825l84.568-65.766
		L204.623,35.31l40.695-31.603c6.263-4.943,15.1-4.943,21.363,0l40.695,31.603l116.348,90.306L508.292,191.382z"/>
	<path style="fill:#ffffff;" d="M423.724,52.965v204.535L264.828,379.586h-17.655L88.276,257.501V52.965
		c0.029-9.739,7.917-17.626,17.655-17.655h300.138C415.808,35.339,423.695,43.227,423.724,52.965z"/>
	<g>
		<path style="fill:#1464C8;" d="M508.557,504.761c-3.295,4.561-8.586,7.255-14.212,7.239H17.655
			c-5.627,0.017-10.917-2.678-14.212-7.239l202.24-157.043l39.636-30.808c6.263-4.943,15.1-4.943,21.363,0l39.636,30.808
			L508.557,504.761z"/>
		<path style="fill:#1464C8;" d="M329.101,85.795c-20.233-20.233-53.036-20.233-73.269,0l-6.073,6.073
			c-2.295,2.216-3.215,5.499-2.407,8.585s3.218,5.497,6.305,6.305c3.086,0.808,6.368-0.112,8.585-2.407l6.082-6.073
			c8.527-9.075,21.317-12.791,33.379-9.696c12.062,3.095,21.484,12.51,24.587,24.569s-0.602,24.853-9.671,33.387l-24.311,24.311
			c-7.264,7.232-17.386,10.829-27.585,9.803c-10.199-1.026-19.402-6.566-25.08-15.1c-2.699-4.061-8.178-5.166-12.239-2.467
			c-4.061,2.698-5.166,8.178-2.467,12.239c8.601,12.952,22.556,21.363,38.026,22.919c15.469,1.556,30.821-3.907,41.829-14.886
			l24.311-24.302C349.294,138.81,349.294,106.041,329.101,85.795z"/>
		<path style="fill:#1464C8;" d="M249.759,213.442l-6.082,6.073c-8.527,9.075-21.317,12.791-33.379,9.696
			c-12.062-3.095-21.484-12.51-24.587-24.569c-3.104-12.06,0.602-24.853,9.671-33.387l24.311-24.311
			c7.264-7.232,17.386-10.829,27.585-9.803c10.199,1.026,19.402,6.566,25.08,15.1c2.698,4.061,8.178,5.166,12.239,2.467
			c4.061-2.698,5.166-8.178,2.467-12.239c-8.609-12.941-22.563-21.343-38.028-22.899c-15.465-1.556-30.813,3.899-41.827,14.866
			l-24.311,24.302c-13.135,13.079-18.283,32.179-13.498,50.087c4.785,17.908,18.772,31.896,36.68,36.68
			c17.908,4.785,37.008-0.363,50.087-13.498l6.073-6.073c3.345-3.464,3.298-8.97-0.108-12.375
			c-3.405-3.405-8.911-3.453-12.375-0.108V213.442z"/>
	</g>
</g>
<g>
</g>
<g>
</g>
<g>
</g>
<g>
</g>
<g>
</g>
<g>
</g>
<g>
</g>
<g>
</g>
<g>
</g>
<g>
</g>
<g>
</g>
<g>
</g>
<g>
</g>
<g>
</g>
<g>
</g>
</svg>
