<?xml version="1.0" encoding="iso-8859-1"?>
<!-- Generator: Adobe Illustrator 19.0.0, SVG Export Plug-In . SVG Version: 6.00 Build 0)  -->
<svg version="1.1" id="Capa_1" xmlns="http://www.w3.org/2000/svg" xmlns:xlink="http://www.w3.org/1999/xlink" x="0px" y="0px"
	 viewBox="0 0 511.826 511.826" style="enable-background:new 0 0 511.826 511.826;" xml:space="preserve">
<g>
	<path style="fill:#D1D4D1;" d="M507.557,95.458v321.085c-0.029,9.574-7.782,17.327-17.356,17.356H169.116
		c-25.321,0.014-49.609-10.039-67.514-27.944c-17.905-17.905-27.957-42.193-27.944-67.514l0-242.983H507.557z"/>
	<path style="fill:#E64C3C;" d="M438.133,182.237v60.746h-95.458v-69.424h87.5C434.759,173.78,438.31,177.652,438.133,182.237z"/>
	<rect x="342.676" y="242.983" style="fill:#B0D3F0;" width="95.458" height="69.424"/>
	<path style="fill:#90BAE1;" d="M438.133,312.407v60.746c0,4.793-3.885,8.678-8.678,8.678h-86.78v-69.424H438.133z"/>
	<path style="fill:#E64C3C;" d="M247.218,173.559v69.424H151.76v-60.746c0-4.793,3.885-8.678,8.678-8.678H247.218z"/>
	<g>
		<path style="fill:#90BAE1;" d="M247.218,312.407v69.424h-86.78c-4.793,0-8.678-3.885-8.678-8.678v-60.746H247.218z"/>
		<rect x="247.218" y="242.983" style="fill:#90BAE1;" width="95.458" height="69.424"/>
	</g>
	<rect x="247.218" y="173.559" style="fill:#ffffff;" width="95.458" height="69.424"/>
	<g>
		<rect x="247.218" y="312.407" style="fill:#B0D3F0;" width="95.458" height="69.424"/>
		<rect x="151.76" y="242.983" style="fill:#B0D3F0;" width="95.458" height="69.424"/>
	</g>
	<g>
		<path style="fill:#2980BA;" d="M108.371,0c-4.793,0-8.678,3.885-8.678,8.678v43.39c0,4.793,3.885,8.678,8.678,8.678
			c4.793,0,8.678-3.885,8.678-8.678V8.678C117.049,3.885,113.163,0,108.371,0z"/>
		<path style="fill:#2980BA;" d="M169.116,0c-4.793,0-8.678,3.885-8.678,8.678v43.39c0,4.793,3.885,8.678,8.678,8.678
			c4.793,0,8.678-3.885,8.678-8.678V8.678C177.794,3.885,173.909,0,169.116,0z"/>
		<path style="fill:#2980BA;" d="M229.862,0c-4.793,0-8.678,3.885-8.678,8.678v43.39c0,4.793,3.885,8.678,8.678,8.678
			s8.678-3.885,8.678-8.678V8.678C238.54,3.885,234.655,0,229.862,0z"/>
		<path style="fill:#2980BA;" d="M290.608,0c-4.793,0-8.678,3.885-8.678,8.678v43.39c0,4.793,3.885,8.678,8.678,8.678
			s8.678-3.885,8.678-8.678V8.678C299.286,3.885,295.401,0,290.608,0z"/>
		<path style="fill:#2980BA;" d="M351.354,0c-4.793,0-8.678,3.885-8.678,8.678v43.39c0,4.793,3.885,8.678,8.678,8.678
			c4.793,0,8.678-3.885,8.678-8.678V8.678C360.032,3.885,356.146,0,351.354,0z"/>
		<path style="fill:#2980BA;" d="M412.099,0c-4.793,0-8.678,3.885-8.678,8.678v43.39c0,4.793,3.885,8.678,8.678,8.678
			c4.793,0,8.678-3.885,8.678-8.678V8.678C420.777,3.885,416.892,0,412.099,0z"/>
		<path style="fill:#2980BA;" d="M472.845,0c-4.793,0-8.678,3.885-8.678,8.678v43.39c0,4.793,3.885,8.678,8.678,8.678
			c4.793,0,8.678-3.885,8.678-8.678V8.678C481.523,3.885,477.638,0,472.845,0z"/>
	</g>
	<path style="fill:#E64C3C;" d="M507.557,69.424v52.068H73.659V69.424c0.029-9.574,7.782-17.327,17.356-17.356h399.186
		C499.775,52.096,507.528,59.85,507.557,69.424z"/>
	<g>
		<path style="fill:#C03A2B;" d="M108.371,95.458c-2.301-0.014-4.509-0.915-6.161-2.517c-3.356-3.422-3.356-8.901,0-12.323
			l1.293-1.041c0.488-0.327,1.016-0.59,1.571-0.781c0.492-0.251,1.018-0.426,1.562-0.521c1.11-0.26,2.266-0.26,3.376,0
			c0.577,0.081,1.137,0.257,1.657,0.521c0.552,0.191,1.077,0.454,1.562,0.781l1.302,1.041c3.356,3.422,3.356,8.901,0,12.323
			l-1.302,1.041c-0.485,0.327-1.01,0.59-1.562,0.781c-0.52,0.264-1.08,0.44-1.657,0.521
			C109.469,95.385,108.921,95.443,108.371,95.458z"/>
		<path style="fill:#C03A2B;" d="M169.116,95.458c-2.301-0.014-4.509-0.915-6.161-2.517c-3.356-3.422-3.356-8.901,0-12.323
			l1.293-1.041c0.488-0.327,1.016-0.59,1.571-0.781c0.492-0.251,1.018-0.426,1.562-0.521c1.11-0.26,2.266-0.26,3.376,0
			c0.577,0.081,1.138,0.257,1.657,0.521c0.552,0.191,1.077,0.454,1.562,0.781l1.302,1.041c3.356,3.422,3.356,8.901,0,12.323
			l-1.302,1.041c-0.485,0.327-1.01,0.59-1.562,0.781c-0.52,0.264-1.08,0.44-1.657,0.521
			C170.215,95.385,169.667,95.443,169.116,95.458z"/>
		<path style="fill:#C03A2B;" d="M229.862,95.458c-2.301-0.014-4.509-0.915-6.161-2.517c-3.356-3.422-3.356-8.901,0-12.323
			l1.293-1.041c0.488-0.327,1.016-0.59,1.571-0.781c0.492-0.251,1.018-0.426,1.562-0.521c1.11-0.26,2.266-0.26,3.376,0
			c0.577,0.081,1.138,0.257,1.658,0.521c0.552,0.191,1.077,0.454,1.562,0.781l1.302,1.041c3.356,3.422,3.356,8.901,0,12.323
			l-1.302,1.041c-0.485,0.327-1.01,0.59-1.562,0.781c-0.52,0.264-1.08,0.44-1.658,0.521
			C230.961,95.385,230.413,95.443,229.862,95.458z"/>
		<path style="fill:#C03A2B;" d="M290.608,95.458c-2.301-0.014-4.509-0.915-6.161-2.517c-3.356-3.422-3.356-8.901,0-12.323
			l1.293-1.041c0.488-0.327,1.016-0.59,1.571-0.781c0.492-0.251,1.018-0.426,1.562-0.521c1.11-0.26,2.266-0.26,3.376,0
			c0.577,0.081,1.138,0.257,1.658,0.521c0.552,0.191,1.077,0.454,1.562,0.781l1.302,1.041c3.356,3.422,3.356,8.901,0,12.323
			l-1.302,1.041c-0.485,0.327-1.01,0.59-1.562,0.781c-0.52,0.264-1.08,0.44-1.658,0.521
			C291.707,95.385,291.158,95.443,290.608,95.458z"/>
		<path style="fill:#C03A2B;" d="M351.354,95.458c-2.301-0.014-4.509-0.915-6.161-2.517c-3.356-3.422-3.356-8.901,0-12.323
			l1.293-1.041c0.488-0.327,1.016-0.59,1.571-0.781c0.492-0.251,1.018-0.426,1.562-0.521c1.11-0.26,2.266-0.26,3.376,0
			c0.577,0.081,1.138,0.257,1.658,0.521c0.552,0.191,1.077,0.454,1.562,0.781l1.302,1.041c3.356,3.422,3.356,8.901,0,12.323
			l-1.302,1.041c-0.485,0.327-1.01,0.59-1.562,0.781c-0.52,0.264-1.08,0.44-1.658,0.521
			C352.452,95.385,351.904,95.443,351.354,95.458z"/>
		<path style="fill:#C03A2B;" d="M412.099,95.458c-2.301-0.014-4.509-0.915-6.161-2.517c-3.356-3.422-3.356-8.901,0-12.323
			l1.293-1.041c0.488-0.327,1.016-0.59,1.571-0.781c0.492-0.251,1.018-0.426,1.562-0.521c1.11-0.26,2.266-0.26,3.376,0
			c0.577,0.081,1.138,0.257,1.658,0.521c0.552,0.191,1.077,0.454,1.562,0.781l1.302,1.041c3.356,3.422,3.356,8.901,0,12.323
			l-1.302,1.041c-0.485,0.327-1.01,0.59-1.562,0.781c-0.52,0.264-1.08,0.44-1.658,0.521
			C413.198,95.385,412.65,95.443,412.099,95.458z"/>
		<path style="fill:#C03A2B;" d="M472.845,95.458c-2.301-0.014-4.509-0.915-6.161-2.517c-3.356-3.422-3.356-8.901,0-12.323
			l1.293-1.041c0.488-0.327,1.016-0.59,1.571-0.781c0.492-0.251,1.018-0.426,1.562-0.521c1.11-0.26,2.266-0.26,3.376,0
			c0.577,0.081,1.138,0.257,1.658,0.521c0.552,0.191,1.077,0.454,1.562,0.781l1.302,1.041c3.356,3.422,3.356,8.901,0,12.323
			l-1.302,1.041c-0.485,0.327-1.01,0.59-1.562,0.781c-0.52,0.264-1.08,0.44-1.658,0.521
			C473.944,95.385,473.396,95.443,472.845,95.458z"/>
	</g>
	<path style="fill:#2980BA;" d="M92.16,240.492l19.959,29.904c3.977,5.959,2.674,13.978-2.985,18.371L84.593,307.86
		c-5.321,4.103-6.851,11.475-3.601,17.356c7.211,12.939,14.015,28.238,47.842,62.056s49.117,40.63,62.047,47.842
		c5.882,3.245,13.251,1.716,17.356-3.601l19.092-24.541c4.393-5.659,12.412-6.962,18.371-2.985l30.85,20.567l34.712,23.144
		c6.068,4.049,7.889,12.149,4.139,18.406l-16.488,27.414c-4.366,7.406-11.413,12.85-19.682,15.204
		c-27.336,7.506-87.647,9.016-184.268-87.647S-0.104,264.166,7.359,236.83c2.35-8.271,7.795-15.319,15.204-19.682l27.414-16.488
		c6.257-3.75,14.356-1.928,18.406,4.139L92.16,240.492z"/>
</g>
<g>
</g>
<g>
</g>
<g>
</g>
<g>
</g>
<g>
</g>
<g>
</g>
<g>
</g>
<g>
</g>
<g>
</g>
<g>
</g>
<g>
</g>
<g>
</g>
<g>
</g>
<g>
</g>
<g>
</g>
</svg>
