<?xml version="1.0" encoding="UTF-8" standalone="no"?>
<svg
   xmlns:dc="http://purl.org/dc/elements/1.1/"
   xmlns:cc="http://creativecommons.org/ns#"
   xmlns:rdf="http://www.w3.org/1999/02/22-rdf-syntax-ns#"
   xmlns:svg="http://www.w3.org/2000/svg"
   xmlns="http://www.w3.org/2000/svg"
   xmlns:sodipodi="http://sodipodi.sourceforge.net/DTD/sodipodi-0.dtd"
   xmlns:inkscape="http://www.inkscape.org/namespaces/inkscape"
   id="icons"
   enable-background="new 0 0 64 64"
   height="512"
   viewBox="0 0 64 64"
   width="512"
   version="1.1"
   sodipodi:docname="ui-banner.svg"
   inkscape:version="0.92.4 (5da689c313, 2019-01-14)">
  <metadata
     id="metadata47">
    <rdf:RDF>
      <cc:Work
         rdf:about="">
        <dc:format>image/svg+xml</dc:format>
        <dc:type
           rdf:resource="http://purl.org/dc/dcmitype/StillImage" />
        <dc:title />
      </cc:Work>
    </rdf:RDF>
  </metadata>
  <defs
     id="defs45" />
  <sodipodi:namedview
     pagecolor="#ffffff"
     bordercolor="#666666"
     borderopacity="1"
     objecttolerance="10"
     gridtolerance="10"
     guidetolerance="10"
     inkscape:pageopacity="0"
     inkscape:pageshadow="2"
     inkscape:window-width="1280"
     inkscape:window-height="973"
     id="namedview43"
     showgrid="false"
     inkscape:zoom="0.921875"
     inkscape:cx="-40.159156"
     inkscape:cy="302.17346"
     inkscape:window-x="1280"
     inkscape:window-y="25"
     inkscape:window-maximized="1"
     inkscape:current-layer="icons" />
  <path
     d="m1 58c0 .55.45 1 1 1h60c.55 0 1-.45 1-1v-49h-62z"
     fill="#e6e9ed"
     id="path2" />
  <path
     d="m63 7v2h-62v-2c0-1.109.89-2 2-2h58c1.11 0 2 .891 2 2z"
     fill="#ccd1d9"
     id="path4" />
  <g
     id="g12"
     style="fill:#e6e9ed">
    <path
       d="m 4.006,5.998 h -0.01 c -0.552,0 -0.995,0.447 -0.995,1 0,0.552 0.453,1 1.005,1 0.553,0 1,-0.448 1,-1 0,-0.553 -0.447,-1 -1,-1 z"
       id="path6"
       inkscape:connector-curvature="0"
       style="fill:#5d9cec;fill-opacity:1" />
    <path
       d="M 7.005,5.998 H 6.995 C 6.442,5.998 6,6.445 6,6.998 c 0,0.552 0.452,1 1.005,1 0.553,0 1,-0.448 1,-1 0,-0.553 -0.447,-1 -1,-1 z"
       id="path8"
       inkscape:connector-curvature="0" />
    <path
       d="m 10.008,5.998 h -0.01 c -0.552,0 -0.995,0.447 -0.995,1 0,0.552 0.453,1 1.005,1 0.553,0 1,-0.448 1,-1 0,-0.553 -0.447,-1 -1,-1 z"
       id="path10"
       inkscape:connector-curvature="0" />
  </g>
  <path
     d="M 59,11.979879 H 5 c -0.9597797,0 -1,0.01224 -1,2.150777 v 6.450179 c 0,2.104634 0.00632,2.150777 1,2.150777 h 54 c 1.027576,0 1,-0.04614 1,-2.150777 v -6.450179 c 0,-2.138533 0.02758,-2.150777 -1,-2.150777 z"
     id="path14"
     inkscape:connector-curvature="0"
     style="fill:#ffffff;stroke-width:1.46655273"
     sodipodi:nodetypes="sssssssss" />
  <path
     d="M 59,25.997 H 5 c -0.553,0 -1,-0.447 -1,-1 0,-0.553 0.447,-1 1,-1 h 54 c 0.553,0 1,0.447 1,1 0,0.553 -0.447,1 -1,1 z"
     id="path22"
     inkscape:connector-curvature="0"
     style="fill:#ccd1d9" />
  <path
     d="M 32.975,28.997 H 5 c -0.553,0 -1,-0.447 -1,-1 0,-0.553 0.447,-1 1,-1 h 27.975 c 0.553,0 1,0.447 1,1 0,0.553 -0.448,1 -1,1 z"
     id="path24"
     inkscape:connector-curvature="0"
     style="fill:#ccd1d9" />
  <path
     d="M 19,32.996 H 5 c -0.553,0 -1,-0.447 -1,-1 0,-0.553 0.447,-1 1,-1 h 14 c 0.553,0 1,0.447 1,1 0,0.553 -0.447,1 -1,1 z"
     id="path26"
     inkscape:connector-curvature="0"
     style="fill:#656d78" />
  <path
     d="M 59,35.996 H 5 c -0.553,0 -1,-0.447 -1,-1 0,-0.553 0.447,-1 1,-1 h 54 c 0.553,0 1,0.447 1,1 0,0.553 -0.447,1 -1,1 z"
     id="path28"
     inkscape:connector-curvature="0"
     style="fill:#ccd1d9" />
  <path
     d="M 59,38.996 H 5 c -0.553,0 -1,-0.447 -1,-1 0,-0.553 0.447,-1 1,-1 h 54 c 0.553,0 1,0.447 1,1 0,0.553 -0.447,1 -1,1 z"
     id="path30"
     inkscape:connector-curvature="0"
     style="fill:#ccd1d9" />
  <path
     d="M 32.975,41.996 H 5 c -0.553,0 -1,-0.447 -1,-1 0,-0.553 0.447,-1 1,-1 h 27.975 c 0.553,0 1,0.447 1,1 0,0.553 -0.448,1 -1,1 z"
     id="path32"
     inkscape:connector-curvature="0"
     style="fill:#ccd1d9" />
  <path
     d="M 19,45.997 H 5 c -0.553,0 -1,-0.447 -1,-1 0,-0.553 0.447,-1 1,-1 h 14 c 0.553,0 1,0.447 1,1 0,0.553 -0.447,1 -1,1 z"
     id="path34"
     inkscape:connector-curvature="0"
     style="fill:#656d78" />
  <path
     d="M 59,48.997 H 5 c -0.553,0 -1,-0.447 -1,-1 0,-0.553 0.447,-1 1,-1 h 54 c 0.553,0 1,0.447 1,1 0,0.553 -0.447,1 -1,1 z"
     id="path36"
     inkscape:connector-curvature="0"
     style="fill:#ccd1d9" />
  <path
     d="M 59,51.997 H 5 c -0.553,0 -1,-0.447 -1,-1 0,-0.553 0.447,-1 1,-1 h 54 c 0.553,0 1,0.447 1,1 0,0.553 -0.447,1 -1,1 z"
     id="path38"
     inkscape:connector-curvature="0"
     style="fill:#ccd1d9" />
  <path
     d="M 32.975,54.997 H 5 c -0.553,0 -1,-0.447 -1,-1 0,-0.553 0.447,-1 1,-1 h 27.975 c 0.553,0 1,0.447 1,1 0,0.553 -0.448,1 -1,1 z"
     id="path40"
     inkscape:connector-curvature="0"
     style="fill:#ccd1d9" />
  <text
     xml:space="preserve"
     style="font-style:normal;font-weight:normal;font-size:6px;line-height:1.25;font-family:monospace;letter-spacing:0px;word-spacing:0px;fill:#000000;fill-opacity:1;stroke:none;stroke-width:0.125;-inkscape-font-specification:monospace;font-stretch:normal;font-variant:normal;text-anchor:middle;text-align:center;"
     x="12.464255"
     y="19.128681"
     id="text59"><tspan
       sodipodi:role="line"
       id="tspan57"
       x="12.464255"
       y="23.552509"
       style="stroke-width:0.125;-inkscape-font-specification:monospace;font-family:monospace;font-weight:normal;font-style:normal;font-stretch:normal;font-variant:normal;font-size:6px;text-anchor:middle;text-align:center;" /></text>
  <text
     xml:space="preserve"
     style="font-style:normal;font-variant:normal;font-weight:normal;font-stretch:normal;font-size:12px;line-height:1.25;font-family:monospace;-inkscape-font-specification:monospace;text-align:center;letter-spacing:0px;word-spacing:0px;text-anchor:middle;fill:#5d9cec;fill-opacity:1;stroke:none;stroke-width:0.125"
     x="31.739294"
     y="21.644808"
     id="text63"><tspan
       sodipodi:role="line"
       id="tspan61"
       x="31.739294"
       y="21.644808"
       style="font-style:normal;font-variant:normal;font-weight:normal;font-stretch:normal;font-size:12px;font-family:monospace;-inkscape-font-specification:monospace;text-align:center;text-anchor:middle;fill:#5d9cec;fill-opacity:1;stroke-width:0.125">Banner</tspan></text>
</svg>
