<svg id="icons" enable-background="new 0 0 64 64" height="512" viewBox="0 0 64 64" width="512" xmlns="http://www.w3.org/2000/svg"><path d="m1 58c0 .55.45 1 1 1h60c.55 0 1-.45 1-1v-49h-62z" fill="#e6e9ed"/><path d="m63 7v2h-62v-2c0-1.109.89-2 2-2h58c1.11 0 2 .891 2 2z" fill="#ccd1d9"/><path d="m4.006 5.998h-.01c-.553 0-.995.447-.995 1 0 .552.452 1 1.005 1s1-.448 1-1c0-.553-.447-1-1-1z" fill="#e6e9ed"/><path d="m7.005 5.998h-.01c-.552 0-.995.447-.995 1 0 .552.453 1 1.005 1 .553 0 1-.448 1-1 0-.553-.447-1-1-1z" fill="#e6e9ed"/><path d="m10.008 5.998h-.01c-.553 0-.995.447-.995 1 0 .552.452 1 1.005 1s1-.448 1-1c0-.553-.447-1-1-1z" fill="#e6e9ed"/><path d="m52.497 34.99h7.001v13h-7.001z" fill="#48cfad"/><path d="m52.497 28h7.001v6.99h-7.001z" fill="#a0d468"/><path d="m43.497 40.99h7.001v7h-7.001z" fill="#48cfad"/><path d="m43.497 25h7.001v15.99h-7.001z" fill="#a0d468"/><path d="m34.497 43.99h7.001v4h-7.001z" fill="#48cfad"/><path d="m34.497 39h7.001v4.99h-7.001z" fill="#a0d468"/><path d="m25.497 32.99h7.001v15h-7.001z" fill="#48cfad"/><path d="m25.497 27h7.001v5.99h-7.001z" fill="#a0d468"/><path d="m16.497 44.99h7.001v3h-7.001z" fill="#48cfad"/><path d="m16.497 29h7.001v15.99h-7.001z" fill="#a0d468"/><path d="m7.497 32.99h7.001v15h-7.001z" fill="#48cfad"/><path d="m7.497 22h7.001v10.99h-7.001z" fill="#a0d468"/><g fill="#5d9cec"><path d="m58.498 25h-5.001c-.55 0-1 .45-1 1v1 1h1 5.001 1v-1-1c0-.55-.45-1-1-1z"/><path d="m49.498 17h-5.001c-.55 0-1 .45-1 1v7.002h7.001v-7.002c0-.55-.45-1-1-1z"/><path d="m40.498 36.01h-5.001c-.55 0-1 .45-1 1v1.997h7.001v-1.997c0-.55-.45-1-1-1z"/><path d="m22.498 25.996h-5.001c-.55 0-1 .451-1 1v1.998h7.001v-1.998c0-.549-.45-1-1-1z"/><path d="m31.498 22h-5.001c-.55 0-1 .45-1 1v3.998h7.001v-3.998c0-.55-.45-1-1-1z"/><path d="m13.498 16h-5.001c-.55 0-1 .45-1 1v4.998h7.001v-4.998c0-.55-.45-1-1-1z"/></g><path d="m4.5 48.993c-.553 0-1-.447-1-1v-34.993c0-.553.447-1 1-1s1 .447 1 1v34.993c0 .553-.447 1-1 1z" fill="#ccd1d9"/><path d="m59.5 48.993h-55c-.553 0-1-.447-1-1s.447-1 1-1h55c.553 0 1 .447 1 1s-.447 1-1 1z" fill="#ccd1d9"/><path d="m50 52.999h-35.999c-.553 0-1-.447-1-1s.447-1 1-1h35.999c.553 0 1 .447 1 1s-.447 1-1 1z" fill="#fff"/><path d="m40.959 56.002h-17.917c-.553 0-1-.447-1-1s.447-1 1-1h17.917c.553 0 1 .447 1 1s-.447 1-1 1z" fill="#fff"/></svg>