<?xml version="1.0" encoding="UTF-8" standalone="no"?>
<svg
   xmlns:dc="http://purl.org/dc/elements/1.1/"
   xmlns:cc="http://creativecommons.org/ns#"
   xmlns:rdf="http://www.w3.org/1999/02/22-rdf-syntax-ns#"
   xmlns:svg="http://www.w3.org/2000/svg"
   xmlns="http://www.w3.org/2000/svg"
   xmlns:sodipodi="http://sodipodi.sourceforge.net/DTD/sodipodi-0.dtd"
   xmlns:inkscape="http://www.inkscape.org/namespaces/inkscape"
   id="icons"
   enable-background="new 0 0 64 64"
   height="512"
   viewBox="0 0 64 64"
   width="512"
   version="1.1"
   sodipodi:docname="ui-heading.svg"
   inkscape:version="0.92.4 (5da689c313, 2019-01-14)">
  <metadata
     id="metadata47">
    <rdf:RDF>
      <cc:Work
         rdf:about="">
        <dc:format>image/svg+xml</dc:format>
        <dc:type
           rdf:resource="http://purl.org/dc/dcmitype/StillImage" />
        <dc:title />
      </cc:Work>
    </rdf:RDF>
  </metadata>
  <defs
     id="defs45" />
  <sodipodi:namedview
     pagecolor="#ffffff"
     bordercolor="#666666"
     borderopacity="1"
     objecttolerance="10"
     gridtolerance="10"
     guidetolerance="10"
     inkscape:pageopacity="0"
     inkscape:pageshadow="2"
     inkscape:window-width="1280"
     inkscape:window-height="973"
     id="namedview43"
     showgrid="false"
     inkscape:zoom="0.92187498"
     inkscape:cx="365.03205"
     inkscape:cy="330.06026"
     inkscape:window-x="1280"
     inkscape:window-y="25"
     inkscape:window-maximized="1"
     inkscape:current-layer="icons" />
  <path
     d="m1 58c0 .55.45 1 1 1h60c.55 0 1-.45 1-1v-49h-62z"
     id="path2"
     fill="#e6e9ed" />
  <path
     d="m63 7v2h-62v-2c0-1.109.89-2 2-2h58c1.11 0 2 .891 2 2z"
     fill="#ccd1d9"
     id="path4" />
  <g
     id="g12"
     style="fill:#e6e9ed">
    <path
       d="m 4.006,5.998 h -0.01 c -0.552,0 -0.995,0.447 -0.995,1 0,0.552 0.453,1 1.005,1 0.553,0 1,-0.448 1,-1 0,-0.553 -0.447,-1 -1,-1 z"
       id="path6"
       inkscape:connector-curvature="0"
       style="fill:#5d9cec;fill-opacity:1" />
    <path
       d="M 7.005,5.998 H 6.995 C 6.442,5.998 6,6.445 6,6.998 c 0,0.552 0.452,1 1.005,1 0.553,0 1,-0.448 1,-1 0,-0.553 -0.447,-1 -1,-1 z"
       id="path8"
       inkscape:connector-curvature="0" />
    <path
       d="m 10.008,5.998 h -0.01 c -0.552,0 -0.995,0.447 -0.995,1 0,0.552 0.453,1 1.005,1 0.553,0 1,-0.448 1,-1 0,-0.553 -0.447,-1 -1,-1 z"
       id="path10"
       inkscape:connector-curvature="0" />
  </g>
  <path
     d="M 59,42.715784 H 5 c -0.553,0 -1,-0.447 -1,-1 0,-0.553 0.447,-1 1,-1 h 54 c 0.553,0 1,0.447 1,1 0,0.553 -0.447,1 -1,1 z"
     id="path22"
     inkscape:connector-curvature="0"
     style="fill:#ccd1d9;fill-opacity:1" />
  <path
     d="M 40.473233,45.715784 H 5.081551 c -0.691826,0 -1.081551,-0.447 -1.081551,-1 0,-0.553 0.389725,-1 1.081551,-1 h 35.370796 c 0.691827,0 1.047653,0.447 1.047653,1 0,0.553 -0.336191,1 -1.026767,1 z"
     id="path24"
     inkscape:connector-curvature="0"
     style="fill:#ccd1d9;fill-opacity:1;stroke-width:1.11850035"
     sodipodi:nodetypes="sssssss" />
  <path
     d="M 59,48.714784 H 5 c -0.553,0 -1,-0.447 -1,-1 0,-0.553 0.447,-1 1,-1 h 54 c 0.553,0 1,0.447 1,1 0,0.553 -0.447,1 -1,1 z"
     id="path28"
     inkscape:connector-curvature="0"
     style="fill:#ccd1d9;fill-opacity:1" />
  <path
     d="M 59,51.714784 H 5 c -0.553,0 -1,-0.447 -1,-1 0,-0.553 0.447,-1 1,-1 h 54 c 0.553,0 1,0.447 1,1 0,0.553 -0.447,1 -1,1 z"
     id="path30"
     inkscape:connector-curvature="0"
     style="fill:#ccd1d9;fill-opacity:1" />
  <path
     d="M 32.975,54.714784 H 5 c -0.553,0 -1,-0.447 -1,-1 0,-0.553 0.447,-1 1,-1 h 27.975 c 0.553,0 1,0.447 1,1 0,0.553 -0.448,1 -1,1 z"
     id="path32"
     inkscape:connector-curvature="0"
     style="fill:#ccd1d9;fill-opacity:1" />
  <path
     d="M 59,32.497 H 5 c -0.553,0 -1,-0.447 -1,-1 0,-0.553 0.447,-1 1,-1 h 54 c 0.553,0 1,0.447 1,1 0,0.553 -0.447,1 -1,1 z"
     id="path36"
     inkscape:connector-curvature="0"
     style="fill:#ccd1d9;fill-opacity:1" />
  <path
     d="M 59,35.497 H 5 c -0.553,0 -1,-0.447 -1,-1 0,-0.553 0.447,-1 1,-1 h 54 c 0.553,0 1,0.447 1,1 0,0.553 -0.447,1 -1,1 z"
     id="path38"
     inkscape:connector-curvature="0"
     style="fill:#ccd1d9;fill-opacity:1" />
  <path
     d="M 30.582569,38.497 H 4.9174312 C 4.4100917,38.497 4,38.05 4,37.497 c 0,-0.553 0.4100917,-1 0.9174312,-1 H 30.582569 c 0.507339,0 0.917431,0.447 0.917431,1 0,0.553 -0.411009,1 -0.917431,1 z"
     id="path40"
     inkscape:connector-curvature="0"
     style="fill:#ccd1d9;fill-opacity:1;stroke-width:0.95782626" />
  <text
     xml:space="preserve"
     style="font-style:normal;font-weight:normal;font-size:6px;line-height:1.25;font-family:monospace;letter-spacing:0px;word-spacing:0px;fill:#000000;fill-opacity:1;stroke:none;stroke-width:0.125;-inkscape-font-specification:monospace;font-stretch:normal;font-variant:normal;text-anchor:middle;text-align:center;"
     x="12.464255"
     y="19.128681"
     id="text59"><tspan
       sodipodi:role="line"
       id="tspan57"
       x="12.464255"
       y="23.552509"
       style="stroke-width:0.125;-inkscape-font-specification:monospace;font-family:monospace;font-weight:normal;font-style:normal;font-stretch:normal;font-variant:normal;font-size:6px;text-anchor:middle;text-align:center;" /></text>
  <text
     xml:space="preserve"
     style="font-style:normal;font-weight:normal;font-size:5px;line-height:1.25;font-family:sans-serif;letter-spacing:0px;word-spacing:0px;fill:#000000;fill-opacity:1;stroke:none;stroke-width:0.125"
     x="30.777122"
     y="0.43229881"
     id="text897"><tspan
       sodipodi:role="line"
       id="tspan895"
       x="30.777122"
       y="0.43229881"
       style="stroke-width:0.125"> </tspan></text>
  <path
     d="M 59,11.971827 H 5 c -0.553,0 -1,-0.447 -1,-1 0,-0.553 0.447,-1 1,-1 h 54 c 0.553,0 1,0.447 1,1 0,0.553 -0.447,1 -1,1 z"
     id="path22-3"
     inkscape:connector-curvature="0"
     style="fill:#ccd1d9;stroke-width:1;fill-opacity:1" />
  <path
     d="M 32.975,14.971827 H 5 c -0.553,0 -1,-0.447 -1,-1 0,-0.553 0.447,-1 1,-1 h 27.975 c 0.553,0 1,0.447 1,1 0,0.553 -0.448,1 -1,1 z"
     id="path24-5"
     inkscape:connector-curvature="0"
     style="fill:#ccd1d9;stroke-width:1;fill-opacity:1" />
  <path
     d="M 32.975,29.497 H 5 c -0.553,0 -1,-0.447 -1,-1 0,-0.553 0.447,-1 1,-1 h 27.975 c 0.553,0 1,0.447 1,1 0,0.553 -0.448,1 -1,1 z"
     id="path40-7"
     inkscape:connector-curvature="0"
     style="fill:#ccd1d9;fill-opacity:1;stroke-width:1" />
  <text
     xml:space="preserve"
     style="font-style:normal;font-variant:normal;font-weight:normal;font-stretch:normal;font-size:9.33333302px;line-height:1.25;font-family:monospace;-inkscape-font-specification:monospace;text-align:center;letter-spacing:0px;word-spacing:0px;text-anchor:middle;fill:#5d9cec;fill-opacity:1;stroke:none;stroke-width:0.125"
     x="24.026691"
     y="26.000065"
     id="text63-1"><tspan
       sodipodi:role="line"
       id="tspan61-2"
       x="24.026691"
       y="26.000065"
       style="font-style:normal;font-variant:normal;font-weight:normal;font-stretch:normal;font-size:9.33333302px;font-family:monospace;-inkscape-font-specification:monospace;text-align:center;text-anchor:middle;fill:#5d9cec;fill-opacity:1;stroke-width:0.125">Heading</tspan></text>
</svg>
