<?xml version="1.0" encoding="UTF-8" standalone="no"?>
<svg
   xmlns:dc="http://purl.org/dc/elements/1.1/"
   xmlns:cc="http://creativecommons.org/ns#"
   xmlns:rdf="http://www.w3.org/1999/02/22-rdf-syntax-ns#"
   xmlns:svg="http://www.w3.org/2000/svg"
   xmlns="http://www.w3.org/2000/svg"
   xmlns:sodipodi="http://sodipodi.sourceforge.net/DTD/sodipodi-0.dtd"
   xmlns:inkscape="http://www.inkscape.org/namespaces/inkscape"
   id="icons"
   enable-background="new 0 0 64 64"
   height="512"
   viewBox="0 0 64 64"
   width="512"
   version="1.1"
   sodipodi:docname="image.svg"
   inkscape:version="0.92.4 (5da689c313, 2019-01-14)">
  <metadata
     id="metadata55">
    <rdf:RDF>
      <cc:Work
         rdf:about="">
        <dc:format>image/svg+xml</dc:format>
        <dc:type
           rdf:resource="http://purl.org/dc/dcmitype/StillImage" />
        <dc:title></dc:title>
      </cc:Work>
    </rdf:RDF>
  </metadata>
  <defs
     id="defs53" />
  <sodipodi:namedview
     pagecolor="#ffffff"
     bordercolor="#666666"
     borderopacity="1"
     objecttolerance="10"
     gridtolerance="10"
     guidetolerance="10"
     inkscape:pageopacity="0"
     inkscape:pageshadow="2"
     inkscape:window-width="1280"
     inkscape:window-height="973"
     id="namedview51"
     showgrid="false"
     inkscape:zoom="0.921875"
     inkscape:cx="258.63469"
     inkscape:cy="250.06282"
     inkscape:window-x="1280"
     inkscape:window-y="25"
     inkscape:window-maximized="1"
     inkscape:current-layer="icons" />
  <path
     d="m 1,58.018297 c 0,0.55 0.45,1 1,1 h 60 c 0.55,0 1,-0.45 1,-1 v -49 H 1 Z"
     id="path2"
     inkscape:connector-curvature="0"
     style="fill:#e6e9ed" />
  <path
     d="m63 7v2h-62v-2c0-1.109.89-2 2-2h58c1.11 0 2 .891 2 2z"
     fill="#ccd1d9"
     id="path4" />
  <path
     d="m4.006 5.998h-.01c-.552 0-.995.447-.995 1 0 .552.453 1 1.005 1 .553 0 1-.448 1-1 0-.553-.447-1-1-1z"
     fill="#e6e9ed"
     id="path6" />
  <path
     d="m7.005 5.998h-.01c-.553 0-.995.447-.995 1 0 .552.452 1 1.005 1s1-.448 1-1c0-.553-.447-1-1-1z"
     fill="#e6e9ed"
     id="path8" />
  <g
     id="g878"
     transform="matrix(0.91304348,0,0,0.91304348,2.2163509,1.5056906)">
    <path
       id="path38"
       d="M 59.240326,12.181496 H 6.0000376 c -1.1777752,0 -2.1298506,0.952064 -2.1298506,2.129852 v 42.595218 c 0,1.177848 0.9520754,2.129866 2.1298506,2.129866 H 59.240326 c 1.177832,0 2.129861,-0.952018 2.129861,-2.129866 V 14.311348 c 0,-1.177788 -0.952029,-2.129852 -2.129861,-2.129852 z"
       style="fill:#5d9cec;stroke-width:2.12986636"
       inkscape:connector-curvature="0" />
    <path
       id="path40"
       d="m 43.875468,36.404456 c -0.05544,-0.06824 -0.134251,-0.10432 -0.195824,-0.164033 -0.0532,-0.05322 -0.08313,-0.123528 -0.14273,-0.170363 -0.0469,-0.03786 -0.106553,-0.04682 -0.157656,-0.08085 -0.127785,-0.08519 -0.257716,-0.149341 -0.4004,-0.20437 -0.121464,-0.04681 -0.236426,-0.08945 -0.362095,-0.114814 -0.138536,-0.02771 -0.272623,-0.03413 -0.411071,-0.03413 -0.136374,0 -0.264076,0.0028 -0.398262,0.03193 -0.129875,0.02558 -0.249195,0.06821 -0.374859,0.119218 -0.138434,0.05326 -0.266222,0.117058 -0.394015,0.202344 -0.04894,0.03421 -0.110978,0.0425 -0.157644,0.08085 -0.05969,0.04684 -0.08939,0.117064 -0.14273,0.170354 -0.06193,0.0597 -0.138423,0.09591 -0.195884,0.164042 l -18.082623,22.63187 h 36.780664 c 0.798703,0 1.467447,-0.457945 1.831661,-1.109646 z"
       style="fill:#656d78;stroke-width:2.12986636"
       inkscape:connector-curvature="0" />
    <path
       id="path42"
       d="m 17.716456,21.748853 c 2.355605,0 4.259728,1.929657 4.259728,4.259736 0,2.385439 -1.904123,4.259719 -4.259728,4.259719 -2.355652,0 -4.259756,-1.904099 -4.259756,-4.259719 0,-2.330079 1.901991,-4.259736 4.259756,-4.259736 z"
       style="fill:#ffce54;stroke-width:2.12986636"
       inkscape:connector-curvature="0" />
    <path
       id="path44"
       d="m 28.687388,42.50653 c -0.06395,-0.05537 -0.144892,-0.07478 -0.217245,-0.121344 -0.125594,-0.08522 -0.24705,-0.161795 -0.385492,-0.219395 -0.125642,-0.04899 -0.247122,-0.07654 -0.377008,-0.102163 -0.13632,-0.02771 -0.268354,-0.04683 -0.404672,-0.04683 -0.138482,0 -0.268352,0.02134 -0.404682,0.04683 -0.129775,0.02548 -0.251315,0.0532 -0.376963,0.104475 -0.136424,0.05315 -0.259847,0.132041 -0.385568,0.215121 -0.07034,0.04675 -0.150832,0.06614 -0.21929,0.123519 -0.04251,0.03671 -0.05762,0.0874 -0.09802,0.12565 -0.04248,0.04242 -0.09585,0.0597 -0.134168,0.106478 L 11.714421,59.036594 h 10.743057 l 9.857021,-12.336187 -3.397138,-3.961584 c -0.04044,-0.04469 -0.09346,-0.06387 -0.134188,-0.106492 -0.03688,-0.03786 -0.05327,-0.08942 -0.09576,-0.125698 z"
       style="fill:#545c66;stroke-width:2.12986636"
       inkscape:connector-curvature="0" />
  </g>
</svg>
