<?xml version="1.0" encoding="iso-8859-1"?>
<!-- Generator: Adobe Illustrator 19.0.0, SVG Export Plug-In . SVG Version: 6.00 Build 0)  -->
<svg version="1.1" id="Capa_1" xmlns="http://www.w3.org/2000/svg" xmlns:xlink="http://www.w3.org/1999/xlink" x="0px" y="0px"
	 viewBox="0 0 512 512" style="enable-background:new 0 0 512 512;" xml:space="preserve">
<g>
	<circle style="fill:#4482C3;" cx="256" cy="256" r="256"/>
	<g>
		<path style="fill:#4FBA6F;" d="M369.823,135.662c-3.354,10.328-15.448,14.83-23.57,20.48
			c-10.559,8.003-22.136,14.564-34.428,19.509c-12.27,4.414-26.394,5.032-37.429,12.182c-11.034,7.15-10.417,17.479-9.004,28.954
			c0.609,2.861-0.104,5.845-1.942,8.121c-3.253,2.403-7.623,2.646-11.123,0.618c-8.21-3.354-15.448-8.828-24.541-5.032
			c-8.07,3.539-13.223,11.581-13.065,20.392c0,18.803,16.243,29.131,29.219,39.636c3.708,3.09,20.48,21.01,10.505,25.159
			c-2.095,0.571-4.316,0.479-6.356-0.265c-19.244-4.855-38.488-9.622-57.732-14.301c-16.066-3.884-33.81-9.004-41.843-23.393
			c-6.797-12.182-4.855-28.16-13.065-39.283c-7.239-9.799-20.039-13.065-31.691-16.419c-11.652-3.354-24.276-8.916-28.601-20.215
			c-7.062-18.626,13.153-38.577,8.21-57.909C78.689,115.8,59.71,114.3,45.233,120.744c-3.1,1.338-5.916,3.256-8.298,5.65
			l-1.148-1.148C69.097,68.997,122.715,27.67,185.591,9.781c9.833,15.041,26.277,24.461,44.226,25.335
			c14.83,0.706,29.572-5.208,43.432,3.531c7.7,4.396,11.526,13.384,9.357,21.981c-4.061,11.388-21.01,17.037-19.95,29.043
			c0.883,9.534,13.33,13.594,22.599,11.388c9.269-2.207,17.567-8.033,27.101-9.446c14.83-2.119,28.601,7.062,40.783,15.801
			C362.673,114.3,373.407,124.54,369.823,135.662z"/>
		<path style="fill:#4FBA6F;" d="M420.961,451.628c-45.987,38.842-104.262,60.113-164.458,60.028
			c-13.423,0.02-26.825-1.043-40.077-3.178c-4.194-2.31-8.26-4.845-12.182-7.592c-9.588-5.931-15.882-15.974-17.037-27.189
			c0.44-6.718,2.5-13.23,6.003-18.979c4.326-8.475,3.619-19.421,10.152-26.659c5.561-6.091,14.124-7.68,20.568-12.623
			c6.072-4.907,11.112-10.967,14.83-17.832c4.384-10.653,9.951-20.78,16.596-30.19c11.476-12.094,30.455-7.15,43.52-0.883
			c14.339,6.494,27.519,15.291,39.018,26.041c11.495,12.187,23.73,23.656,36.634,34.339
			C388.631,437.507,404.296,445.845,420.961,451.628z"/>
	</g>
</g>
<g>
</g>
<g>
</g>
<g>
</g>
<g>
</g>
<g>
</g>
<g>
</g>
<g>
</g>
<g>
</g>
<g>
</g>
<g>
</g>
<g>
</g>
<g>
</g>
<g>
</g>
<g>
</g>
<g>
</g>
</svg>
