<?xml version="1.0" encoding="iso-8859-1"?>
<!-- Generator: Adobe Illustrator 19.0.0, SVG Export Plug-In . SVG Version: 6.00 Build 0)  -->
<svg version="1.1" id="Capa_1" xmlns="http://www.w3.org/2000/svg" xmlns:xlink="http://www.w3.org/1999/xlink" x="0px" y="0px"
	 viewBox="0 0 512 512" style="enable-background:new 0 0 512 512;" xml:space="preserve">
<g>
	<path style="fill:#BDC3C7;" d="M287.325,401.655c0,0-10.441,21.186,10.441,52.966c8.138,12.348,16.948,24.241,26.39,35.623
		c2.62,3.138,3.195,7.506,1.477,11.215c-1.718,3.71-5.421,6.096-9.509,6.127H195.876c-4.088-0.031-7.791-2.418-9.509-6.127
		c-1.718-3.709-1.143-8.077,1.477-11.215c9.442-11.382,18.252-23.275,26.39-35.623c20.883-31.779,10.441-52.966,10.441-52.966
		H287.325z"/>
	<path style="fill:#35495E;" d="M512,313.38h-2.648c0.706-0.013,1.387,0.262,1.887,0.761c0.499,0.5,0.774,1.181,0.761,1.887v76.8
		c-0.029,9.739-7.916,17.627-17.655,17.655H17.655C7.916,410.454,0.029,402.567,0,392.828V22.069
		C0.028,12.33,7.916,4.442,17.655,4.414h476.69c9.739,0.028,17.627,7.916,17.655,17.655V313.38z"/>
	<path style="fill:#7F8C8D;" d="M0,313.38h509.362c1.457,0,2.638,1.181,2.638,2.638v76.81c0,9.751-7.905,17.655-17.655,17.655
		H17.655C7.904,410.483,0,402.578,0,392.828V313.38z"/>
	<polygon style="fill:#285680;" points="123.586,167.724 123.586,229.517 79.448,256 79.448,194.207 	"/>
	<polygon style="fill:#3B97D3;" points="123.586,167.724 79.448,194.207 35.31,167.724 79.448,141.242 	"/>
	<polygon style="fill:#4482C3;" points="79.448,194.207 79.448,256 35.31,229.517 35.31,167.724 	"/>
	<polygon style="fill:#285680;" points="211.862,167.724 211.862,229.517 167.724,256 167.724,194.207 	"/>
	<polygon style="fill:#4482C3;" points="167.724,194.207 167.724,256 123.586,229.517 123.586,167.724 	"/>
	<g>
		<polygon style="fill:#3B97D3;" points="211.862,167.724 167.724,194.207 123.586,167.724 167.724,141.242 		"/>
		<polygon style="fill:#3B97D3;" points="167.724,79.448 123.586,105.931 79.448,79.448 123.586,52.966 		"/>
	</g>
	<polygon style="fill:#285680;" points="167.724,79.448 167.724,141.242 123.586,167.724 123.586,105.931 	"/>
	<polygon style="fill:#4482C3;" points="123.586,105.931 123.586,167.724 79.448,141.242 79.448,79.448 	"/>
	<path style="fill:#95A5A5;" d="M335.448,145.655h123.586c9.751,0,17.655,7.904,17.655,17.655v61.793
		c0,9.751-7.905,17.655-17.655,17.655H335.448c-9.751,0-17.655-7.904-17.655-17.655v-61.793
		C317.793,153.56,325.698,145.655,335.448,145.655z"/>
	<rect x="353.103" y="92.69" style="fill:#ECF0F1;" width="88.276" height="52.966"/>
	<g>
		<path style="fill:#5E5F62;" d="M441.379,189.828c-2.337,0.009-4.582-0.913-6.238-2.562c-1.656-1.649-2.588-3.889-2.59-6.227
			v-0.073c0.019-4.871,3.98-8.806,8.851-8.793c4.871,0.013,8.811,3.968,8.805,8.839C450.201,185.883,446.25,189.828,441.379,189.828
			z"/>
		<path style="fill:#5E5F62;" d="M406.069,189.828c-2.337,0.009-4.582-0.913-6.238-2.562c-1.656-1.649-2.588-3.889-2.59-6.227
			v-0.073c0.019-4.871,3.98-8.806,8.851-8.793c4.871,0.013,8.811,3.968,8.805,8.839C414.89,185.883,410.94,189.828,406.069,189.828z
			"/>
		<path style="fill:#5E5F62;" d="M441.379,216.276h-88.276c-4.875,0-8.828-3.952-8.828-8.828c0-4.875,3.952-8.828,8.828-8.828
			h88.276c4.875,0,8.828,3.952,8.828,8.828C450.207,212.324,446.255,216.276,441.379,216.276z"/>
	</g>
	<path style="fill:#95A5A5;" d="M288.724,174.725l-17.655-17.655c-3.456-3.394-9.001-3.369-12.426,0.056
		c-3.425,3.425-3.45,8.97-0.056,12.426l2.586,2.586h-14.001c-4.875,0-8.828,3.952-8.828,8.828s3.952,8.828,8.828,8.828h14
		l-2.586,2.586c-2.253,2.225-3.142,5.487-2.329,8.547c0.813,3.06,3.204,5.451,6.264,6.264c3.061,0.813,6.322-0.076,8.547-2.329
		l17.655-17.655c1.656-1.655,2.586-3.9,2.586-6.241C291.31,178.625,290.38,176.38,288.724,174.725z"/>
</g>
<g>
</g>
<g>
</g>
<g>
</g>
<g>
</g>
<g>
</g>
<g>
</g>
<g>
</g>
<g>
</g>
<g>
</g>
<g>
</g>
<g>
</g>
<g>
</g>
<g>
</g>
<g>
</g>
<g>
</g>
</svg>
