<?xml version="1.0" encoding="iso-8859-1"?>
<!-- Generator: Adobe Illustrator 19.0.0, SVG Export Plug-In . SVG Version: 6.00 Build 0)  -->
<svg version="1.1" id="Capa_1" xmlns="http://www.w3.org/2000/svg" xmlns:xlink="http://www.w3.org/1999/xlink" x="0px" y="0px"
	 viewBox="0 0 511.755 511.755" style="enable-background:new 0 0 511.755 511.755;" xml:space="preserve">
<g>
	<path id="SVGCleanerId_0" style="fill:#35495E;" d="M255.385,203.419l-6.23-6.23c-4.952-4.965-11.676-7.756-18.689-7.756
		s-13.737,2.791-18.689,7.756l-24.919,24.919c-4.965,4.952-7.756,11.676-7.756,18.689c0,7.013,2.791,13.737,7.756,18.689l6.23,6.23
		l87.215,87.215l6.23,6.23c4.952,4.965,11.676,7.756,18.689,7.756s13.737-2.791,18.689-7.756l24.919-24.919
		c4.965-4.952,7.756-11.676,7.756-18.689s-2.791-13.737-7.756-18.689l-6.23-6.23L255.385,203.419z"/>
	<path style="fill:#2C3E50;" d="M252.785,150.387c-11.687,0.021-22.9-4.615-31.16-12.884l-18.69-18.69
		c-3.447-3.447-3.447-9.036,0-12.483c3.447-3.447,9.036-3.447,12.483,0l18.69,18.689c10.324,10.293,27.03,10.293,37.354,0
		L383.596,12.887c17.221-17.183,45.102-17.183,62.323,0l18.69,18.685c17.177,17.224,17.177,45.099,0,62.323l-6.233,6.233
		c-2.227,2.251-5.489,3.137-8.549,2.322c-3.06-0.815-5.449-3.206-6.262-6.266c-0.813-3.06,0.076-6.322,2.328-8.547l6.233-6.228
		c10.293-10.324,10.293-27.03,0-37.353l-18.69-18.685c-10.322-10.302-27.036-10.302-37.358,0L283.945,137.504
		C275.686,145.772,264.472,150.409,252.785,150.387z"/>
	<path style="fill:#B0D3F0;" d="M438.203,79.951l27.864,27.864c6.278,6.278,6.904,16.247,1.461,23.261l-34.026,43.848
		l-62.409-62.409l43.848-34.026C421.956,73.046,431.925,73.672,438.203,79.951L438.203,79.951z"/>
	<path style="fill:#2C3E50;" d="M37.344,508.668l0.008,0.008c3.982,3.686,9.991,4.11,14.452,1.02l32.638-23.198l-24.918-24.919
		l-23.199,32.638C33.233,498.676,33.658,504.685,37.344,508.668L37.344,508.668z"/>
	<g>
		<path id="SVGCleanerId_0_1_" style="fill:#35495E;" d="M255.385,203.419l-6.23-6.23c-4.952-4.965-11.676-7.756-18.689-7.756
			s-13.737,2.791-18.689,7.756l-24.919,24.919c-4.965,4.952-7.756,11.676-7.756,18.689c0,7.013,2.791,13.737,7.756,18.689l6.23,6.23
			l87.215,87.215l6.23,6.23c4.952,4.965,11.676,7.756,18.689,7.756s13.737-2.791,18.689-7.756l24.919-24.919
			c4.965-4.952,7.756-11.676,7.756-18.689s-2.791-13.737-7.756-18.689l-6.23-6.23L255.385,203.419z"/>
	</g>
	
		<rect x="184.368" y="119.385" transform="matrix(0.7071 0.7071 -0.7071 0.7071 284.1901 -86.1088)" style="fill:#4482C3;" width="123.34" height="361.218"/>
	<path id="SVGCleanerId_1" style="fill:#90BAE1;" d="M379.921,103.688l62.409,62.409c2.982,2.982,3.433,7.659,1.075,11.156
		l-26.05,38.625l-87.215-87.215l38.625-26.049C372.262,100.255,376.939,100.706,379.921,103.688L379.921,103.688z"/>
	<polygon style="fill:#35495E;" points="49.803,458.836 87.188,496.212 161.94,471.292 74.723,384.075 	"/>
	<path id="SVGCleanerId_2" style="fill:#B0D3F0;" d="M218.012,328.023L218.012,328.023c-10.322-10.322-10.322-27.056,0-37.378
		l62.296-62.296c10.322-10.322,27.056-10.322,37.378,0l0,0c10.322,10.322,10.322,27.056,0,37.378l-62.296,62.296
		C245.068,338.344,228.334,338.344,218.012,328.023z"/>
	<circle style="fill:#35495E;" cx="174.4" cy="371.665" r="26.43"/>
	<path style="fill:#4482C3;" d="M443.399,177.236l-26.041,38.665L161.975,471.283l-74.77,24.894l-37.429-37.341l24.982-74.77
		l255.382-255.382l38.665-26.041c3.476-2.383,8.159-1.937,11.123,1.059l62.411,62.411
		C445.336,169.077,445.782,173.76,443.399,177.236z"/>
	<g>
		<path id="SVGCleanerId_1_1_" style="fill:#90BAE1;" d="M379.921,103.688l62.409,62.409c2.982,2.982,3.433,7.659,1.075,11.156
			l-26.05,38.625l-87.215-87.215l38.625-26.049C372.262,100.255,376.939,100.706,379.921,103.688L379.921,103.688z"/>
	</g>
	<polygon style="fill:#35495E;" points="49.803,458.836 87.188,496.212 161.94,471.292 74.723,384.075 	"/>
	<g>
		<path id="SVGCleanerId_2_1_" style="fill:#B0D3F0;" d="M218.012,328.023L218.012,328.023c-10.322-10.322-10.322-27.056,0-37.378
			l62.296-62.296c10.322-10.322,27.056-10.322,37.378,0l0,0c10.322,10.322,10.322,27.056,0,37.378l-62.296,62.296
			C245.068,338.344,228.334,338.344,218.012,328.023z"/>
	</g>
	<circle style="fill:#35495E;" cx="174.4" cy="371.665" r="26.43"/>
</g>
<g>
</g>
<g>
</g>
<g>
</g>
<g>
</g>
<g>
</g>
<g>
</g>
<g>
</g>
<g>
</g>
<g>
</g>
<g>
</g>
<g>
</g>
<g>
</g>
<g>
</g>
<g>
</g>
<g>
</g>
</svg>
