<?xml version="1.0" encoding="iso-8859-1"?>
<!-- Generator: Adobe Illustrator 19.0.0, SVG Export Plug-In . SVG Version: 6.00 Build 0)  -->
<svg version="1.1" id="Capa_1" xmlns="http://www.w3.org/2000/svg" xmlns:xlink="http://www.w3.org/1999/xlink" x="0px" y="0px"
	 viewBox="0 0 512 512" style="enable-background:new 0 0 512 512;" xml:space="preserve">
<g>
	<path style="fill:#35495E;" d="M44.138,83.862h423.724c9.751,0,17.655,7.904,17.655,17.655v300.138H26.483V101.517
		C26.483,91.766,34.387,83.862,44.138,83.862z"/>
	<path style="fill:#7F8C8D;" d="M6.194,404.742c-10.922-5.96-6.567-20.523,6.558-20.739c0.122-0.002,0.245-0.003,0.368-0.003
		h485.345c13.432,0.11,18.611,14.366,7.434,20.465l-38.857,21.202c-3.067,1.64-6.494,2.489-9.971,2.471H53.262
		c-2.678,0.014-5.316-0.64-7.678-1.903L6.194,404.742z"/>
	<path style="fill:#BDC3C7;" d="M202.83,384l15.034,37.586c1.637,4.093,4.393,6.552,7.345,6.552h61.172
		c2.952,0,5.708-2.458,7.345-6.552L308.762,384H202.83z"/>
	<polygon style="fill:#3B97D3;" points="335.448,172.138 295.724,207.448 216.276,207.448 176.552,172.138 216.276,136.827 
		295.724,136.827 	"/>
	<g>
		<polygon style="fill:#285680;" points="220.69,207.448 220.69,331.034 216.276,331.034 176.552,295.724 176.552,172.138 
			216.276,207.448 		"/>
		<polygon style="fill:#285680;" points="335.448,172.138 335.448,295.724 295.724,331.034 291.31,331.034 291.31,207.448 
			295.724,207.448 		"/>
	</g>
	<rect x="216.276" y="207.448" style="fill:#4482C3;" width="79.078" height="123.586"/>
	<g>
		<path style="fill:#547580;" d="M94.111,136.827h2.993c4.875,0,8.828-3.952,8.828-8.828s-3.952-8.828-8.828-8.828H70.621
			c-0.101,0-0.184,0.054-0.284,0.057c-0.64,0.057-1.271,0.184-1.883,0.38c-0.498,0.087-0.988,0.216-1.463,0.386
			c-0.445,0.248-0.869,0.533-1.265,0.853c-0.546,0.329-1.053,0.716-1.515,1.155c-0.071,0.075-0.169,0.103-0.237,0.181
			c-0.242,0.357-0.456,0.732-0.641,1.122c-0.792,0.985-1.245,2.199-1.292,3.462c-0.114,0.403-0.197,0.815-0.248,1.231v26.483
			c0,4.875,3.952,8.828,8.828,8.828s8.828-3.952,8.828-8.828v-7.032l55.983,48.985c2.373,2.078,5.674,2.732,8.66,1.715
			c2.986-1.017,5.201-3.55,5.812-6.644c0.611-3.094-0.476-6.279-2.851-8.355L94.111,136.827z"/>
		<path style="fill:#547580;" d="M449.958,126.767c-0.047-1.263-0.501-2.477-1.293-3.462c-0.184-0.389-0.397-0.763-0.639-1.119
			c-0.068-0.078-0.166-0.105-0.237-0.18c-0.469-0.448-0.987-0.842-1.544-1.176c-0.744-0.704-1.705-1.136-2.725-1.225
			c-0.604-0.192-1.228-0.318-1.859-0.376c-0.099-0.004-0.182-0.057-0.282-0.057h-26.483c-4.875,0-8.828,3.952-8.828,8.828
			s3.952,8.828,8.828,8.828h2.993l-52.941,46.323c-2.375,2.075-3.462,5.26-2.851,8.355s2.827,5.627,5.812,6.644
			s6.287,0.363,8.66-1.715l55.983-48.985v7.032c0,4.875,3.952,8.828,8.828,8.828s8.828-3.952,8.828-8.828V128
			C450.155,127.583,450.072,127.171,449.958,126.767L449.958,126.767z"/>
	</g>
</g>
<g>
</g>
<g>
</g>
<g>
</g>
<g>
</g>
<g>
</g>
<g>
</g>
<g>
</g>
<g>
</g>
<g>
</g>
<g>
</g>
<g>
</g>
<g>
</g>
<g>
</g>
<g>
</g>
<g>
</g>
</svg>
