<?xml version="1.0" encoding="iso-8859-1"?>
<!-- Generator: Adobe Illustrator 19.0.0, SVG Export Plug-In . SVG Version: 6.00 Build 0)  -->
<svg version="1.1" id="Capa_1" xmlns="http://www.w3.org/2000/svg" xmlns:xlink="http://www.w3.org/1999/xlink" x="0px" y="0px"
	 viewBox="0 0 512 512" style="enable-background:new 0 0 512 512;" xml:space="preserve">
<g>
	<path style="fill:#BDC3C7;" d="M287.325,401.655c0,0-10.441,21.186,10.441,52.966c8.138,12.348,16.948,24.241,26.39,35.623
		c2.62,3.138,3.195,7.506,1.477,11.215c-1.718,3.71-5.421,6.096-9.509,6.127H195.876c-4.088-0.031-7.791-2.418-9.509-6.127
		c-1.718-3.709-1.143-8.077,1.477-11.215c9.442-11.382,18.252-23.275,26.39-35.623c20.883-31.779,10.441-52.966,10.441-52.966
		H287.325z"/>
	<path style="fill:#35495E;" d="M512,313.38h-2.648c0.706-0.013,1.387,0.262,1.887,0.761c0.499,0.5,0.774,1.181,0.761,1.887v76.8
		c-0.029,9.739-7.916,17.627-17.655,17.655H17.655C7.916,410.454,0.029,402.567,0,392.828V22.069
		C0.028,12.33,7.916,4.442,17.655,4.414h476.69c9.739,0.028,17.627,7.916,17.655,17.655V313.38z"/>
	<path style="fill:#7F8C8D;" d="M0,313.38h509.362c1.457,0,2.638,1.181,2.638,2.638v76.81c0,9.751-7.905,17.655-17.655,17.655
		H17.655C7.904,410.483,0,402.578,0,392.828V313.38z"/>
	<polygon style="fill:#285680;" points="141.241,167.724 141.241,229.517 97.103,256 97.103,194.207 	"/>
	<polygon style="fill:#3B97D3;" points="141.241,167.724 97.103,194.207 52.966,167.724 97.103,141.242 	"/>
	<polygon style="fill:#4482C3;" points="97.103,194.207 97.103,256 52.966,229.517 52.966,167.724 	"/>
	<polygon style="fill:#285680;" points="229.517,167.724 229.517,229.517 185.379,256 185.379,194.207 	"/>
	<polygon style="fill:#4482C3;" points="185.379,194.207 185.379,256 141.241,229.517 141.241,167.724 	"/>
	<g>
		<polygon style="fill:#3B97D3;" points="229.517,167.724 185.379,194.207 141.241,167.724 185.379,141.242 		"/>
		<polygon style="fill:#3B97D3;" points="185.379,79.448 141.241,105.931 97.103,79.448 141.241,52.966 		"/>
	</g>
	<polygon style="fill:#285680;" points="185.379,79.448 185.379,141.242 141.241,167.724 141.241,105.931 	"/>
	<polygon style="fill:#4482C3;" points="141.241,105.931 141.241,167.724 97.103,141.242 97.103,79.448 	"/>
	<g>
		<path style="fill:#95A5A5;" d="M441.379,145.655h-88.276c-4.875,0-8.828-3.952-8.828-8.828s3.952-8.828,8.828-8.828h88.276
			c4.875,0,8.828,3.952,8.828,8.828S446.255,145.655,441.379,145.655z"/>
		<path style="fill:#95A5A5;" d="M317.793,145.655h-17.655c-4.875,0-8.828-3.952-8.828-8.828s3.952-8.828,8.828-8.828h17.655
			c4.875,0,8.828,3.952,8.828,8.828S322.668,145.655,317.793,145.655z"/>
	</g>
	<circle style="fill:#BDC3C7;" cx="335.448" cy="136.828" r="17.655"/>
	<g>
		<path style="fill:#95A5A5;" d="M441.379,251.586h-88.276c-4.875,0-8.828-3.952-8.828-8.828s3.952-8.828,8.828-8.828h88.276
			c4.875,0,8.828,3.952,8.828,8.828S446.255,251.586,441.379,251.586z"/>
		<path style="fill:#95A5A5;" d="M317.793,251.586h-17.655c-4.875,0-8.828-3.952-8.828-8.828s3.952-8.828,8.828-8.828h17.655
			c4.875,0,8.828,3.952,8.828,8.828S322.668,251.586,317.793,251.586z"/>
	</g>
	<circle style="fill:#BDC3C7;" cx="335.448" cy="242.759" r="17.655"/>
	<g>
		<path style="fill:#95A5A5;" d="M388.414,198.621h-88.276c-4.875,0-8.828-3.952-8.828-8.828s3.952-8.828,8.828-8.828h88.276
			c4.875,0,8.828,3.952,8.828,8.828S393.289,198.621,388.414,198.621z"/>
		<path style="fill:#95A5A5;" d="M441.379,198.621h-17.655c-4.875,0-8.828-3.952-8.828-8.828s3.952-8.828,8.828-8.828h17.655
			c4.875,0,8.828,3.952,8.828,8.828S446.255,198.621,441.379,198.621z"/>
	</g>
	<circle style="fill:#BDC3C7;" cx="406.069" cy="189.793" r="17.655"/>
</g>
<g>
</g>
<g>
</g>
<g>
</g>
<g>
</g>
<g>
</g>
<g>
</g>
<g>
</g>
<g>
</g>
<g>
</g>
<g>
</g>
<g>
</g>
<g>
</g>
<g>
</g>
<g>
</g>
<g>
</g>
</svg>
