<?xml version="1.0" encoding="iso-8859-1"?>
<!-- Generator: Adobe Illustrator 19.0.0, SVG Export Plug-In . SVG Version: 6.00 Build 0)  -->
<svg version="1.1" id="Capa_1" xmlns="http://www.w3.org/2000/svg" xmlns:xlink="http://www.w3.org/1999/xlink" x="0px" y="0px"
	 viewBox="0 0 512 512" style="enable-background:new 0 0 512 512;" xml:space="preserve">
<g>
	<path style="fill:#CC4B4C;" d="M446.136,509.674l-53.651-30.658c-2.668-1.524-5.687-2.326-8.759-2.326H120.104
		c-3.486,0-6.893,1.032-9.793,2.965l-44.07,29.38c-2.9,1.933-6.308,2.965-9.793,2.965H17.655C7.904,512,0,504.095,0,494.345V17.655
		C0,7.904,7.904,0,17.655,0h476.69C504.095,0,512,7.904,512,17.655v476.69c0,9.751-7.905,17.655-17.655,17.655h-39.449
		C451.823,512,448.804,511.198,446.136,509.674z"/>
	<path style="fill:#B0D3F0;" d="M467.862,156.954v160.839c-0.029,9.739-7.916,17.627-17.655,17.655H300.138
		c-9.739,0.028-17.627,7.916-17.655,17.655v70.621c-0.029,9.739-7.916,17.627-17.655,17.655H130.913
		c-4.704-0.002-9.214-1.876-12.535-5.208l-69.032-69.032c-3.332-3.321-5.206-7.831-5.208-12.535v-197.65
		c0.009-4.419,1.679-8.673,4.679-11.917l27.719-30.279l32.397-35.31l27.101-29.572c3.327-3.651,8.037-5.734,12.977-5.738H362.99
		c4.94,0.004,9.65,2.087,12.977,5.738l27.101,29.572l32.397,35.31l27.719,30.279C466.183,148.282,467.853,152.536,467.862,156.954z"
		/>
	<path style="fill:#90BAE1;" d="M335.448,370.759h114.759c9.751,0,17.655,7.905,17.655,17.655v35.31
		c0,9.751-7.904,17.655-17.655,17.655H335.448c-9.751,0-17.655-7.904-17.655-17.655v-35.31
		C317.793,378.663,325.698,370.759,335.448,370.759z"/>
	<g>
		<path style="fill:#FB7B76;" d="M35.31,114.759c-3.463-0.002-6.605-2.028-8.037-5.182c-1.431-3.153-0.888-6.852,1.39-9.461
			l61.793-70.621c3.214-3.659,8.784-4.025,12.45-0.819c3.666,3.207,4.043,8.776,0.844,12.448l-61.793,70.621
			C40.28,113.662,37.857,114.761,35.31,114.759z"/>
		<path style="fill:#FB7B76;" d="M35.31,61.793c-3.57-0.001-6.788-2.152-8.154-5.45c-1.366-3.298-0.611-7.094,1.913-9.619
			l17.655-17.655c3.456-3.394,9.001-3.369,12.426,0.056s3.45,8.97,0.056,12.426L41.551,59.207
			C39.898,60.865,37.652,61.796,35.31,61.793z"/>
	</g>
	<polygon style="fill:#B49ACA;" points="79.448,397.241 282.483,397.241 282.483,361.931 44.138,361.931 	"/>
	<g>
		<path style="fill:#E6E7E8;" d="M397.241,414.897h-44.138c-4.875,0-8.828-3.952-8.828-8.828s3.952-8.828,8.828-8.828h44.138
			c4.875,0,8.828,3.952,8.828,8.828S402.117,414.897,397.241,414.897z"/>
		<path style="fill:#E6E7E8;" d="M432.552,414.897c-0.564-0.016-1.126-0.075-1.681-0.177c-0.583-0.085-1.147-0.264-1.672-0.53
			c-0.565-0.194-1.101-0.462-1.595-0.797c-0.44-0.35-0.879-0.703-1.319-1.056c-3.414-3.481-3.414-9.054,0-12.534l1.319-1.06
			c0.494-0.335,1.03-0.604,1.595-0.797c0.524-0.267,1.09-0.445,1.672-0.526c2.881-0.58,5.862,0.313,7.948,2.383
			c0.353,0.44,0.707,0.879,1.06,1.41c0.347,0.452,0.615,0.959,0.793,1.5c0.269,0.526,0.447,1.095,0.526,1.681
			c0.107,0.553,0.168,1.114,0.181,1.677c-0.018,0.591-0.078,1.18-0.181,1.763c-0.093,0.554-0.27,1.091-0.526,1.591
			c-0.194,0.562-0.461,1.097-0.793,1.591c-0.353,0.44-0.707,0.879-1.06,1.323c-0.44,0.353-0.888,0.707-1.328,1.056
			c-0.491,0.335-1.024,0.603-1.586,0.797c-0.528,0.266-1.096,0.445-1.681,0.53C433.672,414.821,433.113,414.88,432.552,414.897
			L432.552,414.897z"/>
	</g>
	<g>
		<path style="fill:#B49ACA;" d="M191.125,261.121c-3.871,0.005-7.294-2.512-8.442-6.209c-1.148-3.697,0.245-7.71,3.438-9.899
			c13.974-8.313,26.064-19.444,35.5-32.685c4.698-9.397,2.642-33.578-0.358-41.47c-1.12-2.949-0.581-6.271,1.413-8.715
			c1.994-2.444,5.141-3.639,8.254-3.134c3.114,0.505,5.722,2.633,6.841,5.582c3.543,9.332,7.698,39.517-0.358,55.634
			c-6.922,13.841-26.28,29.034-41.302,39.349C194.645,260.582,192.906,261.122,191.125,261.121z"/>
		<path style="fill:#B49ACA;" d="M254.022,301.931l-43.794-17.761l-12.15-39.187c-1.001-3.906-4.52-6.637-8.552-6.638h-43.604
			c-3.95,0.148-7.371,2.784-8.522,6.565l-12.179,39.26l-43.795,17.761c-4.328,1.756-6.54,6.579-5.047,11.004l17.479,51.819
			c1.213,3.588,4.578,6.004,8.366,6.004h131c3.788,0,7.154-2.416,8.366-6.004l17.479-51.819
			C260.561,308.51,258.349,303.687,254.022,301.931z M152.418,256h30.587l9.775,31.51l-17.229,13.18l-7.827,5.986l-25.056-19.168
			L152.418,256z M95.767,315.168l35.289-14.31l27.841,21.297v30.948h-50.332L95.767,315.168z M226.884,353.103h-50.332v-30.948
			l27.841-21.297l35.289,14.31L226.884,353.103z"/>
		<polygon style="fill:#B49ACA;" points="435.465,114.759 76.535,114.759 108.932,79.448 403.068,79.448 		"/>
	</g>
	<rect x="167.724" y="79.448" style="fill:#556080;" width="123.586" height="35.31"/>
	<path style="fill:#8697CB;" d="M259.656,144.898l-17.655,17.655c-3.311,3.311-7.802,5.171-12.484,5.171s-9.173-1.86-12.484-5.171
		l-17.655-17.655c-3.311-3.311-5.171-7.802-5.171-12.484v-17.655h70.621v17.655C264.828,137.096,262.967,141.587,259.656,144.898z"
		/>
</g>
<g>
</g>
<g>
</g>
<g>
</g>
<g>
</g>
<g>
</g>
<g>
</g>
<g>
</g>
<g>
</g>
<g>
</g>
<g>
</g>
<g>
</g>
<g>
</g>
<g>
</g>
<g>
</g>
<g>
</g>
</svg>
