<?xml version="1.0" encoding="iso-8859-1"?>
<!-- Generator: Adobe Illustrator 19.0.0, SVG Export Plug-In . SVG Version: 6.00 Build 0)  -->
<svg version="1.1" id="Capa_1" xmlns="http://www.w3.org/2000/svg" xmlns:xlink="http://www.w3.org/1999/xlink" x="0px" y="0px"
	 viewBox="0 0 512 512" style="enable-background:new 0 0 512 512;" xml:space="preserve">
<g>
	<path style="fill:#BDC3C7;" d="M287.325,401.655c0,0-10.441,21.186,10.441,52.966c8.138,12.348,16.948,24.241,26.39,35.623
		c2.62,3.138,3.195,7.506,1.477,11.215c-1.718,3.71-5.421,6.096-9.509,6.127H195.876c-4.088-0.031-7.791-2.418-9.509-6.127
		c-1.718-3.709-1.143-8.077,1.477-11.215c9.442-11.382,18.252-23.275,26.39-35.623c20.883-31.779,10.441-52.966,10.441-52.966
		H287.325z"/>
	<path style="fill:#35495E;" d="M512,313.38h-2.648c0.706-0.013,1.387,0.262,1.887,0.761c0.499,0.5,0.774,1.181,0.761,1.887v76.8
		c-0.029,9.739-7.916,17.627-17.655,17.655H17.655C7.916,410.454,0.029,402.567,0,392.828V22.069
		C0.028,12.33,7.916,4.442,17.655,4.414h476.69c9.739,0.028,17.627,7.916,17.655,17.655V313.38z"/>
	<path style="fill:#547580;" d="M52.966,39.724h17.655c9.751,0,17.655,7.904,17.655,17.655v203.034
		c0,9.751-7.904,17.655-17.655,17.655H52.966c-9.751,0-17.655-7.904-17.655-17.655V57.38C35.31,47.629,43.215,39.724,52.966,39.724z
		"/>
	<path style="fill:#4C8056;" d="M441.379,39.724h17.655c9.751,0,17.655,7.904,17.655,17.655v26.483
		c0,9.751-7.905,17.655-17.655,17.655h-17.655c-9.751,0-17.655-7.904-17.655-17.655V57.38
		C423.724,47.629,431.629,39.724,441.379,39.724z"/>
	<path style="fill:#4482C3;" d="M441.379,136.828h17.655c9.751,0,17.655,7.904,17.655,17.655v17.655
		c0,9.751-7.905,17.655-17.655,17.655h-17.655c-9.751,0-17.655-7.904-17.655-17.655v-17.655
		C423.724,144.732,431.629,136.828,441.379,136.828z"/>
	<path style="fill:#CC4B4C;" d="M441.379,225.104h17.655c9.751,0,17.655,7.904,17.655,17.655v17.655
		c0,9.751-7.905,17.655-17.655,17.655h-17.655c-9.751,0-17.655-7.904-17.655-17.655v-17.655
		C423.724,233.008,431.629,225.104,441.379,225.104z"/>
	<path style="fill:#7F8C8D;" d="M0,313.38h509.362c1.457,0,2.638,1.181,2.638,2.638v76.81c0,9.751-7.905,17.655-17.655,17.655
		H17.655C7.904,410.483,0,402.578,0,392.828V313.38z"/>
	<polygon style="fill:#285680;" points="256,189.087 256,250.88 211.862,277.363 211.862,215.57 	"/>
	<polygon style="fill:#3B97D3;" points="256,189.087 211.862,215.57 167.724,189.087 211.862,162.604 	"/>
	<polygon style="fill:#4482C3;" points="211.862,215.57 211.862,277.363 167.724,250.88 167.724,189.087 	"/>
	<polygon style="fill:#285680;" points="344.276,189.087 344.276,250.88 300.138,277.363 300.138,215.57 	"/>
	<polygon style="fill:#4482C3;" points="300.138,215.57 300.138,277.363 256,250.88 256,189.087 	"/>
	<g>
		<polygon style="fill:#3B97D3;" points="344.276,189.087 300.138,215.57 256,189.087 300.138,162.604 		"/>
		<polygon style="fill:#3B97D3;" points="300.138,100.811 256,127.294 211.862,100.811 256,74.328 		"/>
	</g>
	<polygon style="fill:#285680;" points="300.138,100.811 300.138,162.604 256,189.087 256,127.294 	"/>
	<polygon style="fill:#4482C3;" points="256,127.294 256,189.087 211.862,162.604 211.862,100.811 	"/>
</g>
<g>
</g>
<g>
</g>
<g>
</g>
<g>
</g>
<g>
</g>
<g>
</g>
<g>
</g>
<g>
</g>
<g>
</g>
<g>
</g>
<g>
</g>
<g>
</g>
<g>
</g>
<g>
</g>
<g>
</g>
</svg>
