<?xml version="1.0" encoding="iso-8859-1"?>
<!-- Generator: Adobe Illustrator 19.0.0, SVG Export Plug-In . SVG Version: 6.00 Build 0)  -->
<svg version="1.1" id="Capa_1" xmlns="http://www.w3.org/2000/svg" xmlns:xlink="http://www.w3.org/1999/xlink" x="0px" y="0px"
	 viewBox="0 0 512 512" style="enable-background:new 0 0 512 512;" xml:space="preserve">
<g>
	<path id="SVGCleanerId_0" style="fill:#802D40;" d="M512,150.069v344.276c0,9.751-7.904,17.655-17.655,17.655H17.655
		C7.905,512,0,504.096,0,494.345V150.069H512z"/>
	<g>
		<path style="fill:#D75E72;" d="M512,150.069H0L91.886,8.064C95.139,3.036,100.72,0,106.708,0h298.583
			c5.989,0,11.569,3.036,14.823,8.064L512,150.069z"/>
		<path style="fill:#D75E72;" d="M512,150.069v344.276c-0.029,9.739-7.916,17.627-17.655,17.655H17.655
			C7.916,511.971,0.029,504.084,0,494.345V150.069L91.895,8.033c3.259-5.022,8.844-8.047,14.83-8.033h298.549
			c5.987-0.014,11.572,3.011,14.83,8.033L512,150.069z"/>
	</g>
	<g>
		<path id="SVGCleanerId_0_1_" style="fill:#802D40;" d="M512,150.069v344.276c0,9.751-7.904,17.655-17.655,17.655H17.655
			C7.905,512,0,504.096,0,494.345V150.069H512z"/>
	</g>
	<polygon style="fill:#90BAE1;" points="64.909,114.759 116.312,35.31 395.688,35.31 447.091,114.759 	"/>
	<path style="fill:#B0D3F0;" d="M476.69,289.796v153.098c0,4.682-1.86,9.173-5.171,12.484l-16.141,16.141
		c-3.311,3.311-7.802,5.171-12.484,5.171H69.106c-4.682,0-9.173-1.86-12.484-5.171l-16.141-16.141
		c-3.311-3.311-5.171-7.802-5.171-12.484V289.796c0-4.682,1.86-9.173,5.171-12.484l16.141-16.141
		C59.933,257.86,64.424,256,69.106,256h373.788c4.682,0,9.173,1.86,12.484,5.171l16.141,16.141
		C474.83,280.623,476.69,285.113,476.69,289.796z"/>
	<rect x="185.379" y="185.379" style="fill:#90BAE1;" width="141.241" height="35.31"/>
	<rect x="203.035" y="256" style="fill:#A5A5A4;" width="105.931" height="79.448"/>
	<polygon style="fill:#90BAE1;" points="361.931,397.241 150.069,397.241 203.035,335.448 308.966,335.448 	"/>
	<rect x="150.069" y="397.241" style="fill:#5E5F62;" width="211.862" height="35.31"/>
	<rect x="150.069" y="432.552" style="fill:#A5A5A4;" width="211.862" height="44.138"/>
</g>
<g>
</g>
<g>
</g>
<g>
</g>
<g>
</g>
<g>
</g>
<g>
</g>
<g>
</g>
<g>
</g>
<g>
</g>
<g>
</g>
<g>
</g>
<g>
</g>
<g>
</g>
<g>
</g>
<g>
</g>
</svg>
