<?xml version="1.0" encoding="iso-8859-1"?>
<!-- Generator: Adobe Illustrator 19.0.0, SVG Export Plug-In . SVG Version: 6.00 Build 0)  -->
<svg version="1.1" id="Capa_1" xmlns="http://www.w3.org/2000/svg" xmlns:xlink="http://www.w3.org/1999/xlink" x="0px" y="0px"
	 viewBox="0 0 512 512" style="enable-background:new 0 0 512 512;" xml:space="preserve">
<g>
	<path style="fill:#BDC3C7;" d="M287.325,401.655c0,0-10.441,21.186,10.441,52.966c8.138,12.348,16.948,24.241,26.39,35.623
		c2.62,3.138,3.195,7.506,1.477,11.215c-1.718,3.71-5.421,6.096-9.509,6.127H195.876c-4.088-0.031-7.791-2.418-9.509-6.127
		c-1.718-3.709-1.143-8.077,1.477-11.215c9.442-11.382,18.252-23.275,26.39-35.623c20.883-31.779,10.441-52.966,10.441-52.966
		H287.325z"/>
	<path style="fill:#35495E;" d="M512,313.38h-2.648c0.706-0.013,1.387,0.262,1.887,0.761c0.499,0.5,0.774,1.181,0.761,1.887v76.8
		c-0.029,9.739-7.916,17.627-17.655,17.655H17.655C7.916,410.454,0.029,402.567,0,392.828V22.069
		C0.028,12.33,7.916,4.442,17.655,4.414h476.69c9.739,0.028,17.627,7.916,17.655,17.655V313.38z"/>
	<path style="fill:#7F8C8D;" d="M0,313.38h509.362c1.457,0,2.638,1.181,2.638,2.638v76.81c0,9.751-7.905,17.655-17.655,17.655
		H17.655C7.904,410.483,0,402.578,0,392.828V313.38z"/>
	<polygon style="fill:#285680;" points="256,189.087 256,250.88 211.862,277.363 211.862,215.57 	"/>
	<polygon style="fill:#3B97D3;" points="256,189.087 211.862,215.57 167.724,189.087 211.862,162.604 	"/>
	<polygon style="fill:#4482C3;" points="211.862,215.57 211.862,277.363 167.724,250.88 167.724,189.087 	"/>
	<polygon style="fill:#285680;" points="344.276,189.087 344.276,250.88 300.138,277.363 300.138,215.57 	"/>
	<polygon style="fill:#4482C3;" points="300.138,215.57 300.138,277.363 256,250.88 256,189.087 	"/>
	<g>
		<polygon style="fill:#3B97D3;" points="344.276,189.087 300.138,215.57 256,189.087 300.138,162.604 		"/>
		<polygon style="fill:#3B97D3;" points="300.138,100.811 256,127.294 211.862,100.811 256,74.328 		"/>
	</g>
	<polygon style="fill:#285680;" points="300.138,100.811 300.138,162.604 256,189.087 256,127.294 	"/>
	<polygon style="fill:#4482C3;" points="256,127.294 256,189.087 211.862,162.604 211.862,100.811 	"/>
	<g>
		<path style="fill:#547580;" d="M129.426,83.862h2.988c4.875,0,8.828-3.952,8.828-8.828c0-4.875-3.952-8.828-8.828-8.828h-26.483
			c-0.102,0-0.187,0.055-0.289,0.058c-0.628,0.057-1.248,0.182-1.849,0.373c-0.51,0.088-1.01,0.22-1.497,0.396
			c-0.436,0.243-0.851,0.523-1.24,0.836c-0.554,0.333-1.07,0.726-1.537,1.173c-0.068,0.073-0.164,0.101-0.231,0.177
			c-0.237,0.35-0.447,0.718-0.629,1.1c-0.798,0.987-1.256,2.206-1.306,3.475c-0.115,0.406-0.199,0.821-0.251,1.24v26.483
			c0,4.875,3.952,8.828,8.828,8.828c4.875,0,8.828-3.952,8.828-8.828v-7.029l55.978,48.981c2.373,2.077,5.674,2.731,8.66,1.715
			c2.986-1.016,5.202-3.548,5.815-6.642c0.613-3.094-0.472-6.279-2.845-8.357L129.426,83.862z"/>
		<path style="fill:#547580;" d="M414.646,73.795c-0.05-1.269-0.508-2.488-1.306-3.475c-0.181-0.382-0.392-0.75-0.629-1.1
			c-0.067-0.077-0.163-0.104-0.232-0.177c-0.459-0.437-0.964-0.824-1.506-1.151c-0.73-0.702-1.674-1.137-2.682-1.236
			c-0.634-0.206-1.289-0.338-1.954-0.394c-0.095-0.003-0.174-0.054-0.269-0.054h-26.483c-4.875,0-8.828,3.952-8.828,8.828
			c0,4.875,3.952,8.828,8.828,8.828h2.988l-52.941,46.323c-3.668,3.211-4.039,8.788-0.828,12.457
			c3.211,3.668,8.788,4.039,12.457,0.828l55.978-48.981v7.029c0,4.875,3.952,8.828,8.828,8.828s8.828-3.952,8.828-8.828V75.035
			C414.845,74.616,414.761,74.201,414.646,73.795L414.646,73.795z"/>
	</g>
</g>
<g>
</g>
<g>
</g>
<g>
</g>
<g>
</g>
<g>
</g>
<g>
</g>
<g>
</g>
<g>
</g>
<g>
</g>
<g>
</g>
<g>
</g>
<g>
</g>
<g>
</g>
<g>
</g>
<g>
</g>
</svg>
