<?xml version="1.0" encoding="iso-8859-1"?>
<!-- Generator: Adobe Illustrator 19.0.0, SVG Export Plug-In . SVG Version: 6.00 Build 0)  -->
<svg version="1.1" id="Capa_1" xmlns="http://www.w3.org/2000/svg" xmlns:xlink="http://www.w3.org/1999/xlink" x="0px" y="0px"
	 viewBox="0 0 512 512" style="enable-background:new 0 0 512 512;" xml:space="preserve">
<g>
	<path style="fill:#BDC3C7;" d="M17.655,0h476.69C504.095,0,512,7.904,512,17.655v476.69c0,9.751-7.905,17.655-17.655,17.655H17.655
		C7.904,512,0,504.095,0,494.345V17.655C0,7.904,7.904,0,17.655,0z"/>
	<path style="fill:#5E5F62;" d="M238.345,291.31v-52.965h35.31v52.965c0,9.751-7.904,17.655-17.655,17.655l0,0
		C246.249,308.966,238.345,301.061,238.345,291.31z"/>
	<g>
		<path style="fill:#95A5A5;" d="M512,432.552v61.793c-0.029,9.739-7.916,17.627-17.655,17.655H17.655
			C7.916,511.971,0.029,504.084,0,494.345v-61.793H512z"/>
		<rect y="114.759" style="fill:#95A5A5;" width="512" height="52.966"/>
	</g>
	<path style="fill:#7F8C8D;" d="M306.677,203.034H205.323c-3.878-0.231-7.219-2.812-8.422-6.506l-11.522-28.804h141.241
		l-11.522,28.804C313.896,200.222,310.555,202.804,306.677,203.034L306.677,203.034z"/>
	<path style="fill:#95A5A5;" d="M211.862,203.034h88.276v17.655c0,9.751-7.905,17.655-17.655,17.655h-52.966
		c-9.751,0-17.655-7.904-17.655-17.655V203.034z"/>
	<path style="fill:#71C285;" d="M256,344.276V476.69c-2.727-0.005-5.415-0.639-7.857-1.854l-80.419-39.989l66.648-99.399
		l12.977,6.709C250.02,343.55,252.988,344.277,256,344.276z"/>
	<path style="fill:#527F72;" d="M344.276,434.847l-80.419,39.989c-2.441,1.215-5.13,1.849-7.857,1.854V344.276
		c3.006,0.042,5.977-0.655,8.651-2.03l13.153-6.532L344.276,434.847z"/>
</g>
<g>
</g>
<g>
</g>
<g>
</g>
<g>
</g>
<g>
</g>
<g>
</g>
<g>
</g>
<g>
</g>
<g>
</g>
<g>
</g>
<g>
</g>
<g>
</g>
<g>
</g>
<g>
</g>
<g>
</g>
</svg>
