<?xml version="1.0" encoding="iso-8859-1"?>
<!-- Generator: Adobe Illustrator 19.0.0, SVG Export Plug-In . SVG Version: 6.00 Build 0)  -->
<svg version="1.1" id="Capa_1" xmlns="http://www.w3.org/2000/svg" xmlns:xlink="http://www.w3.org/1999/xlink" x="0px" y="0px"
	 viewBox="0 0 511.977 511.977" style="enable-background:new 0 0 511.977 511.977;" xml:space="preserve">
<g transform="translate(-1)">
	<g>
		<path style="fill:#D1D4D1;" d="M286.523,286.616c-3.632-0.001-6.907-2.189-8.297-5.545c-1.39-3.356-0.622-7.219,1.946-9.788
			L497.681,53.774c3.513-3.473,9.172-3.457,12.665,0.036c3.493,3.493,3.509,9.152,0.036,12.665L292.874,283.985
			C291.191,285.672,288.906,286.619,286.523,286.616L286.523,286.616z"/>
		<path style="fill:#D1D4D1;" d="M235.343,235.436c-3.632-0.001-6.907-2.189-8.297-5.545c-1.39-3.356-0.622-7.219,1.946-9.788
			L446.501,2.595c3.513-3.473,9.172-3.457,12.665,0.036c3.493,3.493,3.51,9.152,0.036,12.665L241.694,232.805
			C240.012,234.492,237.726,235.439,235.343,235.436L235.343,235.436z"/>
	</g>
	<path style="fill:#95A5A5;" d="M289.082,300.606l-19.133,19.222l-13.429,11.06l-79.151-76.692l15.78-11.167l19.222-19.133
		c3.388-3.407,7.995-5.322,12.8-5.322c4.805,0,9.412,1.915,12.8,5.322l51.11,51.11c3.407,3.388,5.322,7.995,5.322,12.8
		C294.404,292.611,292.488,297.217,289.082,300.606L289.082,300.606z"/>
	<path style="fill:#D1D4D1;" d="M260.935,261.024c-3.632-0.001-6.907-2.189-8.297-5.545c-1.39-3.356-0.622-7.219,1.946-9.788
		L497.681,2.595c3.516-3.453,9.159-3.428,12.644,0.057c3.485,3.485,3.511,9.127,0.057,12.644L267.286,258.393
		C265.604,260.08,263.318,261.027,260.935,261.024L260.935,261.024z"/>
	<polyline style="fill:#7F8C8D;" points="244.331,294.237 276.318,262.251 250.727,236.659 218.74,268.646 	"/>
	<polygon style="fill:#5E5F62;" points="295.549,345.428 260.329,380.648 131.26,254.22 167.549,217.428 	"/>
	<g>
		<path style="fill:#7F8C8D;" d="M391.482,351.806l-25.6,25.6c-3.53,3.503-9.225,3.503-12.755,0l-6.467-6.378
			c-1.675-1.723-3.975-2.695-6.378-2.695s-4.703,0.972-6.378,2.695l-41.601,42.128l-31.978-31.978l35.223-35.75l44.733-44.822
			c3.565-3.503,9.28-3.503,12.845,0l38.355,38.445C394.985,342.581,394.985,348.276,391.482,351.806z"/>
		<path style="fill:#7F8C8D;" d="M212.371,172.695l-44.822,44.733l-36.289,36.79L99.282,222.24l42.667-43.167
			c1.723-1.675,2.695-3.975,2.695-6.378c0-2.403-0.972-4.703-2.695-6.378l-6.378-6.378c-3.503-3.565-3.503-9.28,0-12.845l25.6-25.6
			c3.53-3.503,9.225-3.503,12.755,0l38.445,38.445C215.874,163.471,215.874,169.165,212.371,172.695z"/>
	</g>
	<path style="fill:#35495E;" d="M106.199,483.578c0,0-67.189,47.966-96.022,19.222c-28.744-28.834,19.222-96.022,19.222-96.022
		l73.656,73.656L106.199,483.578z"/>
	<path style="fill:#2C3E50;" d="M314.502,415.581c-70.063,77.698-171.116,86.411-204.62,82.01
		c-6.034-0.885-11.599-3.762-15.809-8.174l-70.692-70.692c-4.388-4.216-7.235-9.783-8.084-15.809
		c-4.401-33.505,4.401-134.378,82.1-204.441l204.531,204.531L314.502,415.581z"/>
	<path style="fill:#3F5C6C;" d="M49.286,401.279c-2.815-0.005-5.465-1.327-7.162-3.573s-2.246-5.156-1.483-7.866l11.645-33.57
		l0.482-1.162l23.241-45.86l29.193-41.263l4.316-5.132c3.229-3.764,8.898-4.198,12.662-0.969c3.764,3.229,4.198,8.898,0.969,12.662
		l-31.754,43.982l-22.044,43.482l-0.443,1.075l-10.987,31.658C56.827,398.607,53.302,401.275,49.286,401.279z"/>
</g>
<g>
</g>
<g>
</g>
<g>
</g>
<g>
</g>
<g>
</g>
<g>
</g>
<g>
</g>
<g>
</g>
<g>
</g>
<g>
</g>
<g>
</g>
<g>
</g>
<g>
</g>
<g>
</g>
<g>
</g>
</svg>
