<?xml version="1.0" encoding="iso-8859-1"?>
<!-- Generator: Adobe Illustrator 19.0.0, SVG Export Plug-In . SVG Version: 6.00 Build 0)  -->
<svg version="1.1" id="Capa_1" xmlns="http://www.w3.org/2000/svg" xmlns:xlink="http://www.w3.org/1999/xlink" x="0px" y="0px"
	 viewBox="0 0 512 512" style="enable-background:new 0 0 512 512;" xml:space="preserve">
<g>
	<path style="fill:#CC4B4C;" d="M446.136,509.674l-53.651-30.658c-2.668-1.524-5.687-2.326-8.759-2.326H120.104
		c-3.486,0-6.893,1.032-9.793,2.965l-44.07,29.38c-2.9,1.933-6.308,2.965-9.793,2.965H17.655C7.904,512,0,504.095,0,494.345V17.655
		C0,7.904,7.904,0,17.655,0h476.69C504.095,0,512,7.904,512,17.655v476.69c0,9.751-7.905,17.655-17.655,17.655h-39.449
		C451.823,512,448.804,511.198,446.136,509.674z"/>
	<path style="fill:#B0D3F0;" d="M467.862,156.954v160.839c-0.029,9.739-7.916,17.627-17.655,17.655H344.276
		c-9.739,0.028-17.627,7.916-17.655,17.655v70.621c-0.029,9.739-7.916,17.627-17.655,17.655H130.913
		c-4.704-0.002-9.214-1.876-12.535-5.208l-69.032-69.032c-3.332-3.321-5.206-7.831-5.208-12.535v-197.65
		c0.009-4.419,1.679-8.673,4.679-11.917l27.719-30.279l32.397-35.31l27.101-29.572c3.327-3.651,8.037-5.734,12.977-5.738H362.99
		c4.94,0.004,9.65,2.087,12.977,5.738l27.101,29.572l32.397,35.31l27.719,30.279C466.183,148.282,467.853,152.536,467.862,156.954z"
		/>
	<g>
		<path style="fill:#FB7B76;" d="M35.31,114.759c-3.463-0.002-6.605-2.028-8.037-5.182c-1.431-3.153-0.888-6.852,1.39-9.461
			l61.793-70.621c3.214-3.659,8.784-4.025,12.45-0.819c3.666,3.207,4.043,8.776,0.844,12.448l-61.793,70.621
			C40.28,113.662,37.857,114.761,35.31,114.759z"/>
		<path style="fill:#FB7B76;" d="M35.31,61.793c-3.57-0.001-6.788-2.152-8.154-5.45c-1.366-3.298-0.611-7.094,1.913-9.619
			l17.655-17.655c3.456-3.394,9.001-3.369,12.426,0.056s3.45,8.97,0.056,12.426L41.551,59.207
			C39.898,60.865,37.652,61.796,35.31,61.793z"/>
	</g>
	<polygon style="fill:#B49ACA;" points="79.448,397.241 317.793,397.241 317.793,361.931 44.138,361.931 	"/>
	<circle style="fill:#14A085;" cx="397.241" cy="397.241" r="114.759"/>
	<polygon style="fill:#9FC9D3;" points="432.552,397.241 379.586,441.379 379.586,353.103 	"/>
	<g>
		<path style="fill:#B49ACA;" d="M114.75,370.754c-4.013-0.003-7.519-2.712-8.535-6.595c-1.224-4.694-11.237-46.134,14.578-54.741
			c6.749-1.474,11.864-6.998,12.815-13.841c0.441-3.449,0.189-6.951-0.742-10.302c-0.998-2.992-0.324-6.289,1.769-8.65
			c2.092-2.36,5.285-3.425,8.375-2.793c3.09,0.632,5.609,2.864,6.606,5.856c1.802,5.953,2.301,12.224,1.465,18.388
			c-1.913,13.444-11.614,24.475-24.703,28.091c-7.552,2.517-5.69,23.431-3.078,33.543c0.686,2.646,0.107,5.459-1.566,7.62
			C120.062,369.492,117.482,370.756,114.75,370.754L114.75,370.754z"/>
		<rect x="44.138" y="194.207" style="fill:#B49ACA;" width="423.724" height="35.31"/>
	</g>
	<rect x="79.448" y="194.207" style="fill:#556080;" width="123.586" height="35.31"/>
	<path style="fill:#8697CB;" d="M171.381,259.656l-17.655,17.655c-3.311,3.311-7.802,5.171-12.484,5.171s-9.173-1.86-12.484-5.171
		l-17.655-17.655c-3.311-3.311-5.171-7.802-5.171-12.484v-17.655h70.621v17.655C176.552,251.855,174.692,256.345,171.381,259.656z"
		/>
</g>
<g>
</g>
<g>
</g>
<g>
</g>
<g>
</g>
<g>
</g>
<g>
</g>
<g>
</g>
<g>
</g>
<g>
</g>
<g>
</g>
<g>
</g>
<g>
</g>
<g>
</g>
<g>
</g>
<g>
</g>
</svg>
