<?xml version="1.0" encoding="iso-8859-1"?>
<!-- Generator: Adobe Illustrator 19.0.0, SVG Export Plug-In . SVG Version: 6.00 Build 0)  -->
<svg version="1.1" id="Capa_1" xmlns="http://www.w3.org/2000/svg" xmlns:xlink="http://www.w3.org/1999/xlink" x="0px" y="0px"
	 viewBox="0 0 512 512" style="enable-background:new 0 0 512 512;" xml:space="preserve">
<g>
	<path style="fill:#F3D55B;" d="M432.552,123.586v370.759c-0.029,9.739-7.916,17.627-17.655,17.655H97.103
		c-9.739-0.029-17.627-7.916-17.655-17.655V17.655C79.477,7.916,87.365,0.029,97.103,0h211.862L432.552,123.586z"/>
	<path style="fill:#B19046;" d="M432.552,123.586H326.621c-9.739-0.029-17.627-7.916-17.655-17.655V0L432.552,123.586z"/>
	<path style="fill:#41767F;" d="M326.621,186.086v51.553c-0.023,6.577-3.696,12.597-9.534,15.625l-52.966,27.366
		c-2.504,1.321-5.29,2.018-8.121,2.03v-70.797l68.414-34.251C325.853,180.204,326.612,183.12,326.621,186.086L326.621,186.086z"/>
	<path style="fill:#3F5C6C;" d="M256,211.862v70.797c-2.831-0.012-5.617-0.709-8.121-2.03l-52.966-27.366
		c-5.838-3.028-9.511-9.048-9.534-15.625v-51.553c0.009-2.966,0.768-5.881,2.207-8.474L256,211.862z"/>
	<path style="fill:#67B9CC;" d="M324.414,177.611L256,211.862l-68.414-34.251c1.667-3.066,4.221-5.558,7.327-7.15l52.966-27.366
		c5.09-2.648,11.152-2.648,16.243,0l52.966,27.366C320.193,172.053,322.746,174.545,324.414,177.611L324.414,177.611z"/>
	<g>
		<path style="fill:#F5EFCA;" d="M361.931,353.103H150.069c-4.875,0-8.828-3.952-8.828-8.828s3.952-8.828,8.828-8.828h211.862
			c4.875,0,8.828,3.952,8.828,8.828S366.806,353.103,361.931,353.103z"/>
		<path style="fill:#F5EFCA;" d="M361.931,423.724H150.069c-4.875,0-8.828-3.952-8.828-8.828s3.952-8.828,8.828-8.828h211.862
			c4.875,0,8.828,3.952,8.828,8.828S366.806,423.724,361.931,423.724z"/>
		<path style="fill:#F5EFCA;" d="M282.483,388.414H150.069c-4.875,0-8.828-3.952-8.828-8.828s3.952-8.828,8.828-8.828h132.414
			c4.875,0,8.828,3.952,8.828,8.828S287.358,388.414,282.483,388.414z"/>
		<path style="fill:#F5EFCA;" d="M361.931,388.414h-44.138c-4.875,0-8.828-3.952-8.828-8.828s3.952-8.828,8.828-8.828h44.138
			c4.875,0,8.828,3.952,8.828,8.828S366.806,388.414,361.931,388.414z"/>
	</g>
</g>
<g>
</g>
<g>
</g>
<g>
</g>
<g>
</g>
<g>
</g>
<g>
</g>
<g>
</g>
<g>
</g>
<g>
</g>
<g>
</g>
<g>
</g>
<g>
</g>
<g>
</g>
<g>
</g>
<g>
</g>
</svg>
