<?xml version="1.0" encoding="iso-8859-1"?>
<!-- Generator: Adobe Illustrator 19.0.0, SVG Export Plug-In . SVG Version: 6.00 Build 0)  -->
<svg version="1.1" id="Capa_1" xmlns="http://www.w3.org/2000/svg" xmlns:xlink="http://www.w3.org/1999/xlink" x="0px" y="0px"
	 viewBox="0 0 512 512" style="enable-background:new 0 0 512 512;" xml:space="preserve">
<g>
	<path style="fill:#CC4B4C;" d="M446.136,509.674l-53.651-30.658c-2.668-1.524-5.687-2.326-8.759-2.326H120.104
		c-3.486,0-6.893,1.032-9.793,2.965l-44.07,29.38c-2.9,1.933-6.308,2.965-9.793,2.965H17.655C7.904,512,0,504.095,0,494.345V17.655
		C0,7.904,7.904,0,17.655,0h476.69C504.095,0,512,7.904,512,17.655v476.69c0,9.751-7.905,17.655-17.655,17.655h-39.449
		C451.823,512,448.804,511.198,446.136,509.674z"/>
	<path style="fill:#B0D3F0;" d="M467.862,156.954v160.839c-0.029,9.739-7.916,17.627-17.655,17.655H335.448
		c-9.739,0.028-17.627,7.916-17.655,17.655v70.621c-0.029,9.739-7.916,17.627-17.655,17.655H130.913
		c-4.704-0.002-9.214-1.876-12.535-5.208l-69.032-69.032c-3.332-3.321-5.206-7.831-5.208-12.535v-197.65
		c0.009-4.419,1.679-8.673,4.679-11.917l27.719-30.279l32.397-35.31l27.101-29.572c3.327-3.651,8.037-5.734,12.977-5.738H362.99
		c4.94,0.004,9.65,2.087,12.977,5.738l27.101,29.572l32.397,35.31l27.719,30.279C466.183,148.282,467.853,152.536,467.862,156.954z"
		/>
	<g>
		<path style="fill:#FB7B76;" d="M35.31,114.759c-3.463-0.002-6.605-2.028-8.037-5.182c-1.431-3.153-0.888-6.852,1.39-9.461
			l61.793-70.621c3.214-3.659,8.784-4.025,12.45-0.819c3.666,3.207,4.043,8.776,0.844,12.448l-61.793,70.621
			C40.28,113.662,37.857,114.761,35.31,114.759z"/>
		<path style="fill:#FB7B76;" d="M35.31,61.793c-3.57-0.001-6.788-2.152-8.154-5.45c-1.366-3.298-0.611-7.094,1.913-9.619
			l17.655-17.655c3.456-3.394,9.001-3.369,12.426,0.056s3.45,8.97,0.056,12.426L41.551,59.207
			C39.898,60.865,37.652,61.796,35.31,61.793z"/>
	</g>
	<polygon style="fill:#B49ACA;" points="79.448,397.241 300.138,397.241 300.138,361.931 44.138,361.931 	"/>
	<circle style="fill:#4482C3;" cx="397.241" cy="397.241" r="114.759"/>
	<g>
		<path style="fill:#E6E7E8;" d="M370.759,450.207c-4.875,0-8.828-3.952-8.828-8.828v-88.276c0-4.875,3.952-8.828,8.828-8.828
			s8.828,3.952,8.828,8.828v88.276C379.586,446.255,375.634,450.207,370.759,450.207z"/>
		<path style="fill:#E6E7E8;" d="M423.724,450.207c-4.875,0-8.828-3.952-8.828-8.828v-88.276c0-4.875,3.952-8.828,8.828-8.828
			c4.875,0,8.828,3.952,8.828,8.828v88.276C432.552,446.255,428.599,450.207,423.724,450.207z"/>
	</g>
	<g>
		<path style="fill:#B49ACA;" d="M289.328,230.853l-47.415-33.228c0.464-11.164-0.935-22.327-4.141-33.03
			c-1.118-2.949-3.724-5.077-6.837-5.584c-3.113-0.506-6.259,0.687-8.254,3.129c-1.995,2.443-2.535,5.764-1.417,8.713
			c3.196,11.737,3.867,24.018,1.967,36.033l-21.974,31.458h-35.073l-27.399-39.22c-1.342-1.921-3.393-3.23-5.7-3.638
			c-2.308-0.408-4.683,0.12-6.601,1.465l-48.478,33.97c-6.323,4.532-8.947,12.661-6.466,20.034l38.315,113.797
			c1.213,3.588,4.579,6.004,8.366,6.004h131c3.788,0,7.154-2.416,8.366-6.004l38.319-113.819
			C298.383,243.523,295.711,235.363,289.328,230.853z M183.72,306.685l-25.06-19.142L168.41,256h30.621l9.75,31.543L183.72,306.685z
			 M129.375,216.483l22.715,32.519l-10.888,35.236l-34.999,14.389L88.237,245.31L129.375,216.483z M111.853,315.393l35.228-14.483
			l29.471,22.514v29.68H124.56L111.853,315.393z M242.879,353.103h-48.672v-32.215l26.152-19.978l35.218,14.479L242.879,353.103z
			 M261.221,298.621l-34.984-14.383l-10.888-35.236l22.711-32.515l41.103,28.84L261.221,298.621z"/>
		<polygon style="fill:#B49ACA;" points="435.465,114.759 76.535,114.759 108.932,79.448 403.068,79.448 		"/>
	</g>
	<rect x="167.724" y="79.448" style="fill:#556080;" width="123.586" height="35.31"/>
	<path style="fill:#8697CB;" d="M259.656,144.898l-17.655,17.655c-3.311,3.311-7.802,5.171-12.484,5.171s-9.173-1.86-12.484-5.171
		l-17.655-17.655c-3.311-3.311-5.171-7.802-5.171-12.484v-17.655h70.621v17.655C264.828,137.096,262.967,141.587,259.656,144.898z"
		/>
</g>
<g>
</g>
<g>
</g>
<g>
</g>
<g>
</g>
<g>
</g>
<g>
</g>
<g>
</g>
<g>
</g>
<g>
</g>
<g>
</g>
<g>
</g>
<g>
</g>
<g>
</g>
<g>
</g>
<g>
</g>
</svg>
