<?xml version="1.0" encoding="iso-8859-1"?>
<!-- Generator: Adobe Illustrator 19.0.0, SVG Export Plug-In . SVG Version: 6.00 Build 0)  -->
<svg version="1.1" id="Capa_1" xmlns="http://www.w3.org/2000/svg" xmlns:xlink="http://www.w3.org/1999/xlink" x="0px" y="0px"
	 viewBox="0 0 512 512" style="enable-background:new 0 0 512 512;" xml:space="preserve">
<g>
	<path style="fill:#2C2F38;" d="M256.084,512c-6.025,0-12.008-0.208-17.9-0.613c-4.702-0.325-8.253-4.397-7.933-9.1
		c0.382-4.672,4.419-8.188,9.1-7.925c5.517,0.379,11.117,0.571,16.658,0.571l1.033-0.004c4.713,0,8.533,3.82,8.533,8.533
		c0,4.713-3.82,8.533-8.533,8.533L256.109,512H256.084z M291.442,509.467c-4.477-0.002-8.191-3.465-8.507-7.931
		c-0.316-4.466,2.874-8.416,7.307-9.048c5.475-0.788,10.992-1.779,16.383-2.946c2.982-0.654,6.086,0.335,8.14,2.594
		c2.054,2.259,2.744,5.442,1.811,8.349c-0.934,2.906-3.349,5.093-6.334,5.733c-5.792,1.258-11.708,2.321-17.583,3.163
		C292.256,509.437,291.849,509.466,291.442,509.467L291.442,509.467z M204.609,506.629c-0.597,0.001-1.192-0.062-1.775-0.188
		c-5.808-1.229-11.642-2.683-17.333-4.313c-4.524-1.303-7.138-6.024-5.842-10.551s6.014-7.147,10.542-5.858
		c5.308,1.525,10.75,2.879,16.167,4.029c4.273,0.903,7.174,4.887,6.722,9.231C212.636,503.325,208.976,506.626,204.609,506.629
		L204.609,506.629z M341.55,496.767c-4.134,0-7.674-2.963-8.402-7.033c-0.728-4.07,1.566-8.076,5.443-9.509
		c5.15-1.9,10.325-4.025,15.4-6.313c4.296-1.938,9.35-0.026,11.288,4.271c1.938,4.296,0.025,9.35-4.271,11.288
		c-5.433,2.45-10.983,4.725-16.5,6.763C343.562,496.586,342.56,496.767,341.55,496.767L341.55,496.767z M155.417,490.633
		c-1.195-0.001-2.377-0.256-3.467-0.746c-5.417-2.417-10.825-5.058-16.058-7.854c-4.158-2.218-5.731-7.388-3.512-11.546
		c2.218-4.158,7.388-5.731,11.546-3.512c4.883,2.608,9.925,5.075,14.975,7.329c3.68,1.642,5.71,5.634,4.869,9.575
		C162.928,487.82,159.446,490.636,155.417,490.633L155.417,490.633z M387.867,473.875c-3.799,0.002-7.142-2.507-8.201-6.155
		c-1.06-3.648,0.418-7.557,3.626-9.591c4.708-2.975,9.342-6.133,13.775-9.388c2.458-1.808,5.693-2.166,8.487-0.94
		c2.793,1.226,4.72,3.85,5.053,6.883c0.333,3.033-0.978,6.012-3.439,7.815c-4.75,3.483-9.708,6.867-14.742,10.054
		C391.062,473.418,389.481,473.876,387.867,473.875L387.867,473.875z M110.659,464.713c-1.803,0.002-3.56-0.57-5.017-1.633
		c-4.767-3.475-9.5-7.175-14.058-11.004c-3.611-3.028-4.083-8.41-1.054-12.021c3.028-3.611,8.41-4.083,12.021-1.054
		c4.267,3.579,8.683,7.038,13.141,10.279c2.988,2.177,4.235,6.03,3.089,9.545C117.634,462.339,114.355,464.716,110.659,464.713
		L110.659,464.713z M428.442,441.871c-3.473,0-6.599-2.105-7.906-5.322s-0.533-6.906,1.956-9.328
		c3.95-3.842,7.834-7.888,11.542-12.033c3.146-3.512,8.543-3.808,12.054-0.662c3.512,3.146,3.808,8.543,0.662,12.054
		c-3.975,4.433-8.133,8.767-12.358,12.875C432.8,441.006,430.664,441.873,428.442,441.871L428.442,441.871z M72.242,430.108
		c-2.418,0.003-4.724-1.023-6.342-2.821c-3.992-4.433-7.858-9.029-11.483-13.658c-2.906-3.71-2.255-9.073,1.454-11.979
		c3.71-2.906,9.073-2.255,11.979,1.454c3.383,4.321,6.992,8.612,10.733,12.758c2.257,2.504,2.828,6.103,1.457,9.183
		C78.669,428.125,75.613,430.109,72.242,430.108L72.242,430.108z M461.567,402.175c-3.151-0.006-6.042-1.747-7.522-4.528
		c-1.48-2.781-1.308-6.152,0.447-8.768c3.067-4.558,6.033-9.321,8.808-14.154c2.355-4.076,7.564-5.476,11.645-3.13
		c4.081,2.346,5.492,7.553,3.155,11.639c-2.983,5.175-6.158,10.279-9.442,15.171C467.072,400.766,464.412,402.18,461.567,402.175
		L461.567,402.175z M41.809,388.35c-3.042,0.004-5.856-1.614-7.383-4.246c-3.008-5.167-5.842-10.462-8.425-15.746
		c-2.071-4.234-0.318-9.346,3.917-11.417s9.346-0.318,11.417,3.917c2.408,4.917,5.042,9.854,7.842,14.671
		c1.533,2.638,1.541,5.894,0.021,8.539C47.677,386.714,44.86,388.346,41.809,388.35L41.809,388.35z M485.767,356.471
		c-2.833-0.005-5.48-1.414-7.066-3.762c-1.586-2.348-1.905-5.329-0.851-7.959c2.05-5.108,3.958-10.388,5.667-15.692
		c1.452-4.481,6.259-6.94,10.742-5.493c4.483,1.446,6.948,6.25,5.508,10.735c-1.833,5.679-3.883,11.337-6.083,16.817
		C492.385,354.35,489.251,356.47,485.767,356.471z M20.692,341.183c-3.695-0.002-6.97-2.379-8.117-5.892
		c-1.817-5.6-3.483-11.366-4.933-17.146c-0.753-2.96,0.134-6.096,2.325-8.224c2.191-2.128,5.352-2.922,8.289-2.083
		c2.936,0.839,5.2,3.184,5.936,6.148c1.358,5.4,2.908,10.788,4.617,16.012c0.84,2.599,0.389,5.444-1.216,7.655
		C25.988,339.865,23.423,341.177,20.692,341.183L20.692,341.183z M499.884,306.713c-0.486,0-0.971-0.04-1.45-0.121
		c-4.645-0.798-7.763-5.209-6.967-9.854c0.942-5.495,1.7-11.054,2.25-16.513c0.487-4.679,4.667-8.081,9.347-7.608
		c4.68,0.473,8.095,4.643,7.636,9.325c-0.592,5.85-1.408,11.8-2.417,17.679C507.585,303.715,504.037,306.71,499.884,306.713
		L499.884,306.713z M9.9,290.629c-4.363-0.002-8.021-3.298-8.475-7.637c-0.633-5.971-1.05-11.971-1.242-17.825
		c-0.125-3.06,1.401-5.952,3.997-7.577c2.596-1.625,5.864-1.734,8.562-0.285s4.412,4.234,4.491,7.295
		c0.183,5.45,0.575,11.034,1.158,16.6c0.239,2.25-0.425,4.503-1.847,6.263c-1.422,1.76-3.486,2.882-5.736,3.12
		C10.5,290.612,10.2,290.629,9.9,290.629z M503.284,255.133c-4.586-0.001-8.349-3.63-8.516-8.212
		c-0.208-5.529-0.617-11.121-1.2-16.621c-0.325-3.031,0.992-6.005,3.455-7.801c2.463-1.796,5.696-2.143,8.483-0.908
		c2.787,1.234,4.704,3.862,5.028,6.893c0.633,5.892,1.067,11.879,1.283,17.796c0.176,4.71-3.499,8.671-8.208,8.85L503.284,255.133z
		 M9.859,238.942c-0.295,0.001-0.59-0.014-0.883-0.046c-4.686-0.484-8.094-4.672-7.617-9.359c0.608-5.9,1.434-11.85,2.45-17.687
		c0.819-4.635,5.235-7.733,9.872-6.924s7.744,5.219,6.945,9.857c-0.95,5.446-1.725,10.996-2.283,16.496
		C17.892,235.628,14.231,238.935,9.859,238.942z M495.975,203.967c-3.903-0.007-7.306-2.658-8.267-6.442
		c-1.358-5.363-2.917-10.746-4.65-16c-1.473-4.478,0.964-9.302,5.442-10.775c4.478-1.473,9.302,0.964,10.775,5.442
		c1.85,5.633,3.525,11.4,4.983,17.15c0.642,2.553,0.071,5.259-1.548,7.335C501.093,202.753,498.608,203.967,495.975,203.967
		L495.975,203.967z M20.525,188.371c-2.73-0.005-5.293-1.314-6.898-3.522c-1.605-2.208-2.058-5.051-1.219-7.649
		c1.817-5.608,3.875-11.258,6.108-16.804c1.778-4.352,6.74-6.447,11.099-4.688s6.476,6.712,4.734,11.079
		c-2.092,5.175-4.008,10.45-5.708,15.679C27.502,185.986,24.225,188.37,20.525,188.371L20.525,188.371z M478.134,155.458
		c-3.251,0.004-6.222-1.841-7.658-4.758c-2.45-4.95-5.1-9.887-7.892-14.667c-2.375-4.073-0.998-9.3,3.075-11.675
		c4.073-2.375,9.3-0.998,11.675,3.075c2.983,5.121,5.825,10.408,8.442,15.717c1.302,2.643,1.149,5.771-0.405,8.275
		C483.816,153.929,481.081,155.453,478.134,155.458L478.134,155.458z M41.567,141.108c-3.046-0.005-5.859-1.633-7.381-4.272
		c-1.522-2.639-1.523-5.889-0.002-8.528c2.95-5.104,6.133-10.2,9.475-15.15c1.706-2.528,4.631-3.953,7.673-3.74
		c3.042,0.214,5.739,2.034,7.075,4.775c1.336,2.741,1.108,5.987-0.598,8.515c-3.117,4.621-6.092,9.375-8.842,14.133
		C47.441,139.485,44.619,141.112,41.567,141.108L41.567,141.108z M450.559,111.754c-2.621,0.006-5.099-1.196-6.717-3.258
		c-3.392-4.312-7.008-8.596-10.75-12.733c-3.156-3.494-2.885-8.884,0.606-12.044c3.491-3.16,8.881-2.894,12.044,0.594
		c4.008,4.425,7.883,9.012,11.517,13.633c2.019,2.567,2.395,6.062,0.97,9C456.803,109.884,453.825,111.751,450.559,111.754
		L450.559,111.754z M71.967,99.271c-3.37,0-6.423-1.984-7.794-5.062c-1.371-3.078-0.802-6.675,1.453-9.18
		c3.983-4.425,8.142-8.746,12.383-12.85c3.388-3.256,8.771-3.158,12.04,0.218c3.268,3.376,3.191,8.76-0.173,12.04
		c-3.95,3.833-7.842,7.871-11.567,12.008C76.693,98.246,74.386,99.274,71.967,99.271L71.967,99.271z M414.542,74.662
		c-1.999,0.001-3.935-0.703-5.467-1.988c-4.258-3.562-8.683-7.008-13.15-10.25c-2.477-1.786-3.811-4.76-3.498-7.797
		c0.313-3.038,2.226-5.677,5.016-6.919s6.031-0.899,8.499,0.9c4.792,3.471,9.525,7.163,14.083,10.975
		c2.753,2.305,3.769,6.087,2.542,9.461S418.133,74.664,414.542,74.662L414.542,74.662z M110.334,64.608
		c-3.695,0.004-6.973-2.37-8.121-5.882c-1.148-3.512,0.095-7.364,3.079-9.543c4.808-3.508,9.775-6.883,14.767-10.025
		c3.989-2.491,9.242-1.284,11.744,2.697c2.503,3.982,1.313,9.238-2.661,11.753c-4.658,2.929-9.292,6.079-13.783,9.358
		C113.901,64.034,112.141,64.609,110.334,64.608L110.334,64.608z M371.642,45.783c-1.392,0-2.763-0.342-3.992-0.996
		c-4.867-2.583-9.908-5.037-14.992-7.296c-2.795-1.231-4.719-3.861-5.045-6.897c-0.326-3.036,0.994-6.015,3.463-7.811
		c2.469-1.797,5.71-2.137,8.498-0.892c5.458,2.421,10.867,5.05,16.075,7.821c3.462,1.838,5.226,5.799,4.278,9.602
		C378.979,43.118,375.562,45.786,371.642,45.783L371.642,45.783z M154.992,38.637c-4.026,0.002-7.505-2.809-8.349-6.745
		c-0.844-3.936,1.177-7.927,4.849-9.576c5.383-2.421,10.942-4.683,16.508-6.729c4.423-1.625,9.326,0.644,10.95,5.067
		c1.625,4.423-0.644,9.326-5.067,10.95c-5.192,1.908-10.375,4.021-15.408,6.279C157.381,38.38,156.194,38.637,154.992,38.637
		L154.992,38.637z M323.667,26.471c-0.792-0.001-1.58-0.112-2.342-0.329c-5.358-1.525-10.808-2.867-16.175-3.996
		c-2.995-0.614-5.432-2.783-6.39-5.686s-0.288-6.097,1.755-8.372c2.043-2.275,5.146-3.282,8.135-2.642
		c5.758,1.208,11.592,2.646,17.342,4.279c4.093,1.165,6.703,5.168,6.117,9.384C331.524,23.324,327.923,26.465,323.667,26.471
		L323.667,26.471z M204.075,22.545c-4.362-0.006-8.017-3.301-8.475-7.638c-0.458-4.338,2.428-8.323,6.692-9.241
		c5.783-1.238,11.7-2.287,17.584-3.125c3.019-0.429,6.037,0.786,7.918,3.186c1.881,2.4,2.338,5.621,1.2,8.45
		c-1.138,2.829-3.699,4.836-6.718,5.264c-5.492,0.779-11.008,1.758-16.4,2.917C205.284,22.484,204.68,22.547,204.075,22.545
		L204.075,22.545z M272.734,17.629c-0.192,0-0.392-0.004-0.583-0.021c-5.334-0.362-10.714-0.543-16.142-0.542
		c-4.766,0.022-8.675-3.769-8.8-8.533c-0.059-2.236,0.786-4.401,2.343-6.007c1.557-1.606,3.696-2.516,5.932-2.526h0.525
		c5.783,0,11.6,0.196,17.292,0.583c4.59,0.308,8.11,4.199,7.957,8.797S277.334,17.627,272.734,17.629L272.734,17.629z"/>
	<path style="fill:#E4C05C;" d="M469.342,256c0.007,102.617-73.05,190.697-173.899,209.66S94.533,429.094,57.267,333.483
		C47.569,308.804,42.618,282.516,42.675,256c-0.008-56.582,22.465-110.849,62.475-150.859s94.277-62.483,150.859-62.475
		c26.516-0.057,52.804,4.894,77.483,14.592C415.441,89.133,469.398,168.07,469.342,256z"/>
	<path style="fill:#F3D55B;" d="M398.259,202.667c-0.003,80.989-49.919,153.599-125.534,182.608
		c-75.615,29.009-161.288,8.415-215.458-51.792C47.569,308.804,42.618,282.516,42.675,256
		c-0.008-56.582,22.465-110.849,62.475-150.859s94.277-62.483,150.859-62.475c26.516-0.057,52.804,4.894,77.483,14.592
		C374.743,94.337,398.289,147.201,398.259,202.667z"/>
	<circle style="fill:#B19046;" cx="193.784" cy="176" r="44.442"/>
</g>
<g>
</g>
<g>
</g>
<g>
</g>
<g>
</g>
<g>
</g>
<g>
</g>
<g>
</g>
<g>
</g>
<g>
</g>
<g>
</g>
<g>
</g>
<g>
</g>
<g>
</g>
<g>
</g>
<g>
</g>
</svg>
