<?xml version="1.0" encoding="iso-8859-1"?>
<!-- Generator: Adobe Illustrator 19.0.0, SVG Export Plug-In . SVG Version: 6.00 Build 0)  -->
<svg version="1.1" id="Capa_1" xmlns="http://www.w3.org/2000/svg" xmlns:xlink="http://www.w3.org/1999/xlink" x="0px" y="0px"
	 viewBox="0 0 512 512" style="enable-background:new 0 0 512 512;" xml:space="preserve">
<g>
	<path style="fill:#5E5F62;" d="M512,233.931c0,116.966-27.63,211.862-61.793,211.862c-14.566,0-27.983-17.302-38.488-46.168
		l-5.65,2.03H293.694c-4.405,13.833-11.856,26.502-21.804,37.076h-0.088c-4.182,4.272-9.829,6.796-15.801,7.062
		c-3.831-0.017-7.574-1.153-10.77-3.266c-19.874,2.202-39.855,3.293-59.851,3.266C82.979,445.793,0,418.163,0,384
		c0-15.272,16.596-29.308,44.138-39.989V216.276l1.412-3.531C17.214,201.887,0,187.674,0,172.138
		c0-34.163,82.979-61.793,185.379-61.793c6.886,0,13.594,0.088,20.303,0.441c11.211-53.76,29.572-88.717,50.317-88.717
		c14.301,0,27.277,16.508,37.694,44.138h112.375l5.65,2.03c10.505-28.866,23.923-46.168,38.488-46.168
		C484.37,22.069,512,116.966,512,233.931z"/>
	<path style="fill:#A5A5A4;" d="M199.768,145.832c-4.679-0.088-9.446-0.177-14.389-0.177c-73.269,0-122.439,15.095-141.241,26.483
		c18.803,11.388,67.972,26.483,141.241,26.483c3.266,0,6.532,0,9.71-0.088L199.768,145.832z"/>
	<path style="fill:#CC4B4C;" d="M221.308,409.159c-11.211,0.883-23.217,1.324-35.928,1.324c-73.269,0-122.439-15.095-141.241-26.483
		V216.276l1.412-3.531c45.044,15.053,92.348,22.221,139.829,21.186c3.001,0,5.914,0,8.828-0.088v0.088
		c0,8.916,0.177,17.743,0.53,26.394c0.177,6.003,0.441,11.917,0.794,17.655c0.353,6.003,0.794,11.829,1.412,17.567
		c0.441,6.003,1.059,11.829,1.766,17.567c0.618,6.003,1.412,11.829,2.383,17.567c0.794,6.003,1.765,11.829,2.913,17.479
		c1.059,6.091,2.295,12.006,3.619,17.655c1.412,6.091,2.913,11.829,4.502,17.302C214.668,391.972,217.734,400.668,221.308,409.159
		L221.308,409.159z"/>
	<g>
		<path style="fill:#802F34;" d="M212.127,383.117c-0.58,0.138-1.171,0.226-1.766,0.265C202.77,383.823,194.56,384,185.379,384
			c-68.943,0-117.848-12.977-141.241-25.247v-18.891c1.616-0.03,3.208,0.398,4.59,1.236c15.448,9.445,61.617,25.247,136.651,25.247
			c8.21,0,15.537-0.177,22.246-0.53C209.037,371.906,210.538,377.644,212.127,383.117z"/>
		<path style="fill:#802F34;" d="M204.006,348.16c-0.373,0.109-0.759,0.168-1.148,0.177c-5.738,0.265-11.476,0.353-17.479,0.353
			c-68.943,0-117.848-12.977-141.241-25.247v-18.891c1.616-0.03,3.208,0.398,4.59,1.236c15.448,9.446,61.617,25.247,136.651,25.247
			c5.385,0,10.593-0.088,15.713-0.353C201.887,336.684,202.858,342.51,204.006,348.16z"/>
		<path style="fill:#802F34;" d="M198.709,313.115c-0.288,0.073-0.586,0.103-0.883,0.088c-3.972,0.088-8.21,0.177-12.447,0.177
			c-68.943,0-117.848-12.977-141.241-25.247v-18.891c1.616-0.03,3.208,0.398,4.59,1.236c15.448,9.446,61.617,25.247,136.651,25.247
			c3.884,0,7.768-0.088,11.564-0.177C197.385,301.55,198.003,307.377,198.709,313.115z"/>
		<path style="fill:#802F34;" d="M195.531,277.981h-0.177c-3.266,0.088-6.621,0.088-9.975,0.088
			c-68.943,0-117.848-12.977-141.241-25.247v-18.891c1.616-0.03,3.208,0.398,4.59,1.236c15.448,9.446,61.617,25.247,136.651,25.247
			c3.443-0.177,6.268,0,9.357-0.088C194.913,266.328,195.178,272.243,195.531,277.981z"/>
	</g>
	<g>
		<path style="fill:#A5A5A4;" d="M293.694,401.655c-10.417,27.63-23.393,44.138-37.694,44.138
			c-34.163,0-61.793-94.897-61.793-211.862S221.837,22.069,256,22.069c14.301,0,27.277,16.508,37.694,44.138"/>
		<ellipse style="fill:#A5A5A4;" cx="450.207" cy="233.931" rx="61.793" ry="211.862"/>
	</g>
	<path style="fill:#71C285;" d="M388.414,233.931c0,67.09,9.092,126.941,23.305,165.694l-5.65,2.03H256
		c-11.829-24.629-26.483-82.891-26.483-167.724S244.171,90.836,256,66.207h150.069l5.65,2.03
		C397.506,106.99,388.414,166.841,388.414,233.931z"/>
	<g>
		<path style="fill:#4C8056;" d="M308.083,397.859c0.593,1.177,0.895,2.478,0.883,3.796h-18.538
			c-12.182-27.983-25.6-86.952-25.6-167.724s13.418-139.741,25.6-167.724h18.538c0.013,1.318-0.29,2.619-0.883,3.796
			c-11.829,24.629-25.6,82.273-25.6,163.928S296.254,373.23,308.083,397.859z"/>
		<path style="fill:#4C8056;" d="M343.393,397.859c0.593,1.177,0.895,2.478,0.883,3.796h-18.538
			c-12.182-27.983-25.6-86.952-25.6-167.724s13.418-139.741,25.6-167.724h18.538c0.013,1.318-0.29,2.619-0.883,3.796
			c-11.829,24.629-25.6,82.273-25.6,163.928S331.564,373.23,343.393,397.859z"/>
		<path style="fill:#4C8056;" d="M380.91,469.892c-8.651,13.241-23.923,20.039-45.462,20.039c-4.875,0-8.828-3.952-8.828-8.828
			s3.952-8.828,8.828-8.828c15.183,0,25.512-4.061,30.632-12.006c10.24-15.713,1.06-45.021-3.354-54.996
			c-0.53-1.148-1.677-3.619-1.677-3.619c-12.183-27.983-25.601-86.952-25.601-167.724s13.418-139.741,25.6-167.724h18.538
			c0.013,1.318-0.29,2.619-0.883,3.796c-11.829,24.629-25.6,82.273-25.6,163.928c0,80.596,13.418,137.799,25.07,162.957
			c0.257,0.352,0.465,0.739,0.617,1.148c0.035,0.156,0.094,0.305,0.177,0.441C381.175,403.509,397.683,444.116,380.91,469.892z"/>
	</g>
	<path style="fill:#5E5F62;" d="M450.207,401.655c-11.81-24.642-26.483-82.876-26.483-167.724s14.672-143.082,26.483-167.724
		c11.81,24.642,26.483,82.876,26.483,167.724S462.017,377.013,450.207,401.655z"/>
</g>
<g>
</g>
<g>
</g>
<g>
</g>
<g>
</g>
<g>
</g>
<g>
</g>
<g>
</g>
<g>
</g>
<g>
</g>
<g>
</g>
<g>
</g>
<g>
</g>
<g>
</g>
<g>
</g>
<g>
</g>
</svg>
