<?xml version="1.0" encoding="iso-8859-1"?>
<!-- Generator: Adobe Illustrator 19.0.0, SVG Export Plug-In . SVG Version: 6.00 Build 0)  -->
<svg version="1.1" id="Capa_1" xmlns="http://www.w3.org/2000/svg" xmlns:xlink="http://www.w3.org/1999/xlink" x="0px" y="0px"
	 viewBox="0 0 511.835 511.835" style="enable-background:new 0 0 511.835 511.835;" xml:space="preserve">
<g>
	<path style="fill:#CC4B4C;" d="M505.385,131.184c0,0-5.561,5.12-14.83,13.683c-36.458,33.457-129.589,119.437-164.105,153.865
		c-50.229,50.229-195.266,206.654-195.266,206.654c-6.321,7.523-17.494,8.621-25.159,2.472L3.978,405.81
		c-6.149-7.665-5.051-18.837,2.472-25.159c0,0,156.425-145.037,206.654-195.266C247.531,150.869,333.512,57.738,366.969,21.28
		c8.563-9.269,13.683-14.83,13.683-14.83c6.322-7.523,17.494-8.62,25.159-2.472l102.047,102.047
		C514.006,113.69,512.908,124.862,505.385,131.184z"/>
	<path style="fill:#802F34;" d="M505.385,131.184c0,0-5.561,5.12-14.83,13.683v-0.088L367.057,21.28h-0.088
		c8.563-9.269,13.683-14.83,13.683-14.83c6.322-7.523,17.494-8.62,25.159-2.472l102.047,102.047
		C514.006,113.69,512.908,124.862,505.385,131.184z"/>
	<g>
		<polygon style="fill:#FB7B76;" points="349.49,219.106 241.705,326.803 185.032,270.13 292.729,162.345 		"/>
		<circle style="fill:#FB7B76;" cx="139.648" cy="372.103" r="32.071"/>
	</g>
	<path style="fill:#E6E7E8;" d="M247.413,273.249c-3.57-0.001-6.788-2.152-8.154-5.45c-1.366-3.298-0.611-7.094,1.913-9.619
		l45.353-45.354c3.447-3.447,9.036-3.447,12.483,0c3.447,3.447,3.447,9.036,0,12.483l-45.353,45.353
		C252.001,272.322,249.755,273.252,247.413,273.249L247.413,273.249z"/>
	<g>
		<path style="fill:#802D40;" d="M349.49,219.106l-56.761-56.761c10.139-10.139,24.918-14.099,38.769-10.388
			c13.851,3.711,24.669,14.53,28.381,28.381C363.589,194.188,359.63,208.967,349.49,219.106z"/>
		<path style="fill:#802D40;" d="M241.705,326.803c-15.661,15.582-40.98,15.551-56.602-0.071
			c-15.622-15.622-15.654-40.94-0.071-56.602L241.705,326.803z"/>
	</g>
</g>
<g>
</g>
<g>
</g>
<g>
</g>
<g>
</g>
<g>
</g>
<g>
</g>
<g>
</g>
<g>
</g>
<g>
</g>
<g>
</g>
<g>
</g>
<g>
</g>
<g>
</g>
<g>
</g>
<g>
</g>
</svg>
