<?xml version="1.0" encoding="iso-8859-1"?>
<!-- Generator: Adobe Illustrator 19.0.0, SVG Export Plug-In . SVG Version: 6.00 Build 0)  -->
<svg version="1.1" id="Capa_1" xmlns="http://www.w3.org/2000/svg" xmlns:xlink="http://www.w3.org/1999/xlink" x="0px" y="0px"
	 viewBox="0 0 512 512" style="enable-background:new 0 0 512 512;" xml:space="preserve">
<g>
	<circle style="fill:#7F8C8D;" cx="256" cy="256" r="256"/>
	<circle style="fill:#802D40;" cx="256" cy="256" r="203.034"/>
	<circle style="fill:#D75E72;" cx="258.472" cy="256.971" r="166.462"/>
	<g>
		<path style="fill:#BDC3C7;" d="M426.814,146.361l-109.374,74.77h-0.088c-6.233-11.088-15.395-20.25-26.483-26.483v-0.088
			l74.77-109.374C390.205,100.925,411.075,121.795,426.814,146.361L426.814,146.361z"/>
		<path style="fill:#BDC3C7;" d="M459.034,256c0.02,14.546-1.549,29.05-4.679,43.255l-130.295-24.452
			c3.413-12.303,3.413-25.303,0-37.606l130.295-24.452C457.485,226.95,459.054,241.454,459.034,256L459.034,256z"/>
		<path style="fill:#BDC3C7;" d="M426.814,365.639c-15.739,24.567-36.608,45.436-61.175,61.175l-74.77-109.374v-0.088
			c11.088-6.233,20.25-15.395,26.483-26.483h0.088L426.814,365.639z"/>
		<path style="fill:#BDC3C7;" d="M299.255,454.356c-28.499,6.238-58.011,6.238-86.51,0l24.452-130.295
			c12.303,3.414,25.303,3.414,37.606,0L299.255,454.356z"/>
		<path style="fill:#BDC3C7;" d="M221.131,317.352v0.088l-74.77,109.374c-24.567-15.739-45.436-36.608-61.175-61.175l109.374-74.77
			h0.088C200.881,301.957,210.043,311.119,221.131,317.352L221.131,317.352z"/>
		<path style="fill:#BDC3C7;" d="M185.379,256c-0.01,6.355,0.852,12.682,2.56,18.803L57.644,299.255
			c-6.239-28.499-6.239-58.011,0-86.51l130.295,24.452C186.231,243.318,185.37,249.645,185.379,256L185.379,256z"/>
		<path style="fill:#BDC3C7;" d="M221.131,194.56v0.088c-11.088,6.233-20.25,15.395-26.483,26.483h-0.088l-109.374-74.77
			c15.739-24.567,36.608-45.436,61.175-61.175L221.131,194.56z"/>
		<path style="fill:#BDC3C7;" d="M299.255,57.644l-24.452,130.295c-12.303-3.413-25.303-3.413-37.606,0L212.745,57.644
			C241.244,51.406,270.756,51.406,299.255,57.644L299.255,57.644z"/>
	</g>
	<path style="fill:#5E5F62;" d="M324.061,237.197c-1.499-5.634-3.756-11.039-6.709-16.066c-6.233-11.088-15.395-20.25-26.483-26.483
		c-5.027-2.953-10.432-5.21-16.066-6.709c-12.303-3.413-25.303-3.413-37.606,0c-5.634,1.499-11.039,3.756-16.066,6.709
		c-11.088,6.233-20.25,15.395-26.483,26.483c-2.953,5.027-5.21,10.432-6.709,16.066c-3.413,12.303-3.413,25.303,0,37.606
		c1.499,5.634,3.756,11.039,6.709,16.066c6.233,11.088,15.395,20.25,26.483,26.483c5.027,2.953,10.432,5.21,16.066,6.709
		c12.303,3.414,25.303,3.414,37.606,0c5.634-1.499,11.039-3.756,16.066-6.709c11.088-6.233,20.25-15.395,26.483-26.483
		c2.953-5.027,5.21-10.432,6.709-16.066C327.474,262.5,327.474,249.5,324.061,237.197L324.061,237.197z M256,291.31
		c-19.501,0-35.31-15.809-35.31-35.31s15.809-35.31,35.31-35.31s35.31,15.809,35.31,35.31c0.003,9.366-3.717,18.348-10.339,24.971
		S265.366,291.313,256,291.31L256,291.31z"/>
	<circle style="fill:#802D40;" cx="256" cy="256" r="35.31"/>
</g>
<g>
</g>
<g>
</g>
<g>
</g>
<g>
</g>
<g>
</g>
<g>
</g>
<g>
</g>
<g>
</g>
<g>
</g>
<g>
</g>
<g>
</g>
<g>
</g>
<g>
</g>
<g>
</g>
<g>
</g>
</svg>
