<?xml version="1.0" encoding="UTF-8" standalone="no"?>
<!-- Generator: Adobe Illustrator 19.0.0, SVG Export Plug-In . SVG Version: 6.00 Build 0)  -->

<svg
   xmlns:dc="http://purl.org/dc/elements/1.1/"
   xmlns:cc="http://creativecommons.org/ns#"
   xmlns:rdf="http://www.w3.org/1999/02/22-rdf-syntax-ns#"
   xmlns:svg="http://www.w3.org/2000/svg"
   xmlns="http://www.w3.org/2000/svg"
   xmlns:sodipodi="http://sodipodi.sourceforge.net/DTD/sodipodi-0.dtd"
   xmlns:inkscape="http://www.inkscape.org/namespaces/inkscape"
   version="1.1"
   id="Capa_1"
   x="0px"
   y="0px"
   viewBox="0 0 512 512"
   style="enable-background:new 0 0 512 512;"
   xml:space="preserve"
   inkscape:version="0.91 r13725"
   sodipodi:docname="engineering.svg"><metadata
     id="metadata95"><rdf:RDF><cc:Work
         rdf:about=""><dc:format>image/svg+xml</dc:format><dc:type
           rdf:resource="http://purl.org/dc/dcmitype/StillImage" /></cc:Work></rdf:RDF></metadata><defs
     id="defs93" /><sodipodi:namedview
     pagecolor="#ffffff"
     bordercolor="#666666"
     borderopacity="1"
     objecttolerance="10"
     gridtolerance="10"
     guidetolerance="10"
     inkscape:pageopacity="0"
     inkscape:pageshadow="2"
     inkscape:window-width="1024"
     inkscape:window-height="1234"
     id="namedview91"
     showgrid="false"
     inkscape:zoom="0.4609375"
     inkscape:cx="260.33898"
     inkscape:cy="256"
     inkscape:window-x="0"
     inkscape:window-y="0"
     inkscape:window-maximized="1"
     inkscape:current-layer="g3" /><g
     id="g3"><path
       style="fill:#E4C05C;"
       d="M512,432.552v70.621c-0.014,4.869-3.958,8.813-8.828,8.828H8.828   c-2.928-0.03-5.66-1.478-7.328-3.884c-0.994-1.456-1.517-3.181-1.5-4.943V8.828C0.015,3.958,3.959,0.014,8.828,0h70.621   c4.869,0.014,8.813,3.958,8.828,8.828v406.069c-0.023,2.348,0.9,4.607,2.56,6.267c1.66,1.66,3.919,2.583,6.267,2.56h406.069   C508.042,423.738,511.986,427.682,512,432.552z"
       id="path5" /><path
       style="fill:#F3D55B;"
       d="M90.836,421.164l-2.56,2.56L5.121,506.88L1.5,508.116c-0.994-1.456-1.517-3.181-1.5-4.943V8.828   C0.015,3.958,3.959,0.014,8.828,0h70.621c4.869,0.014,8.813,3.958,8.828,8.828v406.069   C88.276,417.24,89.196,419.491,90.836,421.164L90.836,421.164z"
       id="path7" /><g
       id="g9"><path
         style="fill:#B19046;"
         d="M88.276,35.311v17.655H44.138c-4.875,0-8.828-3.952-8.828-8.828s3.952-8.828,8.828-8.828H88.276z"
         id="path11" /><path
         style="fill:#B19046;"
         d="M88.276,211.862v17.655H44.138c-4.875,0-8.828-3.952-8.828-8.828s3.952-8.828,8.828-8.828H88.276z"
         id="path13" /><path
         style="fill:#B19046;"
         d="M88.276,388.414v17.655H44.138c-4.875,0-8.828-3.952-8.828-8.828s3.952-8.828,8.828-8.828H88.276z"
         id="path15" /><path
         style="fill:#B19046;"
         d="M88.276,70.621v17.655H61.794c-4.875,0-8.828-3.952-8.828-8.828c0-4.875,3.952-8.828,8.828-8.828    H88.276z"
         id="path17" /><path
         style="fill:#B19046;"
         d="M88.276,105.931v17.655H61.794c-4.875,0-8.828-3.952-8.828-8.828s3.952-8.828,8.828-8.828H88.276z"
         id="path19" /><path
         style="fill:#B19046;"
         d="M88.276,141.242v17.655H61.794c-4.875,0-8.828-3.952-8.828-8.828s3.952-8.828,8.828-8.828H88.276z"
         id="path21" /><path
         style="fill:#B19046;"
         d="M88.276,176.552v17.655H61.794c-4.875,0-8.828-3.952-8.828-8.828s3.952-8.828,8.828-8.828H88.276z"
         id="path23" /><path
         style="fill:#B19046;"
         d="M88.276,247.173v17.655H61.794c-4.875,0-8.828-3.952-8.828-8.828c0-4.875,3.952-8.828,8.828-8.828    H88.276z"
         id="path25" /><path
         style="fill:#B19046;"
         d="M88.276,282.483v17.655H61.794c-4.875,0-8.828-3.952-8.828-8.828s3.952-8.828,8.828-8.828H88.276z"
         id="path27" /><path
         style="fill:#B19046;"
         d="M88.276,317.793v17.655H61.794c-4.875,0-8.828-3.952-8.828-8.828c0-4.875,3.952-8.828,8.828-8.828    H88.276z"
         id="path29" /><path
         style="fill:#B19046;"
         d="M88.276,353.104v17.655H61.794c-4.875,0-8.828-3.952-8.828-8.828s3.952-8.828,8.828-8.828H88.276z"
         id="path31" /><path
         style="fill:#B19046;"
         d="M123.587,423.724v44.138c0,4.875-3.952,8.828-8.828,8.828s-8.828-3.952-8.828-8.828v-44.138    H123.587z"
         id="path33" /><path
         style="fill:#B19046;"
         d="M300.138,423.724v44.138c0,4.875-3.952,8.828-8.828,8.828s-8.828-3.952-8.828-8.828v-44.138    H300.138z"
         id="path35" /><path
         style="fill:#B19046;"
         d="M476.69,423.724v44.138c0,4.875-3.952,8.828-8.828,8.828s-8.828-3.952-8.828-8.828v-44.138H476.69z    "
         id="path37" /><path
         style="fill:#B19046;"
         d="M158.897,423.724v26.483c0,4.875-3.952,8.828-8.828,8.828s-8.828-3.952-8.828-8.828v-26.483    H158.897z"
         id="path39" /><path
         style="fill:#B19046;"
         d="M194.207,423.724v26.483c0,4.875-3.952,8.828-8.828,8.828c-4.875,0-8.828-3.952-8.828-8.828    v-26.483H194.207z"
         id="path41" /><path
         style="fill:#B19046;"
         d="M229.518,423.724v26.483c0,4.875-3.952,8.828-8.828,8.828s-8.828-3.952-8.828-8.828v-26.483    H229.518z"
         id="path43" /><path
         style="fill:#B19046;"
         d="M264.828,423.724v26.483c0,4.875-3.952,8.828-8.828,8.828c-4.875,0-8.828-3.952-8.828-8.828    v-26.483H264.828z"
         id="path45" /><path
         style="fill:#B19046;"
         d="M335.449,423.724v26.483c0,4.875-3.952,8.828-8.828,8.828s-8.828-3.952-8.828-8.828v-26.483    H335.449z"
         id="path47" /><path
         style="fill:#B19046;"
         d="M370.759,423.724v26.483c0,4.875-3.952,8.828-8.828,8.828s-8.828-3.952-8.828-8.828v-26.483    H370.759z"
         id="path49" /><path
         style="fill:#B19046;"
         d="M406.069,423.724v26.483c0,4.875-3.952,8.828-8.828,8.828s-8.828-3.952-8.828-8.828v-26.483    H406.069z"
         id="path51" /><path
         style="fill:#B19046;"
         d="M441.38,423.724v26.483c0,4.875-3.952,8.828-8.828,8.828s-8.828-3.952-8.828-8.828v-26.483H441.38z    "
         id="path53" /></g><polygon
       style="fill:#146edc;fill-opacity:1"
       points="512,88.276 512,264.828 344.276,353.104 176.552,264.828 176.552,88.276 344.276,0  "
       id="polygon55" /><path
       style="fill:#1464cc;fill-opacity:1"
       d="M344.276,189.264v163.84l-167.724-88.276V93.396l163.31,94.632   C341.203,188.813,342.723,189.239,344.276,189.264z"
       id="path57" /><path
       style="fill:#00a6fc;fill-opacity:1"
       d="M512,88.276v5.12l-163.31,94.632c-2.712,1.648-6.116,1.648-8.828,0l-163.31-94.632v-5.12L344.276,0   L512,88.276z"
       id="path59" /></g><g
     id="g61" /><g
     id="g63" /><g
     id="g65" /><g
     id="g67" /><g
     id="g69" /><g
     id="g71" /><g
     id="g73" /><g
     id="g75" /><g
     id="g77" /><g
     id="g79" /><g
     id="g81" /><g
     id="g83" /><g
     id="g85" /><g
     id="g87" /><g
     id="g89" /></svg>