<?xml version="1.0" encoding="iso-8859-1"?>
<!-- Generator: Adobe Illustrator 19.0.0, SVG Export Plug-In . SVG Version: 6.00 Build 0)  -->
<svg version="1.1" id="Capa_1" xmlns="http://www.w3.org/2000/svg" xmlns:xlink="http://www.w3.org/1999/xlink" x="0px" y="0px"
	 viewBox="0 0 512 512" style="enable-background:new 0 0 512 512;" xml:space="preserve">
<g>
	<rect x="229.517" y="406.069" style="fill:#95A5A5;" width="52.966" height="83.2"/>
	<g>
		<path style="fill:#2C3E50;" d="M503.172,406.069v97.103c-0.015,4.869-3.958,8.813-8.828,8.828H17.655
			c-4.869-0.015-8.813-3.958-8.828-8.828v-97.103h35.31v61.793c0.015,4.869,3.958,8.813,8.828,8.828h406.069
			c4.869-0.015,8.813-3.958,8.828-8.828v-61.793H503.172z"/>
		<path style="fill:#2C3E50;" d="M485.517,17.655v370.759h-35.31V44.138c0-4.875-3.952-8.828-8.828-8.828H70.621
			c-4.875,0-8.828,3.952-8.828,8.828v344.276h-35.31V17.655C26.511,7.916,34.399,0.029,44.138,0h423.724
			C477.601,0.029,485.489,7.916,485.517,17.655z"/>
		<rect x="238.345" y="17.655" style="fill:#2C3E50;" width="35.31" height="335.448"/>
	</g>
	<g>
		<rect x="238.345" y="211.862" style="fill:#35495E;" width="35.31" height="17.655"/>
		<rect x="238.345" y="247.172" style="fill:#35495E;" width="35.31" height="17.655"/>
	</g>
	<ellipse style="fill:#95A5A5;" cx="256" cy="132.414" rx="132.414" ry="52.966"/>
	<g>
		<circle style="fill:#2C3E50;" cx="256" cy="132.414" r="17.655"/>
		<path style="fill:#2C3E50;" d="M317.793,141.241c-4.163-0.041-7.72-3.011-8.502-7.1s1.427-8.162,5.281-9.736
			c3.854-1.574,8.283-0.213,10.588,3.255c2.304,3.467,1.844,8.078-1.1,11.022C322.368,140.293,320.13,141.207,317.793,141.241z"/>
		<path style="fill:#2C3E50;" d="M194.207,141.241c-3.569-0.014-6.782-2.168-8.151-5.464c-1.369-3.297-0.626-7.093,1.883-9.631
			c2.582-2.42,6.324-3.143,9.621-1.858c1.07,0.449,2.056,1.077,2.915,1.858c3.414,3.481,3.414,9.054,0,12.534
			c-0.86,0.778-1.845,1.405-2.914,1.854C196.5,140.987,195.36,141.227,194.207,141.241L194.207,141.241z"/>
		<path style="fill:#2C3E50;" d="M414.897,353.103L414.897,353.103c0-9.751-7.904-17.655-17.655-17.655H114.759
			c-9.751,0-17.655,7.905-17.655,17.655l0,0c0,9.751,7.904,17.655,17.655,17.655l1.858,17.655l282.842,0.486l-2.218-18.141
			C406.992,370.759,414.897,362.854,414.897,353.103z"/>
	</g>
	<rect x="238.345" y="282.483" style="fill:#35495E;" width="35.31" height="17.655"/>
	<path style="fill:#7F8C8D;" d="M8.828,370.759h494.345c4.875,0,8.828,3.952,8.828,8.828v35.31c0,4.875-3.952,8.828-8.828,8.828
		H8.828c-4.875,0-8.828-3.952-8.828-8.828v-35.31C0,374.711,3.952,370.759,8.828,370.759z"/>
</g>
<g>
</g>
<g>
</g>
<g>
</g>
<g>
</g>
<g>
</g>
<g>
</g>
<g>
</g>
<g>
</g>
<g>
</g>
<g>
</g>
<g>
</g>
<g>
</g>
<g>
</g>
<g>
</g>
<g>
</g>
</svg>
