<?xml version="1.0" encoding="iso-8859-1"?>
<!-- Generator: Adobe Illustrator 19.0.0, SVG Export Plug-In . SVG Version: 6.00 Build 0)  -->
<svg version="1.1" id="Capa_1" xmlns="http://www.w3.org/2000/svg" xmlns:xlink="http://www.w3.org/1999/xlink" x="0px" y="0px"
	 viewBox="0 0 512 512" style="enable-background:new 0 0 512 512;" xml:space="preserve">
<g>
	<path style="fill:#B0D3F0;" d="M17.655,123.586h476.69c9.751,0,17.655,7.904,17.655,17.655v229.517
		c0,9.751-7.905,17.655-17.655,17.655H17.655C7.904,388.414,0,380.509,0,370.759V141.241C0,131.491,7.904,123.586,17.655,123.586z"
		/>
	<g>
		<path style="fill:#ECF0F1;" d="M141.241,167.724H35.31c-4.875,0-8.828-3.952-8.828-8.828c0-4.875,3.952-8.828,8.828-8.828h105.931
			c4.875,0,8.828,3.952,8.828,8.828C150.069,163.772,146.117,167.724,141.241,167.724z"/>
		<path style="fill:#ECF0F1;" d="M476.69,361.931H370.759c-4.875,0-8.828-3.952-8.828-8.828s3.952-8.828,8.828-8.828H476.69
			c4.875,0,8.828,3.952,8.828,8.828S481.565,361.931,476.69,361.931z"/>
		<path style="fill:#ECF0F1;" d="M114.759,194.207H35.31c-4.875,0-8.828-3.952-8.828-8.828c0-4.875,3.952-8.828,8.828-8.828h79.448
			c4.875,0,8.828,3.952,8.828,8.828C123.586,190.255,119.634,194.207,114.759,194.207z"/>
		<path style="fill:#ECF0F1;" d="M476.69,335.448h-79.448c-4.875,0-8.828-3.952-8.828-8.828s3.952-8.828,8.828-8.828h79.448
			c4.875,0,8.828,3.952,8.828,8.828S481.565,335.448,476.69,335.448z"/>
		<path style="fill:#ECF0F1;" d="M79.448,220.69H35.31c-4.875,0-8.828-3.952-8.828-8.828c0-4.875,3.952-8.828,8.828-8.828h44.138
			c4.875,0,8.828,3.952,8.828,8.828C88.276,216.737,84.324,220.69,79.448,220.69z"/>
		<path style="fill:#ECF0F1;" d="M476.69,308.966h-44.138c-4.875,0-8.828-3.952-8.828-8.828s3.952-8.828,8.828-8.828h44.138
			c4.875,0,8.828,3.952,8.828,8.828S481.565,308.966,476.69,308.966z"/>
	</g>
	<polygon style="fill:#35495E;" points="256,256.53 256,326.444 255.647,326.621 194.207,291.046 194.56,221.661 	"/>
	<polygon style="fill:#84B5CB;" points="317.793,220.954 317.793,221.484 256,256.53 194.56,221.661 194.56,220.425 
		256.353,185.379 	"/>
	<polygon style="fill:#547580;" points="317.793,221.484 317.44,291.575 256,326.444 256,256.53 	"/>
</g>
<g>
</g>
<g>
</g>
<g>
</g>
<g>
</g>
<g>
</g>
<g>
</g>
<g>
</g>
<g>
</g>
<g>
</g>
<g>
</g>
<g>
</g>
<g>
</g>
<g>
</g>
<g>
</g>
<g>
</g>
</svg>
