<?xml version="1.0" encoding="iso-8859-1"?>
<!-- Generator: Adobe Illustrator 19.0.0, SVG Export Plug-In . SVG Version: 6.00 Build 0)  -->
<svg version="1.1" id="Capa_1" xmlns="http://www.w3.org/2000/svg" xmlns:xlink="http://www.w3.org/1999/xlink" x="0px" y="0px"
	 viewBox="0 0 512 512" style="enable-background:new 0 0 512 512;" xml:space="preserve">
<g>
	<path style="fill:#35495E;" d="M44.138,83.862h423.724c9.751,0,17.655,7.904,17.655,17.655v300.138H26.483V101.517
		C26.483,91.766,34.387,83.862,44.138,83.862z"/>
	<path style="fill:#7F8C8D;" d="M6.194,404.742c-10.922-5.96-6.567-20.523,6.558-20.739c0.122-0.002,0.245-0.003,0.368-0.003
		h485.345c13.432,0.11,18.611,14.366,7.434,20.465l-38.857,21.202c-3.067,1.64-6.494,2.489-9.971,2.471H53.262
		c-2.678,0.014-5.316-0.64-7.678-1.903L6.194,404.742z"/>
	<path style="fill:#BDC3C7;" d="M202.83,384l15.034,37.586c1.637,4.093,4.393,6.552,7.345,6.552h61.172
		c2.952,0,5.708-2.458,7.345-6.552L308.762,384H202.83z"/>
	<polygon style="fill:#3B97D3;" points="185.176,198.665 154.377,225.192 92.796,225.192 61.996,198.665 92.796,172.138 
		154.377,172.138 	"/>
	<g>
		<polygon style="fill:#285680;" points="96.212,225.192 96.212,318.031 92.796,318.031 61.996,291.504 61.996,198.665 
			92.796,225.192 		"/>
		<polygon style="fill:#285680;" points="185.176,198.665 185.176,291.504 154.377,318.031 150.961,318.031 150.961,225.192 
			154.377,225.192 		"/>
	</g>
	<rect x="92.796" y="225.192" style="fill:#4482C3;" width="61.308" height="92.84"/>
	<rect x="326.621" y="163.31" style="fill:#E6E7E8;" width="88.276" height="52.966"/>
	<g>
		<path style="fill:#95A5A5;" d="M262.241,245.345l-17.655-17.655c-3.456-3.394-9.001-3.369-12.426,0.056
			c-3.425,3.425-3.45,8.97-0.056,12.426l2.587,2.586H220.69c-4.875,0-8.828,3.952-8.828,8.828c0,4.875,3.952,8.828,8.828,8.828h14
			L232.103,263c-2.253,2.225-3.142,5.487-2.328,8.547c0.813,3.06,3.204,5.451,6.264,6.264c3.061,0.813,6.322-0.076,8.547-2.329
			l17.655-17.655c1.656-1.655,2.586-3.9,2.586-6.241S263.897,247,262.241,245.345z"/>
		<path style="fill:#95A5A5;" d="M308.966,216.276h123.586c9.751,0,17.655,7.904,17.655,17.655v61.793
			c0,9.751-7.905,17.655-17.655,17.655H308.966c-9.751,0-17.655-7.904-17.655-17.655v-61.793
			C291.31,224.18,299.215,216.276,308.966,216.276z"/>
	</g>
	<g>
		<path style="fill:#5E5F62;" d="M414.897,260.448c-2.337,0.009-4.582-0.912-6.239-2.561c-1.656-1.649-2.588-3.89-2.589-6.227
			v-0.073c0.019-4.871,3.98-8.806,8.851-8.793c4.871,0.013,8.811,3.968,8.805,8.839
			C423.718,256.503,419.767,260.448,414.897,260.448z"/>
		<path style="fill:#5E5F62;" d="M379.586,260.448c-2.337,0.009-4.582-0.912-6.239-2.561c-1.656-1.649-2.588-3.89-2.589-6.227
			v-0.073c0.019-4.871,3.98-8.806,8.851-8.793c4.871,0.013,8.811,3.968,8.805,8.839
			C388.407,256.503,384.457,260.448,379.586,260.448z"/>
		<path style="fill:#5E5F62;" d="M414.897,286.896h-88.276c-4.875,0-8.828-3.952-8.828-8.828s3.952-8.828,8.828-8.828h88.276
			c4.875,0,8.828,3.952,8.828,8.828S419.772,286.896,414.897,286.896z"/>
	</g>
</g>
<g>
</g>
<g>
</g>
<g>
</g>
<g>
</g>
<g>
</g>
<g>
</g>
<g>
</g>
<g>
</g>
<g>
</g>
<g>
</g>
<g>
</g>
<g>
</g>
<g>
</g>
<g>
</g>
<g>
</g>
</svg>
