<?xml version="1.0" encoding="iso-8859-1"?>
<!-- Generator: Adobe Illustrator 19.0.0, SVG Export Plug-In . SVG Version: 6.00 Build 0)  -->
<svg version="1.1" id="Capa_1" xmlns="http://www.w3.org/2000/svg" xmlns:xlink="http://www.w3.org/1999/xlink" x="0px" y="0px"
	 viewBox="0 0 512 512" style="enable-background:new 0 0 512 512;" xml:space="preserve">
<g>
	<polygon style="fill:#95A5A5;" points="414.897,167.724 414.897,344.276 256,432.552 97.103,344.276 97.103,167.724 256,79.448 	
		"/>
	<g>
		<polygon style="fill:#BDC3C7;" points="176.552,211.862 176.552,300.138 97.103,256 97.103,167.724 		"/>
		<polygon style="fill:#BDC3C7;" points="335.448,123.586 256,167.724 176.552,123.586 256,79.448 		"/>
		<polygon style="fill:#BDC3C7;" points="335.448,211.862 256,256 176.552,211.862 256,167.724 		"/>
	</g>
	<g>
		<polygon style="fill:#7F8C8D;" points="414.897,167.724 414.897,256 335.448,300.138 335.448,211.862 		"/>
		<polygon style="fill:#7F8C8D;" points="176.552,300.138 176.552,388.414 97.103,344.276 97.103,256 		"/>
	</g>
	<polygon style="fill:#BDC3C7;" points="256,344.276 256,432.552 176.552,388.414 176.552,300.138 	"/>
	<g>
		<polygon style="fill:#7F8C8D;" points="256,256 256,344.276 176.552,300.138 176.552,211.862 		"/>
		<polygon style="fill:#7F8C8D;" points="335.448,300.138 335.448,388.414 256,432.552 256,344.276 		"/>
	</g>
	<g>
		<circle style="fill:#285680;" cx="467.862" cy="141.241" r="26.483"/>
		<circle style="fill:#285680;" cx="467.862" cy="370.759" r="26.483"/>
		<circle style="fill:#285680;" cx="256" cy="485.517" r="26.483"/>
		<circle style="fill:#285680;" cx="44.138" cy="370.759" r="26.483"/>
		<circle style="fill:#285680;" cx="44.138" cy="141.241" r="26.483"/>
		<circle style="fill:#285680;" cx="256" cy="26.483" r="26.483"/>
	</g>
</g>
<g>
</g>
<g>
</g>
<g>
</g>
<g>
</g>
<g>
</g>
<g>
</g>
<g>
</g>
<g>
</g>
<g>
</g>
<g>
</g>
<g>
</g>
<g>
</g>
<g>
</g>
<g>
</g>
<g>
</g>
</svg>
