<?xml version="1.0" encoding="iso-8859-1"?>
<!-- Generator: Adobe Illustrator 19.0.0, SVG Export Plug-In . SVG Version: 6.00 Build 0)  -->
<svg version="1.1" id="Capa_1" xmlns="http://www.w3.org/2000/svg" xmlns:xlink="http://www.w3.org/1999/xlink" x="0px" y="0px"
	 viewBox="0 0 512.089 512.089" style="enable-background:new 0 0 512.089 512.089;" xml:space="preserve">
<g transform="translate(-1 -1)">
	<path style="fill:#7F8C8D;" d="M467.538,362.088c28.69,10.681,45.374,23.672,45.462,38.01
		c0.177,37.24-114.229,67.937-255.647,68.803C115.936,469.67,1.177,440.225,1,402.985c-0.088-14.434,17.126-27.906,46.433-39.068
		L467.538,362.088z"/>
	<path style="fill:#802D40;" d="M452.796,230.923l0.441,0.441c9.009,5.963,14.797,15.718,15.713,26.483
		c-1.024,11.167-7.192,21.219-16.684,27.189l0.971,0.971c8.967,5.758,14.768,15.339,15.713,25.953
		c-0.913,10.51-6.61,20.016-15.448,25.777c8.881,5.882,14.575,15.513,15.448,26.13c0,38.577-94.897,69.738-211.862,69.738
		S45.227,402.443,45.227,363.867c0.873-10.617,6.567-20.247,15.448-26.13c-8.838-5.76-14.535-15.266-15.448-25.777
		c0.945-10.615,6.746-20.195,15.713-25.953l0.971-0.971c-9.492-5.97-15.66-16.022-16.684-27.189
		c0.916-10.765,6.704-20.52,15.713-26.483l0.441-0.441c-9.269-6.147-15.219-16.195-16.154-27.277
		c0.851-10.742,6.534-20.517,15.448-26.571c-8.927-6.123-14.606-15.955-15.448-26.748c-0.024-2.778,0.485-5.535,1.501-8.121v-0.088
		H467.45v0.088c1.016,2.586,1.525,5.343,1.501,8.121c-0.842,10.792-6.521,20.625-15.448,26.748
		c8.914,6.054,14.597,15.829,15.448,26.571C468.036,214.735,462.081,224.791,452.796,230.923z"/>
	<g>
		<path style="fill:#D75E72;" d="M60.94,337.472l-0.265,0.265"/>
		<path style="fill:#D75E72;" d="M453.502,337.737l-0.265-0.265"/>
	</g>
	<g>
		<path style="fill:#802D40;" d="M60.94,176.81l-0.265,0.265"/>
		<path style="fill:#802D40;" d="M453.502,177.075l-0.265-0.265"/>
	</g>
	<path style="fill:#D75E72;" d="M453.238,337.446c9.011,5.925,14.804,15.66,15.713,26.406c0,38.563-94.897,69.753-211.862,69.753
		S45.227,402.415,45.227,363.852c0.909-10.746,6.702-20.481,15.713-26.406"/>
	<path style="fill:#802D40;" d="M453.238,286.012c8.975,5.765,14.777,15.36,15.713,25.986c0,37.949-94.897,68.641-211.862,68.641
		S45.227,349.947,45.227,311.998c0.936-10.626,6.738-20.22,15.713-25.986"/>
	<path style="fill:#D75E72;" d="M453.238,231.393c9.014,5.938,14.806,15.684,15.713,26.44c0,38.612-94.897,69.841-211.862,69.841
		S45.227,296.445,45.227,257.833c0.907-10.756,6.699-20.502,15.713-26.44"/>
	<path style="fill:#802D40;" d="M453.238,176.773c9.052,6.111,14.834,16.007,15.713,26.894c0,39.276-94.897,71.041-211.862,71.041
		S45.227,242.943,45.227,203.667c0.879-10.887,6.661-20.783,15.713-26.894"/>
	<path style="fill:#D75E72;" d="M467.45,142.104v0.102c1.017,2.598,1.526,5.367,1.501,8.158c0,39.462-94.897,71.379-211.862,71.379
		S45.227,189.826,45.227,150.364c-0.026-2.79,0.484-5.559,1.501-8.158v-0.102H467.45z"/>
	<ellipse style="fill:#7F8C8D;" cx="257.089" cy="106.966" rx="256" ry="61.793"/>
	<ellipse style="fill:#BDC3C7;" cx="257.089" cy="106.984" rx="123.586" ry="26.483"/>
</g>
<g>
</g>
<g>
</g>
<g>
</g>
<g>
</g>
<g>
</g>
<g>
</g>
<g>
</g>
<g>
</g>
<g>
</g>
<g>
</g>
<g>
</g>
<g>
</g>
<g>
</g>
<g>
</g>
<g>
</g>
</svg>
