<?xml version="1.0" encoding="iso-8859-1"?>
<!-- Generator: Adobe Illustrator 19.0.0, SVG Export Plug-In . SVG Version: 6.00 Build 0)  -->
<svg version="1.1" id="Capa_1" xmlns="http://www.w3.org/2000/svg" xmlns:xlink="http://www.w3.org/1999/xlink" x="0px" y="0px"
	 viewBox="0 0 512 512" style="enable-background:new 0 0 512 512;" xml:space="preserve">
<g>
	<path style="fill:#CC4B4C;" d="M446.136,509.674l-53.651-30.658c-2.668-1.524-5.687-2.326-8.759-2.326H120.104
		c-3.486,0-6.893,1.032-9.793,2.965l-44.07,29.38c-2.9,1.933-6.308,2.965-9.793,2.965H17.655C7.904,512,0,504.095,0,494.345V17.655
		C0,7.904,7.904,0,17.655,0h476.69C504.095,0,512,7.904,512,17.655v476.69c0,9.751-7.905,17.655-17.655,17.655h-39.449
		C451.823,512,448.804,511.198,446.136,509.674z"/>
	<path style="fill:#B0D3F0;" d="M467.862,156.954v160.839c-0.029,9.739-7.916,17.627-17.655,17.655H335.448
		c-9.739,0.028-17.627,7.916-17.655,17.655v70.621c-0.029,9.739-7.916,17.627-17.655,17.655H130.913
		c-4.704-0.002-9.214-1.876-12.535-5.208l-69.032-69.032c-3.332-3.321-5.206-7.831-5.208-12.535v-197.65
		c0.009-4.419,1.679-8.673,4.679-11.917l27.719-30.279l32.397-35.31l27.101-29.572c3.327-3.651,8.037-5.734,12.977-5.738H362.99
		c4.94,0.004,9.65,2.087,12.977,5.738l27.101,29.572l32.397,35.31l27.719,30.279C466.183,148.282,467.853,152.536,467.862,156.954z"
		/>
	<g>
		<path style="fill:#FB7B76;" d="M35.31,114.759c-3.463-0.002-6.605-2.028-8.037-5.182c-1.431-3.153-0.888-6.852,1.39-9.461
			l61.793-70.621c3.214-3.659,8.784-4.025,12.45-0.819c3.666,3.207,4.043,8.776,0.844,12.448l-61.793,70.621
			C40.28,113.662,37.857,114.761,35.31,114.759z"/>
		<path style="fill:#FB7B76;" d="M35.31,61.793c-3.57-0.001-6.788-2.152-8.154-5.45c-1.366-3.298-0.611-7.094,1.913-9.619
			l17.655-17.655c3.456-3.394,9.001-3.369,12.426,0.056s3.45,8.97,0.056,12.426L41.551,59.207
			C39.898,60.865,37.652,61.796,35.31,61.793z"/>
	</g>
	<polygon style="fill:#B49ACA;" points="79.448,397.241 308.966,397.241 308.966,361.931 44.138,361.931 	"/>
	<circle style="fill:#46B29D;" cx="397.241" cy="397.241" r="114.759"/>
	<g>
		<path style="fill:#B49ACA;" d="M275.686,238.28c-2.334,0.015-4.578-0.902-6.235-2.547c-1.657-1.645-2.59-3.882-2.592-6.216
			l0.129-1.642c2.486-19.279,1.854-38.832-1.871-57.909c-1.238-4.716,1.582-9.542,6.297-10.78c4.716-1.238,9.542,1.582,10.78,6.297
			c4.362,21.475,5.111,43.528,2.216,65.25C283.756,235.053,280.055,238.255,275.686,238.28L275.686,238.28z"/>
		<path style="fill:#B49ACA;" d="M290.961,231.065l-48.142-33.713c-0.085-0.064-0.124-0.161-0.212-0.222
			c-0.087-0.061-0.19-0.064-0.277-0.12l-46.822-32.79h-0.004c-6.088-4.233-14.166-4.233-20.254,0l-46.814,32.786
			c-0.09,0.058-0.197,0.062-0.285,0.124c-0.09,0.063-0.131,0.163-0.218,0.228l-48.136,33.711
			c-6.391,4.512-9.073,12.676-6.603,20.099l38.349,113.767c1.211,3.59,4.577,6.008,8.366,6.009h130.94
			c3.789,0,7.156-2.418,8.366-6.009l38.344-113.759C300.035,243.751,297.354,235.581,290.961,231.065z M185.379,178.685
			l39.849,27.906l-22.313,31.939h-35.073l-22.313-31.939L185.379,178.685z M185.379,306.871l-25.06-19.142l9.75-31.543h30.621
			l9.75,31.543L185.379,306.871z M131.067,216.719l22.682,32.468l-10.888,35.236l-34.977,14.38L89.927,245.53L131.067,216.719z
			 M113.536,315.569l35.204-14.474l27.812,21.246v30.948H126.25L113.536,315.569z M244.509,353.289h-50.302v-30.948l27.811-21.246
			l35.204,14.474L244.509,353.289z M262.874,298.803l-34.977-14.38l-10.888-35.236l22.682-32.468l41.141,28.811L262.874,298.803z"/>
	</g>
	<path style="fill:#9FC9D3;" d="M379.582,450.207c-2.003,0.002-3.947-0.681-5.508-1.935l-44.138-35.31
		c-2.476-1.965-3.711-5.104-3.24-8.23c0.472-3.125,2.579-5.76,5.525-6.907c2.945-1.147,6.279-0.631,8.741,1.352l37.246,29.793
		l65.108-81.379c3.051-3.785,8.588-4.391,12.385-1.354c3.797,3.037,4.422,8.572,1.4,12.38l-70.621,88.276
		C384.805,448.99,382.266,450.211,379.582,450.207z"/>
	<polygon style="fill:#B49ACA;" points="435.465,114.759 76.535,114.759 108.932,79.448 403.068,79.448 	"/>
	<rect x="211.862" y="79.448" style="fill:#556080;" width="123.586" height="35.31"/>
	<path style="fill:#8697CB;" d="M303.794,144.898l-17.655,17.655c-3.311,3.311-7.802,5.171-12.484,5.171s-9.173-1.86-12.484-5.171
		l-17.655-17.655c-3.311-3.311-5.171-7.802-5.171-12.484v-17.655h70.621v17.655C308.966,137.096,307.105,141.587,303.794,144.898z"
		/>
</g>
<g>
</g>
<g>
</g>
<g>
</g>
<g>
</g>
<g>
</g>
<g>
</g>
<g>
</g>
<g>
</g>
<g>
</g>
<g>
</g>
<g>
</g>
<g>
</g>
<g>
</g>
<g>
</g>
<g>
</g>
</svg>
