<?xml version="1.0" encoding="iso-8859-1"?>
<!-- Generator: Adobe Illustrator 19.0.0, SVG Export Plug-In . SVG Version: 6.00 Build 0)  -->
<svg version="1.1" id="Capa_1" xmlns="http://www.w3.org/2000/svg" xmlns:xlink="http://www.w3.org/1999/xlink" x="0px" y="0px"
	 viewBox="0 0 503.322 503.322" style="enable-background:new 0 0 503.322 503.322;" xml:space="preserve">
<g>
	<path style="fill:#BDC3C7;" d="M17.356,0h468.61c9.585,0,17.356,7.771,17.356,17.356v468.61c0,9.585-7.771,17.356-17.356,17.356
		H17.356C7.771,503.322,0,495.552,0,485.966V17.356C0,7.771,7.771,0,17.356,0z"/>
	<path style="fill:#5E5F62;" d="M234.305,208.268v-52.068h34.712v52.068c0,9.585-7.771,17.356-17.356,17.356l0,0
		C242.076,225.624,234.305,217.854,234.305,208.268z"/>
	<g>
		<path style="fill:#95A5A5;" d="M503.322,425.217v60.746c-0.028,9.574-7.782,17.328-17.356,17.356H17.356
			C7.782,503.291,0.028,495.537,0,485.963v-60.746H503.322z"/>
		<rect y="34.712" style="fill:#95A5A5;" width="503.322" height="52.068"/>
	</g>
	<path style="fill:#7F8C8D;" d="M301.479,121.489h-99.636c-3.812-0.227-7.097-2.764-8.279-6.396l-11.326-28.316h138.847
		l-11.326,28.316C308.576,118.724,305.291,121.262,301.479,121.489z"/>
	<path style="fill:#95A5A5;" d="M208.271,121.489h86.78v17.356c0,9.585-7.771,17.356-17.356,17.356h-52.068
		c-9.585,0-17.356-7.771-17.356-17.356V121.489z"/>
	<polygon style="fill:#84B5CB;" points="251.661,261.059 251.661,469.33 104.136,446.16 104.136,284.229 	"/>
	<polygon style="fill:#547580;" points="399.186,284.229 399.186,446.16 342.866,455.012 313.622,459.611 280.993,464.731 
		251.748,469.33 251.661,469.33 251.661,261.059 297.047,268.175 318.308,271.56 342.085,275.291 363.433,278.589 387.124,282.32 	
		"/>
	<g>
		<polygon style="fill:#84B5CB;" points="318.308,271.56 251.661,337.859 251.661,313.387 297.047,268.175 		"/>
		<polygon style="fill:#84B5CB;" points="363.433,278.589 251.661,389.927 251.661,365.368 342.085,275.291 		"/>
		<polygon style="fill:#84B5CB;" points="399.186,284.229 399.186,294.903 251.661,441.908 251.661,417.436 387.124,282.32 		"/>
		<polygon style="fill:#84B5CB;" points="399.186,322.412 399.186,346.971 280.993,464.731 251.748,469.33 		"/>
		<polygon style="fill:#84B5CB;" points="399.186,374.48 399.186,398.952 342.866,455.012 313.622,459.611 		"/>
	</g>
</g>
<g>
</g>
<g>
</g>
<g>
</g>
<g>
</g>
<g>
</g>
<g>
</g>
<g>
</g>
<g>
</g>
<g>
</g>
<g>
</g>
<g>
</g>
<g>
</g>
<g>
</g>
<g>
</g>
<g>
</g>
</svg>
