<?xml version="1.0" encoding="iso-8859-1"?>
<!-- Generator: Adobe Illustrator 19.0.0, SVG Export Plug-In . SVG Version: 6.00 Build 0)  -->
<svg version="1.1" id="Capa_1" xmlns="http://www.w3.org/2000/svg" xmlns:xlink="http://www.w3.org/1999/xlink" x="0px" y="0px"
	 viewBox="0 0 512 512" style="enable-background:new 0 0 512 512;" xml:space="preserve">
<g>
	<path style="fill:#BDC3C7;" d="M17.655,0h476.69C504.095,0,512,7.904,512,17.655v476.69c0,9.751-7.905,17.655-17.655,17.655H17.655
		C7.904,512,0,504.095,0,494.345V17.655C0,7.904,7.904,0,17.655,0z"/>
	<path style="fill:#3F5C6C;" d="M512,17.655v52.966H0V17.655C0.028,7.916,7.916,0.028,17.655,0h476.69
		C504.084,0.028,511.972,7.916,512,17.655z"/>
	<g>
		<path style="fill:#84B5CB;" d="M61.793,26.483H44.138c-4.875,0-8.828,3.952-8.828,8.828s3.952,8.828,8.828,8.828h17.655
			c4.875,0,8.828-3.952,8.828-8.828S66.668,26.483,61.793,26.483z"/>
		<path style="fill:#84B5CB;" d="M467.862,26.483h-17.655c-4.875,0-8.828,3.952-8.828,8.828s3.952,8.828,8.828,8.828h17.655
			c4.875,0,8.828-3.952,8.828-8.828S472.737,26.483,467.862,26.483z"/>
		<path style="fill:#84B5CB;" d="M379.586,26.483H132.414c-4.875,0-8.828,3.952-8.828,8.828s3.952,8.828,8.828,8.828h247.172
			c4.875,0,8.828-3.952,8.828-8.828S384.462,26.483,379.586,26.483z"/>
	</g>
	<g>
		<path style="fill:#E6E7E8;" d="M44.138,150.069H220.69c4.875,0,8.828,3.952,8.828,8.828v26.483c0,4.875-3.952,8.828-8.828,8.828
			H44.138c-4.875,0-8.828-3.952-8.828-8.828v-26.483C35.31,154.021,39.263,150.069,44.138,150.069z"/>
		<path style="fill:#E6E7E8;" d="M44.138,264.828h423.724c4.875,0,8.828,3.952,8.828,8.828v123.586c0,4.875-3.952,8.828-8.828,8.828
			H44.138c-4.875,0-8.828-3.952-8.828-8.828V273.655C35.31,268.78,39.263,264.828,44.138,264.828z"/>
		<path style="fill:#E6E7E8;" d="M291.31,150.069h176.552c4.875,0,8.828,3.952,8.828,8.828v26.483c0,4.875-3.952,8.828-8.828,8.828
			H291.31c-4.875,0-8.828-3.952-8.828-8.828v-26.483C282.483,154.021,286.435,150.069,291.31,150.069z"/>
	</g>
	<g>
		<path style="fill:#FFFFFF;" d="M97.103,105.931H35.31c-4.875,0-8.828,3.952-8.828,8.828s3.952,8.828,8.828,8.828h61.793
			c4.875,0,8.828-3.952,8.828-8.828S101.979,105.931,97.103,105.931z"/>
		<path style="fill:#FFFFFF;" d="M97.103,220.69H35.31c-4.875,0-8.828,3.952-8.828,8.828s3.952,8.828,8.828,8.828h61.793
			c4.875,0,8.828-3.952,8.828-8.828S101.979,220.69,97.103,220.69z"/>
		<path style="fill:#FFFFFF;" d="M344.276,105.931h-61.793c-4.875,0-8.828,3.952-8.828,8.828s3.952,8.828,8.828,8.828h61.793
			c4.875,0,8.828-3.952,8.828-8.828S349.151,105.931,344.276,105.931z"/>
	</g>
	<path style="fill:#CC4B4C;" d="M379.586,441.379h79.448c9.751,0,17.655,7.905,17.655,17.655l0,0
		c0,9.751-7.905,17.655-17.655,17.655h-79.448c-9.751,0-17.655-7.905-17.655-17.655l0,0
		C361.931,449.284,369.836,441.379,379.586,441.379z"/>
</g>
<g>
</g>
<g>
</g>
<g>
</g>
<g>
</g>
<g>
</g>
<g>
</g>
<g>
</g>
<g>
</g>
<g>
</g>
<g>
</g>
<g>
</g>
<g>
</g>
<g>
</g>
<g>
</g>
<g>
</g>
</svg>
