<?xml version="1.0" encoding="iso-8859-1"?>
<!-- Generator: Adobe Illustrator 19.0.0, SVG Export Plug-In . SVG Version: 6.00 Build 0)  -->
<svg version="1.1" id="Capa_1" xmlns="http://www.w3.org/2000/svg" xmlns:xlink="http://www.w3.org/1999/xlink" x="0px" y="0px"
	 viewBox="0 0 512 512" style="enable-background:new 0 0 512 512;" xml:space="preserve">
<g>
	<path style="fill:#BDC3C7;" d="M17.655,0h476.69C504.095,0,512,7.904,512,17.655v476.69c0,9.751-7.905,17.655-17.655,17.655H17.655
		C7.904,512,0,504.095,0,494.345V17.655C0,7.904,7.904,0,17.655,0z"/>
	<path style="fill:#3F5C6C;" d="M512,17.655v52.966H0V17.655C0.028,7.916,7.916,0.028,17.655,0h476.69
		C504.084,0.028,511.972,7.916,512,17.655z"/>
	<g>
		<path style="fill:#84B5CB;" d="M61.793,26.483H44.138c-4.875,0-8.828,3.952-8.828,8.828s3.952,8.828,8.828,8.828h17.655
			c4.875,0,8.828-3.952,8.828-8.828S66.668,26.483,61.793,26.483z"/>
		<path style="fill:#84B5CB;" d="M467.862,26.483h-17.655c-4.875,0-8.828,3.952-8.828,8.828s3.952,8.828,8.828,8.828h17.655
			c4.875,0,8.828-3.952,8.828-8.828S472.737,26.483,467.862,26.483z"/>
		<path style="fill:#84B5CB;" d="M379.586,26.483H132.414c-4.875,0-8.828,3.952-8.828,8.828s3.952,8.828,8.828,8.828h247.172
			c4.875,0,8.828-3.952,8.828-8.828S384.462,26.483,379.586,26.483z"/>
	</g>
	<path style="fill:#00a6fb;" d="M44.138,105.931h194.207c4.875,0,8.828,3.952,8.828,8.828v185.379c0,4.875-3.952,8.828-8.828,8.828
		H44.138c-4.875,0-8.828-3.952-8.828-8.828V114.759C35.31,109.883,39.263,105.931,44.138,105.931z"/>
	<g>
		<path style="fill:#ECF0F1;" d="M291.31,105.931h176.552c4.875,0,8.828,3.952,8.828,8.828v185.379c0,4.875-3.952,8.828-8.828,8.828
			H291.31c-4.875,0-8.828-3.952-8.828-8.828V114.759C282.483,109.883,286.435,105.931,291.31,105.931z"/>
		<path style="fill:#ECF0F1;" d="M44.138,353.103h423.724c4.875,0,8.828,3.952,8.828,8.828v105.931c0,4.875-3.952,8.828-8.828,8.828
			H44.138c-4.875,0-8.828-3.952-8.828-8.828V361.931C35.31,357.056,39.263,353.103,44.138,353.103z"/>
	</g>
	<path style="fill:#4482C3;" d="M370.759,423.724L370.759,423.724c0-9.751,7.905-17.655,17.655-17.655h35.31
		c9.751,0,17.655,7.904,17.655,17.655l0,0c0,9.751-7.904,17.655-17.655,17.655h-35.31
		C378.663,441.379,370.759,433.475,370.759,423.724z"/>
	<g>
		<path style="fill:#95A5A5;" d="M441.379,273.655c-2.342,0.001-4.588-0.928-6.244-2.584c-1.656-1.656-2.585-3.902-2.584-6.244
			V150.069c0-4.875,3.952-8.828,8.828-8.828s8.828,3.952,8.828,8.828v114.759c0.001,2.342-0.928,4.588-2.584,6.244
			C445.967,272.727,443.721,273.656,441.379,273.655z"/>
		<path style="fill:#95A5A5;" d="M70.621,441.379c-2.342,0.001-4.588-0.928-6.244-2.584c-1.656-1.656-2.585-3.902-2.584-6.244
			v-35.31c0-4.875,3.952-8.828,8.828-8.828c4.875,0,8.828,3.952,8.828,8.828v35.31c0.001,2.342-0.928,4.588-2.584,6.244
			C75.208,440.451,72.962,441.381,70.621,441.379z"/>
	</g>
	<path style="fill:#F29C1F;" d="M211.862,308.966v-6.247c-0.058-9.58-5.587-18.284-14.233-22.408l-35.397-14.918
		c-2.037-1.184-3.654-2.975-4.622-5.123c-0.452-0.933-0.386-2.033,0.175-2.905c0.56-0.872,1.534-1.389,2.57-1.365h22.618
		c0,0,14.147,1.554,19.829-6.778c0.333-0.479,0.308-1.122-0.063-1.573c-13.549-19.411-21.498-42.175-22.976-65.801
		c0,0-2.029-40.287-41.73-40.606c-21.921,0.679-39.742,17.895-41.177,39.779c-1.978,23.772-9.83,46.68-22.85,66.667
		c-0.316,0.47-0.335,1.081-0.047,1.569c3.999,5,10.315,7.555,16.666,6.742h25.516c1.102-0.033,2.099,0.648,2.471,1.686
		c0.371,1.038,0.032,2.197-0.84,2.871c-1.249,1.004-2.561,1.926-3.929,2.761l-29.802,16.795
		c-8.204,4.277-13.368,12.741-13.418,21.993v6.859H211.862z"/>
</g>
<g>
</g>
<g>
</g>
<g>
</g>
<g>
</g>
<g>
</g>
<g>
</g>
<g>
</g>
<g>
</g>
<g>
</g>
<g>
</g>
<g>
</g>
<g>
</g>
<g>
</g>
<g>
</g>
<g>
</g>
</svg>
