<?xml version="1.0" encoding="iso-8859-1"?>
<!-- Generator: Adobe Illustrator 19.0.0, SVG Export Plug-In . SVG Version: 6.00 Build 0)  -->
<svg version="1.1" id="Capa_1" xmlns="http://www.w3.org/2000/svg" xmlns:xlink="http://www.w3.org/1999/xlink" x="0px" y="0px"
	 viewBox="0 0 512 512" style="enable-background:new 0 0 512 512;" xml:space="preserve">
<g>
	<path style="fill:#E6E7E8;" d="M17.655,0h476.69C504.095,0,512,7.904,512,17.655v476.69c0,9.751-7.905,17.655-17.655,17.655H17.655
		C7.904,512,0,504.095,0,494.345V17.655C0,7.904,7.904,0,17.655,0z"/>
	<path style="fill:#CC4B4C;" d="M158.897,105.931v167.724H44.138c-4.869-0.015-8.813-3.958-8.828-8.828V114.759
		c0.015-4.869,3.958-8.813,8.828-8.828H158.897z"/>
	<path style="fill:#3F5C6C;" d="M512,17.655v52.966H0V17.655C0.028,7.916,7.916,0.028,17.655,0h476.69
		C504.084,0.028,511.972,7.916,512,17.655z"/>
	<g>
		<path style="fill:#84B5CB;" d="M61.793,26.483H44.138c-4.875,0-8.828,3.952-8.828,8.828s3.952,8.828,8.828,8.828h17.655
			c4.875,0,8.828-3.952,8.828-8.828S66.668,26.483,61.793,26.483z"/>
		<path style="fill:#84B5CB;" d="M467.862,26.483h-17.655c-4.875,0-8.828,3.952-8.828,8.828s3.952,8.828,8.828,8.828h17.655
			c4.875,0,8.828-3.952,8.828-8.828S472.737,26.483,467.862,26.483z"/>
		<path style="fill:#84B5CB;" d="M379.586,26.483H132.414c-4.875,0-8.828,3.952-8.828,8.828s3.952,8.828,8.828,8.828h247.172
			c4.875,0,8.828-3.952,8.828-8.828S384.462,26.483,379.586,26.483z"/>
	</g>
	<g>
		<path style="fill:#FFFFFF;" d="M97.103,132.414c-19.493,0.019-35.291,15.817-35.31,35.31c0,4.875,3.952,8.828,8.828,8.828
			s8.828-3.952,8.828-8.828c0-9.751,7.904-17.655,17.655-17.655s17.655,7.904,17.655,17.655s-7.904,17.655-17.655,17.655
			c-2.342-0.001-4.588,0.928-6.244,2.584c-1.656,1.656-2.585,3.902-2.584,6.244v8.828c0,4.875,3.952,8.828,8.828,8.828
			s8.828-3.952,8.828-8.828v-1.121c17.217-4.445,28.442-20.999,26.202-38.638C129.892,145.635,114.885,132.414,97.103,132.414z"/>
		<path style="fill:#FFFFFF;" d="M103.371,232.077c-2.536-2.509-6.334-3.241-9.621-1.854c-1.081,0.426-2.07,1.055-2.914,1.854
			c-0.78,0.858-1.407,1.844-1.854,2.914c-0.497,1.046-0.739,2.196-0.707,3.354c-0.031,2.953,1.433,5.722,3.89,7.361
			c2.457,1.638,5.576,1.924,8.291,0.76c1.069-0.449,2.054-1.075,2.914-1.854c2.528-2.525,3.263-6.337,1.854-9.621
			C104.778,233.921,104.151,232.935,103.371,232.077z"/>
	</g>
	<path style="fill:#BDC3C7;" d="M476.69,114.759v150.069c-0.015,4.869-3.958,8.813-8.828,8.828H158.897V105.931h308.966
		C472.731,105.946,476.675,109.889,476.69,114.759z"/>
	<path style="fill:#ffffff;" d="M158.897,308.966V476.69H44.138c-4.869-0.015-8.813-3.958-8.828-8.828V317.793
		c0.015-4.869,3.958-8.813,8.828-8.828H158.897z"/>
	<path style="fill:#BDC3C7;" d="M476.69,317.793v150.069c-0.015,4.869-3.958,8.813-8.828,8.828H158.897V308.966h308.966
		C472.731,308.98,476.675,312.924,476.69,317.793z"/>
	<g>
		<path style="fill:#FFFFFF;" d="M194.207,158.897h26.483c4.875,0,8.828-3.952,8.828-8.828s-3.952-8.828-8.828-8.828h-26.483
			c-4.875,0-8.828,3.952-8.828,8.828S189.332,158.897,194.207,158.897z"/>
		<path style="fill:#FFFFFF;" d="M194.207,203.034h123.586c4.875,0,8.828-3.952,8.828-8.828s-3.952-8.828-8.828-8.828H194.207
			c-4.875,0-8.828,3.952-8.828,8.828S189.332,203.034,194.207,203.034z"/>
		<path style="fill:#FFFFFF;" d="M353.103,203.034h44.138c4.875,0,8.828-3.952,8.828-8.828s-3.952-8.828-8.828-8.828h-44.138
			c-4.875,0-8.828,3.952-8.828,8.828S348.228,203.034,353.103,203.034z"/>
		<path style="fill:#FFFFFF;" d="M432.552,203.034h8.828c4.875,0,8.828-3.952,8.828-8.828s-3.952-8.828-8.828-8.828h-8.828
			c-4.875,0-8.828,3.952-8.828,8.828S427.676,203.034,432.552,203.034z"/>
		<path style="fill:#FFFFFF;" d="M273.655,220.69h-79.448c-4.875,0-8.828,3.952-8.828,8.828s3.952,8.828,8.828,8.828h79.448
			c4.875,0,8.828-3.952,8.828-8.828S278.531,220.69,273.655,220.69z"/>
		<path style="fill:#FFFFFF;" d="M370.759,220.69h-61.793c-4.875,0-8.828,3.952-8.828,8.828s3.952,8.828,8.828,8.828h61.793
			c4.875,0,8.828-3.952,8.828-8.828S375.634,220.69,370.759,220.69z"/>
		<path style="fill:#FFFFFF;" d="M441.379,220.69h-35.31c-4.875,0-8.828,3.952-8.828,8.828s3.952,8.828,8.828,8.828h35.31
			c4.875,0,8.828-3.952,8.828-8.828S446.255,220.69,441.379,220.69z"/>
		<path style="fill:#FFFFFF;" d="M97.103,335.448c-8.194-0.002-15.309,5.642-17.172,13.621l-17.966,90.595
			c-0.947,4.78,2.16,9.423,6.94,10.371c4.78,0.948,9.423-2.159,10.371-6.94l5.506-28.198h24.557l5.592,28.198
			c0.814,4.131,4.436,7.11,8.646,7.112c0.579,0.002,1.157-0.056,1.724-0.172c2.296-0.454,4.318-1.802,5.62-3.747
			c1.302-1.945,1.777-4.328,1.32-6.624l-18.103-91.198C112.101,340.744,105.089,335.386,97.103,335.448z M88.23,397.241
			l8.736-44.741l8.872,44.741H88.23z"/>
		<path style="fill:#FFFFFF;" d="M194.207,361.931h26.483c4.875,0,8.828-3.952,8.828-8.828s-3.952-8.828-8.828-8.828h-26.483
			c-4.875,0-8.828,3.952-8.828,8.828S189.332,361.931,194.207,361.931z"/>
		<path style="fill:#FFFFFF;" d="M194.207,406.069h70.621c4.875,0,8.828-3.952,8.828-8.828c0-4.875-3.952-8.828-8.828-8.828h-70.621
			c-4.875,0-8.828,3.952-8.828,8.828C185.379,402.117,189.332,406.069,194.207,406.069z"/>
		<path style="fill:#FFFFFF;" d="M379.586,397.241c0.001-2.342-0.928-4.588-2.584-6.244c-1.656-1.656-3.902-2.585-6.244-2.584
			h-70.621c-4.875,0-8.828,3.952-8.828,8.828c0,4.875,3.952,8.828,8.828,8.828h70.621c2.342,0.001,4.588-0.928,6.244-2.584
			C378.658,401.829,379.588,399.583,379.586,397.241z"/>
		<path style="fill:#FFFFFF;" d="M406.069,406.069h35.31c4.875,0,8.828-3.952,8.828-8.828c0-4.875-3.952-8.828-8.828-8.828h-35.31
			c-4.875,0-8.828,3.952-8.828,8.828C397.241,402.117,401.194,406.069,406.069,406.069z"/>
		<path style="fill:#FFFFFF;" d="M291.31,423.724h-97.103c-4.875,0-8.828,3.952-8.828,8.828s3.952,8.828,8.828,8.828h97.103
			c4.875,0,8.828-3.952,8.828-8.828S296.186,423.724,291.31,423.724z"/>
		<path style="fill:#FFFFFF;" d="M335.448,423.724h-8.828c-4.875,0-8.828,3.952-8.828,8.828s3.952,8.828,8.828,8.828h8.828
			c4.875,0,8.828-3.952,8.828-8.828S340.324,423.724,335.448,423.724z"/>
		<path style="fill:#FFFFFF;" d="M447.56,426.284c-3.506-3.268-8.942-3.268-12.448,0c-0.78,0.858-1.407,1.844-1.854,2.914
			c-0.943,2.136-0.943,4.571,0,6.707c0.449,1.069,1.075,2.054,1.854,2.914c3.467,3.365,8.981,3.365,12.448,0
			c1.715-1.63,2.674-3.901,2.647-6.267c-0.014-1.153-0.254-2.293-0.707-3.353C449.075,428.096,448.413,427.101,447.56,426.284z"/>
		<path style="fill:#FFFFFF;" d="M406.069,423.724h-35.31c-4.875,0-8.828,3.952-8.828,8.828s3.952,8.828,8.828,8.828h35.31
			c4.875,0,8.828-3.952,8.828-8.828S410.944,423.724,406.069,423.724z"/>
	</g>
</g>
<g>
</g>
<g>
</g>
<g>
</g>
<g>
</g>
<g>
</g>
<g>
</g>
<g>
</g>
<g>
</g>
<g>
</g>
<g>
</g>
<g>
</g>
<g>
</g>
<g>
</g>
<g>
</g>
<g>
</g>
</svg>
