<?xml version="1.0" encoding="iso-8859-1"?>
<!-- Generator: Adobe Illustrator 19.0.0, SVG Export Plug-In . SVG Version: 6.00 Build 0)  -->
<svg version="1.1" id="Capa_1" xmlns="http://www.w3.org/2000/svg" xmlns:xlink="http://www.w3.org/1999/xlink" x="0px" y="0px"
	 viewBox="0 0 512 512" style="enable-background:new 0 0 512 512;" xml:space="preserve">
<g>
	<path style="fill:#4482C3;" d="M512,256c0.02-69.541-28.338-136.078-78.516-184.225c-0.597-0.823-1.339-1.53-2.189-2.088
		c-98.394-92.918-252.196-92.917-350.59,0.001c-0.849,0.557-1.59,1.263-2.187,2.085C28.315,119.97-0.044,186.568,0,256.162
		S28.488,392.317,78.753,440.45c0.413,0.497,0.883,0.945,1.399,1.334c98.541,93.621,253.155,93.621,351.696,0
		c0.517-0.389,0.986-0.837,1.399-1.334C483.569,392.29,512.02,325.654,512,256z M425.258,424.469
		c-12.32-6.849-25.128-12.78-38.32-17.744c19.952-44.78,30.522-93.171,31.059-142.192h76.72
		C492.614,324.709,467.796,381.854,425.258,424.469z M302.525,403.908c20.588,2.43,40.915,6.713,60.734,12.796
		c-24.76,44.79-59.698,74.032-98.726,77.781V438.7c0-4.713-3.82-8.533-8.533-8.533s-8.533,3.82-8.533,8.533v55.786
		c-39.028-3.749-73.966-32.992-98.726-77.781c19.819-6.084,40.146-10.367,60.734-12.797c4.678-0.559,8.018-4.804,7.462-9.483
		c-0.557-4.679-4.799-8.021-9.478-7.467c-22.58,2.651-44.859,7.43-66.54,14.272c-19.207-43.041-29.368-89.568-29.854-136.697H128
		c4.713,0,8.533-3.821,8.533-8.533c0-4.713-3.821-8.533-8.533-8.533h-16.935c0.484-47.201,10.678-93.797,29.945-136.889
		c6.234,1.97,12.552,3.836,19.04,5.472c2.963,0.763,6.108-0.119,8.242-2.311c2.134-2.192,2.932-5.359,2.09-8.301
		c-0.842-2.942-3.194-5.207-6.165-5.938c-5.236-1.321-10.299-2.863-15.356-4.412c24.753-44.671,59.64-73.832,98.606-77.575v67.82
		c0,4.713,3.821,8.533,8.533,8.533s8.533-3.821,8.533-8.533v-67.82c38.956,3.742,73.833,32.889,98.585,77.539
		c-5.058,1.558-10.121,3.113-15.369,4.456c-4.566,1.169-7.319,5.818-6.15,10.383c1.169,4.566,5.818,7.319,10.383,6.15
		c6.478-1.658,12.774-3.535,18.986-5.508c19.282,43.104,29.482,89.716,29.966,136.933H384c-4.713,0-8.533,3.821-8.533,8.533
		c0,4.713,3.82,8.533,8.533,8.533h16.935c-0.485,47.129-10.646,93.657-29.854,136.697c-21.681-6.843-43.96-11.621-66.54-14.272
		c-3.029-0.362-6.021,0.92-7.848,3.362s-2.212,5.675-1.009,8.478C296.888,401.602,299.496,403.55,302.525,403.908L302.525,403.908z
		 M494.717,247.467h-76.72c-0.534-49.138-11.153-97.642-31.201-142.507c13.181-4.92,25.983-10.801,38.304-17.594
		C467.734,129.997,492.612,187.212,494.717,247.467z M411.854,75.123c-10.602,5.539-21.553,10.382-32.784,14.498
		c-12.024-22.988-28.304-43.483-47.974-60.397C360.759,39.091,388.197,54.686,411.854,75.123z M132.904,89.67
		c-11.232-4.117-22.179-8.973-32.771-14.534c23.659-20.443,51.102-36.042,80.771-45.911C161.22,46.15,144.931,66.663,132.904,89.67z
		 M86.893,87.373c12.309,6.819,25.107,12.714,38.288,17.638c-20.031,44.851-30.643,93.337-31.177,142.455h-76.72
		C19.388,187.215,44.264,130.004,86.893,87.373z M17.283,264.533h76.72c0.537,49.021,11.107,97.412,31.058,142.192
		c-13.192,4.965-26,10.895-38.32,17.744C44.204,381.854,19.386,324.709,17.283,264.533z M99.931,436.69
		c10.617-5.578,21.587-10.455,32.842-14.598c12.044,23.101,28.379,43.696,48.131,60.684
		C151.15,472.878,123.635,457.218,99.931,436.69z M379.227,422.092c11.254,4.143,22.225,9.02,32.842,14.598
		c-23.704,20.528-51.218,36.188-80.973,46.086C350.848,465.788,367.183,445.193,379.227,422.092L379.227,422.092z"/>
	<path style="fill:#00a6fb;" d="M349.867,153.6v138.496c-0.015,9.615-4.072,18.782-11.179,25.259L256,392.533l-82.688-75.179
		c-7.107-6.477-11.163-15.643-11.179-25.258V153.6c9.053,0.002,17.737-3.593,24.139-9.995c6.402-6.402,9.997-15.085,9.995-24.139
		h119.467c-0.002,9.053,3.593,17.737,9.995,24.139C332.13,150.007,340.813,153.602,349.867,153.6z"/>
	<path style="fill:#ffffff;" d="M196.275,292.092l-0.009-113.517c10.354-6.012,18.961-14.62,24.971-24.975h69.525
		c6.009,10.356,14.616,18.965,24.971,24.975V292.1L256,346.4L196.275,292.092z"/>
</g>
<g>
</g>
<g>
</g>
<g>
</g>
<g>
</g>
<g>
</g>
<g>
</g>
<g>
</g>
<g>
</g>
<g>
</g>
<g>
</g>
<g>
</g>
<g>
</g>
<g>
</g>
<g>
</g>
<g>
</g>
</svg>
