<?xml version="1.0" encoding="iso-8859-1"?>
<!-- Generator: Adobe Illustrator 19.0.0, SVG Export Plug-In . SVG Version: 6.00 Build 0)  -->
<svg version="1.1" id="Capa_1" xmlns="http://www.w3.org/2000/svg" xmlns:xlink="http://www.w3.org/1999/xlink" x="0px" y="0px"
	 viewBox="0 0 512.002 512.002" style="enable-background:new 0 0 512.002 512.002;" xml:space="preserve">
<g>
	<rect x="185.38" y="423.726" style="fill:#95A5A5;" width="141.241" height="70.621"/>
	<path style="fill:#3F5C6C;" d="M169.49,35.312H35.311c-19.078-0.391-34.873,14.733-35.31,33.81v338.45
		c0.437,19.077,16.232,34.201,35.31,33.81H476.69c19.078,0.391,34.873-14.733,35.31-33.81V69.122
		c-0.437-19.077-16.232-34.201-35.31-33.81H169.49z"/>
	<g>
		<path style="fill:#BDC3C7;" d="M141.242,476.691h229.517c14.626,0,26.483,11.857,26.483,26.483v8.828H114.759v-8.828
			C114.759,488.548,126.616,476.691,141.242,476.691z"/>
		<path style="fill:#BDC3C7;" d="M512.001,388.415v19.156c-0.437,19.077-16.232,34.201-35.31,33.81H35.311
			c-19.078,0.391-34.873-14.733-35.31-33.81v-19.156H512.001z"/>
	</g>
	<path style="fill:#E4C05C;" d="M361.917,104.123c0.564,30.697-12.242,60.124-35.09,80.632
		c-17.314,16.102-27.009,38.776-26.688,62.418h-88.276v-0.028c-0.007-24.059-10.061-47.022-27.734-63.346
		c-32.64-30.155-42.998-77.472-25.942-118.506c17.056-41.034,57.903-67.067,102.301-65.2
		C316.297,2.918,360.507,48.261,361.917,104.123z"/>
	<path style="fill:#ECF0F1;" d="M220.69,247.174h70.621c9.751,0,17.655,7.904,17.655,17.655l0,0c0,9.751-7.905,17.655-17.655,17.655
		H220.69c-9.751,0-17.655-7.904-17.655-17.655l0,0C203.035,255.078,210.94,247.174,220.69,247.174z"/>
	<path style="fill:#BDC3C7;" d="M229.518,282.484h52.966c9.751,0,17.655,7.905,17.655,17.655l0,0
		c0,9.751-7.904,17.655-17.655,17.655h-52.966c-9.751,0-17.655-7.904-17.655-17.655l0,0
		C211.863,290.389,219.767,282.484,229.518,282.484z"/>
	<path style="fill:#ECF0F1;" d="M238.346,317.795h35.31v17.655c0,9.751-7.904,17.655-17.655,17.655
		c-9.751,0-17.655-7.905-17.655-17.655V317.795z"/>
	<path style="fill:#F5EFCA;" d="M326.621,114.76c-2.341,0.001-4.587-0.929-6.243-2.585c-1.656-1.656-2.585-3.901-2.585-6.243
		c-0.04-34.111-27.682-61.753-61.793-61.793c-4.875,0-8.828-3.952-8.828-8.828s3.952-8.828,8.828-8.828
		c43.858,0.049,79.399,35.591,79.448,79.448c0.001,2.341-0.929,4.587-2.585,6.243C331.209,113.831,328.963,114.761,326.621,114.76z"
		/>
</g>
<g>
</g>
<g>
</g>
<g>
</g>
<g>
</g>
<g>
</g>
<g>
</g>
<g>
</g>
<g>
</g>
<g>
</g>
<g>
</g>
<g>
</g>
<g>
</g>
<g>
</g>
<g>
</g>
<g>
</g>
</svg>
