<?xml version="1.0" encoding="iso-8859-1"?>
<!-- Generator: Adobe Illustrator 19.0.0, SVG Export Plug-In . SVG Version: 6.00 Build 0)  -->
<svg version="1.1" id="Capa_1" xmlns="http://www.w3.org/2000/svg" xmlns:xlink="http://www.w3.org/1999/xlink" x="0px" y="0px"
	 viewBox="0 0 512 512" style="enable-background:new 0 0 512 512;" xml:space="preserve">
<g>
	<path style="fill:#00a6fb;" d="M424.699,424.332l-49.964-49.876c-3.298-3.306-7.777-5.164-12.447-5.164s-9.148,1.858-12.447,5.164
		l-12.535,12.447l-20.039,20.039c-3.79,3.879-9.188,5.744-14.565,5.032c-24.011-3.178-73.976-21.275-127.647-75.034
		c-53.761-53.672-71.858-103.636-75.034-127.647c-0.713-5.377,1.152-10.775,5.031-14.566l20.038-20.039l12.448-12.535
		c3.306-3.299,5.163-7.777,5.163-12.447c0-4.67-1.858-9.148-5.163-12.447L87.661,87.295c-6.904-6.886-18.078-6.886-24.982,0
		L50.232,99.83L26.31,123.664c-55.791,55.79-19.95,181.937,80.067,281.953s226.162,135.857,281.953,80.066l23.923-23.834
		l12.447-12.536C431.585,442.41,431.585,431.236,424.699,424.332z"/>
	<g>
		<path style="fill:#84B5CB;" d="M424.699,449.314l-12.447,12.536l-6.268-6.268l-68.679-68.679l12.535-12.447
			c3.298-3.306,7.777-5.164,12.447-5.164s9.148,1.858,12.447,5.164l49.964,49.876C431.585,431.236,431.585,442.41,424.699,449.314z"
			/>
		<path style="fill:#84B5CB;" d="M137.539,162.153l-12.448,12.535L50.232,99.83l12.447-12.535c6.904-6.886,18.078-6.886,24.982,0
			l49.877,49.964c3.306,3.299,5.163,7.777,5.164,12.447C142.702,154.376,140.844,158.854,137.539,162.153z"/>
	</g>
	<path style="fill:#CC4B4C;" d="M512,35.318v79.448c0,4.875-3.952,8.828-8.828,8.828H353.104c-4.875,0-8.828,3.952-8.828,8.828
		v9.329c0,3.307-1.848,6.336-4.788,7.849c-2.94,1.513-6.479,1.256-9.17-0.666l-97.103-70.737c-2.382-1.701-3.766-4.473-3.694-7.399
		c0.072-2.926,1.589-5.627,4.052-7.21l97.103-62.178c2.716-1.746,6.169-1.87,9.004-0.322c2.834,1.547,4.598,4.519,4.597,7.748v8.828
		c0,4.875,3.952,8.828,8.828,8.828h150.069C508.048,26.49,512,30.442,512,35.318z"/>
	<path style="fill:#ffffff;" d="M229.518,203.042v79.448c0,4.875,3.952,8.828,8.828,8.828h150.069c4.875,0,8.828,3.952,8.828,8.828
		v9.329c0,3.307,1.848,6.336,4.788,7.849c2.94,1.513,6.479,1.256,9.17-0.666l97.103-70.738c2.382-1.701,3.766-4.473,3.694-7.399
		c-0.072-2.926-1.589-5.627-4.051-7.21l-97.103-62.163c-2.716-1.746-6.169-1.87-9.004-0.323c-2.834,1.547-4.598,4.519-4.598,7.748
		v8.813c0,4.875-3.952,8.828-8.828,8.828H238.345C233.47,194.214,229.518,198.167,229.518,203.042z"/>
</g>
<g>
</g>
<g>
</g>
<g>
</g>
<g>
</g>
<g>
</g>
<g>
</g>
<g>
</g>
<g>
</g>
<g>
</g>
<g>
</g>
<g>
</g>
<g>
</g>
<g>
</g>
<g>
</g>
<g>
</g>
</svg>
