<?xml version="1.0" encoding="UTF-8" standalone="no"?>
<!-- Generator: Adobe Illustrator 19.0.0, SVG Export Plug-In . SVG Version: 6.00 Build 0)  -->

<svg
   xmlns:dc="http://purl.org/dc/elements/1.1/"
   xmlns:cc="http://creativecommons.org/ns#"
   xmlns:rdf="http://www.w3.org/1999/02/22-rdf-syntax-ns#"
   xmlns:svg="http://www.w3.org/2000/svg"
   xmlns="http://www.w3.org/2000/svg"
   xmlns:sodipodi="http://sodipodi.sourceforge.net/DTD/sodipodi-0.dtd"
   xmlns:inkscape="http://www.inkscape.org/namespaces/inkscape"
   version="1.1"
   id="Capa_1"
   x="0px"
   y="0px"
   viewBox="0 0 512.018 512.018"
   style="enable-background:new 0 0 512.018 512.018;"
   xml:space="preserve"
   inkscape:version="0.91 r13725"
   sodipodi:docname="phone-call.svg"><metadata
     id="metadata55"><rdf:RDF><cc:Work
         rdf:about=""><dc:format>image/svg+xml</dc:format><dc:type
           rdf:resource="http://purl.org/dc/dcmitype/StillImage" /></cc:Work></rdf:RDF></metadata><defs
     id="defs53" /><sodipodi:namedview
     pagecolor="#ffffff"
     bordercolor="#666666"
     borderopacity="1"
     objecttolerance="10"
     gridtolerance="10"
     guidetolerance="10"
     inkscape:pageopacity="0"
     inkscape:pageshadow="2"
     inkscape:window-width="692"
     inkscape:window-height="480"
     id="namedview51"
     showgrid="false"
     inkscape:zoom="0.46092129"
     inkscape:cx="256.009"
     inkscape:cy="155.56741"
     inkscape:window-x="0"
     inkscape:window-y="0"
     inkscape:window-maximized="0"
     inkscape:current-layer="g7" /><g
     id="g3"><path
       style="fill:#1464c8;fill-opacity:1"
       d="M424.7,424.349l-49.964-49.876c-3.298-3.306-7.777-5.164-12.447-5.164   c-4.67,0-9.148,1.858-12.447,5.164l-12.535,12.447l-20.039,20.039c-3.79,3.879-9.188,5.744-14.565,5.032   c-24.011-3.178-73.976-21.274-127.647-75.034c-53.761-53.672-71.858-103.636-75.034-127.647c-0.713-5.377,1.151-10.775,5.03-14.566   l20.038-20.039l12.448-12.535c3.306-3.299,5.163-7.777,5.163-12.447s-1.858-9.148-5.163-12.447L87.661,87.312   c-6.904-6.886-18.078-6.886-24.982,0L50.233,99.847L26.31,123.682c-55.791,55.79-19.95,181.937,80.067,281.953   s226.162,135.857,281.953,80.066l23.923-23.835l12.447-12.535C431.586,442.428,431.586,431.253,424.7,424.349z"
       id="path5" /><g
       id="g7"><path
         style="fill:#00a6fb;fill-opacity:1"
         d="M424.7,449.332l-12.447,12.535l-6.268-6.268l-68.679-68.679l12.535-12.447    c3.298-3.306,7.777-5.164,12.447-5.164c4.67,0,9.148,1.858,12.447,5.164l49.964,49.876    C431.585,431.253,431.585,442.428,424.7,449.332z"
         id="path9" /><path
         style="fill:#00a6fb;fill-opacity:1"
         d="M137.539,162.17l-12.448,12.535L50.233,99.847L62.68,87.312c6.904-6.886,18.078-6.886,24.982,0    l49.877,49.964c3.306,3.299,5.163,7.777,5.163,12.447C142.703,154.393,140.845,158.872,137.539,162.17z"
         id="path11" /></g><path
       style="fill:#00a6fb;fill-opacity:1"
       d="M512.004,19.163v191.206c0.387,10.155-7.502,18.715-17.655,19.156H317.797l-55.526,68.061   c-2.535,2.519-6.336,3.267-9.636,1.897c-3.301-1.37-5.454-4.591-5.459-8.164v-61.793h-17.655   c-10.153-0.441-18.042-9.001-17.655-19.156V19.163c-0.387-10.155,7.502-18.715,17.655-19.156h264.828   C504.502,0.448,512.392,9.008,512.004,19.163z"
       id="path13" /><g
       id="g15"><path
         style="fill:#E6E7E8;"
         d="M361.935,167.731c-2.341,0.001-4.587-0.929-6.243-2.585c-1.656-1.656-2.585-3.901-2.585-6.243    v-9.517c0.055-8.752,6.495-16.151,15.155-17.414c12.156-1.771,23.028-8.518,30.01-18.625s9.446-22.663,6.8-34.659    c-3.648-16.784-16.758-29.893-33.543-33.539c-13.17-2.862-26.928,0.398-37.414,8.866c-10.34,8.368-16.34,20.965-16.319,34.267    c0,4.875-3.952,8.828-8.828,8.828s-8.828-3.952-8.828-8.828c0-32.983,25.902-60.152,58.847-61.727    c32.945-1.575,61.32,23.001,64.466,55.833c3.146,32.832-20.047,62.348-52.692,67.058v9.457c0.001,2.341-0.929,4.587-2.585,6.243    C366.522,166.802,364.277,167.732,361.935,167.731z"
         id="path17" /><path
         style="fill:#E6E7E8;"
         d="M361.935,203.042c-2.337-0.035-4.575-0.949-6.268-2.56c-0.353-0.444-0.707-0.884-1.06-1.323    c-0.335-0.492-0.603-1.027-0.797-1.591c-0.254-0.501-0.431-1.037-0.526-1.591c-0.104-0.582-0.163-1.172-0.177-1.763    c0.012-1.154,0.251-2.295,0.703-3.358c0.449-1.069,1.077-2.053,1.858-2.91c0.842-0.8,1.83-1.43,2.909-1.858    c2.151-0.879,4.561-0.879,6.711,0c2.215,0.807,3.96,2.552,4.767,4.767c0.453,1.062,0.693,2.203,0.707,3.358    c-0.016,0.591-0.075,1.18-0.177,1.763c-0.098,0.553-0.277,1.089-0.53,1.59c-0.194,0.563-0.462,1.098-0.797,1.591    c-0.349,0.44-0.703,0.879-1.056,1.323c-0.86,0.778-1.845,1.405-2.914,1.854C364.242,202.83,363.093,203.072,361.935,203.042z"
         id="path19" /></g></g><g
     id="g21" /><g
     id="g23" /><g
     id="g25" /><g
     id="g27" /><g
     id="g29" /><g
     id="g31" /><g
     id="g33" /><g
     id="g35" /><g
     id="g37" /><g
     id="g39" /><g
     id="g41" /><g
     id="g43" /><g
     id="g45" /><g
     id="g47" /><g
     id="g49" /></svg>