<?xml version="1.0" encoding="iso-8859-1"?>
<!-- Generator: Adobe Illustrator 19.0.0, SVG Export Plug-In . SVG Version: 6.00 Build 0)  -->
<svg version="1.1" id="Capa_1" xmlns="http://www.w3.org/2000/svg" xmlns:xlink="http://www.w3.org/1999/xlink" x="0px" y="0px"
	 viewBox="0 0 512 512" style="enable-background:new 0 0 512 512;" xml:space="preserve">
<g>
	<g>
		<path style="fill:#4482C3;" d="M409.112,73.871c-2.198-0.808-4.627-0.71-6.752,0.273c-2.125,0.983-3.773,2.77-4.58,4.969
			l-7.549,20.565C365.36,55.151,314.104,26.483,256,26.483c-82.75,0-150.069,68.224-150.069,141.241
			c0,4.875,3.952,8.828,8.828,8.828s8.828-3.952,8.828-8.828c0-63.276,59.401-123.586,132.414-123.586
			c50.728,0,96.852,25.612,118.724,64.123l-22.258-8.174c-2.96-1.087-6.275-0.513-8.696,1.507c-2.421,2.02-3.581,5.178-3.043,8.285
			c0.538,3.107,2.693,5.691,5.653,6.778l41.435,15.216c4.324,1.633,9.167-0.428,10.987-4.677c0.066-0.123,0.155-0.225,0.214-0.35
			c0.032-0.079,0.102-0.135,0.131-0.214l15.212-41.432C416.037,80.622,413.688,75.551,409.112,73.871z"/>
		<path style="fill:#4482C3;" d="M397.241,335.448c-2.341-0.001-4.587,0.929-6.243,2.585c-1.656,1.656-2.585,3.901-2.585,6.243
			c0,63.276-59.401,123.586-132.414,123.586c-50.728,0-96.852-25.612-118.724-64.123l22.258,8.174
			c4.576,1.681,9.647-0.666,11.328-5.242c1.681-4.576-0.666-9.647-5.242-11.328l-41.435-15.216
			c-4.324-1.633-9.167,0.428-10.987,4.677c-0.066,0.123-0.155,0.225-0.214,0.35c-0.032,0.079-0.102,0.135-0.131,0.214
			l-15.212,41.432c-1.681,4.578,0.668,9.651,5.246,11.332c4.578,1.681,9.651-0.668,11.332-5.246l7.549-20.565
			c24.872,44.526,76.128,73.194,134.231,73.194c82.75,0,150.069-68.224,150.069-141.241c0.001-2.341-0.929-4.587-2.585-6.243
			C401.828,336.378,399.583,335.448,397.241,335.448z"/>
	</g>
	<ellipse style="fill:#CC4B4C;" cx="114.759" cy="256" rx="114.759" ry="97.103"/>
	<ellipse style="fill:#ffffff;" cx="397.241" cy="256" rx="114.759" ry="97.103"/>
	<g>
		<path style="fill:#FFFFFF;" d="M114.759,194.207c-19.493,0.021-35.29,15.818-35.31,35.31c0,4.875,3.952,8.828,8.828,8.828
			c4.875,0,8.828-3.952,8.828-8.828c0-9.751,7.904-17.655,17.655-17.655s17.655,7.904,17.655,17.655s-7.904,17.655-17.655,17.655
			c-2.341-0.001-4.587,0.929-6.243,2.585c-1.656,1.656-2.585,3.901-2.585,6.243v17.655c0,4.875,3.952,8.828,8.828,8.828
			s8.828-3.952,8.828-8.828v-9.949c17.217-4.445,28.442-20.999,26.202-38.638S132.54,194.207,114.759,194.207z"/>
		<path style="fill:#FFFFFF;" d="M121.026,302.698c-2.536-2.509-6.334-3.241-9.621-1.854c-1.081,0.426-2.07,1.055-2.914,1.854
			c-0.78,0.858-1.407,1.844-1.854,2.914c-0.497,1.046-0.739,2.196-0.707,3.354c-0.031,2.953,1.433,5.722,3.89,7.361
			c2.457,1.638,5.576,1.924,8.291,0.76c1.069-0.449,2.054-1.075,2.914-1.854c2.528-2.525,3.263-6.337,1.854-9.621
			C122.433,304.542,121.806,303.556,121.026,302.698z"/>
		<path style="fill:#FFFFFF;" d="M432.345,298.241l-18.069-82.19c-2.112-7.763-9.206-13.115-17.25-13.016
			c-8.044,0.099-15.003,5.626-16.923,13.438l-17.965,81.767c-1.047,4.761,1.963,9.47,6.724,10.517
			c4.761,1.047,9.47-1.963,10.517-6.724l6.164-28.379h23.325l6.235,28.379c0.89,4.044,4.471,6.927,8.612,6.931
			c0.641-0.001,1.279-0.071,1.905-0.207c2.287-0.502,4.28-1.893,5.542-3.865C432.423,302.921,432.849,300.528,432.345,298.241z
			 M389.377,256l7.761-35.733L404.989,256H389.377z"/>
	</g>
</g>
<g>
</g>
<g>
</g>
<g>
</g>
<g>
</g>
<g>
</g>
<g>
</g>
<g>
</g>
<g>
</g>
<g>
</g>
<g>
</g>
<g>
</g>
<g>
</g>
<g>
</g>
<g>
</g>
<g>
</g>
</svg>
