<?xml version="1.0" encoding="iso-8859-1"?>
<!-- Generator: Adobe Illustrator 19.0.0, SVG Export Plug-In . SVG Version: 6.00 Build 0)  -->
<svg version="1.1" id="Capa_1" xmlns="http://www.w3.org/2000/svg" xmlns:xlink="http://www.w3.org/1999/xlink" x="0px" y="0px"
	 viewBox="0 0 512.108 512.108" style="enable-background:new 0 0 512.108 512.108;" xml:space="preserve">
<g transform="translate(0 -1)">
	<g>
		<path style="fill:#4482C3;" d="M486.455,257.054c-0.092-110.142-78.035-204.855-186.1-226.142
			c-2.996-0.593-6.081,0.46-8.088,2.762c-2.007,2.302-2.631,5.501-1.636,8.389c0.995,2.887,3.458,5.023,6.457,5.599
			c103.723,20.342,176.919,113.56,172.077,219.149S382.903,458.527,277.753,469.29l9.936-9.936
			c3.281-3.341,3.256-8.701-0.054-12.012c-3.311-3.311-8.671-3.335-12.012-0.054l-25.595,25.594c-3.324,3.34-3.324,8.738,0,12.078
			l25.595,25.594c2.149,2.188,5.307,3.055,8.271,2.27s5.28-3.1,6.065-6.065c0.785-2.965-0.082-6.122-2.27-8.271l-11.933-11.933
			C394.845,476.205,486.297,376.592,486.455,257.054z"/>
		<path style="fill:#4482C3;" d="M263.932,38.446c1.313-3.189,0.584-6.854-1.848-9.298L236.488,3.554
			c-2.149-2.188-5.307-3.055-8.271-2.27s-5.28,3.1-6.065,6.065c-0.785,2.965,0.082,6.122,2.27,8.271l11.933,11.933
			C121.913,37.371,32.184,129.985,25.992,244.681s73.044,216.432,185.764,238.515c2.996,0.593,6.081-0.46,8.088-2.762
			c2.007-2.302,2.631-5.501,1.636-8.389c-0.995-2.888-3.458-5.023-6.457-5.599C111.299,446.104,38.103,352.885,42.946,247.297
			S129.208,55.581,234.358,44.818l-9.936,9.936c-2.188,2.149-3.055,5.307-2.27,8.271c0.785,2.965,3.1,5.28,6.065,6.065
			c2.965,0.785,6.122-0.082,8.271-2.27l25.595-25.594C262.877,40.431,263.505,39.486,263.932,38.446z"/>
	</g>
	<g>
		<path style="fill:#ffffff;" d="M153.655,333.854v59.733c0,3.451,2.079,6.563,5.268,7.884c3.189,1.321,6.859,0.591,9.3-1.85
			l53.699-65.767"/>
		<path style="fill:#ffffff;" d="M221.922,333.854h162.133c9.414-0.028,17.039-7.652,17.067-17.067v-153.6
			c-0.028-9.414-7.652-17.039-17.067-17.067h-256c-9.414,0.028-17.039,7.652-17.067,17.067v153.6
			c0.028,9.414,7.652,17.039,17.067,17.067h25.6"/>
	</g>
	<g>
		<path style="fill:#E6E7E8;" d="M262.114,293.662c-0.83-0.754-1.782-1.362-2.817-1.796c-2.079-0.85-4.408-0.85-6.487,0
			c-1.044,0.413-1.999,1.023-2.813,1.796c-0.754,0.828-1.362,1.78-1.796,2.813c-0.436,1.027-0.667,2.13-0.679,3.246
			c0.014,0.572,0.071,1.141,0.171,1.704c0.091,0.535,0.263,1.053,0.508,1.537c0.187,0.544,0.447,1.062,0.771,1.538
			c0.341,0.425,0.683,0.85,1.025,1.279c1.636,1.558,3.8,2.441,6.058,2.475c1.119,0.029,2.229-0.205,3.242-0.683
			c1.033-0.434,1.986-1.04,2.817-1.792c0.341-0.429,0.683-0.854,1.021-1.279c0.324-0.476,0.583-0.993,0.771-1.538
			c0.245-0.485,0.418-1.003,0.513-1.537c0.098-0.563,0.155-1.133,0.171-1.704c-0.013-1.116-0.245-2.219-0.683-3.246
			C263.471,295.443,262.866,294.492,262.114,293.662z"/>
		<path style="fill:#E6E7E8;" d="M297.589,204.446c-3.639-15.697-15.895-27.955-31.592-31.596
			c-12.783-3.005-26.238,0.001-36.525,8.163c-10.187,8.077-16.113,20.375-16.083,33.375c0,4.713,3.821,8.533,8.533,8.533
			s8.533-3.821,8.533-8.533c-0.009-12.961,9.662-23.887,22.528-25.451c12.866-1.565,24.874,6.725,27.972,19.31
			c1.642,6.74,0.487,13.857-3.202,19.732c-3.689,5.875-9.598,10.007-16.381,11.456c-8.016,1.556-13.816,8.559-13.85,16.725v9.429
			c0,4.713,3.82,8.533,8.533,8.533s8.533-3.82,8.533-8.533l0.308-9.454c11.26-2.393,21.079-9.228,27.233-18.958
			C298.284,227.446,300.252,215.646,297.589,204.446z"/>
	</g>
</g>
<g>
</g>
<g>
</g>
<g>
</g>
<g>
</g>
<g>
</g>
<g>
</g>
<g>
</g>
<g>
</g>
<g>
</g>
<g>
</g>
<g>
</g>
<g>
</g>
<g>
</g>
<g>
</g>
<g>
</g>
</svg>
