<?xml version="1.0" encoding="iso-8859-1"?>
<!-- Generator: Adobe Illustrator 19.0.0, SVG Export Plug-In . SVG Version: 6.00 Build 0)  -->
<svg version="1.1" id="Capa_1" xmlns="http://www.w3.org/2000/svg" xmlns:xlink="http://www.w3.org/1999/xlink" x="0px" y="0px"
	 viewBox="0 0 512 512" style="enable-background:new 0 0 512 512;" xml:space="preserve">
<g>
	<path style="fill:#35495E;" d="M183.261,291.31l-60.381,60.381l-31.25,31.25L7.769,466.802c-10.328,10.339-10.328,27.09,0,37.429
		C12.727,509.205,19.461,512,26.483,512s13.756-2.795,18.714-7.768l83.862-83.862l31.25-31.25l60.381-60.381L183.261,291.31z"/>
	
		<rect x="103.872" y="359.553" transform="matrix(-0.7071 0.7071 -0.7071 -0.7071 488.0265 569.8864)" style="fill:#547580;" width="44.226" height="52.93"/>
	<circle style="fill:#90BAE1;" cx="256.001" cy="256" r="105.931"/>
	<g>
		<path style="fill:#B0D3F0;" d="M269.802,177.758c-27.936-4.854-56.349,5.488-74.629,27.164c-3.138,3.728-2.659,9.294,1.069,12.431
			c3.728,3.138,9.294,2.659,12.431-1.069c14.222-16.863,36.324-24.913,58.06-21.147c4.791,0.831,9.352-2.371,10.198-7.16
			C277.777,183.189,274.589,178.619,269.802,177.758L269.802,177.758z"/>
		<path style="fill:#B0D3F0;" d="M187.975,235.034c-4.802-0.833-9.373,2.374-10.224,7.172c-0.571,3.267-0.943,6.567-1.112,9.879
			c-0.237,4.868,3.511,9.01,8.379,9.259c0.147,0.009,0.293,0.009,0.448,0.009c4.701-0.005,8.575-3.693,8.81-8.388
			c0.13-2.584,0.421-5.158,0.871-7.706C195.985,240.456,192.776,235.882,187.975,235.034z"/>
	</g>
	<path style="fill:#95A5A5;" d="M452.767,306.14c-4.8,18.782-12.293,36.771-22.246,53.407l24.629,57.379
		c-5.65,6.974-11.741,13.683-18.097,20.127c-6.444,6.356-13.153,12.447-20.127,18.097l-57.379-24.629
		c-16.636,9.953-34.625,17.446-53.407,22.246l-23.128,57.821c-8.972,0.959-17.989,1.431-27.012,1.412v-97.103
		c87.756,0,158.897-71.14,158.897-158.897S343.757,97.103,256.001,97.103S97.104,168.244,97.104,256H0.001
		c-0.018-9.023,0.453-18.04,1.412-27.012l57.821-23.128c4.8-18.782,12.293-36.771,22.246-53.407L56.85,95.073
		c5.65-6.974,11.741-13.683,18.097-20.127C81.391,68.59,88.1,62.499,95.074,56.849l57.379,24.629
		c16.636-9.953,34.625-17.445,53.407-22.246l23.128-57.821c17.959-1.883,36.066-1.883,54.025,0l23.128,57.821
		c18.782,4.8,36.771,12.293,53.407,22.246l57.379-24.629c6.974,5.65,13.683,11.741,20.127,18.097
		c6.356,6.444,12.447,13.153,18.097,20.127l-24.629,57.379c9.953,16.636,17.446,34.625,22.246,53.407l57.821,23.128
		c1.883,17.959,1.883,36.066,0,54.025L452.767,306.14z"/>
</g>
<g>
</g>
<g>
</g>
<g>
</g>
<g>
</g>
<g>
</g>
<g>
</g>
<g>
</g>
<g>
</g>
<g>
</g>
<g>
</g>
<g>
</g>
<g>
</g>
<g>
</g>
<g>
</g>
<g>
</g>
</svg>
