<?xml version="1.0" encoding="iso-8859-1"?>
<!-- Generator: Adobe Illustrator 19.0.0, SVG Export Plug-In . SVG Version: 6.00 Build 0)  -->
<svg version="1.1" id="Capa_1" xmlns="http://www.w3.org/2000/svg" xmlns:xlink="http://www.w3.org/1999/xlink" x="0px" y="0px"
	 viewBox="0 0 512.011 512.011" style="enable-background:new 0 0 512.011 512.011;" xml:space="preserve">
<g>
	<path style="fill:#AF8066;" d="M502.466,416.667l-136.651,87.57c-7.951,5.034-17.16,7.726-26.571,7.768H147.509
		c-46.61,0-59.233-23.923-59.233-23.923v-2.56H61.793V379.592h26.483v0.618c23.57-35.928,82.361-35.928,82.361-35.928h4.502
		c15.209,0.042,29.921,5.415,41.578,15.183c11.58,9.863,26.279,15.305,41.49,15.36h38.135c13.002,0.072,24.966,7.115,31.338,18.45
		l0.618,1.059c6.088,10.658,4.703,24.01-3.443,33.192h16.684c3.124,0.033,6.23-0.474,9.181-1.501l134.885-47.404
		c2.105-0.709,4.312-1.067,6.532-1.059c6.339,0.069,12.256,3.192,15.89,8.386c3.369,4.801,4.677,10.75,3.632,16.521
		C510.615,408.239,507.304,413.352,502.466,416.667z"/>
	<path style="fill:#7D6599;" d="M8.828,361.936h70.621c4.875,0,8.828,3.952,8.828,8.828V494.35c0,4.875-3.952,8.828-8.828,8.828
		H8.828c-4.875,0-8.828-3.952-8.828-8.828V370.764C0,365.889,3.952,361.936,8.828,361.936z"/>
	<path style="fill:#3D324C;" d="M35.31,467.867c-4.007,0-7.513-2.693-8.547-6.563c-1.035-3.871,0.661-7.953,4.132-9.953
		c3.472-1.999,7.854-1.416,10.683,1.421c1.611,1.693,2.525,3.931,2.56,6.268c-0.014,1.153-0.254,2.293-0.707,3.353
		c-0.448,1.07-1.075,2.055-1.854,2.914C39.884,466.917,37.647,467.831,35.31,467.867z"/>
	<path style="fill:#7F5B53;" d="M220.698,451.708c-3.852,0.004-7.262-2.491-8.424-6.164c-1.162-3.673,0.193-7.675,3.347-9.888
		l5.293-3.715c12.126-8.561,26.596-13.179,41.44-13.224H310.5c4.875,0,8.828,3.952,8.828,8.828c0,4.875-3.952,8.828-8.828,8.828
		h-48.147c-11.226,0.05-22.164,3.555-31.328,10.039l-5.267,3.694C224.278,451.148,222.51,451.708,220.698,451.708z"/>
	<path style="fill:#95A5A5;" d="M511.029,185.65c1.295-11.912,1.295-23.928,0-35.84l-47.404-13.506
		c-2.783-10.783-7.062-21.123-12.712-30.72l23.923-43.079c-7.415-9.416-15.919-17.92-25.335-25.335l-43.079,23.923
		c-9.597-5.65-19.937-9.929-30.72-12.712L362.196,0.976c-11.912-1.295-23.929-1.295-35.841,0L312.85,48.381
		c-10.783,2.783-21.123,7.062-30.72,12.712L239.051,37.17c-9.416,7.415-17.92,15.919-25.335,25.335l23.923,43.079
		c-5.65,9.597-9.929,19.937-12.712,30.72l-47.404,13.506c-1.295,11.912-1.295,23.928,0,35.84l47.404,13.506
		c2.783,10.783,7.062,21.123,12.712,30.72l-23.923,43.079c7.477,9.361,15.975,17.858,25.335,25.335l43.079-23.923
		c9.597,5.65,19.937,9.929,30.72,12.712l13.506,47.404c11.912,1.295,23.929,1.295,35.841,0l13.506-47.404
		c10.783-2.783,21.123-7.062,30.72-12.712l43.079,23.923c9.361-7.477,17.858-15.975,25.335-25.335l-23.923-43.079
		c5.65-9.597,9.929-19.937,12.712-30.72L511.029,185.65z M344.276,247.178c-43.878,0-79.448-35.57-79.448-79.448
		s35.57-79.448,79.448-79.448s79.448,35.57,79.448,79.448C423.72,211.606,388.152,247.174,344.276,247.178z"/>
</g>
<g>
</g>
<g>
</g>
<g>
</g>
<g>
</g>
<g>
</g>
<g>
</g>
<g>
</g>
<g>
</g>
<g>
</g>
<g>
</g>
<g>
</g>
<g>
</g>
<g>
</g>
<g>
</g>
<g>
</g>
</svg>
