<?xml version="1.0" encoding="iso-8859-1"?>
<!-- Generator: Adobe Illustrator 19.0.0, SVG Export Plug-In . SVG Version: 6.00 Build 0)  -->
<svg version="1.1" id="Capa_1" xmlns="http://www.w3.org/2000/svg" xmlns:xlink="http://www.w3.org/1999/xlink" x="0px" y="0px"
	 viewBox="0 0 512.001 512.001" style="enable-background:new 0 0 512.001 512.001;" xml:space="preserve">
<g>
	<path style="fill:#95A5A5;" d="M207.449,0l44.138,0.001c9.023-0.018,18.04,0.453,27.012,1.412l23.128,57.821
		c18.782,4.8,36.771,12.293,53.407,22.246l57.379-24.629c6.974,5.65,13.683,11.741,20.127,18.097
		c6.356,6.444,12.447,13.153,18.097,20.127l-24.629,57.379c9.953,16.636,17.446,34.625,22.246,53.407l57.821,23.128
		c1.883,17.959,1.883,36.066,0,54.025l-57.821,23.128c-4.8,18.782-12.293,36.771-22.246,53.407l24.629,57.379
		c-5.65,6.974-11.741,13.683-18.097,20.127c-6.444,6.356-13.153,12.447-20.127,18.097l-57.379-24.629
		c-16.636,9.953-34.625,17.446-53.407,22.246l-23.128,57.821c-8.972,0.959-17.989,1.431-27.012,1.412l-44.138,0.001V406.069
		l17.655,6.532c8.745,1.527,17.606,2.295,26.483,2.295c87.756,0,158.897-71.14,158.897-158.897S339.343,97.104,251.587,97.104
		c-8.877,0-17.738,0.768-26.483,2.295l-17.655,15.36V0z"/>
	<g>
		<path style="fill:#84B5CB;" d="M22.069,176.552h17.655v44.138H22.069c-9.751,0-17.655-7.904-17.655-17.655v-8.828
			C4.414,184.457,12.319,176.552,22.069,176.552z"/>
		<path style="fill:#84B5CB;" d="M22.069,256.001h17.655v88.276H22.069c-9.751,0-17.655-7.904-17.655-17.655v-52.966
			C4.414,263.905,12.319,256.001,22.069,256.001z"/>
	</g>
	<path style="fill:#35495E;" d="M206.494,0.001H102.472c-10.278,0-18.61,8.332-18.61,18.61v474.78c0,10.278,8.332,18.61,18.61,18.61
		h104.022c4.936,0,9.669-1.961,13.159-5.451c3.49-3.49,5.451-8.224,5.451-13.159V18.61C225.104,8.332,216.772,0.001,206.494,0.001z"
		/>
	<path style="fill:#547580;" d="M53.363,132.414h202.24c12.408,0,22.466,10.058,22.466,22.466v202.24
		c0,12.408-10.058,22.466-22.466,22.466H53.363c-12.408,0-22.466-10.058-22.466-22.466v-202.24
		C30.897,142.473,40.956,132.414,53.363,132.414z"/>
	<path style="fill:#F29C1F;" d="M232.822,313.922L160.487,180.41c-1.074-2.35-3.42-3.858-6.004-3.858s-4.93,1.508-6.004,3.858
		L76.143,313.922c-1.486,2.414-1.651,5.415-0.439,7.977c1.211,2.562,3.636,4.339,6.444,4.723h144.67
		c2.808-0.384,5.232-2.16,6.444-4.723C234.473,319.336,234.308,316.335,232.822,313.922z"/>
	<g>
		<path style="fill:#E6E7E8;" d="M157.837,283.19c-3.291-1.344-7.065-0.617-9.621,1.854c-0.799,0.844-1.428,1.833-1.854,2.914
			c-0.943,2.136-0.943,4.571,0,6.707c0.449,1.069,1.075,2.054,1.854,2.914c3.481,3.414,9.054,3.414,12.534,0
			c0.778-0.859,1.405-1.845,1.854-2.914c0.453-1.061,0.693-2.2,0.707-3.354c-0.035-2.337-0.949-4.575-2.56-6.268
			C159.891,284.265,158.906,283.639,157.837,283.19z"/>
		<path style="fill:#E6E7E8;" d="M154.483,220.69c-2.342-0.001-4.588,0.928-6.244,2.584c-1.656,1.656-2.585,3.902-2.584,6.244
			v26.483c0,4.875,3.952,8.828,8.828,8.828s8.828-3.952,8.828-8.828v-26.483c0.001-2.342-0.928-4.588-2.584-6.244
			C159.071,221.618,156.825,220.689,154.483,220.69z"/>
	</g>
</g>
<g>
</g>
<g>
</g>
<g>
</g>
<g>
</g>
<g>
</g>
<g>
</g>
<g>
</g>
<g>
</g>
<g>
</g>
<g>
</g>
<g>
</g>
<g>
</g>
<g>
</g>
<g>
</g>
<g>
</g>
</svg>
