<?xml version="1.0" encoding="iso-8859-1"?>
<!-- Generator: Adobe Illustrator 19.0.0, SVG Export Plug-In . SVG Version: 6.00 Build 0)  -->
<svg version="1.1" id="Capa_1" xmlns="http://www.w3.org/2000/svg" xmlns:xlink="http://www.w3.org/1999/xlink" x="0px" y="0px"
	 viewBox="0 0 512.005 512.005" style="enable-background:new 0 0 512.005 512.005;" xml:space="preserve">
<g>
	<path style="fill:#BDC3C7;" d="M460.349,48.786l-14.557,21.835v194.207h-35.31V70.621l-14.557-21.835
		c-1.892-2.838-1.98-6.513-0.225-9.438L419.31,0h17.655l23.609,39.348C462.329,42.273,462.242,45.948,460.349,48.786z"/>
	<g>
		<path style="fill:#84B5CB;" d="M30.896,176.552h17.655v44.138H30.896c-9.751,0-17.655-7.904-17.655-17.655v-8.828
			C13.241,184.456,21.146,176.552,30.896,176.552z"/>
		<path style="fill:#84B5CB;" d="M30.896,256h17.655v88.276H30.896c-9.751,0-17.655-7.904-17.655-17.655v-52.966
			C13.241,263.904,21.146,256,30.896,256z"/>
	</g>
	<path style="fill:#35495E;" d="M215.321,0H111.299c-10.278,0-18.61,8.332-18.61,18.61v474.78c0,10.278,8.332,18.61,18.61,18.61
		h104.022c4.936,0,9.669-1.961,13.159-5.451c3.49-3.49,5.451-8.224,5.451-13.159V18.61C233.931,8.332,225.599,0,215.321,0z"/>
	<path style="fill:#547580;" d="M62.19,132.414h202.24c12.408,0,22.466,10.058,22.466,22.466v202.24
		c0,12.408-10.058,22.466-22.466,22.466H62.19c-12.408,0-22.466-10.058-22.466-22.466V154.88
		C39.724,142.472,49.782,132.414,62.19,132.414z"/>
	<path style="fill:#E6E7E8;" d="M241.876,267.653c1.177-7.724,1.177-15.582,0-23.306l-15.89-5.297
		c-1.435-5.405-3.572-10.598-6.356-15.448l7.503-14.918c-4.711-6.241-10.267-11.797-16.508-16.508l-14.919,7.503
		c-4.85-2.784-10.043-4.921-15.448-6.357l-5.295-15.889c-7.724-1.177-15.582-1.177-23.306,0l-5.295,15.889
		c-5.405,1.435-10.598,3.573-15.448,6.357l-14.919-7.504c-6.241,4.711-11.797,10.267-16.508,16.508l7.503,14.919
		c-2.784,4.85-4.921,10.043-6.356,15.448l-15.89,5.297c-1.177,7.724-1.177,15.582,0,23.306l15.89,5.295
		c1.435,5.405,3.571,10.599,6.356,15.448l-7.503,14.919c4.711,6.241,10.267,11.797,16.508,16.508l14.919-7.503
		c4.85,2.784,10.043,4.921,15.448,6.356l5.295,15.889c7.724,1.178,15.582,1.178,23.306,0l5.295-15.889
		c5.405-1.435,10.599-3.571,15.448-6.356l14.919,7.503c6.241-4.711,11.797-10.267,16.508-16.508l-7.503-14.919
		c2.784-4.85,4.921-10.043,6.356-15.448L241.876,267.653z M163.31,282.483c-14.626,0-26.483-11.857-26.483-26.483
		c0-14.626,11.857-26.483,26.483-26.483c14.626,0,26.483,11.857,26.483,26.483c0.009,7.026-2.778,13.768-7.747,18.736
		C177.078,279.705,170.336,282.492,163.31,282.483z"/>
	<path style="fill:#F29C1F;" d="M463.448,326.621c-0.003,16.682,11.669,31.091,27.989,34.551c4.192,0.774,7.256,4.398,7.322,8.661
		v69.144c0.487,37.812-28.278,69.596-65.951,72.873c-19.5,1.295-38.664-5.549-52.932-18.903
		c-14.268-13.354-22.363-32.025-22.359-51.567v-71.547c0.065-4.263,3.129-7.887,7.322-8.661
		c16.318-3.462,27.989-17.87,27.989-34.551c0-16.682-11.671-31.089-27.989-34.551c-4.192-0.774-7.256-4.398-7.322-8.661v-18.581
		c0-9.751,7.905-17.655,17.655-17.655h105.931c9.751,0,17.655,7.904,17.655,17.655v18.581c-0.065,4.263-3.129,7.887-7.322,8.661
		C475.117,295.529,463.445,309.938,463.448,326.621z"/>
	<path style="fill:#E57E25;" d="M419.31,370.759h17.655c4.875,0,8.828,3.952,8.828,8.828v79.448c0,9.751-7.905,17.655-17.655,17.655
		s-17.655-7.905-17.655-17.655v-79.448C410.482,374.711,414.435,370.759,419.31,370.759z"/>
</g>
<g>
</g>
<g>
</g>
<g>
</g>
<g>
</g>
<g>
</g>
<g>
</g>
<g>
</g>
<g>
</g>
<g>
</g>
<g>
</g>
<g>
</g>
<g>
</g>
<g>
</g>
<g>
</g>
<g>
</g>
</svg>
