<?xml version="1.0" encoding="iso-8859-1"?>
<!-- Generator: Adobe Illustrator 19.0.0, SVG Export Plug-In . SVG Version: 6.00 Build 0)  -->
<svg version="1.1" id="Capa_1" xmlns="http://www.w3.org/2000/svg" xmlns:xlink="http://www.w3.org/1999/xlink" x="0px" y="0px"
	 viewBox="0 0 512 512" style="enable-background:new 0 0 512 512;" xml:space="preserve">
<g>
	<path style="fill:#7F8C8D;" d="M477.462,187.357c-2.732,10.437-6.878,20.452-12.323,29.765l13.451,26.988
		c-8.622,11.631-18.915,21.924-30.546,30.546l-26.988-13.45c-9.314,5.445-19.328,9.591-29.765,12.323l-9.546,28.638
		c-14.33,2.082-28.886,2.082-43.216,0l-9.546-28.638c-10.437-2.732-20.451-6.878-29.765-12.323
		c-1.975-1.083-3.835-2.363-5.553-3.819l-2.951-2.698l-8.678-23.503l29.559-2.712c4.079,0,21.641,4.442,24.591,2.013
		c7.727,2.552,15.814,3.841,23.951,3.818c33.379,0.035,63.091-21.147,73.942-52.713s0.441-66.539-25.905-87.034
		s-62.805-21.982-90.732-3.699c-0.51-1.473-12.969,9.547-13.305,8.125c-4.61-19.526-8.271-27.526-22.102-38.238l17.182-9.547
		c9.314-5.444,19.329-9.59,29.765-12.322l9.546-28.637c14.33-2.083,28.886-2.083,43.216,0l9.546,28.637
		c10.437,2.732,20.451,6.878,29.765,12.322l26.988-13.45c11.631,8.622,21.924,18.916,30.546,30.546l-13.451,26.988
		c5.445,9.314,9.591,19.328,12.323,29.765l28.637,9.547c2.083,14.33,2.083,28.886,0,43.216L477.462,187.357z"/>
	<path style="fill:#BDC3C7;" d="M316.746,156.203c-2.302,0.001-4.509-0.913-6.137-2.541c-1.628-1.628-2.542-3.835-2.541-6.137
		v-8.678c0-66.992-50.606-121.492-112.814-121.492S82.441,71.856,82.441,138.847v8.678c0,4.793-3.885,8.678-8.678,8.678
		s-8.678-3.885-8.678-8.678v-8.678C65.085,62.288,123.479,0,195.254,0s130.169,62.288,130.169,138.847v8.678
		c0.001,2.302-0.914,4.509-2.541,6.137C321.255,155.29,319.048,156.204,316.746,156.203z"/>
	<path style="fill:#F29C1F;" d="M386.17,485.619V512H4.339l0-28.117c-0.013-25.471,13.904-48.911,36.274-61.093l77.407-42.262
		c10.184-5.521,16.516-16.185,16.488-27.769v-20.007c0.01-1.88-0.601-3.71-1.737-5.207c-15.307-20.014-26.513-42.853-32.975-67.207
		V138.847c0,0-10.327-78.102,95.458-78.102s95.458,78.102,95.458,78.102v121.492c-6.462,24.354-17.668,47.193-32.975,67.207
		c-1.136,1.497-1.747,3.327-1.737,5.207v20.875c-0.027,11.953,6.688,22.899,17.356,28.29l74.37,41.394
		C371.285,435.147,386.159,459.254,386.17,485.619z"/>
	<g>
		<path style="fill:#95A5A5;" d="M99.797,147.525v86.78H65.085c-9.574-0.028-17.328-7.782-17.356-17.356v-52.068
			c0.028-9.574,7.782-17.328,17.356-17.356H99.797z"/>
		<path style="fill:#95A5A5;" d="M325.424,234.305h-34.712v-86.78h34.712c9.585,0,17.356,7.771,17.356,17.356v52.068
			C342.78,226.535,335.009,234.305,325.424,234.305z"/>
	</g>
	<path style="fill:#BDC3C7;" d="M195.254,286.373c-0.014,4.787-3.891,8.664-8.678,8.678H97.627
		c-18.563-0.619-33.121-16.148-32.542-34.712v-26.034h17.356v26.034c-0.523,8.96,6.236,16.685,15.186,17.356h88.949
		C191.363,277.709,195.24,281.586,195.254,286.373z"/>
	<path style="fill:#E6E7E8;" d="M186.576,269.017h26.034c9.585,0,17.356,7.771,17.356,17.356l0,0
		c0,9.585-7.771,17.356-17.356,17.356h-26.034c-9.585,0-17.356-7.771-17.356-17.356l0,0
		C169.22,276.787,176.991,269.017,186.576,269.017z"/>
</g>
<g>
</g>
<g>
</g>
<g>
</g>
<g>
</g>
<g>
</g>
<g>
</g>
<g>
</g>
<g>
</g>
<g>
</g>
<g>
</g>
<g>
</g>
<g>
</g>
<g>
</g>
<g>
</g>
<g>
</g>
</svg>
