<?xml version="1.0" encoding="iso-8859-1"?>
<!-- Generator: Adobe Illustrator 19.0.0, SVG Export Plug-In . SVG Version: 6.00 Build 0)  -->
<svg version="1.1" id="Capa_1" xmlns="http://www.w3.org/2000/svg" xmlns:xlink="http://www.w3.org/1999/xlink" x="0px" y="0px"
	 viewBox="0 0 512 512" style="enable-background:new 0 0 512 512;" xml:space="preserve">
<g>
	<rect x="282.483" y="348.69" style="fill:#95A5A5;" width="70.621" height="105.931"/>
	<path style="fill:#BDC3C7;" d="M194.207,463.448h238.345v-17.655c-0.029-9.739-7.916-17.627-17.655-17.655h-220.69V463.448z"/>
	<path style="fill:#35495E;" d="M123.586,163.752V57.379c0.014-4.869,3.958-8.813,8.828-8.828h370.759
		c4.869,0.014,8.813,3.958,8.828,8.828v308.966c-0.014,4.869-3.958,8.813-8.828,8.828H123.586V163.752z"/>
	<g>
		<path style="fill:#BDC3C7;" d="M512,339.862v26.483c-0.014,4.869-3.958,8.813-8.828,8.828H132.414
			c-4.875,0-8.828-3.952-8.828-8.828v-26.483H512z"/>
		<path style="fill:#BDC3C7;" d="M512,57.379v26.483H123.586V57.379c0.015-4.869,3.958-8.813,8.828-8.828h370.759
			C508.042,48.566,511.986,52.51,512,57.379z"/>
		<path style="fill:#BDC3C7;" d="M193.759,261.246h-0.086c-4.875-0.048-8.789-4.039-8.741-8.914
			c0.431-20.798-6.894-41.012-20.547-56.707c-12.449-14.563-30.538-23.097-49.694-23.444l-7.991-0.082
			c-0.211-0.004-0.427-0.004-0.638-0.004c-38.875,0-70.746,35.177-71.181,78.741c-0.131,4.84-4.073,8.705-8.914,8.741
			c-4.875-0.048-8.789-4.039-8.741-8.914c0.535-53.241,40.31-96.224,88.841-96.224c0.272,0,0.538,0,0.81,0.004l7.991,0.082
			c24.15,0.372,46.984,11.068,62.729,29.384c16.56,18.968,25.469,43.42,24.991,68.595
			C202.539,257.346,198.601,261.245,193.759,261.246z"/>
	</g>
	<rect x="17.655" y="251.586" style="fill:#95A5A5;" width="185.379" height="52.966"/>
	<path style="fill:#F29C1F;" d="M220.69,448l0,15.448H0l0-16.508c-0.04-14.856,7.966-28.57,20.921-35.84l44.756-24.806
		c5.947-3.268,9.612-9.545,9.534-16.331v-11.741c-0.01-1.076-0.349-2.123-0.971-3.001c-0.971-1.324-2.737-3.531-4.943-6.532
		c-4.143-5.547-7.777-11.456-10.858-17.655c-2.4-4.866-4.236-9.989-5.473-15.272v-71.327c0,0-3.796-45.815,57.379-45.815
		s57.379,45.815,57.379,45.815v71.327c-4.245,14.5-11.494,27.944-21.274,39.459c-0.622,0.878-0.961,1.925-0.971,3.001v12.27
		c-0.068,6.97,3.788,13.386,9.975,16.596l42.99,24.276C212.139,418.443,220.726,432.585,220.69,448z"/>
	<g>
		<path style="fill:#BDC3C7;" d="M123.586,339.862c-0.015,4.869-3.958,8.813-8.828,8.828H44.138
			c-14.608-0.043-26.44-11.874-26.483-26.483v-17.655H35.31v17.655c0.015,4.869,3.958,8.813,8.828,8.828h70.621
			C119.628,331.049,123.572,334.993,123.586,339.862z"/>
		<path style="fill:#BDC3C7;" d="M335.464,260.398l0.015,16.788c0.223,7.768-4.504,14.822-11.773,17.569
			c-5.408,1.879-11.391,1.031-16.064-2.277s-7.462-8.668-7.488-14.394l-0.016-17.655L335.464,260.398z"/>
	</g>
	<path style="fill:#E4C05C;" d="M370.087,181.262c3.068,18.773-4.185,37.747-18.992,49.688c-4.258,3.352-6.766,8.455-6.818,13.874
		v6.778c0,4.875-3.952,8.828-8.828,8.828h-35.31c-4.875,0-8.828-3.952-8.828-8.828v-6.8c-0.011-5.338-2.452-10.381-6.632-13.702
		c-18.427-14.785-24.832-39.986-15.701-61.775c9.131-21.789,31.59-34.894,55.052-32.124
		C347.491,139.971,366.28,157.946,370.087,181.262L370.087,181.262z"/>
	<path style="fill:#F9EAB0;" d="M335.448,198.638c-4.871-0.002-8.82-3.948-8.828-8.819c-0.01-4.87-3.958-8.813-8.828-8.819h-0.018
		c-3.154,0.002-6.069-1.679-7.647-4.41c-1.578-2.73-1.58-6.096-0.004-8.828c1.576-2.732,4.489-4.416,7.643-4.418h0.026
		c14.609,0.016,26.452,11.847,26.483,26.456c0.002,4.874-3.945,8.828-8.819,8.836H335.448z"/>
</g>
<g>
</g>
<g>
</g>
<g>
</g>
<g>
</g>
<g>
</g>
<g>
</g>
<g>
</g>
<g>
</g>
<g>
</g>
<g>
</g>
<g>
</g>
<g>
</g>
<g>
</g>
<g>
</g>
<g>
</g>
</svg>
