<?xml version="1.0" encoding="iso-8859-1"?>
<!-- Generator: Adobe Illustrator 19.0.0, SVG Export Plug-In . SVG Version: 6.00 Build 0)  -->
<svg version="1.1" id="Capa_1" xmlns="http://www.w3.org/2000/svg" xmlns:xlink="http://www.w3.org/1999/xlink" x="0px" y="0px"
	 viewBox="0 0 512 512" style="enable-background:new 0 0 512 512;" xml:space="preserve">
<g>
	<g>
		<path style="fill:#4482C3;" d="M228.571,463.448H114.759c-19.501,0-35.31-15.809-35.31-35.31v-17.655h-35.31v17.655
			c0,39.003,31.618,70.621,70.621,70.621h114.759L228.571,463.448z"/>
		<path style="fill:#4482C3;" d="M70.621,233.931C70.621,126.845,153.78,39.724,256,39.724s185.379,87.121,185.379,194.207h35.31
			C476.69,107.172,377.884,4.414,256,4.414S35.31,107.172,35.31,233.931H70.621z"/>
	</g>
	<g>
		<path style="fill:#285680;" d="M35.31,225.103h79.448c4.875,0,8.828,3.952,8.828,8.828v176.552c0,4.875-3.952,8.828-8.828,8.828
			H35.31C15.809,419.31,0,403.501,0,384V260.414C0,240.912,15.809,225.103,35.31,225.103z"/>
		<path style="fill:#285680;" d="M476.69,419.31h-79.448c-4.875,0-8.828-3.952-8.828-8.828V233.931c0-4.875,3.952-8.828,8.828-8.828
			h79.448c19.501,0,35.31,15.809,35.31,35.31V384C512,403.501,496.191,419.31,476.69,419.31z"/>
		<path style="fill:#285680;" d="M211.862,454.621h79.448c4.875,0,8.828,3.952,8.828,8.828v35.31c0,4.875-3.952,8.828-8.828,8.828
			h-79.448c-4.875,0-8.828-3.952-8.828-8.828v-35.31C203.034,458.573,206.987,454.621,211.862,454.621z"/>
	</g>
	<g>
		<path style="fill:#95A5A5;" d="M353.103,331.034h-17.655v-22.069c0-4.875-3.952-8.828-8.828-8.828s-8.828,3.952-8.828,8.828
			v22.069h-37.409l44.944-74.905c1.623-2.704,1.68-6.069,0.15-8.827c-1.53-2.758-4.416-4.49-7.569-4.543
			c-3.153-0.054-6.096,1.579-7.719,4.283l-52.966,88.276c-1.636,2.727-1.679,6.124-0.113,8.891c1.567,2.768,4.501,4.479,7.681,4.479
			h53v26.483c0,4.875,3.952,8.828,8.828,8.828s8.828-3.952,8.828-8.828V348.69h17.655c4.875,0,8.828-3.952,8.828-8.828
			S357.979,331.034,353.103,331.034z"/>
		<path style="fill:#95A5A5;" d="M238.345,366.345h-49.121c21.793-16.371,49.121-43.966,49.121-79.448
			c0-18.357-11.362-34.797-28.533-41.287c-17.171-6.49-36.567-1.675-48.708,12.093c-3.226,3.657-2.876,9.236,0.78,12.461
			c3.657,3.226,9.236,2.876,12.461-0.78c7.284-8.263,18.921-11.154,29.225-7.26s17.121,13.759,17.12,24.773
			c0,46.828-65.091,80.052-65.746,80.384c-3.657,1.834-5.575,5.941-4.634,9.922c0.941,3.982,4.495,6.795,8.587,6.797h79.448
			c4.875,0,8.828-3.952,8.828-8.828S243.22,366.345,238.345,366.345z"/>
	</g>
</g>
<g>
</g>
<g>
</g>
<g>
</g>
<g>
</g>
<g>
</g>
<g>
</g>
<g>
</g>
<g>
</g>
<g>
</g>
<g>
</g>
<g>
</g>
<g>
</g>
<g>
</g>
<g>
</g>
<g>
</g>
</svg>
