<?xml version="1.0" encoding="iso-8859-1"?>
<!-- Generator: Adobe Illustrator 19.0.0, SVG Export Plug-In . SVG Version: 6.00 Build 0)  -->
<svg version="1.1" id="Capa_1" xmlns="http://www.w3.org/2000/svg" xmlns:xlink="http://www.w3.org/1999/xlink" x="0px" y="0px"
	 viewBox="0 0 512.004 512.004" style="enable-background:new 0 0 512.004 512.004;" xml:space="preserve">
<g>
	<path style="fill:#547580;" d="M367.759,176.555h117.76c7.027-0.009,13.768,2.778,18.737,7.746
		c4.969,4.969,7.756,11.71,7.746,18.737v282.483c0.009,7.027-2.778,13.768-7.746,18.737c-4.969,4.969-11.71,7.756-18.737,7.746
		H26.485c-7.027,0.009-13.768-2.778-18.737-7.746c-4.969-4.969-7.756-11.71-7.746-18.737V203.038
		c-0.009-7.027,2.778-13.768,7.746-18.737s11.71-7.756,18.737-7.746h300.226"/>
	<path style="fill:#90BAE1;" d="M342.689,211.866h107.52c4.869,0.014,8.813,3.958,8.828,8.828v247.172
		c-0.014,4.869-3.958,8.813-8.828,8.828H44.14c-4.869-0.014-8.813-3.958-8.828-8.828V220.693c0.014-4.869,3.958-8.813,8.828-8.828
		H342.689z"/>
	<path style="fill:#84B5CB;" d="M512.002,335.452v17.655h-17.655c-4.875,0-8.828-3.952-8.828-8.828s3.952-8.828,8.828-8.828H512.002
		z"/>
	<g>
		<path style="fill:#B0D3F0;" d="M70.623,264.831c2.342,0.003,4.588-0.928,6.241-2.586l8.828-8.828
			c3.394-3.456,3.369-9.001-0.056-12.426c-3.425-3.425-8.97-3.45-12.426-0.056l-8.828,8.828c-2.524,2.525-3.279,6.321-1.913,9.619
			S67.053,264.831,70.623,264.831z"/>
		<path style="fill:#B0D3F0;" d="M129.829,240.935c-1.655-1.656-3.9-2.586-6.241-2.586c-2.341,0-4.586,0.93-6.241,2.586
			L64.381,293.9c-2.253,2.225-3.142,5.487-2.328,8.547c0.813,3.06,3.204,5.451,6.264,6.264c3.061,0.813,6.322-0.076,8.547-2.329
			l52.966-52.966c1.656-1.655,2.586-3.9,2.586-6.241S131.485,242.59,129.829,240.935z"/>
	</g>
	<g>
		<path style="fill:#D75E72;" d="M256.002,282.485c-9.75,0-17.655-7.905-17.655-17.655v-19.328
			c0.05-17.524,13.07-32.301,30.448-34.556c44.7-6.462,77.272-45.684,75.414-90.81c-2.44-45.759-38.991-82.314-84.75-84.759
			c-23.994-0.939-47.335,7.936-64.643,24.579s-27.09,39.62-27.09,63.632c0,9.751-7.904,17.655-17.655,17.655
			s-17.655-7.904-17.655-17.655c0-33.61,13.689-65.771,37.913-89.071s56.891-35.73,90.476-34.425
			c63.814,2.483,115.229,53.173,118.618,116.945c3.388,63.773-42.365,119.625-105.557,128.856l-0.207,18.935
			C273.657,274.581,265.752,282.485,256.002,282.485z"/>
		<circle style="fill:#D75E72;" cx="256.002" cy="335.452" r="17.655"/>
	</g>
</g>
<g>
</g>
<g>
</g>
<g>
</g>
<g>
</g>
<g>
</g>
<g>
</g>
<g>
</g>
<g>
</g>
<g>
</g>
<g>
</g>
<g>
</g>
<g>
</g>
<g>
</g>
<g>
</g>
<g>
</g>
</svg>
