<?xml version="1.0" encoding="iso-8859-1"?>
<!-- Generator: Adobe Illustrator 19.0.0, SVG Export Plug-In . SVG Version: 6.00 Build 0)  -->
<svg version="1.1" id="Capa_1" xmlns="http://www.w3.org/2000/svg" xmlns:xlink="http://www.w3.org/1999/xlink" x="0px" y="0px"
	 viewBox="0 0 512.031 512.031" style="enable-background:new 0 0 512.031 512.031;" xml:space="preserve">
<g transform="translate(-1)">
	<path style="fill:#CBB292;" d="M345.219,352.502c-0.441,3.443-4.59,6.268-7.062,8.121c-5.473,3.972-16.596,6.621-17.92,13.771
		c-0.751,3.63-0.318,7.404,1.236,10.77c3.796,7.768,7.945,12.006,5.032,14.389c-2.913,2.472-10.858,8.298-10.858,8.298
		s7.415,9.445,3.354,12.27c-5.208,3.619-11.741,5.297-13.506,12.094c-0.524,5.32,0.016,10.692,1.589,15.801
		c0.545,5.028-0.121,10.113-1.942,14.83c-2.618,9.489-12.177,15.294-21.804,13.241c-19.198-4.223-38.172-9.408-56.85-15.537
		c-23.923,11.652-36.546,51.465-36.546,51.465L18.686,511.84l-0.53-0.353c29.572-42.196,31.956-97.368,17.39-145.567
		c-2.869-10.782-7.143-21.14-12.712-30.808c-5.699-8.499-10.408-17.621-14.036-27.189c-6.844-18.916-9.231-39.156-6.974-59.145
		c4.285-40.032,25.778-76.218,58.88-99.134c21.813-14.107,46.83-22.487,72.739-24.364l35.31-0.177
		c22.707,1.86,45.111,6.424,66.737,13.594c15.646,4.637,29.921,13.032,41.578,24.452c11.354,11.859,20.157,25.919,25.865,41.313
		c2.631,7.597,4.783,15.351,6.444,23.217c2.741,8.647,6.104,17.085,10.063,25.247c1.071,2.506,1.554,5.223,1.412,7.945
		c-1.324,9.181-15.36,13.241-15.448,22.687c0.087,2.1,0.727,4.14,1.854,5.914c8.278,17.165,18.433,33.359,30.279,48.287
		C340.275,341.202,345.925,347.735,345.219,352.502z"/>
	<path style="fill:#7F6E5D;" d="M212.893,459.051c-0.916-0.001-1.826-0.144-2.698-0.422c-17.334-5.351-34.246-11.984-50.595-19.845
		c-4.361-2.181-6.129-7.484-3.948-11.845c2.181-4.361,7.484-6.129,11.845-3.948c15.543,7.459,31.619,13.752,48.095,18.828
		c4.14,1.329,6.696,5.475,6.023,9.771C220.942,455.884,217.241,459.051,212.893,459.051z"/>
	<path style="fill:#E6E7E8;" d="M261.979,414.913c-0.822-0.002-1.64-0.115-2.431-0.336l-61.793-17.655
		c-1.949-0.558-3.646-1.769-4.806-3.431l-31.427-44.931c-2.744-3.994-1.756-9.454,2.215-12.232c3.971-2.778,9.439-1.836,12.25,2.111
		l29.634,42.362l58.78,16.793c4.231,1.211,6.924,5.354,6.315,9.712C270.107,411.665,266.38,414.909,261.979,414.913z"/>
	<path style="fill:#95A5A5;" d="M453.798,306.157c-4.8,18.782-12.293,36.771-22.246,53.407l24.629,57.379
		c-5.561,6.886-11.564,13.506-17.832,19.862l-65.236-72.386c43.221-46.224,54.877-113.695,29.669-171.741
		c-25.208-58.046-82.469-95.587-145.752-95.559V0.015c9.023-0.018,18.04,0.454,27.012,1.413l23.128,57.821
		c18.782,4.8,36.771,12.293,53.407,22.246l57.379-24.629c6.974,5.65,13.683,11.741,20.127,18.097
		c6.356,6.444,12.447,13.153,18.097,20.127l-24.629,57.379c9.953,16.636,17.446,34.625,22.246,53.407l57.821,23.128
		c1.883,17.959,1.883,36.066,0,54.025L453.798,306.157z"/>
	<path style="fill:#285680;" d="M133.445,250.278V114.775c0-9.751,7.904-17.655,17.655-17.655s17.655,7.904,17.655,17.655v135.503
		H133.445z"/>
	<circle style="fill:#4482C3;" cx="151.1" cy="300.154" r="52.966"/>
</g>
<g>
</g>
<g>
</g>
<g>
</g>
<g>
</g>
<g>
</g>
<g>
</g>
<g>
</g>
<g>
</g>
<g>
</g>
<g>
</g>
<g>
</g>
<g>
</g>
<g>
</g>
<g>
</g>
<g>
</g>
</svg>
