<?xml version="1.0" encoding="iso-8859-1"?>
<!-- Generator: Adobe Illustrator 19.0.0, SVG Export Plug-In . SVG Version: 6.00 Build 0)  -->
<svg version="1.1" id="Capa_1" xmlns="http://www.w3.org/2000/svg" xmlns:xlink="http://www.w3.org/1999/xlink" x="0px" y="0px"
	 viewBox="0 0 512 512" style="enable-background:new 0 0 512 512;" xml:space="preserve">
<g>
	<path style="fill:#F29C1F;" d="M397.241,491.873l0,20.127H114.758l0.001-21.451c-0.092-19.292,10.261-37.124,27.059-46.61
		l57.744-32.243c7.648-4.299,12.358-12.413,12.3-21.186V376.04c0.005-1.45-0.46-2.862-1.325-4.025
		c-11.724-15.834-20.268-33.791-25.158-52.877v-74.171c0,0-7.64-59.586,70.621-59.586s70.621,59.586,70.621,59.586v74.171
		c-4.89,19.086-13.433,37.043-25.158,52.877c-0.865,1.163-1.33,2.576-1.325,4.025v15.133c-0.062,9.05,4.934,17.377,12.947,21.583
		l55.478,31.581C386.262,453.571,397.326,471.911,397.241,491.873z"/>
	<path style="fill:#CC4B4C;" d="M308.966,61.793h-26.483v70.621c0,4.875-3.952,8.828-8.828,8.828h-35.31
		c-4.875,0-8.828-3.952-8.828-8.828V61.793h-26.483L256,0L308.966,61.793z"/>
	<path style="fill:#4482C3;" d="M61.793,229.517V256h70.621c4.875,0,8.828,3.952,8.828,8.828v35.31c0,4.875-3.952,8.828-8.828,8.828
		H61.793v26.483L0,282.483L61.793,229.517z"/>
	<path style="fill:#ffffff;" d="M134.112,76.863l-18.726,18.726l49.936,49.936c3.447,3.447,3.447,9.037,0,12.484l-24.968,24.968
		c-3.447,3.447-9.037,3.447-12.484,0l-49.936-49.936l-18.726,18.726l-6.242-81.147L134.112,76.863z"/>
	<path style="fill:#4482C3;" d="M377.888,76.863l18.726,18.726l-49.936,49.936c-3.447,3.447-3.447,9.037,0,12.484l24.968,24.968
		c3.447,3.447,9.037,3.447,12.484,0l49.936-49.936l18.726,18.726l6.242-81.147L377.888,76.863z"/>
	<path style="fill:#ffffff;" d="M450.207,229.517V256h-70.621c-4.875,0-8.828,3.952-8.828,8.828v35.31
		c0,4.875,3.952,8.828,8.828,8.828h70.621v26.483L512,282.483L450.207,229.517z"/>
</g>
<g>
</g>
<g>
</g>
<g>
</g>
<g>
</g>
<g>
</g>
<g>
</g>
<g>
</g>
<g>
</g>
<g>
</g>
<g>
</g>
<g>
</g>
<g>
</g>
<g>
</g>
<g>
</g>
<g>
</g>
</svg>
