<?xml version="1.0" encoding="iso-8859-1"?>
<!-- Generator: Adobe Illustrator 19.0.0, SVG Export Plug-In . SVG Version: 6.00 Build 0)  -->
<svg version="1.1" id="Capa_1" xmlns="http://www.w3.org/2000/svg" xmlns:xlink="http://www.w3.org/1999/xlink" x="0px" y="0px"
	 viewBox="0 0 512.042 512.042" style="enable-background:new 0 0 512.042 512.042;" xml:space="preserve">
<g transform="translate(0 -1)">
	<path style="fill:#BDC3C7;" d="M333.682,105.996h-0.085c-4.793-0.047-8.64-3.97-8.593-8.763
		c0.423-20.446-6.777-40.317-20.199-55.746c-12.238-14.316-30.021-22.706-48.852-23.047l-7.856-0.08
		c-0.208-0.004-0.419-0.004-0.627-0.004c-38.216,0-69.547,34.58-69.975,77.407c-0.128,4.758-4.003,8.558-8.763,8.593
		c-4.793-0.047-8.64-3.97-8.593-8.763C160.665,43.254,199.767,1,247.475,1c0.267,0,0.529,0,0.797,0.004l7.856,0.08
		c23.74,0.366,46.188,10.881,61.666,28.886c16.28,18.646,25.037,42.684,24.568,67.432
		C342.314,102.162,338.442,105.995,333.682,105.996z"/>
	<rect x="160.564" y="96.5" style="fill:#95A5A5;" width="182.237" height="52.068"/>
	<path style="fill:#F29C1F;" d="M360.157,289.585l0,15.186H143.208l0-16.228c-0.039-14.604,7.831-28.086,20.567-35.233
		l43.997-24.385c5.846-3.213,9.449-9.384,9.372-16.054V201.33c-0.01-1.058-0.343-2.087-0.955-2.951
		c-0.955-1.302-2.69-3.471-4.86-6.422c-4.072-5.453-7.645-11.262-10.674-17.356c-2.359-4.783-4.165-9.82-5.38-15.013V89.471
		c0,0-3.732-45.039,56.407-45.039s56.407,45.039,56.407,45.039v70.118c-4.173,14.254-11.299,27.471-20.914,38.791
		c-0.611,0.863-0.945,1.893-0.955,2.951v12.062c-0.067,6.852,3.724,13.159,9.806,16.315l42.262,23.864
		C351.751,260.529,360.193,274.43,360.157,289.585z"/>
	<path style="fill:#BDC3C7;" d="M264.699,183.28c-0.014,4.787-3.891,8.664-8.678,8.678h-69.424
		c-14.361-0.042-25.992-11.673-26.034-26.034v-17.356h17.356v17.356c0.014,4.787,3.891,8.664,8.678,8.678h69.424
		C260.808,174.616,264.685,178.493,264.699,183.28z"/>
	<g>
		<path style="fill:#4482C3;" d="M220.07,513.042l0-5.222c0.064-15.102-8.329-28.969-21.738-35.917l-54.06-18.219
			c-3.148-1.938-5.615-4.808-7.06-8.211c-0.715-1.461-0.633-3.186,0.216-4.573c0.849-1.387,2.349-2.244,3.975-2.271h34.543
			c8.389,0.703,16.83-0.442,24.728-3.354c3.01-1.391,5.252-4.04,6.127-7.238c0.874-3.198,0.292-6.62-1.592-9.348
			c-11.536-16.767-33.396-60.128-34.165-100.901c0,0-3.098-64.574-63.732-65.085c-35.371,0.3-48.755,21.558-56.535,39.226
			c-4.118,9.978-6.454,20.601-6.903,31.386c-3.659,33.93-14.18,66.762-30.925,96.499c-3.116,5.149-1.572,11.842,3.486,15.105
			c5.636,3.091,12.076,4.405,18.473,3.77h38.97c1.725,0.037,3.243,1.148,3.8,2.781c0.557,1.633,0.034,3.44-1.309,4.523
			c-1.901,1.605-3.906,3.083-6.001,4.426l-45.515,21.169c-12.712,7.171-20.552,20.656-20.492,35.251l0,6.203H220.07z"/>
		<path style="fill:#4482C3;" d="M507.682,496.815v7.55c0,4.793-3.885,8.678-8.678,8.678H299.411c-4.793,0-8.678-3.885-8.678-8.678
			v-7.55c-0.039-14.604,7.831-28.086,20.567-35.233l43.997-24.385c5.847-3.213,9.449-9.384,9.372-16.054v-11.542
			c-0.01-1.058-0.344-2.087-0.955-2.951c-9.615-11.32-16.74-24.537-20.913-38.791v-70.118c0,0-3.732-45.039,56.407-45.039
			s56.407,45.039,56.407,45.039v70.118c-4.173,14.254-11.299,27.47-20.914,38.791c-0.611,0.863-0.945,1.893-0.955,2.951v11.542
			c-0.077,6.671,3.526,12.842,9.372,16.054l43.997,24.385C499.851,468.729,507.721,482.21,507.682,496.815z"/>
	</g>
</g>
<g>
</g>
<g>
</g>
<g>
</g>
<g>
</g>
<g>
</g>
<g>
</g>
<g>
</g>
<g>
</g>
<g>
</g>
<g>
</g>
<g>
</g>
<g>
</g>
<g>
</g>
<g>
</g>
<g>
</g>
</svg>
