<?xml version="1.0" encoding="iso-8859-1"?>
<!-- Generator: Adobe Illustrator 19.0.0, SVG Export Plug-In . SVG Version: 6.00 Build 0)  -->
<svg version="1.1" id="Capa_1" xmlns="http://www.w3.org/2000/svg" xmlns:xlink="http://www.w3.org/1999/xlink" x="0px" y="0px"
	 viewBox="0 0 512 512" style="enable-background:new 0 0 512 512;" xml:space="preserve">
<g>
	<rect x="282.483" y="397.241" style="fill:#95A5A5;" width="70.621" height="105.931"/>
	<path style="fill:#BDC3C7;" d="M194.207,512h238.345v-17.655c-0.029-9.739-7.916-17.627-17.655-17.655h-220.69V512z"/>
	<path style="fill:#35495E;" d="M123.586,212.303V105.931c0.014-4.869,3.958-8.813,8.828-8.828h370.759
		c4.869,0.014,8.813,3.958,8.828,8.828v308.966c-0.014,4.869-3.958,8.813-8.828,8.828H123.586V212.303z"/>
	<g>
		<path style="fill:#BDC3C7;" d="M512,388.414v26.483c-0.014,4.869-3.958,8.813-8.828,8.828H132.414
			c-4.875,0-8.828-3.952-8.828-8.828v-26.483H512z"/>
		<path style="fill:#BDC3C7;" d="M512,105.931v26.483H123.586v-26.483c0.015-4.869,3.958-8.813,8.828-8.828h370.759
			C508.042,97.118,511.985,101.062,512,105.931z"/>
		<circle style="fill:#BDC3C7;" cx="317.793" cy="35.31" r="35.31"/>
	</g>
	<path style="fill:#7F8C8D;" d="M291.31,70.621h52.966c4.875,0,8.828,3.952,8.828,8.828v52.966c0,4.875-3.952,8.828-8.828,8.828
		H291.31c-4.875,0-8.828-3.952-8.828-8.828V79.448C282.483,74.573,286.435,70.621,291.31,70.621z"/>
	<path style="fill:#CC4B4C;" d="M317.793,44.138c-1.155-0.014-2.296-0.254-3.358-0.707c-1.068-0.447-2.053-1.074-2.91-1.853
		c-0.78-0.859-1.408-1.844-1.858-2.914c-0.937-2.137-0.937-4.569,0-6.707c0.448-1.071,1.076-2.056,1.858-2.915
		c3.539-3.267,8.995-3.267,12.534,0c0.779,0.859,1.406,1.844,1.854,2.914c0.495,1.047,0.737,2.196,0.707,3.354
		c0.023,2.348-0.9,4.607-2.56,6.267C322.4,43.238,320.141,44.161,317.793,44.138z"/>
	<g>
		<path style="fill:#4482C3;" d="M261.432,512v-6.197c-0.002-18.051-10.2-34.552-26.345-42.626l-65.519-21.622
			c-3.796-2.279-6.787-5.686-8.556-9.744c-0.853-1.751-0.744-3.818,0.289-5.469c1.033-1.651,2.844-2.654,4.792-2.653h41.865
			c10.16,0.834,20.38-0.524,29.97-3.981c3.626-1.591,6.347-4.726,7.412-8.54c1.065-3.814,0.362-7.905-1.916-11.145
			c-13.981-19.899-40.474-71.359-41.407-119.748c0,0-3.755-76.635-77.241-77.241c-42.869,0.356-59.09,25.585-68.519,46.553
			c-4.985,11.819-7.818,24.433-8.366,37.249c-4.464,40.35-17.225,79.341-37.48,114.523c-3.774,6.118-1.885,14.137,4.225,17.926
			c6.856,3.671,14.647,5.228,22.388,4.474h47.23c2.069-0.001,3.911,1.308,4.591,3.261c0.68,1.954,0.049,4.124-1.573,5.408
			c-2.307,1.907-4.737,3.662-7.273,5.252l-55.162,25.123C9.525,471.152-0.001,487.199,0,504.638V512H261.432z"/>
		<path style="fill:#4482C3;" d="M291.31,317.793h70.621c9.751,0,17.655,7.905,17.655,17.655l0,0
			c0,9.751-7.905,17.655-17.655,17.655H291.31c-9.751,0-17.655-7.905-17.655-17.655l0,0
			C273.655,325.698,281.56,317.793,291.31,317.793z"/>
	</g>
	<g>
		<path style="fill:#E6E7E8;" d="M320.353,276.215c-1.613,1.692-2.527,3.93-2.56,6.268c-0.04,2.326,0.887,4.564,2.56,6.181
			c1.629,1.717,3.901,2.676,6.268,2.647c2.351-0.047,4.594-0.994,6.268-2.647c1.671-1.618,2.598-3.855,2.56-6.181
			c0.021-3.586-2.13-6.829-5.442-8.204C326.694,272.903,322.879,273.669,320.353,276.215z"/>
		<path style="fill:#E6E7E8;" d="M326.621,167.724c-19.493,0.021-35.29,15.818-35.31,35.31c0,4.875,3.952,8.828,8.828,8.828
			s8.828-3.952,8.828-8.828c0-9.751,7.905-17.655,17.655-17.655s17.655,7.904,17.655,17.655s-7.904,17.655-17.655,17.655
			c-2.341-0.001-4.587,0.929-6.243,2.585c-1.656,1.656-2.585,3.901-2.585,6.243v17.655c0,4.875,3.952,8.828,8.828,8.828
			s8.828-3.952,8.828-8.828v-10.082c17.212-4.414,28.444-20.953,26.201-38.579C359.406,180.885,344.389,167.686,326.621,167.724z"/>
		<path style="fill:#E6E7E8;" d="M456.448,320.38l-11.97-11.974c3.997-1.498,6.349-5.641,5.588-9.841
			c-0.761-4.2-4.418-7.254-8.686-7.254h-17.655c-1.057,0.019-2.101,0.229-3.082,0.622c-0.286,0.117-0.566,0.25-0.837,0.397
			c-0.664,0.333-1.282,0.749-1.84,1.239c-0.235,0.19-0.459,0.393-0.672,0.608c-0.649,0.688-1.181,1.477-1.575,2.336
			c-0.037,0.079-0.1,0.14-0.134,0.222l-0.015,0.024c-0.384,0.973-0.589,2.008-0.607,3.054c-0.004,0.115-0.066,0.21-0.066,0.326
			v17.655c-0.021,4.272,3.035,7.94,7.241,8.691c4.206,0.751,8.342-1.634,9.8-5.65l12.028,12.028
			c3.456,3.394,9.001,3.369,12.426-0.056C459.817,329.381,459.842,323.835,456.448,320.38z"/>
	</g>
</g>
<g>
</g>
<g>
</g>
<g>
</g>
<g>
</g>
<g>
</g>
<g>
</g>
<g>
</g>
<g>
</g>
<g>
</g>
<g>
</g>
<g>
</g>
<g>
</g>
<g>
</g>
<g>
</g>
<g>
</g>
</svg>
