<?xml version="1.0" encoding="iso-8859-1"?>
<!-- Generator: Adobe Illustrator 19.0.0, SVG Export Plug-In . SVG Version: 6.00 Build 0)  -->
<svg version="1.1" id="Capa_1" xmlns="http://www.w3.org/2000/svg" xmlns:xlink="http://www.w3.org/1999/xlink" x="0px" y="0px"
	 viewBox="0 0 512.001 512.001" style="enable-background:new 0 0 512.001 512.001;" xml:space="preserve">
<g>
	<rect x="282.483" y="397.242" style="fill:#95A5A5;" width="70.621" height="105.931"/>
	<path style="fill:#BDC3C7;" d="M194.208,512h238.345v-17.655c-0.029-9.739-7.916-17.627-17.655-17.655h-220.69V512z"/>
	<path style="fill:#35495E;" d="M123.587,212.304V105.931c0.014-4.869,3.958-8.813,8.828-8.828h370.759
		c4.869,0.014,8.813,3.958,8.828,8.828v308.966c-0.014,4.869-3.958,8.813-8.828,8.828H123.587V212.304z"/>
	<g>
		<path style="fill:#BDC3C7;" d="M512.001,388.414v26.483c-0.014,4.869-3.958,8.813-8.828,8.828H132.415
			c-4.875,0-8.828-3.952-8.828-8.828v-26.483H512.001z"/>
		<path style="fill:#BDC3C7;" d="M512.001,105.931v26.483H123.587v-26.483c0.015-4.869,3.958-8.813,8.828-8.828h370.759
			C508.042,97.118,511.986,101.062,512.001,105.931z"/>
	</g>
	<path style="fill:#4482C3;" d="M256.001,493.904l0,18.097H0l0.001-19.244c-0.094-17.318,9.195-33.329,24.276-41.843l51.906-28.954
		c6.913-3.803,11.184-11.091,11.123-18.981v-13.682c0.094-1.324-0.352-2.629-1.236-3.619
		c-15.448-14.919-24.276-50.229-24.276-50.229c-0.018-2.314-0.936-4.53-2.56-6.179l-3.708-3.707c-1.624-1.649-2.542-3.865-2.56-6.18
		v-28.072c0.018-2.314,0.936-4.53,2.56-6.179l3.708-3.707c1.624-1.649,2.542-3.865,2.56-6.18V256.53c0,0-4.679-53.496,66.207-53.496
		s66.207,53.496,66.207,53.496v18.714c0.018,2.314,0.936,4.531,2.56,6.18l3.708,3.707c1.624,1.649,2.542,3.865,2.56,6.179v28.072
		c-0.018,2.314-0.936,4.531-2.56,6.18l-3.708,3.707c-1.624,1.649-2.542,3.865-2.56,6.179c0,0,0,17.655-24.276,50.228
		c-0.796,1.039-1.229,2.31-1.236,3.619v14.301c-0.04,8.117,4.457,15.576,11.652,19.332l49.876,28.338
		C246.115,459.539,256.06,475.989,256.001,493.904z"/>
	<circle style="fill:#BDC3C7;" cx="317.794" cy="35.311" r="35.31"/>
	<path style="fill:#7F8C8D;" d="M291.311,70.621h52.966c4.875,0,8.828,3.952,8.828,8.828v52.966c0,4.875-3.952,8.828-8.828,8.828
		h-52.966c-4.875,0-8.828-3.952-8.828-8.828V79.449C282.483,74.573,286.436,70.621,291.311,70.621z"/>
	<path style="fill:#CC4B4C;" d="M317.794,44.138c-1.155-0.014-2.296-0.254-3.358-0.707c-1.068-0.447-2.053-1.074-2.91-1.853
		c-0.78-0.859-1.408-1.844-1.858-2.914c-0.937-2.137-0.937-4.569,0-6.707c0.448-1.071,1.076-2.056,1.858-2.915
		c3.539-3.267,8.995-3.267,12.534,0c0.779,0.859,1.406,1.844,1.854,2.914c0.495,1.047,0.737,2.196,0.707,3.354
		c0.023,2.348-0.9,4.607-2.56,6.267C322.401,43.238,320.142,44.161,317.794,44.138z"/>
	<path style="fill:#BDC3C7;" d="M432.552,264.828c-2.341,0.001-4.587-0.929-6.243-2.585c-1.656-1.656-2.585-3.901-2.585-6.243
		c0-32.914-26.815-61.793-57.379-61.793S308.966,223.087,308.966,256c0,4.875-3.952,8.828-8.828,8.828s-8.828-3.952-8.828-8.828
		c0-42.319,35.065-79.448,75.034-79.448S441.38,213.681,441.38,256c0.001,2.341-0.929,4.587-2.585,6.243
		C437.14,263.899,434.894,264.829,432.552,264.828z"/>
	<path style="fill:#7F8C8D;" d="M417.899,300.138h14.654c4.875,0,8.828-3.952,8.828-8.828V256H291.311v35.31
		c0,4.875,3.952,8.828,8.828,8.828H417.899z"/>
	<path style="fill:#F29C1F;" d="M441.38,388.414v-6.247c-0.058-9.58-5.587-18.284-14.233-22.408l-35.397-14.918
		c-2.037-1.184-3.654-2.975-4.622-5.123c-0.452-0.933-0.386-2.033,0.175-2.905c0.56-0.872,1.534-1.389,2.57-1.365h22.618
		c0,0,14.147,1.554,19.829-6.778c0.333-0.479,0.308-1.122-0.063-1.573c-13.549-19.411-21.498-42.175-22.976-65.801
		c0,0-2.029-40.287-41.73-40.606c-21.921,0.679-39.742,17.895-41.177,39.779c-1.978,23.772-9.83,46.68-22.85,66.667
		c-0.316,0.47-0.335,1.081-0.047,1.569c3.999,5,10.315,7.555,16.666,6.742h25.517c1.102-0.033,2.099,0.648,2.471,1.686
		c0.371,1.038,0.032,2.197-0.84,2.871c-1.249,1.004-2.561,1.926-3.929,2.761l-29.802,16.795
		c-8.204,4.277-13.368,12.741-13.418,21.993v6.859H441.38z"/>
</g>
<g>
</g>
<g>
</g>
<g>
</g>
<g>
</g>
<g>
</g>
<g>
</g>
<g>
</g>
<g>
</g>
<g>
</g>
<g>
</g>
<g>
</g>
<g>
</g>
<g>
</g>
<g>
</g>
<g>
</g>
</svg>
