<?xml version="1.0" encoding="iso-8859-1"?>
<!-- Generator: Adobe Illustrator 19.0.0, SVG Export Plug-In . SVG Version: 6.00 Build 0)  -->
<svg version="1.1" id="Capa_1" xmlns="http://www.w3.org/2000/svg" xmlns:xlink="http://www.w3.org/1999/xlink" x="0px" y="0px"
	 viewBox="0 0 512 512" style="enable-background:new 0 0 512 512;" xml:space="preserve">
<g>
	<path style="fill:#BDC3C7;" d="M370.759,512H17.655C7.916,511.971,0.029,504.084,0,494.345V17.655
		C0.029,7.916,7.916,0.029,17.655,0h388.414c9.739,0.029,17.627,7.916,17.655,17.655v476.69c0,9.751-7.904,17.655-17.655,17.655
		H370.759z"/>
	<path style="fill:#4482C3;" d="M44.138,105.931h335.448c4.875,0,8.828,3.952,8.828,8.828v70.621c0,4.875-3.952,8.828-8.828,8.828
		H44.138c-4.875,0-8.828-3.952-8.828-8.828v-70.621C35.31,109.883,39.263,105.931,44.138,105.931z"/>
	<path style="fill:#C03A2B;" d="M264.828,423.724H44.138c-4.869,0.014-8.813,3.958-8.828,8.828v35.31
		c0.014,4.869,3.958,8.813,8.828,8.828H291.31L264.828,423.724z"/>
	<path style="fill:#E64C3C;" d="M370.759,229.517H229.517c-4.875,0-8.828,3.952-8.828,8.828v52.965c0,4.875,3.952,8.828,8.828,8.828
		h70.621L370.759,229.517z"/>
	<path style="fill:#285680;" d="M44.138,229.517h132.414c4.875,0,8.828,3.952,8.828,8.828v141.241c0,4.875-3.952,8.828-8.828,8.828
		H44.138c-4.875,0-8.828-3.952-8.828-8.828V238.345C35.31,233.469,39.263,229.517,44.138,229.517z"/>
	<path style="fill:#3F5C6C;" d="M423.724,17.655v52.966H0V17.655C0.028,7.916,7.916,0.028,17.655,0h388.414
		C415.808,0.028,423.696,7.916,423.724,17.655z"/>
	<g>
		<path style="fill:#84B5CB;" d="M61.793,44.138H44.138c-4.875,0-8.828-3.952-8.828-8.828s3.952-8.828,8.828-8.828h17.655
			c4.875,0,8.828,3.952,8.828,8.828S66.668,44.138,61.793,44.138z"/>
		<path style="fill:#84B5CB;" d="M379.586,44.138h-17.655c-4.875,0-8.828-3.952-8.828-8.828s3.952-8.828,8.828-8.828h17.655
			c4.875,0,8.828,3.952,8.828,8.828S384.462,44.138,379.586,44.138z"/>
		<path style="fill:#84B5CB;" d="M291.31,44.138H132.414c-4.875,0-8.828-3.952-8.828-8.828s3.952-8.828,8.828-8.828H291.31
			c4.875,0,8.828,3.952,8.828,8.828S296.186,44.138,291.31,44.138z"/>
	</g>
	<circle style="fill:#3F5C6C;" cx="370.759" cy="370.759" r="141.241"/>
	<path style="fill:#95A5A5;" d="M466.803,384.971c1.412-9.422,1.412-19.003,0-28.425l-19.421-6.444
		c-1.743-6.613-4.355-12.965-7.768-18.891l9.092-18.361c-5.641-7.643-12.396-14.397-20.039-20.039l-18.361,9.092
		c-5.926-3.413-12.278-6.025-18.891-7.768l-6.444-19.421c-9.422-1.412-19.003-1.412-28.425,0l-6.444,19.421
		c-6.613,1.743-12.965,4.355-18.891,7.768l-18.361-9.092c-7.643,5.641-14.397,12.396-20.039,20.039l9.092,18.361
		c-3.413,5.926-6.025,12.278-7.768,18.891l-19.421,6.444c-1.412,9.422-1.412,19.003,0,28.425l19.421,6.444
		c1.743,6.613,4.355,12.965,7.768,18.891l-9.092,18.361c5.642,7.643,12.396,14.397,20.039,20.039l18.361-9.092
		c5.926,3.413,12.278,6.025,18.891,7.768l6.444,19.421c9.422,1.412,19.003,1.412,28.425,0l6.444-19.421
		c6.613-1.743,12.965-4.355,18.892-7.768l18.361,9.092c7.643-5.642,14.397-12.396,20.039-20.039l-9.092-18.361
		c3.413-5.926,6.025-12.278,7.768-18.891L466.803,384.971z M370.759,414.897c-24.377,0-44.138-19.761-44.138-44.138
		c0-24.377,19.761-44.138,44.138-44.138c24.377,0,44.138,19.761,44.138,44.138C414.888,395.132,395.132,414.888,370.759,414.897z"/>
</g>
<g>
</g>
<g>
</g>
<g>
</g>
<g>
</g>
<g>
</g>
<g>
</g>
<g>
</g>
<g>
</g>
<g>
</g>
<g>
</g>
<g>
</g>
<g>
</g>
<g>
</g>
<g>
</g>
<g>
</g>
</svg>
