<?xml version="1.0" encoding="iso-8859-1"?>
<!-- Generator: Adobe Illustrator 19.0.0, SVG Export Plug-In . SVG Version: 6.00 Build 0)  -->
<svg version="1.1" id="Capa_1" xmlns="http://www.w3.org/2000/svg" xmlns:xlink="http://www.w3.org/1999/xlink" x="0px" y="0px"
	 viewBox="0 0 512 512" style="enable-background:new 0 0 512 512;" xml:space="preserve">
<g>
	<circle style="fill:#4482C3;" cx="211.862" cy="300.138" r="211.862"/>
	<path style="fill:#BDC3C7;" d="M283.454,343.569c-22.284,22.335-54.806,31.055-85.274,22.864L90.748,473.864
		c-24.436-16.993-45.012-38.952-60.381-64.441l105.401-105.402c-9.004-33.827,2.806-69.781,30.114-91.68s64.968-25.619,96.032-9.483
		l-47.139,47.052c-6.797,6.94-6.797,18.042,0,24.982l12.535,12.536c6.941,6.796,18.041,6.796,24.982,0l47.051-47.052
		C317.096,274.561,310.668,316.307,283.454,343.569z"/>
	<circle style="fill:#ffffff;" cx="406.069" cy="105.931" r="105.931"/>
	<path style="fill:#FFFFFF;" d="M388.414,167.724c-2.341-0.001-4.586-0.931-6.241-2.586l-35.31-35.31
		c-3.394-3.456-3.369-9.001,0.056-12.426c3.425-3.425,8.97-3.45,12.426-0.056l27.698,27.698l64.647-96.974
		c1.735-2.658,4.764-4.18,7.932-3.986c3.168,0.194,5.989,2.074,7.386,4.924c1.398,2.85,1.157,6.231-0.629,8.855l-70.621,105.931
		c-1.467,2.2-3.843,3.627-6.474,3.888C388.991,167.707,388.698,167.724,388.414,167.724z"/>
</g>
<g>
</g>
<g>
</g>
<g>
</g>
<g>
</g>
<g>
</g>
<g>
</g>
<g>
</g>
<g>
</g>
<g>
</g>
<g>
</g>
<g>
</g>
<g>
</g>
<g>
</g>
<g>
</g>
<g>
</g>
</svg>
