<?xml version="1.0" encoding="iso-8859-1"?>
<!-- Generator: Adobe Illustrator 19.0.0, SVG Export Plug-In . SVG Version: 6.00 Build 0)  -->
<svg version="1.1" id="Capa_1" xmlns="http://www.w3.org/2000/svg" xmlns:xlink="http://www.w3.org/1999/xlink" x="0px" y="0px"
	 viewBox="0 0 512.006 512.006" style="enable-background:new 0 0 512.006 512.006;" xml:space="preserve">
<g>
	<path style="fill:#46B29D;" d="M143.756,68.271l32.6,48.905c6.479,9.738,4.355,22.825-4.873,30.014l-40.139,31.223
		c-8.71,6.707-11.213,18.772-5.888,28.39c11.785,21.186,22.952,46.168,78.23,101.517s80.331,66.445,101.517,78.23
		c9.618,5.325,21.683,2.822,28.39-5.888l31.223-40.139c7.188-9.227,20.275-11.352,30.014-4.873l50.458,33.633l56.761,37.844
		c9.926,6.617,12.906,19.863,6.771,30.093l-26.898,44.835c-7.14,12.118-18.667,21.025-32.194,24.876
		c-44.703,12.262-143.307,14.742-301.347-143.298S-7.187,106.98,5.074,62.277C8.926,48.75,17.833,37.223,29.95,30.083L74.786,3.185
		C85.016-2.95,98.262,0.03,104.879,9.956L143.756,68.271z"/>
	<g>
		<path style="fill:#65DDB9;" d="M247.171,423.723c-1.911,0.004-3.77-0.616-5.297-1.766
			C171.059,368.85,93.315,265.709,90.04,261.295c-1.892-2.523-2.295-5.864-1.056-8.764c1.239-2.9,3.931-4.919,7.062-5.297
			c3.131-0.377,6.226,0.945,8.118,3.468c0.786,1.05,79.528,105.543,148.303,157.131c3.04,2.28,4.28,6.249,3.078,9.854
			C254.344,421.291,250.971,423.723,247.171,423.723z"/>
		<circle style="fill:#65DDB9;" cx="273.654" cy="432.55" r="8.828"/>
	</g>
	<path style="fill:#00a6fb;" d="M511.998,123.585v88.276c-0.029,9.739-7.917,17.626-17.655,17.655h-44.138l-52.966,52.966v-52.966
		h-44.138c-9.739-0.029-17.626-7.917-17.655-17.655v-88.276c0.029-9.739,7.917-17.626,17.655-17.655h141.241
		C504.082,105.959,511.969,113.846,511.998,123.585z"/>
	<g>
		<path style="fill:#FFFFFF;" d="M414.895,158.895h-44.138c-4.875,0-8.828,3.952-8.828,8.828s3.952,8.828,8.828,8.828h44.138
			c4.875,0,8.828-3.952,8.828-8.828S419.77,158.895,414.895,158.895z"/>
		<path style="fill:#FFFFFF;" d="M476.688,158.895h-26.483c-4.875,0-8.828,3.952-8.828,8.828s3.952,8.828,8.828,8.828h26.483
			c4.875,0,8.828-3.952,8.828-8.828S481.563,158.895,476.688,158.895z"/>
	</g>
</g>
<g>
</g>
<g>
</g>
<g>
</g>
<g>
</g>
<g>
</g>
<g>
</g>
<g>
</g>
<g>
</g>
<g>
</g>
<g>
</g>
<g>
</g>
<g>
</g>
<g>
</g>
<g>
</g>
<g>
</g>
</svg>
