<?xml version="1.0" encoding="iso-8859-1"?>
<!-- Generator: Adobe Illustrator 19.0.0, SVG Export Plug-In . SVG Version: 6.00 Build 0)  -->
<svg version="1.1" id="Capa_1" xmlns="http://www.w3.org/2000/svg" xmlns:xlink="http://www.w3.org/1999/xlink" x="0px" y="0px"
	 viewBox="0 0 464.119 464.119" style="enable-background:new 0 0 464.119 464.119;" xml:space="preserve">
<path style="fill:#E6E6E6;" d="M280.044,0h-224c-13.255,0-24,10.745-24,24v368h272c13.255,0,24-10.745,24-24V24
	c0-13.255,10.745-24,24-24H280.044z"/>
<g>
	<path style="fill:#0071BC;" d="M304.044,392c-13.255,0-24-10.745-24-24v-16h-280v16c0,13.255,10.745,24,24,24H304.044z"/>
	<path style="fill:#0071BC;" d="M328.044,64V24c0-13.255,10.745-24,24-24s24,10.745,24,24v40H328.044z"/>
	<path style="fill:#0071BC;" d="M320.044,136h-40c-8.837,0-16-7.163-16-16s7.163-16,16-16h80c8.837,0,16,7.163,16,16
		s-7.163,16-16,16H320.044z"/>
</g>
<path style="fill:#29ABE2;" d="M288.044,136v43.688c-77.54,17.673-126.073,94.859-108.399,172.399s94.859,126.073,172.399,108.399
	c77.54-17.673,126.073-94.859,108.399-172.399c-12.299-53.962-54.437-96.1-108.399-108.399V136H288.044z"/>
<path style="fill:#80CAEC;" d="M231.428,283.016l-14.768-6.168c10.14-24.199,28.425-44.089,51.688-56.224l7.392,14.184
	C255.796,245.213,240.12,262.268,231.428,283.016L231.428,283.016z"/>
<path style="fill:#0071BC;" d="M417.556,318.488c-14.09,14.09-36.934,14.09-51.024,0l-4.976-4.976
	c-14.09-14.09-36.934-14.09-51.024,0l-4.976,4.976c-14.09,14.09-36.934,14.09-51.024,0c-9.965-9.936-24.806-13.155-37.992-8.24
	c-0.304,3.2-0.496,6.456-0.496,9.752c0,57.438,46.562,104,104,104s104-46.562,104-104c0-2.568-0.2-5.088-0.384-7.616
	L417.556,318.488z"/>
<path style="fill:#80CAEC;" d="M290.5,228.632l-4.912-15.2c5.628-1.812,11.389-3.176,17.232-4.08l2.448,15.808
	C300.261,225.924,295.323,227.085,290.5,228.632z"/>
<g>
	<path style="fill:#29ABE2;" d="M344.044,336h16v16h-16V336z"/>
	<path style="fill:#29ABE2;" d="M264.044,360h16v16h-16V360z"/>
	<path style="fill:#29ABE2;" d="M328.044,376h16v16h-16V376z"/>
</g>
<path style="fill:#FBB03B;" d="M232.044,64h-22.112l-25.888-12.944V32h-16v19.056l-24,12l-24-12V32h-16v19.056L76.468,64.84
	c-2.712,1.355-4.425,4.128-4.424,7.16v32h-16v16h22.112l25.888,12.944V152h16v-19.056l24-12l24,12V152h16v-19.056L211.62,119.2
	c2.725-1.362,4.441-4.153,4.424-7.2V80h16V64z M88.044,76.944l24-12l24,12v30.112l-24,12l-24-12V76.944z M200.044,107.056l-24,12
	l-24-12V76.944l24-12l24,12V107.056z"/>
<g>
	<path style="fill:#999999;" d="M64.044,208h120v16h-120V208z"/>
	<path style="fill:#999999;" d="M64.044,240h96v16h-96V240z"/>
	<path style="fill:#999999;" d="M64.044,272h80v16h-80V272z"/>
	<path style="fill:#999999;" d="M112.044,176h72v16h-72V176z"/>
</g>
<path style="fill:#DA4836;" d="M248.044,48h16v16h-16V48z"/>
<path style="fill:#999999;" d="M80.044,176h16v16h-16V176z"/>
<path style="fill:#DA4836;" d="M280.044,48h16v16h-16V48z"/>
<g>
</g>
<g>
</g>
<g>
</g>
<g>
</g>
<g>
</g>
<g>
</g>
<g>
</g>
<g>
</g>
<g>
</g>
<g>
</g>
<g>
</g>
<g>
</g>
<g>
</g>
<g>
</g>
<g>
</g>
</svg>
