<?xml version="1.0" encoding="iso-8859-1"?>
<!-- Generator: Adobe Illustrator 19.0.0, SVG Export Plug-In . SVG Version: 6.00 Build 0)  -->
<svg version="1.1" id="Capa_1" xmlns="http://www.w3.org/2000/svg" xmlns:xlink="http://www.w3.org/1999/xlink" x="0px" y="0px"
	 viewBox="0 0 512.075 512.075" style="enable-background:new 0 0 512.075 512.075;" xml:space="preserve">
<g transform="translate(0 -1)">
	<g>
		<path style="fill:#C03A2B;" d="M220.718,168.799v70.621h-52.966l8.828-70.621c0-4.875,3.952-8.828,8.828-8.828h26.483
			C216.766,159.971,220.718,163.923,220.718,168.799z"/>
		<path style="fill:#C03A2B;" d="M344.305,239.419h-52.966v-70.621c0-4.875,3.952-8.828,8.828-8.828h26.483
			c4.875,0,8.828,3.952,8.828,8.828L344.305,239.419z"/>
		<path style="fill:#C03A2B;" d="M512.029,404.142v73.622c0,19.501-15.809,35.31-35.31,35.31H35.339
			c-19.501,0-35.31-15.809-35.31-35.31v-73.622c0.007-1.982,0.334-3.949,0.971-5.826l16.684-17.655h476.69l16.684,17.655
			C511.694,400.193,512.022,402.16,512.029,404.142z"/>
	</g>
	<g>
		<path style="fill:#E64C3C;" d="M123.615,14.563c43.616-9.684,88.218-14.211,132.89-13.489c79.448,0,177.708,8.342,234.814,64.441
			c11.902,10.558,19.312,25.27,20.71,41.119c0.38,13.683-5.685,26.756-8.748,40.166c-1.686,7.38-3.204,15.943-10.487,19.765
			c-6.245,2.336-13.086,2.55-19.465,0.609l-47.81-9.154c-12.747-2.436-19.606-4.873-32.353-7.318
			c-7.114-0.503-13.823-3.501-18.944-8.466c-3.074-5.349-3.89-11.703-2.269-17.655l3.602-25.6
			c1.712-6.395,0.929-13.202-2.189-19.041c-4.255-6.073-18.582-8.695-26.483-10.055c-60.393-9.485-121.908-9.336-182.254,0.441
			c-12.182,1.845-29.687,8.942-28.045,21.53l5.023,38.515c1.028,9.048-5.198,17.321-14.177,18.838l-41.384,9.075l-53.301,10.178
			c-9.15,1.892-18.208-3.601-20.762-12.588L1.874,117.166c-2.803-10.405-1.318-21.498,4.122-30.799
			C18.567,65.189,48.201,32.722,123.615,14.563"/>
		<path style="fill:#E64C3C;" d="M511.058,398.316H1c0.592-1.671,1.425-3.247,2.472-4.679L115.67,241.362
			c5.001-6.785,12.934-10.784,21.363-10.77h237.992c8.429-0.014,16.362,3.985,21.363,10.77l112.199,152.276
			C509.633,395.069,510.465,396.645,511.058,398.316z"/>
	</g>
	<path style="fill:#E6E7E8;" d="M344.305,314.454c-0.133,6.902-2.59,13.558-6.974,18.891c-5.154,6.408-11.588,11.669-18.891,15.448
		c-8.835,4.744-18.281,8.249-28.072,10.417c-22.613,5.061-46.065,5.061-68.679,0c-9.791-2.168-19.237-5.673-28.072-10.417
		c-7.303-3.779-13.737-9.041-18.891-15.448c-9.3-10.877-9.3-26.905,0-37.782c5.154-6.408,11.588-11.669,18.891-15.448
		c8.835-4.744,18.281-8.249,28.072-10.417c22.613-5.061,46.065-5.061,68.679,0c9.791,2.168,19.237,5.673,28.072,10.417
		c7.303,3.779,13.737,9.041,18.891,15.448C341.715,300.896,344.172,307.552,344.305,314.454z"/>
	<g>
		<path style="fill:#ffffff;" d="M123.615,49.865c-4.468-0.009-8.225-3.355-8.749-7.792c-0.524-4.437,2.349-8.566,6.692-9.616
			c44.298-9.794,89.585-14.4,134.947-13.727c26.483,0,49.69,0.945,70.947,2.895c3.203,0.208,6.04,2.137,7.411,5.039
			c1.371,2.902,1.058,6.319-0.816,8.925c-1.874,2.605-5.015,3.988-8.202,3.612c-20.718-1.933-43.396-2.816-69.341-2.816
			c-43.974-0.674-87.878,3.77-130.825,13.241C125.004,49.787,124.311,49.867,123.615,49.865z"/>
		<circle style="fill:#ffffff;" cx="361.96" cy="36.385" r="8.828"/>
	</g>
</g>
<g>
</g>
<g>
</g>
<g>
</g>
<g>
</g>
<g>
</g>
<g>
</g>
<g>
</g>
<g>
</g>
<g>
</g>
<g>
</g>
<g>
</g>
<g>
</g>
<g>
</g>
<g>
</g>
<g>
</g>
</svg>
