<?xml version="1.0" encoding="UTF-8" standalone="no"?>
<svg
   xmlns:dc="http://purl.org/dc/elements/1.1/"
   xmlns:cc="http://creativecommons.org/ns#"
   xmlns:rdf="http://www.w3.org/1999/02/22-rdf-syntax-ns#"
   xmlns:svg="http://www.w3.org/2000/svg"
   xmlns="http://www.w3.org/2000/svg"
   xmlns:sodipodi="http://sodipodi.sourceforge.net/DTD/sodipodi-0.dtd"
   xmlns:inkscape="http://www.inkscape.org/namespaces/inkscape"
   id="icons"
   enable-background="new 0 0 64 64"
   height="512"
   viewBox="0 0 64 64"
   width="512"
   version="1.1"
   sodipodi:docname="ui-columns.svg"
   inkscape:version="0.92.4 (5da689c313, 2019-01-14)">
  <metadata
     id="metadata89">
    <rdf:RDF>
      <cc:Work
         rdf:about="">
        <dc:format>image/svg+xml</dc:format>
        <dc:type
           rdf:resource="http://purl.org/dc/dcmitype/StillImage" />
      </cc:Work>
    </rdf:RDF>
  </metadata>
  <defs
     id="defs87" />
  <sodipodi:namedview
     pagecolor="#ffffff"
     bordercolor="#666666"
     borderopacity="1"
     objecttolerance="10"
     gridtolerance="10"
     guidetolerance="10"
     inkscape:pageopacity="0"
     inkscape:pageshadow="2"
     inkscape:window-width="1280"
     inkscape:window-height="973"
     id="namedview85"
     showgrid="false"
     inkscape:zoom="1.84375"
     inkscape:cx="132.78923"
     inkscape:cy="335.51382"
     inkscape:window-x="1280"
     inkscape:window-y="25"
     inkscape:window-maximized="1"
     inkscape:current-layer="g12" />
  <path
     d="m1 58c0 .55.45 1 1 1h60c.55 0 1-.45 1-1v-49h-62z"
     id="path2"
     fill="#e6e9ed" />
  <path
     d="m63 7v2h-62v-2c0-1.109.89-2 2-2h58c1.11 0 2 .891 2 2z"
     fill="#ccd1d9"
     id="path4" />
  <g
     id="g12"
     style="fill:#e6e9ed;fill-opacity:1">
    <path
       d="m 4.006,5.998 h -0.01 c -0.553,0 -0.995,0.447 -0.995,1 0,0.552 0.452,1 1.005,1 0.553,0 1,-0.448 1,-1 0,-0.553 -0.447,-1 -1,-1 z"
       id="path6"
       inkscape:connector-curvature="0"
       style="fill:#5d9cec;fill-opacity:1" />
    <path
       d="M 7.005,5.998 H 6.995 C 6.443,5.998 6,6.445 6,6.998 c 0,0.552 0.453,1 1.005,1 0.553,0 1,-0.448 1,-1 0,-0.553 -0.447,-1 -1,-1 z"
       id="path8"
       inkscape:connector-curvature="0"
       style="fill:#e6e9ed;fill-opacity:1" />
    <path
       d="m 10.008,5.998 h -0.01 c -0.553,0 -0.995,0.447 -0.995,1 0,0.552 0.452,1 1.005,1 0.553,0 1,-0.448 1,-1 0,-0.553 -0.447,-1 -1,-1 z"
       id="path10"
       inkscape:connector-curvature="0"
       style="fill:#e6e9ed;fill-opacity:1" />
  </g>
  <path
     d="m19.999 26.998h-.994c-.553 0-1 .447-1 1 0 .519.399.932.905.98-.244 1.48-1.022 2.785-2.141 3.682-1.029.84-2.339 1.34-3.769 1.34s-2.74-.5-3.77-1.34c-1.118-.896-1.896-2.2-2.141-3.68.511-.045.915-.461.915-.982 0-.553-.447-1-1-1h-1.001c-.553 0-1 .447-1 1v27.006c0 .553.447 1 1 1h13.996c.553 0 1-.447 1-1v-27.006c0-.553-.447-1-1-1z"
     fill="#ccd1d9"
     id="path14" />
  <path
     d="m38.999 26.998h-.994c-.553 0-1 .447-1 1 0 .519.399.932.905.98-.244 1.48-1.022 2.785-2.141 3.682-1.029.84-2.339 1.34-3.769 1.34s-2.74-.5-3.77-1.34c-1.118-.896-1.896-2.2-2.141-3.68.511-.045.915-.461.915-.982 0-.553-.447-1-1-1h-1.002c-.553 0-1 .447-1 1v27.006c0 .553.447 1 1 1h13.996c.553 0 1-.447 1-1v-27.006c.001-.553-.446-1-.999-1z"
     fill="#ccd1d9"
     id="path16" />
  <path
     d="m57.999 26.998h-.994c-.553 0-1 .447-1 1 0 .519.399.932.905.98-.244 1.48-1.022 2.785-2.141 3.682-1.029.84-2.339 1.34-3.769 1.34s-2.74-.5-3.77-1.34c-1.118-.896-1.896-2.2-2.141-3.68.511-.045.915-.461.915-.982 0-.553-.447-1-1-1h-1.002c-.553 0-1 .447-1 1v27.006c0 .553.447 1 1 1h13.996c.553 0 1-.447 1-1v-27.006c.001-.553-.446-1-.999-1z"
     fill="#ccd1d9"
     id="path18" />
  <path
     d="m19.999 25.998h-.994c-.553 0-1 .447-1 1 0 .518.399.931.905.98-.244 1.479-1.022 2.785-2.141 3.682-1.029.84-2.339 1.34-3.769 1.34s-2.74-.5-3.77-1.34c-1.118-.896-1.896-2.201-2.141-3.68.511-.045.915-.461.915-.982 0-.553-.447-1-1-1h-1.001c-.553 0-1 .447-1 1v27.005c0 .553.447 1 1 1h13.996c.553 0 1-.447 1-1v-27.005c0-.553-.447-1-1-1z"
     fill="#fff"
     id="path20" />
  <path
     d="m38.999 25.998h-.994c-.553 0-1 .447-1 1 0 .518.399.931.905.98-.244 1.479-1.022 2.785-2.141 3.682-1.029.84-2.339 1.34-3.769 1.34s-2.74-.5-3.77-1.34c-1.118-.896-1.896-2.201-2.141-3.68.511-.045.915-.461.915-.982 0-.553-.447-1-1-1h-1.002c-.553 0-1 .447-1 1v27.005c0 .553.447 1 1 1h13.996c.553 0 1-.447 1-1v-27.005c.001-.553-.446-1-.999-1z"
     fill="#fff"
     id="path22"
     style="fill:#656d78;fill-opacity:1" />
  <path
     d="m57.999 25.998h-.994c-.553 0-1 .447-1 1 0 .518.399.931.905.98-.244 1.479-1.022 2.785-2.141 3.682-1.029.84-2.339 1.34-3.769 1.34s-2.74-.5-3.77-1.34c-1.118-.896-1.896-2.201-2.141-3.68.511-.045.915-.461.915-.982 0-.553-.447-1-1-1h-1.002c-.553 0-1 .447-1 1v27.005c0 .553.447 1 1 1h13.996c.553 0 1-.447 1-1v-27.005c.001-.553-.446-1-.999-1z"
     fill="#fff"
     id="path24" />
  <path
     d="m32 29c1.74 0 3.22 1.109 3.77 2.66-1.03.84-2.34 1.34-3.77 1.34s-2.74-.5-3.77-1.34c.55-1.551 2.03-2.66 3.77-2.66z"
     fill="#48cfad"
     id="path30" />
  <path
     d="m30 27c0 1.1.9 2 2 2-1.74 0-3.22 1.109-3.77 2.66-1.36-1.09-2.23-2.781-2.23-4.66 0-3.311 2.69-6 6-6 3.32 0 6 2.689 6 6 0 1.879-.87 3.57-2.23 4.66-.55-1.551-2.03-2.66-3.77-2.66 1.11 0 2-.9 2-2 0-1.111-.89-2-2-2-1.1 0-2 .889-2 2z"
     fill="#656d78"
     id="path32" />
  <path
     d="m17 39h-8c-.553 0-1-.447-1-1s.447-1 1-1h8c.553 0 1 .447 1 1s-.447 1-1 1z"
     fill="#e6e9ed"
     id="path40"
     style="fill:#ccd1d9;fill-opacity:1" />
  <path
     d="m17 42h-8c-.553 0-1-.447-1-1s.447-1 1-1h8c.553 0 1 .447 1 1s-.447 1-1 1z"
     fill="#e6e9ed"
     id="path42"
     style="fill:#ccd1d9;fill-opacity:1" />
  <path
     d="m15.001 45h-4.002c-.553 0-1-.447-1-1s.447-1 1-1h4.002c.553 0 1 .447 1 1s-.447 1-1 1z"
     fill="#e6e9ed"
     id="path44"
     style="fill:#ccd1d9;fill-opacity:1" />
  <path
     d="m10.023 50.005c-.553 0-1.005-.447-1.005-1s.442-1 .994-1h.011c.552 0 1 .447 1 1s-.448 1-1 1z"
     fill="#656d78"
     id="path46" />
  <path
     d="m13.022 50.005c-.553 0-1.005-.447-1.005-1s.442-1 .994-1h.011c.552 0 1 .447 1 1s-.448 1-1 1z"
     fill="#656d78"
     id="path48" />
  <path
     d="m16.025 50.005c-.553 0-1.005-.447-1.005-1s.442-1 .994-1h.011c.552 0 1 .447 1 1s-.448 1-1 1z"
     fill="#656d78"
     id="path50" />
  <path
     d="m36 39h-8c-.553 0-1-.447-1-1s.447-1 1-1h8c.553 0 1 .447 1 1s-.447 1-1 1z"
     fill="#e6e9ed"
     id="path52" />
  <path
     d="m36 42h-8c-.553 0-1-.447-1-1s.447-1 1-1h8c.553 0 1 .447 1 1s-.447 1-1 1z"
     fill="#e6e9ed"
     id="path54" />
  <path
     d="m34.001 45h-4.002c-.553 0-1-.447-1-1s.447-1 1-1h4.002c.553 0 1 .447 1 1s-.447 1-1 1z"
     fill="#e6e9ed"
     id="path56" />
  <path
     d="m29.023 50.005c-.553 0-1.005-.447-1.005-1s.442-1 .994-1h.011c.552 0 1 .447 1 1s-.448 1-1 1z"
     fill="#656d78"
     id="path58"
     style="fill:#ffffff;fill-opacity:1" />
  <path
     d="m32.022 50.005c-.553 0-1.005-.447-1.005-1s.442-1 .994-1h.011c.552 0 1 .447 1 1s-.448 1-1 1z"
     fill="#656d78"
     id="path60"
     style="fill:#ffffff;fill-opacity:1" />
  <path
     d="m35.025 50.005c-.553 0-1.005-.447-1.005-1s.442-1 .994-1h.011c.552 0 1 .447 1 1s-.448 1-1 1z"
     fill="#656d78"
     id="path62"
     style="fill:#ffffff;fill-opacity:1" />
  <path
     d="m55 39h-8c-.553 0-1-.447-1-1s.447-1 1-1h8c.553 0 1 .447 1 1s-.447 1-1 1z"
     fill="#e6e9ed"
     id="path64"
     style="fill:#ccd1d9;fill-opacity:1" />
  <path
     d="m55 42h-8c-.553 0-1-.447-1-1s.447-1 1-1h8c.553 0 1 .447 1 1s-.447 1-1 1z"
     fill="#e6e9ed"
     id="path66"
     style="fill:#ccd1d9;fill-opacity:1" />
  <path
     d="m53.001 45h-4.002c-.553 0-1-.447-1-1s.447-1 1-1h4.002c.553 0 1 .447 1 1s-.447 1-1 1z"
     fill="#e6e9ed"
     id="path68"
     style="fill:#ccd1d9;fill-opacity:1" />
  <path
     d="m48.023 50.005c-.553 0-1.005-.447-1.005-1s.442-1 .994-1h.011c.552 0 1 .447 1 1s-.448 1-1 1z"
     fill="#656d78"
     id="path70" />
  <path
     d="m51.022 50.005c-.553 0-1.005-.447-1.005-1s.442-1 .994-1h.011c.552 0 1 .447 1 1s-.448 1-1 1z"
     fill="#656d78"
     id="path72" />
  <path
     d="m54.025 50.005c-.553 0-1.005-.447-1.005-1s.442-1 .994-1h.011c.552 0 1 .447 1 1s-.448 1-1 1z"
     fill="#656d78"
     id="path74" />
  <path
     d="m51 14.998h-38c-.553 0-1-.447-1-1 0-.552.447-1 1-1h38c.553 0 1 .448 1 1 0 .553-.447 1-1 1z"
     fill="#ccd1d9"
     id="path76" />
  <path
     d="m44 17.998h-24c-.553 0-1-.447-1-1s.447-1 1-1h24c.553 0 1 .447 1 1s-.447 1-1 1z"
     fill="#ccd1d9"
     id="path78" />
  <path
     d="m34.5 27.5c0 1.374-1.112 2.5-2.5 2.5-1.375 0-2.5-1.126-2.5-2.5 0-1.389 1.125-2.5 2.5-2.5 1.388 0 2.5 1.111 2.5 2.5z"
     fill="#eac6bb"
     id="path80" />
  <circle
     style="fill:#5d9cec;fill-opacity:1;stroke-width:0.11999996"
     id="path93"
     cx="32.004242"
     cy="26.995777"
     r="6" />
  <circle
     style="fill:#5d9cec;fill-opacity:1;stroke-width:0.11999996"
     id="path93-3"
     cx="13.001"
     cy="26.995777"
     r="6" />
  <circle
     style="fill:#5d9cec;fill-opacity:1;stroke-width:0.11999996"
     id="path93-6"
     cx="51"
     cy="26.995777"
     r="6" />
  <circle
     style="fill:#e6e9ed;fill-opacity:1;stroke-width:0.10749996"
     id="path93-35"
     cx="32.004242"
     cy="26.995777"
     r="5.375" />
  <circle
     style="fill:#e6e9ed;fill-opacity:1;stroke-width:0.10749996"
     id="path93-3-6"
     cx="13.001"
     cy="26.995777"
     r="5.375" />
  <circle
     style="fill:#e6e9ed;fill-opacity:1;stroke-width:0.10749996"
     id="path93-6-2"
     cx="51"
     cy="26.995777"
     r="5.375" />
</svg>
