<?xml version="1.0" encoding="UTF-8" standalone="no"?>
<svg
   xmlns:dc="http://purl.org/dc/elements/1.1/"
   xmlns:cc="http://creativecommons.org/ns#"
   xmlns:rdf="http://www.w3.org/1999/02/22-rdf-syntax-ns#"
   xmlns:svg="http://www.w3.org/2000/svg"
   xmlns="http://www.w3.org/2000/svg"
   xmlns:sodipodi="http://sodipodi.sourceforge.net/DTD/sodipodi-0.dtd"
   xmlns:inkscape="http://www.inkscape.org/namespaces/inkscape"
   id="icons"
   enable-background="new 0 0 64 64"
   height="512"
   viewBox="0 0 64 64"
   width="512"
   version="1.1"
   sodipodi:docname="ui-card.svg"
   inkscape:version="0.92.4 (5da689c313, 2019-01-14)">
  <metadata
     id="metadata63">
    <rdf:RDF>
      <cc:Work
         rdf:about="">
        <dc:format>image/svg+xml</dc:format>
        <dc:type
           rdf:resource="http://purl.org/dc/dcmitype/StillImage" />
      </cc:Work>
    </rdf:RDF>
  </metadata>
  <defs
     id="defs61" />
  <sodipodi:namedview
     pagecolor="#ffffff"
     bordercolor="#666666"
     borderopacity="1"
     objecttolerance="10"
     gridtolerance="10"
     guidetolerance="10"
     inkscape:pageopacity="0"
     inkscape:pageshadow="2"
     inkscape:window-width="1280"
     inkscape:window-height="973"
     id="namedview59"
     showgrid="false"
     inkscape:zoom="0.921875"
     inkscape:cx="243.99829"
     inkscape:cy="185.23353"
     inkscape:window-x="1280"
     inkscape:window-y="25"
     inkscape:window-maximized="1"
     inkscape:current-layer="icons" />
  <path
     d="m1 58c0 .55.45 1 1 1h60c.55 0 1-.45 1-1v-49h-62z"
     fill="#e6e9ed"
     id="path2" />
  <path
     d="m63 7v2h-62v-2c0-1.109.89-2 2-2h58c1.11 0 2 .891 2 2z"
     fill="#ccd1d9"
     id="path4" />
  <path
     d="m4.006 5.998h-.01c-.552 0-.995.447-.995 1 0 .552.453 1 1.005 1 .553 0 1-.448 1-1 0-.553-.447-1-1-1z"
     fill="#e6e9ed"
     id="path6"
     style="fill:#4a89dc;fill-opacity:1" />
  <path
     d="m7.005 5.998h-.01c-.553 0-.995.447-.995 1 0 .552.452 1 1.005 1s1-.448 1-1c0-.553-.447-1-1-1z"
     fill="#e6e9ed"
     id="path8" />
  <path
     d="m10.008 5.998h-.01c-.552 0-.995.447-.995 1 0 .552.453 1 1.005 1 .553 0 1-.448 1-1 0-.553-.447-1-1-1z"
     fill="#e6e9ed"
     id="path10" />
  <g
     id="g892"
     transform="matrix(0.68572793,0,0,0.68572793,10.056706,11.89835)">
    <path
       style="fill:#545c66;fill-opacity:1"
       id="path12"
       d="m 5,16.75 h 54 v 34.5 H 5 Z"
       inkscape:connector-curvature="0" />
    <path
       style="fill:#5d9cec;fill-opacity:1;stroke-width:0.34444749"
       inkscape:connector-curvature="0"
       id="path14"
       d="M 5,50.868644 C 5,50.80339 5.45,50.75 6,50.75 h 52 c 0.55,0 1,0.05339 1,0.118644 v 0.474576 c 0,0.06526 -0.45,0.118644 -1,0.118644 H 6 c -0.55,0 -1,-0.05339 -1,-0.118644 z" />
    <path
       id="path16"
       d="m 15,27 c 1.11,0 2,0.9 2,2 0,1.11 -0.89,2 -2,2 -1.1,0 -2,-0.89 -2,-2 0,-1.1 0.9,-2 2,-2 z"
       inkscape:connector-curvature="0"
       style="fill:#ffce54" />
    <path
       id="path18"
       d="M 14,38 16.53,41.53 14,45 H 9 Z"
       inkscape:connector-curvature="0"
       style="fill:#545c66" />
    <path
       id="path20"
       d="m 22,34 8,11 H 14 l 2.53,-3.47 z"
       inkscape:connector-curvature="0"
       style="fill:#656d78" />
    <path
       id="path22"
       d="M 30,23 V 45 L 22,34 16.53,41.53 14,38 9,45 V 23 Z m -13,6 c 0,-1.1 -0.89,-2 -2,-2 -1.1,0 -2,0.9 -2,2 0,1.11 0.9,2 2,2 1.11,0 2,-0.89 2,-2 z"
       inkscape:connector-curvature="0"
       style="fill:#5d9cec" />
    <path
       style="fill:#5d9cec;fill-opacity:1"
       id="path24"
       d="m 5,14 c 0,-0.55 0.45,-1 1,-1 h 52 c 0.55,0 1,0.45 1,1 v 4 c 0,0.55 -0.45,1 -1,1 H 6 C 5.45,19 5,18.55 5,18 Z"
       inkscape:connector-curvature="0" />
    <path
       d="M 26,16.998 H 9.001 c -0.553,0 -1,-0.447 -1,-1 0,-0.553 0.447,-1 1,-1 H 26 c 0.553,0 1,0.447 1,1 0,0.553 -0.447,1 -1,1 z"
       id="path26"
       inkscape:connector-curvature="0"
       style="fill:#e6e9ed" />
    <path
       d="m 55,16.998 h -2 c -0.553,0 -1,-0.447 -1,-1 0,-0.553 0.447,-1 1,-1 h 2 c 0.553,0 1,0.447 1,1 0,0.553 -0.447,1 -1,1 z"
       id="path28"
       inkscape:connector-curvature="0"
       style="fill:#e6e9ed" />
    <path
       id="path38"
       d="M 55.004,26.988 H 35.005 c -0.553,0 -1,-0.447 -1,-1 0,-0.553 0.447,-1 1,-1 h 19.999 c 0.553,0 1,0.447 1,1 0,0.553 -0.447,1 -1,1 z"
       inkscape:connector-curvature="0"
       style="fill:#ccd1d9" />
    <path
       id="path40"
       d="M 55.004,29.988 H 35.005 c -0.553,0 -1,-0.447 -1,-1 0,-0.553 0.447,-1 1,-1 h 19.999 c 0.553,0 1,0.447 1,1 0,0.553 -0.447,1 -1,1 z"
       inkscape:connector-curvature="0"
       style="fill:#ccd1d9" />
    <path
       id="path42"
       d="M 55.004,32.988 H 35.005 c -0.553,0 -1,-0.447 -1,-1 0,-0.553 0.447,-1 1,-1 h 19.999 c 0.553,0 1,0.447 1,1 0,0.553 -0.447,1 -1,1 z"
       inkscape:connector-curvature="0"
       style="fill:#ccd1d9" />
    <path
       id="path44"
       d="m 44.994,35.988 h -9.989 c -0.553,0 -1,-0.447 -1,-1 0,-0.553 0.447,-1 1,-1 h 9.989 c 0.553,0 1,0.447 1,1 0,0.553 -0.447,1 -1,1 z"
       inkscape:connector-curvature="0"
       style="fill:#ccd1d9" />
    <path
       id="path50"
       d="M 30.002,22.004 H 8.998 c -0.553,0 -1,0.447 -1,1 v 21.998 c 0,0.553 0.447,1 1,1 h 21.004 c 0.553,0 1,-0.447 1,-1 V 23.004 c 0,-0.553 -0.447,-1 -1,-1 z"
       inkscape:connector-curvature="0"
       style="fill:#5d9cec" />
    <path
       id="path52"
       d="m 15.005,26.506 c 1.388,0 2.5,1.125 2.5,2.5 0,1.375 -1.112,2.5 -2.5,2.5 -1.375,0 -2.5,-1.125 -2.5,-2.5 0,-1.375 1.125,-2.5 2.5,-2.5 z"
       inkscape:connector-curvature="0"
       style="fill:#ffce54" />
    <path
       style="fill:#ccd1d9;fill-opacity:1"
       id="path54"
       d="m 22.809,34.411 c -0.032,-0.044 -0.078,-0.069 -0.115,-0.106 -0.037,-0.037 -0.062,-0.083 -0.105,-0.114 -0.012,-0.009 -0.025,-0.01 -0.037,-0.018 -0.063,-0.042 -0.132,-0.065 -0.201,-0.092 -0.054,-0.02 -0.104,-0.047 -0.158,-0.058 -0.063,-0.013 -0.127,-0.007 -0.191,-0.007 -0.064,0 -0.128,-0.006 -0.191,0.007 -0.055,0.011 -0.104,0.038 -0.158,0.058 -0.069,0.026 -0.138,0.05 -0.201,0.092 -0.012,0.008 -0.025,0.009 -0.037,0.018 -0.044,0.031 -0.068,0.077 -0.105,0.114 -0.037,0.037 -0.083,0.063 -0.115,0.106 l -8.429,11.591 h 2.473 l 10e-4,-0.001 h 13.527 l 0.001,0.001 h 1.237 c 0.374,0 0.687,-0.214 0.858,-0.518 z"
       inkscape:connector-curvature="0" />
    <path
       style="fill:#656d78;fill-opacity:1"
       id="path56"
       d="M 16.529,40.821 14.813,38.419 C 14.78,38.373 14.733,38.347 14.694,38.308 14.655,38.269 14.628,38.22 14.581,38.187 14.571,38.18 14.56,38.179 14.55,38.172 c -0.063,-0.041 -0.131,-0.063 -0.199,-0.088 -0.054,-0.021 -0.104,-0.05 -0.159,-0.06 -0.067,-0.014 -0.135,-0.007 -0.203,-0.006 -0.06,10e-4 -0.117,-0.007 -0.176,0.005 -0.062,0.012 -0.117,0.042 -0.176,0.065 -0.063,0.025 -0.127,0.045 -0.185,0.083 -0.011,0.007 -0.023,0.007 -0.033,0.015 -0.048,0.034 -0.075,0.083 -0.115,0.123 -0.038,0.039 -0.085,0.064 -0.117,0.109 L 8.14,45.484 c 0.172,0.304 0.484,0.518 0.858,0.518 h 1.229 l 10e-4,-0.001 h 2.536 z"
       inkscape:connector-curvature="0" />
  </g>
</svg>
