<svg id="icons" enable-background="new 0 0 64 64" height="512" viewBox="0 0 64 64" width="512" xmlns="http://www.w3.org/2000/svg"><path d="m1 58c0 .55.45 1 1 1h60c.55 0 1-.45 1-1v-49h-62z" fill="#e6e9ed"/><path d="m63 7v2h-62v-2c0-1.109.89-2 2-2h58c1.11 0 2 .891 2 2z" fill="#ccd1d9"/><path d="m4.006 5.998h-.01c-.552 0-.995.447-.995 1 0 .552.453 1 1.005 1 .553 0 1-.448 1-1 0-.553-.447-1-1-1z" fill="#e6e9ed"/><path d="m7.005 5.998h-.01c-.553 0-.995.447-.995 1 0 .552.452 1 1.005 1s1-.448 1-1c0-.553-.447-1-1-1z" fill="#e6e9ed"/><path d="m10.008 5.998h-.01c-.552 0-.995.447-.995 1 0 .552.453 1 1.005 1 .553 0 1-.448 1-1 0-.553-.447-1-1-1z" fill="#e6e9ed"/><path d="m59.001 40.491h-54.001c-.553 0-1-.447-1-1v-26.493c0-.553.447-1 1-1h54.001c.553 0 1 .447 1 1v26.493c0 .553-.447 1-1 1z" fill="#5d9cec"/><path d="m20.01 16.5c1.937 0 3.5 1.563 3.5 3.5 0 1.926-1.563 3.5-3.5 3.5s-3.5-1.574-3.5-3.5c0-1.937 1.563-3.5 3.5-3.5z" fill="#ffce54"/><g fill="#4a89dc"><path d="m8.008 28.009c-.256 0-.512-.098-.707-.293-.391-.391-.391-1.023 0-1.414l1.999-1.999c.391-.391 1.023-.391 1.414 0s.391 1.023 0 1.414l-1.999 1.999c-.195.195-.451.293-.707.293z"/><path d="m10.007 30.009c-.256 0-.512-.098-.707-.293l-1.999-2c-.391-.391-.391-1.023 0-1.414s1.023-.391 1.414 0l1.999 2c.391.391.391 1.023 0 1.414-.195.195-.451.293-.707.293z"/><path d="m56.001 28.009c-.256 0-.512-.098-.707-.293l-1.999-1.999c-.391-.391-.391-1.023 0-1.414s1.023-.391 1.414 0l1.999 1.999c.391.391.391 1.023 0 1.414-.195.195-.451.293-.707.293z"/><path d="m54.002 30.009c-.256 0-.512-.098-.707-.293-.391-.391-.391-1.023 0-1.414l1.999-2c.391-.391 1.023-.391 1.414 0s.391 1.023 0 1.414l-1.999 2c-.195.195-.451.293-.707.293z"/></g><path d="m26.258 40.491 25.469-.001.001.001h2.533l-14.48-18.609c-.025-.033-.063-.05-.091-.078-.03-.03-.048-.069-.083-.097-.021-.017-.048-.021-.069-.035-.057-.037-.114-.063-.177-.088-.061-.024-.118-.048-.182-.06-.062-.012-.12-.013-.183-.013-.066 0-.129 0-.194.013-.061.012-.115.034-.173.058-.064.025-.125.052-.184.091-.021.015-.047.018-.068.034-.035.027-.053.066-.083.097-.028.028-.065.045-.091.078l-14.48 18.609z" fill="#656d78"/><path d="m27.689 26.807c-.031-.032-.051-.073-.088-.102-.02-.016-.044-.019-.064-.031-.058-.039-.117-.064-.181-.089-.059-.023-.115-.048-.176-.06-.063-.012-.125-.012-.189-.012-.063 0-.126 0-.188.012-.061.012-.117.035-.176.059-.063.025-.123.051-.182.09-.02.014-.044.017-.063.031-.037.028-.056.068-.088.101-.03.03-.068.048-.095.083l-10.467 13.602h2.523l.001-.001h5.468l7.303-9.386-3.243-4.216c-.026-.034-.064-.051-.095-.081z" fill="#545c66"/><path d="m9.499 50 2.02 2.88-1.52 2.12h-4z" fill="#545c66"/><path d="m19.999 42.999h-14.999c-.553 0-1 .447-1 1v11.001c0 .553.447 1 1 1h14.999c.553 0 1-.447 1-1v-11.001c0-.553-.447-1-1-1z" fill="#5d9cec"/><path d="m8.031 48.495c-.827 0-1.504-.669-1.504-1.496s.662-1.496 1.488-1.496h.016c.826 0 1.496.669 1.496 1.496s-.67 1.496-1.496 1.496z" fill="#ffce54"/><path d="m19.999 56c.374 0 .688-.214.858-.518l-5.045-7.064c-.033-.046-.08-.072-.118-.11-.04-.04-.067-.089-.114-.122-.01-.007-.021-.008-.032-.015-.062-.04-.129-.062-.196-.088-.055-.021-.105-.049-.162-.061-.065-.013-.131-.006-.198-.005-.061 0-.121-.007-.182.005-.058.011-.11.04-.167.063-.066.025-.133.047-.193.087-.01.006-.021.007-.031.014-.046.033-.073.081-.112.12s-.087.065-.12.112l-5.416 7.582z" fill="#656d78"/><path d="m10.318 50.427c-.034-.05-.085-.079-.126-.12s-.07-.092-.12-.126c-.007-.005-.015-.005-.022-.01-.066-.044-.141-.066-.215-.093-.049-.018-.095-.046-.145-.056-.063-.013-.127-.004-.191-.004s-.128-.009-.191.004c-.05.01-.096.037-.145.056-.074.026-.148.049-.215.093-.008.005-.016.005-.022.01-.049.034-.077.083-.118.124-.042.042-.093.071-.128.122l-3.902 5.573h3.993l2.751-3.853z" fill="#545c66"/><path d="m48.501 50 2.02 2.88-1.52 2.12h-4z" fill="#545c66"/><path d="m59.001 42.999h-14.999c-.553 0-1 .447-1 1v11.001c0 .553.447 1 1 1h14.999c.553 0 1-.447 1-1v-11.001c0-.553-.447-1-1-1z" fill="#5d9cec"/><path d="m47.033 48.495c-.827 0-1.504-.669-1.504-1.496s.662-1.496 1.488-1.496h.016c.826 0 1.496.669 1.496 1.496s-.67 1.496-1.496 1.496z" fill="#ffce54"/><path d="m59.001 56c.374 0 .688-.214.858-.518l-5.045-7.064c-.033-.046-.08-.072-.118-.11-.04-.04-.067-.089-.114-.122-.01-.007-.021-.008-.032-.015-.062-.04-.129-.062-.196-.088-.055-.021-.105-.049-.162-.061-.065-.013-.131-.006-.198-.005-.061 0-.121-.007-.182.005-.058.011-.11.04-.167.063-.066.025-.133.047-.193.087-.01.006-.021.007-.031.014-.046.033-.073.081-.112.12s-.087.065-.12.112l-5.416 7.582z" fill="#656d78"/><path d="m49.32 50.427c-.034-.05-.085-.079-.126-.12s-.07-.092-.12-.126c-.007-.005-.015-.005-.022-.01-.066-.044-.141-.066-.215-.093-.049-.019-.095-.046-.145-.056-.063-.013-.127-.004-.191-.004s-.128-.009-.191.004c-.05.01-.096.037-.145.056-.074.026-.148.049-.215.093-.008.005-.016.005-.022.01-.049.034-.077.083-.118.124-.042.042-.093.071-.128.122l-3.902 5.573h3.993l2.751-3.853z" fill="#545c66"/><path d="m29 50 2.02 2.88-1.52 2.12h-4z" fill="#545c66"/><path d="m39.5 42.999h-14.999c-.553 0-1 .447-1 1v11.001c0 .553.447 1 1 1h14.999c.553 0 1-.447 1-1v-11.001c0-.553-.447-1-1-1z" fill="#5d9cec"/><path d="m27.532 48.495c-.827 0-1.504-.669-1.504-1.496s.662-1.496 1.488-1.496h.016c.826 0 1.496.669 1.496 1.496s-.67 1.496-1.496 1.496z" fill="#ffce54"/><path d="m39.5 56c.374 0 .688-.214.858-.518l-5.045-7.064c-.033-.046-.08-.072-.118-.11-.04-.04-.067-.089-.114-.122-.01-.007-.021-.008-.032-.015-.062-.04-.129-.062-.196-.088-.055-.021-.105-.049-.162-.061-.065-.013-.131-.006-.198-.005-.061 0-.121-.007-.182.005-.058.011-.11.04-.167.063-.066.025-.133.047-.193.087-.01.006-.021.007-.031.014-.046.033-.073.081-.112.12s-.087.065-.12.112l-5.416 7.582z" fill="#656d78"/><path d="m29.819 50.427c-.034-.05-.085-.079-.126-.12s-.07-.092-.12-.126c-.007-.005-.015-.005-.022-.01-.066-.044-.141-.066-.215-.093-.049-.019-.095-.046-.145-.056-.063-.013-.127-.004-.191-.004s-.128-.009-.191.004c-.05.01-.096.037-.145.056-.074.026-.148.049-.215.093-.008.005-.016.005-.022.01-.049.034-.077.083-.118.124-.042.042-.093.071-.128.122l-3.902 5.573h3.993l2.751-3.853z" fill="#545c66"/></svg>