<?xml version="1.0" encoding="UTF-8" standalone="no"?>
<svg
   xmlns:dc="http://purl.org/dc/elements/1.1/"
   xmlns:cc="http://creativecommons.org/ns#"
   xmlns:rdf="http://www.w3.org/1999/02/22-rdf-syntax-ns#"
   xmlns:svg="http://www.w3.org/2000/svg"
   xmlns="http://www.w3.org/2000/svg"
   xmlns:sodipodi="http://sodipodi.sourceforge.net/DTD/sodipodi-0.dtd"
   xmlns:inkscape="http://www.inkscape.org/namespaces/inkscape"
   id="icons"
   enable-background="new 0 0 64 64"
   height="512"
   viewBox="0 0 64 64"
   width="512"
   version="1.1"
   sodipodi:docname="ui-upload.svg"
   inkscape:version="0.92.4 (5da689c313, 2019-01-14)">
  <metadata
     id="metadata41">
    <rdf:RDF>
      <cc:Work
         rdf:about="">
        <dc:format>image/svg+xml</dc:format>
        <dc:type
           rdf:resource="http://purl.org/dc/dcmitype/StillImage" />
      </cc:Work>
    </rdf:RDF>
  </metadata>
  <defs
     id="defs39" />
  <sodipodi:namedview
     pagecolor="#ffffff"
     bordercolor="#666666"
     borderopacity="1"
     objecttolerance="10"
     gridtolerance="10"
     guidetolerance="10"
     inkscape:pageopacity="0"
     inkscape:pageshadow="2"
     inkscape:window-width="1280"
     inkscape:window-height="973"
     id="namedview37"
     showgrid="false"
     inkscape:zoom="0.921875"
     inkscape:cx="222.55805"
     inkscape:cy="293.28026"
     inkscape:window-x="0"
     inkscape:window-y="25"
     inkscape:window-maximized="1"
     inkscape:current-layer="icons" />
  <path
     d="m1 58c0 .55.45 1 1 1h60c.55 0 1-.45 1-1v-49h-62z"
     fill="#e6e9ed"
     id="path2" />
  <path
     d="m63 7v2h-62v-2c0-1.109.89-2 2-2h58c1.11 0 2 .891 2 2z"
     fill="#ccd1d9"
     id="path4" />
  <g
     id="g12"
     style="fill:#e6e9ed">
    <path
       d="m 4.006,5.998 h -0.01 c -0.553,0 -0.995,0.447 -0.995,1 0,0.552 0.452,1 1.005,1 0.553,0 1,-0.448 1,-1 0,-0.553 -0.447,-1 -1,-1 z"
       id="path6"
       inkscape:connector-curvature="0"
       style="fill:#5d9cec;fill-opacity:1" />
    <path
       d="M 7.005,5.998 H 6.995 C 6.443,5.998 6,6.445 6,6.998 c 0,0.552 0.453,1 1.005,1 0.553,0 1,-0.448 1,-1 0,-0.553 -0.447,-1 -1,-1 z"
       id="path8"
       inkscape:connector-curvature="0" />
    <path
       d="m 10.008,5.998 h -0.01 c -0.553,0 -0.995,0.447 -0.995,1 0,0.552 0.452,1 1.005,1 0.553,0 1,-0.448 1,-1 0,-0.553 -0.447,-1 -1,-1 z"
       id="path10"
       inkscape:connector-curvature="0" />
  </g>
  <path
     d="m51 39.997h-38c-.553 0-1-.447-1-1v-.998c0-.553.447-1 1-1h38c.553 0 1 .447 1 1v.998c0 .553-.447 1-1 1z"
     fill="#ccd1d9"
     id="path14"
     style="fill:#ffffff;fill-opacity:1" />
  <path
     d="m38.587 36.999h-25.587c-.553 0-1 .447-1 1v.998c0 .553.447 1 1 1h22.588z"
     fill="#5d9cec"
     id="path16" />
  <path
     d="m41.511 52.009c.82 0 1.5.67 1.5 1.5s-.68 1.5-1.5 1.5h-19.022c-.82 0-1.5-.67-1.5-1.5s.68-1.5 1.5-1.5z"
     fill="#4a89dc"
     id="path18" />
  <circle
     cx="32"
     cy="23.5"
     fill="#48cfad"
     r="10.5"
     id="circle20"
     style="fill:#656d78;fill-opacity:1" />
  <path
     d="m51.001 45.007h-38.006c-.553 0-1-.447-1-1s.447-1 1-1h38.006c.553 0 1 .447 1 1s-.447 1-1 1z"
     fill="#ccd1d9"
     id="path22"
     style="fill:#ccd1d9;fill-opacity:1" />
  <path
     d="m41.999 48.008h-20.002c-.553 0-1-.447-1-1s.447-1 1-1h20.002c.553 0 1 .447 1 1s-.447 1-1 1z"
     fill="#ccd1d9"
     id="path24"
     style="fill:#ccd1d9;fill-opacity:1" />
  <path
     d="m32 29.998c-.553 0-1-.447-1-1v-10.999c0-.553.447-1 1-1s1 .447 1 1v10.999c0 .553-.447 1-1 1z"
     fill="#f5f7fa"
     id="path26"
     style="fill:#ffffff;fill-opacity:1" />
  <path
     d="m32 29.998c-.256 0-.512-.098-.707-.293-.391-.391-.391-1.023 0-1.414l4-4c.391-.391 1.023-.391 1.414 0s.391 1.023 0 1.414l-4 4c-.195.195-.451.293-.707.293z"
     fill="#f5f7fa"
     id="path28"
     style="fill:#ffffff;fill-opacity:1" />
  <path
     d="m32 29.998c-.256 0-.512-.098-.707-.293l-3.961-3.961c-.391-.391-.391-1.023 0-1.414s1.023-.391 1.414 0l3.961 3.961c.391.391.391 1.023 0 1.414-.195.195-.451.293-.707.293z"
     fill="#f5f7fa"
     id="path30"
     style="fill:#ffffff;fill-opacity:1" />
  <path
     d="m41.511 51.009c.82 0 1.5.67 1.5 1.5s-.68 1.5-1.5 1.5h-19.022c-.82 0-1.5-.67-1.5-1.5s.68-1.5 1.5-1.5z"
     fill="#5d9cec"
     id="path32" />
  <path
     d="m20.989 52.509h22.021v1h-22.021z"
     fill="#5d9cec"
     id="path34" />
  <path
     inkscape:connector-curvature="0"
     d="m 41.427229,-30.873856 c -0.553,0 -1,-0.447 -1,-1 h -13.001 c 0,0.553 -0.447,1 -1,1 -0.553,0 -1,-0.447 -1,-1 v -6.007 c 0,-0.553 0.447,-1 1,-1 h 15.001 c 0.553,0 1,0.447 1,1 v 6.007 c 0,0.553 -0.447,1 -1,1 z"
     id="path12"
     style="fill:#656d78;fill-opacity:1;stroke-width:1" />
  <path
     inkscape:connector-curvature="0"
     d="m 19.161517,-7.5219238 c -0.553,0 -1,-0.447 -1,-1 h -13.001 c 0,0.553 -0.447,1 -1,1 -0.553,0 -1,-0.447 -1,-1 v -6.0070002 c 0,-0.553 0.447,-1 1,-1 h 15.001 c 0.553,0 1,0.447 1,1 v 6.0070002 c 0,0.553 -0.447,1 -1,1 z"
     id="path12-3"
     style="fill:#656d78;fill-opacity:1;stroke-width:1" />
  <path
     inkscape:connector-curvature="0"
     style="fill:#ffce54;stroke-width:1"
     d="m 32.677966,-14.70339 c 1.388,0 2.5,1.125 2.5,2.5 0,1.375 -1.112,2.5000001 -2.5,2.5000001 -1.375,0 -2.5,-1.1250001 -2.5,-2.5000001 0,-1.375 1.125,-2.5 2.5,-2.5 z"
     id="path40" />
</svg>
