<?xml version="1.0" encoding="iso-8859-1"?>
<!-- Generator: Adobe Illustrator 19.0.0, SVG Export Plug-In . SVG Version: 6.00 Build 0)  -->
<svg version="1.1" id="Capa_1" xmlns="http://www.w3.org/2000/svg" xmlns:xlink="http://www.w3.org/1999/xlink" x="0px" y="0px"
	 viewBox="0 0 512 512" style="enable-background:new 0 0 512 512;" xml:space="preserve">
<g>
	<path style="fill:#00a6fb;" d="M506.086,194.207l2.207-2.825l3.708,2.825v300.138c-0.029,9.739-7.917,17.626-17.655,17.655H17.655
		C7.917,511.971,0.029,504.083,0,494.345V194.207l3.708-2.825l2.207,2.825H506.086z"/>
	<path style="fill:#1464C8;" d="M508.292,191.382l-2.207,2.825L264.828,379.586h-17.655L5.914,194.207l-2.207-2.825l84.568-65.766
		L204.623,35.31l40.695-31.603c6.263-4.943,15.1-4.943,21.363,0l40.695,31.603l116.348,90.306L508.292,191.382z"/>
	<path style="fill:#ffffff;" d="M423.724,52.965v204.535L264.828,379.586h-17.655L88.276,257.501V52.965
		c0.029-9.739,7.917-17.626,17.655-17.655h300.138C415.808,35.339,423.695,43.227,423.724,52.965z"/>
	<g>
		<path style="fill:#3D324C;" d="M167.724,105.931h176.552c4.875,0,8.828-3.952,8.828-8.828c0-4.875-3.952-8.828-8.828-8.828
			H167.724c-4.875,0-8.828,3.952-8.828,8.828C158.897,101.979,162.849,105.931,167.724,105.931z"/>
		<path style="fill:#3D324C;" d="M344.276,141.241H167.724c-4.875,0-8.828,3.952-8.828,8.828s3.952,8.828,8.828,8.828h176.552
			c4.875,0,8.828-3.952,8.828-8.828S349.151,141.241,344.276,141.241z"/>
		<path style="fill:#3D324C;" d="M344.276,194.207h-79.448c-4.875,0-8.828,3.952-8.828,8.828s3.952,8.828,8.828,8.828h79.448
			c4.875,0,8.828-3.952,8.828-8.828S349.151,194.207,344.276,194.207z"/>
	</g>
	<path style="fill:#1464C8;" d="M508.557,504.761c-3.295,4.561-8.586,7.255-14.212,7.239H17.655
		c-5.627,0.017-10.917-2.678-14.212-7.239l202.24-157.043l39.636-30.808c6.263-4.943,15.1-4.943,21.363,0l39.636,30.808
		L508.557,504.761z"/>
</g>
<g>
</g>
<g>
</g>
<g>
</g>
<g>
</g>
<g>
</g>
<g>
</g>
<g>
</g>
<g>
</g>
<g>
</g>
<g>
</g>
<g>
</g>
<g>
</g>
<g>
</g>
<g>
</g>
<g>
</g>
</svg>
