<?xml version="1.0" encoding="iso-8859-1"?>
<!-- Generator: Adobe Illustrator 19.0.0, SVG Export Plug-In . SVG Version: 6.00 Build 0)  -->
<svg version="1.1" id="Capa_1" xmlns="http://www.w3.org/2000/svg" xmlns:xlink="http://www.w3.org/1999/xlink" x="0px" y="0px"
	 viewBox="0 0 512 512" style="enable-background:new 0 0 512 512;" xml:space="preserve">
<g>
	<path style="fill:#00a6fb;" d="M507.661,251.661v242.983c0,9.585-7.771,17.356-17.356,17.356H21.695
		c-9.585,0-17.356-7.771-17.356-17.356V147.525c0-9.585,7.771-17.356,17.356-17.356h468.61c9.585,0,17.356,7.771,17.356,17.356
		V251.661z"/>
	<path style="fill:#ffffff;" d="M503.322,136.157L272.748,333.06c-9.675,8.158-23.822,8.158-33.497,0L8.678,136.157
		c3.257-3.8,8.012-5.987,13.017-5.988h468.61C495.31,130.17,500.065,132.357,503.322,136.157z"/>
	<path style="fill:#1464C8;" d="M501.5,507.835c-3.111,2.686-7.084,4.164-11.195,4.165H21.695c-4.11-0.001-8.083-1.48-11.195-4.165
		l192.217-205.928l36.534,31.154c9.675,8.158,23.822,8.158,33.497,0l36.447-31.154L501.5,507.835z"/>
	<polygon style="fill:#24AE5F;" points="394.847,95.458 256,95.458 256,8.678 394.847,8.678 351.458,52.068 	"/>
	<path style="fill:#7F5B53;" d="M256,234.305c-4.793,0-8.678-3.885-8.678-8.678V8.678C247.322,3.885,251.207,0,256,0
		c4.793,0,8.678,3.885,8.678,8.678v216.949C264.678,230.42,260.793,234.305,256,234.305z"/>
	<path style="fill:#1464C8;" d="M273.356,234.305h-34.712c-4.793,0-8.678-3.885-8.678-8.678s3.885-8.678,8.678-8.678h34.712
		c4.793,0,8.678,3.885,8.678,8.678S278.149,234.305,273.356,234.305z"/>
</g>
<g>
</g>
<g>
</g>
<g>
</g>
<g>
</g>
<g>
</g>
<g>
</g>
<g>
</g>
<g>
</g>
<g>
</g>
<g>
</g>
<g>
</g>
<g>
</g>
<g>
</g>
<g>
</g>
<g>
</g>
</svg>
