<?xml version="1.0" encoding="iso-8859-1"?>
<!-- Generator: Adobe Illustrator 19.0.0, SVG Export Plug-In . SVG Version: 6.00 Build 0)  -->
<svg version="1.1" id="Capa_1" xmlns="http://www.w3.org/2000/svg" xmlns:xlink="http://www.w3.org/1999/xlink" x="0px" y="0px"
	 viewBox="0 0 512 512" style="enable-background:new 0 0 512 512;" xml:space="preserve">
<g>
	<path style="fill:#CFD8DC;" d="M53.333,117.333h405.333c29.455,0,53.333,23.878,53.333,53.333v234.667
		c0,29.455-23.878,53.333-53.333,53.333H53.333C23.878,458.667,0,434.789,0,405.333V170.667
		C0,141.211,23.878,117.333,53.333,117.333z"/>
	<circle style="fill:#CFD8DC;" cx="160" cy="298.667" r="106.667"/>
</g>
<g>
	<path style="fill:#2196F3;" d="M160,416c-64.801,0-117.333-52.532-117.333-117.333S95.199,181.333,160,181.333
		s117.333,52.532,117.333,117.333C277.251,363.434,224.767,415.918,160,416z M160,202.667c-53.019,0-96,42.981-96,96
		s42.981,96,96,96s96-42.981,96-96S213.019,202.667,160,202.667z"/>
	<circle style="fill:#2196F3;" cx="160" cy="277.333" r="42.667"/>
	<path style="fill:#2196F3;" d="M160,405.333c28.264,0.032,55.377-11.191,75.349-31.189c-14-41.62-59.089-64.011-100.71-50.01
		c-23.575,7.93-42.08,26.436-50.01,50.01C104.607,394.147,131.729,405.371,160,405.333z"/>
</g>
<g>
	<path style="fill:#90A4AE;" d="M458.667,245.333H309.333c-5.891,0-10.667-4.776-10.667-10.667S303.442,224,309.333,224h149.333
		c5.891,0,10.667,4.776,10.667,10.667S464.558,245.333,458.667,245.333z"/>
	<path style="fill:#90A4AE;" d="M458.667,309.333H309.333c-5.891,0-10.667-4.776-10.667-10.667c0-5.891,4.776-10.667,10.667-10.667
		h149.333c5.891,0,10.667,4.776,10.667,10.667C469.333,304.558,464.558,309.333,458.667,309.333z"/>
	<path style="fill:#90A4AE;" d="M458.667,373.333H309.333c-5.891,0-10.667-4.776-10.667-10.667c0-5.891,4.776-10.667,10.667-10.667
		h149.333c5.891,0,10.667,4.776,10.667,10.667C469.333,368.558,464.558,373.333,458.667,373.333z"/>
</g>
<path style="fill:#455A64;" d="M224,53.333h85.333C315.224,53.333,320,58.109,320,64v85.333c0,5.891-4.776,10.667-10.667,10.667H224
	c-5.891,0-10.667-4.776-10.667-10.667V64C213.333,58.109,218.109,53.333,224,53.333z"/>
<g>
</g>
<g>
</g>
<g>
</g>
<g>
</g>
<g>
</g>
<g>
</g>
<g>
</g>
<g>
</g>
<g>
</g>
<g>
</g>
<g>
</g>
<g>
</g>
<g>
</g>
<g>
</g>
<g>
</g>
</svg>
