<?xml version="1.0" encoding="iso-8859-1"?>
<!-- Generator: Adobe Illustrator 19.0.0, SVG Export Plug-In . SVG Version: 6.00 Build 0)  -->
<svg version="1.1" id="Capa_1" xmlns="http://www.w3.org/2000/svg" xmlns:xlink="http://www.w3.org/1999/xlink" x="0px" y="0px"
	 viewBox="0 0 512 512" style="enable-background:new 0 0 512 512;" xml:space="preserve">
<g>
	<path style="fill:#00a6fb;" d="M511.197,331.432v168.527c-0.024,6.671-5.449,12.06-12.12,12.041H171.82
		c-6.671,0.02-12.096-5.37-12.12-12.041V259.213c0.024-6.671,5.449-12.06,12.12-12.041h327.256c6.671-0.02,12.096,5.37,12.12,12.041
		V331.432z"/>
	<path style="fill:#ffffff;" d="M508.169,251.321L347.145,387.893c-6.771,5.66-16.622,5.66-23.393,0L162.728,251.321
		c2.284-2.638,5.603-4.152,9.092-4.149h327.256C502.566,247.169,505.884,248.684,508.169,251.321z"/>
	<path style="fill:#1464C8;" d="M506.898,509.113c-2.181,1.861-4.954,2.884-7.821,2.887H171.82
		c-2.868-0.001-5.641-1.024-7.821-2.887l134.241-142.83l25.512,21.61c6.771,5.66,16.622,5.66,23.393,0l25.459-21.61L506.898,509.113
		z"/>
	<path style="fill:#ffffff;" d="M430.142,207.846v168.527c-0.024,6.671-5.449,12.06-12.12,12.041H90.765
		c-6.671,0.02-12.096-5.37-12.12-12.041V135.627c0.024-6.671,5.449-12.06,12.12-12.041h327.256c6.671-0.02,12.096,5.37,12.12,12.041
		V207.846z"/>
	<path style="fill:#F3D55B;" d="M427.114,127.735L266.09,264.307c-6.771,5.66-16.622,5.66-23.393,0L81.673,127.735
		c2.284-2.638,5.603-4.152,9.092-4.149h327.256C421.511,123.583,424.83,125.097,427.114,127.735z"/>
	<path style="fill:#F29C1F;" d="M425.843,385.527c-2.181,1.862-4.954,2.886-7.821,2.887H90.765c-2.867-0.003-5.64-1.026-7.821-2.887
		l134.241-142.83l25.512,21.61c6.771,5.66,16.622,5.66,23.393,0l25.45-21.61L425.843,385.527z"/>
	<path style="fill:#00a6fb;" d="M352.3,84.259v168.527c-0.024,6.671-5.449,12.06-12.12,12.041H12.924
		c-6.671,0.02-12.096-5.37-12.12-12.041V12.041C0.828,5.37,6.253-0.019,12.924,0H340.18c6.671-0.02,12.096,5.37,12.12,12.041V84.259
		z"/>
	<path style="fill:#ffffff;" d="M349.272,4.149L188.248,140.721c-6.771,5.66-16.622,5.66-23.393,0L3.831,4.149
		C6.116,1.511,9.434-0.003,12.924,0H340.18C343.669-0.003,346.988,1.511,349.272,4.149z"/>
	<path style="fill:#1464C8;" d="M348.001,261.941c-2.181,1.861-4.954,2.884-7.821,2.887H12.924
		c-2.868-0.001-5.641-1.024-7.821-2.887l134.241-142.83l25.512,21.61c6.771,5.66,16.622,5.66,23.393,0l25.459-21.61L348.001,261.941
		z"/>
</g>
<g>
</g>
<g>
</g>
<g>
</g>
<g>
</g>
<g>
</g>
<g>
</g>
<g>
</g>
<g>
</g>
<g>
</g>
<g>
</g>
<g>
</g>
<g>
</g>
<g>
</g>
<g>
</g>
<g>
</g>
</svg>
