<?xml version="1.0" encoding="iso-8859-1"?>
<!-- Generator: Adobe Illustrator 19.0.0, SVG Export Plug-In . SVG Version: 6.00 Build 0)  -->
<svg version="1.1" id="Capa_1" xmlns="http://www.w3.org/2000/svg" xmlns:xlink="http://www.w3.org/1999/xlink" x="0px" y="0px"
	 viewBox="0 0 512 512" style="enable-background:new 0 0 512 512;" xml:space="preserve">
<g>
	<path style="fill:#CB8252;" d="M260.339,407.864h34.712v95.458c0,4.793-3.885,8.678-8.678,8.678h-17.356
		c-4.793,0-8.678-3.885-8.678-8.678V407.864z"/>
	<path style="fill:#805333;" d="M199.593,364.475h156.203v43.39c0,9.585-7.771,17.356-17.356,17.356H216.949
		c-9.585,0-17.356-7.771-17.356-17.356V364.475z"/>
	<path style="fill:#00a6fb;" d="M182.237,95.458h190.915c62.289,0.038,112.775,50.524,112.814,112.814v173.559H190.915
		L182.237,95.458z"/>
	<polygon style="fill:#1464C8;" points="485.966,347.119 485.966,381.831 190.915,381.831 189.874,347.119 	"/>
	<path style="fill:#1464C8;" d="M70.725,190.915c8.941-58.353,61.357-99.945,120.215-95.391s104.252,53.714,104.111,112.747
		l0,173.559H69.424v-34.712L70.725,190.915z"/>
	<polygon style="fill:#46B29D;" points="390.508,34.712 416.542,60.746 321.085,60.746 321.085,8.678 416.542,8.678 	"/>
	<path style="fill:#7F5B53;" d="M321.085,164.881c-4.793,0-8.678-3.885-8.678-8.678V8.678c0-4.793,3.885-8.678,8.678-8.678
		s8.678,3.885,8.678,8.678v147.525C329.763,160.996,325.877,164.881,321.085,164.881z"/>
	<path style="fill:#F29C1F;" d="M234.305,208.271c0.001-1.92-0.322-3.827-0.955-5.641c-2.436-6.983-9.005-11.676-16.401-11.715
		H43.39c-9.572,0.033-17.323,7.784-17.356,17.356v121.492c0.016,3.742,1.253,7.377,3.523,10.353l-0.052,0.061
		c0.217,0.286,0.503,0.503,0.738,0.772c0.496,0.581,1.026,1.132,1.588,1.649c0.304,0.269,0.616,0.521,0.937,0.772
		c0.696,0.545,1.433,1.036,2.204,1.467c0.321,0.182,0.633,0.364,0.963,0.521c0.839,0.4,1.71,0.731,2.603,0.989
		c0.33,0.095,0.633,0.226,0.972,0.304c1.271,0.304,2.572,0.461,3.879,0.469h173.559c1.298-0.009,2.591-0.167,3.853-0.469
		c0.338-0.078,0.651-0.208,0.972-0.304c0.893-0.258,1.764-0.589,2.603-0.989c0.33-0.156,0.642-0.338,0.963-0.521
		c0.772-0.431,1.509-0.921,2.204-1.467c0.321-0.252,0.633-0.503,0.937-0.772c0.562-0.517,1.092-1.068,1.588-1.649
		c0.234-0.269,0.521-0.486,0.738-0.772l-0.052-0.061c2.279-2.972,3.526-6.607,3.549-10.353V208.271z"/>
	<path style="fill:#1464C8;" d="M355.797,164.881h-43.39c-4.793,0-8.678-3.885-8.678-8.678c0-4.793,3.885-8.678,8.678-8.678h43.39
		c4.793,0,8.678,3.885,8.678,8.678C364.475,160.996,360.589,164.881,355.797,164.881z"/>
	<path style="fill:#ffffff;" d="M230.834,340.176c-3.302,4.342-8.43,6.906-13.885,6.942H43.39
		c-5.454-0.036-10.583-2.601-13.885-6.942l77.755-77.755l22.91,18.744l23.691-17.963L230.834,340.176z"/>
	<path style="fill:#F3D55B;" d="M233.351,202.631l-103.181,78.536L29.158,198.378c3.227-4.678,8.549-7.469,14.232-7.463h173.559
		C224.345,190.955,230.915,195.647,233.351,202.631z"/>
</g>
<g>
</g>
<g>
</g>
<g>
</g>
<g>
</g>
<g>
</g>
<g>
</g>
<g>
</g>
<g>
</g>
<g>
</g>
<g>
</g>
<g>
</g>
<g>
</g>
<g>
</g>
<g>
</g>
<g>
</g>
</svg>
