<?xml version="1.0" encoding="iso-8859-1"?>
<!-- Generator: Adobe Illustrator 19.0.0, SVG Export Plug-In . SVG Version: 6.00 Build 0)  -->
<svg version="1.1" id="Capa_1" xmlns="http://www.w3.org/2000/svg" xmlns:xlink="http://www.w3.org/1999/xlink" x="0px" y="0px"
	 viewBox="0 0 490.667 490.667" style="enable-background:new 0 0 490.667 490.667;" xml:space="preserve">
<g>
	<path style="fill:#2196F3;" d="M96,234.637H71.808l12.096-20.949c2.912-5.121,1.12-11.633-4.001-14.545
		c-5.073-2.884-11.522-1.156-14.474,3.878L53.333,223.97l-12.096-20.949c-2.979-5.082-9.515-6.787-14.597-3.807
		c-5.034,2.951-6.762,9.401-3.878,14.474l12.096,20.949H10.667C4.776,234.637,0,239.413,0,245.304
		c0,5.891,4.776,10.667,10.667,10.667h24.192L22.763,276.92c-2.945,5.102-1.198,11.625,3.904,14.571
		c1.619,0.943,3.46,1.436,5.333,1.429c3.818,0.008,7.349-2.027,9.259-5.333l12.075-20.949l12.096,20.949
		c1.909,3.307,5.44,5.341,9.259,5.333c1.873,0.007,3.715-0.486,5.333-1.429c5.102-2.946,6.849-9.469,3.904-14.571L71.808,255.97H96
		c5.891,0,10.667-4.776,10.667-10.667C106.667,239.413,101.891,234.637,96,234.637z"/>
	<path style="fill:#2196F3;" d="M224,234.637h-24.192l12.096-20.949c2.912-5.121,1.121-11.633-4-14.545
		c-5.073-2.885-11.523-1.157-14.474,3.878l-12.096,20.949l-12.096-20.949c-2.979-5.082-9.514-6.787-14.596-3.808
		c-5.035,2.951-6.763,9.401-3.878,14.474l12.096,20.949h-24.192c-5.891,0-10.667,4.776-10.667,10.667
		c0,5.891,4.776,10.667,10.667,10.667h24.192l-12.096,20.949c-2.945,5.102-1.198,11.625,3.904,14.571
		c1.619,0.943,3.46,1.436,5.333,1.429c3.818,0.008,7.349-2.027,9.259-5.333l12.075-20.949l12.096,20.949
		c1.909,3.307,5.44,5.341,9.259,5.333c1.873,0.007,3.715-0.486,5.333-1.429c5.102-2.946,6.849-9.469,3.904-14.571l-12.117-20.949
		H224c5.891,0,10.667-4.776,10.667-10.667C234.667,239.413,229.891,234.637,224,234.637z"/>
	<path style="fill:#2196F3;" d="M352,234.637h-24.192l12.096-20.949c2.912-5.121,1.121-11.633-4-14.545
		c-5.073-2.885-11.523-1.157-14.474,3.878l-12.096,20.949l-12.096-20.949c-2.979-5.082-9.514-6.787-14.596-3.808
		c-5.035,2.951-6.763,9.401-3.878,14.474l12.096,20.949h-24.192c-5.891,0-10.667,4.776-10.667,10.667
		c0,5.891,4.776,10.667,10.667,10.667h24.192l-12.096,20.949c-2.945,5.102-1.198,11.625,3.904,14.571
		c1.619,0.943,3.46,1.436,5.333,1.429c3.818,0.008,7.349-2.027,9.259-5.333l12.075-20.949l12.096,20.949
		c1.909,3.307,5.44,5.341,9.259,5.333c1.873,0.007,3.715-0.486,5.333-1.429c5.102-2.946,6.849-9.469,3.904-14.571l-12.096-20.949
		H352c5.891,0,10.667-4.776,10.667-10.667C362.667,239.413,357.891,234.637,352,234.637z"/>
	<path style="fill:#2196F3;" d="M480,234.637h-24.192l12.096-20.949c2.911-5.121,1.119-11.633-4.002-14.544
		c-5.073-2.883-11.521-1.156-14.473,3.878l-12.096,20.949l-12.096-20.949c-2.98-5.082-9.515-6.786-14.597-3.806
		c-5.033,2.952-6.761,9.4-3.878,14.473l12.096,20.949h-24.192c-5.891,0-10.667,4.776-10.667,10.667
		c0,5.891,4.776,10.667,10.667,10.667h24.192l-12.096,20.949c-2.945,5.102-1.198,11.625,3.904,14.571
		c1.619,0.943,3.46,1.436,5.333,1.429c3.818,0.008,7.349-2.027,9.259-5.333l12.075-20.949l12.096,20.949
		c1.909,3.307,5.44,5.341,9.259,5.333c1.873,0.007,3.715-0.486,5.333-1.429c5.102-2.946,6.849-9.469,3.904-14.571l-12.096-20.949
		H480c5.891,0,10.667-4.776,10.667-10.667C490.667,239.413,485.891,234.637,480,234.637z"/>
</g>
<g>
</g>
<g>
</g>
<g>
</g>
<g>
</g>
<g>
</g>
<g>
</g>
<g>
</g>
<g>
</g>
<g>
</g>
<g>
</g>
<g>
</g>
<g>
</g>
<g>
</g>
<g>
</g>
<g>
</g>
</svg>
