<svg id="icons" enable-background="new 0 0 64 64" height="512" viewBox="0 0 64 64" width="512" xmlns="http://www.w3.org/2000/svg"><path d="m1 58c0 .55.45 1 1 1h60c.55 0 1-.45 1-1v-49h-62z" fill="#e6e9ed"/><path d="m63 7v2h-62v-2c0-1.109.89-2 2-2h58c1.11 0 2 .891 2 2z" fill="#ccd1d9"/><path d="m4.006 5.998h-.01c-.552 0-.995.447-.995 1 0 .552.453 1 1.005 1 .553 0 1-.448 1-1 0-.553-.447-1-1-1z" fill="#e6e9ed"/><path d="m7.005 5.998h-.01c-.553 0-.995.447-.995 1 0 .552.452 1 1.005 1s1-.448 1-1c0-.553-.447-1-1-1z" fill="#e6e9ed"/><path d="m10.008 5.998h-.01c-.552 0-.995.447-.995 1 0 .552.453 1 1.005 1 .553 0 1-.448 1-1 0-.553-.447-1-1-1z" fill="#e6e9ed"/><path d="m32 28c1.74 0 3.22 1.11 3.77 2.66-1.03.84-2.34 1.34-3.77 1.34s-2.74-.5-3.77-1.34c.55-1.55 2.03-2.66 3.77-2.66z" fill="#5d9cec"/><path d="m30 26c0 1.1.9 2 2 2-1.74 0-3.22 1.11-3.77 2.66-1.36-1.09-2.23-2.78-2.23-4.66 0-3.32 2.69-6 6-6s6 2.68 6 6c0 1.88-.87 3.57-2.23 4.66-.55-1.55-2.03-2.66-3.77-2.66 1.1 0 2-.9 2-2 0-1.11-.9-2-2-2s-2 .89-2 2z" fill="#656d78"/><g fill="#ccd1d9"><path d="m52.003 37.008h-40.006c-.553 0-1-.447-1-1s.447-1 1-1h40.006c.553 0 1 .447 1 1s-.447 1-1 1z"/><path d="m52.003 40.008h-40.006c-.553 0-1-.447-1-1s.447-1 1-1h40.006c.553 0 1 .447 1 1s-.447 1-1 1z"/><path d="m52.003 43.008h-40.006c-.553 0-1-.447-1-1s.447-1 1-1h40.006c.553 0 1 .447 1 1s-.447 1-1 1z"/><path d="m42 46.008h-20c-.553 0-1-.447-1-1s.447-1 1-1h20c.553 0 1 .447 1 1s-.447 1-1 1z"/></g><path d="m59.001 54.995c-.553 0-1-.447-1-1v-2c0-.553.447-1 1-1s1 .447 1 1v2c0 .553-.447 1-1 1z" fill="#545c66"/><path d="m58 55.995c-.256 0-.512-.098-.707-.293-.391-.391-.391-1.024 0-1.414l1.001-1c.391-.391 1.023-.391 1.414 0s.391 1.024 0 1.414l-1.001 1c-.195.195-.451.293-.707.293z" fill="#545c66"/><path d="m59.001 47.995h-3c-.553 0-1 .447-1 1v3c0 .553.447 1 1 1h3c.553 0 1-.447 1-1v-3c0-.553-.447-1-1-1z" fill="#656d78"/><path d="m53.004 54.995c-.553 0-1-.447-1-1v-2c0-.553.447-1 1-1s1 .447 1 1v2c0 .553-.447 1-1 1z" fill="#545c66"/><path d="m52.003 55.995c-.256 0-.512-.098-.707-.293-.391-.391-.391-1.024 0-1.414l1.001-1c.391-.391 1.023-.391 1.414 0s.391 1.024 0 1.414l-1.001 1c-.195.195-.451.293-.707.293z" fill="#545c66"/><path d="m53.004 47.995h-3c-.553 0-1 .447-1 1v3c0 .553.447 1 1 1h3c.553 0 1-.447 1-1v-3c0-.553-.447-1-1-1z" fill="#656d78"/><path d="m5 13c.553 0 1 .447 1 1v2c0 .553-.447 1-1 1s-1-.447-1-1v-2c0-.553.447-1 1-1z" fill="#545c66"/><path d="m6.001 12c.256 0 .512.098.707.293.391.391.391 1.024 0 1.414l-1.001 1c-.391.391-1.023.391-1.414 0s-.391-1.024 0-1.414l1.001-1c.195-.195.451-.293.707-.293z" fill="#545c66"/><path d="m5 20h3c.553 0 1-.447 1-1v-3c0-.553-.447-1-1-1h-3c-.553 0-1 .447-1 1v3c0 .553.447 1 1 1z" fill="#656d78"/><path d="m10.997 13c.553 0 1 .447 1 1v2c0 .553-.447 1-1 1s-1-.447-1-1v-2c0-.553.447-1 1-1z" fill="#545c66"/><path d="m11.998 12c.256 0 .512.098.707.293.391.391.391 1.024 0 1.414l-1.001 1c-.391.391-1.023.391-1.414 0s-.391-1.024 0-1.414l1.001-1c.195-.195.451-.293.707-.293z" fill="#545c66"/><path d="m10.997 20h3c.553 0 1-.447 1-1v-3c0-.553-.447-1-1-1h-3c-.553 0-1 .447-1 1v3c0 .553.447 1 1 1z" fill="#656d78"/><path d="m34.5 26.5c0 1.375-1.125 2.5-2.5 2.5s-2.5-1.125-2.5-2.5c0-1.388 1.125-2.5 2.5-2.5s2.5 1.112 2.5 2.5z" fill="#eac6bb"/></svg>