<svg id="icons" enable-background="new 0 0 64 64" height="512" viewBox="0 0 64 64" width="512" xmlns="http://www.w3.org/2000/svg"><path d="m1 58c0 .55.45 1 1 1h60c.55 0 1-.45 1-1v-49h-62z" fill="#e6e9ed"/><path d="m63 7v2h-62v-2c0-1.109.89-2 2-2h58c1.11 0 2 .891 2 2z" fill="#ccd1d9"/><g fill="#e6e9ed"><path d="m4.006 5.998h-.01c-.552 0-.995.447-.995 1 0 .552.453 1 1.005 1 .553 0 1-.448 1-1 0-.553-.447-1-1-1z"/><path d="m7.005 5.998h-.01c-.553 0-.995.447-.995 1 0 .552.452 1 1.005 1s1-.448 1-1c0-.553-.447-1-1-1z"/><path d="m10.008 5.998h-.01c-.552 0-.995.447-.995 1 0 .552.453 1 1.005 1 .553 0 1-.448 1-1 0-.553-.447-1-1-1z"/></g><path d="m32 11.993c7.73 0 14 6.271 14 14 0 7.74-6.27 14-14 14s-14-6.26-14-14c0-7.728 6.27-14 14-14z" fill="#a0d468"/><path d="m32 11.993c-.508 0-1.008.031-1.502.084 7.024.75 12.499 6.695 12.499 13.916 0 7.232-5.475 13.168-12.499 13.918.494.053.994.082 1.502.082 7.73 0 14-6.26 14-14 0-7.728-6.27-14-14-14z" fill="#8cc152"/><path d="m40.505 51.005h-17.014c-1.379 0-2.5 1.121-2.5 2.5s1.121 2.5 2.5 2.5h17.014c1.379 0 2.5-1.121 2.5-2.5s-1.121-2.5-2.5-2.5z" fill="#545c66"/><path d="m55.005 45.007h-46.014c-.553 0-1-.447-1-1s.447-1 1-1h46.014c.553 0 1 .447 1 1s-.447 1-1 1z" fill="#ccd1d9"/><path d="m46.003 48.008h-28.01c-.553 0-1-.447-1-1s.447-1 1-1h28.01c.553 0 1 .447 1 1s-.447 1-1 1z" fill="#ccd1d9"/><path d="m29.999 31.996c-.256 0-.512-.098-.707-.293l-3.997-3.997c-.391-.391-.391-1.023 0-1.414s1.023-.391 1.414 0l3.997 3.997c.391.391.391 1.023 0 1.414-.195.195-.451.293-.707.293z" fill="#fff"/><path d="m29.999 31.996c-.256 0-.512-.098-.707-.293-.391-.391-.391-1.023 0-1.414l8.999-8.999c.391-.391 1.023-.391 1.414 0s.391 1.023 0 1.414l-8.999 8.999c-.195.195-.451.293-.707.293z" fill="#fff"/><path d="m20.991 52.504h22.014v1.001h-22.014z" fill="#545c66"/><path d="m40.505 50.004h-17.014c-1.379 0-2.5 1.121-2.5 2.5s1.121 2.5 2.5 2.5h17.014c1.379 0 2.5-1.121 2.5-2.5s-1.121-2.5-2.5-2.5z" fill="#656d78"/></svg>