<?xml version="1.0" encoding="UTF-8" standalone="no"?>
<!-- Generator: Adobe Illustrator 19.0.0, SVG Export Plug-In . SVG Version: 6.00 Build 0)  -->

<svg
   xmlns:dc="http://purl.org/dc/elements/1.1/"
   xmlns:cc="http://creativecommons.org/ns#"
   xmlns:rdf="http://www.w3.org/1999/02/22-rdf-syntax-ns#"
   xmlns:svg="http://www.w3.org/2000/svg"
   xmlns="http://www.w3.org/2000/svg"
   xmlns:sodipodi="http://sodipodi.sourceforge.net/DTD/sodipodi-0.dtd"
   xmlns:inkscape="http://www.inkscape.org/namespaces/inkscape"
   version="1.1"
   id="Layer_1"
   x="0px"
   y="0px"
   viewBox="0 0 512.005 512.005"
   style="enable-background:new 0 0 512.005 512.005;"
   xml:space="preserve"
   inkscape:version="0.91 r13725"
   sodipodi:docname="web-design.svg"><metadata
     id="metadata151"><rdf:RDF><cc:Work
         rdf:about=""><dc:format>image/svg+xml</dc:format><dc:type
           rdf:resource="http://purl.org/dc/dcmitype/StillImage" /></cc:Work></rdf:RDF></metadata><defs
     id="defs149" /><sodipodi:namedview
     pagecolor="#ffffff"
     bordercolor="#666666"
     borderopacity="1"
     objecttolerance="10"
     gridtolerance="10"
     guidetolerance="10"
     inkscape:pageopacity="0"
     inkscape:pageshadow="2"
     inkscape:window-width="1280"
     inkscape:window-height="951"
     id="namedview147"
     showgrid="false"
     inkscape:zoom="1.3037154"
     inkscape:cx="206.97844"
     inkscape:cy="255.14495"
     inkscape:window-x="1024"
     inkscape:window-y="539"
     inkscape:window-maximized="1"
     inkscape:current-layer="Layer_1" /><rect
     x="54.326584"
     y="39.100086"
     style="fill:#c0c0c0;fill-opacity:1"
     width="406.28519"
     height="472.25055"
     id="rect3" /><rect
     x="54.326584"
     y="0.20604753"
     style="fill:#2d3437;fill-opacity:1"
     width="406.28519"
     height="38.894035"
     id="rect5" /><rect
     x="54.326584"
     y="196.51128"
     style="fill:#00a6fb;fill-opacity:1"
     width="406.28519"
     height="157.41483"
     id="rect7" /><g
     id="g9"
     transform="matrix(1.3984085,0,0,1.2088654,-90.664602,-53.694847)"><polygon
       style="fill:#ffffff"
       points="299.177,299.466 256.742,257.006 214.264,299.466 "
       id="polygon11" /><polygon
       style="fill:#ffffff"
       points="254.159,299.466 226.422,271.736 198.715,299.466 "
       id="polygon13" /><path
       style="fill:#ffffff"
       d="m 244.214,253.601 c 0,4.902 -3.983,8.899 -8.881,8.899 -4.931,0 -8.914,-3.996 -8.914,-8.899 0,-4.915 3.983,-8.893 8.914,-8.893 4.9,0.002 8.881,3.981 8.881,8.893 z"
       id="path15"
       inkscape:connector-curvature="0" /></g><g
     id="g17"
     transform="matrix(1.3984085,0,0,1.2088654,-90.664602,-53.694847)"><rect
       x="126.029"
       y="359.526"
       style="fill:#f15424"
       width="67.045998"
       height="53.601002"
       id="rect19" /><rect
       x="215.424"
       y="359.526"
       style="fill:#f15424"
       width="67.045998"
       height="53.601002"
       id="rect21" /><rect
       x="304.819"
       y="359.526"
       style="fill:#f15424"
       width="67.045998"
       height="53.601002"
       id="rect23" /><rect
       x="126.029"
       y="149.19701"
       style="fill:#f15424"
       width="245.83701"
       height="11.663"
       id="rect25" /></g><g
     id="g27"
     transform="matrix(1.3984085,0,0,1.2088654,-90.664602,-53.694847)"><rect
       x="126.029"
       y="418.918"
       style="fill:#242d3c"
       width="67.045998"
       height="5.829"
       id="rect29" /><rect
       x="126.029"
       y="430.54099"
       style="fill:#242d3c"
       width="67.045998"
       height="5.8239999"
       id="rect31" /><rect
       x="126.029"
       y="442.16299"
       style="fill:#242d3c"
       width="33.535999"
       height="5.8239999"
       id="rect33" /><rect
       x="215.424"
       y="418.918"
       style="fill:#242d3c"
       width="67.045998"
       height="5.829"
       id="rect35" /><rect
       x="215.424"
       y="430.54099"
       style="fill:#242d3c"
       width="67.045998"
       height="5.8239999"
       id="rect37" /><rect
       x="215.424"
       y="442.16299"
       style="fill:#242d3c"
       width="33.509998"
       height="5.8239999"
       id="rect39" /><rect
       x="304.819"
       y="418.918"
       style="fill:#242d3c"
       width="67.045998"
       height="5.829"
       id="rect41" /><rect
       x="304.819"
       y="430.54099"
       style="fill:#242d3c"
       width="67.045998"
       height="5.8239999"
       id="rect43" /><rect
       x="304.819"
       y="442.16299"
       style="fill:#242d3c"
       width="33.535999"
       height="5.8239999"
       id="rect45" /><rect
       x="167.757"
       y="180.992"
       style="fill:#242d3c"
       width="162.381"
       height="5.8390002"
       id="rect47" /></g><rect
     x="85.575424"
     y="63.443012"
     style="fill:#00a6fb;fill-opacity:1"
     width="343.7442"
     height="38.878323"
     id="rect49" /><g
     id="g51"
     transform="matrix(1.3984085,0,0,1.2088654,-90.664602,-53.694847)"><rect
       x="153.347"
       y="110.067"
       style="fill:#242d3c"
       width="27.313"
       height="5.8270001"
       id="rect53" /><rect
       x="207.974"
       y="110.067"
       style="fill:#242d3c"
       width="27.299999"
       height="5.8270001"
       id="rect55" /><rect
       x="262.60501"
       y="110.067"
       style="fill:#242d3c"
       width="27.299999"
       height="5.8270001"
       id="rect57" /><rect
       x="317.23499"
       y="110.067"
       style="fill:#242d3c"
       width="27.309999"
       height="5.8270001"
       id="rect59" /></g><rect
     x="349.594"
     y="222.08"
     style="fill:#c0c0c0;fill-opacity:1"
     width="126.746"
     height="72.32"
     id="rect61" /><rect
     x="423.87839"
     y="274.65237"
     style="fill:#242d3c"
     width="18.007307"
     height="12.224049"
     id="rect63" /><g
     id="g65"><rect
       x="387.251"
       y="252.595"
       style="fill:#ffffff;fill-opacity:1"
       width="12.877"
       height="29.135"
       id="rect67" /><rect
       x="406.554"
       y="264.09"
       style="fill:#ffffff;fill-opacity:1"
       width="12.851"
       height="17.633"
       id="rect69" /></g><rect
     x="425.83"
     y="234.778"
     style="fill:#F15424;"
     width="12.851"
     height="46.953"
     id="rect71" /><rect
     x="445.133"
     y="246.451"
     style="fill:#2d3437;fill-opacity:1"
     width="12.877"
     height="35.259"
     id="rect73" /><g
     id="g75"><rect
       x="156.646"
       y="383.437"
       style="fill:#242D3C;"
       width="5.814"
       height="5.814"
       id="rect77" /><path
       style="fill:#242D3C;"
       d="M150.612,389.245h-6.031v-5.814h6.031V389.245z M138.547,389.245h-6.031v-5.814h6.031V389.245z    M126.482,389.245h-6.031v-5.814h6.031V389.245z M114.414,389.245h-6.031v-5.814h6.031V389.245z M102.349,389.245h-6.031v-5.814   h6.031V389.245z M90.281,389.245H84.25v-5.814h6.031V389.245z M78.216,389.245h-6.034v-5.814h6.034V389.245z M66.15,389.245h-6.034   v-5.814h6.034V389.245z M54.083,389.245h-6.034v-5.814h6.034V389.245z M42.015,389.245h-6.031v-5.814h6.031V389.245z    M29.952,389.245h-6.036v-5.814h6.036V389.245z M17.882,389.245h-6.034v-5.814h6.031v5.814H17.882z"
       id="path79" /><rect
       y="383.437"
       style="fill:#242D3C;"
       width="5.816"
       height="5.814"
       id="rect81" /><path
       style="fill:#242D3C;"
       d="M5.816,377.608H0v-5.821h5.816V377.608z M5.816,365.962H0v-5.824h5.816V365.962z M5.816,354.314H0   v-5.821h5.816V354.314z M5.816,342.669H0v-5.821h5.816V342.669z M5.816,331.026H0v-5.821h5.816V331.026z M5.816,319.38H0v-5.821   h5.816V319.38z M5.816,307.735H0v-5.824h5.816V307.735z M5.816,296.087H0v-5.821h5.816V296.087z M5.816,284.442H0v-5.821h5.816   V284.442z M5.816,272.799H0v-5.821h5.816V272.799z"
       id="path83" /><rect
       y="255.334"
       style="fill:#242D3C;"
       width="5.816"
       height="5.814"
       id="rect85" /><path
       style="fill:#242D3C;"
       d="M150.612,261.153h-6.031v-5.814h6.031V261.153z M138.547,261.153h-6.031v-5.814h6.031V261.153z    M126.479,261.153h-6.029v-5.814h6.029V261.153z M114.414,261.153h-6.031v-5.814h6.031V261.153z M102.349,261.153h-6.031v-5.814   h6.031V261.153z M90.281,261.153H84.25v-5.814h6.031V261.153z M78.216,261.153h-6.034v-5.814h6.034V261.153z M66.15,261.153h-6.034   v-5.814h6.034V261.153z M54.083,261.153h-6.034v-5.814h6.034V261.153z M42.015,261.153h-6.034v-5.814h6.034V261.153z    M29.952,261.153h-6.036v-5.814h6.036V261.153z M17.882,261.153h-6.034v-5.814h6.031v5.814H17.882z"
       id="path87" /><polygon
       style="fill:#242D3C;"
       points="159.555,261.153 156.649,261.153 156.649,255.337 162.463,255.337 162.463,261.153  "
       id="polygon89" /><path
       style="fill:#242D3C;"
       d="M162.463,377.608h-5.814v-5.821h5.814V377.608z M162.463,365.962h-5.814v-5.824h5.814V365.962z    M162.463,354.314h-5.814v-5.821h5.814V354.314z M162.463,342.669h-5.814v-5.821h5.814V342.669z M162.463,331.026h-5.814v-5.821   h5.814V331.026z M162.463,319.38h-5.814v-5.821h5.814V319.38z M162.463,307.735h-5.814v-5.824h5.814V307.735z M162.463,296.087   h-5.814v-5.821h5.814V296.087z M162.463,284.442h-5.814v-5.821h5.814V284.442z M162.463,272.799h-5.814v-5.821h5.814V272.799z"
       id="path91" /></g><rect
     x="2.908"
     y="97.674721"
     style="fill:#1464c8;fill-opacity:1"
     width="176.56065"
     height="109.30627"
     id="rect93" /><g
     id="g95"
     transform="matrix(2.0773798,0,0,1.7065507,-3.1330205,-146.24256)"><rect
       x="12.388"
       y="166.246"
       style="fill:#ffffff"
       width="66.035004"
       height="5.8270001"
       id="rect97" /><rect
       x="12.388"
       y="154.59801"
       style="fill:#ffffff"
       width="66.035004"
       height="5.8239999"
       id="rect99" /><rect
       x="12.388"
       y="177.869"
       style="fill:#ffffff"
       width="66.035004"
       height="5.8239999"
       id="rect101" /><rect
       x="12.388"
       y="189.491"
       style="fill:#ffffff"
       width="33.019001"
       height="5.8239999"
       id="rect103" /></g><g
     id="g105"><g
       id="g4279"
       transform="matrix(1.5953873,0,0,1.5953873,-297.19591,-254.72574)"
       style="fill:#ffffff;fill-opacity:1"><polygon
         id="polygon113"
         points="430.884,359.534 499.164,387.095 472.584,401.229 458.445,427.832 "
         style="fill:#ffffff;fill-opacity:1" /><polygon
         id="polygon115"
         points="466.056,402.409 488.814,425.132 496.486,417.436 473.743,394.701 "
         style="fill:#ffffff;fill-opacity:1" /></g></g><g
     id="g117" /><g
     id="g119" /><g
     id="g121" /><g
     id="g123" /><g
     id="g125" /><g
     id="g127" /><g
     id="g129" /><g
     id="g131" /><g
     id="g133" /><g
     id="g135" /><g
     id="g137" /><g
     id="g139" /><g
     id="g141" /><g
     id="g143" /><g
     id="g145" /></svg>