<?xml version="1.0" encoding="iso-8859-1"?>
<!-- Generator: Adobe Illustrator 19.0.0, SVG Export Plug-In . SVG Version: 6.00 Build 0)  -->
<svg version="1.1" id="Capa_1" xmlns="http://www.w3.org/2000/svg" xmlns:xlink="http://www.w3.org/1999/xlink" x="0px" y="0px"
	 viewBox="0 0 512 512" style="enable-background:new 0 0 512 512;" xml:space="preserve">
<g>
	<path style="fill:#3B97D3;" d="M507.661,17.356v364.475H4.339V17.356C4.368,7.782,12.121,0.029,21.695,0h468.61
		C499.879,0.029,507.632,7.782,507.661,17.356z"/>
	<path style="fill:#2980BA;" d="M4.339,321.085C4.339,321.085,229.966,0,472.949,0h17.356c9.585,0,17.356,7.771,17.356,17.356
		v355.797H4.339V321.085z"/>
	<rect x="203.932" y="390.508" style="fill:#2C3E50;" width="86.78" height="112.814"/>
	<g>
		<path style="fill:#35495E;" d="M507.661,355.797v52.068c-0.029,9.574-7.782,17.327-17.356,17.356H21.695
			c-9.574-0.029-17.327-7.782-17.356-17.356v-52.068H507.661z"/>
		<path style="fill:#35495E;" d="M386.169,512H125.831c-4.793,0-8.678-3.885-8.678-8.678c0-4.793,3.885-8.678,8.678-8.678h260.339
			c4.793,0,8.678,3.885,8.678,8.678C394.847,508.115,390.962,512,386.169,512z"/>
	</g>
	<path style="fill:#65DDB9;" d="M394.257,170.644c-6.305-74.882-71.062-131.146-146.091-126.931
		c-75.029,4.215-133.076,67.378-130.955,142.495c2.122,75.117,63.641,134.903,138.789,134.877c4.793,0,8.678-3.885,8.678-8.678
		c0-4.793-3.885-8.678-8.678-8.678c-49.139,0-93.439-29.6-112.244-74.999s-8.41-97.654,26.336-132.4s87.002-45.141,132.4-26.336
		s74.999,63.105,74.999,112.244v35.259c0,14.378-11.656,26.034-26.034,26.034s-26.034-11.656-26.034-26.034v-52.615
		c0-4.793-3.885-8.678-8.678-8.678s-8.678,3.885-8.678,8.678v34.712c-0.029,23.952-19.438,43.361-43.39,43.39h-17.356
		c-23.952-0.029-43.361-19.438-43.39-43.39v-34.712c0.029-23.952,19.438-43.361,43.39-43.39h17.356c4.793,0,8.678-3.885,8.678-8.678
		s-3.885-8.678-8.678-8.678h-17.356c-33.533,0.038-60.708,27.213-60.746,60.746v34.712c0.038,33.533,27.213,60.708,60.746,60.746
		h17.356c18.867-0.015,36.652-8.814,48.111-23.804c9.045,17.781,29.048,27.103,48.481,22.594
		c19.433-4.509,33.287-21.687,33.578-41.633v-43.937C394.822,172.561,394.622,171.574,394.257,170.644z"/>
	<g>
		<path style="fill:#89C1E5;" d="M30.373,86.78c-4.793,0-8.678-3.885-8.678-8.678v-43.39c0-4.793,3.885-8.678,8.678-8.678
			s8.678,3.885,8.678,8.678v43.39C39.051,82.894,35.166,86.78,30.373,86.78z"/>
		<circle style="fill:#89C1E5;" cx="30.373" cy="112.814" r="8.678"/>
	</g>
</g>
<g>
</g>
<g>
</g>
<g>
</g>
<g>
</g>
<g>
</g>
<g>
</g>
<g>
</g>
<g>
</g>
<g>
</g>
<g>
</g>
<g>
</g>
<g>
</g>
<g>
</g>
<g>
</g>
<g>
</g>
</svg>
