<?xml version="1.0" encoding="iso-8859-1"?>
<!-- Generator: Adobe Illustrator 19.0.0, SVG Export Plug-In . SVG Version: 6.00 Build 0)  -->
<svg version="1.1" id="Layer_1" xmlns="http://www.w3.org/2000/svg" xmlns:xlink="http://www.w3.org/1999/xlink" x="0px" y="0px"
	 viewBox="0 0 511.982 511.982" style="enable-background:new 0 0 511.982 511.982;" xml:space="preserve">
<path style="fill:#CCD1D9;" d="M501.31,255.991c0,135.245-109.84,244.882-245.319,244.882
	c-135.488,0-245.328-109.637-245.328-244.882c0-135.246,109.84-244.882,245.328-244.882
	C391.47,11.109,501.31,120.745,501.31,255.991z"/>
<path style="fill:#E6E9ED;" d="M255.991,511.545c-34.546,0-68.076-6.766-99.637-20.094c-30.484-12.875-57.865-31.295-81.373-54.748
	c-23.507-23.469-41.959-50.795-54.857-81.231C6.773,323.957,0,290.489,0,255.991c0-34.499,6.773-67.967,20.124-99.481
	c12.898-30.437,31.351-57.764,54.857-81.231c23.507-23.452,50.889-41.874,81.373-54.748c31.561-13.328,65.091-20.094,99.637-20.094
	s68.076,6.766,99.637,20.093C386.111,33.404,413.501,51.826,437,75.278c23.5,23.468,41.968,50.795,54.857,81.231
	c13.359,31.515,20.125,64.982,20.125,99.481c0,34.498-6.766,67.966-20.125,99.48c-12.89,30.437-31.357,57.763-54.857,81.231
	c-23.499,23.453-50.889,41.873-81.372,54.748C324.067,504.779,290.537,511.545,255.991,511.545z M255.991,21.78
	c-62.686,0-121.613,24.358-165.932,68.606C45.74,134.62,21.335,193.43,21.335,255.991S45.74,377.361,90.06,421.594
	c44.318,44.249,103.245,68.607,165.931,68.607s121.604-24.358,165.932-68.607c44.327-44.233,68.732-103.042,68.732-165.603
	S466.25,134.62,421.923,90.387C377.595,46.138,318.677,21.78,255.991,21.78z"/>
<g>
	<path style="fill:#434A54;" d="M263.538,24.451c4.156,4.172,4.156,10.922,0,15.094c-4.172,4.156-10.922,4.156-15.094,0
		c-4.156-4.172-4.156-10.922,0-15.094C252.616,20.296,259.366,20.296,263.538,24.451z"/>
	<path style="fill:#434A54;" d="M263.538,472.436c4.156,4.172,4.156,10.921,0,15.093c-4.172,4.156-10.922,4.156-15.094,0
		c-4.156-4.172-4.156-10.921,0-15.093C252.616,468.28,259.366,468.28,263.538,472.436z"/>
	<path style="fill:#434A54;" d="M146.752,51.701c5.695,1.531,9.07,7.374,7.547,13.062c-1.523,5.703-7.375,9.078-13.062,7.547
		c-5.695-1.531-9.07-7.375-7.547-13.062C135.214,53.56,141.065,50.185,146.752,51.701z"/>
	<path style="fill:#434A54;" d="M370.752,439.672c5.688,1.516,9.062,7.375,7.531,13.062c-1.516,5.688-7.375,9.062-13.062,7.546
		c-5.688-1.53-9.062-7.374-7.53-13.062C359.205,441.515,365.064,438.14,370.752,439.672z"/>
	<path style="fill:#434A54;" d="M59.247,133.698c5.688-1.531,11.539,1.844,13.062,7.531s-1.852,11.546-7.539,13.062
		c-5.695,1.531-11.539-1.844-13.07-7.53C50.178,141.073,53.56,135.214,59.247,133.698z"/>
	<path style="fill:#434A54;" d="M447.219,357.689c5.688-1.53,11.531,1.844,13.062,7.531c1.531,5.703-1.859,11.547-7.547,13.062
		c-5.688,1.531-11.547-1.844-13.062-7.531S441.531,359.205,447.219,357.689z"/>
	<path style="fill:#434A54;" d="M24.452,248.444c4.171-4.156,10.921-4.156,15.085,0c4.164,4.172,4.171,10.921,0,15.093
		c-4.164,4.156-10.914,4.156-15.085,0C20.288,259.365,20.288,252.616,24.452,248.444z"/>
	<path style="fill:#434A54;" d="M472.437,248.444c4.171-4.156,10.921-4.156,15.093,0c4.155,4.172,4.155,10.921,0,15.093
		c-4.172,4.156-10.922,4.156-15.093,0C468.281,259.365,468.281,252.616,472.437,248.444z"/>
	<path style="fill:#434A54;" d="M51.701,365.22c1.531-5.688,7.375-9.062,13.07-7.531c5.688,1.516,9.062,7.375,7.539,13.062
		s-7.375,9.062-13.062,7.531C53.56,376.767,50.178,370.924,51.701,365.22z"/>
	<path style="fill:#434A54;" d="M439.672,141.229c1.516-5.688,7.375-9.062,13.062-7.531c5.688,1.516,9.078,7.375,7.547,13.062
		s-7.375,9.062-13.062,7.53C441.531,152.775,438.156,146.932,439.672,141.229z"/>
	<path style="fill:#434A54;" d="M133.69,452.734c-1.523-5.688,1.852-11.531,7.547-13.062c5.687-1.531,11.539,1.859,13.062,7.547
		s-1.852,11.531-7.547,13.062C141.065,461.796,135.214,458.422,133.69,452.734z"/>
	<path style="fill:#434A54;" d="M357.69,64.762c-1.531-5.688,1.843-11.53,7.53-13.062c5.688-1.516,11.547,1.859,13.062,7.546
		c1.531,5.688-1.844,11.547-7.531,13.062C365.064,73.841,359.205,70.466,357.69,64.762z"/>
</g>
<path style="fill:#4FC2E9;" d="M457.984,255.991c0,111.354-90.436,201.618-201.993,201.618
	c-111.559,0-201.993-90.264-201.993-201.618c0-111.355,90.434-201.618,201.993-201.618
	C367.549,54.373,457.984,144.636,457.984,255.991z"/>
<path style="fill:#5D9CEC;" d="M423.141,277.318l-33.78-23.812l-56.294,19.687l-28.781-14.391l-48.295,15.594l-37.046-15.594
	l-49.951,17.688c0,0-33.515-16.766-35.671-15.422c-2.156,1.328-24.835,5.594-24.835,5.594l-54.49,10.656l18.679,63.467
	l50.029,68.716l97.333,43.562l82.216-3.094l73.778-24.469l50.654-48.889l33.953-99.293L423.141,277.318L423.141,277.318z"/>
<g>
	<path style="fill:#4A89DC;" d="M456.875,287.989h-30.219c-1.656,0-3.296-0.391-4.78-1.125l-37.89-18.952l-37.889,18.952
		c-3,1.5-6.546,1.5-9.546,0l-37.891-18.952l-37.904,18.952c-3,1.5-6.531,1.5-9.531,0l-37.897-18.952l-37.897,18.952
		c-3,1.5-6.539,1.5-9.539,0l-37.897-18.952l-37.896,18.952c-1.477,0.734-3.109,1.125-4.766,1.125H55.115
		c-5.891,0-10.664-4.781-10.664-10.671c0-5.891,4.773-10.656,10.664-10.656h27.694l40.413-20.218c3.007-1.5,6.539-1.5,9.546,0
		l37.89,18.952l37.896-18.952c3-1.5,6.539-1.5,9.539,0l37.898,18.952l37.889-18.952c3-1.5,6.547-1.5,9.547,0l37.891,18.952
		l37.903-18.952c3-1.5,6.531-1.5,9.531,0l40.42,20.218h27.703c5.875,0,10.656,4.766,10.656,10.656
		C467.531,283.208,462.75,287.989,456.875,287.989z"/>
	<path style="fill:#4A89DC;" d="M437.5,351.987h-10.844c-1.656,0-3.296-0.391-4.78-1.125l-37.89-18.952l-37.889,18.952
		c-3,1.5-6.546,1.5-9.546,0L298.66,331.91l-37.904,18.952c-3,1.5-6.531,1.5-9.531,0l-37.897-18.952l-37.897,18.952
		c-3,1.5-6.539,1.5-9.539,0l-37.897-18.952l-37.896,18.952c-1.477,0.734-3.109,1.125-4.766,1.125h-9.812
		c-5.89,0-10.664-4.78-10.664-10.671s4.773-10.656,10.664-10.656h7.289l40.413-20.218c3.007-1.5,6.539-1.5,9.546,0l37.89,18.952
		l37.896-18.952c3-1.5,6.539-1.5,9.539,0l37.897,18.952l37.889-18.952c3-1.5,6.547-1.5,9.547,0l37.891,18.952l37.903-18.952
		c3-1.5,6.531-1.5,9.531,0l40.42,20.218h8.328c5.906,0,10.672,4.766,10.672,10.656S443.406,351.987,437.5,351.987z"/>
	<path style="fill:#4A89DC;" d="M341.317,415.984c-1.625,0-3.266-0.375-4.766-1.125l-37.891-18.952l-37.904,18.952
		c-3,1.5-6.531,1.5-9.531,0l-37.897-18.952l-37.897,18.952c-3,1.5-6.539,1.5-9.539,0l-37.897-18.952l-14.733,7.375
		c-5.265,2.625-11.671,0.5-14.312-4.781c-2.633-5.265-0.5-11.671,4.773-14.296l19.499-9.766c3.007-1.5,6.539-1.5,9.546,0
		l37.89,18.953l37.896-18.953c3-1.5,6.539-1.5,9.539,0l37.898,18.953l37.889-18.953c3-1.5,6.547-1.5,9.547,0l37.891,18.953
		l37.903-18.953c3-1.5,6.531-1.5,9.531,0l19.499,9.766c5.281,2.625,7.406,9.031,4.781,14.312c-2.625,5.266-9.03,7.391-14.312,4.766
		l-14.734-7.375l-37.889,18.952C344.597,415.609,342.957,415.984,341.317,415.984z"/>
</g>
<path style="fill:#E6E9ED;" d="M255.991,468.28c-56.803,0-110.2-22.077-150.37-62.17c-40.171-40.093-62.287-93.418-62.287-150.119
	s22.117-110.027,62.288-150.12c40.169-40.093,93.566-62.17,150.369-62.17c56.795,0,110.198,22.077,150.37,62.17
	c40.17,40.093,62.295,93.419,62.295,150.12s-22.125,110.026-62.295,150.119C366.189,446.203,312.786,468.28,255.991,468.28z
	 M255.991,65.028c-51.107,0-99.161,19.875-135.292,55.936c-36.14,36.077-56.038,84.029-56.038,135.027s19.898,98.949,56.037,135.026
	c36.132,36.061,84.185,55.936,135.292,55.936s99.168-19.875,135.292-55.936c36.139-36.077,56.029-84.028,56.029-135.026
	s-19.891-98.95-56.029-135.027C355.159,84.903,307.098,65.028,255.991,65.028z"/>
<g>
	<path style="fill:#434A54;" d="M365.22,181.634c-16.436-4.077-30.06-2.53-40.513,4.578c-2.297,1.562-4.25,3.297-5.953,5.078
		c-12.125-10.218-31.155-11.608-42.687-10.249c-5.827,0.687-9.999,5.968-9.327,11.812s5.953,10.031,11.796,9.375
		c0.094,0,8.375-0.906,16.593,0.938c3.688,0.828,12.344,2.765,13.516,11.562c0.703,5.359,5.297,9.265,10.562,9.265
		c0.453,0,0.938-0.031,1.422-0.094c4.875-0.656,8.547-4.515,9.156-9.187l0,0v0.141c0-0.078,1.203-7.219,7.125-11.124
		c6.468-4.297,16.17-3.125,23.169-1.375c5.719,1.406,11.516-2.078,12.922-7.781C374.424,188.852,370.939,183.055,365.22,181.634z"/>
	<path style="fill:#434A54;" d="M255.71,117.339c-30.14,0.781-48.584,14.188-58.748,25.281c-1.516,1.656-2.883,3.297-4.125,4.906
		c-6.835-9.328-15.273-14.203-22.304-16.734c-10.43-3.75-19.593-3.062-22.164-2.766c-4.289,0.438-8.07,3.438-9.257,7.844
		c-1.523,5.703,1.852,11.547,7.546,13.077c1.43,0.375,2.867,0.453,4.242,0.25l0.008,0.016l-0.102,0.016
		c2.406-0.312,23.734-2.28,30.89,24.219c1.281,4.75,5.594,7.89,10.289,7.89c0.922,0,1.859-0.124,2.789-0.374
		c3.656-0.984,6.344-3.766,7.391-7.125h0.008l-0.016,0.062c0.453-1.391,11.647-34.14,54.115-35.249
		c5.891-0.141,10.547-5.047,10.391-10.938C266.507,121.823,261.616,117.182,255.71,117.339z"/>
</g>
<g>
</g>
<g>
</g>
<g>
</g>
<g>
</g>
<g>
</g>
<g>
</g>
<g>
</g>
<g>
</g>
<g>
</g>
<g>
</g>
<g>
</g>
<g>
</g>
<g>
</g>
<g>
</g>
<g>
</g>
</svg>
