<?xml version="1.0" encoding="iso-8859-1"?>
<!-- Generator: Adobe Illustrator 19.0.0, SVG Export Plug-In . SVG Version: 6.00 Build 0)  -->
<svg version="1.1" id="Capa_1" xmlns="http://www.w3.org/2000/svg" xmlns:xlink="http://www.w3.org/1999/xlink" x="0px" y="0px"
	 viewBox="0 0 512 512" style="enable-background:new 0 0 512 512;" xml:space="preserve">
<g>
	<path style="fill:#00a6fb;" d="M512,247.172v247.172c0,9.751-7.905,17.655-17.655,17.655H17.655C7.904,512,0,504.095,0,494.345
		V141.241c0-9.751,7.904-17.655,17.655-17.655h476.69c9.751,0,17.655,7.904,17.655,17.655V247.172z"/>
	<path style="fill:#ffffff;" d="M507.586,129.677L273.037,329.975c-9.842,8.299-24.232,8.299-34.074,0L4.414,129.677
		c3.313-3.865,8.15-6.09,13.241-6.091h476.69C499.436,123.587,504.273,125.812,507.586,129.677z"/>
	<path style="fill:#1464C8;" d="M505.732,507.763c-3.165,2.732-7.206,4.236-11.388,4.237H17.655
		c-4.181-0.001-8.223-1.505-11.388-4.237l195.531-209.479l37.164,31.691c9.842,8.299,24.232,8.299,34.074,0l37.076-31.691
		L505.732,507.763z"/>
	<polygon style="fill:#ffffff;" points="256,0 294.188,75.555 379.586,87.667 317.793,146.476 332.376,229.517 256,190.314 
		179.624,229.517 194.207,146.476 132.414,87.667 217.812,75.555 	"/>
</g>
<g>
</g>
<g>
</g>
<g>
</g>
<g>
</g>
<g>
</g>
<g>
</g>
<g>
</g>
<g>
</g>
<g>
</g>
<g>
</g>
<g>
</g>
<g>
</g>
<g>
</g>
<g>
</g>
<g>
</g>
</svg>
