<?xml version="1.0" encoding="iso-8859-1"?>
<!-- Generator: Adobe Illustrator 19.0.0, SVG Export Plug-In . SVG Version: 6.00 Build 0)  -->
<svg version="1.1" id="Capa_1" xmlns="http://www.w3.org/2000/svg" xmlns:xlink="http://www.w3.org/1999/xlink" x="0px" y="0px"
	 viewBox="0 0 512 512" style="enable-background:new 0 0 512 512;" xml:space="preserve">
<g>
	<path style="fill:#2FA8CC;" d="M507.661,17.356v364.475H4.339V17.356C4.368,7.782,12.121,0.029,21.695,0h468.61
		C499.879,0.029,507.632,7.782,507.661,17.356z"/>
	<rect x="203.932" y="390.508" style="fill:#3F5C6C;" width="86.78" height="112.814"/>
	<g>
		<path style="fill:#2C3E50;" d="M507.661,355.797v52.068c-0.029,9.574-7.782,17.327-17.356,17.356H21.695
			c-9.574-0.029-17.327-7.782-17.356-17.356v-52.068H507.661z"/>
		<path style="fill:#2C3E50;" d="M386.169,512H125.831c-4.793,0-8.678-3.885-8.678-8.678c0-4.793,3.885-8.678,8.678-8.678h260.339
			c4.793,0,8.678,3.885,8.678,8.678C394.847,508.115,390.962,512,386.169,512z"/>
	</g>
	<g>
		<path style="fill:#67B9CC;" d="M30.373,295.051c-4.793,0-8.678-3.885-8.678-8.678V34.712c0-4.793,3.885-8.678,8.678-8.678
			s8.678,3.885,8.678,8.678v251.661C39.051,291.166,35.166,295.051,30.373,295.051z"/>
		<circle style="fill:#67B9CC;" cx="30.373" cy="321.085" r="8.678"/>
	</g>
	<g>
		<path style="fill:#FFFFFF;" d="M141.451,199.029c-2.876-3.834-8.315-4.611-12.149-1.736l-52.068,38.747
			c-3.834,2.876-4.611,8.315-1.736,12.149s8.315,4.611,12.149,1.736l52.068-38.773C143.533,208.278,144.309,202.859,141.451,199.029
			z"/>
		<path style="fill:#FFFFFF;" d="M181.153,270.917l-43.39,34.712c-3.743,2.995-4.349,8.458-1.354,12.201
			c2.995,3.743,8.458,4.349,12.201,1.354L192,284.472c3.743-2.995,4.349-8.458,1.354-12.201
			C190.358,268.528,184.896,267.922,181.153,270.917z"/>
		<path style="fill:#FFFFFF;" d="M331.897,276.532c-1.533-1.717-3.685-2.755-5.983-2.885c-2.298-0.13-4.553,0.658-6.27,2.191
			l-43.39,38.773c-3.575,3.192-3.886,8.678-0.694,12.253c3.192,3.575,8.678,3.886,12.253,0.694l43.39-38.773
			c1.717-1.533,2.755-3.685,2.885-5.983C334.218,280.505,333.43,278.249,331.897,276.532z"/>
		<path style="fill:#FFFFFF;" d="M409.947,35.58c-1.34-0.958-3.08-1.155-4.599-0.521L140.21,145.642
			c-3.248,1.355-5.356,4.537-5.337,8.056c0.019,3.519,2.162,6.679,5.424,7.998l72.227,29.219h0.087l17.356,86.78
			c1.215,3.992,5.988,9.719,8.418,7.116l0.087,0.087l52.936-62.23l72.201,28.386c2.84,1.177,6.064,0.971,8.731-0.558
			c2.667-1.529,4.474-4.207,4.893-7.253l34.885-202.37C412.572,38.829,411.706,36.717,409.947,35.58z"/>
	</g>
	<path style="fill:#A5A5A4;" d="M298.696,225.54l-60.225,59.357l-0.087-0.087c0.666-0.556,1.124-1.32,1.302-2.169l21.521-72.287
		l0.174-0.347l22.129,9.285l9.806,4.165l1.302,0.521L298.696,225.54z"/>
	<path style="fill:#D1D4D1;" d="M409.947,35.58L261.38,210.007l-0.174,0.347l-21.521,72.287c-0.177,0.849-0.636,1.613-1.302,2.169
		c-1.238,1.294-3.074,1.826-4.812,1.396c-1.738-0.43-3.114-1.757-3.606-3.479l-17.356-91.813v-0.087L409.947,35.58z"/>
</g>
<g>
</g>
<g>
</g>
<g>
</g>
<g>
</g>
<g>
</g>
<g>
</g>
<g>
</g>
<g>
</g>
<g>
</g>
<g>
</g>
<g>
</g>
<g>
</g>
<g>
</g>
<g>
</g>
<g>
</g>
</svg>
