<svg height="511pt" viewBox="1 -19 511.999 511" width="511pt" xmlns="http://www.w3.org/2000/svg"><path d="m390.15625 126.839844c-1.421875 0-2.863281-.402344-4.140625-1.25l-130.015625-86.292969-130.019531 86.292969c-3.449219 2.289062-8.101563 1.351562-10.394531-2.101563-2.289063-3.453125-1.351563-8.105469 2.101562-10.398437l138.3125-91.796875 138.3125 91.796875c3.453125 2.292968 4.390625 6.945312 2.101562 10.398437-1.445312 2.175781-3.828124 3.351563-6.257812 3.351563zm0 0" fill="#495059"/><path d="m0 441.898438v-306.242188c0-17.824219 14.449219-32.273438 32.277344-32.273438h447.445312c17.828125 0 32.277344 14.449219 32.277344 32.273438v306.242188c0 17.828124-14.453125 32.277343-32.277344 32.277343h-447.445312c-17.828125 0-32.277344-14.449219-32.277344-32.277343zm0 0" fill="#ad9386"/><path d="m32.277344 103.382812c-17.828125 0-32.277344 14.449219-32.277344 32.273438v306.242188c0 17.828124 14.449219 32.277343 32.277344 32.277343h221.835937c-144.460937-75.453125-138.546875-267.9375-137.492187-370.792969zm0 0" fill="#998377"/><path d="m459.109375 435.039062h-406.21875c-7.597656 0-13.753906-6.15625-13.753906-13.753906v-265.015625c0-7.59375 6.15625-13.753906 13.753906-13.753906h406.21875c7.597656 0 13.753906 6.160156 13.753906 13.753906v265.015625c0 7.597656-6.15625 13.753906-13.753906 13.753906zm0 0" fill="#fff"/><path d="m116.300781 142.519531h-63.410156c-7.597656 0-13.753906 6.15625-13.753906 13.753907v265.015624c0 7.59375 6.15625 13.75 13.753906 13.75h147.851563c-77.347657-77.585937-84.507813-203.027343-84.441407-292.519531zm0 0" fill="#dfdfdd"/><path d="m417.199219 290.269531h-80.90625v81.171875c0 10.898438 11.71875 17.78125 21.238281 12.472656l10.167969-5.667968c5.625-3.136719 12.472656-3.136719 18.097656 0l10.164063 5.667968c9.519531 5.308594 21.238281-1.574218 21.238281-12.472656zm0 0" fill="#eb8d9a"/><path d="m336.292969 333.214844c4.328125 2.632812 9.382812 4.117187 14.714843 4.117187 3.363282 0 6.671876-.59375 9.835938-1.769531l15.902344-5.898438 15.90625 5.898438c3.164062 1.175781 6.476562 1.769531 9.835937 1.769531 5.332031 0 10.386719-1.484375 14.714844-4.117187v-42.945313h-80.90625v42.945313zm0 0" fill="#d67c88"/><path d="m371.945312 316.007812-16.136718 5.984376c-7.335938 2.722656-15.46875-1.191407-17.917969-8.628907l-5.378906-16.347656c-1.03125-3.136719-3.15625-5.800781-5.988281-7.507813l-14.742188-8.882812c-6.703125-4.039062-8.710938-12.839844-4.421875-19.386719l9.425781-14.398437c1.808594-2.765625 2.566406-6.089844 2.136719-9.367188l-2.246094-17.0625c-1.019531-7.757812 4.605469-14.816406 12.398438-15.546875l17.136719-1.605469c3.289062-.308593 6.359374-1.789062 8.652343-4.167968l11.941407-12.394532c5.429687-5.636718 14.453124-5.636718 19.882812 0l11.941406 12.394532c2.292969 2.378906 5.363282 3.859375 8.652344 4.167968l17.136719 1.605469c7.792969.730469 13.417969 7.789063 12.398437 15.546875l-2.246094 17.0625c-.429687 3.277344.328126 6.601563 2.136719 9.367188l9.425781 14.398437c4.289063 6.546875 2.28125 15.347657-4.421874 19.386719l-14.742188 8.882812c-2.832031 1.707032-4.957031 4.371094-5.988281 7.507813l-5.378907 16.347656c-2.449218 7.4375-10.578124 11.351563-17.917968 8.628907l-16.136719-5.984376c-3.09375-1.152343-6.503906-1.152343-9.601563 0zm0 0" fill="#f6c273"/><path d="m415.5625 255.832031c0 21.4375-17.378906 38.816407-38.816406 38.816407-21.433594 0-38.8125-17.378907-38.8125-38.816407s17.378906-38.816406 38.8125-38.816406c21.4375 0 38.816406 17.378906 38.816406 38.816406zm0 0" fill="#f8e47c"/><path d="m240.800781 234.578125h-146.640625c-8.238281 0-14.917968-6.679687-14.917968-14.921875v-15.105469c0-8.238281 6.679687-14.917969 14.917968-14.917969h146.640625c8.238281 0 14.917969 6.675782 14.917969 14.917969v15.105469c0 8.242188-6.679688 14.921875-14.917969 14.921875zm0 0" fill="#495059"/><path d="m117.15625 189.632812h-22.996094c-8.238281 0-14.917968 6.679688-14.917968 14.917969v15.109375c0 8.238282 6.679687 14.917969 14.917968 14.917969h26.136719c-1.5625-15.285156-2.542969-30.351563-3.140625-44.945313zm0 0" fill="#41464f"/><path d="m231.046875 281.761719h-127.132813c-4.140624 0-7.5-3.355469-7.5-7.5 0-4.140625 3.359376-7.5 7.5-7.5h127.132813c4.140625 0 7.5 3.359375 7.5 7.5 0 4.144531-3.359375 7.5-7.5 7.5zm0 0" fill="#495059"/><path d="m213.125 310.792969h-91.289062c-4.144532 0-7.5-3.355469-7.5-7.5 0-4.140625 3.355468-7.5 7.5-7.5h91.289062c4.144531 0 7.5 3.359375 7.5 7.5 0 4.144531-3.355469 7.5-7.5 7.5zm0 0" fill="#495059"/><path d="m126.679688 375.695312c0-10.496093-10.683594-19-23.859376-19-13.175781 0-23.859374 8.503907-23.859374 19 0 10.492188 10.683593 19 23.859374 19 13.175782 0 23.859376-8.507812 23.859376-19zm0 0" fill="#f8b8bd"/><path d="m256 375.695312c0-10.496093-10.683594-19-23.859375-19s-23.859375 8.503907-23.859375 19c0 10.492188 10.683594 19 23.859375 19s23.859375-8.507812 23.859375-19zm0 0" fill="#f8b8bd"/><g fill="#495059"><path d="m116.726562 364.242188c-4.144531 0-7.5-3.359376-7.5-7.5v-8.425782c0-4.140625 3.355469-7.5 7.5-7.5 4.140626 0 7.5 3.359375 7.5 7.5v8.425782c0 4.140624-3.359374 7.5-7.5 7.5zm0 0"/><path d="m218.234375 364.242188c-4.140625 0-7.5-3.359376-7.5-7.5v-8.425782c0-4.140625 3.359375-7.5 7.5-7.5 4.144531 0 7.5 3.359375 7.5 7.5v8.425782c0 4.140624-3.355469 7.5-7.5 7.5zm0 0"/><path d="m167.480469 370.710938c-7.296875 0-14.234375-3.160157-19.035157-8.667969-2.722656-3.121094-2.398437-7.859375.726563-10.582031 3.121094-2.722657 7.859375-2.394532 10.582031.726562 1.949219 2.238281 4.769532 3.523438 7.726563 3.523438 2.960937 0 5.777343-1.285157 7.726562-3.523438 2.722657-3.125 7.460938-3.449219 10.582031-.726562 3.125 2.722656 3.449219 7.460937.726563 10.582031-4.800781 5.507812-11.738281 8.667969-19.035156 8.667969zm0 0"/></g><path d="m285.796875 30.296875c0 16.453125-13.339844 29.792969-29.796875 29.792969s-29.796875-13.339844-29.796875-29.792969c0-16.457031 13.339844-29.796875 29.796875-29.796875s29.796875 13.339844 29.796875 29.796875zm0 0" fill="#f6c273"/></svg>