<?xml version="1.0" encoding="UTF-8" standalone="no"?>
<svg
   xmlns:dc="http://purl.org/dc/elements/1.1/"
   xmlns:cc="http://creativecommons.org/ns#"
   xmlns:rdf="http://www.w3.org/1999/02/22-rdf-syntax-ns#"
   xmlns:svg="http://www.w3.org/2000/svg"
   xmlns="http://www.w3.org/2000/svg"
   xmlns:sodipodi="http://sodipodi.sourceforge.net/DTD/sodipodi-0.dtd"
   xmlns:inkscape="http://www.inkscape.org/namespaces/inkscape"
   id="icons"
   enable-background="new 0 0 64 64"
   height="512"
   viewBox="0 0 64 64"
   width="512"
   version="1.1"
   sodipodi:docname="ui-card-list.svg"
   inkscape:version="0.92.4 (5da689c313, 2019-01-14)">
  <metadata
     id="metadata109">
    <rdf:RDF>
      <cc:Work
         rdf:about="">
        <dc:format>image/svg+xml</dc:format>
        <dc:type
           rdf:resource="http://purl.org/dc/dcmitype/StillImage" />
      </cc:Work>
    </rdf:RDF>
  </metadata>
  <defs
     id="defs107" />
  <sodipodi:namedview
     pagecolor="#ffffff"
     bordercolor="#666666"
     borderopacity="1"
     objecttolerance="10"
     gridtolerance="10"
     guidetolerance="10"
     inkscape:pageopacity="0"
     inkscape:pageshadow="2"
     inkscape:window-width="1280"
     inkscape:window-height="973"
     id="namedview105"
     showgrid="false"
     inkscape:zoom="0.921875"
     inkscape:cx="212.78688"
     inkscape:cy="248.48958"
     inkscape:window-x="0"
     inkscape:window-y="25"
     inkscape:window-maximized="1"
     inkscape:current-layer="icons" />
  <path
     d="m1 58c0 .55.45 1 1 1h60c.55 0 1-.45 1-1v-49h-62z"
     fill="#e6e9ed"
     id="path2" />
  <path
     d="m63 7v2h-62v-2c0-1.109.89-2 2-2h58c1.11 0 2 .891 2 2z"
     fill="#ccd1d9"
     id="path4" />
  <path
     d="m4.006 5.998h-.01c-.553 0-.995.447-.995 1 0 .552.452 1 1.005 1s1-.448 1-1c0-.553-.447-1-1-1z"
     fill="#e6e9ed"
     id="path6"
     style="fill:#5d9cec;fill-opacity:1" />
  <path
     d="m7.005 5.998h-.01c-.552 0-.995.447-.995 1 0 .552.453 1 1.005 1 .553 0 1-.448 1-1 0-.553-.447-1-1-1z"
     fill="#e6e9ed"
     id="path8" />
  <path
     d="m10.008 5.998h-.01c-.553 0-.995.447-.995 1 0 .552.452 1 1.005 1s1-.448 1-1c0-.553-.447-1-1-1z"
     fill="#e6e9ed"
     id="path10" />
  <g
     fill="#ccd1d9"
     id="g24">
    <path
       d="m20 14.001c.55 0 1 .45 1 1v13c0 .55-.45 1-1 1h-14c-.55 0-1-.45-1-1v-13c0-.55.45-1 1-1z"
       id="path12" />
    <path
       d="m39 14.001c.55 0 1 .45 1 1v22c0 .55-.45 1-1 1h-14c-.55 0-1-.45-1-1v-22c0-.55.45-1 1-1z"
       id="path14" />
    <path
       d="m58 14.001c.55 0 1 .45 1 1v13c0 .55-.45 1-1 1h-14c-.55 0-1-.45-1-1v-13c0-.55.45-1 1-1z"
       id="path16" />
    <path
       d="m20 32.001c.55 0 1 .45 1 1v22c0 .55-.45 1-1 1h-14c-.55 0-1-.45-1-1v-22c0-.55.45-1 1-1z"
       id="path18" />
    <path
       d="m58 32.001c.55 0 1 .45 1 1v22c0 .55-.45 1-1 1h-14c-.55 0-1-.45-1-1v-22c0-.55.45-1 1-1z"
       id="path20" />
    <path
       d="m39 41.011c.55 0 1 .45 1 1v12.99c0 .55-.45 1-1 1h-14c-.55 0-1-.45-1-1v-12.99c0-.55.45-1 1-1z"
       id="path22" />
  </g>
  <path
     d="m20 13c.55 0 1 .45 1 1v13c0 .55-.45 1-1 1h-14c-.55 0-1-.45-1-1v-13c0-.55.45-1 1-1z"
     fill="#fff"
     id="path26"
     style="fill:#656d78;fill-opacity:1" />
  <path
     d="m39 13c.55 0 1 .45 1 1v22c0 .55-.45 1-1 1h-14c-.55 0-1-.45-1-1v-22c0-.55.45-1 1-1z"
     fill="#fff"
     id="path28"
     style="fill:#5d9cec;fill-opacity:1" />
  <path
     d="m58 13c.55 0 1 .45 1 1v13c0 .55-.45 1-1 1h-14c-.55 0-1-.45-1-1v-13c0-.55.45-1 1-1z"
     fill="#fff"
     id="path30" />
  <path
     d="m20 31c.55 0 1 .45 1 1v22c0 .55-.45 1-1 1h-14c-.55 0-1-.45-1-1v-22c0-.55.45-1 1-1z"
     fill="#fff"
     id="path32" />
  <path
     d="m58 31c.55 0 1 .45 1 1v22c0 .55-.45 1-1 1h-14c-.55 0-1-.45-1-1v-22c0-.55.45-1 1-1z"
     fill="#fff"
     id="path34" />
  <path
     d="m39 40.01c.55 0 1 .45 1 1v12.99c0 .55-.45 1-1 1h-14c-.55 0-1-.45-1-1v-12.99c0-.55.45-1 1-1z"
     fill="#fff"
     id="path36"
     style="fill:#656d78;fill-opacity:1" />
  <path
     d="m17.026 25.001c-.553 0-1.005-.447-1.005-1s.442-1 .994-1h.011c.552 0 1 .447 1 1s-.448 1-1 1z"
     fill="#5d9cec"
     id="path38" />
  <path
     d="m13.996 25.001h-1.991c-.553 0-1-.447-1-1s.447-1 1-1h1.991c.553 0 1 .447 1 1s-.447 1-1 1z"
     fill="#ccd1d9"
     id="path40" />
  <path
     d="m17 17.995h-8c-.553 0-1-.447-1-1s.447-1 1-1h8c.553 0 1 .447 1 1s-.447 1-1 1z"
     fill="#e6e9ed"
     id="path42" />
  <path
     d="m17 20.995h-8c-.553 0-1-.447-1-1s.447-1 1-1h8c.553 0 1 .447 1 1s-.447 1-1 1z"
     fill="#e6e9ed"
     id="path44" />
  <path
     d="m36.026 52.007c-.553 0-1.005-.447-1.005-1s.442-1 .994-1h.011c.552 0 1 .447 1 1s-.448 1-1 1z"
     fill="#5d9cec"
     id="path46" />
  <path
     d="m32.996 52.007h-1.991c-.553 0-1-.447-1-1s.447-1 1-1h1.991c.553 0 1 .447 1 1s-.447 1-1 1z"
     fill="#ccd1d9"
     id="path48" />
  <path
     d="m36 45.001h-8c-.553 0-1-.447-1-1s.447-1 1-1h8c.553 0 1 .447 1 1s-.447 1-1 1z"
     fill="#e6e9ed"
     id="path50" />
  <path
     d="m36 48.001h-8c-.553 0-1-.447-1-1s.447-1 1-1h8c.553 0 1 .447 1 1s-.447 1-1 1z"
     fill="#e6e9ed"
     id="path52" />
  <path
     d="m17.026 52.013c-.553 0-1.005-.447-1.005-1s.442-1 .994-1h.011c.552 0 1 .447 1 1s-.448 1-1 1z"
     fill="#5d9cec"
     id="path54" />
  <path
     d="m13.996 52.013h-1.991c-.553 0-1-.447-1-1s.447-1 1-1h1.991c.553 0 1 .447 1 1s-.447 1-1 1z"
     fill="#ccd1d9"
     id="path56" />
  <path
     d="m17 45.007h-8c-.553 0-1-.447-1-1s.447-1 1-1h8c.553 0 1 .447 1 1s-.447 1-1 1z"
     fill="#e6e9ed"
     id="path58" />
  <path
     d="m17 42.007h-8c-.553 0-1-.447-1-1s.447-1 1-1h8c.553 0 1 .447 1 1s-.447 1-1 1z"
     fill="#e6e9ed"
     id="path60" />
  <path
     d="m17 39.007h-8c-.553 0-1-.447-1-1s.447-1 1-1h8c.553 0 1 .447 1 1s-.447 1-1 1z"
     fill="#e6e9ed"
     id="path62" />
  <path
     d="m17 36.007h-8c-.553 0-1-.447-1-1s.447-1 1-1h8c.553 0 1 .447 1 1s-.447 1-1 1z"
     fill="#e6e9ed"
     id="path64" />
  <path
     d="m17 48.007h-8c-.553 0-1-.447-1-1s.447-1 1-1h8c.553 0 1 .447 1 1s-.447 1-1 1z"
     fill="#e6e9ed"
     id="path66" />
  <path
     d="m55.026 25.001c-.553 0-1.005-.447-1.005-1s.442-1 .994-1h.011c.552 0 1 .447 1 1s-.448 1-1 1z"
     fill="#5d9cec"
     id="path68" />
  <path
     d="m51.996 25.001h-1.991c-.553 0-1-.447-1-1s.447-1 1-1h1.991c.553 0 1 .447 1 1s-.447 1-1 1z"
     fill="#ccd1d9"
     id="path70" />
  <path
     d="m55 17.995h-8c-.553 0-1-.447-1-1s.447-1 1-1h8c.553 0 1 .447 1 1s-.447 1-1 1z"
     fill="#e6e9ed"
     id="path72" />
  <path
     d="m55 20.995h-8c-.553 0-1-.447-1-1s.447-1 1-1h8c.553 0 1 .447 1 1s-.447 1-1 1z"
     fill="#e6e9ed"
     id="path74" />
  <path
     d="m55.026 52.013c-.553 0-1.005-.447-1.005-1s.442-1 .994-1h.011c.552 0 1 .447 1 1s-.448 1-1 1z"
     fill="#5d9cec"
     id="path76" />
  <path
     d="m51.996 52.013h-1.991c-.553 0-1-.447-1-1s.447-1 1-1h1.991c.553 0 1 .447 1 1s-.447 1-1 1z"
     fill="#ccd1d9"
     id="path78" />
  <path
     d="m55 45.007h-8c-.553 0-1-.447-1-1s.447-1 1-1h8c.553 0 1 .447 1 1s-.447 1-1 1z"
     fill="#e6e9ed"
     id="path80" />
  <path
     d="m55 42.007h-8c-.553 0-1-.447-1-1s.447-1 1-1h8c.553 0 1 .447 1 1s-.447 1-1 1z"
     fill="#e6e9ed"
     id="path82" />
  <path
     d="m55 39.007h-8c-.553 0-1-.447-1-1s.447-1 1-1h8c.553 0 1 .447 1 1s-.447 1-1 1z"
     fill="#e6e9ed"
     id="path84" />
  <path
     d="m55 36.007h-8c-.553 0-1-.447-1-1s.447-1 1-1h8c.553 0 1 .447 1 1s-.447 1-1 1z"
     fill="#e6e9ed"
     id="path86" />
  <path
     d="m55 48.007h-8c-.553 0-1-.447-1-1s.447-1 1-1h8c.553 0 1 .447 1 1s-.447 1-1 1z"
     fill="#e6e9ed"
     id="path88" />
  <path
     d="m36.026 34.013c-.553 0-1.005-.447-1.005-1s.442-1 .994-1h.011c.552 0 1 .447 1 1s-.448 1-1 1z"
     fill="#5d9cec"
     id="path90"
     style="fill:#656d78;fill-opacity:1" />
  <path
     d="m32.996 34.013h-1.991c-.553 0-1-.447-1-1s.447-1 1-1h1.991c.553 0 1 .447 1 1s-.447 1-1 1z"
     fill="#ccd1d9"
     id="path92" />
  <path
     d="m36 27.007h-8c-.553 0-1-.447-1-1s.447-1 1-1h8c.553 0 1 .447 1 1s-.447 1-1 1z"
     fill="#e6e9ed"
     id="path94" />
  <path
     d="m36 24.007h-8c-.553 0-1-.447-1-1s.447-1 1-1h8c.553 0 1 .447 1 1s-.447 1-1 1z"
     fill="#e6e9ed"
     id="path96" />
  <path
     d="m36 21.007h-8c-.553 0-1-.447-1-1s.447-1 1-1h8c.553 0 1 .447 1 1s-.447 1-1 1z"
     fill="#e6e9ed"
     id="path98" />
  <path
     d="m36 18.007h-8c-.553 0-1-.447-1-1s.447-1 1-1h8c.553 0 1 .447 1 1s-.447 1-1 1z"
     fill="#e6e9ed"
     id="path100" />
  <path
     d="m36 30.007h-8c-.553 0-1-.447-1-1s.447-1 1-1h8c.553 0 1 .447 1 1s-.447 1-1 1z"
     fill="#e6e9ed"
     id="path102" />
</svg>
