<svg id="icons" enable-background="new 0 0 64 64" height="512" viewBox="0 0 64 64" width="512" xmlns="http://www.w3.org/2000/svg"><path d="m1 58c0 .55.45 1 1 1h60c.55 0 1-.45 1-1v-49h-62z" fill="#e6e9ed"/><path d="m63 7v2h-62v-2c0-1.109.89-2 2-2h58c1.11 0 2 .891 2 2z" fill="#ccd1d9"/><g fill="#e6e9ed"><path d="m4.006 5.998h-.01c-.553 0-.995.447-.995 1 0 .552.452 1 1.005 1s1-.448 1-1c0-.553-.447-1-1-1z"/><path d="m7.005 5.998h-.01c-.552 0-.995.447-.995 1 0 .552.453 1 1.005 1 .553 0 1-.448 1-1 0-.553-.447-1-1-1z"/><path d="m10.008 5.998h-.01c-.553 0-.995.447-.995 1 0 .552.452 1 1.005 1s1-.448 1-1c0-.553-.447-1-1-1z"/></g><path d="m40.51 52.001h-17.01c-1.379 0-2.5 1.121-2.5 2.5s1.121 2.5 2.5 2.5h17.01c1.379 0 2.5-1.121 2.5-2.5s-1.121-2.5-2.5-2.5z" fill="#4a89dc"/><path d="m47.005 14.998h-30.01c-.553 0-1-.447-1-1s.447-1 1-1h30.01c.553 0 1 .447 1 1s-.447 1-1 1z" fill="#ccd1d9"/><path d="m39.998 17.998h-15.996c-.553 0-1-.447-1-1s.447-1 1-1h15.996c.553 0 1 .447 1 1s-.447 1-1 1z" fill="#ccd1d9"/><path d="m58.999 34.999h-53.998c-.553 0-1 .447-1 1v11.998c0 .553.447 1 1 1h53.998c.553 0 1-.447 1-1v-11.998c0-.553-.447-1-1-1z" fill="#f5f7fa"/><path d="m58.999 47.996h-53.998c-.553 0-1-.447-1-1v1.001c0 .553.447 1 1 1h53.998c.553 0 1-.447 1-1v-1.001c0 .553-.447 1-1 1z" fill="#ccd1d9"/><path d="m30.001 27.996h-25c-.553 0-1 .447-1 1v3c0 .551.447 1 1 1h25c.553 0 1-.449 1-1v-3c0-.553-.447-1-1-1z" fill="#f5f7fa"/><path d="m59 20.996h-53.999c-.553 0-1 .447-1 1v3c0 .552.447 1 1 1h53.999c.553 0 1-.448 1-1v-3c0-.553-.447-1-1-1z" fill="#f5f7fa"/><path d="m59 27.996h-25c-.553 0-1 .447-1 1v3c0 .551.447 1 1 1h25c.553 0 1-.449 1-1v-3c0-.553-.447-1-1-1z" fill="#f5f7fa"/><path d="m30.001 31.995h-25c-.553 0-1-.448-1-.999v1c0 .551.447 1 1 1h25c.553 0 1-.449 1-1v-1c0 .551-.447.999-1 .999z" fill="#ccd1d9"/><path d="m59 24.995h-53.999c-.553 0-1-.448-1-1v1.001c0 .552.447 1 1 1h53.999c.553 0 1-.448 1-1v-1.001c0 .552-.447 1-1 1z" fill="#ccd1d9"/><path d="m59 31.995h-25c-.553 0-1-.448-1-.999v1c0 .551.447 1 1 1h25c.553 0 1-.449 1-1v-1c0 .551-.447.999-1 .999z" fill="#ccd1d9"/><path d="m21 53.5h22.01v1.001h-22.01z" fill="#4a89dc"/><path d="m40.51 51h-17.01c-1.379 0-2.5 1.121-2.5 2.5s1.121 2.5 2.5 2.5h17.01c1.379 0 2.5-1.121 2.5-2.5s-1.121-2.5-2.5-2.5z" fill="#5d9cec"/></svg>