<svg id="icons" enable-background="new 0 0 64 64" height="512" viewBox="0 0 64 64" width="512" xmlns="http://www.w3.org/2000/svg"><path d="m1 58c0 .55.45 1 1 1h60c.55 0 1-.45 1-1v-49h-62z" fill="#e6e9ed"/><path d="m63 7v2h-62v-2c0-1.109.89-2 2-2h58c1.11 0 2 .891 2 2z" fill="#ccd1d9"/><path d="m4.006 5.998h-.01c-.553 0-.995.447-.995 1 0 .552.452 1 1.005 1s1-.448 1-1c0-.553-.447-1-1-1z" fill="#e6e9ed"/><path d="m7.005 5.998h-.01c-.552 0-.995.447-.995 1 0 .552.453 1 1.005 1 .553 0 1-.448 1-1 0-.553-.447-1-1-1z" fill="#e6e9ed"/><path d="m10.008 5.998h-.01c-.553 0-.995.447-.995 1 0 .552.452 1 1.005 1s1-.448 1-1c0-.553-.447-1-1-1z" fill="#e6e9ed"/><circle cx="31.99" cy="39.501" fill="#5d9cec" r="3"/><circle cx="12.48" cy="39.501" fill="#5d9cec" r="3"/><circle cx="51.5" cy="23.5" fill="#5d9cec" r="3"/><circle cx="31.99" cy="23.5" fill="#5d9cec" r="3"/><path d="m39.51 53.001c.83 0 1.5.67 1.5 1.5s-.67 1.5-1.5 1.5h-15.01c-.83 0-1.5-.67-1.5-1.5s.67-1.5 1.5-1.5z" fill="#4a89dc"/><circle cx="51.5" cy="39.501" fill="#5d9cec" r="3"/><circle cx="12.48" cy="23.5" fill="#5d9cec" r="3"/><g fill="#ccd1d9"><path d="m18.998 30.002h-12.994c-.553 0-1-.447-1-1s.447-1 1-1h12.994c.553 0 1 .447 1 1s-.447 1-1 1z"/><path d="m57.996 30.002h-12.994c-.553 0-1-.447-1-1s.447-1 1-1h12.994c.553 0 1 .447 1 1s-.447 1-1 1z"/><path d="m38.484 30.002h-12.994c-.553 0-1-.447-1-1s.447-1 1-1h12.994c.553 0 1 .447 1 1s-.447 1-1 1z"/><path d="m35.502 33.002h-7.031c-.553 0-1-.447-1-1s.447-1 1-1h7.031c.553 0 1 .447 1 1s-.447 1-1 1z"/><path d="m55.002 33.002h-7.006c-.553 0-1-.447-1-1s.447-1 1-1h7.006c.553 0 1 .447 1 1s-.447 1-1 1z"/><path d="m16.002 33.002h-6.998c-.553 0-1-.447-1-1s.447-1 1-1h6.998c.553 0 1 .447 1 1s-.447 1-1 1z"/><path d="m18.998 46h-12.994c-.553 0-1-.447-1-1s.447-1 1-1h12.994c.553 0 1 .447 1 1s-.447 1-1 1z"/><path d="m57.996 46h-12.994c-.553 0-1-.447-1-1s.447-1 1-1h12.994c.553 0 1 .447 1 1s-.447 1-1 1z"/><path d="m38.484 46h-12.994c-.553 0-1-.447-1-1s.447-1 1-1h12.994c.553 0 1 .447 1 1s-.447 1-1 1z"/><path d="m35.502 49h-7.031c-.553 0-1-.447-1-1s.447-1 1-1h7.031c.553 0 1 .447 1 1s-.447 1-1 1z"/><path d="m55.002 49h-7.006c-.553 0-1-.447-1-1s.447-1 1-1h7.006c.553 0 1 .447 1 1s-.447 1-1 1z"/><path d="m16.002 49h-6.998c-.553 0-1-.447-1-1s.447-1 1-1h6.998c.553 0 1 .447 1 1s-.447 1-1 1z"/></g><path d="m48.002 13.998h-32.004c-.553 0-1-.447-1-1s.447-1 1-1h32.004c.553 0 1 .447 1 1s-.447 1-1 1z" fill="#656d78"/><path d="m40 16.998h-16c-.553 0-1-.447-1-1s.447-1 1-1h16c.553 0 1 .447 1 1s-.447 1-1 1z" fill="#656d78"/><path d="m23 53.5h18.01v1.001h-18.01z" fill="#4a89dc"/><path d="m39.51 52c.83 0 1.5.67 1.5 1.5s-.67 1.5-1.5 1.5h-15.01c-.83 0-1.5-.67-1.5-1.5s.67-1.5 1.5-1.5z" fill="#5d9cec"/></svg>