<svg id="icons" enable-background="new 0 0 64 64" height="512" viewBox="0 0 64 64" width="512" xmlns="http://www.w3.org/2000/svg"><path d="m1 58c0 .55.45 1 1 1h60c.55 0 1-.45 1-1v-49h-62z" fill="#e6e9ed"/><path d="m63 7v2h-62v-2c0-1.109.89-2 2-2h58c1.11 0 2 .891 2 2z" fill="#ccd1d9"/><path d="m4.006 5.998h-.01c-.553 0-.995.447-.995 1 0 .552.452 1 1.005 1s1-.448 1-1c0-.553-.447-1-1-1z" fill="#e6e9ed"/><path d="m7.005 5.998h-.01c-.552 0-.995.447-.995 1 0 .552.453 1 1.005 1 .553 0 1-.448 1-1 0-.553-.447-1-1-1z" fill="#e6e9ed"/><path d="m10.008 5.998h-.01c-.553 0-.995.447-.995 1 0 .552.452 1 1.005 1s1-.448 1-1c0-.553-.447-1-1-1z" fill="#e6e9ed"/><path d="m42 17.996h-16c-.55 0-1 .449-1 1v6c0 .549.45 1 1 1h1.002 4.998l2 1 2-1h4.998 1.002c.55 0 1-.451 1-1v-6c0-.551-.45-1-1-1z" fill="#ccd1d9"/><path d="m42 16.995h-16c-.55 0-1 .45-1 1v6c0 .55.45 1 1 1h1.002 4.998l2 1 2-1h4.998 1.002c.55 0 1-.45 1-1v-6c0-.55-.45-1-1-1z" fill="#fff"/><path d="m5.001 56c-.553 0-1-.447-1-1v-42c0-.553.447-1 1-1s1 .447 1 1v42c0 .553-.447 1-1 1z" fill="#ccd1d9"/><path d="m59 56h-53.999c-.553 0-1-.447-1-1s.447-1 1-1h53.999c.553 0 1 .447 1 1s-.447 1-1 1z" fill="#ccd1d9"/><path d="m17.415 38.59c-.287 0-.57-.122-.769-.359-.354-.424-.297-1.054.127-1.408 4.145-3.461 9.247-5.398 15.166-5.76.563-.029 1.025.387 1.059.938s-.386 1.025-.938 1.059c-5.483.335-10.195 2.117-14.006 5.299-.186.155-.413.231-.639.231z" fill="#545c66"/><path d="m9.001 51.997c-.553 0-1-.447-1-1 0-.38 1.394-6.105 5.811-11.248.361-.42.993-.467 1.41-.107.419.36.467.991.107 1.41-4.055 4.721-5.284 9.865-5.348 10.144-.091.456-.496.801-.98.801z" fill="#545c66"/><path d="m36 32.939c-.525 0-.966-.41-.997-.941-.033-.551.388-1.024.939-1.057 5.495-.324 10.214-2.102 14.023-5.28.424-.354 1.056-.296 1.408.127.354.424.297 1.055-.127 1.408-4.146 3.46-9.255 5.392-15.188 5.741-.018.002-.038.002-.058.002z" fill="#545c66"/><path d="m53.451 24.616c-.23 0-.462-.079-.651-.241-.419-.359-.467-.99-.107-1.41 4.044-4.715 5.264-9.879 5.328-10.163.091-.458.495-.804.98-.804.553 0 1 .447 1 1 0 .383-1.389 6.137-5.791 11.27-.197.23-.478.348-.759.348z" fill="#545c66"/><g fill="#ccd1d9"><path d="m45.024 48c-.553 0-1.005-.447-1.005-1s.442-1 .994-1h.011c.552 0 1 .447 1 1s-.448 1-1 1z"/><path d="m58.994 48h-11c-.553 0-1-.447-1-1s.447-1 1-1h11c.553 0 1 .447 1 1s-.447 1-1 1z"/><path d="m45.024 43.998c-.553 0-1.005-.447-1.005-1s.442-1 .994-1h.011c.552 0 1 .447 1 1s-.448 1-1 1z"/><path d="m58.994 43.998h-11c-.553 0-1-.447-1-1s.447-1 1-1h11c.553 0 1 .447 1 1s-.447 1-1 1z"/><path d="m45.024 52c-.553 0-1.005-.447-1.005-1s.442-1 .994-1h.011c.552 0 1 .447 1 1s-.448 1-1 1z"/><path d="m58.994 52h-11c-.553 0-1-.447-1-1s.447-1 1-1h11c.553 0 1 .447 1 1s-.447 1-1 1z"/></g><path d="m39 21.998h-10c-.553 0-1-.447-1-1s.447-1 1-1h10c.553 0 1 .447 1 1s-.447 1-1 1z" fill="#e6e9ed"/><path d="m53.813 23.271c.438.449.688 1.05.688 1.725 0 1.374-1.125 2.5-2.5 2.5-.675 0-1.288-.263-1.737-.713-.475-.437-.763-1.088-.763-1.787 0-1.388 1.112-2.5 2.5-2.5.712-.001 1.361.299 1.812.775z" fill="#656d78"/><path d="m36.5 31.92v.075c0 1.387-1.125 2.5-2.5 2.5-1.35 0-2.45-1.063-2.5-2.412 0-.025 0-.063 0-.088 0-1.376 1.125-2.5 2.5-2.5 1.35 0 2.462 1.088 2.5 2.425z" fill="#5d9cec"/><path d="m17.763 37.23c.463.462.737 1.087.737 1.774 0 1.374-1.125 2.5-2.5 2.5-.699 0-1.324-.287-1.787-.749-.438-.451-.713-1.063-.713-1.751 0-1.388 1.112-2.5 2.5-2.5.688.001 1.313.275 1.763.726z" fill="#656d78"/></svg>