<svg id="icons" enable-background="new 0 0 64 64" height="512" viewBox="0 0 64 64" width="512" xmlns="http://www.w3.org/2000/svg"><path d="m1 58c0 .55.45 1 1 1h60c.55 0 1-.45 1-1v-49h-62z" fill="#e6e9ed"/><path d="m63 7v2h-62v-2c0-1.109.89-2 2-2h58c1.11 0 2 .891 2 2z" fill="#ccd1d9"/><path d="m4.006 5.998h-.01c-.552 0-.995.447-.995 1 0 .552.453 1 1.005 1 .553 0 1-.448 1-1 0-.553-.447-1-1-1z" fill="#e6e9ed"/><path d="m7.005 5.998h-.01c-.553 0-.995.447-.995 1 0 .552.452 1 1.005 1s1-.448 1-1c0-.553-.447-1-1-1z" fill="#e6e9ed"/><path d="m10.008 5.998h-.01c-.552 0-.995.447-.995 1 0 .552.453 1 1.005 1 .553 0 1-.448 1-1 0-.553-.447-1-1-1z" fill="#e6e9ed"/><path d="m5 16.75h54v34.5h-54z" fill="#f5f7fa"/><path d="m5 50c0-.55.45-1 1-1h52c.55 0 1 .45 1 1v4c0 .55-.45 1-1 1h-52c-.55 0-1-.45-1-1z" fill="#fff"/><path d="m15 27c1.11 0 2 .9 2 2 0 1.11-.89 2-2 2-1.1 0-2-.89-2-2 0-1.1.9-2 2-2z" fill="#ffce54"/><path d="m14 38 2.53 3.53-2.53 3.47h-5z" fill="#545c66"/><path d="m22 34 8 11h-16l2.53-3.47z" fill="#656d78"/><path d="m30 23v22l-8-11-5.47 7.53-2.53-3.53-5 7v-22zm-13 6c0-1.1-.89-2-2-2-1.1 0-2 .9-2 2 0 1.11.9 2 2 2 1.11 0 2-.89 2-2z" fill="#5d9cec"/><path d="m5 14c0-.55.45-1 1-1h52c.55 0 1 .45 1 1v4c0 .55-.45 1-1 1h-52c-.55 0-1-.45-1-1z" fill="#fff"/><g fill="#e6e9ed"><path d="m26 16.998h-16.999c-.553 0-1-.447-1-1s.447-1 1-1h16.999c.553 0 1 .447 1 1s-.447 1-1 1z"/><path d="m55 16.998h-2c-.553 0-1-.447-1-1s.447-1 1-1h2c.553 0 1 .447 1 1s-.447 1-1 1z"/><path d="m26 52.995h-16.999c-.553 0-1-.447-1-1s.447-1 1-1h16.999c.553 0 1 .447 1 1s-.447 1-1 1z"/><path d="m55 52.995h-2c-.553 0-1-.447-1-1s.447-1 1-1h2c.553 0 1 .447 1 1s-.447 1-1 1z"/><path d="m54 53.995c-.553 0-1-.447-1-1v-2c0-.553.447-1 1-1s1 .447 1 1v2c0 .553-.447 1-1 1z"/></g><path d="m55.004 26.988h-19.999c-.553 0-1-.447-1-1s.447-1 1-1h19.999c.553 0 1 .447 1 1s-.447 1-1 1z" fill="#ccd1d9"/><path d="m55.004 29.988h-19.999c-.553 0-1-.447-1-1s.447-1 1-1h19.999c.553 0 1 .447 1 1s-.447 1-1 1z" fill="#ccd1d9"/><path d="m55.004 32.988h-19.999c-.553 0-1-.447-1-1s.447-1 1-1h19.999c.553 0 1 .447 1 1s-.447 1-1 1z" fill="#ccd1d9"/><path d="m44.994 35.988h-9.989c-.553 0-1-.447-1-1s.447-1 1-1h9.989c.553 0 1 .447 1 1s-.447 1-1 1z" fill="#ccd1d9"/><path d="m45.004 38.994h-9.999c-.553 0-1 .447-1 1v1.999c0 .553.447 1 1 1h9.999c.553 0 1-.447 1-1v-1.999c0-.553-.447-1-1-1z" fill="#4a89dc"/><path d="m45.004 37.993h-9.999c-.553 0-1 .447-1 1v1.999c0 .553.447 1 1 1h9.999c.553 0 1-.447 1-1v-1.999c0-.553-.447-1-1-1z" fill="#5d9cec"/><path d="m30.002 22.004h-21.004c-.553 0-1 .447-1 1v21.998c0 .553.447 1 1 1h21.004c.553 0 1-.447 1-1v-21.998c0-.553-.447-1-1-1z" fill="#5d9cec"/><path d="m15.005 26.506c1.388 0 2.5 1.125 2.5 2.5s-1.112 2.5-2.5 2.5c-1.375 0-2.5-1.125-2.5-2.5s1.125-2.5 2.5-2.5z" fill="#ffce54"/><path d="m22.809 34.411c-.032-.044-.078-.069-.115-.106s-.062-.083-.105-.114c-.012-.009-.025-.01-.037-.018-.063-.042-.132-.065-.201-.092-.054-.02-.104-.047-.158-.058-.063-.013-.127-.007-.191-.007s-.128-.006-.191.007c-.055.011-.104.038-.158.058-.069.026-.138.05-.201.092-.012.008-.025.009-.037.018-.044.031-.068.077-.105.114s-.083.063-.115.106l-8.429 11.591h2.473l.001-.001h13.527l.001.001h1.237c.374 0 .687-.214.858-.518z" fill="#656d78"/><path d="m16.529 40.821-1.716-2.402c-.033-.046-.08-.072-.119-.111s-.066-.088-.113-.121c-.01-.007-.021-.008-.031-.015-.063-.041-.131-.063-.199-.088-.054-.021-.104-.05-.159-.06-.067-.014-.135-.007-.203-.006-.06.001-.117-.007-.176.005-.062.012-.117.042-.176.065-.063.025-.127.045-.185.083-.011.007-.023.007-.033.015-.048.034-.075.083-.115.123-.038.039-.085.064-.117.109l-5.047 7.066c.172.304.484.518.858.518h1.229l.001-.001h2.536z" fill="#545c66"/></svg>