<svg id="icons" enable-background="new 0 0 64 64" height="512" viewBox="0 0 64 64" width="512" xmlns="http://www.w3.org/2000/svg"><path d="m1 58c0 .55.45 1 1 1h60c.55 0 1-.45 1-1v-49h-62z" fill="#e6e9ed"/><path d="m63 7v2h-62v-2c0-1.109.89-2 2-2h58c1.11 0 2 .891 2 2z" fill="#ccd1d9"/><g fill="#e6e9ed"><path d="m4.006 5.998h-.01c-.552 0-.995.447-.995 1 0 .552.453 1 1.005 1 .553 0 1-.448 1-1 0-.553-.447-1-1-1z"/><path d="m7.005 5.998h-.01c-.553 0-.995.447-.995 1 0 .552.452 1 1.005 1s1-.448 1-1c0-.553-.447-1-1-1z"/><path d="m10.008 5.998h-.01c-.552 0-.995.447-.995 1 0 .552.453 1 1.005 1 .553 0 1-.448 1-1 0-.553-.447-1-1-1z"/></g><path d="m59 11.998h-54c-.553 0-1 .447-1 1v2.999c0 .553.447 1 1 1h54c.553 0 1-.447 1-1v-2.999c0-.553-.447-1-1-1z" fill="#fff"/><path d="m59 11.995h-9c-.553 0-1 .447-1 1v3c0 .553.447 1 1 1h9c.553 0 1-.447 1-1v-3c0-.553-.447-1-1-1z" fill="#5d9cec"/><path d="m19 20.997h-14c-.553 0-1-.447-1-1s.447-1 1-1h14c.553 0 1 .447 1 1s-.447 1-1 1z" fill="#656d78"/><path d="m59 23.997h-54c-.553 0-1-.447-1-1s.447-1 1-1h54c.553 0 1 .447 1 1s-.447 1-1 1z" fill="#ccd1d9"/><path d="m59 26.997h-54c-.553 0-1-.447-1-1s.447-1 1-1h54c.553 0 1 .447 1 1s-.447 1-1 1z" fill="#ccd1d9"/><path d="m32.975 29.997h-27.975c-.553 0-1-.447-1-1s.447-1 1-1h27.975c.553 0 1 .447 1 1s-.448 1-1 1z" fill="#ccd1d9"/><path d="m19 33.996h-14c-.553 0-1-.447-1-1s.447-1 1-1h14c.553 0 1 .447 1 1s-.447 1-1 1z" fill="#656d78"/><path d="m59 36.996h-54c-.553 0-1-.447-1-1s.447-1 1-1h54c.553 0 1 .447 1 1s-.447 1-1 1z" fill="#ccd1d9"/><path d="m59 39.996h-54c-.553 0-1-.447-1-1s.447-1 1-1h54c.553 0 1 .447 1 1s-.447 1-1 1z" fill="#ccd1d9"/><path d="m32.975 42.996h-27.975c-.553 0-1-.447-1-1s.447-1 1-1h27.975c.553 0 1 .447 1 1s-.448 1-1 1z" fill="#ccd1d9"/><path d="m19 46.997h-14c-.553 0-1-.447-1-1s.447-1 1-1h14c.553 0 1 .447 1 1s-.447 1-1 1z" fill="#656d78"/><path d="m59 49.997h-54c-.553 0-1-.447-1-1s.447-1 1-1h54c.553 0 1 .447 1 1s-.447 1-1 1z" fill="#ccd1d9"/><path d="m59 52.997h-54c-.553 0-1-.447-1-1s.447-1 1-1h54c.553 0 1 .447 1 1s-.447 1-1 1z" fill="#ccd1d9"/><path d="m32.975 55.997h-27.975c-.553 0-1-.447-1-1s.447-1 1-1h27.975c.553 0 1 .447 1 1s-.448 1-1 1z" fill="#ccd1d9"/></svg>