<?xml version="1.0" encoding="UTF-8" standalone="no"?>
<svg
   xmlns:dc="http://purl.org/dc/elements/1.1/"
   xmlns:cc="http://creativecommons.org/ns#"
   xmlns:rdf="http://www.w3.org/1999/02/22-rdf-syntax-ns#"
   xmlns:svg="http://www.w3.org/2000/svg"
   xmlns="http://www.w3.org/2000/svg"
   xmlns:sodipodi="http://sodipodi.sourceforge.net/DTD/sodipodi-0.dtd"
   xmlns:inkscape="http://www.inkscape.org/namespaces/inkscape"
   id="icons"
   enable-background="new 0 0 64 64"
   height="512"
   viewBox="0 0 64 64"
   width="512"
   version="1.1"
   sodipodi:docname="ui-table.svg"
   inkscape:version="0.92.4 (5da689c313, 2019-01-14)">
  <metadata
     id="metadata113">
    <rdf:RDF>
      <cc:Work
         rdf:about="">
        <dc:format>image/svg+xml</dc:format>
        <dc:type
           rdf:resource="http://purl.org/dc/dcmitype/StillImage" />
      </cc:Work>
    </rdf:RDF>
  </metadata>
  <defs
     id="defs111" />
  <sodipodi:namedview
     pagecolor="#ffffff"
     bordercolor="#666666"
     borderopacity="1"
     objecttolerance="10"
     gridtolerance="10"
     guidetolerance="10"
     inkscape:pageopacity="0"
     inkscape:pageshadow="2"
     inkscape:window-width="1280"
     inkscape:window-height="973"
     id="namedview109"
     showgrid="false"
     inkscape:zoom="0.921875"
     inkscape:cx="222.50742"
     inkscape:cy="218.3126"
     inkscape:window-x="0"
     inkscape:window-y="25"
     inkscape:window-maximized="1"
     inkscape:current-layer="icons" />
  <path
     d="m1 58c0 .55.45 1 1 1h60c.55 0 1-.45 1-1v-49h-62z"
     fill="#e6e9ed"
     id="path2" />
  <path
     d="m63 7v2h-62v-2c0-1.109.89-2 2-2h58c1.11 0 2 .891 2 2z"
     fill="#ccd1d9"
     id="path4" />
  <path
     d="m4.006 5.998h-.01c-.553 0-.995.447-.995 1 0 .552.452 1 1.005 1s1-.448 1-1c0-.553-.447-1-1-1z"
     fill="#e6e9ed"
     id="path6"
     style="fill:#5d9cec;fill-opacity:1" />
  <path
     d="m7.005 5.998h-.01c-.552 0-.995.447-.995 1 0 .552.453 1 1.005 1 .553 0 1-.448 1-1 0-.553-.447-1-1-1z"
     fill="#e6e9ed"
     id="path8" />
  <path
     d="m10.008 5.998h-.01c-.553 0-.995.447-.995 1 0 .552.452 1 1.005 1s1-.448 1-1c0-.553-.447-1-1-1z"
     fill="#e6e9ed"
     id="path10" />
  <path
     d="m41.03 50h17.97v4l-1 1h-16.97z"
     fill="#fff"
     id="path12"
     style="fill:#656d78;fill-opacity:1" />
  <path
     d="m5 21c0-.55.45-1 1-1h18.012c.55 0 1 .45 1 1v33c0 .55-.45 1-1 1h-18.012c-.55 0-1-.45-1-1z"
     fill="#48cfad"
     id="path14"
     style="fill:#5d9cec;fill-opacity:1" />
  <path
     d="m23.01 16.002c0-.55.45-1 1-1h33.99c.55 0 1 .45 1 1v6.002c0 .55-.45 1-1 1h-33.99c-.55 0-1-.45-1-1z"
     fill="#48cfad"
     id="path16"
     style="fill:#5d9cec;fill-opacity:1" />
  <path
     d="m23.01 50h18.021v5h-18.021z"
     fill="#fff"
     id="path18"
     style="fill:#656d78;fill-opacity:1" />
  <path
     d="m40.53 15.002h1.001v4.999h-1.001z"
     fill="#37bc9b"
     id="path20"
     style="fill:#e6e9ed;fill-opacity:1" />
  <path
     d="m5 49h18.01v1h-18.01z"
     fill="#37bc9b"
     id="path22"
     style="fill:#e6e9ed;fill-opacity:1" />
  <path
     d="m23.01 49h35.99v1h-35.99z"
     fill="#e6e9ed"
     id="path24" />
  <path
     d="m41.03 44h17.97v5h-17.97z"
     fill="#fff"
     id="path26"
     style="fill:#656d78;fill-opacity:1" />
  <path
     d="m23.01 44h18.021v5h-18.021z"
     fill="#fff"
     id="path28"
     style="fill:#656d78;fill-opacity:1" />
  <path
     d="m5 43h18.01v1h-18.01z"
     fill="#37bc9b"
     id="path30"
     style="fill:#e6e9ed;fill-opacity:1" />
  <path
     d="m23.01 43h35.99v1h-35.99z"
     fill="#e6e9ed"
     id="path32" />
  <path
     d="m41.03 38h17.97v5h-17.97z"
     fill="#fff"
     id="path34"
     style="fill:#656d78;fill-opacity:1" />
  <path
     d="m23.01 38h18.021v5h-18.021z"
     fill="#fff"
     id="path36"
     style="fill:#656d78;fill-opacity:1" />
  <path
     d="m5 37h18.01v1h-18.01z"
     fill="#37bc9b"
     id="path38"
     style="fill:#e6e9ed;fill-opacity:1" />
  <path
     d="m23.01 37h35.99v1h-35.99z"
     fill="#e6e9ed"
     id="path40" />
  <path
     d="m41.03 32h17.97v5h-17.97z"
     fill="#fff"
     id="path42"
     style="fill:#656d78;fill-opacity:1" />
  <path
     d="m23.01 32h18.021v5h-18.021z"
     fill="#fff"
     id="path44"
     style="fill:#656d78;fill-opacity:1" />
  <path
     d="m5 31h18.01v1h-18.01z"
     fill="#37bc9b"
     id="path46"
     style="fill:#e6e9ed;fill-opacity:1" />
  <path
     d="m23.01 31h35.99v1h-35.99z"
     fill="#e6e9ed"
     id="path48" />
  <path
     d="m41.03 26h17.97v5h-17.97z"
     fill="#fff"
     id="path50"
     style="fill:#656d78;fill-opacity:1" />
  <path
     d="m23.01 26h18.021v5h-18.021z"
     fill="#fff"
     id="path52"
     style="fill:#656d78;fill-opacity:1" />
  <path
     d="m5 25h18.01v1h-18.01z"
     fill="#37bc9b"
     id="path54"
     style="fill:#e6e9ed;fill-opacity:1" />
  <path
     d="m23.01 25h35.99v1h-35.99z"
     fill="#e6e9ed"
     id="path56" />
  <path
     d="m41.03 20h17.97v5h-17.97z"
     fill="#fff"
     id="path58"
     style="fill:#656d78;fill-opacity:1" />
  <path
     d="m 22.885,19.965318 h 18.271 v 5.069364 H 22.885 Z"
     id="path60"
     inkscape:connector-curvature="0"
     style="fill:#656d78;stroke-width:1.01387274;fill-opacity:1" />
  <g
     fill="#e6e9ed"
     id="g86">
    <path
       d="m31 23h2c.275 0 .5-.225.5-.5s-.225-.5-.5-.5h-2c-.275 0-.5.225-.5.5s.225.5.5.5z"
       id="path62" />
    <path
       d="m31 29h2c.275 0 .5-.225.5-.5s-.225-.5-.5-.5h-2c-.275 0-.5.225-.5.5s.225.5.5.5z"
       id="path64" />
    <path
       d="m31 35h2c.275 0 .5-.225.5-.5s-.225-.5-.5-.5h-2c-.275 0-.5.225-.5.5s.225.5.5.5z"
       id="path66" />
    <path
       d="m31 41h2c.275 0 .5-.225.5-.5s-.225-.5-.5-.5h-2c-.275 0-.5.225-.5.5s.225.5.5.5z"
       id="path68" />
    <path
       d="m31 47h2c.275 0 .5-.225.5-.5s-.225-.5-.5-.5h-2c-.275 0-.5.225-.5.5s.225.5.5.5z"
       id="path70" />
    <path
       d="m31 53h2c.275 0 .5-.225.5-.5s-.225-.5-.5-.5h-2c-.275 0-.5.225-.5.5s.225.5.5.5z"
       id="path72" />
    <path
       d="m49.016 23h2c.275 0 .5-.225.5-.5s-.225-.5-.5-.5h-2c-.275 0-.5.225-.5.5s.224.5.5.5z"
       id="path74" />
    <path
       d="m49.016 29h2c.275 0 .5-.225.5-.5s-.225-.5-.5-.5h-2c-.275 0-.5.225-.5.5s.224.5.5.5z"
       id="path76" />
    <path
       d="m49.016 35h2c.275 0 .5-.225.5-.5s-.225-.5-.5-.5h-2c-.275 0-.5.225-.5.5s.224.5.5.5z"
       id="path78" />
    <path
       d="m49.016 41h2c.275 0 .5-.225.5-.5s-.225-.5-.5-.5h-2c-.275 0-.5.225-.5.5s.224.5.5.5z"
       id="path80" />
    <path
       d="m49.016 47h2c.275 0 .5-.225.5-.5s-.225-.5-.5-.5h-2c-.275 0-.5.225-.5.5s.224.5.5.5z"
       id="path82" />
    <path
       d="m49.016 53h2c.275 0 .5-.225.5-.5s-.225-.5-.5-.5h-2c-.275 0-.5.225-.5.5s.224.5.5.5z"
       id="path84" />
  </g>
  <path
     d="m10.001 23h7.996c.275 0 .5-.225.5-.5s-.225-.5-.5-.5h-7.996c-.275 0-.5.225-.5.5s.225.5.5.5z"
     fill="#37bc9b"
     id="path88"
     style="fill:#e6e9ed;fill-opacity:1" />
  <path
     d="m10.001 29h7.996c.275 0 .5-.225.5-.5s-.225-.5-.5-.5h-7.996c-.275 0-.5.225-.5.5s.225.5.5.5z"
     fill="#37bc9b"
     id="path90"
     style="fill:#e6e9ed;fill-opacity:1" />
  <path
     d="m28.021 18.001h7.996c.275 0 .5-.225.5-.5s-.225-.5-.5-.5h-7.996c-.275 0-.5.225-.5.5s.225.5.5.5z"
     id="path92"
     fill="#37bc9b"
     style="fill:#e6e9ed;fill-opacity:1" />
  <path
     d="m46.017 18.001h7.996c.275 0 .5-.225.5-.5s-.225-.5-.5-.5h-7.996c-.275 0-.5.225-.5.5s.224.5.5.5z"
     fill="#37bc9b"
     id="path94"
     style="fill:#e6e9ed;fill-opacity:1" />
  <path
     d="m10.001 35h7.996c.275 0 .5-.225.5-.5s-.225-.5-.5-.5h-7.996c-.275 0-.5.225-.5.5s.225.5.5.5z"
     fill="#37bc9b"
     id="path96"
     style="fill:#e6e9ed;fill-opacity:1" />
  <path
     d="m10.001 41h7.996c.275 0 .5-.225.5-.5s-.225-.5-.5-.5h-7.996c-.275 0-.5.225-.5.5s.225.5.5.5z"
     fill="#37bc9b"
     id="path98"
     style="fill:#e6e9ed;fill-opacity:1" />
  <path
     d="m10.001 47h7.996c.275 0 .5-.225.5-.5s-.225-.5-.5-.5h-7.996c-.275 0-.5.225-.5.5s.225.5.5.5z"
     fill="#37bc9b"
     id="path100"
     style="fill:#e6e9ed;fill-opacity:1" />
  <path
     d="m10.001 53h7.996c.275 0 .5-.225.5-.5s-.225-.5-.5-.5h-7.996c-.275 0-.5.225-.5.5s.225.5.5.5z"
     fill="#37bc9b"
     id="path102"
     style="fill:#e6e9ed;fill-opacity:1" />
  <path
     d="m40.53 20.001h1.001v34.999h-1.001z"
     fill="#e6e9ed"
     id="path104" />
  <circle
     cx="58"
     cy="54"
     fill="#fff"
     r="1"
     id="circle106"
     style="fill:#656d78;fill-opacity:1" />
</svg>
