<svg id="icons" enable-background="new 0 0 64 64" height="512" viewBox="0 0 64 64" width="512" xmlns="http://www.w3.org/2000/svg"><path d="m1 58c0 .55.45 1 1 1h60c.55 0 1-.45 1-1v-49h-62z" fill="#e6e9ed"/><path d="m63 7v2h-62v-2c0-1.109.89-2 2-2h58c1.11 0 2 .891 2 2z" fill="#ccd1d9"/><path d="m4.006 5.998h-.01c-.553 0-.995.447-.995 1 0 .552.452 1 1.005 1s1-.448 1-1c0-.553-.447-1-1-1z" fill="#e6e9ed"/><path d="m7.005 5.998h-.01c-.552 0-.995.447-.995 1 0 .552.453 1 1.005 1 .553 0 1-.448 1-1 0-.553-.447-1-1-1z" fill="#e6e9ed"/><path d="m10.008 5.998h-.01c-.553 0-.995.447-.995 1 0 .552.452 1 1.005 1s1-.448 1-1c0-.553-.447-1-1-1z" fill="#e6e9ed"/><path d="m32 13v38.35 3.65h25.999l1.001-1v-40l-1.001-1z" fill="#fff"/><path d="m50.999 49.001c.83 0 1.5.67 1.5 1.5s-.67 1.5-1.5 1.5h-10.999c-.83 0-1.5-.67-1.5-1.5s.67-1.5 1.5-1.5z" fill="#4a89dc"/><path d="m50.999 48c.83 0 1.5.67 1.5 1.5s-.67 1.5-1.5 1.5h-10.999c-.83 0-1.5-.67-1.5-1.5s.67-1.5 1.5-1.5z" fill="#5d9cec"/><path d="m15 25c1.11 0 2-.9 2-2 0-1.111-.89-2-2-2-1.1 0-2 .889-2 2 0 1.1.9 2 2 2zm17-12v38.35l-9-16.35-7.54 13.719-4.43-7.709-6.03 10.5v-37.51l.999-1z" fill="#5d9cec"/><path d="m52.999 19.998c-.256 0-.512-.098-.707-.293-.391-.391-.391-1.023 0-1.414l2-2c.391-.391 1.023-.391 1.414 0s.391 1.023 0 1.414l-2 2c-.195.195-.451.293-.707.293z" fill="#656d78"/><path d="m54.999 19.998c-.256 0-.512-.098-.707-.293l-2-2c-.391-.391-.391-1.023 0-1.414s1.023-.391 1.414 0l2 2c.391.391.391 1.023 0 1.414-.195.195-.451.293-.707.293z" fill="#656d78"/><g fill="#ffce54"><circle cx="15.001" cy="22.999" r="3"/><path d="m15.001 18.999c.553 0 1-.448 1-1v-1c0-.552-.447-1-1-1s-1 .448-1 1v1c0 .552.447 1 1 1z"/><path d="m15.001 26.999c-.553 0-1 .448-1 1v1c0 .552.447 1 1 1s1-.448 1-1v-1c0-.552-.447-1-1-1z"/><path d="m10.758 20.171c.195.195.451.293.707.293s.512-.098.707-.293c.391-.391.391-1.023 0-1.414l-.707-.707c-.391-.391-1.023-.391-1.414 0s-.391 1.023 0 1.414z"/><path d="m19.243 25.828c-.391-.391-1.023-.391-1.414 0s-.391 1.023 0 1.414l.707.707c.195.195.451.293.707.293s.512-.098.707-.293c.391-.391.391-1.023 0-1.414z"/><path d="m10.001 24.001c.552 0 .999-.447 1-.999.001-.553-.446-1-.999-1.001l-1-.001h-.001c-.552 0-.999.447-1 .999s.446 1.001.999 1.001z"/><path d="m21.001 22h-1c-.553 0-1 .447-1 1s.447 1 1 1h1c.553 0 1-.447 1-1s-.447-1-1-1z"/><path d="m10.76 25.828-.708.707c-.391.391-.391 1.023-.001 1.414.195.196.452.294.708.294s.512-.098.707-.292l.708-.707c.391-.391.391-1.023.001-1.414-.391-.392-1.025-.391-1.415-.002z"/><path d="m18.537 20.465c.256 0 .512-.098.707-.293l.707-.707c.391-.391.391-1.023 0-1.414s-1.023-.391-1.414 0l-.707.707c-.391.391-.391 1.023 0 1.414.195.195.451.293.707.293z"/></g><path d="m54.999 22h-18.999c-.553 0-1 .447-1 1v2.998c0 .553.447 1 1 1h18.999c.553 0 1-.447 1-1v-2.998c0-.553-.447-1-1-1z" fill="#e6e9ed"/><path d="m54.999 28.998h-18.999c-.553 0-1 .448-1 1v2.998c0 .553.447 1.001 1 1.001h18.999c.553 0 1-.448 1-1.001v-2.998c0-.552-.447-1-1-1z" fill="#e6e9ed"/><path d="m54.999 35.998h-18.999c-.553 0-1 .447-1 1v8.003c0 .553.447 1 1 1h18.999c.553 0 1-.447 1-1v-8.003c0-.553-.447-1-1-1z" fill="#e6e9ed"/><path d="m54.999 25.998h-18.999c-.553 0-1-.448-1-1v1c0 .553.447 1 1 1h18.999c.553 0 1-.447 1-1v-1c0 .552-.447 1-1 1z" fill="#ccd1d9"/><path d="m54.999 32.996h-18.999c-.553 0-1-.447-1-1v1c0 .553.447 1.001 1 1.001h18.999c.553 0 1-.448 1-1.001v-1c0 .553-.447 1-1 1z" fill="#ccd1d9"/><path d="m54.999 45h-18.999c-.553 0-1-.447-1-1v1.001c0 .553.447 1 1 1h18.999c.553 0 1-.447 1-1v-1.001c0 .553-.447 1-1 1z" fill="#ccd1d9"/><path d="m13.146 55h18.854v-1.574-4.149l-8.12-14.76c-.015-.027-.04-.043-.058-.067-.034-.052-.074-.096-.118-.142-.052-.052-.103-.098-.163-.137-.021-.015-.035-.037-.059-.05-.031-.018-.065-.017-.098-.03-.063-.026-.125-.048-.193-.061-.066-.013-.129-.019-.195-.018-.059 0-.114.005-.172.016-.075.014-.145.037-.215.067-.028.012-.06.012-.088.027-.021.012-.033.032-.053.045-.064.041-.119.091-.174.146-.04.042-.078.083-.11.131-.018.025-.044.042-.06.07l-11.26 20.486z" fill="#656d78"/><path d="m5 53.52v.48l1 1h4.864l4.574-8.32-3.54-6.166c-.012-.021-.032-.032-.045-.052-.034-.052-.078-.094-.123-.14-.05-.051-.099-.1-.157-.139-.018-.012-.027-.029-.046-.04-.036-.021-.075-.021-.112-.037-.064-.027-.127-.052-.195-.065-.066-.013-.13-.015-.196-.014-.06 0-.115.001-.175.013-.076.014-.145.04-.216.071-.032.015-.067.015-.1.033-.017.01-.025.025-.041.036-.063.041-.116.094-.17.149-.041.042-.081.081-.113.129-.014.021-.034.032-.047.054l-5.162 8.991z" fill="#545c66"/><circle cx="6" cy="54" fill="#545c66" r="1"/><circle cx="6" cy="14" fill="#5d9cec" r="1"/><circle cx="58" cy="14" fill="#fff" r="1"/><circle cx="58" cy="54" fill="#fff" r="1"/><path d="m38.5 49.5h13.999v1.001h-13.999z" fill="#4a89dc"/><path d="m50.999 48c.83 0 1.5.67 1.5 1.5s-.67 1.5-1.5 1.5h-10.999c-.83 0-1.5-.67-1.5-1.5s.67-1.5 1.5-1.5z" fill="#5d9cec"/></svg>