<?xml version="1.0" encoding="iso-8859-1"?>
<!-- Generator: Adobe Illustrator 19.0.0, SVG Export Plug-In . SVG Version: 6.00 Build 0)  -->
<svg version="1.1" id="Capa_1" xmlns="http://www.w3.org/2000/svg" xmlns:xlink="http://www.w3.org/1999/xlink" x="0px" y="0px"
	 viewBox="0 0 512 512" style="enable-background:new 0 0 512 512;" xml:space="preserve">
<g>
	<path style="fill:#ffffff;" d="M441.379,61.793l35.78,7.156c4.468,0.505,7.962,4.086,8.358,8.564v48.008
		c-0.396,4.478-3.891,8.059-8.358,8.564l-35.78,7.156V61.793z"/>
	<path style="fill:#F29C1F;" d="M441.379,167.724l35.78,7.156c4.468,0.505,7.962,4.086,8.358,8.564v48.008
		c-0.396,4.478-3.891,8.059-8.358,8.564l-35.78,7.156V167.724z"/>
	<path style="fill:#E64C3C;" d="M441.379,273.655l35.78,7.156c4.468,0.505,7.962,4.086,8.358,8.564v48.008
		c-0.396,4.478-3.891,8.059-8.358,8.564l-35.78,7.156V273.655z"/>
	<path style="fill:#8697CB;" d="M441.379,379.586l35.78,7.156c4.468,0.505,7.962,4.086,8.358,8.564v48.008
		c-0.396,4.478-3.891,8.059-8.358,8.564l-35.78,7.156V379.586z"/>
	<path style="fill:#95A5A5;" d="M70.621,485.517v8.828c0.029,9.739,7.916,17.627,17.655,17.655h344.276
		c9.739-0.029,17.627-7.916,17.655-17.655V17.655C450.178,7.916,442.291,0.029,432.552,0H88.276
		c-9.739,0.029-17.627,7.916-17.655,17.655V485.517z"/>
	<g>
		<path style="fill:#3F5C6C;" d="M48.552,44.138h35.31c12.188,0,22.069,9.881,22.069,22.069l0,0
			c0,12.188-9.881,22.069-22.069,22.069h-35.31c-12.188,0-22.069-9.881-22.069-22.069l0,0
			C26.483,54.019,36.363,44.138,48.552,44.138z"/>
		<path style="fill:#3F5C6C;" d="M48.552,123.586h35.31c12.188,0,22.069,9.881,22.069,22.069l0,0
			c0,12.188-9.881,22.069-22.069,22.069h-35.31c-12.188,0-22.069-9.881-22.069-22.069l0,0
			C26.483,133.467,36.363,123.586,48.552,123.586z"/>
		<path style="fill:#3F5C6C;" d="M48.552,203.034h35.31c12.188,0,22.069,9.881,22.069,22.069l0,0
			c0,12.188-9.881,22.069-22.069,22.069h-35.31c-12.188,0-22.069-9.881-22.069-22.069l0,0
			C26.483,212.915,36.363,203.034,48.552,203.034z"/>
		<path style="fill:#3F5C6C;" d="M48.552,282.483h35.31c12.188,0,22.069,9.881,22.069,22.069l0,0
			c0,12.188-9.881,22.069-22.069,22.069h-35.31c-12.188,0-22.069-9.881-22.069-22.069l0,0
			C26.483,292.363,36.363,282.483,48.552,282.483z"/>
		<path style="fill:#3F5C6C;" d="M48.552,361.931h35.31c12.188,0,22.069,9.881,22.069,22.069l0,0
			c0,12.188-9.881,22.069-22.069,22.069h-35.31c-12.188,0-22.069-9.881-22.069-22.069l0,0
			C26.483,371.812,36.363,361.931,48.552,361.931z"/>
		<path style="fill:#3F5C6C;" d="M48.552,441.379h35.31c12.188,0,22.069,9.881,22.069,22.069l0,0
			c0,12.188-9.881,22.069-22.069,22.069h-35.31c-12.188,0-22.069-9.881-22.069-22.069l0,0
			C26.483,451.26,36.363,441.379,48.552,441.379z"/>
	</g>
	<path style="fill:#E6E7E8;" d="M291.31,349.043V180.524c19.476-13.556,29.465-37.07,25.701-60.499
		c-3.764-23.429-20.615-42.631-43.356-49.405v41.578c0,9.751-7.904,17.655-17.655,17.655c-9.751,0-17.655-7.904-17.655-17.655
		V70.621c-22.742,6.774-39.593,25.976-43.356,49.405s6.226,46.942,25.701,60.499v168.519c-16.368,14.64-22.005,37.863-14.169,58.377
		c7.836,20.515,27.519,34.066,49.479,34.066s41.643-13.551,49.479-34.066C313.315,386.905,307.679,363.683,291.31,349.043z
		 M256,406.069c-9.751,0-17.655-7.905-17.655-17.655s7.904-17.655,17.655-17.655c9.751,0,17.655,7.905,17.655,17.655
		C273.627,398.153,265.739,406.04,256,406.069z"/>
</g>
<g>
</g>
<g>
</g>
<g>
</g>
<g>
</g>
<g>
</g>
<g>
</g>
<g>
</g>
<g>
</g>
<g>
</g>
<g>
</g>
<g>
</g>
<g>
</g>
<g>
</g>
<g>
</g>
<g>
</g>
</svg>
