<?xml version="1.0" encoding="iso-8859-1"?>
<!-- Generator: Adobe Illustrator 19.0.0, SVG Export Plug-In . SVG Version: 6.00 Build 0)  -->
<svg version="1.1" id="Capa_1" xmlns="http://www.w3.org/2000/svg" xmlns:xlink="http://www.w3.org/1999/xlink" x="0px" y="0px"
	 viewBox="0 0 512 512" style="enable-background:new 0 0 512 512;" xml:space="preserve">
<g>
	<path style="fill:#CB8252;" d="M308.966,44.138h70.621c9.739,0.029,17.627,7.916,17.655,17.655v432.552
		c-0.029,9.739-7.916,17.627-17.655,17.655H61.793c-9.739-0.029-17.627-7.916-17.655-17.655V61.793
		c0.029-9.739,7.916-17.627,17.655-17.655H308.966z"/>
	<path style="fill:#CBB292;" d="M361.931,88.276v335.448H185.379c0,29.252-23.713,52.966-52.966,52.966
		s-52.966-23.713-52.966-52.966V88.276c0.014-4.869,3.958-8.813,8.828-8.828h264.828C357.973,79.462,361.917,83.406,361.931,88.276z
		"/>
	<path style="fill:#E4C05C;" d="M308.966,44.138v35.31c-0.014,4.869-3.958,8.813-8.828,8.828H141.241
		c-4.869-0.014-8.813-3.958-8.828-8.828v-35.31c0.014-4.869,3.958-8.813,8.828-8.828h44.138c0-19.501,15.809-35.31,35.31-35.31
		S256,15.809,256,35.31h44.138C305.007,35.324,308.951,39.268,308.966,44.138z"/>
	<path style="fill:#7F6E5D;" d="M467.862,423.724c-0.023,29.243-23.723,52.943-52.966,52.966l-282.483,0
		c6.021,0.016,11.998-1.031,17.655-3.091c21.173-7.432,35.335-27.435,35.31-49.875H467.862z"/>
	<g>
		<path style="fill:#E6E7E8;" d="M123.586,132.414h70.621c4.875,0,8.828,3.952,8.828,8.828v70.621c0,4.875-3.952,8.828-8.828,8.828
			h-70.621c-4.875,0-8.828-3.952-8.828-8.828v-70.621C114.759,136.366,118.711,132.414,123.586,132.414z"/>
		<path style="fill:#E6E7E8;" d="M326.621,185.379h-79.448c-4.875,0-8.828-3.952-8.828-8.828s3.952-8.828,8.828-8.828h79.448
			c4.875,0,8.828,3.952,8.828,8.828S331.496,185.379,326.621,185.379z"/>
		<path style="fill:#E6E7E8;" d="M123.586,256h70.621c4.875,0,8.828,3.952,8.828,8.828v70.621c0,4.875-3.952,8.828-8.828,8.828
			h-70.621c-4.875,0-8.828-3.952-8.828-8.828v-70.621C114.759,259.952,118.711,256,123.586,256z"/>
	</g>
	<g>
		<path style="fill:#4C8056;" d="M161.483,191.62c2.905,2.909,7.434,3.424,10.918,1.241l70.621-44.138
			c4.133-2.583,5.389-8.027,2.806-12.16c-2.583-4.133-8.027-5.389-12.16-2.806L169,174.172l-12.69-12.689
			c-3.456-3.394-9.001-3.369-12.426,0.056c-3.425,3.425-3.45,8.97-0.056,12.426L161.483,191.62z"/>
		<path style="fill:#4C8056;" d="M233.668,257.345L169,297.759l-12.69-12.689c-3.456-3.394-9.001-3.369-12.426,0.056
			s-3.45,8.97-0.056,12.426l17.655,17.655c2.905,2.909,7.434,3.424,10.918,1.241l70.621-44.138c2.673-1.671,4.252-4.641,4.142-7.792
			c-0.11-3.151-1.893-6.003-4.677-7.483C239.703,255.556,236.342,255.674,233.668,257.345L233.668,257.345z"/>
	</g>
	<g>
		<path style="fill:#E6E7E8;" d="M326.621,308.966h-79.448c-4.875,0-8.828-3.952-8.828-8.828s3.952-8.828,8.828-8.828h79.448
			c4.875,0,8.828,3.952,8.828,8.828S331.496,308.966,326.621,308.966z"/>
		<path style="fill:#E6E7E8;" d="M203.034,388.414v35.31h-17.655c0.025,22.44-14.137,42.443-35.31,49.875
			c-21.173-7.432-35.335-27.435-35.31-49.875v-35.31c0.014-4.869,3.958-8.813,8.828-8.828h70.621
			C199.076,379.6,203.02,383.544,203.034,388.414z"/>
	</g>
</g>
<g>
</g>
<g>
</g>
<g>
</g>
<g>
</g>
<g>
</g>
<g>
</g>
<g>
</g>
<g>
</g>
<g>
</g>
<g>
</g>
<g>
</g>
<g>
</g>
<g>
</g>
<g>
</g>
<g>
</g>
</svg>
