<?xml version="1.0" encoding="iso-8859-1"?>
<!-- Generator: Adobe Illustrator 19.0.0, SVG Export Plug-In . SVG Version: 6.00 Build 0)  -->
<svg version="1.1" id="Capa_1" xmlns="http://www.w3.org/2000/svg" xmlns:xlink="http://www.w3.org/1999/xlink" x="0px" y="0px"
	 viewBox="0 0 511.978 511.978" style="enable-background:new 0 0 511.978 511.978;" xml:space="preserve">
<g>
	<path style="fill:#35495E;" d="M151.547,310.466L10.306,451.708c-13.758,13.804-13.739,36.141,0.042,49.922
		s36.118,13.8,49.922,0.042L201.512,360.43L151.547,310.466z"/>
	<circle style="fill:#3F5C6C;" cx="300.116" cy="211.862" r="211.862"/>
	<circle style="fill:#90BAE1;" cx="300.116" cy="211.862" r="176.552"/>
	
		<rect x="72.971" y="381.606" transform="matrix(-0.7071 0.7071 -0.7071 -0.7071 457.1237 644.486)" style="fill:#547580;" width="44.226" height="70.621"/>
	<g>
		<path style="fill:#E57E25;" d="M220.667,273.646c-4.684,0.006-9.176-1.855-12.483-5.172l-44.138-44.138
			c-3.312-3.31-5.172-7.8-5.172-12.483c0-4.682,1.861-9.173,5.172-12.483l44.138-44.138c6.898-6.872,18.057-6.861,24.942,0.024
			c6.885,6.885,6.895,18.044,0.024,24.942l-31.651,31.655l31.651,31.656c5.048,5.049,6.558,12.642,3.825,19.238
			C234.243,269.344,227.807,273.645,220.667,273.646z"/>
		<path style="fill:#E57E25;" d="M379.564,273.646c-7.14-0.001-13.576-4.303-16.308-10.899c-2.732-6.596-1.222-14.189,3.825-19.238
			l31.651-31.656l-31.651-31.655c-6.835-6.904-6.808-18.033,0.062-24.903c6.87-6.87,17.999-6.897,24.903-0.062l44.138,44.138
			c3.312,3.31,5.172,7.8,5.172,12.483s-1.861,9.173-5.172,12.483l-44.138,44.138C388.74,271.791,384.248,273.653,379.564,273.646z"
			/>
		<path style="fill:#E57E25;" d="M291.31,282.483c-5.193,0.004-10.125-2.278-13.483-6.239s-4.804-9.199-3.952-14.321l17.655-105.931
			c1.604-9.617,10.702-16.113,20.319-14.509c9.617,1.604,16.113,10.702,14.509,20.319l-17.655,105.931
			C307.281,276.235,299.93,282.47,291.31,282.483z"/>
	</g>
</g>
<g>
</g>
<g>
</g>
<g>
</g>
<g>
</g>
<g>
</g>
<g>
</g>
<g>
</g>
<g>
</g>
<g>
</g>
<g>
</g>
<g>
</g>
<g>
</g>
<g>
</g>
<g>
</g>
<g>
</g>
</svg>
