<?xml version="1.0" encoding="iso-8859-1"?>
<!-- Generator: Adobe Illustrator 19.0.0, SVG Export Plug-In . SVG Version: 6.00 Build 0)  -->
<svg version="1.1" id="Capa_1" xmlns="http://www.w3.org/2000/svg" xmlns:xlink="http://www.w3.org/1999/xlink" x="0px" y="0px"
	 viewBox="0 0 512 512" style="enable-background:new 0 0 512 512;" xml:space="preserve">
<g>
	<path style="fill:#95A5A5;" d="M510.588,283.012c1.883-17.959,1.883-36.066,0-54.025l-57.821-23.128
		c-4.8-18.782-12.293-36.771-22.246-53.407l24.629-57.379c-5.65-6.974-11.741-13.683-18.097-20.127
		c-6.444-6.356-13.153-12.447-20.127-18.097l-57.379,24.629c-16.636-9.953-34.625-17.445-53.407-22.246L283.012,1.412
		c-17.959-1.883-36.066-1.883-54.025,0l-23.128,57.821c-18.782,4.8-36.771,12.293-53.407,22.246L95.073,56.849
		c-6.974,5.65-13.683,11.741-20.127,18.097C68.59,81.39,62.499,88.099,56.85,95.073l24.629,57.379
		c-9.953,16.636-17.446,34.625-22.246,53.407L1.412,228.987c-1.883,17.959-1.883,36.066,0,54.025l57.821,23.128
		c4.8,18.782,12.293,36.771,22.246,53.407L56.85,416.927c5.65,6.974,11.741,13.683,18.097,20.127
		c6.444,6.356,13.153,12.447,20.127,18.097l57.379-24.629c16.636,9.953,34.625,17.446,53.407,22.246l23.128,57.821
		c17.959,1.884,36.066,1.884,54.025,0l23.128-57.821c18.782-4.8,36.771-12.292,53.407-22.246l57.379,24.629
		c6.974-5.65,13.683-11.741,20.127-18.097c6.356-6.444,12.447-13.154,18.097-20.127l-24.629-57.379
		c9.953-16.636,17.446-34.625,22.246-53.407L510.588,283.012z M256,414.896c-87.756,0-158.897-71.14-158.897-158.897
		S168.244,97.103,256,97.103S414.897,168.244,414.897,256C414.89,343.753,343.753,414.889,256,414.896z"/>
	<g>
		<path style="fill:#E57E25;" d="M209.276,205.621c-1.655-1.656-3.9-2.586-6.241-2.586c-2.341,0-4.586,0.93-6.241,2.586
			l-44.138,44.138c-1.656,1.655-2.586,3.9-2.586,6.241c0,2.341,0.93,4.586,2.586,6.241l44.138,44.138
			c3.447,3.447,9.036,3.447,12.483,0c3.447-3.447,3.447-9.036,0-12.483L171.379,256l37.897-37.897
			c1.656-1.655,2.586-3.9,2.586-6.241C211.862,209.521,210.931,207.276,209.276,205.621z"/>
		<path style="fill:#E57E25;" d="M359.345,249.759l-44.138-44.138c-3.456-3.394-9.001-3.369-12.426,0.056
			c-3.425,3.425-3.45,8.97-0.056,12.426L340.621,256l-37.897,37.897c-2.253,2.225-3.142,5.487-2.328,8.547
			c0.813,3.06,3.204,5.451,6.264,6.264c3.061,0.813,6.322-0.076,8.547-2.329l44.138-44.138c1.656-1.655,2.586-3.9,2.586-6.241
			C361.931,253.659,361,251.414,359.345,249.759z"/>
		<path style="fill:#E57E25;" d="M276.082,185.715c-4.688-1.319-9.561,1.391-10.914,6.069l-35.31,123.586
			c-1.337,4.687,1.375,9.571,6.06,10.914c0.792,0.221,1.609,0.334,2.431,0.336c3.94-0.003,7.401-2.617,8.483-6.405l35.31-123.586
			C283.479,191.942,280.767,187.058,276.082,185.715z"/>
	</g>
</g>
<g>
</g>
<g>
</g>
<g>
</g>
<g>
</g>
<g>
</g>
<g>
</g>
<g>
</g>
<g>
</g>
<g>
</g>
<g>
</g>
<g>
</g>
<g>
</g>
<g>
</g>
<g>
</g>
<g>
</g>
</svg>
