<?xml version="1.0" encoding="iso-8859-1"?>
<!-- Generator: Adobe Illustrator 19.0.0, SVG Export Plug-In . SVG Version: 6.00 Build 0)  -->
<svg version="1.1" id="Capa_1" xmlns="http://www.w3.org/2000/svg" xmlns:xlink="http://www.w3.org/1999/xlink" x="0px" y="0px"
	 viewBox="0 0 512.008 512.008" style="enable-background:new 0 0 512.008 512.008;" xml:space="preserve">
<g transform="translate(0 -2)">
	<path style="fill:#E57E25;" d="M504.251,9.762c10.342,10.342,10.342,27.11,0,37.452l-79.449,79.449L387.35,89.21l79.449-79.449
		C477.141-0.581,493.909-0.581,504.251,9.762z"/>
	<path style="fill:#CBB292;" d="M437.322,117.647c2.687,2.687,3.353,6.792,1.653,10.19l-2.363,4.726
		c-13.087,26.141-21.88,54.219-26.041,83.156c-4.767,4.767-14.301,3.796-26.306-1.589c-5.487-2.53-10.77-5.482-15.801-8.828
		c-9.377-6.173-18.181-13.175-26.306-20.921c-2.207-1.854-4.326-3.972-6.444-6.091c-2.119-2.119-4.237-4.237-6.09-6.444
		c-7.746-8.126-14.748-16.93-20.922-26.306c-3.346-5.032-6.297-10.315-8.828-15.801c-5.385-12.006-6.356-21.539-1.588-26.306
		c28.936-4.162,57.014-12.955,83.155-26.041l4.726-2.363c3.398-1.699,7.503-1.033,10.189,1.654L437.322,117.647z"/>
	<path style="fill:#8697CB;" d="M176.552,160.899C79.045,160.899,0,239.944,0,337.451s79.045,176.552,176.552,176.552
		s176.552-79.045,176.552-176.552c0.013-46.828-18.584-91.743-51.697-124.855S223.38,160.887,176.552,160.899z M176.552,355.106
		c-9.751,0-17.655-7.905-17.655-17.655s7.904-17.655,17.655-17.655s17.655,7.905,17.655,17.655
		C194.178,347.19,186.291,355.078,176.552,355.106z"/>
	<g>
		<path style="fill:#B0D3F0;" d="M59.819,266.83c-3.271-0.003-6.272-1.814-7.799-4.707c-1.527-2.893-1.329-6.392,0.514-9.095
			c27.946-41.037,74.368-65.61,124.017-65.647c4.875,0,8.828,3.952,8.828,8.828s-3.952,8.828-8.828,8.828
			c-43.812,0.036-84.775,21.724-109.431,57.94C65.475,265.391,62.741,266.834,59.819,266.83z"/>
		<path style="fill:#B0D3F0;" d="M39.785,310.968c-0.753,0.003-1.504-0.093-2.233-0.285c-4.718-1.229-7.547-6.049-6.319-10.767
			c0.819-3.164,1.736-6.285,2.75-9.362c0.986-2.997,3.495-5.24,6.583-5.885c3.088-0.645,6.285,0.407,8.388,2.759
			c2.102,2.352,2.79,5.647,1.805,8.643c-0.905,2.733-1.707,5.491-2.44,8.293C47.308,308.252,43.801,310.966,39.785,310.968z"/>
		<path style="fill:#B0D3F0;" d="M176.552,487.52c-4.875,0-8.828-3.952-8.828-8.828c0-4.875,3.952-8.828,8.828-8.828
			c43.812-0.036,84.775-21.724,109.431-57.94c2.747-4.028,8.24-5.066,12.267-2.319c4.028,2.747,5.066,8.24,2.319,12.267
			C272.623,462.911,226.201,487.484,176.552,487.52z"/>
		<path style="fill:#B0D3F0;" d="M310.733,390.417c-2.833,0.003-5.494-1.355-7.155-3.649c-1.661-2.294-2.12-5.247-1.233-7.937
			c0.905-2.733,1.707-5.491,2.44-8.293c0.795-3.052,3.157-5.449,6.198-6.286c3.041-0.838,6.297,0.01,8.543,2.224
			c2.246,2.214,3.14,5.458,2.345,8.511c-0.819,3.164-1.736,6.285-2.75,9.362C317.926,387.968,314.545,390.415,310.733,390.417z"/>
	</g>
	<path style="fill:#556080;" d="M176.552,284.486c-29.252,0-52.966,23.713-52.966,52.966s23.713,52.966,52.966,52.966
		s52.966-23.713,52.966-52.966C229.494,308.209,205.794,284.509,176.552,284.486z M176.552,355.106
		c-9.751,0-17.655-7.905-17.655-17.655s7.904-17.655,17.655-17.655s17.655,7.905,17.655,17.655
		C194.178,347.19,186.291,355.078,176.552,355.106z"/>
	<g>
		<polygon style="fill:#ffffff;" points="176.552,160.899 160.945,132.369 132.414,116.762 160.945,101.154 176.552,72.624 
			192.159,101.154 220.69,116.762 192.159,132.369 		"/>
		<polygon style="fill:#ffffff;" points="397.241,381.589 381.634,353.058 353.103,337.451 381.634,321.844 397.241,293.313 
			412.849,321.844 441.379,337.451 412.849,353.058 		"/>
		<polygon style="fill:#ffffff;" points="264.828,302.141 252.345,279.313 229.517,266.83 252.345,254.348 264.828,231.52 
			277.31,254.348 300.138,266.83 277.31,279.313 		"/>
	</g>
	<g>
		<path style="fill:#7F6E5D;" d="M338.891,136.977c-9.872,3.489-19.956,6.349-30.19,8.563c-3.346-5.032-6.297-10.315-8.828-15.801
			c0.71-0.422,1.486-0.721,2.295-0.883c10.516-2.125,20.87-4.986,30.985-8.563c2.986-1.045,6.302-0.412,8.693,1.66
			s3.489,5.265,2.878,8.369C344.114,133.425,341.888,135.964,338.891,136.977z"/>
		<path style="fill:#7F6E5D;" d="M393.71,180.85c-3.577,10.115-6.438,20.469-8.563,30.985c-0.162,0.81-0.46,1.586-0.883,2.295
			c-5.487-2.53-10.77-5.482-15.801-8.828c2.214-10.234,5.074-20.318,8.563-30.19c1.012-2.997,3.552-5.223,6.656-5.833
			c3.104-0.61,6.297,0.488,8.369,2.878C394.122,174.547,394.756,177.864,393.71,180.85z"/>
		<path style="fill:#7F6E5D;" d="M366.875,159.575l-24.717,24.806c-2.207-1.854-4.326-3.972-6.444-6.091
			c-2.119-2.119-4.237-4.237-6.091-6.444l24.805-24.717c2.223-2.223,5.464-3.092,8.501-2.278c3.037,0.814,5.41,3.186,6.223,6.223
			C369.966,154.111,369.098,157.352,366.875,159.575L366.875,159.575z"/>
	</g>
</g>
<g>
</g>
<g>
</g>
<g>
</g>
<g>
</g>
<g>
</g>
<g>
</g>
<g>
</g>
<g>
</g>
<g>
</g>
<g>
</g>
<g>
</g>
<g>
</g>
<g>
</g>
<g>
</g>
<g>
</g>
</svg>
