<?xml version="1.0" encoding="iso-8859-1"?>
<!-- Generator: Adobe Illustrator 19.0.0, SVG Export Plug-In . SVG Version: 6.00 Build 0)  -->
<svg version="1.1" id="Capa_1" xmlns="http://www.w3.org/2000/svg" xmlns:xlink="http://www.w3.org/1999/xlink" x="0px" y="0px"
	 viewBox="0 0 512.003 512.003" style="enable-background:new 0 0 512.003 512.003;" xml:space="preserve">
<g>
	<rect x="185.381" y="423.727" style="fill:#95A5A5;" width="141.241" height="70.621"/>
	<path style="fill:#3F5C6C;" d="M169.491,35.313H35.312c-19.078-0.391-34.873,14.733-35.31,33.81v338.45
		c0.437,19.077,16.232,34.201,35.31,33.81h441.379c19.078,0.391,34.873-14.733,35.31-33.81V69.123
		c-0.437-19.077-16.232-34.201-35.31-33.81H169.491z"/>
	<path style="fill:#BDC3C7;" d="M141.243,476.692H370.76c14.626,0,26.483,11.857,26.483,26.483v8.828H114.76v-8.828
		C114.76,488.549,126.617,476.692,141.243,476.692z"/>
	<g>
		<path style="fill:#D75E72;" d="M256.001,282.486c-9.751,0-17.655-7.905-17.655-17.655v-19.328
			c0.05-17.524,13.07-32.301,30.448-34.556c44.7-6.463,77.272-45.684,75.414-90.81c-2.44-45.759-38.991-82.314-84.75-84.759
			c-23.994-0.939-47.335,7.936-64.643,24.579s-27.09,39.62-27.09,63.632c0,9.751-7.904,17.655-17.655,17.655
			s-17.655-7.904-17.655-17.655c0-33.61,13.689-65.771,37.913-89.071s56.891-35.73,90.476-34.425
			c63.814,2.483,115.229,53.173,118.618,116.946c3.388,63.773-42.366,119.626-105.558,128.856l-0.207,18.935
			C273.656,274.581,265.752,282.485,256.001,282.486z"/>
		<circle style="fill:#D75E72;" cx="256.001" cy="335.451" r="17.655"/>
	</g>
	<path style="fill:#BDC3C7;" d="M512.001,388.417v19.156c-0.437,19.077-16.232,34.201-35.31,33.81H35.312
		c-19.078,0.391-34.873-14.733-35.31-33.81v-19.156H512.001z"/>
</g>
<g>
</g>
<g>
</g>
<g>
</g>
<g>
</g>
<g>
</g>
<g>
</g>
<g>
</g>
<g>
</g>
<g>
</g>
<g>
</g>
<g>
</g>
<g>
</g>
<g>
</g>
<g>
</g>
<g>
</g>
</svg>
