<?xml version="1.0" encoding="iso-8859-1"?>
<!-- Generator: Adobe Illustrator 19.0.0, SVG Export Plug-In . SVG Version: 6.00 Build 0)  -->
<svg version="1.1" id="Capa_1" xmlns="http://www.w3.org/2000/svg" xmlns:xlink="http://www.w3.org/1999/xlink" x="0px" y="0px"
	 viewBox="0 0 512.001 512.001" style="enable-background:new 0 0 512.001 512.001;" xml:space="preserve">
<g>
	<path style="fill:#95A5A5;" d="M204.977,131.884c-6.359-4.855-15.18-4.855-21.539,0L0.001,273.655v211.862
		c-0.053,7.532,3.168,14.715,8.828,19.685c4.832,4.387,11.129,6.812,17.655,6.797h335.448c14.604-0.054,26.429-11.879,26.483-26.483
		V273.655L204.977,131.884z"/>
	<path style="fill:#7F8C8D;" d="M388.414,273.655L234.197,392.828l-29.219,22.599c-6.359,4.855-15.18,4.855-21.539,0l-29.22-22.599
		L0.001,273.655l183.437-141.771c6.359-4.855,15.18-4.855,21.539,0L388.414,273.655z"/>
	<path style="fill:#BDC3C7;" d="M379.587,505.203c-4.832,4.387-11.129,6.812-17.655,6.797H26.483
		c-6.527,0.014-12.823-2.41-17.655-6.797l145.39-112.375l29.219-22.599c6.359-4.855,15.18-4.855,21.539,0l29.22,22.599
		L379.587,505.203z"/>
	<path style="fill:#ffffff;" d="M512.001,17.655v176.552c0,9.751-7.905,17.655-17.655,17.655H476.69l-52.966,52.966v-52.966h-52.966
		c-9.751,0-17.655-7.904-17.655-17.655V17.655C353.104,7.905,361.009,0,370.759,0h123.586C504.096,0,512.001,7.905,512.001,17.655z"
		/>
	<g>
		<path style="fill:#E6E7E8;" d="M432.552,105.931c9.75,0,17.655-7.905,17.655-17.655v-35.31c0-9.751-7.905-17.655-17.655-17.655
			s-17.655,7.904-17.655,17.655v35.31C414.898,98.027,422.802,105.931,432.552,105.931z"/>
		<circle style="fill:#E6E7E8;" cx="432.552" cy="158.897" r="17.655"/>
	</g>
</g>
<g>
</g>
<g>
</g>
<g>
</g>
<g>
</g>
<g>
</g>
<g>
</g>
<g>
</g>
<g>
</g>
<g>
</g>
<g>
</g>
<g>
</g>
<g>
</g>
<g>
</g>
<g>
</g>
<g>
</g>
</svg>
