<?xml version="1.0" encoding="iso-8859-1"?>
<!-- Generator: Adobe Illustrator 19.0.0, SVG Export Plug-In . SVG Version: 6.00 Build 0)  -->
<svg version="1.1" id="Capa_1" xmlns="http://www.w3.org/2000/svg" xmlns:xlink="http://www.w3.org/1999/xlink" x="0px" y="0px"
	 viewBox="0 0 512 512" style="enable-background:new 0 0 512 512;" xml:space="preserve">
<g>
	<path style="fill:#B19046;" d="M97.103,123.586h-35.31c-9.366-0.003-18.348,3.717-24.971,10.339
		c-6.623,6.623-10.342,15.605-10.339,24.971l0,105.931h459.034l0-61.793c0.009-7.027-2.778-13.768-7.746-18.737
		c-4.969-4.969-11.71-7.756-18.736-7.746h-44.138L97.103,123.586z"/>
	<path style="fill:#E4C05C;" d="M463.74,512H48.26c-8.849,0-16.331-6.551-17.5-15.322L0.158,267.161
		c-0.673-5.045,0.864-10.134,4.217-13.963s8.194-6.025,13.283-6.025h476.684c5.089,0,9.931,2.196,13.283,6.025
		c3.352,3.829,4.889,8.919,4.217,13.963L481.24,496.678C480.07,505.449,472.588,512,463.74,512z"/>
	<path style="fill:#D1D4D1;" d="M106.467,0h299.067c5.171,0,9.363,4.192,9.363,9.363v237.809H97.103V9.363
		C97.103,4.192,101.295,0,106.467,0z"/>
	<path style="fill:#35495E;" d="M282.483,392.563l-132.51,81.832c-2.658,1.527-5.674,2.32-8.739,2.295
		c-8.019,0.008-15.037-5.389-17.089-13.141c-2.052-7.752,1.377-15.914,8.349-19.874l132.422-81.743L282.483,392.563z"/>
	<g>
		<path style="fill:#ffffff;" d="M256,35.311c14.626,0,26.483,11.857,26.483,26.483v17.655h-52.966V61.794
			C229.517,47.168,241.374,35.311,256,35.311z"/>
		<path style="fill:#ffffff;" d="M335.448,132.414H291.31c-4.875,0-8.828-3.952-8.828-8.828c0-4.875,3.952-8.828,8.828-8.828h44.138
			c4.875,0,8.828,3.952,8.828,8.828C344.276,128.462,340.324,132.414,335.448,132.414z"/>
		<path style="fill:#ffffff;" d="M220.69,132.414h-44.138c-4.875,0-8.828-3.952-8.828-8.828c0-4.875,3.952-8.828,8.828-8.828h44.138
			c4.875,0,8.828,3.952,8.828,8.828C229.517,128.462,225.565,132.414,220.69,132.414z"/>
		<path style="fill:#ffffff;" d="M220.699,97.103c-0.725,0-1.448-0.09-2.151-0.267l-28.625-7.155
			c-7.863-1.954-13.381-9.018-13.371-17.121V35.31c0-4.875,3.952-8.828,8.828-8.828c4.875,0,8.828,3.952,8.828,8.828v37.25
			l28.625,7.155c4.323,1.081,7.162,5.214,6.619,9.637C228.908,93.775,225.154,97.1,220.699,97.103z"/>
		<path style="fill:#ffffff;" d="M291.302,97.103c-4.456-0.004-8.21-3.328-8.753-7.751c-0.543-4.423,2.296-8.556,6.619-9.637
			l28.625-7.155V35.31c0-4.875,3.952-8.828,8.828-8.828s8.828,3.952,8.828,8.828v37.25c0.01,8.102-5.507,15.167-13.371,17.121
			l-28.625,7.155C292.749,97.014,292.027,97.103,291.302,97.103z"/>
		<path style="fill:#ffffff;" d="M317.793,220.69c-2.341,0.001-4.587-0.929-6.243-2.585c-1.656-1.656-2.585-3.901-2.585-6.243
			v-37.776l-20.448-6.819c-2.998-0.992-5.237-3.511-5.871-6.604c-0.635-3.093,0.432-6.29,2.797-8.382
			c2.365-2.092,5.668-2.762,8.661-1.755l20.448,6.819c7.213,2.393,12.078,9.142,12.069,16.741v37.776
			c0.001,2.341-0.929,4.587-2.585,6.243C322.38,219.76,320.134,220.69,317.793,220.69z"/>
		<path style="fill:#ffffff;" d="M194.207,220.69c-2.341,0.001-4.587-0.929-6.243-2.585c-1.656-1.656-2.585-3.901-2.585-6.243
			v-37.776c-0.007-7.603,4.861-14.355,12.078-16.75l20.44-6.81c2.993-1.007,6.296-0.337,8.661,1.755
			c2.365,2.092,3.432,5.289,2.797,8.382c-0.635,3.093-2.874,5.612-5.871,6.604l-20.448,6.819v37.776
			c0.001,2.341-0.929,4.587-2.585,6.243C198.794,219.76,196.548,220.69,194.207,220.69z"/>
	</g>
	<path style="fill:#527F72;" d="M220.69,79.449h70.621v70.621c0,19.501-15.809,35.31-35.31,35.31s-35.31-15.809-35.31-35.31V79.449z
		"/>
	<circle style="fill:#90BAE1;" cx="317.793" cy="353.103" r="70.621"/>
	<path style="fill:#B0D3F0;" d="M283.026,355.802c-0.517,0.001-1.034-0.046-1.543-0.138c-2.305-0.406-4.355-1.712-5.698-3.629
		c-1.343-1.917-1.868-4.29-1.462-6.595c4.24-24.002,27.129-40.028,51.134-35.802c3.105,0.547,5.682,2.708,6.76,5.67
		c1.079,2.962,0.496,6.274-1.53,8.69c-2.026,2.415-5.186,3.566-8.291,3.02c-14.399-2.499-28.112,7.105-30.685,21.491
		C290.967,352.724,287.306,355.798,283.026,355.802z"/>
</g>
<g>
</g>
<g>
</g>
<g>
</g>
<g>
</g>
<g>
</g>
<g>
</g>
<g>
</g>
<g>
</g>
<g>
</g>
<g>
</g>
<g>
</g>
<g>
</g>
<g>
</g>
<g>
</g>
<g>
</g>
</svg>
