<?xml version="1.0" encoding="iso-8859-1"?>
<!-- Generator: Adobe Illustrator 19.0.0, SVG Export Plug-In . SVG Version: 6.00 Build 0)  -->
<svg version="1.1" id="Capa_1" xmlns="http://www.w3.org/2000/svg" xmlns:xlink="http://www.w3.org/1999/xlink" x="0px" y="0px"
	 viewBox="0 0 512 512" style="enable-background:new 0 0 512 512;" xml:space="preserve">
<g>
	<path style="fill:#B19046;" d="M97.103,123.586h-35.31c-9.366-0.003-18.348,3.717-24.971,10.339
		c-6.623,6.623-10.342,15.605-10.339,24.971l0,105.931h459.034l0-61.793c0.009-7.027-2.778-13.768-7.746-18.737
		c-4.969-4.969-11.71-7.756-18.736-7.746h-44.138L97.103,123.586z"/>
	<path style="fill:#E4C05C;" d="M463.74,512H48.26c-8.849,0-16.331-6.551-17.5-15.322L0.158,267.161
		c-0.673-5.045,0.864-10.134,4.217-13.963s8.194-6.025,13.283-6.025h476.684c5.089,0,9.931,2.196,13.283,6.025
		c3.352,3.829,4.889,8.919,4.217,13.963L481.24,496.678C480.07,505.449,472.588,512,463.74,512z"/>
	<path style="fill:#D1D4D1;" d="M106.467,0h299.067c5.171,0,9.363,4.192,9.363,9.363v237.809H97.103V9.363
		C97.103,4.192,101.295,0,106.467,0z"/>
	<g>
		<path style="fill:#FFFFFF;" d="M194.207,52.966c-24.365,0.029-44.109,19.773-44.138,44.138c0,4.875,3.952,8.828,8.828,8.828
			s8.828-3.952,8.828-8.828c0-14.626,11.857-26.483,26.483-26.483s26.483,11.857,26.483,26.483s-11.857,26.483-26.483,26.483
			c-2.342-0.001-4.588,0.928-6.244,2.584c-1.656,1.656-2.585,3.902-2.584,6.244v26.483c0,4.875,3.952,8.828,8.828,8.828
			s8.828-3.952,8.828-8.828v-18.543c22.201-4.533,37.364-25.14,35.087-47.684S216.866,52.967,194.207,52.966z"/>
		<path style="fill:#FFFFFF;" d="M200.474,187.939c-0.421-0.379-0.864-0.734-1.328-1.06c-0.49-0.336-1.024-0.602-1.586-0.793
			c-0.528-0.268-1.095-0.448-1.681-0.535c-2.875-0.489-5.812,0.395-7.94,2.388c-0.78,0.858-1.407,1.844-1.854,2.914
			c-1.409,3.284-0.675,7.096,1.854,9.621c0.858,0.78,1.844,1.407,2.914,1.854c2.136,0.943,4.571,0.943,6.707,0
			c1.069-0.449,2.054-1.075,2.914-1.854c2.528-2.525,3.263-6.337,1.854-9.621C201.881,189.783,201.255,188.798,200.474,187.939z"/>
		<path style="fill:#FFFFFF;" d="M317.793,52.966c-24.365,0.029-44.109,19.773-44.138,44.138c0,4.875,3.952,8.828,8.828,8.828
			s8.828-3.952,8.828-8.828c0-14.626,11.857-26.483,26.483-26.483s26.483,11.857,26.483,26.483s-11.857,26.483-26.483,26.483
			c-2.342-0.001-4.588,0.928-6.244,2.584c-1.656,1.656-2.585,3.902-2.584,6.244v26.483c0,4.875,3.952,8.828,8.828,8.828
			s8.828-3.952,8.828-8.828v-18.543c22.201-4.533,37.364-25.14,35.087-47.684S340.452,52.967,317.793,52.966z"/>
		<path style="fill:#FFFFFF;" d="M324.061,187.939c-0.421-0.379-0.864-0.734-1.328-1.06c-0.49-0.336-1.024-0.602-1.586-0.793
			c-0.528-0.268-1.095-0.448-1.681-0.535c-2.875-0.489-5.812,0.395-7.94,2.388c-0.78,0.858-1.407,1.844-1.854,2.914
			c-1.409,3.284-0.675,7.096,1.854,9.621c0.858,0.78,1.844,1.407,2.914,1.854c2.136,0.943,4.571,0.943,6.707,0
			c1.069-0.449,2.054-1.075,2.914-1.854c2.528-2.525,3.263-6.337,1.854-9.621C325.468,189.783,324.841,188.798,324.061,187.939z"/>
	</g>
</g>
<g>
</g>
<g>
</g>
<g>
</g>
<g>
</g>
<g>
</g>
<g>
</g>
<g>
</g>
<g>
</g>
<g>
</g>
<g>
</g>
<g>
</g>
<g>
</g>
<g>
</g>
<g>
</g>
<g>
</g>
</svg>
