<?xml version="1.0" encoding="iso-8859-1"?>
<!-- Generator: Adobe Illustrator 19.0.0, SVG Export Plug-In . SVG Version: 6.00 Build 0)  -->
<svg version="1.1" id="Capa_1" xmlns="http://www.w3.org/2000/svg" xmlns:xlink="http://www.w3.org/1999/xlink" x="0px" y="0px"
	 viewBox="0 0 512.015 512.015" style="enable-background:new 0 0 512.015 512.015;" xml:space="preserve">
<g transform="translate(0 -1)">
	<path style="fill:#AF8066;" d="M502.468,417.677l-136.651,87.57c-7.951,5.034-17.16,7.726-26.571,7.768H147.511
		c-46.61,0-59.233-23.923-59.233-23.923v-2.56H61.795V380.601h26.483v0.618c23.57-35.928,82.361-35.928,82.361-35.928h4.502
		c15.209,0.042,29.921,5.415,41.578,15.183c11.58,9.863,26.279,15.305,41.49,15.36h38.135c13.002,0.072,24.966,7.115,31.338,18.45
		l0.618,1.059c6.088,10.658,4.703,24.01-3.443,33.192h16.684c3.124,0.033,6.23-0.474,9.181-1.501l134.885-47.404
		c2.105-0.709,4.312-1.067,6.532-1.059c6.339,0.069,12.256,3.192,15.89,8.386c3.369,4.801,4.677,10.75,3.632,16.521
		C510.617,409.249,507.306,414.362,502.468,417.677z"/>
	<path style="fill:#4482C3;" d="M512.002,151.084c0.003,39.802-15.806,77.975-43.95,106.119s-66.317,43.954-106.119,43.95
		c-15.552,0.029-31.012-2.383-45.815-7.15l-42.461,33.633v-55.261c-57.269-41.683-77.587-117.738-48.737-182.429
		s99.01-100.394,168.289-85.64S512.013,80.252,512.002,151.084z"/>
	<path style="fill:#7D6599;" d="M8.83,362.946H79.45c4.875,0,8.828,3.952,8.828,8.828V495.36c0,4.875-3.952,8.828-8.828,8.828H8.83
		c-4.875,0-8.828-3.952-8.828-8.828V371.773C0.002,366.898,3.954,362.946,8.83,362.946z"/>
	<path style="fill:#3D324C;" d="M35.312,468.877c-4.007,0-7.513-2.693-8.547-6.563c-1.035-3.871,0.661-7.953,4.132-9.953
		c3.472-1.999,7.854-1.416,10.683,1.421c1.611,1.693,2.525,3.931,2.56,6.268c-0.014,1.153-0.254,2.293-0.707,3.353
		c-0.448,1.07-1.075,2.055-1.854,2.914C39.886,467.926,37.649,468.84,35.312,468.877z"/>
	<path style="fill:#7F5B53;" d="M220.7,452.717c-3.852,0.004-7.262-2.491-8.424-6.164c-1.162-3.673,0.193-7.675,3.347-9.888
		l5.293-3.715c12.126-8.561,26.596-13.179,41.44-13.224h48.147c4.875,0,8.828,3.952,8.828,8.828c0,4.875-3.952,8.828-8.828,8.828
		h-48.147c-11.226,0.05-22.164,3.555-31.328,10.039l-5.267,3.694C224.28,452.158,222.512,452.717,220.7,452.717z"/>
	<g>
		<circle style="fill:#E6E7E8;" cx="361.933" cy="71.636" r="17.655"/>
		<polygon style="fill:#E6E7E8;" points="344.278,159.911 344.278,212.877 326.623,212.877 326.623,248.187 397.243,248.187 
			397.243,212.877 379.588,212.877 379.588,124.601 326.623,124.601 326.623,159.911 		"/>
	</g>
</g>
<g>
</g>
<g>
</g>
<g>
</g>
<g>
</g>
<g>
</g>
<g>
</g>
<g>
</g>
<g>
</g>
<g>
</g>
<g>
</g>
<g>
</g>
<g>
</g>
<g>
</g>
<g>
</g>
<g>
</g>
</svg>
