<?xml version="1.0" encoding="iso-8859-1"?>
<!-- Generator: Adobe Illustrator 19.0.0, SVG Export Plug-In . SVG Version: 6.00 Build 0)  -->
<svg version="1.1" id="Capa_1" xmlns="http://www.w3.org/2000/svg" xmlns:xlink="http://www.w3.org/1999/xlink" x="0px" y="0px"
	 viewBox="0 0 512.003 512.003" style="enable-background:new 0 0 512.003 512.003;" xml:space="preserve">
<g>
	<path style="fill:#3F5C6C;" d="M379.588,123.589h52.966c9.739,0.029,17.627,7.916,17.655,17.655v273.655H61.794V141.244
		c0.029-9.739,7.916-17.627,17.655-17.655H379.588z"/>
	<polygon style="fill:#BDC3C7;" points="61.794,397.244 0.001,476.692 0.001,494.348 512.001,494.348 512.001,476.692 
		450.208,397.244 	"/>
	<path style="fill:#95A5A5;" d="M0.001,476.692h512v17.655c0,9.751-7.905,17.655-17.655,17.655H17.657
		c-9.751,0-17.655-7.905-17.655-17.655V476.692z"/>
	<g>
		<path style="fill:#7F8C8D;" d="M397.243,432.555H114.76c-4.875,0-8.828,3.952-8.828,8.828s3.952,8.828,8.828,8.828h282.483
			c4.875,0,8.828-3.952,8.828-8.828S402.118,432.555,397.243,432.555z"/>
		<path style="fill:#7F8C8D;" d="M79.45,432.555h-8.828c-4.875,0-8.828,3.952-8.828,8.828s3.952,8.828,8.828,8.828h8.828
			c4.875,0,8.828-3.952,8.828-8.828S84.325,432.555,79.45,432.555z"/>
		<path style="fill:#7F8C8D;" d="M441.381,432.555h-8.828c-4.875,0-8.828,3.952-8.828,8.828s3.952,8.828,8.828,8.828h8.828
			c4.875,0,8.828-3.952,8.828-8.828S446.256,432.555,441.381,432.555z"/>
	</g>
	<g>
		<path style="fill:#D75E72;" d="M256.001,282.486c-9.751,0-17.655-7.905-17.655-17.655v-19.328
			c0.05-17.524,13.07-32.301,30.448-34.556c44.7-6.462,77.272-45.684,75.414-90.81c-2.44-45.759-38.991-82.314-84.75-84.759
			c-23.994-0.939-47.335,7.936-64.643,24.579s-27.09,39.62-27.09,63.632c0,9.751-7.904,17.655-17.655,17.655
			s-17.655-7.904-17.655-17.655c0-33.61,13.689-65.771,37.913-89.071s56.891-35.73,90.476-34.425
			c63.814,2.483,115.229,53.173,118.618,116.946c3.388,63.773-42.366,119.626-105.558,128.856l-0.207,18.935
			C273.656,274.581,265.752,282.485,256.001,282.486z"/>
		<circle style="fill:#D75E72;" cx="256.001" cy="335.451" r="17.655"/>
	</g>
</g>
<g>
</g>
<g>
</g>
<g>
</g>
<g>
</g>
<g>
</g>
<g>
</g>
<g>
</g>
<g>
</g>
<g>
</g>
<g>
</g>
<g>
</g>
<g>
</g>
<g>
</g>
<g>
</g>
<g>
</g>
</svg>
