<?xml version="1.0" encoding="iso-8859-1"?>
<!-- Generator: Adobe Illustrator 19.0.0, SVG Export Plug-In . SVG Version: 6.00 Build 0)  -->
<svg version="1.1" id="Capa_1" xmlns="http://www.w3.org/2000/svg" xmlns:xlink="http://www.w3.org/1999/xlink" x="0px" y="0px"
	 viewBox="0 0 512 512" style="enable-background:new 0 0 512 512;" xml:space="preserve">
<g>
	<path style="fill:#4C8056;" d="M388.414,273.655H264.828v-97.103c0-4.875-3.952-8.828-8.828-8.828s-8.828,3.952-8.828,8.828v97.103
		H123.586c-9.746,0.011-17.644,7.909-17.655,17.655v44.138c0,4.875,3.952,8.828,8.828,8.828s8.828-3.952,8.828-8.828V291.31h264.828
		v44.138c0,4.875,3.952,8.828,8.828,8.828c4.875,0,8.828-3.952,8.828-8.828V291.31C406.058,281.564,398.16,273.666,388.414,273.655z
		"/>
	<g>
		<path style="fill:#3F5C6C;" d="M309.396,335.448h175.69c5.113,0,9.258,4.145,9.258,9.258v149.638H300.138V344.707
			c0-2.455,0.975-4.81,2.712-6.547C304.586,336.424,306.941,335.448,309.396,335.448z"/>
		<path style="fill:#3F5C6C;" d="M168.155,0h175.69c5.113,0,9.258,4.145,9.258,9.258v149.638H158.897V9.258
			C158.897,4.145,163.042,0,168.155,0z"/>
		<path style="fill:#3F5C6C;" d="M211.862,494.345H17.655V344.707c0-5.113,4.145-9.258,9.258-9.258h175.69
			c5.113,0,9.258,4.145,9.258,9.258V494.345z"/>
	</g>
	<g>
		<path style="fill:#BDC3C7;" d="M9.19,476.69h211.138c5.075,0,9.19,4.114,9.19,9.19v16.931c0,5.075-4.114,9.19-9.19,9.19H9.19
			C4.114,512,0,507.886,0,502.81v-16.931C0,480.804,4.114,476.69,9.19,476.69z"/>
		<path style="fill:#BDC3C7;" d="M291.672,476.69H502.81c5.075,0,9.19,4.114,9.19,9.19v16.931c0,5.075-4.114,9.19-9.19,9.19H291.672
			c-5.075,0-9.19-4.114-9.19-9.19v-16.931C282.483,480.804,286.597,476.69,291.672,476.69z"/>
		<path style="fill:#BDC3C7;" d="M150.431,141.241h211.138c5.075,0,9.19,4.114,9.19,9.19v16.931c0,5.075-4.114,9.19-9.19,9.19
			H150.431c-5.075,0-9.19-4.114-9.19-9.19v-16.931C141.241,145.356,145.356,141.241,150.431,141.241z"/>
	</g>
	<g>
		<path style="fill:#84B5CB;" d="M353.103,379.586h-8.828c-4.875,0-8.828-3.952-8.828-8.828s3.952-8.828,8.828-8.828h8.828
			c4.875,0,8.828,3.952,8.828,8.828S357.979,379.586,353.103,379.586z"/>
		<path style="fill:#84B5CB;" d="M450.207,379.586h-61.793c-4.875,0-8.828-3.952-8.828-8.828s3.952-8.828,8.828-8.828h61.793
			c4.875,0,8.828,3.952,8.828,8.828S455.082,379.586,450.207,379.586z"/>
		<path style="fill:#84B5CB;" d="M211.862,44.138h-8.828c-4.875,0-8.828-3.952-8.828-8.828s3.952-8.828,8.828-8.828h8.828
			c4.875,0,8.828,3.952,8.828,8.828S216.737,44.138,211.862,44.138z"/>
		<path style="fill:#84B5CB;" d="M308.966,44.138h-61.793c-4.875,0-8.828-3.952-8.828-8.828s3.952-8.828,8.828-8.828h61.793
			c4.875,0,8.828,3.952,8.828,8.828S313.841,44.138,308.966,44.138z"/>
		<path style="fill:#84B5CB;" d="M70.621,379.586h-8.828c-4.875,0-8.828-3.952-8.828-8.828s3.952-8.828,8.828-8.828h8.828
			c4.875,0,8.828,3.952,8.828,8.828S75.496,379.586,70.621,379.586z"/>
		<path style="fill:#84B5CB;" d="M167.724,379.586h-61.793c-4.875,0-8.828-3.952-8.828-8.828s3.952-8.828,8.828-8.828h61.793
			c4.875,0,8.828,3.952,8.828,8.828S172.599,379.586,167.724,379.586z"/>
	</g>
</g>
<g>
</g>
<g>
</g>
<g>
</g>
<g>
</g>
<g>
</g>
<g>
</g>
<g>
</g>
<g>
</g>
<g>
</g>
<g>
</g>
<g>
</g>
<g>
</g>
<g>
</g>
<g>
</g>
<g>
</g>
</svg>
