<?xml version="1.0" encoding="iso-8859-1"?>
<!-- Generator: Adobe Illustrator 19.0.0, SVG Export Plug-In . SVG Version: 6.00 Build 0)  -->
<svg version="1.1" id="Capa_1" xmlns="http://www.w3.org/2000/svg" xmlns:xlink="http://www.w3.org/1999/xlink" x="0px" y="0px"
	 viewBox="0 0 512.108 512.108" style="enable-background:new 0 0 512.108 512.108;" xml:space="preserve">
<g transform="translate(0 -1)">
	<path style="fill:#95A5A5;" d="M382.434,215.667c-1.156-2.521-2.914-4.719-5.12-6.4l-92.672-70.4l-20.821-15.787
		c-4.614-3.414-10.916-3.414-15.53,0l-20.821,15.787l-92.673,70.4c-2.184,1.668-3.939,3.833-5.12,6.315
		c-1.049,2.275-1.602,4.748-1.621,7.253v119.552c0.047,14.119,11.481,25.553,25.6,25.6h204.8c14.119-0.047,25.553-11.481,25.6-25.6
		V222.835C384.077,220.353,383.522,217.899,382.434,215.667z"/>
	<path style="fill:#7F8C8D;" d="M382.434,215.667l-93.611,71.936l-4.181-3.243l-20.821-16.128c-4.585-3.499-10.945-3.499-15.53,0
		l-20.822,16.128l-2.987,2.304l-94.805-71.083c1.181-2.482,2.936-4.647,5.12-6.315l92.672-70.4l20.821-15.787
		c4.614-3.414,10.916-3.414,15.53,0l20.821,15.787l92.673,70.4C379.52,210.948,381.279,213.146,382.434,215.667z"/>
	<path style="fill:#BDC3C7;" d="M379.021,357.577c-4.796,6.559-12.44,10.428-20.565,10.411h-204.8
		c-8.125,0.017-15.769-3.852-20.565-10.411l91.392-70.912l2.987-2.304l20.821-16.128c4.585-3.499,10.945-3.499,15.53,0
		l20.821,16.128l4.181,3.243L379.021,357.577z"/>
	<g>
		<path style="fill:#4482C3;" d="M486.455,257.054c-0.092-110.142-78.035-204.855-186.1-226.142
			c-2.996-0.593-6.081,0.46-8.088,2.762c-2.007,2.302-2.631,5.501-1.636,8.389c0.995,2.887,3.458,5.023,6.457,5.599
			c103.723,20.342,176.919,113.56,172.077,219.149S382.903,458.527,277.753,469.29l9.936-9.936
			c3.281-3.341,3.256-8.701-0.054-12.012c-3.311-3.311-8.671-3.335-12.012-0.054l-25.595,25.594c-3.324,3.34-3.324,8.738,0,12.078
			l25.595,25.594c2.149,2.188,5.307,3.055,8.271,2.27s5.28-3.1,6.065-6.065c0.785-2.965-0.082-6.122-2.27-8.271l-11.933-11.933
			C394.845,476.205,486.297,376.592,486.455,257.054z"/>
		<path style="fill:#4482C3;" d="M263.932,38.446c1.313-3.189,0.584-6.854-1.848-9.298L236.488,3.554
			c-2.149-2.188-5.307-3.055-8.271-2.27s-5.28,3.1-6.065,6.065c-0.785,2.965,0.082,6.122,2.27,8.271l11.933,11.933
			C121.913,37.371,32.184,129.985,25.992,244.681s73.044,216.432,185.764,238.515c2.996,0.593,6.081-0.46,8.088-2.762
			c2.007-2.302,2.631-5.501,1.636-8.389c-0.995-2.888-3.458-5.023-6.457-5.599C111.299,446.104,38.103,352.885,42.946,247.297
			S129.208,55.581,234.358,44.818l-9.936,9.936c-2.188,2.149-3.055,5.307-2.27,8.271c0.785,2.965,3.1,5.28,6.065,6.065
			c2.965,0.785,6.122-0.082,8.271-2.27l25.595-25.594C262.877,40.431,263.505,39.486,263.932,38.446z"/>
	</g>
</g>
<g>
</g>
<g>
</g>
<g>
</g>
<g>
</g>
<g>
</g>
<g>
</g>
<g>
</g>
<g>
</g>
<g>
</g>
<g>
</g>
<g>
</g>
<g>
</g>
<g>
</g>
<g>
</g>
<g>
</g>
</svg>
