<?xml version="1.0" encoding="iso-8859-1"?>
<!-- Generator: Adobe Illustrator 19.0.0, SVG Export Plug-In . SVG Version: 6.00 Build 0)  -->
<svg version="1.1" id="Capa_1" xmlns="http://www.w3.org/2000/svg" xmlns:xlink="http://www.w3.org/1999/xlink" x="0px" y="0px"
	 viewBox="0 0 512 512" style="enable-background:new 0 0 512 512;" xml:space="preserve">
<g>
	<g>
		<polygon style="fill:#7F8C8D;" points="343.658,423.724 467.862,423.724 467.862,203.034 260.237,203.034 251.763,203.034 
			44.138,203.034 44.138,423.724 168.342,423.724 		"/>
		<polygon style="fill:#7F8C8D;" points="343.658,247.172 467.862,247.172 467.862,44.138 260.237,44.138 251.763,44.138 
			44.138,44.138 44.138,247.172 168.342,247.172 		"/>
		<path style="fill:#7F8C8D;" d="M26.483,441.379h44.138v48.552c0,12.188-9.881,22.069-22.069,22.069s-22.069-9.881-22.069-22.069
			V441.379z"/>
		<path style="fill:#7F8C8D;" d="M441.379,441.379h44.138v48.552c0,12.188-9.881,22.069-22.069,22.069s-22.069-9.881-22.069-22.069
			V441.379z"/>
	</g>
	<path style="fill:#3F5C6C;" d="M26.483,335.448h459.034c14.626,0,26.483,11.857,26.483,26.483v70.621
		c0,14.626-11.857,26.483-26.483,26.483H26.483C11.857,459.034,0,447.178,0,432.552v-70.621
		C0,347.305,11.857,335.448,26.483,335.448z"/>
	<circle style="fill:#65DDB9;" cx="61.793" cy="397.241" r="17.655"/>
	<path style="fill:#3F5C6C;" d="M26.483,167.724h459.034c14.626,0,26.483,11.857,26.483,26.483v70.621
		c0,14.626-11.857,26.483-26.483,26.483H26.483C11.857,291.31,0,279.454,0,264.828v-70.621C0,179.581,11.857,167.724,26.483,167.724
		z"/>
	<g>
		<path style="fill:#2C3E50;" d="M467.862,220.69h-70.621c-4.875,0-8.828-3.952-8.828-8.828c0-4.875,3.952-8.828,8.828-8.828h70.621
			c4.875,0,8.828,3.952,8.828,8.828C476.69,216.737,472.737,220.69,467.862,220.69z"/>
		<path style="fill:#2C3E50;" d="M467.862,256h-70.621c-4.875,0-8.828-3.952-8.828-8.828s3.952-8.828,8.828-8.828h70.621
			c4.875,0,8.828,3.952,8.828,8.828S472.737,256,467.862,256z"/>
		<path style="fill:#2C3E50;" d="M467.862,388.414H335.448c-4.875,0-8.828-3.952-8.828-8.828s3.952-8.828,8.828-8.828h132.414
			c4.875,0,8.828,3.952,8.828,8.828S472.737,388.414,467.862,388.414z"/>
		<path style="fill:#2C3E50;" d="M467.862,423.724h-88.276c-4.875,0-8.828-3.952-8.828-8.828s3.952-8.828,8.828-8.828h88.276
			c4.875,0,8.828,3.952,8.828,8.828S472.737,423.724,467.862,423.724z"/>
	</g>
	<circle style="fill:#65DDB9;" cx="61.793" cy="229.517" r="17.655"/>
	<path style="fill:#3F5C6C;" d="M26.483,0h459.034C500.143,0,512,11.857,512,26.483v70.621c0,14.626-11.857,26.483-26.483,26.483
		H26.483C11.857,123.586,0,111.729,0,97.103V26.483C0,11.857,11.857,0,26.483,0z"/>
	<circle style="fill:#65DDB9;" cx="61.793" cy="61.793" r="17.655"/>
	<circle style="fill:#E64C3C;" cx="132.414" cy="61.793" r="17.655"/>
	<g>
		<path style="fill:#2C3E50;" d="M467.862,52.966H308.966c-4.875,0-8.828-3.952-8.828-8.828s3.952-8.828,8.828-8.828h158.897
			c4.875,0,8.828,3.952,8.828,8.828S472.737,52.966,467.862,52.966z"/>
		<path style="fill:#2C3E50;" d="M467.862,88.276H308.966c-4.875,0-8.828-3.952-8.828-8.828c0-4.875,3.952-8.828,8.828-8.828
			h158.897c4.875,0,8.828,3.952,8.828,8.828C476.69,84.324,472.737,88.276,467.862,88.276z"/>
	</g>
	<path style="fill:#F29C1F;" d="M397.241,491.357V512H114.759v-22.001c-0.21-19.578,10.013-37.789,26.836-47.805l57.267-33.069
		c7.659-4.541,12.311-12.826,12.198-21.73V371.74c0.011-1.46-0.439-2.885-1.285-4.074c-11.405-15.817-19.685-33.666-24.395-52.589
		v-95.066c0,0-7.64-61.114,70.621-61.114s70.621,61.114,70.621,61.114v95.066c-4.711,18.922-12.99,36.772-24.395,52.589
		c-0.846,1.189-1.296,2.615-1.285,4.074v16.334c-0.121,9.18,4.811,17.684,12.84,22.137l55.02,32.39
		C386.533,452.379,397.459,471.109,397.241,491.357z"/>
	<path style="fill:#BDC3C7;" d="M256,344.276c-0.014,4.869-3.958,8.813-8.828,8.828H178.67c-16.278-0.5-29.077-14.088-28.601-30.367
		v-22.599h17.655v22.599c-0.417,6.51,4.447,12.158,10.946,12.712h68.502C252.042,335.462,255.986,339.406,256,344.276z"/>
	<path style="fill:#E6E7E8;" d="M251.586,326.621H267.9c7.313,0,13.241,5.928,13.241,13.241v8.828
		c0,7.313-5.928,13.241-13.241,13.241h-16.313c-7.313,0-13.241-5.928-13.241-13.241v-8.828
		C238.345,332.549,244.273,326.621,251.586,326.621z"/>
	<path style="fill:#BDC3C7;" d="M353.103,256c-2.341,0.001-4.587-0.929-6.243-2.585c-1.656-1.656-2.585-3.901-2.585-6.243v-20.599
		c0-51.918-37.853-94.159-84.388-94.159h-7.776c-46.534,0-84.388,42.241-84.388,94.159v20.599c0,4.875-3.952,8.828-8.828,8.828
		s-8.828-3.952-8.828-8.828v-20.599c0-61.655,45.776-111.815,102.043-111.815h7.776c56.267,0,102.043,50.16,102.043,111.815v20.599
		c0.001,2.341-0.929,4.587-2.585,6.243C357.691,255.071,355.445,256.001,353.103,256z"/>
	<g>
		<rect x="150.069" y="247.172" style="fill:#95A5A5;" width="35.31" height="52.966"/>
		<path style="fill:#95A5A5;" d="M326.621,247.172h35.31v44.138c0,4.875-3.952,8.828-8.828,8.828h-26.483V247.172z"/>
	</g>
</g>
<g>
</g>
<g>
</g>
<g>
</g>
<g>
</g>
<g>
</g>
<g>
</g>
<g>
</g>
<g>
</g>
<g>
</g>
<g>
</g>
<g>
</g>
<g>
</g>
<g>
</g>
<g>
</g>
<g>
</g>
</svg>
