<?xml version="1.0" encoding="iso-8859-1"?>
<!-- Generator: Adobe Illustrator 19.0.0, SVG Export Plug-In . SVG Version: 6.00 Build 0)  -->
<svg version="1.1" id="Capa_1" xmlns="http://www.w3.org/2000/svg" xmlns:xlink="http://www.w3.org/1999/xlink" x="0px" y="0px"
	 viewBox="0 0 512.014 512.014" style="enable-background:new 0 0 512.014 512.014;" xml:space="preserve">
<g>
	<path style="fill:#8697CB;" d="M317.793,353.11v132.414c0.009,7.027-2.778,13.768-7.746,18.736
		c-4.969,4.969-11.71,7.756-18.737,7.746H26.483c-7.027,0.009-13.768-2.778-18.737-7.746c-4.969-4.969-7.756-11.71-7.746-18.736
		V26.49c-0.009-7.027,2.778-13.768,7.746-18.737s11.71-7.756,18.737-7.746H291.31c7.027-0.009,13.768,2.778,18.737,7.746
		c4.969,4.969,7.756,11.71,7.746,18.737V353.11z"/>
	<path style="fill:#B0D3F0;" d="M282.483,353.11v114.759c-0.014,4.869-3.958,8.813-8.828,8.828H44.138
		c-4.869-0.014-8.813-3.958-8.828-8.828V44.145c0.014-4.869,3.958-8.813,8.828-8.828h35.31c4.869,0.014,8.813,3.958,8.828,8.828
		V61.8c0.014,4.869,3.958,8.813,8.828,8.828H220.69c4.869-0.014,8.813-3.958,8.828-8.828V44.145
		c0.014-4.869,3.958-8.813,8.828-8.828h35.31c4.869,0.014,8.813,3.958,8.828,8.828V353.11z"/>
	<path style="fill:#4482C3;" d="M512,142.749v191.206c0.387,10.155-7.502,18.715-17.655,19.156H282.483l-55.526,68.061
		c-2.535,2.519-6.336,3.267-9.636,1.897c-3.301-1.37-5.454-4.591-5.459-8.164V353.11h-17.655
		c-10.153-0.441-18.042-9.001-17.655-19.156V142.749c-0.387-10.155,7.502-18.715,17.655-19.156h300.138
		C504.498,124.034,512.387,132.594,512,142.749z"/>
	<g>
		<path style="fill:#556080;" d="M137.353,27.99c-0.491-0.335-1.024-0.603-1.586-0.797c-0.527-0.267-1.095-0.445-1.681-0.526
			c-1.131-0.267-2.309-0.267-3.44,0c-0.552,0.095-1.087,0.272-1.586,0.526c-0.565,0.194-1.101,0.462-1.595,0.797l-1.319,1.06
			c-3.414,3.481-3.414,9.054,0,12.534c1.683,1.627,3.927,2.544,6.268,2.561c0.561-0.016,1.12-0.075,1.672-0.177
			c0.585-0.085,1.153-0.264,1.681-0.53c0.562-0.194,1.095-0.462,1.586-0.797c0.44-0.35,0.888-0.703,1.328-1.056
			c3.414-3.481,3.414-9.054,0-12.534C138.241,28.697,137.793,28.343,137.353,27.99z"/>
		<path style="fill:#556080;" d="M185.379,26.49h-17.655c-4.875,0-8.828,3.952-8.828,8.828s3.952,8.828,8.828,8.828h17.655
			c4.875,0,8.828-3.952,8.828-8.828S190.255,26.49,185.379,26.49z"/>
	</g>
	<g>
		<path style="fill:#BDC3C7;" d="M353.103,150.076c-2.341-0.001-4.587,0.929-6.243,2.585c-1.656,1.656-2.585,3.901-2.585,6.243
			v17.655c0,4.875,3.952,8.828,8.828,8.828c4.875,0,8.828-3.952,8.828-8.828v-17.655c0.001-2.341-0.929-4.587-2.585-6.243
			C357.691,151.005,355.445,150.075,353.103,150.076z"/>
		<path style="fill:#BDC3C7;" d="M321.026,165.132c-2.439-4.22-7.837-5.666-12.058-3.229c-4.222,2.437-5.67,7.834-3.235,12.056
			l8.828,15.293c1.576,2.734,4.491,4.418,7.646,4.419c3.155,0.001,6.071-1.682,7.649-4.415c1.577-2.733,1.577-6.1-0.002-8.832
			L321.026,165.132z"/>
		<path style="fill:#BDC3C7;" d="M279.888,206.27l15.285,8.828c1.337,0.778,2.858,1.187,4.405,1.185
			c3.997,0.005,7.499-2.676,8.535-6.537c1.037-3.86-0.651-7.935-4.113-9.933l-15.285-8.828c-2.731-1.588-6.103-1.595-8.841-0.019
			c-2.738,1.576-4.424,4.496-4.421,7.655C275.456,201.781,277.147,204.698,279.888,206.27z"/>
		<path style="fill:#BDC3C7;" d="M300.138,238.352c0.001-2.341-0.929-4.587-2.585-6.243c-1.656-1.656-3.901-2.585-6.243-2.585
			h-17.655c-4.875,0-8.828,3.952-8.828,8.828c0,4.875,3.952,8.828,8.828,8.828h17.655c2.341,0.001,4.587-0.929,6.243-2.585
			C299.209,242.939,300.139,240.693,300.138,238.352z"/>
		<path style="fill:#BDC3C7;" d="M307.233,264.834c-1.17-2.029-3.098-3.51-5.361-4.115c-2.262-0.606-4.673-0.287-6.7,0.887
			l-15.285,8.828c-2.74,1.572-4.432,4.489-4.434,7.648c-0.003,3.159,1.684,6.079,4.421,7.655c2.738,1.576,6.109,1.569,8.841-0.019
			L304,276.89c2.028-1.169,3.509-3.097,4.115-5.358C308.721,269.271,308.404,266.862,307.233,264.834z"/>
		<path style="fill:#BDC3C7;" d="M326.621,284.218c-2.027-1.173-4.438-1.492-6.701-0.886c-2.263,0.607-4.191,2.088-5.36,4.118
			l-8.828,15.293c-2.435,4.223-0.987,9.62,3.235,12.056c4.222,2.437,9.619,0.991,12.058-3.229l8.828-15.293
			c1.171-2.028,1.489-4.438,0.882-6.7C330.13,287.316,328.649,285.388,326.621,284.218z"/>
		<path style="fill:#BDC3C7;" d="M353.103,291.317c-2.341-0.001-4.587,0.929-6.243,2.585c-1.656,1.656-2.585,3.901-2.585,6.243
			V317.8c0,4.875,3.952,8.828,8.828,8.828c4.875,0,8.828-3.952,8.828-8.828v-17.655c0.001-2.341-0.929-4.587-2.585-6.243
			C357.691,292.246,355.445,291.317,353.103,291.317z"/>
		<path style="fill:#BDC3C7;" d="M391.647,287.451c-2.439-4.22-7.837-5.666-12.058-3.229c-4.222,2.437-5.67,7.834-3.235,12.056
			l8.828,15.293c1.576,2.734,4.491,4.418,7.646,4.419s6.071-1.682,7.649-4.415s1.577-6.1-0.002-8.832L391.647,287.451z"/>
		<path style="fill:#BDC3C7;" d="M426.319,270.434l-15.285-8.828c-2.731-1.588-6.103-1.595-8.841-0.019
			c-2.738,1.576-4.424,4.496-4.421,7.655c0.003,3.159,1.694,6.076,4.434,7.648l15.285,8.828c1.337,0.778,2.858,1.187,4.405,1.185
			c3.997,0.005,7.499-2.676,8.535-6.537C431.469,276.506,429.782,272.431,426.319,270.434z"/>
		<path style="fill:#BDC3C7;" d="M432.552,229.524h-17.655c-4.875,0-8.828,3.952-8.828,8.828c0,4.875,3.952,8.828,8.828,8.828
			h17.655c4.875,0,8.828-3.952,8.828-8.828C441.379,233.476,437.427,229.524,432.552,229.524z"/>
		<path style="fill:#BDC3C7;" d="M398.974,211.869c1.579,2.734,4.498,4.417,7.655,4.414c1.547,0.002,3.067-0.407,4.405-1.185
			l15.285-8.828c2.74-1.572,4.432-4.489,4.434-7.648c0.003-3.159-1.684-6.079-4.421-7.655c-2.738-1.576-6.11-1.569-8.841,0.019
			l-15.285,8.828c-2.028,1.169-3.509,3.097-4.115,5.358C397.485,207.432,397.803,209.842,398.974,211.869z"/>
		<path style="fill:#BDC3C7;" d="M379.586,192.485c4.223,2.435,9.621,0.988,12.06-3.233l8.828-15.293
			c1.579-2.732,1.58-6.099,0.002-8.832s-4.493-4.416-7.649-4.415s-6.07,1.686-7.646,4.419l-8.828,15.293
			c-1.171,2.028-1.489,4.438-0.882,6.7C376.077,189.387,377.558,191.315,379.586,192.485z"/>
	</g>
	<circle style="fill:#ECF0F1;" cx="353.103" cy="238.352" r="61.793"/>
	<circle style="fill:#BDC3C7;" cx="353.103" cy="238.352" r="26.483"/>
</g>
<g>
</g>
<g>
</g>
<g>
</g>
<g>
</g>
<g>
</g>
<g>
</g>
<g>
</g>
<g>
</g>
<g>
</g>
<g>
</g>
<g>
</g>
<g>
</g>
<g>
</g>
<g>
</g>
<g>
</g>
</svg>
