<?xml version="1.0" encoding="iso-8859-1"?>
<!-- Generator: Adobe Illustrator 19.0.0, SVG Export Plug-In . SVG Version: 6.00 Build 0)  -->
<svg version="1.1" id="Capa_1" xmlns="http://www.w3.org/2000/svg" xmlns:xlink="http://www.w3.org/1999/xlink" x="0px" y="0px"
	 viewBox="0 0 512.006 512.006" style="enable-background:new 0 0 512.006 512.006;" xml:space="preserve">
<g>
	<path style="fill:#BDC3C7;" d="M473.591,48.787l-14.557,21.835v194.207h-35.31V70.621l-14.557-21.835
		c-1.892-2.838-1.98-6.513-0.225-9.438L432.552,0h17.655l23.609,39.348C475.571,42.273,475.483,45.948,473.591,48.787z"/>
	<path style="fill:#F29C1F;" d="M476.69,326.621c-0.003,16.682,11.669,31.091,27.989,34.551c4.192,0.774,7.256,4.398,7.322,8.661
		v69.144c0.487,37.812-28.278,69.596-65.951,72.873c-19.5,1.295-38.664-5.549-52.932-18.903
		c-14.268-13.354-22.363-32.025-22.359-51.567v-71.547c0.065-4.263,3.129-7.887,7.322-8.661
		c16.318-3.463,27.989-17.87,27.989-34.551c0-16.682-11.671-31.089-27.989-34.551c-4.192-0.774-7.256-4.398-7.322-8.661v-18.581
		c0-9.751,7.905-17.655,17.655-17.655h105.931c9.751,0,17.655,7.904,17.655,17.655v18.581c-0.065,4.263-3.129,7.887-7.322,8.661
		C488.358,295.53,476.686,309.939,476.69,326.621z"/>
	<path style="fill:#E57E25;" d="M432.552,370.759h17.655c4.875,0,8.828,3.952,8.828,8.828v79.448
		c0,9.751-7.905,17.655-17.655,17.655s-17.655-7.904-17.655-17.655v-79.448C423.724,374.711,427.676,370.759,432.552,370.759z"/>
	<path style="fill:#8697CB;" d="M26.483,0H291.31c14.626,0,26.483,11.857,26.483,26.483v459.034
		c0,14.626-11.857,26.483-26.483,26.483H26.483C11.857,512,0,500.144,0,485.518V26.483C0,11.857,11.857,0,26.483,0z"/>
	<path style="fill:#90BAE1;" d="M282.483,44.138v97.103l-34.339,18.538l-9.799,37.87l-26.483,5.385L158.897,256l7.415-52.966
		l-14.83-39.636l14.83-46.433l-14.83-46.345h69.208c4.869-0.014,8.813-3.958,8.828-8.828V44.138
		c0.014-4.869,3.958-8.813,8.828-8.828h35.31C278.525,35.325,282.469,39.269,282.483,44.138z"/>
	<path style="fill:#B0D3F0;" d="M151.481,163.399l14.83,39.636L158.897,256l-26.483-44.138l-38.753-14.125l-23.923-37.869
		L35.31,132.414V44.138c0.014-4.869,3.958-8.813,8.828-8.828h35.31c4.869,0.014,8.813,3.958,8.828,8.828v17.655
		c0.014,4.869,3.958,8.813,8.828,8.828h54.378l14.83,46.345L151.481,163.399z"/>
	<path style="fill:#90BAE1;" d="M167.724,421.606l-17.655,55.084H44.138c-4.869-0.014-8.813-3.958-8.828-8.828v-84.746h3.531
		l23.923-37.958l43.167-18.538l18.626-35.31L158.897,256v55.172l-17.655,55.261L167.724,421.606z"/>
	<path style="fill:#B0D3F0;" d="M282.483,383.117v84.746c-0.014,4.869-3.958,8.813-8.828,8.828H150.069l17.655-55.084
		l-26.483-55.172l17.655-55.261V256l34.428,27.454l23.923,37.87l37.87,23.924l23.834,37.87L282.483,383.117z"/>
	<polygon style="fill:#90BAE1;" points="282.483,260.944 282.483,383.118 278.952,383.118 255.117,345.247 217.247,321.325 
		193.324,283.454 158.897,256 189.793,251.057 220.778,260.944 251.586,251.057 	"/>
	<polygon style="fill:#B0D3F0;" points="282.483,141.242 282.483,260.944 251.586,251.057 220.778,260.944 189.793,251.057 
		158.897,256 211.862,203.035 238.345,197.65 248.143,159.78 	"/>
	<g>
		<path style="fill:#556080;" d="M137.353,27.983c-0.491-0.335-1.024-0.603-1.586-0.797c-0.527-0.267-1.095-0.445-1.681-0.526
			c-1.131-0.267-2.309-0.267-3.44,0c-0.552,0.095-1.087,0.272-1.586,0.526c-0.565,0.194-1.101,0.462-1.595,0.797l-1.319,1.06
			c-3.414,3.481-3.414,9.054,0,12.534c1.683,1.627,3.927,2.544,6.268,2.561c0.561-0.016,1.12-0.075,1.672-0.177
			c0.585-0.085,1.153-0.264,1.681-0.53c0.562-0.194,1.095-0.462,1.586-0.797c0.44-0.35,0.888-0.703,1.328-1.056
			c3.414-3.481,3.414-9.054,0-12.534C138.241,28.69,137.793,28.337,137.353,27.983z"/>
		<path style="fill:#556080;" d="M185.379,26.483h-17.655c-4.875,0-8.828,3.952-8.828,8.828s3.952,8.828,8.828,8.828h17.655
			c4.875,0,8.828-3.952,8.828-8.828S190.255,26.483,185.379,26.483z"/>
	</g>
	<polygon style="fill:#90BAE1;" points="158.897,256 128,251.057 97.192,260.944 66.207,251.057 35.31,260.944 35.31,132.414 
		69.738,159.868 93.661,197.738 132.414,211.862 	"/>
	<polygon style="fill:#B0D3F0;" points="158.897,256 124.557,291.311 105.931,326.621 62.764,345.159 38.841,383.118 35.31,383.118 
		35.31,260.944 66.207,251.057 97.192,260.944 128,251.057 	"/>
</g>
<g>
</g>
<g>
</g>
<g>
</g>
<g>
</g>
<g>
</g>
<g>
</g>
<g>
</g>
<g>
</g>
<g>
</g>
<g>
</g>
<g>
</g>
<g>
</g>
<g>
</g>
<g>
</g>
<g>
</g>
</svg>
