<?xml version="1.0" encoding="iso-8859-1"?>
<!-- Generator: Adobe Illustrator 19.0.0, SVG Export Plug-In . SVG Version: 6.00 Build 0)  -->
<svg version="1.1" id="Capa_1" xmlns="http://www.w3.org/2000/svg" xmlns:xlink="http://www.w3.org/1999/xlink" x="0px" y="0px"
	 viewBox="0 0 512 512" style="enable-background:new 0 0 512 512;" xml:space="preserve">
<g>
	<path style="fill:#8697CB;" d="M414.897,353.103v132.414c0.009,7.027-2.778,13.768-7.746,18.736
		c-4.969,4.969-11.71,7.756-18.736,7.746H123.586c-7.027,0.009-13.768-2.778-18.737-7.746c-4.969-4.969-7.756-11.71-7.746-18.736
		V26.483c-0.009-7.027,2.778-13.768,7.746-18.737c4.969-4.969,11.71-7.756,18.737-7.746h264.828
		c7.027-0.009,13.768,2.778,18.736,7.746c4.969,4.969,7.756,11.71,7.746,18.737V353.103z"/>
	<path style="fill:#B0D3F0;" d="M379.586,353.103v114.759c-0.014,4.869-3.958,8.813-8.828,8.828H141.241
		c-4.869-0.014-8.813-3.958-8.828-8.828V44.138c0.014-4.869,3.958-8.813,8.828-8.828h35.31c4.869,0.014,8.813,3.958,8.828,8.828
		v17.655c0.014,4.869,3.958,8.813,8.828,8.828h123.586c4.869-0.014,8.813-3.958,8.828-8.828V44.138
		c0.014-4.869,3.958-8.813,8.828-8.828h35.31c4.869,0.014,8.813,3.958,8.828,8.828V353.103z"/>
	<g>
		<path style="fill:#556080;" d="M234.457,27.983c-0.491-0.335-1.024-0.603-1.586-0.797c-0.527-0.267-1.095-0.445-1.681-0.526
			c-1.131-0.267-2.309-0.267-3.44,0c-0.552,0.095-1.087,0.272-1.586,0.526c-0.565,0.194-1.101,0.462-1.595,0.797l-1.319,1.06
			c-3.414,3.481-3.414,9.054,0,12.534c1.683,1.627,3.927,2.544,6.268,2.561c0.561-0.016,1.12-0.075,1.672-0.177
			c0.585-0.085,1.153-0.264,1.681-0.53c0.562-0.194,1.095-0.462,1.586-0.797c0.44-0.35,0.888-0.703,1.328-1.056
			c3.414-3.481,3.414-9.054,0-12.534C235.345,28.69,234.897,28.337,234.457,27.983z"/>
		<path style="fill:#556080;" d="M282.483,26.483h-17.655c-4.875,0-8.828,3.952-8.828,8.828s3.952,8.828,8.828,8.828h17.655
			c4.875,0,8.828-3.952,8.828-8.828S287.358,26.483,282.483,26.483z"/>
	</g>
	<circle style="fill:#ffffff;" cx="256" cy="167.724" r="61.793"/>
	<g>
		<path style="fill:#ECF0F1;" d="M256,203.022c-9.368,0.03-18.358-3.69-24.965-10.332c-3.447-3.447-3.447-9.036,0-12.483
			c3.447-3.447,9.036-3.447,12.483,0c6.991,6.655,17.974,6.655,24.965,0c3.449-3.437,9.029-3.432,12.472,0.011
			c3.443,3.443,3.448,9.023,0.011,12.472C274.359,199.331,265.368,203.052,256,203.022z"/>
		<path style="fill:#ECF0F1;" d="M238.345,158.897c-1.155-0.014-2.296-0.254-3.358-0.707c-1.068-0.449-2.051-1.076-2.909-1.854
			c-1.627-1.682-2.544-3.927-2.56-6.267c0.012-1.154,0.251-2.295,0.703-3.358c0.427-1.08,1.058-2.068,1.857-2.91
			c0.857-0.78,1.841-1.409,2.909-1.858c2.132-0.97,4.579-0.97,6.711,0c2.215,0.807,3.96,2.552,4.767,4.767
			c0.496,1.049,0.738,2.199,0.708,3.358c-0.035,2.337-0.949,4.574-2.56,6.268c-0.86,0.778-1.845,1.405-2.914,1.854
			C240.638,158.643,239.498,158.883,238.345,158.897z"/>
		<path style="fill:#ECF0F1;" d="M273.655,158.897c-1.155-0.014-2.296-0.254-3.358-0.707c-1.068-0.449-2.051-1.076-2.91-1.854
			c-1.627-1.682-2.544-3.927-2.56-6.267c0.012-1.154,0.251-2.295,0.703-3.358c0.427-1.08,1.058-2.068,1.857-2.91
			c0.857-0.78,1.841-1.409,2.909-1.858c2.132-0.97,4.579-0.97,6.711,0c2.215,0.807,3.96,2.552,4.767,4.767
			c0.496,1.049,0.738,2.199,0.708,3.358c-0.035,2.337-0.949,4.574-2.56,6.268c-0.86,0.778-1.845,1.405-2.914,1.854
			C275.948,158.643,274.809,158.883,273.655,158.897z"/>
	</g>
	<circle style="fill:#E4C05C;" cx="256" cy="291.31" r="61.793"/>
	<g>
		<path style="fill:#ECF0F1;" d="M238.345,282.483c-1.155-0.014-2.296-0.254-3.358-0.707c-1.068-0.449-2.051-1.076-2.909-1.854
			c-1.627-1.682-2.544-3.927-2.56-6.267c0.012-1.154,0.251-2.295,0.703-3.358c0.427-1.08,1.058-2.068,1.857-2.91
			c0.857-0.78,1.841-1.409,2.909-1.858c2.132-0.97,4.579-0.97,6.711,0c2.215,0.807,3.96,2.552,4.767,4.767
			c0.496,1.049,0.738,2.199,0.708,3.358c-0.035,2.337-0.949,4.574-2.56,6.268c-0.86,0.778-1.845,1.405-2.914,1.854
			C240.638,282.229,239.498,282.469,238.345,282.483z"/>
		<path style="fill:#ECF0F1;" d="M273.655,282.483c-1.155-0.014-2.296-0.254-3.358-0.707c-1.068-0.449-2.051-1.076-2.91-1.854
			c-1.627-1.682-2.544-3.927-2.56-6.267c0.012-1.154,0.251-2.295,0.703-3.358c0.427-1.08,1.058-2.068,1.857-2.91
			c0.857-0.78,1.841-1.409,2.909-1.858c2.132-0.97,4.579-0.97,6.711,0c2.215,0.807,3.96,2.552,4.767,4.767
			c0.496,1.049,0.738,2.199,0.708,3.358c-0.035,2.337-0.949,4.574-2.56,6.268c-0.86,0.778-1.845,1.405-2.914,1.854
			C275.948,282.229,274.809,282.469,273.655,282.483z"/>
	</g>
	<circle style="fill:#CC4B4C;" cx="256" cy="414.897" r="61.793"/>
	<g>
		<path style="fill:#ECF0F1;" d="M274.724,449.125c-2.342,0.003-4.588-0.928-6.241-2.587c-6.991-6.655-17.974-6.655-24.965,0
			c-3.447,3.447-9.036,3.447-12.483,0c-3.447-3.447-3.447-9.036,0-12.483c13.976-13.327,35.955-13.327,49.931,0
			c2.524,2.525,3.279,6.321,1.913,9.619C281.513,446.973,278.295,449.124,274.724,449.125L274.724,449.125z"/>
		<path style="fill:#ECF0F1;" d="M238.345,406.069c-1.155-0.014-2.296-0.254-3.358-0.707c-1.068-0.449-2.051-1.076-2.909-1.854
			c-1.627-1.682-2.544-3.927-2.56-6.267c0.012-1.154,0.251-2.295,0.703-3.358c0.427-1.08,1.058-2.068,1.857-2.91
			c0.857-0.78,1.841-1.409,2.909-1.858c2.132-0.97,4.579-0.97,6.711,0c2.215,0.807,3.96,2.552,4.767,4.767
			c0.496,1.049,0.738,2.199,0.708,3.358c-0.035,2.337-0.949,4.574-2.56,6.268c-0.86,0.778-1.845,1.405-2.914,1.854
			C240.638,405.815,239.498,406.055,238.345,406.069z"/>
		<path style="fill:#ECF0F1;" d="M273.655,406.069c-1.155-0.014-2.296-0.254-3.358-0.707c-1.068-0.449-2.051-1.076-2.91-1.854
			c-1.627-1.682-2.544-3.927-2.56-6.267c0.012-1.154,0.251-2.295,0.703-3.358c0.427-1.08,1.058-2.068,1.857-2.91
			c0.857-0.78,1.841-1.409,2.909-1.858c2.132-0.97,4.579-0.97,6.711,0c2.215,0.807,3.96,2.552,4.767,4.767
			c0.496,1.049,0.738,2.199,0.708,3.358c-0.035,2.337-0.949,4.574-2.56,6.268c-0.86,0.778-1.845,1.405-2.914,1.854
			C275.948,405.815,274.809,406.055,273.655,406.069z"/>
		<path style="fill:#ECF0F1;" d="M273.655,317.793h-35.31c-4.875,0-8.828-3.952-8.828-8.828s3.952-8.828,8.828-8.828h35.31
			c4.875,0,8.828,3.952,8.828,8.828S278.531,317.793,273.655,317.793z"/>
	</g>
</g>
<g>
</g>
<g>
</g>
<g>
</g>
<g>
</g>
<g>
</g>
<g>
</g>
<g>
</g>
<g>
</g>
<g>
</g>
<g>
</g>
<g>
</g>
<g>
</g>
<g>
</g>
<g>
</g>
<g>
</g>
</svg>
