<?xml version="1.0" encoding="iso-8859-1"?>
<!-- Generator: Adobe Illustrator 19.0.0, SVG Export Plug-In . SVG Version: 6.00 Build 0)  -->
<svg version="1.1" id="Capa_1" xmlns="http://www.w3.org/2000/svg" xmlns:xlink="http://www.w3.org/1999/xlink" x="0px" y="0px"
	 viewBox="0 0 512 512" style="enable-background:new 0 0 512 512;" xml:space="preserve">
<g>
	<rect x="186.576" y="425.22" style="fill:#95A5A5;" width="138.847" height="69.424"/>
	<path style="fill:#3F5C6C;" d="M170.956,43.39H39.051C20.296,43.005,4.769,57.873,4.339,76.626V409.34
		c0.43,18.754,15.957,33.621,34.712,33.237h433.898c18.755,0.385,34.282-14.483,34.712-33.237V76.626
		c-0.43-18.754-15.957-33.621-34.712-33.237H170.956z"/>
	<g>
		<path style="fill:#BDC3C7;" d="M143.186,477.288h225.627c14.378,0,26.034,11.656,26.034,26.034V512H117.153v-8.678
			C117.153,488.944,128.808,477.288,143.186,477.288z"/>
		<path style="fill:#BDC3C7;" d="M507.661,390.508v18.831c-0.43,18.754-15.957,33.621-34.712,33.237H39.051
			c-18.755,0.385-34.282-14.483-34.712-33.237v-18.831H507.661z"/>
	</g>
	<path style="fill:#F29C1F;" d="M394.847,362.045l0.001,28.464H117.152l0.001-29.765c-0.118-18.915,9.964-36.426,26.381-45.82
		l56.296-31.696c7.475-4.258,12.062-12.225,11.992-20.827v-15.005c0.009-1.404-0.434-2.773-1.263-3.905
		c-11.176-15.094-19.32-32.211-23.982-50.405v-91.119c0,0-7.51-58.576,69.424-58.576s69.424,58.576,69.424,58.576v91.119
		c-4.661,18.194-12.805,35.311-23.982,50.405c-0.83,1.132-1.273,2.501-1.263,3.905v15.656c-0.075,8.872,4.79,17.05,12.622,21.218
		l54.088,31.045C384.187,324.465,394.963,342.475,394.847,362.045z"/>
	<path style="fill:#BDC3C7;" d="M238.644,225.627H180.61c-16.311-0.48-29.164-14.06-28.746-30.373v-21.695
		c0-4.793,3.885-8.678,8.678-8.678s8.678,3.885,8.678,8.678v21.695c-0.411,6.727,4.668,12.531,11.39,13.017h58.034
		c4.793,0,8.678,3.885,8.678,8.678C247.322,221.742,243.437,225.627,238.644,225.627z"/>
	<path style="fill:#E6E7E8;" d="M242.983,199.593h17.356c7.189,0,13.017,5.828,13.017,13.017v8.678
		c0,7.189-5.828,13.017-13.017,13.017h-17.356c-7.189,0-13.017-5.828-13.017-13.017v-8.678
		C229.966,205.421,235.794,199.593,242.983,199.593z"/>
	<path style="fill:#BDC3C7;" d="M351.458,121.492c-2.302,0.001-4.509-0.913-6.137-2.541c-1.628-1.628-2.542-3.835-2.541-6.137
		c0-52.636-37.216-95.458-82.962-95.458h-7.636c-45.746,0-82.962,42.822-82.962,95.458c0,4.793-3.885,8.678-8.678,8.678
		s-8.678-3.885-8.678-8.678C151.864,50.61,196.868,0,252.182,0h7.636c55.314,0,100.318,50.61,100.318,112.814
		c0.001,2.302-0.913,4.509-2.541,6.137C355.967,120.578,353.759,121.492,351.458,121.492z"/>
	<g>
		<rect x="151.864" y="112.814" style="fill:#7F8C8D;" width="34.712" height="60.746"/>
		<path style="fill:#7F8C8D;" d="M351.458,173.559h-26.034v-60.746h34.712v52.068C360.136,169.674,356.25,173.559,351.458,173.559z"
			/>
	</g>
</g>
<g>
</g>
<g>
</g>
<g>
</g>
<g>
</g>
<g>
</g>
<g>
</g>
<g>
</g>
<g>
</g>
<g>
</g>
<g>
</g>
<g>
</g>
<g>
</g>
<g>
</g>
<g>
</g>
<g>
</g>
</svg>
