<?xml version="1.0" encoding="iso-8859-1"?>
<!-- Generator: Adobe Illustrator 19.0.0, SVG Export Plug-In . SVG Version: 6.00 Build 0)  -->
<svg version="1.1" id="Capa_1" xmlns="http://www.w3.org/2000/svg" xmlns:xlink="http://www.w3.org/1999/xlink" x="0px" y="0px"
	 viewBox="0 0 512.042 512.042" style="enable-background:new 0 0 512.042 512.042;" xml:space="preserve">
<g transform="translate(0 -1)">
	<path style="fill:#BDC3C7;" d="M397.245,265.862v61.793c0,9.751,7.904,17.655,17.655,17.655s17.655-7.904,17.655-17.655v-61.793
		H397.245z"/>
	<path style="fill:#CBB292;" d="M344.219,353.52c-0.441,3.443-4.59,6.268-7.062,8.121c-5.473,3.972-16.596,6.621-17.92,13.771
		c-0.751,3.63-0.318,7.405,1.236,10.77c3.796,7.768,7.945,12.006,5.032,14.389c-2.913,2.472-10.858,8.298-10.858,8.298
		s7.415,9.445,3.354,12.27c-5.208,3.619-11.741,5.297-13.506,12.094c-0.524,5.32,0.016,10.692,1.589,15.801
		c0.545,5.028-0.121,10.113-1.942,14.83c-2.618,9.489-12.177,15.294-21.804,13.241c-19.198-4.223-38.172-9.408-56.85-15.537
		c-23.923,11.652-36.546,51.465-36.546,51.465l-171.255-0.177l-0.53-0.353c29.572-42.196,31.956-97.368,17.39-145.567
		c-2.869-10.782-7.143-21.14-12.712-30.808c-5.699-8.499-10.408-17.621-14.036-27.189c-6.844-18.916-9.231-39.156-6.974-59.145
		c4.285-40.032,25.778-76.218,58.88-99.134c21.813-14.107,46.83-22.487,72.739-24.364l35.31-0.177
		c22.707,1.86,45.111,6.424,66.737,13.594c15.646,4.637,29.921,13.032,41.578,24.452c11.354,11.859,20.157,25.919,25.865,41.313
		c2.631,7.597,4.783,15.351,6.444,23.217c2.741,8.647,6.104,17.085,10.063,25.247c1.071,2.506,1.554,5.223,1.412,7.945
		c-1.324,9.181-15.36,13.241-15.448,22.687c0.087,2.1,0.727,4.14,1.854,5.915c8.278,17.165,18.433,33.359,30.279,48.287
		C339.275,342.221,344.925,348.753,344.219,353.52z"/>
	<path style="fill:#7F6E5D;" d="M211.893,460.069c-0.916-0.001-1.826-0.144-2.698-0.422c-17.334-5.351-34.246-11.984-50.595-19.845
		c-4.361-2.181-6.129-7.484-3.948-11.845c2.181-4.361,7.484-6.129,11.845-3.948c15.543,7.459,31.619,13.752,48.095,18.828
		c4.14,1.329,6.696,5.475,6.023,9.771C219.942,456.903,216.241,460.069,211.893,460.069z"/>
	<path style="fill:#E6E7E8;" d="M260.979,415.931c-0.822-0.002-1.64-0.115-2.431-0.336l-61.793-17.655
		c-1.949-0.558-3.646-1.769-4.806-3.431l-31.427-44.931c-2.741-3.994-1.752-9.451,2.218-12.229
		c3.969-2.777,9.435-1.837,12.248,2.108l29.634,42.362l58.78,16.793c4.231,1.211,6.924,5.353,6.315,9.712
		C269.107,412.683,265.38,415.927,260.979,415.931z"/>
	<path style="fill:#285680;" d="M132.445,251.297V115.793c0-9.751,7.904-17.655,17.655-17.655c9.751,0,17.655,7.904,17.655,17.655
		v135.503H132.445z"/>
	<circle style="fill:#4482C3;" cx="150.072" cy="301.173" r="52.966"/>
	<path style="fill:#E4C05C;" d="M511.103,84.697c4.372,31.208-6.684,62.595-29.651,84.172
		c-19.473,17.579-30.785,42.445-31.241,68.675v10.663H379.59v-12.749c-0.422-25.216-11.442-49.089-30.358-65.768
		c-31.535-28.947-40.4-75.127-21.827-113.694c18.574-38.567,60.207-60.427,102.5-53.819S505.179,42.303,511.103,84.697z"/>
	<path style="fill:#BDC3C7;" d="M388.417,239.38h52.966c9.751,0,17.655,7.904,17.655,17.655l0,0c0,9.751-7.904,17.655-17.655,17.655
		h-52.966c-9.751,0-17.655-7.904-17.655-17.655l0,0C370.762,247.284,378.666,239.38,388.417,239.38z"/>
	<path style="fill:#7F8C8D;" d="M397.245,274.69h35.31c9.751,0,17.655,7.904,17.655,17.655l0,0c0,9.751-7.905,17.655-17.655,17.655
		h-35.31c-9.751,0-17.655-7.905-17.655-17.655l0,0C379.59,282.594,387.494,274.69,397.245,274.69z"/>
	<path style="fill:#F9EAB0;" d="M476.693,106.966c-2.342,0.001-4.588-0.928-6.244-2.584s-2.585-3.902-2.584-6.244
		c-0.032-29.239-23.727-52.934-52.966-52.966c-4.875,0-8.828-3.952-8.828-8.828s3.952-8.828,8.828-8.828
		c38.984,0.045,70.576,31.636,70.621,70.621c0.001,2.342-0.928,4.588-2.584,6.244C481.281,106.038,479.035,106.967,476.693,106.966z
		"/>
</g>
<g>
</g>
<g>
</g>
<g>
</g>
<g>
</g>
<g>
</g>
<g>
</g>
<g>
</g>
<g>
</g>
<g>
</g>
<g>
</g>
<g>
</g>
<g>
</g>
<g>
</g>
<g>
</g>
<g>
</g>
</svg>
