<?xml version="1.0" encoding="iso-8859-1"?>
<!-- Generator: Adobe Illustrator 19.0.0, SVG Export Plug-In . SVG Version: 6.00 Build 0)  -->
<svg version="1.1" id="Capa_1" xmlns="http://www.w3.org/2000/svg" xmlns:xlink="http://www.w3.org/1999/xlink" x="0px" y="0px"
	 viewBox="0 0 512 512" style="enable-background:new 0 0 512 512;" xml:space="preserve">
<g>
	<path style="fill:#BDC3C7;" d="M256,247.172c-4.875,0-8.828-3.952-8.828-8.828c1.174-57.2-44.145-104.571-101.341-105.931h-9.181
		c-57.196,1.36-102.515,48.731-101.341,105.931c0,4.875-3.952,8.828-8.828,8.828s-8.828-3.952-8.828-8.828
		c-1.168-66.948,52.051-122.221,118.996-123.586h9.181c66.944,1.365,120.164,56.638,118.996,123.586
		C264.828,243.22,260.875,247.172,256,247.172z"/>
	<rect x="8.828" y="238.345" style="fill:#95A5A5;" width="264.828" height="61.793"/>
	<path style="fill:#F29C1F;" d="M300.138,512v-13.335c-0.103-20.417-11.845-38.987-30.246-47.834l-75.219-31.845
		c-4.334-2.532-7.768-6.355-9.823-10.935c-0.964-1.986-0.826-4.331,0.364-6.19c1.19-1.86,3.261-2.967,5.468-2.925h48.063
		c11.655,0.936,23.377-0.586,34.407-4.467c4.135-1.712,7.262-5.218,8.491-9.521c1.229-4.303,0.426-8.932-2.181-12.569
		c-16.051-22.33-46.467-72.498-47.538-126.8c0,0-4.311-86.001-88.677-86.681c-49.216,0.4-67.838,28.711-78.663,52.242
		c-5.716,13.233-8.971,27.399-9.604,41.8c-3.499,51.755-30.464,100.623-43.029,120.859c-2.077,3.297-2.733,7.294-1.82,11.082
		c0.913,3.788,3.319,7.046,6.67,9.035c7.902,4.124,16.83,5.868,25.703,5.021h54.223c2.347-0.058,4.466,1.398,5.254,3.61
		c0.788,2.212,0.067,4.679-1.788,6.118c-2.653,2.143-5.442,4.112-8.349,5.894L28.513,450.41C11.056,459.58,0.088,477.639,0,497.358
		V512H300.138z"/>
	<path style="fill:#ffffff;" d="M512,17.655v185.379c0,9.751-7.905,17.655-17.655,17.655H379.586l-52.966,52.966V220.69h-8.828
		c-9.751,0-17.655-7.904-17.655-17.655V17.655C300.138,7.904,308.042,0,317.793,0h176.552C504.095,0,512,7.904,512,17.655z"/>
	<path style="fill:#BDC3C7;" d="M123.586,344.276c-0.015,4.869-3.958,8.813-8.828,8.828H38.047
		c-16.579-0.51-29.634-14.314-29.219-30.897v-22.069h17.655v22.069c-0.424,6.837,4.733,12.741,11.564,13.241h76.712
		C119.628,335.463,123.572,339.407,123.586,344.276z"/>
	<g>
		<path style="fill:#E6E7E8;" d="M119.172,326.621h17.655c7.313,0,13.241,5.928,13.241,13.241v8.828
			c0,7.313-5.928,13.241-13.241,13.241h-17.655c-7.313,0-13.241-5.928-13.241-13.241v-8.828
			C105.931,332.549,111.859,326.621,119.172,326.621z"/>
		<path style="fill:#E6E7E8;" d="M406.069,114.759c9.75,0,17.655-7.905,17.655-17.655V52.966c0-9.751-7.904-17.655-17.655-17.655
			s-17.655,7.904-17.655,17.655v44.138C388.414,106.854,396.318,114.758,406.069,114.759z"/>
		<circle style="fill:#E6E7E8;" cx="406.069" cy="167.724" r="17.655"/>
	</g>
</g>
<g>
</g>
<g>
</g>
<g>
</g>
<g>
</g>
<g>
</g>
<g>
</g>
<g>
</g>
<g>
</g>
<g>
</g>
<g>
</g>
<g>
</g>
<g>
</g>
<g>
</g>
<g>
</g>
<g>
</g>
</svg>
