<?xml version="1.0" encoding="iso-8859-1"?>
<!-- Generator: Adobe Illustrator 19.0.0, SVG Export Plug-In . SVG Version: 6.00 Build 0)  -->
<svg version="1.1" id="Capa_1" xmlns="http://www.w3.org/2000/svg" xmlns:xlink="http://www.w3.org/1999/xlink" x="0px" y="0px"
	 viewBox="0 0 511.627 511.627" style="enable-background:new 0 0 511.627 511.627;" xml:space="preserve">
<g>
	<path style="fill:#BDC3C7;" d="M385.983,156.203c-4.793,0-8.678-3.885-8.678-8.678v-8.678c0-69.263-55.962-121.492-130.17-121.492
		S116.966,69.585,116.966,138.847v8.678c0,4.793-3.885,8.678-8.678,8.678s-8.678-3.885-8.678-8.678v-8.678
		C99.61,59.691,163.034,0,247.135,0s147.525,59.691,147.525,138.847v8.678C394.661,152.318,390.776,156.203,385.983,156.203z"/>
	<path style="fill:#95A5A5;" d="M99.61,147.499h295.051c9.585,0,17.356,7.771,17.356,17.356v52.068
		c0,9.585-7.771,17.356-17.356,17.356H99.61c-9.585,0-17.356-7.771-17.356-17.356v-52.068
		C82.254,155.27,90.025,147.499,99.61,147.499z"/>
	<path style="fill:#F29C1F;" d="M446.729,511.627v-17.356c-0.003-26.364-14.898-50.464-38.478-62.256l-95.692-41.446
		c-5.544-3.329-9.912-8.304-12.496-14.232c-1.246-2.557-1.087-5.576,0.421-7.988c1.509-2.412,4.153-3.876,6.998-3.875h61.145
		c14.839,1.218,29.766-0.765,43.772-5.814c5.296-2.324,9.27-6.903,10.825-12.473c1.555-5.571,0.528-11.545-2.798-16.277
		c-20.419-29.063-59.114-94.356-60.477-165.029c0,0-5.484-111.928-112.814-112.814c-62.612,0.521-86.302,37.367-100.074,67.992
		c-7.281,17.261-11.419,35.685-12.219,54.402c-4.452,67.358-38.756,130.959-54.741,157.297c-5.513,8.936-2.753,20.648,6.17,26.181
		c10.014,5.362,21.393,7.636,32.699,6.535h68.981c3.021-0.002,5.713,1.91,6.706,4.763c0.994,2.853,0.071,6.023-2.298,7.898
		c-3.37,2.785-6.918,5.348-10.622,7.671l-80.566,46.661c-22.362,12.194-36.276,35.631-36.274,61.102v19.057H446.729z"/>
	<path style="fill:#BDC3C7;" d="M238.457,286.347c0.008,2.304-0.904,4.516-2.533,6.145c-1.629,1.629-3.841,2.541-6.145,2.533
		H116.966c-9.207,0.003-18.038-3.654-24.548-10.164c-6.51-6.51-10.167-15.341-10.164-24.548v-43.39
		c0.028,9.574,7.782,17.328,17.356,17.356v26.034c-0.001,4.603,1.827,9.019,5.082,12.274c3.255,3.255,7.67,5.083,12.274,5.082
		h112.814C234.566,277.683,238.443,281.56,238.457,286.347z"/>
	<path style="fill:#E6E7E8;" d="M238.457,268.991h26.034c9.585,0,17.356,7.771,17.356,17.356l0,0
		c0,9.585-7.771,17.356-17.356,17.356h-26.034c-9.585,0-17.356-7.771-17.356-17.356l0,0
		C221.102,276.761,228.872,268.991,238.457,268.991z"/>
</g>
<g>
</g>
<g>
</g>
<g>
</g>
<g>
</g>
<g>
</g>
<g>
</g>
<g>
</g>
<g>
</g>
<g>
</g>
<g>
</g>
<g>
</g>
<g>
</g>
<g>
</g>
<g>
</g>
<g>
</g>
</svg>
