<?xml version="1.0" encoding="iso-8859-1"?>
<!-- Generator: Adobe Illustrator 19.0.0, SVG Export Plug-In . SVG Version: 6.00 Build 0)  -->
<svg version="1.1" id="Capa_1" xmlns="http://www.w3.org/2000/svg" xmlns:xlink="http://www.w3.org/1999/xlink" x="0px" y="0px"
	 viewBox="0 0 512 512" style="enable-background:new 0 0 512 512;" xml:space="preserve">
<g>
	<path style="fill:#95A5A5;" d="M424.519,151.482c5.679,9.522,10.551,19.502,14.565,29.837h-70.886
		c-24.193-38.664-66.589-62.147-112.198-62.147s-88.005,23.483-112.198,62.147H72.916c4.014-10.335,8.886-20.315,14.565-29.837
		L63.735,96.133c5.474-6.709,11.299-13.153,17.479-19.421c6.133-6.166,12.618-11.972,19.421-17.39l55.436,23.658
		c16.033-9.57,33.368-16.766,51.466-21.363l22.422-55.79c17.31-1.884,34.772-1.884,52.082,0l22.422,55.79
		c18.097,4.597,35.433,11.793,51.466,21.363l55.437-23.658c6.803,5.418,13.288,11.225,19.421,17.39
		c6.179,6.268,12.004,12.712,17.479,19.421L424.519,151.482z"/>
	<path style="fill:#547580;" d="M439.084,172.138h46.433c7.027-0.009,13.768,2.778,18.736,7.746
		c4.969,4.969,7.756,11.71,7.746,18.737v282.483c0.009,7.027-2.778,13.768-7.746,18.736s-11.71,7.756-18.736,7.746H26.483
		c-7.027,0.009-13.768-2.778-18.737-7.746S-0.009,488.13,0,481.104V198.621c-0.009-7.027,2.778-13.768,7.746-18.737
		c4.969-4.969,11.71-7.756,18.737-7.746h46.433"/>
	<path style="fill:#90BAE1;" d="M342.687,207.448h107.52c4.869,0.014,8.813,3.958,8.828,8.828v247.172
		c-0.014,4.869-3.958,8.813-8.828,8.828H44.138c-4.869-0.014-8.813-3.958-8.828-8.828V216.276c0.014-4.869,3.958-8.813,8.828-8.828
		H342.687z"/>
	<g>
		<path style="fill:#B0D3F0;" d="M70.621,260.414c2.342,0.003,4.588-0.928,6.241-2.586L85.689,249
			c3.394-3.456,3.369-9.001-0.056-12.426c-3.425-3.425-8.97-3.45-12.426-0.056l-8.828,8.828c-2.524,2.525-3.279,6.321-1.913,9.619
			C63.833,258.262,67.051,260.413,70.621,260.414z"/>
		<path style="fill:#B0D3F0;" d="M129.827,236.518c-1.655-1.656-3.9-2.586-6.241-2.586c-2.341,0-4.586,0.93-6.241,2.586
			l-52.966,52.966c-2.253,2.225-3.142,5.487-2.328,8.547c0.813,3.06,3.204,5.451,6.264,6.264c3.061,0.813,6.322-0.076,8.547-2.329
			L129.827,249c1.656-1.655,2.586-3.9,2.586-6.241C132.413,240.418,131.483,238.173,129.827,236.518z"/>
	</g>
	<path style="fill:#84B5CB;" d="M512,331.035v17.655h-17.655c-4.875,0-8.828-3.952-8.828-8.828s3.952-8.828,8.828-8.828H512z"/>
	<path style="fill:#F29C1F;" d="M335.448,472.276c-2.562-3.243-5.815-5.874-9.523-7.699l-44.44-26.004
		c-4.774-2.331-7.81-7.172-7.83-12.485v-5.271c0.346-3.664,2.036-7.07,4.742-9.563c2.978-3.757,5.483-7.865,7.46-12.233
		c7.182-15.684,5.453-32.36,5.453-49.105v-30.232c0.085-11.042-4.257-21.659-12.054-29.478
		c-7.797-7.819-18.401-12.191-29.444-12.138h-14.108c-11.043-0.053-21.647,4.318-29.444,12.138
		c-7.797,7.819-12.138,18.436-12.054,29.478v34.486c0,17.911-1.033,35.171,7.712,51.544c3.043,5.698,9.944,11.248,9.944,17.94v5.271
		c-0.02,5.313-3.056,10.153-7.83,12.485l-44.44,23.166c-3.708,1.825-6.961,4.456-9.523,7.699H335.448z"/>
	<g>
		<path style="fill:#E6E7E8;" d="M317.793,339.862c-2.342,0.001-4.588-0.928-6.244-2.584c-1.656-1.656-2.585-3.902-2.584-6.244
			v-4.414c0-41.371-29.698-75.035-66.207-75.035s-66.207,33.664-66.207,75.035v4.414c0,4.875-3.952,8.828-8.828,8.828
			s-8.828-3.952-8.828-8.828v-4.414c0-51.112,37.621-92.69,83.862-92.69s83.862,41.578,83.862,92.69v4.414
			c0.001,2.342-0.928,4.588-2.584,6.244C322.381,338.934,320.135,339.864,317.793,339.862z"/>
		<path style="fill:#E6E7E8;" d="M247.172,419.31h-70.621c-9.745-0.013-17.643-7.91-17.655-17.655v-26.483
			c0-4.875,3.952-8.828,8.828-8.828s8.828,3.952,8.828,8.828v26.483h70.621c4.875,0,8.828,3.952,8.828,8.828
			S252.048,419.31,247.172,419.31z"/>
	</g>
	<g>
		<rect x="158.897" y="331.035" style="fill:#7F8C8D;" width="35.31" height="44.138"/>
		<path style="fill:#7F8C8D;" d="M291.31,331.035h35.31v35.31c0,4.875-3.952,8.828-8.828,8.828H291.31V331.035z"/>
	</g>
</g>
<g>
</g>
<g>
</g>
<g>
</g>
<g>
</g>
<g>
</g>
<g>
</g>
<g>
</g>
<g>
</g>
<g>
</g>
<g>
</g>
<g>
</g>
<g>
</g>
<g>
</g>
<g>
</g>
<g>
</g>
</svg>
