<?xml version="1.0" encoding="iso-8859-1"?>
<!-- Generator: Adobe Illustrator 19.0.0, SVG Export Plug-In . SVG Version: 6.00 Build 0)  -->
<svg version="1.1" id="Capa_1" xmlns="http://www.w3.org/2000/svg" xmlns:xlink="http://www.w3.org/1999/xlink" x="0px" y="0px"
	 viewBox="0 0 512.031 512.031" style="enable-background:new 0 0 512.031 512.031;" xml:space="preserve">
<g transform="translate(0 -1)">
	<path style="fill:#4482C3;" d="M505.538,305.167l-37.142-45.655c-0.288-0.353-0.64-0.619-0.941-0.953
		c-0.578-0.641-1.173-1.251-1.811-1.833c-0.637-0.582-1.293-1.12-1.974-1.629c-0.655-0.491-1.32-0.951-2.02-1.381
		c-0.74-0.453-1.492-0.855-2.266-1.23c-0.734-0.358-1.472-0.691-2.242-0.981c-0.822-0.308-1.652-0.551-2.497-0.775
		c-0.77-0.205-1.535-0.404-2.332-0.54c-0.96-0.151-1.927-0.249-2.898-0.293c-0.527-0.031-1.027-0.157-1.562-0.157
		c-0.209,0-0.403,0.057-0.611,0.062c-1.034,0.043-2.064,0.147-3.086,0.311c-0.681,0.096-1.372,0.141-2.035,0.288
		c-0.919,0.232-1.825,0.513-2.714,0.843c-0.717,0.243-1.455,0.43-2.143,0.731c-0.728,0.319-1.412,0.762-2.12,1.15
		c-0.806,0.408-1.59,0.857-2.349,1.346c-0.081,0.057-0.172,0.088-0.253,0.145l-47.431,33.608
		c-11.278,7.96-14.532,23.258-7.47,35.119c7.062,11.861,22.061,16.291,34.434,10.171c-26.658,82.516-107.238,135.282-193.53,126.729
		S63.599,384.132,53.658,297.989s41.52-167.563,123.595-195.546c-4.89,12.282,0.05,26.287,11.563,32.784
		c11.513,6.497,26.055,3.484,34.041-7.051l35.138-46.25c0.15-0.198,0.24-0.421,0.384-0.622c0.514-0.715,0.943-1.478,1.386-2.245
		c0.418-0.726,0.847-1.441,1.191-2.193c0.336-0.736,0.59-1.505,0.858-2.275c0.31-0.842,0.576-1.7,0.797-2.57
		c0.175-0.734,0.278-1.485,0.39-2.241c0.151-0.96,0.249-1.929,0.293-2.9c0.012-0.331,0.099-0.642,0.099-0.976
		c0-0.435-0.107-0.841-0.128-1.27c-0.044-0.956-0.14-1.908-0.288-2.854c-0.123-0.781-0.27-1.544-0.46-2.3
		c-0.22-0.862-0.484-1.711-0.79-2.546c-0.273-0.755-0.555-1.496-0.893-2.217c-0.38-0.792-0.8-1.565-1.257-2.316
		c-0.413-0.691-0.826-1.37-1.298-2.018c-0.505-0.695-1.068-1.346-1.648-1.997c-0.566-0.636-1.134-1.256-1.758-1.835
		c-0.248-0.23-0.435-0.501-0.693-0.724l-44.642-38.4c-7.171-6.183-17.098-8.067-26.036-4.941
		c-8.938,3.126-15.527,10.786-17.283,20.09s1.591,18.839,8.776,25.006l0.052,0.045C64.565,77.777-8.525,182.651,1.432,296.74
		S101.54,501.456,215.574,512.013c114.035,10.557,219.292-61.98,250.024-172.302c9.652,10.556,25.953,11.511,36.771,2.154
		C513.188,332.508,514.592,316.24,505.538,305.167z"/>
	<path style="fill:#ffffff;" d="M511.477,53.99v79.448c-0.029,9.739-7.916,17.627-17.655,17.655h-88.276l-37.429,49.876
		c-2.407,2.797-6.299,3.803-9.76,2.525c-3.462-1.278-5.764-4.573-5.776-8.263v-44.138h-17.655
		c-9.739-0.029-17.626-7.916-17.655-17.655V53.99c0.028-9.739,7.916-17.627,17.655-17.655h158.897
		C503.561,36.363,511.449,44.251,511.477,53.99z"/>
	<g>
		<path style="fill:#95A5A5;" d="M334.926,292.331h-17.655v-22.069c0-4.875-3.952-8.828-8.828-8.828s-8.828,3.952-8.828,8.828
			v22.069h-37.409l44.944-74.905c1.623-2.704,1.68-6.069,0.15-8.827s-4.416-4.49-7.569-4.543c-3.153-0.054-6.096,1.579-7.719,4.283
			l-52.966,88.276c-1.636,2.727-1.679,6.124-0.113,8.891s4.501,4.479,7.681,4.479h53v26.483c0,4.875,3.952,8.828,8.828,8.828
			s8.828-3.952,8.828-8.828v-26.483h17.655c4.875,0,8.828-3.952,8.828-8.828S339.801,292.331,334.926,292.331z"/>
		<path style="fill:#95A5A5;" d="M211.339,327.642h-49.121c21.793-16.371,49.121-43.966,49.121-79.448
			c0-18.357-11.362-34.797-28.533-41.287c-17.171-6.49-36.567-1.675-48.708,12.093c-3.226,3.657-2.876,9.236,0.78,12.461
			c3.657,3.226,9.236,2.876,12.461-0.78c7.284-8.263,18.921-11.154,29.225-7.26c10.304,3.894,17.121,13.759,17.12,24.773
			c0,46.828-65.091,80.052-65.746,80.384c-3.657,1.834-5.575,5.941-4.634,9.922c0.941,3.982,4.495,6.795,8.587,6.797h79.448
			c4.875,0,8.828-3.952,8.828-8.828S216.215,327.642,211.339,327.642z"/>
	</g>
</g>
<g>
</g>
<g>
</g>
<g>
</g>
<g>
</g>
<g>
</g>
<g>
</g>
<g>
</g>
<g>
</g>
<g>
</g>
<g>
</g>
<g>
</g>
<g>
</g>
<g>
</g>
<g>
</g>
<g>
</g>
</svg>
