<?xml version="1.0" encoding="iso-8859-1"?>
<!-- Generator: Adobe Illustrator 19.0.0, SVG Export Plug-In . SVG Version: 6.00 Build 0)  -->
<svg version="1.1" id="Capa_1" xmlns="http://www.w3.org/2000/svg" xmlns:xlink="http://www.w3.org/1999/xlink" x="0px" y="0px"
	 viewBox="0 0 510.969 510.969" style="enable-background:new 0 0 510.969 510.969;" xml:space="preserve">
<g transform="translate(0 -1)">
	<g>
		<path style="fill:#802F34;" d="M346.088,100.287c-4.793,0-8.678-3.885-8.678-8.678V56.897c0-4.793,3.885-8.678,8.678-8.678
			c4.793,0,8.678,3.885,8.678,8.678v34.712C354.766,96.401,350.88,100.287,346.088,100.287z"/>
		<path style="fill:#802F34;" d="M450.223,100.287c-4.793,0-8.678-3.885-8.678-8.678V56.897c0-4.793,3.885-8.678,8.678-8.678
			c4.793,0,8.678,3.885,8.678,8.678v34.712C458.901,96.401,455.016,100.287,450.223,100.287z"/>
		<path style="fill:#802F34;" d="M502.291,82.931c-4.793,0-8.678-3.885-8.678-8.678V63.837
			c-0.123-18.304-15.039-33.055-33.343-32.975H336.041c-18.304-0.081-33.22,14.67-33.343,32.975v10.415
			c0,4.793-3.885,8.678-8.678,8.678s-8.678-3.885-8.678-8.678V63.837c0.132-27.886,22.813-50.402,50.699-50.33H460.27
			c27.886-0.071,50.567,22.445,50.699,50.33v10.415C510.969,79.045,507.084,82.931,502.291,82.931z"/>
	</g>
	<path style="fill:#CC4B4C;" d="M493.613,169.71v17.356H302.698V169.71l18.148-75.587c4.03-7.004,11.529-11.284,19.609-11.193
		h115.403c8.089-0.125,15.603,4.165,19.609,11.193L493.613,169.71z"/>
	<path style="fill:#4482C3;" d="M496.452,303.82l-36.513-44.881c-0.283-0.347-0.629-0.608-0.925-0.937
		c-0.568-0.63-1.154-1.229-1.78-1.801c-0.627-0.572-1.271-1.101-1.941-1.602c-0.644-0.483-1.298-0.935-1.986-1.358
		c-0.727-0.445-1.467-0.84-2.227-1.209c-0.722-0.352-1.447-0.679-2.204-0.964c-0.808-0.303-1.625-0.541-2.455-0.762
		c-0.757-0.202-1.509-0.397-2.292-0.531c-0.943-0.148-1.894-0.244-2.849-0.288c-0.518-0.031-1.009-0.155-1.535-0.155
		c-0.205,0-0.396,0.056-0.601,0.061c-1.016,0.042-2.029,0.145-3.033,0.306c-0.669,0.094-1.349,0.139-2,0.283
		c-0.904,0.228-1.794,0.505-2.668,0.828c-0.705,0.239-1.43,0.423-2.106,0.718c-0.716,0.314-1.388,0.749-2.084,1.131
		c-0.792,0.401-1.563,0.843-2.309,1.323c-0.08,0.056-0.169,0.086-0.249,0.143l-46.627,33.038
		c-11.087,7.825-14.285,22.864-7.343,34.524c6.942,11.66,21.687,16.015,33.85,9.998c-26.206,81.117-105.42,132.989-190.25,124.581
		s-152.32-74.82-162.093-159.503s40.816-164.723,121.5-192.232c-4.807,12.074,0.049,25.842,11.367,32.228
		c11.318,6.386,25.614,3.425,33.464-6.931l34.542-45.466c0.148-0.194,0.236-0.414,0.377-0.611c0.505-0.703,0.927-1.453,1.362-2.207
		c0.411-0.714,0.833-1.417,1.17-2.156c0.331-0.723,0.58-1.479,0.844-2.236c0.305-0.828,0.566-1.671,0.784-2.526
		c0.172-0.721,0.273-1.46,0.383-2.203c0.148-0.944,0.244-1.896,0.288-2.851c0.012-0.326,0.097-0.631,0.097-0.96
		c0-0.428-0.105-0.826-0.126-1.249c-0.043-0.939-0.138-1.876-0.283-2.805c-0.121-0.767-0.265-1.517-0.452-2.261
		c-0.217-0.847-0.476-1.682-0.777-2.503c-0.268-0.743-0.545-1.47-0.878-2.18c-0.374-0.779-0.786-1.539-1.236-2.276
		c-0.406-0.679-0.812-1.347-1.276-1.984c-0.496-0.683-1.05-1.323-1.62-1.963c-0.556-0.626-1.115-1.235-1.728-1.804
		c-0.244-0.226-0.427-0.493-0.681-0.712l-43.885-37.749c-7.05-6.078-16.809-7.93-25.595-4.857s-15.264,10.603-16.99,19.75
		c-1.725,9.147,1.564,18.519,8.627,24.582l0.051,0.045C62.953,80.285-8.898,183.38,0.89,295.536S99.301,496.782,211.403,507.16
		c112.102,10.378,215.575-60.929,245.786-169.381c9.488,10.377,25.513,11.316,36.148,2.118S505.353,314.705,496.452,303.82z"/>
	<path style="fill:#802F34;" d="M302.698,169.71h190.915v26.034c0,9.585-7.771,17.356-17.356,17.356H320.054
		c-9.585,0-17.356-7.771-17.356-17.356V169.71z"/>
	<circle style="fill:#ECF0F1;" cx="398.155" cy="143.676" r="26.034"/>
	<g>
		<path style="fill:#95A5A5;" d="M320.054,291.202H294.02v-21.695c0-4.793-3.885-8.678-8.678-8.678
			c-4.793,0-8.678,3.885-8.678,8.678v21.695h-38.055l37.135-74.22c1.392-2.772,1.198-6.077-0.51-8.668
			c-1.708-2.59-4.668-4.071-7.765-3.885c-3.097,0.187-5.858,2.013-7.242,4.789l-43.424,86.78c-1.345,2.69-1.202,5.884,0.378,8.443
			c1.581,2.559,4.373,4.116,7.38,4.117h52.102v26.034c0,4.793,3.885,8.678,8.678,8.678c4.793,0,8.678-3.885,8.678-8.678v-26.034
			h26.034c4.793,0,8.678-3.885,8.678-8.678S324.846,291.202,320.054,291.202z"/>
		<path style="fill:#95A5A5;" d="M189.884,325.914h-48.288c21.424-16.093,48.288-43.22,48.288-78.102
			c0-18.046-11.169-34.207-28.049-40.587c-16.88-6.38-35.947-1.646-47.883,11.888c-3.171,3.595-2.828,9.079,0.767,12.25
			c3.595,3.171,9.079,2.828,12.25-0.767c7.16-8.123,18.601-10.965,28.73-7.137c10.129,3.828,16.831,13.525,16.83,24.353
			c0,46.034-63.987,78.695-64.631,79.022c-3.595,1.803-5.481,5.84-4.555,9.754s4.419,6.68,8.441,6.682h78.102
			c4.793,0,8.678-3.885,8.678-8.678C198.562,329.799,194.677,325.914,189.884,325.914z"/>
	</g>
</g>
<g>
</g>
<g>
</g>
<g>
</g>
<g>
</g>
<g>
</g>
<g>
</g>
<g>
</g>
<g>
</g>
<g>
</g>
<g>
</g>
<g>
</g>
<g>
</g>
<g>
</g>
<g>
</g>
<g>
</g>
</svg>
