<?xml version="1.0" encoding="iso-8859-1"?>
<!-- Generator: Adobe Illustrator 19.0.0, SVG Export Plug-In . SVG Version: 6.00 Build 0)  -->
<svg version="1.1" id="Capa_1" xmlns="http://www.w3.org/2000/svg" xmlns:xlink="http://www.w3.org/1999/xlink" x="0px" y="0px"
	 viewBox="0 0 512 512" style="enable-background:new 0 0 512 512;" xml:space="preserve">
<g>
	<path style="fill:#ffffff;" d="M441.379,61.793l35.78,7.156c4.468,0.505,7.962,4.086,8.358,8.564v48.008
		c-0.396,4.478-3.891,8.059-8.358,8.564l-35.78,7.156V61.793z"/>
	<path style="fill:#F29C1F;" d="M441.379,167.724l35.78,7.156c4.468,0.505,7.962,4.086,8.358,8.564v48.008
		c-0.396,4.478-3.891,8.059-8.358,8.564l-35.78,7.156V167.724z"/>
	<path style="fill:#E64C3C;" d="M441.379,273.655l35.78,7.156c4.468,0.505,7.962,4.086,8.358,8.564v48.008
		c-0.396,4.478-3.891,8.059-8.358,8.564l-35.78,7.156V273.655z"/>
	<path style="fill:#8697CB;" d="M441.379,379.586l35.78,7.156c4.468,0.505,7.962,4.086,8.358,8.564v48.008
		c-0.396,4.478-3.891,8.059-8.358,8.564l-35.78,7.156V379.586z"/>
	<path style="fill:#95A5A5;" d="M70.621,485.517v8.828c0.029,9.739,7.916,17.627,17.655,17.655h344.276
		c9.739-0.029,17.627-7.916,17.655-17.655V17.655C450.178,7.916,442.291,0.029,432.552,0H88.276
		c-9.739,0.029-17.627,7.916-17.655,17.655V485.517z"/>
	<g>
		<circle style="fill:#E6E7E8;" cx="256" cy="150.069" r="35.31"/>
		<path style="fill:#E6E7E8;" d="M238.345,264.828v70.621c0,4.875-3.952,8.828-8.828,8.828h-17.655
			c-4.875,0-8.828,3.952-8.828,8.828v35.31c0,4.875,3.952,8.828,8.828,8.828h105.931c4.875,0,8.828-3.952,8.828-8.828v-35.31
			c0-4.875-3.952-8.828-8.828-8.828h-17.655c-4.875,0-8.828-3.952-8.828-8.828V229.517c0-4.875-3.952-8.828-8.828-8.828H220.69
			c-4.875,0-8.828,3.952-8.828,8.828v17.655c0,4.875,3.952,8.828,8.828,8.828h8.828C234.393,256,238.345,259.952,238.345,264.828z"
			/>
	</g>
	<g>
		<path style="fill:#3F5C6C;" d="M48.552,44.138h35.31c12.188,0,22.069,9.881,22.069,22.069l0,0
			c0,12.188-9.881,22.069-22.069,22.069h-35.31c-12.188,0-22.069-9.881-22.069-22.069l0,0
			C26.483,54.019,36.363,44.138,48.552,44.138z"/>
		<path style="fill:#3F5C6C;" d="M48.552,123.586h35.31c12.188,0,22.069,9.881,22.069,22.069l0,0
			c0,12.188-9.881,22.069-22.069,22.069h-35.31c-12.188,0-22.069-9.881-22.069-22.069l0,0
			C26.483,133.467,36.363,123.586,48.552,123.586z"/>
		<path style="fill:#3F5C6C;" d="M48.552,203.034h35.31c12.188,0,22.069,9.881,22.069,22.069l0,0
			c0,12.188-9.881,22.069-22.069,22.069h-35.31c-12.188,0-22.069-9.881-22.069-22.069l0,0
			C26.483,212.915,36.363,203.034,48.552,203.034z"/>
		<path style="fill:#3F5C6C;" d="M48.552,282.483h35.31c12.188,0,22.069,9.881,22.069,22.069l0,0
			c0,12.188-9.881,22.069-22.069,22.069h-35.31c-12.188,0-22.069-9.881-22.069-22.069l0,0
			C26.483,292.363,36.363,282.483,48.552,282.483z"/>
		<path style="fill:#3F5C6C;" d="M48.552,361.931h35.31c12.188,0,22.069,9.881,22.069,22.069l0,0
			c0,12.188-9.881,22.069-22.069,22.069h-35.31c-12.188,0-22.069-9.881-22.069-22.069l0,0
			C26.483,371.812,36.363,361.931,48.552,361.931z"/>
		<path style="fill:#3F5C6C;" d="M48.552,441.379h35.31c12.188,0,22.069,9.881,22.069,22.069l0,0
			c0,12.188-9.881,22.069-22.069,22.069h-35.31c-12.188,0-22.069-9.881-22.069-22.069l0,0
			C26.483,451.26,36.363,441.379,48.552,441.379z"/>
	</g>
</g>
<g>
</g>
<g>
</g>
<g>
</g>
<g>
</g>
<g>
</g>
<g>
</g>
<g>
</g>
<g>
</g>
<g>
</g>
<g>
</g>
<g>
</g>
<g>
</g>
<g>
</g>
<g>
</g>
<g>
</g>
</svg>
