<?xml version="1.0" encoding="iso-8859-1"?>
<!-- Generator: Adobe Illustrator 19.0.0, SVG Export Plug-In . SVG Version: 6.00 Build 0)  -->
<svg version="1.1" id="Capa_1" xmlns="http://www.w3.org/2000/svg" xmlns:xlink="http://www.w3.org/1999/xlink" x="0px" y="0px"
	 viewBox="0 0 512 512" style="enable-background:new 0 0 512 512;" xml:space="preserve">
<g>
	<path style="fill:#95A5A5;" d="M510.588,283.012c1.882-17.959,1.882-36.066,0-54.025l-57.821-23.128
		c-4.8-18.782-12.293-36.771-22.246-53.407l24.629-57.379c-5.651-6.974-11.741-13.683-18.097-20.127
		c-6.444-6.356-13.153-12.447-20.127-18.097l-57.379,24.629c-16.636-9.953-34.625-17.446-53.407-22.246L283.013,1.412
		c-17.959-1.883-36.066-1.883-54.026,0L205.86,59.233c-18.782,4.8-36.771,12.293-53.408,22.246L95.073,56.849
		c-6.974,5.65-13.683,11.741-20.127,18.097C68.59,81.39,62.5,88.099,56.849,95.073l24.629,57.379
		c-9.952,16.636-17.445,34.625-22.246,53.407L1.412,228.987c-1.882,17.959-1.882,36.066,0,54.025l57.821,23.128
		c4.8,18.782,12.293,36.771,22.246,53.407l-24.629,57.379c5.65,6.974,11.741,13.683,18.097,20.127
		c6.444,6.356,13.153,12.447,20.127,18.097l57.379-24.629c16.636,9.953,34.625,17.446,53.407,22.246l23.127,57.821
		c17.959,1.884,36.067,1.884,54.026,0l23.127-57.821c18.782-4.799,36.771-12.292,53.407-22.246l57.379,24.629
		c6.974-5.65,13.683-11.741,20.127-18.097c6.356-6.444,12.446-13.154,18.097-20.127l-24.629-57.379
		c9.953-16.636,17.445-34.625,22.246-53.407L510.588,283.012z M256,414.896c-87.756,0-158.897-71.14-158.897-158.897
		S168.244,97.103,256,97.103S414.896,168.244,414.896,256C414.889,343.753,343.753,414.889,256,414.896z"/>
	<path style="fill:#ffffff;" d="M353.103,194.207v105.931c-0.029,9.739-7.916,17.627-17.655,17.655H229.517l-35.046,33.71
		c-1.55,1.551-3.892,1.995-5.902,1.117s-3.276-2.898-3.191-5.089v-29.737h-8.828c-9.739-0.029-17.627-7.916-17.655-17.655V194.207
		c0.028-9.739,7.916-17.627,17.655-17.655h158.897C345.187,176.58,353.075,184.468,353.103,194.207z"/>
	<g>
		<path style="fill:#ECF0F1;" d="M256,203.034c-2.341-0.001-4.587,0.929-6.243,2.585c-1.656,1.656-2.585,3.901-2.585,6.243v35.31
			c0,4.875,3.952,8.828,8.828,8.828s8.828-3.952,8.828-8.828v-35.31c0.001-2.341-0.929-4.587-2.585-6.243
			C260.587,203.963,258.341,203.034,256,203.034z"/>
		<path style="fill:#ECF0F1;" d="M260.939,275.155c-0.491-0.335-1.024-0.603-1.586-0.797c-0.5-0.253-1.034-0.43-1.586-0.526
			c-1.72-0.361-3.51-0.177-5.121,0.526c-1.081,0.427-2.07,1.058-2.914,1.858c-3.414,3.481-3.414,9.054,0,12.534
			c0.845,0.797,1.834,1.426,2.914,1.854c1.061,0.453,2.2,0.693,3.354,0.707c0.592-0.021,1.183-0.08,1.767-0.177
			c0.551-0.099,1.086-0.278,1.586-0.53c0.562-0.194,1.095-0.462,1.586-0.797c0.464-0.324,0.908-0.676,1.328-1.056
			c3.414-3.481,3.414-9.054,0-12.534C261.847,275.835,261.404,275.48,260.939,275.155z"/>
	</g>
</g>
<g>
</g>
<g>
</g>
<g>
</g>
<g>
</g>
<g>
</g>
<g>
</g>
<g>
</g>
<g>
</g>
<g>
</g>
<g>
</g>
<g>
</g>
<g>
</g>
<g>
</g>
<g>
</g>
<g>
</g>
</svg>
