<?xml version="1.0" encoding="iso-8859-1"?>
<!-- Generator: Adobe Illustrator 19.0.0, SVG Export Plug-In . SVG Version: 6.00 Build 0)  -->
<svg version="1.1" id="Capa_1" xmlns="http://www.w3.org/2000/svg" xmlns:xlink="http://www.w3.org/1999/xlink" x="0px" y="0px"
	 viewBox="0 0 512 512" style="enable-background:new 0 0 512 512;" xml:space="preserve">
<g>
	<path style="fill:#BDC3C7;" d="M353.103,185.379v308.966c-0.029,9.739-7.916,17.627-17.655,17.655H17.655
		C7.916,511.971,0.029,504.084,0,494.345V185.379H353.103z"/>
	<path style="fill:#3F5C6C;" d="M353.103,114.759v70.621H0v-52.966c0.028-9.739,7.916-17.627,17.655-17.655H353.103z"/>
	<path style="fill:#E64C3C;" d="M35.31,158.897c-2.348,0.022-4.606-0.901-6.268-2.56c-0.78-0.859-1.408-1.844-1.858-2.914
		c-0.937-2.137-0.937-4.569,0-6.707c0.427-1.081,1.058-2.071,1.858-2.914c0.857-0.779,1.841-1.406,2.909-1.854
		c2.149-0.888,4.562-0.888,6.711,0c2.217,0.804,3.963,2.55,4.767,4.767c0.943,2.136,0.943,4.571,0,6.707
		c-0.45,1.068-1.077,2.053-1.854,2.914c-0.859,0.779-1.844,1.406-2.914,1.854C37.602,158.642,36.463,158.882,35.31,158.897z"/>
	<path style="fill:#ffffff;" d="M70.621,158.897c-2.348,0.022-4.606-0.901-6.268-2.56c-0.78-0.859-1.408-1.844-1.858-2.914
		c-0.937-2.137-0.937-4.569,0-6.707c0.427-1.081,1.058-2.071,1.858-2.914c0.857-0.779,1.841-1.406,2.909-1.854
		c2.149-0.888,4.562-0.888,6.711,0c2.217,0.804,3.963,2.55,4.767,4.767c0.943,2.136,0.943,4.571,0,6.707
		c-0.45,1.068-1.077,2.053-1.854,2.914c-0.859,0.779-1.844,1.406-2.914,1.854C72.913,158.642,71.774,158.882,70.621,158.897z"/>
	<path style="fill:#ffffff;" d="M105.931,158.897c-2.348,0.022-4.606-0.901-6.268-2.56c-0.78-0.859-1.408-1.844-1.858-2.914
		c-0.937-2.137-0.937-4.569,0-6.707c0.427-1.081,1.058-2.071,1.858-2.914c0.857-0.779,1.841-1.406,2.909-1.854
		c2.149-0.888,4.562-0.888,6.711,0c2.217,0.804,3.963,2.55,4.767,4.767c0.943,2.136,0.943,4.571,0,6.707
		c-0.45,1.068-1.077,2.053-1.854,2.914c-0.859,0.779-1.844,1.406-2.914,1.854C108.223,158.642,107.084,158.882,105.931,158.897z"/>
	<g>
		<path style="fill:#E64C3C;" d="M44.138,220.69h17.655c4.875,0,8.828,3.952,8.828,8.828v238.345c0,4.875-3.952,8.828-8.828,8.828
			H44.138c-4.875,0-8.828-3.952-8.828-8.828V229.517C35.31,224.642,39.263,220.69,44.138,220.69z"/>
		<path style="fill:#E64C3C;" d="M282.483,308.966h35.31v158.897c0,4.875-3.952,8.828-8.828,8.828H291.31
			c-4.875,0-8.828-3.952-8.828-8.828V308.966z"/>
	</g>
	<g>
		<path style="fill:#4482C3;" d="M114.759,220.69h132.414V256H114.759c-4.875,0-8.828-3.952-8.828-8.828v-17.655
			C105.931,224.642,109.883,220.69,114.759,220.69z"/>
		<path style="fill:#4482C3;" d="M114.759,291.31h123.586c4.875,0,8.828,3.952,8.828,8.828v167.724c0,4.875-3.952,8.828-8.828,8.828
			H114.759c-4.875,0-8.828-3.952-8.828-8.828V300.138C105.931,295.263,109.883,291.31,114.759,291.31z"/>
	</g>
	<path style="fill:#00a6fb;" d="M512,70.621v220.69c-0.029,9.739-7.916,17.627-17.655,17.655H264.828
		c-9.739-0.029-17.627-7.916-17.655-17.655V70.621H512z"/>
	<path style="fill:#3F5C6C;" d="M512,17.655v52.966H247.172V17.655C247.201,7.916,255.089,0.028,264.828,0h229.517
		C504.084,0.028,511.972,7.916,512,17.655z"/>
	<path style="fill:#E64C3C;" d="M282.483,44.138c-2.348,0.023-4.607-0.9-6.267-2.56c-1.66-1.66-2.583-3.919-2.56-6.267
		c0.033-2.337,0.947-4.576,2.56-6.268c0.857-0.779,1.841-1.406,2.909-1.854c3.289-1.379,7.084-0.648,9.626,1.854
		c1.611,1.693,2.525,3.931,2.56,6.268c0.023,2.348-0.9,4.607-2.56,6.267C287.09,43.238,284.831,44.161,282.483,44.138z"/>
	<path style="fill:#ffffff;" d="M317.793,44.138c-2.348,0.023-4.607-0.9-6.267-2.56c-1.66-1.66-2.583-3.919-2.56-6.267
		c0.033-2.337,0.947-4.576,2.56-6.268c0.857-0.779,1.841-1.406,2.909-1.854c3.289-1.379,7.084-0.648,9.626,1.854
		c1.611,1.693,2.526,3.931,2.56,6.268c0.023,2.348-0.9,4.607-2.56,6.267C322.4,43.238,320.141,44.161,317.793,44.138z"/>
	<path style="fill:#ffffff;" d="M353.103,44.138c-2.348,0.023-4.607-0.9-6.267-2.56c-1.66-1.66-2.583-3.919-2.56-6.267
		c0.033-2.337,0.947-4.576,2.56-6.268c0.857-0.779,1.841-1.406,2.909-1.854c3.289-1.379,7.084-0.648,9.626,1.854
		c1.611,1.693,2.525,3.931,2.56,6.268c0.023,2.348-0.9,4.607-2.56,6.267C357.71,43.238,355.452,44.161,353.103,44.138z"/>
	<path style="fill:#BDC3C7;" d="M441.379,185.379c-2.341,0.001-4.587-0.929-6.243-2.585c-1.656-1.656-2.585-3.901-2.585-6.243
		c0-32.914-26.815-61.793-57.379-61.793s-57.379,28.879-57.379,61.793c0,4.875-3.952,8.828-8.828,8.828s-8.828-3.952-8.828-8.828
		c0-42.319,35.065-79.448,75.034-79.448s75.034,37.129,75.034,79.448c0.001,2.341-0.929,4.587-2.585,6.243
		C445.966,184.45,443.721,185.38,441.379,185.379z"/>
	<path style="fill:#95A5A5;" d="M426.726,220.69h14.654c4.875,0,8.828-3.952,8.828-8.828v-35.31H300.138v35.31
		c0,4.875,3.952,8.828,8.828,8.828H426.726z"/>
	<path style="fill:#F29C1F;" d="M450.207,308.966v-6.247c-0.058-9.58-5.587-18.284-14.233-22.408l-35.397-14.918
		c-2.037-1.184-3.654-2.975-4.622-5.123c-0.452-0.933-0.386-2.033,0.175-2.905c0.56-0.872,1.534-1.389,2.57-1.365h22.618
		c0,0,14.147,1.554,19.829-6.778c0.333-0.479,0.308-1.122-0.063-1.573c-13.549-19.411-21.498-42.175-22.976-65.801
		c0,0-2.029-40.287-41.73-40.606c-21.921,0.679-39.742,17.895-41.177,39.779c-1.978,23.772-9.83,46.68-22.85,66.667
		c-0.316,0.47-0.335,1.081-0.047,1.569c3.999,5,10.315,7.555,16.666,6.742h25.517c1.102-0.033,2.099,0.648,2.471,1.686
		c0.371,1.038,0.032,2.197-0.84,2.871c-1.249,1.004-2.561,1.926-3.929,2.761l-29.802,16.795
		c-8.204,4.277-13.368,12.741-13.418,21.993v6.859H450.207z"/>
</g>
<g>
</g>
<g>
</g>
<g>
</g>
<g>
</g>
<g>
</g>
<g>
</g>
<g>
</g>
<g>
</g>
<g>
</g>
<g>
</g>
<g>
</g>
<g>
</g>
<g>
</g>
<g>
</g>
<g>
</g>
</svg>
