<?xml version="1.0" encoding="iso-8859-1"?>
<!-- Generator: Adobe Illustrator 19.0.0, SVG Export Plug-In . SVG Version: 6.00 Build 0)  -->
<svg version="1.1" id="Capa_1" xmlns="http://www.w3.org/2000/svg" xmlns:xlink="http://www.w3.org/1999/xlink" x="0px" y="0px"
	 viewBox="0 0 512.001 512.001" style="enable-background:new 0 0 512.001 512.001;" xml:space="preserve">
<g>
	<path style="fill:#3F5C6C;" d="M379.587,105.932h52.966c9.739,0.029,17.627,7.916,17.655,17.655v291.31H61.793v-291.31
		c0.029-9.739,7.916-17.627,17.655-17.655H379.587z"/>
	<polygon style="fill:#BDC3C7;" points="61.793,397.242 0,476.69 0,494.345 512,494.345 512,476.69 450.207,397.242 	"/>
	<path style="fill:#95A5A5;" d="M0,476.69h512v17.655c0,9.751-7.904,17.655-17.655,17.655H17.655C7.905,512.001,0,504.096,0,494.345
		V476.69z"/>
	<g>
		<path style="fill:#7F8C8D;" d="M397.242,432.552H114.759c-4.875,0-8.828,3.952-8.828,8.828s3.952,8.828,8.828,8.828h282.483
			c4.875,0,8.828-3.952,8.828-8.828S402.117,432.552,397.242,432.552z"/>
		<path style="fill:#7F8C8D;" d="M79.449,432.552h-8.828c-4.875,0-8.828,3.952-8.828,8.828s3.952,8.828,8.828,8.828h8.828
			c4.875,0,8.828-3.952,8.828-8.828S84.324,432.552,79.449,432.552z"/>
		<path style="fill:#7F8C8D;" d="M441.38,432.552h-8.828c-4.875,0-8.828,3.952-8.828,8.828s3.952,8.828,8.828,8.828h8.828
			c4.875,0,8.828-3.952,8.828-8.828S446.255,432.552,441.38,432.552z"/>
	</g>
	<path style="fill:#CC4B4C;" d="M264.828,8.828h35.31c14.608,0.043,26.44,11.874,26.483,26.483v35.31
		c-0.097,56.5-41.28,104.535-97.103,113.258v54.466c0,9.751,7.904,17.655,17.655,17.655c9.751,0,17.655-7.904,17.655-17.655
		c0-29.252,23.713-52.966,52.966-52.966s52.966,23.713,52.966,52.966v65.412c-11.276-4.825-24.035-4.825-35.31,0v-65.412
		c0-9.751-7.905-17.655-17.655-17.655s-17.655,7.904-17.655,17.655c0,29.252-23.713,52.966-52.965,52.966
		s-52.966-23.713-52.966-52.966v-54.466c-55.823-8.723-97.006-56.757-97.103-113.258v-35.31
		c0.043-14.608,11.874-26.44,26.483-26.483h35.31v35.31h-26.483v26.483c0,43.878,35.57,79.448,79.448,79.448
		s79.448-35.57,79.448-79.448V44.139h-26.483V8.828z"/>
	<g>
		<path style="fill:#BDC3C7;" d="M397.242,317.794c-0.033,22.036-16.313,40.672-38.146,43.664
			c-21.832,2.992-42.526-10.578-48.485-31.793c-5.959-21.215,4.642-43.575,24.838-52.39c11.276-4.825,24.035-4.825,35.31,0
			C386.821,284.357,397.202,300.239,397.242,317.794z"/>
		<path style="fill:#BDC3C7;" d="M194.207,26.483c0.009,7.027-2.778,13.768-7.746,18.737c-4.969,4.969-11.71,7.756-18.736,7.746
			c-7.532,0.053-14.715-3.168-19.686-8.828c-9.063-10.025-9.063-25.285,0-35.31c4.97-5.66,12.154-8.881,19.686-8.828
			c7.027-0.009,13.768,2.778,18.736,7.746C191.429,12.715,194.217,19.457,194.207,26.483z"/>
		<path style="fill:#BDC3C7;" d="M282.483,26.483c0.014,6.527-2.41,12.823-6.797,17.655c-4.97,5.66-12.154,8.881-19.686,8.828
			c-14.626,0-26.483-11.857-26.483-26.483S241.374,0.001,256,0.001c7.532-0.053,14.715,3.168,19.686,8.828
			C280.074,13.66,282.498,19.957,282.483,26.483z"/>
	</g>
</g>
<g>
</g>
<g>
</g>
<g>
</g>
<g>
</g>
<g>
</g>
<g>
</g>
<g>
</g>
<g>
</g>
<g>
</g>
<g>
</g>
<g>
</g>
<g>
</g>
<g>
</g>
<g>
</g>
<g>
</g>
</svg>
