<?xml version="1.0" encoding="iso-8859-1"?>
<!-- Generator: Adobe Illustrator 19.0.0, SVG Export Plug-In . SVG Version: 6.00 Build 0)  -->
<svg version="1.1" id="Capa_1" xmlns="http://www.w3.org/2000/svg" xmlns:xlink="http://www.w3.org/1999/xlink" x="0px" y="0px"
	 viewBox="0 0 512.042 512.042" style="enable-background:new 0 0 512.042 512.042;" xml:space="preserve">
<g transform="translate(0 -1)">
	<path style="fill:#BDC3C7;" d="M481.208,105.996h-0.085c-4.793-0.047-8.64-3.97-8.593-8.763
		c0.423-20.446-6.777-40.317-20.199-55.746c-12.238-14.316-30.021-22.706-48.852-23.047l-7.856-0.08
		c-0.208-0.004-0.419-0.004-0.627-0.004c-38.216,0-69.547,34.58-69.975,77.407c-0.128,4.758-4.004,8.558-8.763,8.593
		c-4.793-0.047-8.64-3.97-8.593-8.763C308.191,43.254,347.293,1,395.001,1c0.267,0,0.529,0,0.797,0.004l7.856,0.08
		c23.74,0.366,46.188,10.881,61.666,28.886c16.28,18.646,25.037,42.684,24.568,67.432
		C489.839,102.162,485.968,105.995,481.208,105.996z"/>
	<g>
		<rect x="308.089" y="96.5" style="fill:#95A5A5;" width="182.237" height="52.068"/>
		<path style="fill:#95A5A5;" d="M373.521,288.457l-37.749-48.683L205.863,139.369c-6.251-4.773-14.923-4.773-21.174,0
			L11.129,273.53c-2.219,1.713-3.978,3.949-5.12,6.508c-1.106,2.239-1.671,4.706-1.649,7.203v199.767
			c0.069,14.35,11.684,25.965,26.034,26.034h329.763c14.35-0.069,25.965-11.684,26.034-26.034V304.771L373.521,288.457z"/>
	</g>
	<path style="fill:#7F8C8D;" d="M373.521,288.457l-21.001,16.315l-115.504,89.296l-31.154-24.819
		c-6.181-4.975-14.993-4.975-21.174,0l-31.154,24.819L6.01,280.039c1.142-2.559,2.901-4.796,5.12-6.508l173.559-134.161
		c6.251-4.773,14.923-4.773,21.174,0l129.909,100.404L373.521,288.457z"/>
	<path style="fill:#BDC3C7;" d="M377.687,506.187c-4.768,4.416-11.03,6.865-17.529,6.856H30.394
		c-6.499,0.01-12.761-2.439-17.529-6.856l140.67-112.119l31.154-24.819c6.181-4.975,14.993-4.975,21.174,0l31.154,24.819
		L377.687,506.187z"/>
	<path style="fill:#F29C1F;" d="M507.682,289.585l0,15.186H290.733l0-16.228c-0.039-14.604,7.831-28.086,20.567-35.233
		l43.997-24.385c5.847-3.213,9.449-9.384,9.372-16.054V201.33c-0.01-1.058-0.344-2.087-0.955-2.951
		c-0.955-1.302-2.69-3.471-4.86-6.422c-4.072-5.453-7.645-11.262-10.674-17.356c-2.359-4.783-4.164-9.82-5.38-15.013V89.471
		c0,0-3.732-45.039,56.407-45.039s56.407,45.039,56.407,45.039v70.118c-4.173,14.254-11.299,27.471-20.914,38.791
		c-0.611,0.863-0.945,1.893-0.955,2.951v12.062c-0.067,6.852,3.724,13.159,9.806,16.315l42.262,23.864
		C499.276,260.529,507.718,274.43,507.682,289.585z"/>
	<path style="fill:#BDC3C7;" d="M412.225,183.28c-0.014,4.787-3.891,8.664-8.678,8.678h-69.424
		c-14.361-0.042-25.992-11.673-26.034-26.034v-17.356h17.356v17.356c0.014,4.787,3.891,8.664,8.678,8.678h69.424
		C408.334,174.616,412.211,178.493,412.225,183.28z"/>
</g>
<g>
</g>
<g>
</g>
<g>
</g>
<g>
</g>
<g>
</g>
<g>
</g>
<g>
</g>
<g>
</g>
<g>
</g>
<g>
</g>
<g>
</g>
<g>
</g>
<g>
</g>
<g>
</g>
<g>
</g>
</svg>
