<?xml version="1.0" encoding="iso-8859-1"?>
<!-- Generator: Adobe Illustrator 19.0.0, SVG Export Plug-In . SVG Version: 6.00 Build 0)  -->
<svg version="1.1" id="Capa_1" xmlns="http://www.w3.org/2000/svg" xmlns:xlink="http://www.w3.org/1999/xlink" x="0px" y="0px"
	 viewBox="0 0 512 512" style="enable-background:new 0 0 512 512;" xml:space="preserve">
<g>
	<path style="fill:#B19046;" d="M97.103,123.586h-35.31c-9.366-0.003-18.348,3.717-24.971,10.339
		c-6.623,6.623-10.342,15.605-10.339,24.971l0,105.931h459.034l0-61.793c0.009-7.027-2.778-13.768-7.746-18.737
		c-4.969-4.969-11.71-7.756-18.736-7.746h-44.138L97.103,123.586z"/>
	<path style="fill:#E4C05C;" d="M463.74,512H48.26c-8.849,0-16.331-6.551-17.5-15.322L0.158,267.161
		c-0.673-5.045,0.864-10.134,4.217-13.963s8.194-6.025,13.283-6.025h476.684c5.089,0,9.931,2.196,13.283,6.025
		c3.352,3.829,4.889,8.919,4.217,13.963L481.24,496.678C480.07,505.449,472.588,512,463.74,512z"/>
	<path style="fill:#D1D4D1;" d="M106.467,0h299.067c5.171,0,9.363,4.192,9.363,9.363v237.809H97.103V9.363
		C97.103,4.192,101.295,0,106.467,0z"/>
	<path style="fill:#F29C1F;" d="M351.748,189.606l-88.41-141.174c-1.577-2.537-4.352-4.079-7.339-4.079s-5.762,1.543-7.339,4.079
		l-88.41,141.174c-1.696,2.688-1.803,6.083-0.279,8.872c1.524,2.789,4.439,4.533,7.617,4.556H344.41
		c3.178-0.024,6.093-1.768,7.617-4.557C353.551,195.689,353.444,192.294,351.748,189.606z"/>
	<g>
		<path style="fill:#E6E7E8;" d="M256,176.552c-2.348,0.023-4.607-0.899-6.268-2.56c-0.778-0.859-1.405-1.845-1.854-2.914
			c-0.943-2.136-0.943-4.571,0-6.707c0.426-1.081,1.055-2.07,1.854-2.914c2.556-2.471,6.33-3.198,9.621-1.854
			c1.069,0.449,2.054,1.075,2.914,1.854c1.611,1.693,2.526,3.93,2.561,6.267c-0.014,1.153-0.254,2.293-0.707,3.353
			c-0.449,1.069-1.075,2.054-1.854,2.914C260.605,175.649,258.347,176.571,256,176.552z"/>
		<path style="fill:#E6E7E8;" d="M256,141.241c-2.342,0.001-4.588-0.928-6.244-2.584c-1.656-1.656-2.585-3.902-2.584-6.244v-35.31
			c0-4.875,3.952-8.828,8.828-8.828s8.828,3.952,8.828,8.828v35.31c0.001,2.342-0.928,4.588-2.584,6.244
			C260.588,140.313,258.342,141.243,256,141.241z"/>
	</g>
	<g>
		<path style="fill:#B19046;" d="M254.941,393.799c1.412-9.422,1.412-19.002,0-28.425l-19.421-6.444
			c-1.743-6.613-4.355-12.965-7.767-18.891l9.092-18.361c-5.642-7.642-12.396-14.397-20.039-20.039l-18.362,9.092
			c-5.926-3.413-12.278-6.025-18.89-7.768l-6.445-19.421c-9.422-1.412-19.003-1.412-28.425,0l-6.445,19.421
			c-6.612,1.743-12.965,4.355-18.89,7.768l-18.362-9.092c-7.642,5.642-14.397,12.396-20.039,20.039l9.092,18.361
			c-3.412,5.926-6.024,12.279-7.767,18.891l-19.421,6.444c-1.412,9.422-1.412,19.003,0,28.425l19.421,6.444
			c1.743,6.613,4.355,12.965,7.768,18.891l-9.092,18.361c5.642,7.642,12.396,14.397,20.039,20.039l18.361-9.092
			c5.926,3.413,12.278,6.025,18.89,7.768l6.445,19.421c9.422,1.412,19.003,1.412,28.425,0l6.445-19.421
			c6.612-1.743,12.964-4.355,18.89-7.768l18.362,9.092c7.642-5.642,14.397-12.396,20.039-20.039l-9.092-18.361
			c3.412-5.926,6.024-12.279,7.767-18.891L254.941,393.799z M158.897,423.724c-24.377,0-44.138-19.761-44.138-44.138
			s19.761-44.138,44.138-44.138s44.138,19.761,44.138,44.138C203.026,403.959,183.27,423.715,158.897,423.724z"/>
		<path style="fill:#B19046;" d="M449.324,373.583c1.177-7.724,1.177-15.581,0-23.305l-15.89-5.297
			c-1.435-5.405-3.572-10.598-6.356-15.448l7.503-14.919c-4.711-6.241-10.267-11.797-16.508-16.508l-14.919,7.503
			c-4.85-2.785-10.043-4.921-15.448-6.356l-5.295-15.89c-7.724-1.177-15.582-1.177-23.306,0l-5.295,15.89
			c-5.405,1.434-10.599,3.571-15.448,6.356l-14.919-7.503c-6.241,4.711-11.797,10.267-16.508,16.508l7.503,14.919
			c-2.784,4.85-4.921,10.043-6.356,15.448l-15.89,5.297c-1.177,7.724-1.177,15.581,0,23.305l15.89,5.297
			c1.435,5.405,3.572,10.599,6.356,15.448l-7.503,14.919c4.711,6.241,10.267,11.797,16.508,16.508l14.919-7.503
			c4.849,2.785,10.043,4.922,15.448,6.356l5.295,15.89c7.724,1.177,15.582,1.177,23.306,0l5.295-15.89
			c5.405-1.434,10.599-3.571,15.448-6.356l14.919,7.503c6.241-4.711,11.797-10.267,16.508-16.508l-7.503-14.919
			c2.784-4.85,4.921-10.043,6.356-15.448L449.324,373.583z M370.759,388.414c-14.626,0-26.483-11.857-26.483-26.483
			s11.857-26.483,26.483-26.483c14.626,0,26.483,11.857,26.483,26.483c0.009,7.027-2.778,13.768-7.746,18.736
			C384.526,385.636,377.785,388.423,370.759,388.414z"/>
	</g>
</g>
<g>
</g>
<g>
</g>
<g>
</g>
<g>
</g>
<g>
</g>
<g>
</g>
<g>
</g>
<g>
</g>
<g>
</g>
<g>
</g>
<g>
</g>
<g>
</g>
<g>
</g>
<g>
</g>
<g>
</g>
</svg>
