<?xml version="1.0" encoding="iso-8859-1"?>
<!-- Generator: Adobe Illustrator 19.0.0, SVG Export Plug-In . SVG Version: 6.00 Build 0)  -->
<svg version="1.1" id="Capa_1" xmlns="http://www.w3.org/2000/svg" xmlns:xlink="http://www.w3.org/1999/xlink" x="0px" y="0px"
	 viewBox="0 0 512 512" style="enable-background:new 0 0 512 512;" xml:space="preserve">
<g>
	<path style="fill:#BDC3C7;" d="M17.655,0h476.69C504.095,0,512,7.904,512,17.655v476.69c0,9.751-7.905,17.655-17.655,17.655H17.655
		C7.904,512,0,504.095,0,494.345V17.655C0,7.904,7.904,0,17.655,0z"/>
	<path style="fill:#3F5C6C;" d="M512,17.655v52.966H0V17.655C0.028,7.916,7.916,0.028,17.655,0h476.69
		C504.084,0.028,511.972,7.916,512,17.655z"/>
	<g>
		<path style="fill:#84B5CB;" d="M61.793,26.483H44.138c-4.875,0-8.828,3.952-8.828,8.828s3.952,8.828,8.828,8.828h17.655
			c4.875,0,8.828-3.952,8.828-8.828S66.668,26.483,61.793,26.483z"/>
		<path style="fill:#84B5CB;" d="M467.862,26.483h-17.655c-4.875,0-8.828,3.952-8.828,8.828s3.952,8.828,8.828,8.828h17.655
			c4.875,0,8.828-3.952,8.828-8.828S472.737,26.483,467.862,26.483z"/>
		<path style="fill:#84B5CB;" d="M379.586,26.483H132.414c-4.875,0-8.828,3.952-8.828,8.828s3.952,8.828,8.828,8.828h247.172
			c4.875,0,8.828-3.952,8.828-8.828S384.462,26.483,379.586,26.483z"/>
	</g>
	<g>
		<circle style="fill:#E57E25;" cx="423.724" cy="397.241" r="26.483"/>
		<path style="fill:#E57E25;" d="M467.863,467.862c0.877-11.953-3.491-23.697-11.966-32.172
			c-8.475-8.475-20.219-12.843-32.172-11.966c-11.954-0.877-23.697,3.491-32.172,11.966c-8.475,8.475-12.843,20.219-11.966,32.172
			H467.863z"/>
	</g>
	<path style="fill:#527F72;" d="M44.138,388.414v70.621c0.015,4.869,3.958,8.813,8.828,8.828h256
		c4.869-0.015,8.813-3.958,8.828-8.828v-8.828l35.31-26.483l-35.31-26.483v-8.828c-0.015-4.869-3.958-8.813-8.828-8.828h-256
		C48.096,379.601,44.152,383.544,44.138,388.414z"/>
	<g>
		<circle style="fill:#E57E25;" cx="88.276" cy="132.414" r="26.483"/>
		<path style="fill:#E57E25;" d="M44.138,203.034c-0.877-11.954,3.491-23.697,11.966-32.172s20.219-12.843,32.172-11.966
			c11.954-0.877,23.697,3.491,32.172,11.966s12.843,20.219,11.966,32.172H44.138z"/>
	</g>
	<path style="fill:#CC4B4C;" d="M467.863,123.586v70.621c-0.015,4.869-3.958,8.813-8.828,8.828h-256
		c-4.869-0.015-8.813-3.958-8.828-8.828v-8.828l-35.31-26.483l35.31-26.483v-8.828c0.015-4.869,3.958-8.813,8.828-8.828h256
		C463.904,114.773,467.848,118.717,467.863,123.586z"/>
	<g>
		<circle style="fill:#E57E25;" cx="88.276" cy="264.828" r="26.483"/>
		<path style="fill:#E57E25;" d="M44.138,335.448c-0.877-11.953,3.491-23.697,11.966-32.172
			c8.475-8.475,20.219-12.843,32.172-11.966c11.954-0.877,23.697,3.491,32.172,11.966c8.475,8.475,12.843,20.219,11.966,32.172
			H44.138z"/>
	</g>
	<path style="fill:#CC4B4C;" d="M467.863,256v70.621c-0.015,4.869-3.958,8.813-8.828,8.828h-256
		c-4.869-0.015-8.813-3.958-8.828-8.828v-8.828l-35.31-26.483l35.31-26.483V256c0.015-4.869,3.958-8.813,8.828-8.828h256
		C463.904,247.187,467.848,251.131,467.863,256z"/>
</g>
<g>
</g>
<g>
</g>
<g>
</g>
<g>
</g>
<g>
</g>
<g>
</g>
<g>
</g>
<g>
</g>
<g>
</g>
<g>
</g>
<g>
</g>
<g>
</g>
<g>
</g>
<g>
</g>
<g>
</g>
</svg>
