<?xml version="1.0" encoding="iso-8859-1"?>
<!-- Generator: Adobe Illustrator 19.0.0, SVG Export Plug-In . SVG Version: 6.00 Build 0)  -->
<svg version="1.1" id="Capa_1" xmlns="http://www.w3.org/2000/svg" xmlns:xlink="http://www.w3.org/1999/xlink" x="0px" y="0px"
	 viewBox="0 0 512 512" style="enable-background:new 0 0 512 512;" xml:space="preserve">
<g>
	<g>
		<path style="fill:#BDC3C7;" d="M273.655,282.483v34.427c0.246,7.764-4.473,14.825-11.741,17.568
			c-5.413,1.896-11.409,1.054-16.09-2.26c-4.681-3.314-7.468-8.689-7.479-14.424v-35.31H273.655z"/>
		<path style="fill:#BDC3C7;" d="M256,8.828C119.491,8.828,8.828,119.491,8.828,256S119.491,503.173,256,503.173
			S503.173,392.51,503.173,256C503.148,119.501,392.499,8.853,256,8.828z M256,423.724c-92.631,0-167.724-75.093-167.724-167.724
			S163.369,88.276,256,88.276S423.724,163.369,423.724,256C423.703,348.623,348.623,423.703,256,423.724z"/>
	</g>
	<path style="fill:#E4C05C;" d="M238.345,300.138c-4.869-0.014-8.813-3.958-8.828-8.828v-6.797
		c-0.009-5.321-2.437-10.349-6.597-13.665c-17.563-14.03-24.358-37.617-16.951-58.84c7.408-21.223,27.404-35.46,49.883-35.514
		s42.543,14.086,50.053,35.274c7.509,21.188,0.827,44.807-16.669,58.921c-4.234,3.343-6.719,8.429-6.753,13.824v6.797
		c-0.014,4.869-3.958,8.813-8.828,8.828H238.345z"/>
	<g>
		<path style="fill:#CC4B4C;" d="M321.718,17.695L300.519,94.72c-1.281,4.49-5.868,7.178-10.412,6.101
			c-22.441-4.956-45.694-4.956-68.135,0c-4.54,1.078-9.124-1.605-10.409-6.09l-21.281-77.036c-0.634-2.244-0.333-4.648,0.833-6.667
			c1.166-2.019,3.099-3.481,5.359-4.053c39.136-9.299,79.907-9.299,119.044-0.002c2.261,0.572,4.195,2.034,5.362,4.053
			S322.35,15.45,321.718,17.695z"/>
		<path style="fill:#CC4B4C;" d="M97.104,256c0.002,11.47,1.248,22.906,3.718,34.107c1.078,4.544-1.61,9.131-6.101,10.412
			l-77.026,21.198c-2.245,0.632-4.65,0.329-6.669-0.838c-2.019-1.167-3.481-3.101-4.053-5.362c-9.296-39.134-9.296-79.901,0-119.034
			c0.572-2.261,2.034-4.195,4.053-5.362s4.424-1.47,6.669-0.838l77.026,21.198c4.491,1.281,7.178,5.869,6.101,10.412
			C98.351,233.094,97.105,244.53,97.104,256z"/>
		<path style="fill:#CC4B4C;" d="M321.718,494.306c0.632,2.245,0.33,4.65-0.838,6.669c-1.167,2.019-3.101,3.481-5.362,4.053
			c-39.137,9.297-79.907,9.297-119.044-0.002c-2.26-0.572-4.193-2.034-5.359-4.053s-1.466-4.423-0.833-6.667l21.281-77.036
			c1.284-4.486,5.869-7.168,10.409-6.09c22.441,4.957,45.694,4.957,68.135,0c4.544-1.078,9.131,1.61,10.412,6.1L321.718,494.306z"/>
		<path style="fill:#CC4B4C;" d="M512,256c0.02,20.044-2.32,40.021-6.972,59.517c-0.572,2.261-2.034,4.195-4.053,5.362
			c-2.019,1.168-4.424,1.47-6.669,0.838L417.28,300.52c-4.491-1.281-7.178-5.869-6.101-10.412c4.957-22.468,4.957-45.746,0-68.214
			c-1.078-4.544,1.61-9.131,6.101-10.412l77.026-21.198c2.245-0.632,4.65-0.329,6.669,0.838c2.019,1.167,3.481,3.101,4.053,5.362
			C509.681,215.98,512.021,235.956,512,256z"/>
	</g>
	<path style="fill:#F9EAB0;" d="M273.785,238.363c-4.871-0.002-8.82-3.948-8.828-8.819c-0.006-4.868-3.951-8.813-8.819-8.819h-0.018
		c-4.875,0.002-8.83-3.948-8.832-8.823c-0.002-4.875,3.948-8.83,8.823-8.832h0.026c14.606,0.02,26.445,11.851,26.474,26.457
		c0.002,4.874-3.945,8.828-8.819,8.836L273.785,238.363z"/>
	<g>
		<path style="fill:#E4C05C;" d="M150.069,238.38c-3.154,0.002-6.069-1.68-7.647-4.41c-1.578-2.73-1.58-6.096-0.004-8.828
			c1.576-2.732,4.489-4.416,7.643-4.418l17.655-0.018h0.009c4.875-0.002,8.83,3.948,8.832,8.823c0.002,4.875-3.948,8.83-8.823,8.832
			l-17.655,0.018H150.069z"/>
		<path style="fill:#E4C05C;" d="M173.155,208.259c-1.028-0.002-2.049-0.18-3.017-0.526l-16.595-6.026
			c-4.574-1.674-6.931-6.735-5.267-11.313c1.664-4.578,6.72-6.945,11.301-5.291l16.586,6.026c4.033,1.458,6.435,5.605,5.693,9.829
			S177.444,208.262,173.155,208.259z"/>
		<path style="fill:#E4C05C;" d="M156.621,274.698c-4.283,0-7.948-3.074-8.694-7.291c-0.745-4.218,1.644-8.362,5.668-9.829
			l16.586-6.06c2.963-1.081,6.277-0.499,8.695,1.526c2.418,2.025,3.571,5.187,3.026,8.293c-0.545,3.106-2.706,5.686-5.669,6.767
			l-16.586,6.06C158.677,274.517,157.653,274.698,156.621,274.698z"/>
		<path style="fill:#E4C05C;" d="M344.276,238.363c-4.875,0.002-8.83-3.948-8.832-8.823c-0.002-4.875,3.948-8.83,8.823-8.832
			l17.655-0.018h0.009c4.875-0.002,8.83,3.948,8.832,8.823c0.002,4.875-3.948,8.83-8.823,8.832l-17.655,0.018H344.276z"/>
		<path style="fill:#E4C05C;" d="M339.061,208.112c-4.283,0-7.948-3.074-8.694-7.291c-0.745-4.218,1.644-8.362,5.668-9.829
			l16.586-6.052c4.58-1.671,9.648,0.687,11.319,5.267c1.671,4.58-0.687,9.648-5.267,11.319l-16.586,6.052
			C341.117,207.931,340.093,208.112,339.061,208.112z"/>
		<path style="fill:#E4C05C;" d="M355.707,274.517c-1.028-0.002-2.049-0.18-3.017-0.526l-16.595-6.026
			c-4.574-1.674-6.931-6.735-5.267-11.313c1.664-4.578,6.72-6.945,11.301-5.291l16.586,6.026c4.033,1.458,6.435,5.605,5.693,9.829
			C363.667,271.441,359.996,274.521,355.707,274.517z"/>
	</g>
</g>
<g>
</g>
<g>
</g>
<g>
</g>
<g>
</g>
<g>
</g>
<g>
</g>
<g>
</g>
<g>
</g>
<g>
</g>
<g>
</g>
<g>
</g>
<g>
</g>
<g>
</g>
<g>
</g>
<g>
</g>
</svg>
