<?xml version="1.0" encoding="iso-8859-1"?>
<!-- Generator: Adobe Illustrator 19.0.0, SVG Export Plug-In . SVG Version: 6.00 Build 0)  -->
<svg version="1.1" id="Capa_1" xmlns="http://www.w3.org/2000/svg" xmlns:xlink="http://www.w3.org/1999/xlink" x="0px" y="0px"
	 viewBox="0 0 512.001 512.001" style="enable-background:new 0 0 512.001 512.001;" xml:space="preserve">
<g>
	<path style="fill:#3F5C6C;" d="M379.587,123.588h52.966c9.739,0.029,17.627,7.916,17.655,17.655v273.655H61.794V141.243
		c0.029-9.739,7.916-17.627,17.655-17.655H379.587z"/>
	<polygon style="fill:#BDC3C7;" points="61.794,397.243 0.001,476.691 0.001,494.346 512.001,494.346 512.001,476.691 
		450.208,397.243 	"/>
	<path style="fill:#95A5A5;" d="M0.001,476.691h512v17.655c0,9.751-7.905,17.655-17.655,17.655H17.656
		c-9.751,0-17.655-7.905-17.655-17.655V476.691z"/>
	<g>
		<path style="fill:#7F8C8D;" d="M397.242,432.553H114.759c-4.875,0-8.828,3.952-8.828,8.828s3.952,8.828,8.828,8.828h282.483
			c4.875,0,8.828-3.952,8.828-8.828S402.117,432.553,397.242,432.553z"/>
		<path style="fill:#7F8C8D;" d="M79.449,432.553h-8.828c-4.875,0-8.828,3.952-8.828,8.828s3.952,8.828,8.828,8.828h8.828
			c4.875,0,8.828-3.952,8.828-8.828S84.324,432.553,79.449,432.553z"/>
		<path style="fill:#7F8C8D;" d="M441.38,432.553h-8.828c-4.875,0-8.828,3.952-8.828,8.828s3.952,8.828,8.828,8.828h8.828
			c4.875,0,8.828-3.952,8.828-8.828S446.255,432.553,441.38,432.553z"/>
	</g>
	<path style="fill:#E4C05C;" d="M361.917,104.123c0.564,30.697-12.242,60.124-35.09,80.632
		c-17.524,15.776-26.688,47.694-26.688,71.273h-88.276v-0.028c0-24.065-10.065-55.863-27.734-72.201
		c-32.64-30.155-42.998-77.472-25.942-118.506s57.903-67.067,102.301-65.2C316.297,2.918,360.507,48.261,361.917,104.123z"/>
	<path style="fill:#ECF0F1;" d="M220.69,247.174h70.621c9.751,0,17.655,7.904,17.655,17.655l0,0c0,9.751-7.905,17.655-17.655,17.655
		H220.69c-9.751,0-17.655-7.904-17.655-17.655l0,0C203.035,255.078,210.94,247.174,220.69,247.174z"/>
	<path style="fill:#BDC3C7;" d="M229.518,282.484h52.966c9.751,0,17.655,7.905,17.655,17.655l0,0
		c0,9.751-7.905,17.655-17.655,17.655h-52.966c-9.751,0-17.655-7.904-17.655-17.655l0,0
		C211.863,290.389,219.767,282.484,229.518,282.484z"/>
	<path style="fill:#ECF0F1;" d="M238.346,317.795h35.31v17.655c0,9.751-7.904,17.655-17.655,17.655
		c-9.751,0-17.655-7.905-17.655-17.655V317.795z"/>
	<path style="fill:#F9EAB0;" d="M326.621,114.76c-4.875,0-8.828-3.952-8.828-8.828c-0.038-34.112-27.682-61.755-61.793-61.793
		c-4.875,0-8.828-3.952-8.828-8.828s3.952-8.828,8.828-8.828c43.857,0.051,79.397,35.591,79.448,79.448
		c0,2.341-0.93,4.587-2.586,6.242C331.208,113.83,328.963,114.76,326.621,114.76z"/>
</g>
<g>
</g>
<g>
</g>
<g>
</g>
<g>
</g>
<g>
</g>
<g>
</g>
<g>
</g>
<g>
</g>
<g>
</g>
<g>
</g>
<g>
</g>
<g>
</g>
<g>
</g>
<g>
</g>
<g>
</g>
</svg>
