<?xml version="1.0" encoding="iso-8859-1"?>
<!-- Generator: Adobe Illustrator 19.0.0, SVG Export Plug-In . SVG Version: 6.00 Build 0)  -->
<svg version="1.1" id="Capa_1" xmlns="http://www.w3.org/2000/svg" xmlns:xlink="http://www.w3.org/1999/xlink" x="0px" y="0px"
	 viewBox="0 0 512 512" style="enable-background:new 0 0 512 512;" xml:space="preserve">
<g>
	<path style="fill:#BDC3C7;" d="M364.845,82.891c-11.405-34.269-38.294-61.158-72.563-72.564c-23.545-7.885-49.018-7.885-72.563,0
		c-34.269,11.406-61.158,38.295-72.563,72.564c-3.955,11.686-5.954,23.944-5.915,36.281h52.966
		c0-34.127,27.666-61.793,61.793-61.793s61.793,27.666,61.793,61.793h52.966C370.798,106.836,368.8,94.577,364.845,82.891z"/>
	<g>
		<path style="fill:#CC4B4C;" d="M236.491,60.557c-18.482,6.124-32.982,20.624-39.106,39.106l-50.229-16.772
			c11.405-34.269,38.294-61.158,72.563-72.564L236.491,60.557z"/>
		<path style="fill:#CC4B4C;" d="M364.844,82.891l-50.229,16.772c-6.124-18.482-20.624-32.982-39.106-39.106l16.772-50.23
			C326.55,21.733,353.439,48.623,364.844,82.891z"/>
	</g>
	<path style="fill:#3F5C6C;" d="M450.207,128v282.483H61.793V128c0.028-9.739,7.916-17.627,17.655-17.655h353.103
		C442.291,110.373,450.179,118.261,450.207,128z"/>
	<polygon style="fill:#BDC3C7;" points="61.793,392.828 0,472.276 0,489.931 512,489.931 512,472.276 450.207,392.828 	"/>
	<path style="fill:#95A5A5;" d="M0,472.276h512v17.655c0,9.751-7.905,17.655-17.655,17.655H17.655
		C7.904,507.586,0,499.682,0,489.931V472.276z"/>
	<g>
		<path style="fill:#7F8C8D;" d="M397.241,428.138H114.759c-4.875,0-8.828,3.952-8.828,8.828s3.952,8.828,8.828,8.828h282.483
			c4.875,0,8.828-3.952,8.828-8.828S402.117,428.138,397.241,428.138z"/>
		<path style="fill:#7F8C8D;" d="M79.448,428.138h-8.828c-4.875,0-8.828,3.952-8.828,8.828s3.952,8.828,8.828,8.828h8.828
			c4.875,0,8.828-3.952,8.828-8.828S84.324,428.138,79.448,428.138z"/>
		<path style="fill:#7F8C8D;" d="M441.379,428.138h-8.828c-4.875,0-8.828,3.952-8.828,8.828s3.952,8.828,8.828,8.828h8.828
			c4.875,0,8.828-3.952,8.828-8.828S446.255,428.138,441.379,428.138z"/>
	</g>
	<path style="fill:#ffffff;" d="M344.276,260.414L256,357.517l-88.276-97.103h44.138V154.483c0-4.875,3.952-8.828,8.828-8.828
		h70.621c4.875,0,8.828,3.952,8.828,8.828v105.931H344.276z"/>
</g>
<g>
</g>
<g>
</g>
<g>
</g>
<g>
</g>
<g>
</g>
<g>
</g>
<g>
</g>
<g>
</g>
<g>
</g>
<g>
</g>
<g>
</g>
<g>
</g>
<g>
</g>
<g>
</g>
<g>
</g>
</svg>
