<?xml version="1.0" encoding="iso-8859-1"?>
<!-- Generator: Adobe Illustrator 19.0.0, SVG Export Plug-In . SVG Version: 6.00 Build 0)  -->
<svg version="1.1" id="Capa_1" xmlns="http://www.w3.org/2000/svg" xmlns:xlink="http://www.w3.org/1999/xlink" x="0px" y="0px"
	 viewBox="0 0 512 512" style="enable-background:new 0 0 512 512;" xml:space="preserve">
<g>
	<path style="fill:#95A5A5;" d="M448.353,306.141c-4.8,18.782-12.293,36.771-22.246,53.407l24.629,57.379
		c-5.65,6.974-11.741,13.683-18.097,20.127c-6.444,6.356-13.153,12.447-20.127,18.097l-57.379-24.629
		c-13.168,7.838-27.174,14.175-41.754,18.891v-47.051c58.849-24.829,97.104-82.489,97.104-146.361s-38.255-121.533-97.104-146.361
		V62.588c14.581,4.717,28.586,11.053,41.754,18.891l57.379-24.629c6.974,5.65,13.683,11.741,20.127,18.097
		c6.356,6.444,12.447,13.153,18.097,20.127l-24.629,57.379c9.953,16.636,17.445,34.625,22.246,53.407l57.821,23.128
		c1.883,17.959,1.883,36.066,0,54.025L448.353,306.141z"/>
	<path style="fill:#8697CB;" d="M30.897,0h264.828c14.626,0,26.483,11.857,26.483,26.483v459.034
		c0,14.626-11.857,26.483-26.483,26.483H30.897c-14.626,0-26.483-11.857-26.483-26.483V26.483C4.414,11.857,16.271,0,30.897,0z"/>
	<path style="fill:#B0D3F0;" d="M286.897,353.103v114.759c-0.014,4.869-3.958,8.813-8.828,8.828H48.552
		c-4.869-0.014-8.813-3.958-8.828-8.828V44.138c0.014-4.869,3.958-8.813,8.828-8.828h35.31c4.869,0.014,8.813,3.958,8.828,8.828
		v17.655c0.014,4.869,3.958,8.813,8.828,8.828h123.586c4.869-0.014,8.813-3.958,8.828-8.828V44.138
		c0.014-4.869,3.958-8.813,8.828-8.828h35.31c4.869,0.014,8.813,3.958,8.828,8.828V353.103z"/>
	<g>
		<path style="fill:#556080;" d="M141.767,27.983c-0.491-0.335-1.024-0.603-1.586-0.797c-0.527-0.267-1.095-0.445-1.681-0.526
			c-1.131-0.267-2.309-0.267-3.44,0c-0.552,0.095-1.087,0.272-1.586,0.526c-0.565,0.194-1.101,0.462-1.595,0.797l-1.319,1.06
			c-3.414,3.481-3.414,9.054,0,12.534c1.683,1.627,3.927,2.544,6.268,2.561c0.561-0.016,1.12-0.075,1.672-0.177
			c0.585-0.085,1.153-0.264,1.681-0.53c0.562-0.194,1.095-0.462,1.586-0.797c0.44-0.35,0.888-0.703,1.328-1.056
			c3.414-3.481,3.414-9.054,0-12.534C142.655,28.69,142.207,28.337,141.767,27.983z"/>
		<path style="fill:#556080;" d="M189.793,26.483h-17.655c-4.875,0-8.828,3.952-8.828,8.828s3.952,8.828,8.828,8.828h17.655
			c4.875,0,8.828-3.952,8.828-8.828S194.669,26.483,189.793,26.483z"/>
	</g>
	<path style="fill:#95A5A5;" d="M158.455,268.888l-22.863,27.012c-0.787-0.553-1.5-1.206-2.119-1.942L92.69,247.172l-17.655-8.828
		v-35.31h35.31l8.828,22.069L158.455,268.888z"/>
	<path style="fill:#F29C1F;" d="M224.662,364.403c-11.116,9.505-27.833,8.201-37.341-2.913l-31.691-34.516l34.604-40.96
		l37.341,41.048c4.573,5.335,6.835,12.27,6.289,19.275C233.318,353.342,230.007,359.842,224.662,364.403z"/>
	<path style="fill:#7F8C8D;" d="M251.586,229.517c0.003,9.366-3.717,18.348-10.339,24.971s-15.605,10.342-24.971,10.339
		c-2.493,0.007-4.98-0.259-7.415-0.794l-18.626,21.981l-34.604,40.96l-31.779,37.517c-6.306,7.396-17.401,8.309-24.831,2.044
		c-7.43-6.265-8.405-17.355-2.181-24.82l38.753-45.815l22.863-27.012l24.188-28.601c-1.093-3.486-1.659-7.116-1.677-10.77
		c-0.003-9.366,3.717-18.349,10.339-24.971c6.623-6.623,15.605-10.342,24.971-10.339c4.612-0.005,9.177,0.926,13.418,2.737
		l-20.48,27.277c-2.91,3.904-2.121,9.425,1.766,12.359c1.536,1.13,3.389,1.748,5.297,1.766c2.774-0.018,5.383-1.323,7.062-3.531
		l20.48-27.366C248.865,213.694,251.608,221.487,251.586,229.517z"/>
</g>
<g>
</g>
<g>
</g>
<g>
</g>
<g>
</g>
<g>
</g>
<g>
</g>
<g>
</g>
<g>
</g>
<g>
</g>
<g>
</g>
<g>
</g>
<g>
</g>
<g>
</g>
<g>
</g>
<g>
</g>
</svg>
