<?xml version="1.0" encoding="iso-8859-1"?>
<!-- Generator: Adobe Illustrator 19.0.0, SVG Export Plug-In . SVG Version: 6.00 Build 0)  -->
<svg version="1.1" id="Capa_1" xmlns="http://www.w3.org/2000/svg" xmlns:xlink="http://www.w3.org/1999/xlink" x="0px" y="0px"
	 viewBox="0 0 512 512" style="enable-background:new 0 0 512 512;" xml:space="preserve">
<g>
	<path style="fill:#8697CB;" d="M414.897,353.103v132.414c0.009,7.027-2.778,13.768-7.746,18.736
		c-4.969,4.969-11.71,7.756-18.736,7.746H123.586c-7.027,0.009-13.768-2.778-18.737-7.746c-4.969-4.969-7.756-11.71-7.746-18.736
		V26.483c-0.009-7.027,2.778-13.768,7.746-18.737c4.969-4.969,11.71-7.756,18.737-7.746h264.828
		c7.027-0.009,13.768,2.778,18.736,7.746c4.969,4.969,7.756,11.71,7.746,18.737V353.103z"/>
	<path style="fill:#B0D3F0;" d="M379.586,353.103v114.759c-0.014,4.869-3.958,8.813-8.828,8.828H141.241
		c-4.869-0.014-8.813-3.958-8.828-8.828V44.138c0.014-4.869,3.958-8.813,8.828-8.828h35.31c4.869,0.014,8.813,3.958,8.828,8.828
		v17.655c0.014,4.869,3.958,8.813,8.828,8.828h123.586c4.869-0.014,8.813-3.958,8.828-8.828V44.138
		c0.014-4.869,3.958-8.813,8.828-8.828h35.31c4.869,0.014,8.813,3.958,8.828,8.828V353.103z"/>
	<g>
		<path style="fill:#556080;" d="M234.457,27.983c-0.491-0.335-1.024-0.603-1.586-0.797c-0.527-0.267-1.095-0.445-1.681-0.526
			c-1.131-0.267-2.309-0.267-3.44,0c-0.552,0.095-1.087,0.272-1.586,0.526c-0.565,0.194-1.101,0.462-1.595,0.797l-1.319,1.06
			c-3.414,3.481-3.414,9.054,0,12.534c1.683,1.627,3.927,2.544,6.268,2.561c0.561-0.016,1.12-0.075,1.672-0.177
			c0.585-0.085,1.153-0.264,1.681-0.53c0.562-0.194,1.095-0.462,1.586-0.797c0.44-0.35,0.888-0.703,1.328-1.056
			c3.414-3.481,3.414-9.054,0-12.534C235.345,28.69,234.897,28.337,234.457,27.983z"/>
		<path style="fill:#556080;" d="M282.483,26.483h-17.655c-4.875,0-8.828,3.952-8.828,8.828s3.952,8.828,8.828,8.828h17.655
			c4.875,0,8.828-3.952,8.828-8.828S287.358,26.483,282.483,26.483z"/>
	</g>
	<path style="fill:#F29C1F;" d="M344.276,376.028l0,12.386H167.724l0-13.201c-0.041-11.9,6.382-22.883,16.772-28.683l35.792-19.842
		c4.73-2.629,7.653-7.626,7.624-13.038v-9.393c0.005-0.881-0.277-1.739-0.803-2.445c-7.092-9.423-12.271-20.142-15.247-31.554
		v-57.04c0,0-4.775-36.668,44.138-36.668s44.138,36.668,44.138,36.668v57.04c-2.976,11.412-8.155,22.131-15.247,31.553
		c-0.526,0.706-0.808,1.564-0.803,2.445v9.8c-0.03,5.583,3.069,10.712,8.025,13.282l34.388,19.434
		C337.446,352.417,344.31,363.714,344.276,376.028z"/>
	<g>
		<path style="fill:#E6E7E8;" d="M326.621,220.69c-4.875,0-8.828-3.952-8.828-8.828c0.865-33.175-25.26-60.802-58.431-61.793h-6.724
			c-33.171,0.991-59.296,28.618-58.431,61.793c0,4.875-3.952,8.828-8.828,8.828c-4.875,0-8.828-3.952-8.828-8.828
			c-0.858-42.922,33.167-78.451,76.086-79.448h6.724c42.919,0.998,76.944,36.526,76.086,79.448
			C335.448,216.737,331.496,220.69,326.621,220.69z"/>
		<path style="fill:#E6E7E8;" d="M248.155,308.966h-47.082c-14.068-0.577-25.026-12.412-24.522-26.483v-17.655
			c0-4.875,3.952-8.828,8.828-8.828c4.875,0,8.828,3.952,8.828,8.828v17.655c-0.411,4.297,2.601,8.168,6.866,8.828h47.082
			c4.875,0,8.828,3.952,8.828,8.828S253.031,308.966,248.155,308.966z"/>
	</g>
	<g>
		<rect x="176.552" y="211.862" style="fill:#95A5A5;" width="35.31" height="52.966"/>
		<path style="fill:#95A5A5;" d="M326.621,264.828h-26.483v-52.966h35.31V256C335.448,260.875,331.496,264.828,326.621,264.828z"/>
	</g>
</g>
<g>
</g>
<g>
</g>
<g>
</g>
<g>
</g>
<g>
</g>
<g>
</g>
<g>
</g>
<g>
</g>
<g>
</g>
<g>
</g>
<g>
</g>
<g>
</g>
<g>
</g>
<g>
</g>
<g>
</g>
</svg>
