<?xml version="1.0" encoding="iso-8859-1"?>
<!-- Generator: Adobe Illustrator 19.0.0, SVG Export Plug-In . SVG Version: 6.00 Build 0)  -->
<svg version="1.1" id="Capa_1" xmlns="http://www.w3.org/2000/svg" xmlns:xlink="http://www.w3.org/1999/xlink" x="0px" y="0px"
	 viewBox="0 0 512.009 512.009" style="enable-background:new 0 0 512.009 512.009;" xml:space="preserve">
<g>
	<path style="fill:#BDC3C7;" d="M260.339,112.818c-2.302,0.001-4.51-0.913-6.138-2.54c-1.628-1.628-2.542-3.836-2.54-6.138v-4.339
		c0-45.531-36.91-82.441-82.441-82.441S86.78,54.27,86.78,99.801v4.339c0,4.793-3.885,8.678-8.678,8.678
		c-4.793,0-8.678-3.885-8.678-8.678v-4.339c0-55.116,44.68-99.797,99.797-99.797s99.797,44.68,99.797,99.797v4.339
		c0.001,2.302-0.913,4.51-2.54,6.138C264.849,111.905,262.641,112.819,260.339,112.818z"/>
	<path style="fill:#95A5A5;" d="M277.695,112.818v34.712c-0.014,4.787-3.891,8.664-8.678,8.678H60.746v-43.39
		c0.014-4.787,3.891-8.664,8.678-8.678h199.593C273.804,104.154,277.681,108.031,277.695,112.818z"/>
	<path style="fill:#F29C1F;" d="M263.637,265.463l-56.58-24.472c-3.259-1.949-5.836-4.859-7.376-8.331
		c-0.73-1.521-0.627-3.309,0.272-4.737c0.899-1.427,2.467-2.293,4.154-2.292h36.1c0,0,19.525,2.603,28.464-11.281
		c0.494-0.714,0.459-1.668-0.087-2.343c-20.923-26.709-32.671-59.456-33.497-93.375c0,0-3.211-66.039-66.647-66.56
		c-35.319-0.26-62.742,30.286-65.779,65.172c-1.905,34.065-13.298,66.918-32.889,94.85c-0.478,0.739-0.478,1.69,0,2.43
		c8.071,13.451,26.641,11.108,26.641,11.108h37.055c1.784-0.008,3.377,1.118,3.964,2.803c0.588,1.685,0.041,3.557-1.361,4.66
		c-1.977,1.646-4.064,3.154-6.248,4.513L82.18,265.116c-8.529,4.669-15.136,12.198-18.658,21.261v52.068h219.726v-52.068
		C279.436,277.276,272.474,269.852,263.637,265.463z"/>
	<path style="fill:#BDC3C7;" d="M425.22,130.159l0.015,16.503c0.219,7.636-4.428,14.571-11.574,17.271
		c-5.317,1.847-11.198,1.013-15.792-2.238c-4.594-3.252-7.335-8.521-7.361-14.15l-0.015-17.356L425.22,130.159z"/>
	<g>
		<path style="fill:#E4C05C;" d="M312.407,69.462c-4.793,0.005-8.682-3.877-8.687-8.669c-0.005-4.793,3.877-8.682,8.669-8.687
			l8.678-0.017h0.017c4.793-0.005,8.682,3.877,8.687,8.669c0.005,4.793-3.877,8.682-8.669,8.687l-8.678,0.017H312.407z"/>
		<path style="fill:#E4C05C;" d="M326.432,39.852c-1.544,0.002-3.06-0.411-4.39-1.195l-10.085-5.924
			c-2.673-1.571-4.305-4.45-4.281-7.551c0.024-3.101,1.701-5.953,4.398-7.483c2.698-1.53,6.006-1.504,8.68,0.068l10.085,5.924
			c3.378,1.985,5.007,5.986,3.977,9.766C333.785,37.236,330.35,39.857,326.432,39.852z"/>
		<path style="fill:#E4C05C;" d="M316.399,105.165c-3.915,0.005-7.348-2.611-8.382-6.386c-1.034-3.776,0.588-7.776,3.959-9.766
			l10.085-5.958c4.128-2.438,9.451-1.069,11.89,3.06c2.438,4.128,1.069,9.451-3.06,11.89l-10.085,5.958
			C319.47,104.749,317.948,105.164,316.399,105.165z"/>
		<path style="fill:#E4C05C;" d="M494.644,69.445c-4.793,0.005-8.682-3.877-8.687-8.669s3.877-8.682,8.669-8.687l8.678-0.017h0.017
			c4.793-0.005,8.682,3.877,8.687,8.669s-3.877,8.682-8.669,8.687l-8.678,0.017L494.644,69.445z"/>
		<path style="fill:#E4C05C;" d="M489.525,39.708c-3.908,0.003-7.335-2.607-8.372-6.375s0.573-7.764,3.931-9.761l10.008-5.949
			c2.665-1.599,5.982-1.65,8.695-0.133c2.713,1.516,4.408,4.368,4.443,7.475c0.035,3.108-1.595,5.997-4.273,7.573l-10.008,5.949
			C492.613,39.288,491.083,39.71,489.525,39.708z"/>
		<path style="fill:#E4C05C;" d="M499.559,104.987c-1.551,0.001-3.074-0.418-4.407-1.212l-10.017-5.924
			c-2.667-1.577-4.291-4.458-4.258-7.557c0.032-3.099,1.716-5.945,4.415-7.466c2.7-1.521,6.006-1.487,8.673,0.091l10.017,5.924
			c3.365,1.992,4.983,5.989,3.949,9.76C506.899,102.375,503.47,104.989,499.559,104.987z"/>
		<path style="fill:#E4C05C;" d="M459.271,52.364c3.016,18.455-4.114,37.108-18.67,48.846c-4.186,3.295-6.651,8.311-6.703,13.638
			v6.663c0,4.793-3.885,8.678-8.678,8.678h-34.712c-4.793,0-8.678-3.885-8.678-8.678v-6.685c-0.011-5.248-2.411-10.205-6.52-13.47
			c-18.114-14.534-24.411-39.309-15.434-60.728c8.976-21.419,31.055-34.303,54.119-31.58
			C437.059,11.773,455.53,29.443,459.271,52.364L459.271,52.364z"/>
	</g>
	<g>
		<path style="fill:#BDC3C7;" d="M25.232,286.377h296.654c4.35,0,7.876,3.526,7.876,7.876v200.395H17.356V294.254
			C17.356,289.904,20.882,286.377,25.232,286.377z"/>
		<path style="fill:#BDC3C7;" d="M164.881,190.92c-0.014,4.787-3.891,8.664-8.678,8.678H78.102
			c-9.574-0.028-17.328-7.782-17.356-17.356v-26.034h17.356v26.034h78.102C160.99,182.256,164.867,186.133,164.881,190.92z"/>
	</g>
	<path style="fill:#F9EAB0;" d="M425.347,69.445c-4.788-0.002-8.671-3.881-8.678-8.669c-0.006-4.785-3.884-8.663-8.669-8.669h-0.017
		c-4.793,0.002-8.68-3.881-8.682-8.674c-0.002-4.793,3.881-8.68,8.674-8.682H408c14.359,0.019,25.996,11.65,26.025,26.008
		c0.002,4.791-3.878,8.679-8.669,8.687L425.347,69.445z"/>
	<path style="fill:#E6E7E8;" d="M211.135,394.852c-9.819,17.007-29.837,25.299-48.807,20.216
		c-18.969-5.083-32.16-22.273-32.16-41.911c0-19.638,13.19-36.829,32.16-41.911c18.969-5.083,38.988,3.209,48.807,20.216
		c-7.216,4.862-11.542,12.994-11.542,21.695C199.593,381.858,203.919,389.99,211.135,394.852z"/>
	<path style="fill:#95A5A5;" d="M8.274,459.937h330.57c4.57,0,8.274,3.704,8.274,8.274v9.918c0,18.709-15.166,33.875-33.875,33.875
		H33.875c-8.984,0-17.601-3.569-23.953-9.922C3.569,495.73,0,487.113,0,478.129v-9.918C0,463.641,3.704,459.937,8.274,459.937z"/>
</g>
<g>
</g>
<g>
</g>
<g>
</g>
<g>
</g>
<g>
</g>
<g>
</g>
<g>
</g>
<g>
</g>
<g>
</g>
<g>
</g>
<g>
</g>
<g>
</g>
<g>
</g>
<g>
</g>
<g>
</g>
</svg>
