<?xml version="1.0" encoding="iso-8859-1"?>
<!-- Generator: Adobe Illustrator 19.0.0, SVG Export Plug-In . SVG Version: 6.00 Build 0)  -->
<svg version="1.1" id="Capa_1" xmlns="http://www.w3.org/2000/svg" xmlns:xlink="http://www.w3.org/1999/xlink" x="0px" y="0px"
	 viewBox="0 0 512 512" style="enable-background:new 0 0 512 512;" xml:space="preserve">
<g>
	<path style="fill:#BDC3C7;" d="M264.678,112.814c-2.302,0.001-4.51-0.913-6.138-2.54s-2.542-3.836-2.54-6.138v-4.339
		c1.116-44.301-33.805-81.162-78.102-82.441c-44.296,1.279-79.217,38.14-78.102,82.441v4.339c0,4.793-3.885,8.678-8.678,8.678
		c-4.793,0-8.678-3.885-8.678-8.678v-4.339C81.332,45.913,124.019,1.286,177.898,0c53.879,1.286,96.567,45.913,95.458,99.797v4.339
		c0.001,2.302-0.913,4.51-2.54,6.138S266.98,112.815,264.678,112.814z"/>
	<rect x="73.763" y="104.136" style="fill:#95A5A5;" width="208.271" height="52.068"/>
	<path style="fill:#F29C1F;" d="M291.927,286.373c-3.137-4.046-7.14-7.337-11.715-9.633l-57.969-28.984
		c-5.905-2.968-9.631-9.012-9.633-15.62v-6.595c0.144-4.966,2.344-9.649,6.075-12.93c9.136-10.575,15.726-23.102,19.265-36.621
		c0.485-1.544,0.719-3.155,0.694-4.773V95.458c-0.023-28.747-23.321-52.045-52.068-52.068H169.22
		c-28.747,0.023-52.045,23.321-52.068,52.068v75.759c-0.025,1.618,0.209,3.229,0.694,4.773
		c3.539,13.519,10.129,26.046,19.265,36.621c3.731,3.281,5.931,7.964,6.075,12.93v6.595c-0.001,6.609-3.728,12.652-9.633,15.62
		L75.585,276.74c-4.576,2.296-8.579,5.587-11.715,9.633"/>
	<path style="fill:#BDC3C7;" d="M186.576,190.915c-0.014,4.787-3.891,8.664-8.678,8.678H99.797
		c-9.574-0.028-17.328-7.782-17.356-17.356v-26.034h17.356v26.034h78.102C182.685,182.252,186.562,186.128,186.576,190.915z"/>
	<path style="fill:#ffffff;" d="M507.661,26.034v182.237c0,9.585-7.771,17.356-17.356,17.356h-60.746l-52.068,52.068v-52.068
		h-26.034c-9.585,0-17.356-7.771-17.356-17.356V26.034c0-9.585,7.771-17.356,17.356-17.356h138.847
		C499.891,8.678,507.661,16.448,507.661,26.034z"/>
	<path style="fill:#BDC3C7;" d="M29.571,286.373h296.654c4.35,0,7.876,3.526,7.876,7.876v200.395H21.695V294.249
		C21.695,289.899,25.221,286.373,29.571,286.373z"/>
	<path style="fill:#95A5A5;" d="M12.613,459.932h330.57c4.57,0,8.274,3.704,8.274,8.274v9.918c0,18.709-15.167,33.875-33.875,33.875
		H38.214c-8.984,0-17.601-3.569-23.953-9.922s-9.922-14.969-9.922-23.953v-9.918C4.339,463.637,8.043,459.932,12.613,459.932z"/>
	<g>
		<path style="fill:#E6E7E8;" d="M215.474,394.847c-9.819,17.007-29.837,25.299-48.807,20.216
			c-18.969-5.083-32.16-22.273-32.16-41.911c0-19.638,13.19-36.829,32.16-41.911c18.969-5.083,38.988,3.209,48.807,20.216
			c-7.216,4.862-11.542,12.994-11.542,21.695C203.932,381.854,208.258,389.985,215.474,394.847z"/>
		<path style="fill:#E6E7E8;" d="M420.881,121.492c9.585,0,17.355-7.771,17.356-17.356v-43.39c0-9.585-7.771-17.356-17.356-17.356
			c-9.585,0-17.356,7.771-17.356,17.356v43.39C403.526,113.721,411.296,121.491,420.881,121.492z"/>
		<circle style="fill:#E6E7E8;" cx="420.881" cy="173.559" r="17.356"/>
	</g>
</g>
<g>
</g>
<g>
</g>
<g>
</g>
<g>
</g>
<g>
</g>
<g>
</g>
<g>
</g>
<g>
</g>
<g>
</g>
<g>
</g>
<g>
</g>
<g>
</g>
<g>
</g>
<g>
</g>
<g>
</g>
</svg>
