<?xml version="1.0" encoding="iso-8859-1"?>
<!-- Generator: Adobe Illustrator 19.0.0, SVG Export Plug-In . SVG Version: 6.00 Build 0)  -->
<svg version="1.1" id="Capa_1" xmlns="http://www.w3.org/2000/svg" xmlns:xlink="http://www.w3.org/1999/xlink" x="0px" y="0px"
	 viewBox="0 0 512.015 512.015" style="enable-background:new 0 0 512.015 512.015;" xml:space="preserve">
<g transform="translate(0 -1)">
	<path style="fill:#547580;" d="M439.092,177.567h46.433c7.027-0.009,13.768,2.778,18.737,7.746
		c4.969,4.969,7.756,11.71,7.746,18.737v282.483c0.009,7.027-2.778,13.768-7.746,18.736s-11.71,7.756-18.737,7.746H26.49
		c-7.027,0.009-13.768-2.778-18.737-7.746s-7.756-11.71-7.746-18.736V204.049c-0.009-7.027,2.778-13.768,7.746-18.737
		c4.969-4.969,11.71-7.756,18.737-7.746h46.433"/>
	<path style="fill:#90BAE1;" d="M342.694,212.877h107.52c4.869,0.014,8.813,3.958,8.828,8.828v247.172
		c-0.014,4.869-3.958,8.813-8.828,8.828H44.145c-4.869-0.014-8.813-3.958-8.828-8.828V221.705c0.014-4.869,3.958-8.813,8.828-8.828
		H342.694z"/>
	<path style="fill:#84B5CB;" d="M512.007,336.463v17.655h-17.655c-4.875,0-8.828-3.952-8.828-8.828s3.952-8.828,8.828-8.828H512.007
		z"/>
	<path style="fill:#4482C3;" d="M406.076,151.084c0.004,39.802-15.806,77.975-43.95,106.119s-66.317,43.954-106.119,43.95
		c-15.552,0.029-31.012-2.383-45.815-7.15l-42.461,33.633v-55.261c-57.269-41.683-77.587-117.738-48.737-182.429
		s99.01-100.394,168.289-85.64S406.087,80.252,406.076,151.084z"/>
	<g>
		<path style="fill:#B0D3F0;" d="M76.869,427.325c-3.456-3.394-9.001-3.369-12.426,0.056s-3.45,8.97-0.056,12.426l8.828,8.828
			c2.223,2.263,5.49,3.16,8.556,2.348c3.067-0.812,5.462-3.207,6.274-6.274c0.812-3.067-0.085-6.333-2.348-8.556L76.869,427.325z"/>
		<path style="fill:#B0D3F0;" d="M129.835,436.153l-52.966-52.966c-3.456-3.394-9.001-3.369-12.426,0.056
			c-3.425,3.425-3.45,8.97-0.056,12.426l52.966,52.966c2.223,2.263,5.49,3.16,8.556,2.348c3.067-0.812,5.462-3.207,6.274-6.274
			C132.995,441.643,132.098,438.376,129.835,436.153z"/>
	</g>
	<g>
		<circle style="fill:#E6E7E8;" cx="256.007" cy="71.636" r="17.655"/>
		<polygon style="fill:#E6E7E8;" points="238.352,159.911 238.352,212.877 220.697,212.877 220.697,248.187 291.318,248.187 
			291.318,212.877 273.663,212.877 273.663,124.601 220.697,124.601 220.697,159.911 		"/>
	</g>
</g>
<g>
</g>
<g>
</g>
<g>
</g>
<g>
</g>
<g>
</g>
<g>
</g>
<g>
</g>
<g>
</g>
<g>
</g>
<g>
</g>
<g>
</g>
<g>
</g>
<g>
</g>
<g>
</g>
<g>
</g>
</svg>
