<?xml version="1.0" encoding="iso-8859-1"?>
<!-- Generator: Adobe Illustrator 19.0.0, SVG Export Plug-In . SVG Version: 6.00 Build 0)  -->
<svg version="1.1" id="Capa_1" xmlns="http://www.w3.org/2000/svg" xmlns:xlink="http://www.w3.org/1999/xlink" x="0px" y="0px"
	 viewBox="0 0 512.002 512.002" style="enable-background:new 0 0 512.002 512.002;" xml:space="preserve">
<g>
	<path style="fill:#547580;" d="M367.758,176.554h117.76c7.027-0.009,13.768,2.778,18.737,7.746
		c4.969,4.969,7.756,11.71,7.746,18.737v282.483c0.009,7.027-2.778,13.768-7.746,18.737c-4.969,4.969-11.71,7.756-18.737,7.746
		H26.484c-7.027,0.009-13.768-2.778-18.737-7.746c-4.969-4.969-7.756-11.71-7.746-18.737V203.036
		c-0.009-7.027,2.778-13.768,7.746-18.737c4.969-4.969,11.71-7.756,18.737-7.746H326.71"/>
	<path style="fill:#90BAE1;" d="M342.688,211.864h107.52c4.869,0.014,8.813,3.958,8.828,8.828v247.172
		c-0.014,4.869-3.958,8.813-8.828,8.828H44.139c-4.869-0.014-8.813-3.958-8.828-8.828V220.691c0.014-4.869,3.958-8.813,8.828-8.828
		H342.688z"/>
	<path style="fill:#84B5CB;" d="M512.001,335.45v17.655h-17.655c-4.875,0-8.828-3.952-8.828-8.828s3.952-8.828,8.828-8.828H512.001z
		"/>
	<g>
		<path style="fill:#B0D3F0;" d="M70.622,264.829c2.342,0.003,4.588-0.928,6.241-2.586l8.828-8.828
			c3.394-3.456,3.369-9.001-0.056-12.426c-3.425-3.425-8.97-3.45-12.426-0.056l-8.828,8.828c-2.524,2.525-3.279,6.321-1.913,9.619
			C63.834,262.678,67.052,264.829,70.622,264.829z"/>
		<path style="fill:#B0D3F0;" d="M129.828,240.933c-1.655-1.656-3.9-2.586-6.241-2.586s-4.586,0.93-6.241,2.586L64.38,293.899
			c-2.253,2.225-3.142,5.487-2.328,8.547c0.813,3.06,3.204,5.451,6.264,6.264c3.061,0.813,6.322-0.076,8.547-2.329l52.966-52.966
			c1.656-1.655,2.586-3.9,2.586-6.241C132.414,244.833,131.484,242.588,129.828,240.933z"/>
	</g>
	<path style="fill:#E4C05C;" d="M361.917,104.124c0.564,30.697-12.242,60.124-35.09,80.632
		c-17.314,16.102-27.009,38.776-26.688,62.418h-88.276v-0.028c-0.007-24.059-10.061-47.022-27.734-63.346
		c-32.64-30.155-42.998-77.472-25.942-118.506c17.056-41.034,57.903-67.067,102.302-65.2
		C316.297,2.918,360.507,48.262,361.917,104.124z"/>
	<path style="fill:#ECF0F1;" d="M220.691,247.174h70.621c9.751,0,17.655,7.904,17.655,17.655l0,0
		c0,9.751-7.904,17.655-17.655,17.655h-70.621c-9.751,0-17.655-7.904-17.655-17.655l0,0
		C203.035,255.079,210.94,247.174,220.691,247.174z"/>
	<path style="fill:#95A5A5;" d="M229.518,282.485h52.965c9.751,0,17.655,7.905,17.655,17.655l0,0
		c0,9.751-7.905,17.655-17.655,17.655h-52.965c-9.751,0-17.655-7.905-17.655-17.655l0,0
		C211.863,290.389,219.767,282.485,229.518,282.485z"/>
	<path style="fill:#ECF0F1;" d="M238.346,317.795h35.31v17.655c0,9.751-7.904,17.655-17.655,17.655
		c-9.751,0-17.655-7.905-17.655-17.655V317.795z"/>
	<path style="fill:#F9EAB0;" d="M326.622,114.76c-4.875,0-8.828-3.952-8.828-8.828c-0.038-34.112-27.682-61.755-61.793-61.793
		c-4.875,0-8.828-3.952-8.828-8.828s3.952-8.828,8.828-8.828c43.857,0.051,79.397,35.591,79.448,79.448
		c0,2.341-0.93,4.587-2.586,6.242C331.208,113.83,328.963,114.76,326.622,114.76z"/>
</g>
<g>
</g>
<g>
</g>
<g>
</g>
<g>
</g>
<g>
</g>
<g>
</g>
<g>
</g>
<g>
</g>
<g>
</g>
<g>
</g>
<g>
</g>
<g>
</g>
<g>
</g>
<g>
</g>
<g>
</g>
</svg>
