<?xml version="1.0" encoding="iso-8859-1"?>
<!-- Generator: Adobe Illustrator 19.0.0, SVG Export Plug-In . SVG Version: 6.00 Build 0)  -->
<svg version="1.1" id="Capa_1" xmlns="http://www.w3.org/2000/svg" xmlns:xlink="http://www.w3.org/1999/xlink" x="0px" y="0px"
	 viewBox="0 0 512 512" style="enable-background:new 0 0 512 512;" xml:space="preserve">
<g>
	<path style="fill:#BDC3C7;" d="M247.826,247.172c-4.692-0.188-8.347-4.136-8.174-8.828c0-53.543-40.334-97.103-89.911-97.103
		h-8.174c-49.577,0-89.91,43.56-89.91,97.103c0.173,4.692-3.482,8.64-8.174,8.828c-4.692-0.188-8.347-4.135-8.174-8.828
		c0-63.28,47.665-114.759,106.258-114.759h8.174c58.592,0,106.258,51.478,106.258,114.759
		C256.173,243.037,252.518,246.985,247.826,247.172z"/>
	<rect x="35.31" y="238.345" style="fill:#95A5A5;" width="220.69" height="61.793"/>
	<path style="fill:#F29C1F;" d="M291.31,491.873V512H0l0-21.451c-0.01-19.433,10.608-37.316,27.674-46.61l59.057-32.243
		c7.77-4.212,12.601-12.348,12.579-21.186v-15.264c0.007-1.434-0.458-2.83-1.325-3.972c-12.592-15-21.912-32.464-27.364-51.274
		v-92.69c0,0-5.672-59.586,75.034-59.586s75.034,59.586,75.034,59.586V320c-5.452,18.81-14.773,36.274-27.364,51.274
		c-0.867,1.142-1.333,2.538-1.325,3.972v15.926c-0.021,9.119,5.103,17.47,13.241,21.583l56.739,31.581
		C279.955,453.367,291.302,471.758,291.31,491.873z"/>
	<path style="fill:#BDC3C7;" d="M132.414,344.276c-0.015,4.869-3.958,8.813-8.828,8.828H64.53
		c-16.579-0.51-29.634-14.314-29.219-30.897v-22.069h17.655v22.069c-0.424,6.837,4.733,12.741,11.564,13.241h59.057
		C128.456,335.463,132.399,339.407,132.414,344.276z"/>
	<path style="fill:#E6E7E8;" d="M136.828,326.621h17.655c7.313,0,13.241,5.928,13.241,13.241v8.828
		c0,7.313-5.928,13.241-13.241,13.241h-17.655c-7.313,0-13.241-5.928-13.241-13.241v-8.828
		C123.586,332.549,129.515,326.621,136.828,326.621z"/>
	<path style="fill:#ffffff;" d="M512,17.655v185.379c0,9.751-7.904,17.655-17.655,17.655H379.586l-52.966,52.966V220.69h-8.828
		c-9.751,0-17.655-7.904-17.655-17.655V17.655C300.138,7.904,308.042,0,317.793,0h176.552C504.096,0,512,7.904,512,17.655z"/>
	<g>
		<path style="fill:#E6E7E8;" d="M406.069,114.759c9.75,0,17.655-7.905,17.655-17.655V52.966c0-9.751-7.905-17.655-17.655-17.655
			s-17.655,7.904-17.655,17.655v44.138C388.414,106.854,396.319,114.758,406.069,114.759z"/>
		<circle style="fill:#E6E7E8;" cx="406.069" cy="167.724" r="17.655"/>
	</g>
</g>
<g>
</g>
<g>
</g>
<g>
</g>
<g>
</g>
<g>
</g>
<g>
</g>
<g>
</g>
<g>
</g>
<g>
</g>
<g>
</g>
<g>
</g>
<g>
</g>
<g>
</g>
<g>
</g>
<g>
</g>
</svg>
