<?xml version="1.0" encoding="iso-8859-1"?>
<!-- Generator: Adobe Illustrator 19.0.0, SVG Export Plug-In . SVG Version: 6.00 Build 0)  -->
<svg version="1.1" id="Capa_1" xmlns="http://www.w3.org/2000/svg" xmlns:xlink="http://www.w3.org/1999/xlink" x="0px" y="0px"
	 viewBox="0 0 512 512" style="enable-background:new 0 0 512 512;" xml:space="preserve">
<g>
	<path style="fill:#BDC3C7;" d="M370.759,512H17.655C7.916,511.971,0.029,504.084,0,494.345V17.655
		C0.029,7.916,7.916,0.029,17.655,0h388.414c9.739,0.029,17.627,7.916,17.655,17.655v476.69c0,9.751-7.904,17.655-17.655,17.655
		H370.759z"/>
	<path style="fill:#4482C3;" d="M44.138,105.931h335.448c4.875,0,8.828,3.952,8.828,8.828v70.621c0,4.875-3.952,8.828-8.828,8.828
		H44.138c-4.875,0-8.828-3.952-8.828-8.828v-70.621C35.31,109.883,39.263,105.931,44.138,105.931z"/>
	<path style="fill:#C03A2B;" d="M264.828,423.724H44.138c-4.869,0.014-8.813,3.958-8.828,8.828v35.31
		c0.014,4.869,3.958,8.813,8.828,8.828H291.31L264.828,423.724z"/>
	<path style="fill:#E64C3C;" d="M370.759,229.517H229.517c-4.875,0-8.828,3.952-8.828,8.828v52.965c0,4.875,3.952,8.828,8.828,8.828
		h70.621L370.759,229.517z"/>
	<path style="fill:#285680;" d="M44.138,229.517h132.414c4.875,0,8.828,3.952,8.828,8.828v141.241c0,4.875-3.952,8.828-8.828,8.828
		H44.138c-4.875,0-8.828-3.952-8.828-8.828V238.345C35.31,233.469,39.263,229.517,44.138,229.517z"/>
	<path style="fill:#3F5C6C;" d="M423.724,17.655v52.966H0V17.655C0.028,7.916,7.916,0.028,17.655,0h388.414
		C415.808,0.028,423.696,7.916,423.724,17.655z"/>
	<g>
		<path style="fill:#84B5CB;" d="M61.793,44.138H44.138c-4.875,0-8.828-3.952-8.828-8.828s3.952-8.828,8.828-8.828h17.655
			c4.875,0,8.828,3.952,8.828,8.828S66.668,44.138,61.793,44.138z"/>
		<path style="fill:#84B5CB;" d="M379.586,44.138h-17.655c-4.875,0-8.828-3.952-8.828-8.828s3.952-8.828,8.828-8.828h17.655
			c4.875,0,8.828,3.952,8.828,8.828S384.462,44.138,379.586,44.138z"/>
		<path style="fill:#84B5CB;" d="M291.31,44.138H132.414c-4.875,0-8.828-3.952-8.828-8.828s3.952-8.828,8.828-8.828H291.31
			c4.875,0,8.828,3.952,8.828,8.828S296.186,44.138,291.31,44.138z"/>
	</g>
	<circle style="fill:#3F5C6C;" cx="370.759" cy="370.759" r="141.241"/>
	<g>
		<path style="fill:#E6E7E8;" d="M335.448,370.759c-0.019,5.039,1.098,10.017,3.266,14.566l-56.408,25.6
			c-11.535-25.535-11.535-54.796,0-80.331l56.408,25.6C336.546,360.741,335.43,365.72,335.448,370.759z"/>
		<path style="fill:#E6E7E8;" d="M410.924,459.211c-25.535,11.535-54.796,11.535-80.331,0l25.6-56.408
			c9.222,4.355,19.909,4.355,29.131,0L410.924,459.211z"/>
		<path style="fill:#E6E7E8;" d="M467.862,370.759c0.016,13.853-2.933,27.548-8.651,40.166l-56.408-25.6
			c4.355-9.222,4.355-19.909,0-29.131l56.408-25.6C464.929,343.211,467.879,356.906,467.862,370.759z"/>
	</g>
	<g>
		<path style="fill:#E64C3C;" d="M330.593,282.306l25.6,56.408c-7.788,3.463-14.016,9.69-17.479,17.479l-56.408-25.6
			C292.048,309.199,309.199,292.048,330.593,282.306z"/>
		<path style="fill:#E64C3C;" d="M356.193,402.803l-25.6,56.408c-21.395-9.742-38.545-26.892-48.287-48.287l56.408-25.6
			C342.177,393.112,348.405,399.34,356.193,402.803z"/>
		<path style="fill:#E64C3C;" d="M402.803,385.324l56.408,25.6c-9.742,21.395-26.892,38.545-48.287,48.287l-25.6-56.408
			C393.112,399.34,399.34,393.112,402.803,385.324z"/>
		<path style="fill:#E64C3C;" d="M385.324,338.714l25.6-56.408c21.395,9.742,38.545,26.892,48.287,48.287l-56.408,25.6
			C399.34,348.405,393.112,342.177,385.324,338.714z"/>
	</g>
	<path style="fill:#E6E7E8;" d="M410.924,282.306l-25.6,56.408c-9.222-4.355-19.909-4.355-29.131,0l-25.6-56.408
		C356.128,270.772,385.389,270.772,410.924,282.306z"/>
</g>
<g>
</g>
<g>
</g>
<g>
</g>
<g>
</g>
<g>
</g>
<g>
</g>
<g>
</g>
<g>
</g>
<g>
</g>
<g>
</g>
<g>
</g>
<g>
</g>
<g>
</g>
<g>
</g>
<g>
</g>
</svg>
