<?xml version="1.0" encoding="iso-8859-1"?>
<!-- Generator: Adobe Illustrator 19.0.0, SVG Export Plug-In . SVG Version: 6.00 Build 0)  -->
<svg version="1.1" id="Layer_1" xmlns="http://www.w3.org/2000/svg" xmlns:xlink="http://www.w3.org/1999/xlink" x="0px" y="0px"
	 viewBox="0 0 512 512" style="enable-background:new 0 0 512 512;" xml:space="preserve">
<g>
	<path style="fill:#2D404E;" d="M474.579,218.586c0,120.709-97.865,218.572-218.574,218.572S37.433,339.295,37.433,218.586
		S135.296,0.012,256.005,0.012S474.579,97.877,474.579,218.586z"/>
	<path style="fill:#253744;" d="M398.638,218.586c0,78.77-63.861,142.631-142.633,142.631c-78.77,0-142.631-63.861-142.631-142.631
		c0-78.771,63.861-142.631,142.631-142.631C334.777,75.955,398.638,139.815,398.638,218.586z"/>
	<path style="fill:#E2E5E7;" d="M390.703,218.586c0,74.387-60.309,134.693-134.697,134.693
		c-74.387,0-134.695-60.307-134.695-134.693S181.62,83.891,256.006,83.891C330.394,83.891,390.703,144.199,390.703,218.586z"/>
	<path style="fill:#2D404E;" d="M354.292,218.586c0,54.277-44.008,98.285-98.287,98.285s-98.285-44.008-98.285-98.285
		c0-54.279,44.006-98.285,98.285-98.285S354.292,164.307,354.292,218.586z"/>
	<path style="fill:#586A73;" d="M325.831,218.586c0,38.562-31.264,69.826-69.826,69.826c-38.561,0-69.824-31.264-69.824-69.826
		s31.264-69.826,69.824-69.826C294.568,148.76,325.831,180.024,325.831,218.586z"/>
	<circle style="fill:#253744;" cx="256.006" cy="218.586" r="42.46"/>
	<path style="opacity:0.7;fill:#E2E5E7;enable-background:new    ;" d="M250.091,205.809c0,8.467-6.867,15.334-15.336,15.334
		c-8.465,0-15.334-6.867-15.334-15.334c0-8.469,6.869-15.336,15.334-15.336C243.224,190.473,250.091,197.34,250.091,205.809z"/>
	<circle style="opacity:0.7;fill:#E2E5E7;enable-background:new    ;" cx="275.46" cy="240.518" r="9.541"/>
	<circle style="fill:#DF584C;" cx="257.624" cy="50.571" r="13.107"/>
	<path style="fill:#2D404E;" d="M445.013,444.162c-26.842-22.367-46.246-6.066-67.102-1.49
		c-24.432,5.361-55.176,14.168-121.906,14.912c-66.729-0.744-97.473-9.551-121.904-14.912c-20.855-4.576-40.262-20.877-67.102,1.49
		c-26.842,22.369-34.299,55.176-22.367,65.615c11.93,10.439,53.682-19.385,95.436-17.895c41.75,1.492,99.051,17.895,115.938,17.895
		c16.889,0,74.188-16.402,115.939-17.895c41.754-1.49,83.506,28.334,95.436,17.895C479.311,499.338,471.855,466.531,445.013,444.162
		z"/>
	<path style="fill:#253744;" d="M213.529,307.242c-33.012-15.846-55.809-49.592-55.809-88.656c0-54.279,44.006-98.285,98.285-98.285
		c33.924,0,63.836,17.189,81.502,43.334c0,0-38.318-40.678-89.895-31.785s-78.01,54.768-74.047,108.668
		C177.533,294.416,213.529,307.242,213.529,307.242z"/>
	<path style="fill:#253744;" d="M37.433,218.586c0,120.709,97.863,218.572,218.572,218.572s218.574-97.863,218.574-218.572
		c0,0-69.693,157.602-218.574,157.602C107.126,376.188,37.433,218.586,37.433,218.586z"/>
	<ellipse style="fill:#2D404E;" cx="256.006" cy="394.205" rx="29.274" ry="11.234"/>
	<path style="fill:#253744;" d="M98.605,498.422c13.037-3.926,27.248-7.047,41.463-6.539c41.75,1.492,99.051,17.895,115.938,17.895
		c16.889,0,74.188-16.402,115.939-17.895c14.689-0.525,29.377,2.826,42.768,6.938c0,0-32.35-16.062-60.42-12.098
		s-69.375,11.211-98.287,11.211c-28.91,0-92.352-11.84-102.926-11.84C121.31,486.094,98.605,498.422,98.605,498.422z"/>
	<path style="fill:#253744;" d="M65.449,509.432c-9.523,2.83-16.832,3.832-20.816,0.346C32.701,499.339,40.158,466.532,67,444.163
		c26.84-22.367,46.246-6.066,67.102-1.49c0,0-33.994-6.506-47.488,4.398s-32.312,34.576-31.336,49.562
		C56.251,511.619,65.449,509.432,65.449,509.432z"/>
	<path style="fill:#253744;" d="M446.564,509.432c9.523,2.83,16.832,3.832,20.816,0.346c11.93-10.439,4.475-43.246-22.367-65.615
		c-26.842-22.367-46.246-6.066-67.102-1.49c0,0,33.992-6.506,47.488,4.398c13.494,10.904,32.312,34.576,31.336,49.562
		C455.761,511.619,446.564,509.432,446.564,509.432z"/>
	<path style="opacity:0.22;fill:#E2E5E7;enable-background:new    ;" d="M127.031,42.123
		C29.576,113.348,8.314,250.107,79.543,347.561L432.469,89.61C361.24-7.844,224.484-29.107,127.031,42.123z"/>
</g>
<g>
</g>
<g>
</g>
<g>
</g>
<g>
</g>
<g>
</g>
<g>
</g>
<g>
</g>
<g>
</g>
<g>
</g>
<g>
</g>
<g>
</g>
<g>
</g>
<g>
</g>
<g>
</g>
<g>
</g>
</svg>
