<?xml version="1.0" encoding="iso-8859-1"?>
<!-- Generator: Adobe Illustrator 19.0.0, SVG Export Plug-In . SVG Version: 6.00 Build 0)  -->
<svg version="1.1" id="Capa_1" xmlns="http://www.w3.org/2000/svg" xmlns:xlink="http://www.w3.org/1999/xlink" x="0px" y="0px"
	 viewBox="0 0 512 512" style="enable-background:new 0 0 512 512;" xml:space="preserve">
<g>
	<path style="fill:#ffffff;" d="M512,66.192v264.828c0.003,9.366-3.717,18.348-10.339,24.971
		c-6.623,6.623-15.605,10.342-24.971,10.339h-291.31L92.778,475.086c-4.853,5.541-12.632,7.493-19.527,4.9
		c-6.894-2.593-11.459-9.188-11.458-16.553v-97.103H35.31c-9.366,0.003-18.348-3.717-24.971-10.339
		C3.717,349.368-0.003,340.385,0,331.019V66.192c-0.003-9.366,3.717-18.348,10.339-24.971S25.945,30.879,35.31,30.881H476.69
		c9.366-0.003,18.348,3.717,24.971,10.339C508.283,47.843,512.003,56.826,512,66.192z"/>
	<g>
		<polygon style="fill:#F3D55B;" points="256,136.812 275.094,177.499 317.793,184.022 286.897,215.687 294.188,260.398 
			256,239.292 217.812,260.398 225.103,215.687 194.207,184.022 236.906,177.499 		"/>
		<polygon style="fill:#F3D55B;" points="97.103,136.812 116.198,177.499 158.897,184.022 128,215.687 135.292,260.398 
			97.103,239.292 58.915,260.398 66.207,215.687 35.31,184.022 78.009,177.499 		"/>
		<polygon style="fill:#F3D55B;" points="414.897,136.812 433.991,177.499 476.69,184.022 445.793,215.687 453.085,260.398 
			414.897,239.292 376.708,260.398 384,215.687 353.103,184.022 395.802,177.499 		"/>
	</g>
</g>
<g>
</g>
<g>
</g>
<g>
</g>
<g>
</g>
<g>
</g>
<g>
</g>
<g>
</g>
<g>
</g>
<g>
</g>
<g>
</g>
<g>
</g>
<g>
</g>
<g>
</g>
<g>
</g>
<g>
</g>
</svg>
