<?xml version="1.0" encoding="iso-8859-1"?>
<!-- Generator: Adobe Illustrator 19.0.0, SVG Export Plug-In . SVG Version: 6.00 Build 0)  -->
<svg version="1.1" id="Capa_1" xmlns="http://www.w3.org/2000/svg" xmlns:xlink="http://www.w3.org/1999/xlink" x="0px" y="0px"
	 viewBox="0 0 511.512 511.512" style="enable-background:new 0 0 511.512 511.512;" xml:space="preserve">
<g>
	<path style="fill:#BDC3C7;" d="M417.636,273.066c0,2.816-0.085,5.717-0.171,8.533c-1.218,22.66-7.178,44.812-17.493,65.024
		c-2.554,5.1-5.433,10.031-8.619,14.763c-12.294,19.035-28.496,35.237-47.531,47.531c-4.732,3.186-9.663,6.064-14.763,8.619
		c-20.212,10.315-42.364,16.275-65.024,17.493c-2.816,0.085-5.717,0.171-8.533,0.171s-5.717-0.085-8.533-0.171
		c-22.66-1.219-44.812-7.178-65.024-17.493c-5.1-2.554-10.031-5.433-14.763-8.619c-19.035-12.294-35.237-28.496-47.531-47.531
		c-3.186-4.732-6.064-9.663-8.619-14.763c-10.315-20.212-16.275-42.364-17.493-65.024c-0.085-2.816-0.171-5.717-0.171-8.533
		s0.085-5.717,0.171-8.533c1.218-22.66,7.178-44.812,17.493-65.024c2.554-5.1,5.433-10.031,8.619-14.763
		c12.294-19.035,28.496-35.237,47.531-47.531c4.732-3.186,9.663-6.064,14.763-8.619c20.212-10.315,42.364-16.275,65.024-17.493
		c2.816-0.085,5.717-0.171,8.533-0.171s5.717,0.085,8.533,0.171c22.66,1.219,44.812,7.178,65.024,17.493
		c5.1,2.554,10.031,5.433,14.763,8.619c19.035,12.294,35.237,28.496,47.531,47.531c3.186,4.732,6.064,9.663,8.619,14.763
		c10.316,20.212,16.275,42.364,17.493,65.024C417.55,267.348,417.636,270.25,417.636,273.066z"/>
	<path style="fill:#4482C3;" d="M308.594,40.049c-4.598-1.045-9.172,1.836-10.217,6.433s1.836,9.172,6.433,10.217
		c112.734,25.618,186.934,133.47,170.557,247.912s-117.845,197.157-233.24,190.131S36.051,393.301,33.681,277.717
		S118.048,64.08,233.057,52.33l-27.839,26.86c-3.376,3.275-3.466,8.665-0.2,12.05s8.655,3.49,12.05,0.233l44.002-42.458
		c1.058-0.912,1.872-2.073,2.366-3.38c0.151-0.501,0.254-1.015,0.309-1.535c0.14-0.469,0.237-0.95,0.29-1.436
		c0-0.105-0.056-0.191-0.06-0.295c-0.002-0.239,0.115-0.457,0.093-0.697c-0.129-0.635-0.331-1.252-0.604-1.839
		c-0.08-0.225-0.123-0.457-0.221-0.673c-0.393-0.89-0.94-1.702-1.618-2.4l-0.195-0.203c-0.348-0.445-0.74-0.853-1.17-1.218
		L208.686,1.407c-3.935-2.591-9.226-1.502-11.817,2.434c-2.591,3.935-1.502,9.226,2.434,11.817l30.256,19.908
		C106.181,49.184,13.833,155.09,17.139,279.172S118.3,504.093,242.227,511.123s232.558-82.097,249.875-205.009
		S429.639,67.532,308.594,40.049L308.594,40.049z"/>
	<g>
		<path style="fill:#3F5C6C;" d="M264.036,111.103v16.896c0,4.713-3.821,8.533-8.533,8.533c-4.713,0-8.533-3.82-8.533-8.533v-16.896
			c2.816-0.085,5.717-0.171,8.533-0.171S261.22,111.018,264.036,111.103z"/>
		<path style="fill:#3F5C6C;" d="M187.236,154.794c-1.953,1.164-4.291,1.494-6.49,0.917c-2.199-0.578-4.073-2.015-5.201-3.989
			l-8.363-14.507c4.732-3.186,9.663-6.064,14.763-8.619l8.448,14.592c1.121,1.957,1.418,4.28,0.826,6.457
			C190.627,151.822,189.194,153.674,187.236,154.794z"/>
		<path style="fill:#3F5C6C;" d="M137.23,204.799c-2.346,4.059-7.526,5.468-11.605,3.157l-14.592-8.448
			c2.554-5.1,5.433-10.031,8.619-14.763l14.507,8.363c1.963,1.138,3.391,3.012,3.968,5.206S138.38,202.843,137.23,204.799z"/>
		<path style="fill:#3F5C6C;" d="M118.969,273.066c-0.014,4.707-3.826,8.519-8.533,8.533H93.54
			c-0.085-2.816-0.171-5.717-0.171-8.533s0.085-5.717,0.171-8.533h16.896C115.142,264.546,118.955,268.359,118.969,273.066z"/>
		<path style="fill:#3F5C6C;" d="M134.158,353.023l-14.507,8.363c-3.186-4.732-6.064-9.663-8.619-14.763l14.592-8.448
			c4.095-2.308,9.286-0.883,11.628,3.193C139.595,345.444,138.214,350.646,134.158,353.023z"/>
		<path style="fill:#3F5C6C;" d="M190.393,402.943l-8.448,14.592c-5.1-2.554-10.031-5.433-14.763-8.619l8.363-14.507
			c2.377-4.056,7.579-5.437,11.655-3.095C191.275,393.657,192.701,398.847,190.393,402.943z"/>
		<path style="fill:#3F5C6C;" d="M264.036,418.132v16.896c-2.816,0.085-5.717,0.171-8.533,0.171s-5.717-0.085-8.533-0.171v-16.896
			c0-4.713,3.821-8.533,8.533-8.533C260.215,409.599,264.036,413.419,264.036,418.132z"/>
		<path style="fill:#3F5C6C;" d="M343.822,408.916c-4.732,3.186-9.663,6.064-14.763,8.619l-8.448-14.592
			c-2.308-4.095-0.883-9.286,3.193-11.628c4.076-2.342,9.278-0.961,11.655,3.095L343.822,408.916z"/>
		<path style="fill:#3F5C6C;" d="M399.972,346.623c-2.554,5.1-5.433,10.031-8.619,14.763l-14.507-8.363
			c-4.056-2.377-5.437-7.579-3.095-11.655c2.342-4.076,7.533-5.501,11.628-3.193L399.972,346.623z"/>
		<path style="fill:#3F5C6C;" d="M417.636,273.066c0,2.816-0.085,5.717-0.171,8.533h-16.896c-4.713,0-8.533-3.82-8.533-8.533
			s3.82-8.533,8.533-8.533h16.896C417.55,267.348,417.636,270.25,417.636,273.066z"/>
		<path style="fill:#3F5C6C;" d="M399.972,199.508l-14.592,8.448c-4.079,2.311-9.259,0.902-11.605-3.157
			c-1.15-1.956-1.473-4.29-0.896-6.484c0.577-2.195,2.005-4.068,3.968-5.206l14.507-8.363
			C394.538,189.477,397.417,194.408,399.972,199.508z"/>
		<path style="fill:#3F5C6C;" d="M343.822,137.215l-8.363,14.507c-1.128,1.974-3.002,3.411-5.201,3.989
			c-2.199,0.578-4.537,0.247-6.49-0.917c-1.958-1.12-3.391-2.972-3.983-5.148c-0.592-2.177-0.295-4.499,0.826-6.457l8.448-14.592
			C334.16,131.15,339.091,134.029,343.822,137.215z"/>
		<path style="fill:#3F5C6C;" d="M264.036,179.199c0-4.713-3.821-8.533-8.533-8.533c-4.713,0-8.533,3.821-8.533,8.533v68.267
			c0,4.713,3.821,8.533,8.533,8.533c4.713,0,8.533-3.82,8.533-8.533V179.199z"/>
		<path style="fill:#3F5C6C;" d="M281.102,281.599h42.667c4.713,0,8.533-3.82,8.533-8.533s-3.82-8.533-8.533-8.533h-42.667
			c-4.713,0-8.533,3.821-8.533,8.533S276.389,281.599,281.102,281.599z"/>
	</g>
	<circle style="fill:#7F8C8D;" cx="255.502" cy="273.066" r="25.6"/>
</g>
<g>
</g>
<g>
</g>
<g>
</g>
<g>
</g>
<g>
</g>
<g>
</g>
<g>
</g>
<g>
</g>
<g>
</g>
<g>
</g>
<g>
</g>
<g>
</g>
<g>
</g>
<g>
</g>
<g>
</g>
</svg>
