<?xml version="1.0" encoding="iso-8859-1"?>
<!-- Generator: Adobe Illustrator 19.0.0, SVG Export Plug-In . SVG Version: 6.00 Build 0)  -->
<svg version="1.1" id="Capa_1" xmlns="http://www.w3.org/2000/svg" xmlns:xlink="http://www.w3.org/1999/xlink" x="0px" y="0px"
	 viewBox="0 0 512 512" style="enable-background:new 0 0 512 512;" xml:space="preserve">
<g>
	<path style="fill:#95A5A5;" d="M441.38,238.343h-17.655l-15.183-91.189c-1.414-8.504-8.769-14.739-17.39-14.742h-73.357v220.69
		h70.621c15.693-11.77,37.272-11.77,52.966,0h52.966v-61.793C494.322,262.066,470.622,238.366,441.38,238.343z"/>
	<path style="fill:#3F5C6C;" d="M326.621,353.101V105.929c-0.029-9.739-7.916-17.627-17.655-17.655H35.311
		c-9.739,0.029-17.627,7.916-17.655,17.655v247.172H326.621z"/>
	<path style="fill:#B0D3F0;" d="M423.724,238.343h-44.138c-4.869-0.015-8.813-3.958-8.828-8.828v-97.103h20.392
		c8.621,0.003,15.976,6.238,17.39,14.742L423.724,238.343z"/>
	<path style="fill:#BDC3C7;" d="M494.345,344.274H17.655c-4.684-0.025-9.177,1.855-12.447,5.208
		c-3.353,3.27-5.233,7.763-5.208,12.447c0.029,9.739,7.916,17.627,17.655,17.655h476.69c9.721-0.071,17.585-7.934,17.655-17.655
		C511.972,352.19,504.084,344.302,494.345,344.274z"/>
	<g>
		<path style="fill:#35495E;" d="M141.242,379.584c0,20.756-14.462,38.708-34.743,43.126c-20.281,4.418-40.9-5.891-49.533-24.767
			c-8.634-18.875-2.95-41.216,13.655-53.67c15.693-11.77,37.272-11.77,52.966,0C134.69,352.618,141.229,365.694,141.242,379.584z"/>
		<path style="fill:#35495E;" d="M459.035,379.584c0,20.756-14.462,38.708-34.743,43.126c-20.281,4.418-40.9-5.891-49.533-24.767
			c-8.634-18.875-2.95-41.216,13.655-53.67c15.693-11.77,37.272-11.77,52.966,0C452.483,352.618,459.022,365.694,459.035,379.584z"
			/>
	</g>
	<path style="fill:#95A5A5;" d="M260.767,207.534c-12.398,12.487-31.048,16.377-47.404,9.887v0.088l-78.477,77.418
		c-4.439,4.504-10.949,6.286-17.062,4.671c-6.114-1.615-10.895-6.379-12.531-12.487c-1.636-6.108,0.123-12.624,4.611-17.079
		l78.477-77.506h0.088c-6.425-16.343-2.558-34.941,9.85-47.368s30.999-16.323,47.352-9.923l-16.154,16.154
		c-6.849,6.907-6.826,18.051,0.053,24.929s18.022,6.902,24.929,0.053l16.154-16.154C277.01,176.558,273.134,195.108,260.767,207.534
		z"/>
	<polyline style="fill:#BDC3C7;" points="168.695,212.037 168.607,212.037 117.937,161.278 111.757,142.563 86.775,130.117 
		61.793,155.01 74.24,179.992 93.043,186.26 143.537,236.754 	"/>
	<path style="fill:#F29C1F;" d="M199.945,230.751l24.099,24.188c10.336,10.336,10.336,27.093,0,37.429
		c-10.336,10.336-27.093,10.336-37.429,0l-24.364-24.364"/>
</g>
<g>
</g>
<g>
</g>
<g>
</g>
<g>
</g>
<g>
</g>
<g>
</g>
<g>
</g>
<g>
</g>
<g>
</g>
<g>
</g>
<g>
</g>
<g>
</g>
<g>
</g>
<g>
</g>
<g>
</g>
</svg>
