<?xml version="1.0" encoding="iso-8859-1"?>
<!-- Generator: Adobe Illustrator 19.0.0, SVG Export Plug-In . SVG Version: 6.00 Build 0)  -->
<svg version="1.1" id="Capa_1" xmlns="http://www.w3.org/2000/svg" xmlns:xlink="http://www.w3.org/1999/xlink" x="0px" y="0px"
	 viewBox="0 0 512 512" style="enable-background:new 0 0 512 512;" xml:space="preserve">
<g>
	<path style="fill:#95A5A5;" d="M510.588,283.013c1.883-17.959,1.883-36.066,0-54.026l-57.821-23.127
		c-4.8-18.783-12.293-36.771-22.246-53.408l24.629-57.379c-5.65-6.974-11.741-13.683-18.097-20.127
		c-6.444-6.356-13.153-12.447-20.127-18.097l-57.379,24.629c-16.636-9.953-34.625-17.445-53.407-22.246L283.012,1.412
		c-17.959-1.882-36.066-1.882-54.025,0l-23.128,57.821c-18.782,4.8-36.771,12.293-53.407,22.246L95.073,56.849
		c-6.974,5.65-13.683,11.741-20.127,18.097C68.59,81.39,62.499,88.099,56.85,95.073l24.629,57.379
		c-9.953,16.636-17.446,34.625-22.246,53.407L1.412,228.987c-1.883,17.959-1.883,36.066,0,54.026l57.821,23.127
		c4.8,18.782,12.293,36.771,22.246,53.407L56.85,416.926c5.65,6.974,11.741,13.683,18.097,20.127
		c6.444,6.356,13.153,12.446,20.127,18.097l57.379-24.629c16.636,9.953,34.625,17.445,53.407,22.245l23.128,57.821
		c17.959,1.884,36.066,1.884,54.025,0l23.128-57.821c18.782-4.8,36.771-12.293,53.407-22.246l57.379,24.629
		c6.974-5.651,13.683-11.741,20.127-18.097c6.356-6.444,12.447-13.153,18.097-20.127l-24.629-57.379
		c9.953-16.636,17.446-34.625,22.246-53.407L510.588,283.013z M256,414.896c-87.756,0-158.897-71.14-158.897-158.897
		S168.244,97.103,256,97.103S414.896,168.243,414.896,256C414.889,343.753,343.753,414.889,256,414.896z"/>
	<path style="fill:#CC4B4C;" d="M256.078,141.241c-62.882-0.348-114.182,50.265-114.681,113.147v3.224
		c0.499,62.881,51.799,113.495,114.681,113.147h52.888c4.875,0,8.828-3.952,8.828-8.828c0-4.875-3.952-8.828-8.828-8.828h-52.888
		c-53.136,0.36-96.539-42.356-97.026-95.491v-3.224c0.846-52.982,44.037-95.49,97.026-95.49s96.18,42.507,97.026,95.49v25.198
		c-0.168,15.303-12.688,27.584-27.991,27.457c-13.65,0.118-24.821-10.833-24.974-24.483v-79.526
		c0.001-2.342-0.928-4.588-2.584-6.244c-1.656-1.656-3.902-2.585-6.244-2.584H248.94c-30.03-0.147-54.514,24.039-54.733,54.069
		v39.362c0.151,21.642,17.789,39.079,39.431,38.983h34.724c10.708,0.016,20.707-5.351,26.612-14.284
		c8.02,7.938,18.854,12.382,30.138,12.362c25.05,0.118,45.47-20.062,45.647-45.112v-25.198
		C370.26,191.506,318.96,140.893,256.078,141.241z M282.483,283.638v11.534c-0.102,7.703-6.417,13.872-14.121,13.793h-34.724
		c-11.897,0.109-21.637-9.431-21.776-21.327v-39.362c0.207-20.284,16.793-36.573,37.078-36.414h33.543v70.698
		c0,0.25,0,0.491,0.009,0.742C282.483,283.413,282.483,283.525,282.483,283.638z"/>
</g>
<g>
</g>
<g>
</g>
<g>
</g>
<g>
</g>
<g>
</g>
<g>
</g>
<g>
</g>
<g>
</g>
<g>
</g>
<g>
</g>
<g>
</g>
<g>
</g>
<g>
</g>
<g>
</g>
<g>
</g>
</svg>
