<?xml version="1.0" encoding="iso-8859-1"?>
<!-- Generator: Adobe Illustrator 19.0.0, SVG Export Plug-In . SVG Version: 6.00 Build 0)  -->
<svg version="1.1" id="Capa_1" xmlns="http://www.w3.org/2000/svg" xmlns:xlink="http://www.w3.org/1999/xlink" x="0px" y="0px"
	 viewBox="0 0 512 512" style="enable-background:new 0 0 512 512;" xml:space="preserve">
<g>
	<path style="fill:#CBB292;" d="M499.906,220.601c-6.421-5.636-14.673-8.742-23.217-8.739H35.31
		C15.823,211.896,0.034,227.685,0,247.172V476.69c0.034,19.487,15.823,35.276,35.31,35.31H476.69
		c19.487-0.034,35.276-15.823,35.31-35.31V247.172C512.014,236.98,507.601,227.285,499.906,220.601z"/>
	<path style="fill:#7F6E5D;" d="M207.272,361.931L12.094,503.261C4.399,496.577-0.014,486.882,0,476.69V247.172
		c-0.014-10.192,4.399-19.888,12.094-26.571l4.679,3.443L207.272,361.931z"/>
	<path style="fill:#7F5B53;" d="M499.906,220.601l-195.178,141.33l-27.983,20.303c-12.393,8.916-29.097,8.916-41.49,0
		l-27.983-20.303L16.772,224.044l-4.679-3.443c6.421-5.636,14.673-8.742,23.217-8.739H476.69
		C485.233,211.859,493.485,214.965,499.906,220.601z"/>
	<path style="fill:#7F6E5D;" d="M512,247.172V476.69c0.014,10.192-4.399,19.888-12.094,26.571l-195.178-141.33l195.178-141.33
		C507.601,227.285,512.014,236.98,512,247.172z"/>
	<path style="fill:#95A5A5;" d="M404.48,172.05c2.119-14.577,2.119-29.384,0-43.961l-29.131-9.711
		c-2.779-10.617-6.996-20.804-12.535-30.278l13.683-27.454c-8.771-11.831-19.242-22.302-31.073-31.073L317.97,43.254
		c-9.475-5.538-19.662-9.755-30.279-12.534l-9.71-29.131c-14.577-2.118-29.384-2.118-43.961,0l-9.71,29.131
		c-10.617,2.779-20.804,6.996-30.279,12.534l-27.454-13.682c-11.831,8.771-22.302,19.242-31.073,31.073l13.683,27.454
		c-5.539,9.474-9.756,19.661-12.535,30.278l-29.131,9.711c-2.119,14.577-2.119,29.384,0,43.961l29.131,9.71
		c2.779,10.617,6.996,20.804,12.535,30.279l-13.683,27.454c8.771,11.831,19.241,22.302,31.073,31.072l27.454-13.682
		c9.475,5.539,19.662,9.756,30.279,12.535l9.71,29.131c14.577,2.118,29.384,2.118,43.961,0l9.71-29.131
		c10.617-2.779,20.804-6.997,30.279-12.535l27.454,13.682c11.832-8.77,22.302-19.241,31.073-31.072l-13.683-27.454
		c5.539-9.474,9.756-19.662,12.535-30.279L404.48,172.05z M256,229.517c-43.878,0-79.448-35.57-79.448-79.448
		S212.122,70.621,256,70.621s79.448,35.57,79.448,79.448C335.445,193.945,299.877,229.513,256,229.517z"/>
</g>
<g>
</g>
<g>
</g>
<g>
</g>
<g>
</g>
<g>
</g>
<g>
</g>
<g>
</g>
<g>
</g>
<g>
</g>
<g>
</g>
<g>
</g>
<g>
</g>
<g>
</g>
<g>
</g>
<g>
</g>
</svg>
