<?xml version="1.0" encoding="iso-8859-1"?>
<!-- Generator: Adobe Illustrator 19.0.0, SVG Export Plug-In . SVG Version: 6.00 Build 0)  -->
<svg version="1.1" id="Capa_1" xmlns="http://www.w3.org/2000/svg" xmlns:xlink="http://www.w3.org/1999/xlink" x="0px" y="0px"
	 viewBox="0 0 512 512" style="enable-background:new 0 0 512 512;" xml:space="preserve">
<g>
	<path style="fill:#3F5C6C;" d="M379.586,114.758h52.966c9.739,0.029,17.627,7.916,17.655,17.655v282.483H61.793V132.414
		c0.029-9.739,7.916-17.627,17.655-17.655H379.586z"/>
	<polygon style="fill:#BDC3C7;" points="61.793,397.241 0,476.689 0,494.345 512,494.345 512,476.689 450.207,397.241 	"/>
	<path style="fill:#95A5A5;" d="M0,476.689h512v17.655c0,9.751-7.905,17.655-17.655,17.655H17.655C7.904,512,0,504.095,0,494.345
		V476.689z"/>
	<g>
		<path style="fill:#7F8C8D;" d="M397.241,432.552H114.759c-4.875,0-8.828,3.952-8.828,8.828s3.952,8.828,8.828,8.828h282.483
			c4.875,0,8.828-3.952,8.828-8.828S402.117,432.552,397.241,432.552z"/>
		<path style="fill:#7F8C8D;" d="M79.448,432.552h-8.828c-4.875,0-8.828,3.952-8.828,8.828s3.952,8.828,8.828,8.828h8.828
			c4.875,0,8.828-3.952,8.828-8.828S84.324,432.552,79.448,432.552z"/>
		<path style="fill:#7F8C8D;" d="M441.379,432.552h-8.828c-4.875,0-8.828,3.952-8.828,8.828s3.952,8.828,8.828,8.828h8.828
			c4.875,0,8.828-3.952,8.828-8.828S446.255,432.552,441.379,432.552z"/>
	</g>
	<path style="fill:#BDC3C7;" d="M365.55,335.448h22.863c-7.03,16.087-22.919,26.483-40.474,26.483
		c-17.556,0-33.445-10.396-40.474-26.483h-0.088l-166.135-0.706c-6.308,0.016-12.144-3.335-15.312-8.789
		c-3.167-5.455-3.184-12.185-0.044-17.655s8.96-8.85,15.268-8.866l166.223,0.706l0.088,0.088
		c6.993-16.117,22.877-26.552,40.446-26.571c17.568-0.019,33.475,10.382,40.503,26.483H365.55c-9.751,0-17.655,7.905-17.655,17.655
		S355.8,335.448,365.55,335.448z"/>
	<path style="fill:#95A5A5;" d="M378.262,141.683c1.765-12,1.765-24.193,0-36.193l-29.261-9.754
		c-1.879-6.325-4.403-12.441-7.53-18.252l13.778-27.554c-7.237-9.733-15.859-18.355-25.592-25.592l-27.554,13.777
		c-5.811-3.127-11.927-5.65-18.252-7.529l-9.754-29.261c-12-1.765-24.193-1.765-36.193,0l-9.754,29.261
		c-6.325,1.879-12.441,4.402-18.252,7.529l-27.554-13.777c-9.733,7.237-18.355,15.859-25.592,25.592l13.777,27.554
		c-3.127,5.811-5.65,11.927-7.53,18.252l-29.261,9.754c-1.765,12-1.765,24.193,0,36.193l29.261,9.754
		c1.879,6.325,4.402,12.441,7.529,18.252l-13.777,27.554c7.237,9.733,15.859,18.355,25.592,25.592l27.554-13.777
		c5.811,3.127,11.927,5.65,18.252,7.53l9.754,29.261c12,1.765,24.193,1.765,36.193,0l9.754-29.261
		c6.325-1.879,12.441-4.403,18.252-7.53l27.554,13.778c9.733-7.237,18.355-15.859,25.592-25.592l-13.777-27.554
		c3.127-5.811,5.65-11.927,7.529-18.252L378.262,141.683z M256,176.552c-29.252,0-52.966-23.713-52.966-52.966
		S226.748,70.621,256,70.621s52.966,23.713,52.966,52.966c0,14.047-5.58,27.519-15.513,37.452
		C283.519,170.971,270.047,176.552,256,176.552z"/>
</g>
<g>
</g>
<g>
</g>
<g>
</g>
<g>
</g>
<g>
</g>
<g>
</g>
<g>
</g>
<g>
</g>
<g>
</g>
<g>
</g>
<g>
</g>
<g>
</g>
<g>
</g>
<g>
</g>
<g>
</g>
</svg>
