<?xml version="1.0" encoding="iso-8859-1"?>
<!-- Generator: Adobe Illustrator 19.0.0, SVG Export Plug-In . SVG Version: 6.00 Build 0)  -->
<svg version="1.1" id="Capa_1" xmlns="http://www.w3.org/2000/svg" xmlns:xlink="http://www.w3.org/1999/xlink" x="0px" y="0px"
	 viewBox="0 0 512 512" style="enable-background:new 0 0 512 512;" xml:space="preserve">
<g transform="translate(-2)">
	<path style="fill:#BDC3C7;" d="M321.283,239.907l-30.524,8.302L142.485,396.484l-24.968-24.968l148.275-148.275l8.302-30.524
		c1.672-5.293,5.818-9.439,11.111-11.111l48.875-14.919l13.234,13.234l-14.919,48.875
		C330.722,234.089,326.576,238.235,321.283,239.907z"/>
	<path style="fill:#F29C1F;" d="M105.045,359.029l49.937,49.937l-92.102,92.102c-13.79,13.79-36.147,13.79-49.937,0
		s-13.79-36.147,0-49.937L105.045,359.029z"/>
	<polygon style="fill:#E57E25;" points="143.78,432.64 81.361,370.22 81.361,345.255 100.084,326.532 187.468,413.916 
		168.745,432.64 	"/>
	<path style="fill:#95A5A5;" d="M454.767,306.14c-4.8,18.782-12.293,36.771-22.246,53.407l24.629,57.379
		c-5.65,6.974-11.741,13.683-18.097,20.127c-6.444,6.356-13.153,12.447-20.127,18.097l-57.379-24.629
		c-16.636,9.953-34.625,17.446-53.407,22.246l-23.128,57.821c-8.972,0.959-17.989,1.431-27.012,1.412v-97.103
		c87.756,0,158.897-71.14,158.897-158.897S345.757,97.103,258.001,97.103S99.104,168.244,99.104,256H2.001
		c-0.018-9.023,0.453-18.04,1.412-27.012l57.821-23.128c4.8-18.782,12.293-36.771,22.246-53.407L58.85,95.073
		c5.65-6.974,11.741-13.683,18.097-20.127C83.391,68.59,90.1,62.499,97.074,56.849l57.379,24.629
		c16.636-9.953,34.625-17.445,53.407-22.246l23.128-57.821c17.959-1.883,36.066-1.883,54.025,0l23.128,57.821
		c18.782,4.8,36.771,12.293,53.407,22.246l57.379-24.629c6.974,5.65,13.683,11.741,20.127,18.097
		c6.356,6.444,12.447,13.153,18.097,20.127l-24.629,57.379c9.953,16.636,17.446,34.625,22.246,53.407l57.821,23.128
		c1.883,17.959,1.883,36.066,0,54.025L454.767,306.14z"/>
</g>
<g>
</g>
<g>
</g>
<g>
</g>
<g>
</g>
<g>
</g>
<g>
</g>
<g>
</g>
<g>
</g>
<g>
</g>
<g>
</g>
<g>
</g>
<g>
</g>
<g>
</g>
<g>
</g>
<g>
</g>
</svg>
