<?xml version="1.0" encoding="iso-8859-1"?>
<!-- Generator: Adobe Illustrator 19.0.0, SVG Export Plug-In . SVG Version: 6.00 Build 0)  -->
<svg version="1.1" id="Capa_1" xmlns="http://www.w3.org/2000/svg" xmlns:xlink="http://www.w3.org/1999/xlink" x="0px" y="0px"
	 viewBox="0 0 512.018 512.018" style="enable-background:new 0 0 512.018 512.018;" xml:space="preserve">
<g>
	<path style="fill:#00a6fb;" d="M424.7,424.349l-49.964-49.876c-3.298-3.306-7.777-5.164-12.447-5.164
		c-4.67,0-9.148,1.858-12.447,5.164l-12.535,12.447l-20.039,20.039c-3.79,3.879-9.188,5.744-14.565,5.032
		c-24.011-3.178-73.976-21.274-127.647-75.034c-53.761-53.672-71.858-103.636-75.034-127.647c-0.713-5.377,1.151-10.775,5.03-14.566
		l20.038-20.039l12.448-12.535c3.306-3.299,5.163-7.777,5.163-12.447s-1.858-9.148-5.163-12.447L87.661,87.312
		c-6.904-6.886-18.078-6.886-24.982,0L50.233,99.847L26.31,123.682c-55.791,55.79-19.95,181.937,80.067,281.953
		s226.162,135.857,281.953,80.066l23.923-23.835l12.447-12.535C431.586,442.428,431.586,431.253,424.7,424.349z"/>
	<g>
		<path style="fill:#84B5CB;" d="M424.7,449.332l-12.447,12.535l-6.268-6.268l-68.679-68.679l12.535-12.447
			c3.298-3.306,7.777-5.164,12.447-5.164c4.67,0,9.148,1.858,12.447,5.164l49.964,49.876
			C431.585,431.253,431.585,442.428,424.7,449.332z"/>
		<path style="fill:#84B5CB;" d="M137.539,162.17l-12.448,12.535L50.233,99.847L62.68,87.312c6.904-6.886,18.078-6.886,24.982,0
			l49.877,49.964c3.306,3.299,5.163,7.777,5.163,12.447C142.703,154.393,140.845,158.872,137.539,162.17z"/>
	</g>
	<path style="fill:#4482C3;" d="M512.004,19.163v191.206c0.387,10.155-7.502,18.715-17.655,19.156H317.797l-55.526,68.061
		c-2.535,2.519-6.336,3.267-9.636,1.897c-3.301-1.37-5.454-4.591-5.459-8.164v-61.793h-17.655
		c-10.153-0.441-18.042-9.001-17.655-19.156V19.163c-0.387-10.155,7.502-18.715,17.655-19.156h264.828
		C504.502,0.448,512.392,9.008,512.004,19.163z"/>
	<g>
		<path style="fill:#BDC3C7;" d="M361.935,26.49c-2.341-0.001-4.587,0.929-6.243,2.585c-1.656,1.656-2.585,3.901-2.585,6.243v17.655
			c0,4.875,3.952,8.828,8.828,8.828s8.828-3.952,8.828-8.828V35.318c0.001-2.341-0.929-4.587-2.585-6.243
			C366.522,27.419,364.277,26.49,361.935,26.49z"/>
		<path style="fill:#BDC3C7;" d="M329.858,41.546c-2.439-4.22-7.837-5.666-12.058-3.229c-4.222,2.437-5.67,7.834-3.235,12.056
			l8.828,15.293c2.439,4.22,7.837,5.666,12.058,3.229c4.222-2.437,5.67-7.834,3.235-12.056L329.858,41.546z"/>
		<path style="fill:#BDC3C7;" d="M288.72,82.684l15.285,8.828c1.337,0.778,2.858,1.187,4.405,1.185
			c3.997,0.005,7.499-2.676,8.535-6.537c1.037-3.86-0.651-7.935-4.113-9.933L297.547,67.4c-2.731-1.588-6.103-1.595-8.841-0.019
			c-2.738,1.576-4.424,4.496-4.421,7.655C284.288,78.195,285.979,81.112,288.72,82.684z"/>
		<path style="fill:#BDC3C7;" d="M308.97,114.766c0.001-2.341-0.929-4.587-2.585-6.243c-1.656-1.656-3.901-2.585-6.243-2.585
			h-17.655c-4.875,0-8.828,3.952-8.828,8.828c0,4.875,3.952,8.828,8.828,8.828h17.655c2.341,0.001,4.587-0.929,6.243-2.585
			C308.041,119.353,308.97,117.107,308.97,114.766z"/>
		<path style="fill:#BDC3C7;" d="M316.065,141.249c-1.17-2.029-3.098-3.51-5.361-4.115s-4.673-0.287-6.7,0.887l-15.285,8.828
			c-2.74,1.572-4.432,4.489-4.434,7.648c-0.003,3.159,1.684,6.079,4.421,7.655c2.738,1.576,6.109,1.569,8.841-0.019l15.285-8.828
			c2.028-1.169,3.509-3.097,4.115-5.358C317.553,145.685,317.236,143.276,316.065,141.249z"/>
		<path style="fill:#BDC3C7;" d="M335.453,160.632c-2.027-1.173-4.438-1.492-6.701-0.885c-2.263,0.606-4.191,2.088-5.36,4.118
			l-8.828,15.293c-2.435,4.223-0.987,9.62,3.235,12.056s9.619,0.991,12.058-3.229l8.828-15.293c1.171-2.028,1.489-4.438,0.882-6.7
			C338.961,163.731,337.481,161.803,335.453,160.632z"/>
		<path style="fill:#BDC3C7;" d="M361.935,167.731c-2.341-0.001-4.587,0.929-6.243,2.585c-1.656,1.656-2.585,3.901-2.585,6.243
			v17.655c0,4.875,3.952,8.828,8.828,8.828s8.828-3.952,8.828-8.828v-17.655c0.001-2.341-0.929-4.587-2.585-6.243
			C366.522,168.661,364.277,167.731,361.935,167.731z"/>
		<path style="fill:#BDC3C7;" d="M400.478,163.865c-2.439-4.22-7.837-5.666-12.058-3.229c-4.222,2.437-5.67,7.834-3.235,12.056
			l8.828,15.293c1.576,2.734,4.491,4.418,7.646,4.419s6.071-1.682,7.649-4.415c1.577-2.733,1.577-6.1-0.002-8.832L400.478,163.865z"
			/>
		<path style="fill:#BDC3C7;" d="M435.151,146.848l-15.285-8.828c-2.731-1.588-6.103-1.595-8.841-0.019
			c-2.738,1.576-4.424,4.496-4.421,7.655c0.003,3.159,1.694,6.076,4.434,7.648l15.285,8.828c1.337,0.778,2.858,1.187,4.405,1.185
			c3.997,0.005,7.499-2.676,8.535-6.537C440.301,152.921,438.613,148.846,435.151,146.848z"/>
		<path style="fill:#BDC3C7;" d="M441.384,105.938h-17.655c-4.875,0-8.828,3.952-8.828,8.828s3.952,8.828,8.828,8.828h17.655
			c4.875,0,8.828-3.952,8.828-8.828S446.259,105.938,441.384,105.938z"/>
		<path style="fill:#BDC3C7;" d="M407.806,88.283c1.579,2.734,4.498,4.417,7.655,4.414c1.547,0.002,3.067-0.407,4.405-1.185
			l15.285-8.828c2.74-1.572,4.432-4.489,4.434-7.648c0.003-3.159-1.684-6.079-4.421-7.655c-2.738-1.576-6.109-1.569-8.841,0.019
			l-15.285,8.828c-2.028,1.169-3.509,3.097-4.115,5.358C406.317,83.847,406.635,86.256,407.806,88.283z"/>
		<path style="fill:#BDC3C7;" d="M388.418,68.9c4.223,2.435,9.621,0.989,12.06-3.233l8.828-15.293
			c1.579-2.732,1.58-6.099,0.002-8.832c-1.577-2.733-4.493-4.416-7.649-4.415c-3.155,0.001-6.07,1.686-7.646,4.419l-8.828,15.293
			c-1.171,2.028-1.489,4.438-0.882,6.7C384.909,65.801,386.39,67.729,388.418,68.9z"/>
	</g>
	<circle style="fill:#ECF0F1;" cx="361.935" cy="114.766" r="61.793"/>
	<circle style="fill:#BDC3C7;" cx="361.935" cy="114.766" r="26.483"/>
</g>
<g>
</g>
<g>
</g>
<g>
</g>
<g>
</g>
<g>
</g>
<g>
</g>
<g>
</g>
<g>
</g>
<g>
</g>
<g>
</g>
<g>
</g>
<g>
</g>
<g>
</g>
<g>
</g>
<g>
</g>
</svg>
