<?xml version="1.0" encoding="iso-8859-1"?>
<!-- Generator: Adobe Illustrator 19.0.0, SVG Export Plug-In . SVG Version: 6.00 Build 0)  -->
<svg version="1.1" id="Capa_1" xmlns="http://www.w3.org/2000/svg" xmlns:xlink="http://www.w3.org/1999/xlink" x="0px" y="0px"
	 viewBox="0 0 512 512" style="enable-background:new 0 0 512 512;" xml:space="preserve">
<g>
	<path style="fill:#802F34;" d="M313.923,150.069H198.078c-27.369,0.938-48.831,23.825-48.009,51.198v1.767
		c0,4.875,3.952,8.828,8.828,8.828s8.828-3.952,8.828-8.828v-1.767c-0.575-16.067,10.682-30.141,26.483-33.11v52.532
		c0,4.875,3.952,8.828,8.828,8.828c4.875,0,8.828-3.952,8.828-8.828v-52.966h88.276v52.966c0,4.875,3.952,8.828,8.828,8.828
		s8.828-3.952,8.828-8.828v-52.532c15.801,2.969,27.058,17.043,26.483,33.11v1.767c0,4.875,3.952,8.828,8.828,8.828
		s8.828-3.952,8.828-8.828v-1.767C362.753,173.894,341.292,151.007,313.923,150.069z"/>
	<path style="fill:#CC4B4C;" d="M353.104,300.138v17.655H158.897v-17.655c5.359-22.32,11.269-44.6,16.174-67.003
		c0.508-4.565,1.988-8.968,4.341-12.913c4.362-5.389,10.96-8.472,17.892-8.36h117.392c7.703-0.137,14.939,3.684,19.17,10.122
		c0.853,1.762,1.472,3.628,1.84,5.55C341.447,251.749,347.246,275.951,353.104,300.138z"/>
	<path style="fill:#BDC3C7;" d="M256,8.828C119.491,8.828,8.828,119.491,8.828,256S119.491,503.173,256,503.173
		S503.173,392.51,503.173,256C503.148,119.501,392.499,8.853,256,8.828z M256,423.724c-92.631,0-167.724-75.093-167.724-167.724
		S163.369,88.276,256,88.276S423.724,163.369,423.724,256C423.703,348.623,348.623,423.703,256,423.724z"/>
	<g>
		<path style="fill:#CC4B4C;" d="M321.718,17.695L300.519,94.72c-1.281,4.49-5.868,7.178-10.412,6.101
			c-22.441-4.956-45.694-4.956-68.135,0c-4.54,1.078-9.124-1.605-10.409-6.09l-21.281-77.036c-0.634-2.244-0.333-4.648,0.833-6.667
			c1.166-2.019,3.099-3.481,5.359-4.053c39.136-9.299,79.907-9.299,119.044-0.002c2.261,0.572,4.195,2.034,5.362,4.053
			S322.35,15.45,321.718,17.695z"/>
		<path style="fill:#CC4B4C;" d="M97.104,256c0.002,11.47,1.248,22.906,3.718,34.107c1.078,4.544-1.61,9.131-6.101,10.412
			l-77.026,21.198c-2.245,0.632-4.65,0.329-6.669-0.838c-2.019-1.167-3.481-3.101-4.053-5.362c-9.296-39.134-9.296-79.901,0-119.034
			c0.572-2.261,2.034-4.195,4.053-5.362s4.424-1.47,6.669-0.838l77.026,21.198c4.491,1.281,7.178,5.869,6.101,10.412
			C98.351,233.094,97.105,244.53,97.104,256z"/>
		<path style="fill:#CC4B4C;" d="M321.718,494.306c0.632,2.245,0.33,4.65-0.838,6.669c-1.167,2.019-3.101,3.481-5.362,4.053
			c-39.137,9.297-79.907,9.297-119.044-0.002c-2.26-0.572-4.193-2.034-5.359-4.053s-1.466-4.423-0.833-6.667l21.281-77.036
			c1.284-4.486,5.869-7.168,10.409-6.09c22.441,4.957,45.694,4.957,68.135,0c4.544-1.078,9.131,1.61,10.412,6.1L321.718,494.306z"/>
		<path style="fill:#CC4B4C;" d="M512,256c0.02,20.044-2.32,40.021-6.972,59.517c-0.572,2.261-2.034,4.195-4.053,5.362
			c-2.019,1.168-4.424,1.47-6.669,0.838L417.28,300.52c-4.491-1.281-7.178-5.869-6.101-10.412c4.957-22.468,4.957-45.746,0-68.214
			c-1.078-4.544,1.61-9.131,6.101-10.412l77.026-21.198c2.245-0.632,4.65-0.329,6.669,0.838c2.019,1.167,3.481,3.101,4.053,5.362
			C509.681,215.98,512.021,235.956,512,256z"/>
	</g>
	<path style="fill:#802F34;" d="M158.897,300.138h194.207v17.655c0,9.751-7.905,17.655-17.655,17.655H176.552
		c-9.751,0-17.655-7.904-17.655-17.655V300.138z"/>
	<circle style="fill:#ECF0F1;" cx="256" cy="273.655" r="26.483"/>
</g>
<g>
</g>
<g>
</g>
<g>
</g>
<g>
</g>
<g>
</g>
<g>
</g>
<g>
</g>
<g>
</g>
<g>
</g>
<g>
</g>
<g>
</g>
<g>
</g>
<g>
</g>
<g>
</g>
<g>
</g>
</svg>
