<?xml version="1.0" encoding="iso-8859-1"?>
<!-- Generator: Adobe Illustrator 19.0.0, SVG Export Plug-In . SVG Version: 6.00 Build 0)  -->
<svg version="1.1" id="Capa_1" xmlns="http://www.w3.org/2000/svg" xmlns:xlink="http://www.w3.org/1999/xlink" x="0px" y="0px"
	 viewBox="0 0 512 512" style="enable-background:new 0 0 512 512;" xml:space="preserve">
<g>
	<path style="fill:#4482C3;" d="M512,308.966v176.552c0.009,7.027-2.778,13.768-7.746,18.736s-11.71,7.756-18.736,7.746H167.724
		c-7.027,0.009-13.768-2.778-18.736-7.746c-4.969-4.969-7.756-11.71-7.746-18.736V308.966c-0.009-7.027,2.778-13.768,7.746-18.737
		c4.969-4.969,11.71-7.756,18.736-7.746h229.517l55.526-68.061c2.535-2.519,6.336-3.267,9.636-1.897
		c3.301,1.37,5.454,4.591,5.459,8.164v61.793h17.655c7.027-0.009,13.768,2.778,18.736,7.746
		C509.222,295.198,512.009,301.939,512,308.966z"/>
	<g>
		<path style="fill:#ECF0F1;" d="M432.552,414.897h-26.483v-22.069c0-4.875-3.952-8.828-8.828-8.828s-8.828,3.952-8.828,8.828
			v22.069h-37.409l44.944-74.905c2.509-4.18,1.154-9.603-3.026-12.112s-9.603-1.154-12.112,3.026l-52.966,88.276
			c-1.636,2.727-1.679,6.124-0.113,8.891c1.567,2.768,4.501,4.479,7.682,4.479h53v26.483c0,4.875,3.952,8.828,8.828,8.828
			s8.828-3.952,8.828-8.828v-26.483h26.483c4.875,0,8.828-3.952,8.828-8.828S437.427,414.897,432.552,414.897z"/>
		<path style="fill:#ECF0F1;" d="M285.526,419.349c1.323-1.543,2.629-3.099,3.901-4.672c10.353-12.78,19.888-26.944,19.53-43.892
			c0.048-20.681-14.208-38.647-34.358-43.302c-19.099-2.843-38.36,4.011-51.371,18.28c-3.428,3.467-3.396,9.057,0.071,12.485
			c3.467,3.428,9.057,3.396,12.485-0.071c8.981-9.884,22.16-14.856,35.431-13.366c11.907,3.193,20.159,14.018,20.086,26.345
			c-1.379,12.258-6.877,23.686-15.595,32.414c-1.172,1.448-2.375,2.875-3.586,4.289c-14.365,16.381-30.439,31.18-47.948,44.147
			c-3.019,2.291-4.238,6.254-3.029,9.846c1.209,3.592,4.576,6.011,8.366,6.012h70.552c4.875,0,8.828-3.952,8.828-8.828
			s-3.952-8.828-8.828-8.828h-45.569C265.593,440.711,275.967,430.397,285.526,419.349z"/>
	</g>
	<path style="fill:#ffffff;" d="M370.759,26.483v176.552c0.009,7.027-2.778,13.768-7.746,18.736
		c-4.969,4.969-11.71,7.756-18.737,7.746H114.759l-55.526,68.061c-2.535,2.519-6.336,3.267-9.636,1.897
		c-3.301-1.37-5.454-4.591-5.459-8.164v-61.793H26.483c-7.027,0.009-13.768-2.778-18.737-7.746
		c-4.969-4.969-7.756-11.71-7.746-18.736V26.483c-0.009-7.027,2.778-13.768,7.746-18.737S19.456-0.009,26.483,0h317.793
		c7.027-0.009,13.768,2.778,18.737,7.746C367.981,12.715,370.768,19.456,370.759,26.483z"/>
	<g>
		<path style="fill:#ECF0F1;" d="M176.552,167.724c-4.875,0-8.828-3.952-8.828-8.828v-9.517c0.052-8.754,6.496-16.156,15.16-17.414
			c12.155-1.772,23.025-8.52,30.006-18.627s9.443-22.662,6.796-34.657c-3.643-16.785-16.754-29.896-33.539-33.539
			c-13.172-2.847-26.924,0.412-37.418,8.866c-10.338,8.37-16.335,20.966-16.315,34.267c0,4.875-3.952,8.828-8.828,8.828
			s-8.828-3.952-8.828-8.828c0.002-32.979,25.902-60.145,58.844-61.719s61.314,22.997,64.462,55.826s-20.04,62.344-52.681,67.057
			l-0.004,9.457C185.379,163.772,181.427,167.724,176.552,167.724z"/>
		<path style="fill:#ECF0F1;" d="M176.552,203.035c-2.337-0.035-4.575-0.949-6.268-2.56c-0.353-0.444-0.707-0.884-1.06-1.323
			c-0.335-0.492-0.603-1.027-0.797-1.591c-0.254-0.501-0.431-1.037-0.526-1.59c-0.104-0.582-0.162-1.172-0.176-1.763
			c0.012-1.154,0.251-2.295,0.703-3.358c0.449-1.069,1.077-2.053,1.857-2.91c0.842-0.8,1.83-1.43,2.909-1.858
			c2.151-0.879,4.561-0.879,6.711,0c2.215,0.807,3.96,2.552,4.767,4.767c0.453,1.062,0.694,2.203,0.708,3.358
			c-0.016,0.591-0.075,1.18-0.177,1.763c-0.098,0.553-0.277,1.089-0.53,1.59c-0.194,0.563-0.462,1.098-0.797,1.591
			c-0.349,0.44-0.703,0.879-1.056,1.323c-0.86,0.778-1.845,1.405-2.914,1.854C178.858,202.823,177.71,203.065,176.552,203.035z"/>
	</g>
</g>
<g>
</g>
<g>
</g>
<g>
</g>
<g>
</g>
<g>
</g>
<g>
</g>
<g>
</g>
<g>
</g>
<g>
</g>
<g>
</g>
<g>
</g>
<g>
</g>
<g>
</g>
<g>
</g>
<g>
</g>
</svg>
