<?xml version="1.0" encoding="UTF-8" standalone="no"?>
<!-- Generator: Adobe Illustrator 19.0.0, SVG Export Plug-In . SVG Version: 6.00 Build 0)  -->

<svg
   xmlns:dc="http://purl.org/dc/elements/1.1/"
   xmlns:cc="http://creativecommons.org/ns#"
   xmlns:rdf="http://www.w3.org/1999/02/22-rdf-syntax-ns#"
   xmlns:svg="http://www.w3.org/2000/svg"
   xmlns="http://www.w3.org/2000/svg"
   xmlns:sodipodi="http://sodipodi.sourceforge.net/DTD/sodipodi-0.dtd"
   xmlns:inkscape="http://www.inkscape.org/namespaces/inkscape"
   version="1.1"
   id="Capa_1"
   x="0px"
   y="0px"
   viewBox="0 0 512 512"
   style="enable-background:new 0 0 512 512;"
   xml:space="preserve"
   inkscape:version="0.91 r13725"
   sodipodi:docname="question.svg"><metadata
     id="metadata69"><rdf:RDF><cc:Work
         rdf:about=""><dc:format>image/svg+xml</dc:format><dc:type
           rdf:resource="http://purl.org/dc/dcmitype/StillImage" /></cc:Work></rdf:RDF></metadata><defs
     id="defs67" /><sodipodi:namedview
     pagecolor="#ffffff"
     bordercolor="#666666"
     borderopacity="1"
     objecttolerance="10"
     gridtolerance="10"
     guidetolerance="10"
     inkscape:pageopacity="0"
     inkscape:pageshadow="2"
     inkscape:window-width="692"
     inkscape:window-height="480"
     id="namedview65"
     showgrid="false"
     inkscape:zoom="0.4609375"
     inkscape:cx="256"
     inkscape:cy="251.66102"
     inkscape:window-x="0"
     inkscape:window-y="0"
     inkscape:window-maximized="0"
     inkscape:current-layer="g3" /><g
     id="g3"><path
       style="fill:#1464c8;fill-opacity:1"
       d="M512,308.966v176.552c0.009,7.027-2.778,13.768-7.746,18.736s-11.71,7.756-18.736,7.746H167.724   c-7.027,0.009-13.768-2.778-18.736-7.746c-4.969-4.969-7.756-11.71-7.746-18.736V308.966c-0.009-7.027,2.778-13.768,7.746-18.737   c4.969-4.969,11.71-7.756,18.736-7.746h229.517l55.526-68.061c2.535-2.519,6.336-3.267,9.636-1.897   c3.301,1.37,5.454,4.591,5.459,8.164v61.793h17.655c7.027-0.009,13.768,2.778,18.736,7.746   C509.222,295.198,512.009,301.939,512,308.966z"
       id="path5" /><path
       style="fill:#ECF0F1;"
       d="M344.276,441.348l0.015,16.788c0.223,7.768-4.504,14.822-11.773,17.569   c-5.408,1.879-11.391,1.031-16.064-2.277c-4.673-3.308-7.462-8.668-7.488-14.394l-0.016-17.655L344.276,441.348z"
       id="path7" /><g
       id="g9"><path
         style="fill:#E4C05C;"
         d="M220.699,379.604l17.655-0.018c4.875-0.002,8.826-3.957,8.823-8.832s-3.957-8.826-8.832-8.823    h-0.009l-17.655,0.018c-4.875,0.002-8.826,3.957-8.823,8.832s3.957,8.826,8.832,8.823H220.699z"
         id="path11" /><path
         style="fill:#E4C05C;"
         d="M224.168,342.931l16.595,6.022c2.968,1.09,6.292,0.51,8.715-1.521s3.575-5.203,3.02-8.316    c-0.555-3.113-2.733-5.691-5.709-6.758l-16.595-6.022c-4.577-1.645-9.623,0.723-11.283,5.294    C217.25,336.203,219.601,341.256,224.168,342.931z"
         id="path13" /><path
         style="fill:#E4C05C;"
         d="M240.802,392.746l-16.586,6.052c-2.963,1.081-5.124,3.661-5.669,6.767    c-0.545,3.106,0.608,6.268,3.026,8.293c2.418,2.025,5.732,2.607,8.695,1.526l16.586-6.052c2.963-1.081,5.124-3.661,5.669-6.767    c0.545-3.106-0.608-6.268-3.026-8.293C247.079,392.246,243.765,391.665,240.802,392.746z"
         id="path15" /><path
         style="fill:#E4C05C;"
         d="M432.552,361.914h-0.009l-17.655,0.018c-4.851,0.037-8.763,3.981-8.761,8.832    c0.002,4.851,3.919,8.791,8.77,8.823h0.009l17.655-0.018c4.875-0.002,8.826-3.957,8.823-8.832    C441.381,365.861,437.427,361.911,432.552,361.914L432.552,361.914z"
         id="path17" /><path
         style="fill:#E4C05C;"
         d="M409.681,349.341c1.032-0.002,2.056-0.185,3.026-0.538l16.582-6.052    c2.963-1.081,5.124-3.661,5.669-6.767c0.545-3.106-0.608-6.268-3.026-8.293c-2.418-2.025-5.732-2.607-8.695-1.526l-16.582,6.052    c-4.023,1.469-6.412,5.613-5.667,9.831C401.734,346.264,405.398,349.339,409.681,349.341L409.681,349.341z"
         id="path19" /><path
         style="fill:#E4C05C;"
         d="M429.341,398.621l-16.595-6.026c-4.577-1.645-9.623,0.723-11.283,5.294    c-1.66,4.572,0.691,9.625,5.257,11.3l16.595,6.026c4.575,1.638,9.614-0.73,11.273-5.298    C436.246,405.35,433.901,400.3,429.341,398.621z"
         id="path21" /></g><path
       style="fill:#00a6fb;fill-opacity:1"
       d="M370.759,26.483v176.552c0.009,7.027-2.778,13.768-7.746,18.736   c-4.969,4.969-11.71,7.756-18.737,7.746H114.759l-55.526,68.061c-2.535,2.519-6.336,3.267-9.636,1.897   c-3.301-1.37-5.454-4.591-5.459-8.164v-61.793H26.483c-7.027,0.009-13.768-2.778-18.737-7.746   c-4.969-4.969-7.756-11.71-7.746-18.736V26.483c-0.009-7.027,2.778-13.768,7.746-18.737S19.456-0.009,26.483,0h317.793   c7.027-0.009,13.768,2.778,18.737,7.746C367.981,12.715,370.768,19.456,370.759,26.483z"
       id="path23" /><path
       style="fill:#E4C05C;"
       d="M378.914,362.212c3.068,18.773-4.185,37.747-18.992,49.688c-4.258,3.352-6.766,8.455-6.818,13.874   v6.778c0,4.875-3.952,8.828-8.828,8.828h-35.31c-4.875,0-8.828-3.952-8.828-8.828v-6.8c-0.011-5.338-2.452-10.381-6.632-13.702   c-18.427-14.785-24.832-39.986-15.701-61.775c9.131-21.789,31.59-34.894,55.052-32.124   C356.318,320.921,375.108,338.896,378.914,362.212z"
       id="path25" /><path
       style="fill:#F9EAB0;"
       d="M344.41,379.586c-4.872-0.001-8.822-3.947-8.828-8.819c-0.01-4.87-3.958-8.813-8.828-8.819h-0.018   c-3.154,0.002-6.069-1.679-7.647-4.41c-1.578-2.73-1.58-6.096-0.004-8.828s4.489-4.416,7.643-4.418h0.026   c14.609,0.016,26.452,11.848,26.483,26.457c0.005,4.875-3.944,8.831-8.819,8.836L344.41,379.586z"
       id="path27" /><g
       id="g29"><path
         style="fill:#ECF0F1;"
         d="M176.552,167.724c-4.875,0-8.828-3.952-8.828-8.828v-9.517c0.052-8.754,6.496-16.156,15.16-17.414    c12.155-1.772,23.025-8.52,30.006-18.627s9.443-22.662,6.796-34.657c-3.643-16.785-16.754-29.896-33.539-33.539    c-13.172-2.847-26.924,0.412-37.418,8.866c-10.338,8.37-16.335,20.966-16.315,34.267c0,4.875-3.952,8.828-8.828,8.828    s-8.828-3.952-8.828-8.828c0.002-32.979,25.902-60.145,58.844-61.719s61.314,22.997,64.462,55.826s-20.04,62.344-52.681,67.057    l-0.004,9.457C185.379,163.772,181.427,167.724,176.552,167.724z"
         id="path31" /><path
         style="fill:#ECF0F1;"
         d="M176.552,203.035c-2.337-0.035-4.575-0.949-6.268-2.56c-0.353-0.444-0.707-0.884-1.06-1.323    c-0.335-0.492-0.603-1.027-0.797-1.591c-0.254-0.501-0.431-1.037-0.526-1.59c-0.104-0.582-0.162-1.172-0.176-1.763    c0.012-1.154,0.251-2.295,0.703-3.358c0.449-1.069,1.077-2.053,1.857-2.91c0.842-0.8,1.83-1.43,2.909-1.858    c2.151-0.879,4.561-0.879,6.711,0c2.215,0.807,3.96,2.552,4.767,4.767c0.453,1.062,0.694,2.203,0.708,3.358    c-0.016,0.591-0.075,1.18-0.177,1.763c-0.098,0.553-0.277,1.089-0.53,1.59c-0.194,0.563-0.462,1.098-0.797,1.591    c-0.349,0.44-0.703,0.879-1.056,1.323c-0.86,0.778-1.845,1.405-2.914,1.854C178.858,202.823,177.71,203.065,176.552,203.035z"
         id="path33" /></g></g><g
     id="g35" /><g
     id="g37" /><g
     id="g39" /><g
     id="g41" /><g
     id="g43" /><g
     id="g45" /><g
     id="g47" /><g
     id="g49" /><g
     id="g51" /><g
     id="g53" /><g
     id="g55" /><g
     id="g57" /><g
     id="g59" /><g
     id="g61" /><g
     id="g63" /></svg>