<?xml version="1.0" encoding="iso-8859-1"?>
<!-- Generator: Adobe Illustrator 19.0.0, SVG Export Plug-In . SVG Version: 6.00 Build 0)  -->
<svg version="1.1" id="Capa_1" xmlns="http://www.w3.org/2000/svg" xmlns:xlink="http://www.w3.org/1999/xlink" x="0px" y="0px"
	 viewBox="0 0 512.014 512.014" style="enable-background:new 0 0 512.014 512.014;" xml:space="preserve">
<g>
	<path style="fill:#8697CB;" d="M317.793,353.11v132.414c0.009,7.027-2.778,13.768-7.746,18.736
		c-4.969,4.969-11.71,7.756-18.737,7.746H26.483c-7.027,0.009-13.768-2.778-18.737-7.746c-4.969-4.969-7.756-11.71-7.746-18.736
		V26.49c-0.009-7.027,2.778-13.768,7.746-18.737s11.71-7.756,18.737-7.746H291.31c7.027-0.009,13.768,2.778,18.737,7.746
		c4.969,4.969,7.756,11.71,7.746,18.737V353.11z"/>
	<path style="fill:#B0D3F0;" d="M282.483,353.11v114.759c-0.014,4.869-3.958,8.813-8.828,8.828H44.138
		c-4.869-0.014-8.813-3.958-8.828-8.828V44.145c0.014-4.869,3.958-8.813,8.828-8.828h35.31c4.869,0.014,8.813,3.958,8.828,8.828
		V61.8c0.014,4.869,3.958,8.813,8.828,8.828H220.69c4.869-0.014,8.813-3.958,8.828-8.828V44.145
		c0.014-4.869,3.958-8.813,8.828-8.828h35.31c4.869,0.014,8.813,3.958,8.828,8.828V353.11z"/>
	<path style="fill:#ffffff;" d="M512,142.749v191.206c0.387,10.155-7.502,18.715-17.655,19.156H282.483l-55.526,68.061
		c-2.535,2.519-6.336,3.267-9.636,1.897c-3.301-1.37-5.454-4.591-5.459-8.164V353.11h-17.655
		c-10.153-0.441-18.042-9.001-17.655-19.156V142.749c-0.387-10.155,7.502-18.715,17.655-19.156h300.138
		C504.498,124.034,512.387,132.594,512,142.749z"/>
	<g>
		<path style="fill:#556080;" d="M137.353,27.99c-0.491-0.335-1.024-0.603-1.586-0.797c-0.527-0.267-1.095-0.445-1.681-0.526
			c-1.131-0.267-2.309-0.267-3.44,0c-0.552,0.095-1.087,0.272-1.586,0.526c-0.565,0.194-1.101,0.462-1.595,0.797l-1.319,1.06
			c-3.414,3.481-3.414,9.054,0,12.534c1.683,1.627,3.927,2.544,6.268,2.561c0.561-0.016,1.12-0.075,1.672-0.177
			c0.585-0.085,1.153-0.264,1.681-0.53c0.562-0.194,1.095-0.462,1.586-0.797c0.44-0.35,0.888-0.703,1.328-1.056
			c3.414-3.481,3.414-9.054,0-12.534C138.241,28.697,137.793,28.343,137.353,27.99z"/>
		<path style="fill:#556080;" d="M185.379,26.49h-17.655c-4.875,0-8.828,3.952-8.828,8.828s3.952,8.828,8.828,8.828h17.655
			c4.875,0,8.828-3.952,8.828-8.828S190.255,26.49,185.379,26.49z"/>
	</g>
	<g>
		<path style="fill:#ECF0F1;" d="M404.69,198.671c-6.746-30.838-35.643-51.639-67.027-48.25
			c-31.384,3.39-55.174,29.881-55.18,61.448c0,4.875,3.952,8.828,8.828,8.828s8.828-3.952,8.828-8.828
			c-0.021-13.302,5.979-25.899,16.319-34.267c10.483-8.472,24.243-11.733,37.414-8.866c16.785,3.645,29.896,16.755,33.543,33.539
			c2.645,11.996,0.182,24.552-6.8,34.659c-6.982,10.107-17.854,16.854-30.01,18.625c-8.661,1.262-15.1,8.662-15.155,17.414v9.517
			c0,4.875,3.952,8.828,8.828,8.828s8.828-3.952,8.828-8.828v-9.457c16.985-2.457,32.185-11.86,41.967-25.961
			C404.852,232.971,408.336,215.44,404.69,198.671z"/>
		<path style="fill:#ECF0F1;" d="M350.543,311.532c-0.859-0.78-1.844-1.409-2.914-1.858c-2.151-0.879-4.561-0.879-6.711,0
			c-1.08,0.427-2.068,1.058-2.91,1.858c-0.78,0.857-1.409,1.841-1.858,2.909c-0.452,1.063-0.69,2.204-0.702,3.358
			c0.014,0.591,0.073,1.181,0.177,1.763c0.095,0.554,0.272,1.09,0.526,1.59c0.194,0.563,0.462,1.098,0.797,1.591
			c0.353,0.44,0.707,0.879,1.06,1.323c1.693,1.611,3.931,2.526,6.267,2.56c1.158,0.03,2.306-0.212,3.353-0.707
			c1.069-0.449,2.054-1.076,2.914-1.854c0.353-0.444,0.707-0.884,1.056-1.323c0.335-0.492,0.603-1.027,0.797-1.591
			c0.253-0.501,0.432-1.037,0.53-1.59c0.101-0.582,0.161-1.172,0.177-1.763c-0.014-1.155-0.254-2.296-0.707-3.358
			C351.948,313.375,351.321,312.391,350.543,311.532z"/>
	</g>
</g>
<g>
</g>
<g>
</g>
<g>
</g>
<g>
</g>
<g>
</g>
<g>
</g>
<g>
</g>
<g>
</g>
<g>
</g>
<g>
</g>
<g>
</g>
<g>
</g>
<g>
</g>
<g>
</g>
<g>
</g>
</svg>
