<?xml version="1.0" encoding="iso-8859-1"?>
<!-- Generator: Adobe Illustrator 19.0.0, SVG Export Plug-In . SVG Version: 6.00 Build 0)  -->
<svg version="1.1" id="Capa_1" xmlns="http://www.w3.org/2000/svg" xmlns:xlink="http://www.w3.org/1999/xlink" x="0px" y="0px"
	 viewBox="0 0 512 512" style="enable-background:new 0 0 512 512;" xml:space="preserve">
<g>
	<path style="fill:#3F5C6C;" d="M21.695,269.017v-34.712C21.695,104.902,126.597,0,256,0s234.305,104.902,234.305,234.305v34.712
		h-34.712v-34.712c0-110.232-89.361-199.593-199.593-199.593S56.407,124.073,56.407,234.305v34.712H21.695z"/>
	<path style="fill:#4482C3;" d="M401.131,444.917c65.855-77.075,59.981-192.182-13.377-262.153s-188.614-70.402-262.492-0.981
		S44.65,366.265,109.926,443.829c0.315,0.441,0.671,0.852,1.062,1.227c36.125,42.389,88.989,66.848,144.683,66.944
		s108.641-24.184,144.911-66.449C400.799,445.384,400.93,445.107,401.131,444.917z M82.88,329.763h77.875
		c0.421,26.743,3.863,53.353,10.263,79.322c-17.884,4.207-35.228,10.447-51.693,18.597C97.343,399.596,84.61,365.386,82.88,329.763z
		 M119.325,214.487c16.465,8.15,33.809,14.39,51.693,18.597c-6.399,25.969-9.842,52.579-10.263,79.322H82.88
		C84.61,276.784,97.343,242.573,119.325,214.487z M429.12,312.407h-77.875c-0.421-26.737-3.862-53.341-10.258-79.305
		c17.89-4.201,35.24-10.436,51.712-18.583C414.666,242.599,427.39,276.797,429.12,312.407z M333.897,312.407h-69.219v-69.652
		c19.855-0.402,39.645-2.406,59.177-5.993C330.046,261.518,333.414,286.894,333.897,312.407z M264.678,225.403V148.73
		c22.028,5.707,41.557,32.787,54.259,71.334C301.016,223.239,282.875,225.024,264.678,225.403z M247.322,148.73v76.673
		c-18.196-0.38-36.336-2.169-54.256-5.35C205.768,181.513,225.296,154.435,247.322,148.73z M247.322,242.754v69.653h-69.219
		c0.483-25.516,3.852-50.896,10.044-75.654C207.678,240.344,227.468,242.351,247.322,242.754z M178.103,329.763h69.219v69.653
		c-19.855,0.403-39.644,2.41-59.175,6.002C181.955,380.659,178.586,355.279,178.103,329.763z M247.322,416.767v76.673
		c-22.026-5.706-41.554-32.783-54.256-71.323C210.986,418.936,229.126,417.147,247.322,416.767z M264.678,493.44v-76.674
		c18.197,0.38,36.338,2.165,54.259,5.34C306.235,460.652,286.706,487.733,264.678,493.44z M264.678,399.414v-69.651h69.219
		c-0.482,25.513-3.851,50.889-10.041,75.644C304.323,401.82,284.533,399.816,264.678,399.414L264.678,399.414z M351.245,329.763
		h77.875c-1.73,35.61-14.454,69.808-36.421,97.887c-16.472-8.147-33.822-14.381-51.712-18.583
		C347.383,383.104,350.824,356.5,351.245,329.763z M381.007,200.99c-14.359,6.68-29.37,11.857-44.794,15.448
		c-6.672-22.847-18.013-44.059-33.308-62.296C332.646,162.526,359.609,178.699,381.007,200.99z M209.095,154.143
		c-15.292,18.232-26.632,39.439-33.303,62.281c-15.417-3.597-30.421-8.779-44.772-15.462
		C152.414,178.685,179.367,162.522,209.095,154.143z M131.02,441.208c14.351-6.683,29.355-11.865,44.772-15.462
		c6.671,22.841,18.012,44.049,33.304,62.281C179.367,479.647,152.414,463.485,131.02,441.208z M302.905,488.027
		c15.295-18.237,26.637-39.45,33.309-62.297c15.424,3.592,30.435,8.769,44.793,15.449
		C359.609,463.471,332.646,479.643,302.905,488.027z"/>
	<path style="fill:#3F5C6C;" d="M56.407,355.797v104.136c0,4.793,3.885,8.678,8.678,8.678h77.171
		c8.72-0.194,16.324,5.89,18.049,14.44c0.855,5.041-0.555,10.203-3.854,14.109c-3.299,3.906-8.151,6.161-13.264,6.163H39.051
		c-9.585,0-17.356-7.771-17.356-17.356V355.797H56.407z"/>
	<g>
		<path style="fill:#547580;" d="M21.695,242.983h34.712c9.585,0,17.356,7.771,17.356,17.356v104.136
			c0,9.585-7.771,17.356-17.356,17.356H21.695c-9.585,0-17.356-7.771-17.356-17.356V260.339
			C4.339,250.754,12.11,242.983,21.695,242.983z"/>
		<path style="fill:#547580;" d="M455.593,242.983h34.712c9.585,0,17.356,7.771,17.356,17.356v104.136
			c0,9.585-7.771,17.356-17.356,17.356h-34.712c-9.585,0-17.356-7.771-17.356-17.356V260.339
			C438.237,250.754,446.008,242.983,455.593,242.983z"/>
	</g>
</g>
<g>
</g>
<g>
</g>
<g>
</g>
<g>
</g>
<g>
</g>
<g>
</g>
<g>
</g>
<g>
</g>
<g>
</g>
<g>
</g>
<g>
</g>
<g>
</g>
<g>
</g>
<g>
</g>
<g>
</g>
</svg>
