<?xml version="1.0" encoding="iso-8859-1"?>
<!-- Generator: Adobe Illustrator 19.0.0, SVG Export Plug-In . SVG Version: 6.00 Build 0)  -->
<svg version="1.1" id="Capa_1" xmlns="http://www.w3.org/2000/svg" xmlns:xlink="http://www.w3.org/1999/xlink" x="0px" y="0px"
	 viewBox="0 0 512 512" style="enable-background:new 0 0 512 512;" xml:space="preserve">
<g>
	<path style="fill:#BDC3C7;" d="M321.084,156.203c-2.302,0.001-4.509-0.913-6.137-2.541c-1.628-1.628-2.542-3.835-2.541-6.137
		v-8.678c0-66.992-50.606-121.492-112.814-121.492S86.779,71.856,86.779,138.847v8.678c0,4.793-3.885,8.678-8.678,8.678
		c-4.793,0-8.678-3.885-8.678-8.678v-8.678C69.423,62.288,127.817,0,199.593,0s130.169,62.288,130.169,138.847v8.678
		c0.001,2.302-0.914,4.509-2.541,6.137C325.594,155.29,323.386,156.204,321.084,156.203z"/>
	<path style="fill:#F29C1F;" d="M390.508,485.619V512H8.677l0-28.117c-0.013-25.471,13.904-48.911,36.274-61.093l77.407-42.262
		c10.184-5.521,16.516-16.185,16.488-27.769v-20.007c0.01-1.88-0.601-3.71-1.737-5.207c-15.307-20.014-26.513-42.853-32.975-67.207
		V138.847c0,0-10.327-78.102,95.458-78.102s95.458,78.102,95.458,78.102v121.492c-6.462,24.354-17.668,47.193-32.975,67.207
		c-1.136,1.497-1.747,3.327-1.737,5.207v20.875c-0.027,11.953,6.688,22.899,17.356,28.29l74.37,41.394
		C375.624,435.147,390.497,459.254,390.508,485.619z"/>
	<g>
		<path style="fill:#95A5A5;" d="M104.135,147.525v86.78H69.423c-9.574-0.028-17.328-7.782-17.356-17.356v-52.068
			c0.028-9.574,7.782-17.328,17.356-17.356H104.135z"/>
		<path style="fill:#95A5A5;" d="M329.762,234.305H295.05v-86.78h34.712c9.585,0,17.356,7.771,17.356,17.356v52.068
			C347.118,226.535,339.348,234.305,329.762,234.305z"/>
	</g>
	<path style="fill:#BDC3C7;" d="M199.593,286.373c-0.014,4.787-3.891,8.664-8.678,8.678h-88.949
		c-18.563-0.619-33.121-16.148-32.542-34.712v-26.034h17.356v26.034c-0.523,8.96,6.236,16.685,15.186,17.356h88.949
		C195.702,277.709,199.579,281.586,199.593,286.373z"/>
	<path style="fill:#E6E7E8;" d="M190.915,269.017h26.034c9.585,0,17.356,7.771,17.356,17.356l0,0
		c0,9.585-7.771,17.356-17.356,17.356h-26.034c-9.585,0-17.356-7.771-17.356-17.356l0,0
		C173.559,276.787,181.329,269.017,190.915,269.017z"/>
	<path style="fill:#547580;" d="M468.61,243.936V137.894c0.043-2.95,1.558-5.683,4.036-7.283
		c21.308-14.328,32.964-39.25,30.301-64.789c-2.663-25.539-19.21-47.521-43.016-57.144v52.068
		c-0.028,9.574-7.782,17.328-17.356,17.356H425.22c-9.574-0.028-17.328-7.782-17.356-17.356V8.678
		c-23.806,9.624-40.353,31.605-43.016,57.144c-2.663,25.539,8.993,50.461,30.301,64.789c2.478,1.6,3.993,4.333,4.036,7.283v106.042
		c-0.043,2.95-1.558,5.683-4.036,7.283c-21.308,14.328-32.964,39.25-30.301,64.789c2.663,25.539,19.21,47.521,43.016,57.144v-52.068
		c0.028-9.574,7.782-17.328,17.356-17.356h17.356c9.574,0.028,17.328,7.782,17.356,17.356v52.068
		c23.806-9.624,40.353-31.605,43.016-57.144c2.663-25.539-8.993-50.461-30.301-64.789
		C470.168,249.619,468.653,246.886,468.61,243.936z"/>
</g>
<g>
</g>
<g>
</g>
<g>
</g>
<g>
</g>
<g>
</g>
<g>
</g>
<g>
</g>
<g>
</g>
<g>
</g>
<g>
</g>
<g>
</g>
<g>
</g>
<g>
</g>
<g>
</g>
<g>
</g>
</svg>
