<?xml version="1.0" encoding="iso-8859-1"?>
<!-- Generator: Adobe Illustrator 19.0.0, SVG Export Plug-In . SVG Version: 6.00 Build 0)  -->
<svg version="1.1" id="Capa_1" xmlns="http://www.w3.org/2000/svg" xmlns:xlink="http://www.w3.org/1999/xlink" x="0px" y="0px"
	 viewBox="0 0 512 512" style="enable-background:new 0 0 512 512;" xml:space="preserve">
<g>
	<path style="fill:#95A5A5;" d="M378.262,269.683c1.765-12,1.765-24.193,0-36.193l-29.261-9.754
		c-1.879-6.325-4.403-12.441-7.53-18.252l13.777-27.554c-7.237-9.733-15.859-18.355-25.592-25.592l-27.554,13.777
		c-5.811-3.127-11.927-5.65-18.252-7.529l-9.754-29.261c-12-1.765-24.193-1.765-36.193,0l-9.754,29.261
		c-6.325,1.879-12.441,4.402-18.252,7.529l-27.554-13.777c-9.733,7.237-18.355,15.859-25.592,25.592l13.777,27.554
		c-3.127,5.811-5.65,11.927-7.53,18.252l-29.261,9.754c-1.765,12-1.765,24.193,0,36.193l29.261,9.754
		c1.879,6.325,4.402,12.441,7.529,18.252l-13.777,27.554c7.237,9.733,15.859,18.355,25.592,25.592l27.554-13.777
		c5.811,3.127,11.927,5.65,18.252,7.53l9.754,29.26c12,1.765,24.193,1.765,36.193,0l9.754-29.261
		c6.325-1.879,12.441-4.403,18.252-7.53l27.554,13.778c9.733-7.237,18.355-15.859,25.592-25.592l-13.777-27.554
		c3.127-5.811,5.65-11.927,7.529-18.252L378.262,269.683z M256,304.552c-29.252,0-52.966-23.713-52.966-52.966
		s23.713-52.966,52.966-52.966s52.966,23.713,52.966,52.966S285.252,304.552,256,304.552z"/>
	<g>
		<path style="fill:#4482C3;" d="M228.571,463.448H114.759c-19.501,0-35.31-15.809-35.31-35.31v-17.655h-35.31v17.655
			c0,39.003,31.618,70.621,70.621,70.621h114.759L228.571,463.448z"/>
		<path style="fill:#4482C3;" d="M70.621,233.931C70.621,126.845,153.78,39.724,256,39.724s185.379,87.121,185.379,194.207h35.31
			C476.69,107.172,377.884,4.414,256,4.414S35.31,107.172,35.31,233.931H70.621z"/>
	</g>
	<g>
		<path style="fill:#285680;" d="M35.31,225.103h52.966c4.875,0,8.828,3.952,8.828,8.828v176.552c0,4.875-3.952,8.828-8.828,8.828
			H35.31C15.809,419.31,0,403.501,0,384V260.414C0,240.912,15.809,225.103,35.31,225.103z"/>
		<path style="fill:#285680;" d="M476.69,419.31h-52.966c-4.875,0-8.828-3.952-8.828-8.828V233.931c0-4.875,3.952-8.828,8.828-8.828
			h52.966c19.501,0,35.31,15.809,35.31,35.31V384C512,403.501,496.191,419.31,476.69,419.31z"/>
		<path style="fill:#285680;" d="M211.862,454.621h79.448c4.875,0,8.828,3.952,8.828,8.828v35.31c0,4.875-3.952,8.828-8.828,8.828
			h-79.448c-4.875,0-8.828-3.952-8.828-8.828v-35.31C203.034,458.573,206.987,454.621,211.862,454.621z"/>
	</g>
</g>
<g>
</g>
<g>
</g>
<g>
</g>
<g>
</g>
<g>
</g>
<g>
</g>
<g>
</g>
<g>
</g>
<g>
</g>
<g>
</g>
<g>
</g>
<g>
</g>
<g>
</g>
<g>
</g>
<g>
</g>
</svg>
