<?xml version="1.0" encoding="iso-8859-1"?>
<!-- Generator: Adobe Illustrator 19.0.0, SVG Export Plug-In . SVG Version: 6.00 Build 0)  -->
<svg version="1.1" id="Capa_1" xmlns="http://www.w3.org/2000/svg" xmlns:xlink="http://www.w3.org/1999/xlink" x="0px" y="0px"
	 viewBox="0 0 512.003 512.003" style="enable-background:new 0 0 512.003 512.003;" xml:space="preserve">
<g>
	<path style="fill:#4482C3;" d="M512.003,17.657v105.931c0,9.751-7.904,17.655-17.655,17.655h-97.103l-52.966,44.138v-44.138
		h-17.655c-9.751,0-17.655-7.904-17.655-17.655V17.657c0-9.751,7.905-17.655,17.655-17.655h167.724
		C504.099,0.002,512.003,7.906,512.003,17.657z"/>
	<g>
		<path style="fill:#ffffff;" d="M368.175,46.726c-1.655-1.656-3.9-2.586-6.241-2.586c-2.341,0-4.586,0.93-6.241,2.586
			l-17.655,17.655c-1.656,1.655-2.586,3.9-2.586,6.241c0,2.341,0.93,4.586,2.586,6.241l17.655,17.655
			c2.23,2.23,5.48,3.101,8.526,2.285c3.046-0.816,5.425-3.195,6.241-6.241c0.816-3.046-0.055-6.296-2.284-8.526l-11.414-11.414
			l11.414-11.414c1.656-1.655,2.586-3.9,2.586-6.241S369.831,48.381,368.175,46.726z"/>
		<path style="fill:#ffffff;" d="M482.934,64.381l-17.655-17.655c-3.456-3.394-9.001-3.369-12.426,0.056
			c-3.425,3.425-3.45,8.97-0.056,12.426l11.414,11.414l-11.414,11.414c-2.253,2.225-3.142,5.487-2.328,8.547
			c0.813,3.06,3.204,5.451,6.264,6.264c3.061,0.813,6.322-0.076,8.547-2.329l17.655-17.655c1.656-1.655,2.586-3.9,2.586-6.241
			C485.52,68.281,484.59,66.036,482.934,64.381z"/>
		<path style="fill:#ffffff;" d="M427.676,36.243c-4.362-2.17-9.657-0.405-11.845,3.948l-26.483,52.966
			c-2.167,4.359-0.396,9.649,3.958,11.826c4.354,2.177,9.648,0.419,11.836-3.929l26.483-52.966c1.047-2.094,1.22-4.519,0.479-6.74
			C431.363,39.126,429.77,37.29,427.676,36.243z"/>
	</g>
	<path style="fill:#CBB292;" d="M344.219,352.487c-0.441,3.443-4.59,6.268-7.062,8.121c-5.473,3.972-16.596,6.621-17.92,13.771
		c-0.751,3.63-0.318,7.405,1.236,10.77c3.796,7.768,7.945,12.006,5.032,14.389c-2.913,2.472-10.858,8.298-10.858,8.298
		s7.415,9.445,3.354,12.27c-5.208,3.619-11.741,5.297-13.506,12.094c-0.524,5.32,0.016,10.692,1.589,15.801
		c0.545,5.028-0.121,10.113-1.942,14.83c-2.618,9.489-12.177,15.294-21.804,13.241c-19.198-4.223-38.172-9.408-56.85-15.537
		c-23.923,11.652-36.546,51.465-36.546,51.465l-171.255-0.177l-0.53-0.353c29.572-42.196,31.956-97.368,17.39-145.567
		c-2.869-10.782-7.143-21.14-12.712-30.808c-5.699-8.499-10.408-17.621-14.036-27.189c-6.844-18.916-9.231-39.156-6.974-59.145
		c4.285-40.032,25.778-76.218,58.88-99.134c21.813-14.107,46.83-22.487,72.739-24.364l35.31-0.177
		c22.707,1.86,45.111,6.424,66.737,13.594c15.646,4.637,29.921,13.032,41.578,24.452c11.354,11.859,20.157,25.919,25.865,41.313
		c2.631,7.597,4.783,15.351,6.444,23.217c2.741,8.647,6.104,17.085,10.063,25.247c1.071,2.506,1.554,5.223,1.412,7.945
		c-1.324,9.181-15.36,13.241-15.448,22.687c0.087,2.1,0.727,4.14,1.854,5.915c8.278,17.165,18.433,33.359,30.279,48.287
		C339.275,341.188,344.925,347.72,344.219,352.487z"/>
	<path style="fill:#7F6E5D;" d="M211.893,459.036c-0.916-0.001-1.826-0.144-2.698-0.422c-17.334-5.351-34.246-11.984-50.595-19.845
		c-4.361-2.181-6.129-7.484-3.948-11.845c2.181-4.361,7.484-6.129,11.845-3.948c15.543,7.459,31.619,13.752,48.095,18.828
		c4.14,1.329,6.696,5.475,6.023,9.771C219.942,455.87,216.241,459.036,211.893,459.036z"/>
	<path style="fill:#E6E7E8;" d="M260.979,414.898c-0.822-0.002-1.64-0.115-2.431-0.336l-61.793-17.655
		c-1.949-0.558-3.646-1.769-4.806-3.431l-31.427-44.931c-2.741-3.994-1.752-9.451,2.218-12.229
		c3.969-2.777,9.435-1.836,12.248,2.108l29.634,42.362l58.78,16.793c4.231,1.211,6.924,5.353,6.315,9.712
		C269.107,411.65,265.38,414.894,260.979,414.898z"/>
	<path style="fill:#285680;" d="M132.445,250.264V114.76c0-9.751,7.904-17.655,17.655-17.655c9.751,0,17.655,7.904,17.655,17.655
		v135.503H132.445z"/>
	<circle style="fill:#4482C3;" cx="150.072" cy="300.14" r="52.966"/>
</g>
<g>
</g>
<g>
</g>
<g>
</g>
<g>
</g>
<g>
</g>
<g>
</g>
<g>
</g>
<g>
</g>
<g>
</g>
<g>
</g>
<g>
</g>
<g>
</g>
<g>
</g>
<g>
</g>
<g>
</g>
</svg>
