<?xml version="1.0" encoding="iso-8859-1"?>
<!-- Generator: Adobe Illustrator 19.0.0, SVG Export Plug-In . SVG Version: 6.00 Build 0)  -->
<svg version="1.1" id="Capa_1" xmlns="http://www.w3.org/2000/svg" xmlns:xlink="http://www.w3.org/1999/xlink" x="0px" y="0px"
	 viewBox="0 0 512 512" style="enable-background:new 0 0 512 512;" xml:space="preserve">
<g>
	<path style="fill:#BDC3C7;" d="M251.661,260.339c-4.793,0-8.678-3.885-8.678-8.678c1.154-56.231-43.397-102.799-99.623-104.136
		h-9.025c-56.226,1.337-100.777,47.905-99.623,104.136c0,4.793-3.885,8.678-8.678,8.678s-8.678-3.885-8.678-8.678
		c-1.148-65.813,51.169-120.149,116.979-121.492h9.025c65.81,1.342,118.127,55.678,116.979,121.492c0,2.302-0.914,4.509-2.542,6.136
		C256.17,259.425,253.963,260.339,251.661,260.339z"/>
	<rect x="8.678" y="242.983" style="fill:#95A5A5;" width="260.339" height="60.746"/>
	<path style="fill:#F29C1F;" d="M295.051,512v-12.782c-0.214-19.746-11.792-37.598-29.733-45.848l-73.944-30.523
		c-4.235-2.399-7.611-6.064-9.656-10.481c-0.929-1.928-0.78-4.201,0.394-5.991c1.174-1.789,3.201-2.831,5.339-2.746H234.7
		c11.449,0.898,22.96-0.56,33.824-4.282c4.033-1.559,7.112-4.906,8.327-9.056c1.216-4.15,0.43-8.629-2.124-12.117
		c-15.779-21.403-45.679-69.488-46.732-121.535c0,0-4.238-82.429-87.174-83.081c-48.382,0.383-66.688,27.519-77.33,50.072
		c-5.612,12.651-8.814,26.238-9.442,40.064c-3.44,49.606-29.948,96.445-42.3,115.841c-2.037,3.16-2.68,7.02-1.777,10.67
		c0.902,3.649,3.27,6.765,6.545,8.612c7.799,3.957,16.559,5.625,25.267,4.812h53.304c2.277-0.117,4.363,1.263,5.146,3.404
		s0.077,4.542-1.739,5.92c-2.612,2.057-5.354,3.944-8.208,5.649L28.03,452.968C11.003,461.54,0.187,478.903,0,497.966V512H295.051z"
		/>
	<path style="fill:#BDC3C7;" d="M121.492,347.119c-0.014,4.787-3.891,8.664-8.678,8.678H37.402
		c-16.298-0.502-29.132-14.072-28.724-30.373v-21.695h17.356v21.695c-0.417,6.721,4.652,12.525,11.368,13.017h75.412
		C117.6,338.455,121.477,342.332,121.492,347.119z"/>
	<path style="fill:#E6E7E8;" d="M117.153,329.763h17.356c7.189,0,13.017,5.828,13.017,13.017v8.678
		c0,7.189-5.828,13.017-13.017,13.017h-17.356c-7.189,0-13.017-5.828-13.017-13.017v-8.678
		C104.136,335.591,109.964,329.763,117.153,329.763z"/>
	<path style="fill:#4482C3;" d="M469.461,310.972c56.719-69.992,56.718-170.129-0.003-240.12l-0.01-0.021l-0.021-0.02
		c-0.115-0.141-0.211-0.296-0.326-0.437C433.984,27.095,381.626,1.432,325.907,0.186c-1.569-0.094-3.077-0.138-4.603-0.142
		C321.226,0.042,321.163,0,321.085,0c-0.081,0-0.148,0.044-0.228,0.046c-0.238,0.001-0.497,0.02-0.736,0.023
		c-1.248,0.014-2.491,0.037-3.569,0.104C260.755,1.357,208.3,27.01,173.11,70.326c-0.119,0.144-0.221,0.312-0.339,0.457l-0.05,0.047
		l-0.022,0.05c-7.544,9.261-14.196,19.213-19.868,29.725c-2.284,4.212-0.721,9.479,3.491,11.763
		c4.212,2.284,9.479,0.721,11.763-3.492c4.086-7.433,8.707-14.56,13.826-21.324c11.452,7.197,23.597,13.226,36.254,17.997
		c-1.74,5.81-3.314,11.476-4.563,16.97c-1.046,4.67,1.884,9.305,6.552,10.364c4.667,1.058,9.31-1.86,10.381-6.525
		c1.123-4.953,2.535-10.073,4.095-15.317c25.267,7.524,51.422,11.652,77.778,12.278v58.916h-30.458
		c-4.793,0-8.678,3.885-8.678,8.678s3.885,8.678,8.678,8.678h30.458v58.78c-3.071,0.092-6.147,0.148-9.203,0.335
		c-4.772,0.305-8.398,4.412-8.108,9.185c0.29,4.773,4.386,8.412,9.159,8.137c2.709-0.163,5.433-0.206,8.152-0.291v88.546
		c-0.58-0.025-1.167-0.032-1.746-0.06c-4.765-0.198-8.796,3.486-9.029,8.249c-0.233,4.763,3.421,8.822,8.182,9.09
		c3.695,0.178,7.483,0.267,11.271,0.267c1.636,0,3.186-0.089,4.534-0.174c55.813-1.187,108.281-26.856,143.475-70.191
		c0.118-0.144,0.215-0.301,0.332-0.445l0.024-0.021L469.461,310.972z M423.863,276.226c7.283-24.917,11.274-50.68,11.873-76.633
		h58.543c-1.58,34.261-13.427,67.255-34.003,94.695C448.777,287.06,436.577,281.009,423.863,276.226z M329.763,363.702v-88.024
		c24.511,0.636,48.833,4.474,72.349,11.417C385.658,330.476,358.691,359.03,329.763,363.702z M329.763,18.126
		c28.893,4.673,55.825,33.152,72.284,76.44c-23.507,6.846-47.807,10.593-72.284,11.146V18.126z M460.279,87.541
		c20.575,27.44,32.422,60.435,34.002,94.696h-58.543c-0.599-25.953-4.591-51.715-11.876-76.632
		C436.576,100.822,448.777,94.77,460.279,87.541L460.279,87.541z M449.308,73.984c-9.779,5.972-20.089,11.028-30.798,15.104
		c-7.9-22.5-20.331-43.14-36.524-60.645C407.732,38.047,430.813,53.66,449.308,73.984z M260.129,28.495
		c-16.162,17.499-28.574,38.119-36.472,60.592c-10.708-4.075-21.016-9.131-30.795-15.102
		C211.341,53.679,234.403,38.083,260.129,28.495z M240.119,94.565c16.46-43.286,43.391-71.771,72.287-76.436v87.584
		C287.929,105.159,263.627,101.411,240.119,94.565z M329.763,123.322c26.304-0.625,52.409-4.739,77.63-12.234
		c6.71,23.145,10.405,47.059,10.99,71.15h-88.62V123.322z M418.383,199.593c-0.586,24.035-4.264,47.895-10.942,70.991
		c-25.239-7.493-51.358-11.617-77.678-12.265v-58.726H418.383z M382.046,353.334c16.162-17.497,28.573-38.116,36.468-60.59
		c10.708,4.075,21.016,9.131,30.794,15.102C430.83,328.149,407.769,343.745,382.046,353.334z"/>
</g>
<g>
</g>
<g>
</g>
<g>
</g>
<g>
</g>
<g>
</g>
<g>
</g>
<g>
</g>
<g>
</g>
<g>
</g>
<g>
</g>
<g>
</g>
<g>
</g>
<g>
</g>
<g>
</g>
<g>
</g>
</svg>
