<?xml version="1.0" encoding="iso-8859-1"?>
<!-- Generator: Adobe Illustrator 19.0.0, SVG Export Plug-In . SVG Version: 6.00 Build 0)  -->
<svg version="1.1" id="Capa_1" xmlns="http://www.w3.org/2000/svg" xmlns:xlink="http://www.w3.org/1999/xlink" x="0px" y="0px"
	 viewBox="0 0 512 512" style="enable-background:new 0 0 512 512;" xml:space="preserve">
<g>
	<path style="fill:#95A5A5;" d="M500.444,286.452c6.391-2.589,10.715-8.633,11.102-15.518c0.309-5.185,0.46-10.399,0.455-15.642
		c0-5.244-0.152-10.458-0.455-15.642c-0.387-6.885-4.71-12.929-11.102-15.518l-50.316-20.202c-4.853-2.006-8.581-6.04-10.198-11.036
		c-2.754-8.168-6.05-16.142-9.866-23.871c-2.388-4.691-2.6-10.194-0.579-15.055L450.821,104c2.695-6.352,1.491-13.688-3.093-18.845
		c-3.438-3.885-7.007-7.68-10.708-11.383c-3.697-3.708-7.481-7.287-11.352-10.738c-5.131-4.595-12.458-5.804-18.793-3.101
		l-49.83,21.394c-4.846,2.027-10.338,1.814-15.013-0.58c-7.705-3.825-15.658-7.13-23.805-9.893
		c-4.991-1.63-9.014-5.369-11.006-10.227l-19.767-49.504C284.781,4.411,278.289,0.005,271.064,0h-30.127
		c-7.225,0.005-13.717,4.411-16.39,11.123l-19.767,49.504c-1.991,4.858-6.015,8.597-11.006,10.227
		c-8.147,2.763-16.1,6.068-23.805,9.893c-4.675,2.395-10.168,2.607-15.013,0.58l-49.83-21.394
		c-6.335-2.703-13.662-1.494-18.793,3.101c-3.874,3.447-7.658,7.027-11.352,10.738c-3.697,3.708-7.267,7.502-10.708,11.383
		C59.688,90.312,58.484,97.648,61.18,104l21.335,49.968c2.021,4.861,1.81,10.363-0.579,15.055
		c-3.816,7.729-7.112,15.704-9.866,23.871c-1.617,4.996-5.346,9.03-10.198,11.036l-50.316,20.203
		c-6.391,2.589-10.715,8.633-11.101,15.518C0.146,244.835-0.006,250.049,0,255.292c0,5.243,0.152,10.457,0.455,15.642
		c0.386,6.885,4.71,12.929,11.101,15.518l50.316,20.202c4.853,2.006,8.581,6.04,10.198,11.036c2.754,8.168,6.05,16.142,9.866,23.871
		c2.388,4.691,2.6,10.194,0.579,15.055L61.18,406.585c-2.695,6.352-1.491,13.687,3.092,18.844c3.438,3.885,7.007,7.68,10.709,11.383
		c3.697,3.708,7.481,7.287,11.352,10.738c5.131,4.595,12.458,5.804,18.793,3.101l49.83-21.394c4.846-2.027,10.338-1.814,15.013,0.58
		c7.705,3.825,15.658,7.131,23.805,9.893c4.991,1.63,9.014,5.369,11.006,10.226l20.147,50.455
		c2.565,6.396,8.595,10.734,15.475,11.132c5.17,0.31,10.37,0.462,15.599,0.456c5.229,0,10.429-0.152,15.599-0.456
		c6.88-0.398,12.91-4.736,15.475-11.132l20.147-50.455c1.991-4.858,6.015-8.596,11.006-10.226c8.147-2.763,16.1-6.068,23.805-9.893
		c4.675-2.395,10.168-2.607,15.013-0.58l49.83,21.394c6.335,2.703,13.662,1.494,18.792-3.101c3.874-3.447,7.659-7.027,11.352-10.738
		c3.698-3.708,7.267-7.502,10.709-11.383c4.584-5.157,5.788-12.493,3.092-18.844l-21.335-49.968
		c-2.021-4.861-1.81-10.363,0.579-15.055c3.816-7.729,7.112-15.704,9.866-23.871c1.617-4.996,5.346-9.03,10.198-11.036
		L500.444,286.452z"/>
	<circle style="fill:#4482C3;" cx="256" cy="256" r="150.069"/>
	<path style="fill:#E6E7E8;" d="M357.871,365.904c-57.492,53.656-146.741,53.54-204.094-0.265
		c3.47-7.383,9.228-13.451,16.419-17.302l42.99-23.128c5.587-3.009,9.077-8.837,9.092-15.183v-12.623
		c-8.289-10.469-14.221-22.604-17.39-35.575c-4.126-2.565-6.656-7.059-6.709-11.917v-19.068c0.06-4.031,1.824-7.848,4.855-10.505
		v-27.454c0,0-5.738-42.814,52.965-42.814s52.966,42.814,52.966,42.814v27.454c3.032,2.657,4.796,6.474,4.855,10.505v19.068
		c-0.091,6.258-4.239,11.729-10.24,13.506c-3.293,10.175-8.115,19.789-14.301,28.513c-1.355,1.915-2.829,3.743-4.414,5.473v13.065
		c0.036,6.599,3.794,12.612,9.71,15.537l45.992,22.687C348.072,352.369,354.153,358.419,357.871,365.904z"/>
</g>
<g>
</g>
<g>
</g>
<g>
</g>
<g>
</g>
<g>
</g>
<g>
</g>
<g>
</g>
<g>
</g>
<g>
</g>
<g>
</g>
<g>
</g>
<g>
</g>
<g>
</g>
<g>
</g>
<g>
</g>
</svg>
