<?xml version="1.0" encoding="iso-8859-1"?>
<!-- Generator: Adobe Illustrator 19.0.0, SVG Export Plug-In . SVG Version: 6.00 Build 0)  -->
<svg version="1.1" id="Capa_1" xmlns="http://www.w3.org/2000/svg" xmlns:xlink="http://www.w3.org/1999/xlink" x="0px" y="0px"
	 viewBox="0 0 512 512" style="enable-background:new 0 0 512 512;" xml:space="preserve">
<g>
	<path style="fill:#CC4B4C;" d="M35.31,211.862H476.69c19.501,0,35.31,15.809,35.31,35.31V476.69c0,19.501-15.809,35.31-35.31,35.31
		H35.31C15.809,512,0,496.191,0,476.69V247.172C0,227.671,15.809,211.862,35.31,211.862z"/>
	<path style="fill:#ffffff;" d="M414.897,35.31v88.276c0.002,9.366-3.717,18.348-10.34,24.971
		c-6.622,6.622-15.605,10.342-24.971,10.34H211.862l-52.966,52.966v-52.966h-26.483c-9.366,0.002-18.348-3.717-24.971-10.34
		c-6.622-6.622-10.342-15.605-10.34-24.971V35.31c-0.002-9.366,3.717-18.348,10.34-24.971S123.048-0.002,132.414,0h247.172
		c9.366-0.002,18.348,3.717,24.971,10.34S414.899,25.945,414.897,35.31z"/>
	<path style="fill:#E6E7E8;" d="M467.862,467.862H44.138c-4.875,0-8.828-3.952-8.828-8.828s3.952-8.828,8.828-8.828h423.724
		c4.875,0,8.828,3.952,8.828,8.828S472.737,467.862,467.862,467.862z"/>
	<path style="fill:#802F34;" d="M70.621,485.517c-2.342,0.001-4.588-0.928-6.244-2.584c-1.656-1.656-2.585-3.902-2.584-6.244v-35.31
		c0-4.875,3.952-8.828,8.828-8.828c4.875,0,8.828,3.952,8.828,8.828v35.31c0.001,2.342-0.928,4.588-2.584,6.244
		C75.208,484.589,72.962,485.519,70.621,485.517z"/>
	<g>
		<polygon style="fill:#E6E7E8;" points="203.034,264.828 203.034,406.069 308.966,335.448 		"/>
		<circle style="fill:#E6E7E8;" cx="167.724" cy="79.448" r="26.483"/>
		<circle style="fill:#E6E7E8;" cx="256" cy="79.448" r="26.483"/>
		<circle style="fill:#E6E7E8;" cx="344.276" cy="79.448" r="26.483"/>
	</g>
</g>
<g>
</g>
<g>
</g>
<g>
</g>
<g>
</g>
<g>
</g>
<g>
</g>
<g>
</g>
<g>
</g>
<g>
</g>
<g>
</g>
<g>
</g>
<g>
</g>
<g>
</g>
<g>
</g>
<g>
</g>
</svg>
