<?xml version="1.0" encoding="iso-8859-1"?>
<!-- Generator: Adobe Illustrator 19.0.0, SVG Export Plug-In . SVG Version: 6.00 Build 0)  -->
<svg version="1.1" id="Capa_1" xmlns="http://www.w3.org/2000/svg" xmlns:xlink="http://www.w3.org/1999/xlink" x="0px" y="0px"
	 viewBox="0 0 503.322 503.322" style="enable-background:new 0 0 503.322 503.322;" xml:space="preserve">
<g>
	<rect x="182.194" y="416.307" style="fill:#95A5A5;" width="138.847" height="69.424"/>
	<path style="fill:#3F5C6C;" d="M166.617,0.199H34.712C15.957-0.186,0.43,14.682,0,33.436V400.47
		c0.43,18.754,15.957,33.621,34.712,33.237H468.61c18.755,0.385,34.282-14.483,34.712-33.237V33.436
		c-0.43-18.754-15.957-33.621-34.712-33.237H166.617z"/>
	<g>
		<path style="fill:#BDC3C7;" d="M138.847,468.419h225.627c14.378,0,26.034,11.656,26.034,26.034v8.678H112.814v-8.678
			C112.814,480.074,124.469,468.419,138.847,468.419z"/>
		<path style="fill:#BDC3C7;" d="M503.322,363.198v37.272c-0.43,18.754-15.957,33.621-34.712,33.237H34.712
			C15.957,434.091,0.43,419.224,0,400.47v-37.272H503.322z"/>
	</g>
	<path style="fill:#F29C1F;" d="M250.576,347.978l0,15.22H33.627l0-16.221c-0.05-14.622,7.842-28.119,20.61-35.246l43.981-24.382
		c5.813-3.23,9.404-9.371,9.368-16.021v-11.542c0.006-1.082-0.34-2.137-0.987-3.004c-9.613-11.314-16.735-24.525-20.905-38.774
		v-70.091c0,0-3.698-45.059,56.407-45.059s56.407,45.059,56.407,45.059v70.091c-4.17,14.248-11.293,27.459-20.905,38.773
		c-0.647,0.867-0.993,1.922-0.987,3.004v12.043c-0.037,6.86,3.771,13.163,9.861,16.321l42.256,23.881
		C242.183,318.965,250.618,332.846,250.576,347.978z"/>
	<g>
		<path style="fill:#BDC3C7;" d="M224.542,163.605c-2.302,0.001-4.509-0.913-6.137-2.541c-1.628-1.628-2.542-3.835-2.541-6.137
			c0-43.064-31.33-78.102-69.839-78.102h-7.847c-38.508,0-69.839,35.038-69.839,78.102c0,4.793-3.885,8.678-8.678,8.678
			s-8.678-3.885-8.678-8.678c0-52.636,39.119-95.458,87.195-95.458h7.847c48.076,0,87.195,42.822,87.195,95.458
			c0.001,2.302-0.913,4.509-2.541,6.137C229.052,162.692,226.844,163.606,224.542,163.605z"/>
		<path style="fill:#BDC3C7;" d="M146.441,250.385H77.017c-14.372-0.016-26.018-11.662-26.034-26.034v-17.356
			c0-4.793,3.885-8.678,8.678-8.678s8.678,3.885,8.678,8.678v17.356c0.005,4.791,3.887,8.673,8.678,8.678h69.424
			c4.793,0,8.678,3.885,8.678,8.678C155.119,246.499,151.233,250.385,146.441,250.385z"/>
	</g>
	<g>
		<rect x="50.983" y="154.927" style="fill:#95A5A5;" width="34.712" height="52.068"/>
		<rect x="198.508" y="154.927" style="fill:#95A5A5;" width="34.712" height="52.068"/>
	</g>
	<path style="fill:#ffffff;" d="M467.525,59.469v104.136c-0.028,9.574-7.782,17.328-17.356,17.356H346.034l-34.452,41.816
		c-1.524,1.525-3.826,1.961-5.802,1.098c-1.976-0.863-3.22-2.849-3.137-5.003v-37.911h-8.678
		c-9.574-0.028-17.328-7.782-17.356-17.356V59.469c0.028-9.574,7.782-17.328,17.356-17.356h156.203
		C459.743,42.141,467.497,49.896,467.525,59.469z"/>
	<g>
		<path style="fill:#ECF0F1;" d="M372.068,68.147c-2.302-0.001-4.509,0.913-6.137,2.541c-1.628,1.628-2.542,3.835-2.541,6.137
			v34.712c0,4.793,3.885,8.678,8.678,8.678c4.793,0,8.678-3.885,8.678-8.678V76.825c0.001-2.302-0.913-4.509-2.541-6.137
			C376.577,69.061,374.37,68.147,372.068,68.147z"/>
		<path style="fill:#ECF0F1;" d="M376.924,139.046c-0.483-0.33-1.007-0.593-1.559-0.784c-0.491-0.248-1.017-0.423-1.559-0.517
			c-1.691-0.355-3.45-0.174-5.034,0.517c-1.063,0.42-2.035,1.04-2.865,1.826c-3.356,3.422-3.356,8.9,0,12.322
			c0.831,0.784,1.803,1.402,2.864,1.822c1.043,0.445,2.163,0.681,3.297,0.695c0.582-0.02,1.163-0.078,1.737-0.174
			c0.542-0.098,1.067-0.273,1.559-0.521c0.552-0.191,1.077-0.454,1.559-0.784c0.456-0.318,0.892-0.665,1.305-1.038
			c3.356-3.422,3.356-8.9,0-12.322C377.816,139.714,377.38,139.366,376.924,139.046z"/>
	</g>
</g>
<g>
</g>
<g>
</g>
<g>
</g>
<g>
</g>
<g>
</g>
<g>
</g>
<g>
</g>
<g>
</g>
<g>
</g>
<g>
</g>
<g>
</g>
<g>
</g>
<g>
</g>
<g>
</g>
<g>
</g>
</svg>
