<?xml version="1.0" encoding="iso-8859-1"?>
<!-- Generator: Adobe Illustrator 19.0.0, SVG Export Plug-In . SVG Version: 6.00 Build 0)  -->
<svg version="1.1" id="Capa_1" xmlns="http://www.w3.org/2000/svg" xmlns:xlink="http://www.w3.org/1999/xlink" x="0px" y="0px"
	 viewBox="0 0 503.322 503.322" style="enable-background:new 0 0 503.322 503.322;" xml:space="preserve">
<g>
	<rect x="182.194" y="416.307" style="fill:#95A5A5;" width="138.847" height="69.424"/>
	<path style="fill:#3F5C6C;" d="M166.617,0.199H34.712C15.957-0.186,0.43,14.682,0,33.436V400.47
		c0.43,18.754,15.957,33.621,34.712,33.237H468.61c18.755,0.385,34.282-14.483,34.712-33.237V33.436
		c-0.43-18.754-15.957-33.621-34.712-33.237H166.617z"/>
	<g>
		<path style="fill:#BDC3C7;" d="M138.847,468.419h225.627c14.378,0,26.034,11.656,26.034,26.034v8.678H112.814v-8.678
			C112.814,480.074,124.469,468.419,138.847,468.419z"/>
		<path style="fill:#BDC3C7;" d="M503.322,363.198v37.272c-0.43,18.754-15.957,33.621-34.712,33.237H34.712
			C15.957,434.091,0.43,419.224,0,400.47v-37.272H503.322z"/>
	</g>
	<path style="fill:#E6E7E8;" d="M380.746,154.912l0.015,16.503c0.219,7.636-4.428,14.571-11.574,17.271
		c-5.317,1.847-11.198,1.013-15.792-2.238c-4.594-3.252-7.335-8.521-7.361-14.15l-0.015-17.356L380.746,154.912z"/>
	<g>
		<path style="fill:#E4C05C;" d="M259.263,94.211l17.356-0.013c4.793-0.002,8.676-3.89,8.674-8.682
			c-0.002-4.793-3.89-8.676-8.682-8.674h-0.009l-17.356,0.013c-4.793,0.002-8.676,3.89-8.674,8.682
			c0.002,4.793,3.89,8.676,8.682,8.674H259.263z"/>
		<path style="fill:#E4C05C;" d="M262.669,58.16l16.314,5.924c2.918,1.076,6.189,0.507,8.574-1.49s3.518-5.118,2.97-8.18
			c-0.547-3.062-2.692-5.597-5.62-6.644l-16.305-5.924c-2.916-1.068-6.181-0.497-8.561,1.498c-2.38,1.995-3.513,5.11-2.97,8.168
			C257.613,54.571,259.748,57.106,262.669,58.16z"/>
		<path style="fill:#E4C05C;" d="M279.025,107.135l-16.305,5.949c-4.503,1.643-6.821,6.625-5.178,11.127
			c1.643,4.503,6.625,6.821,11.127,5.178l16.305-5.949c4.503-1.643,6.821-6.625,5.178-11.127
			C288.51,107.81,283.528,105.492,279.025,107.135z"/>
		<path style="fill:#E4C05C;" d="M467.525,76.825h-0.009l-17.356,0.017c-4.793,0.002-8.676,3.89-8.674,8.682
			c0.002,4.793,3.89,8.676,8.682,8.674h0.009l17.356-0.017c4.793-0.002,8.676-3.89,8.674-8.682
			C476.205,80.706,472.318,76.823,467.525,76.825z"/>
		<path style="fill:#E4C05C;" d="M445.042,64.465c1.015-0.002,2.021-0.181,2.975-0.529l16.305-5.953
			c2.913-1.063,5.037-3.599,5.573-6.652s-0.598-6.161-2.975-8.153c-2.377-1.991-5.635-2.563-8.548-1.5l-16.305,5.953
			c-3.955,1.444-6.303,5.518-5.57,9.664S440.832,64.464,445.042,64.465L445.042,64.465z"/>
		<path style="fill:#E4C05C;" d="M464.364,112.906l-16.314-5.919c-2.914-1.057-6.171-0.478-8.543,1.517
			c-2.372,1.995-3.5,5.105-2.958,8.157c0.542,3.052,2.671,5.583,5.585,6.64l16.314,5.92c2.916,1.065,6.179,0.491,8.556-1.506
			c2.377-1.997,3.507-5.111,2.961-8.168C469.422,116.49,467.285,113.957,464.364,112.906z"/>
		<path style="fill:#E4C05C;" d="M414.797,77.117c3.016,18.455-4.114,37.108-18.67,48.846c-4.186,3.295-6.651,8.311-6.703,13.638
			v6.663c0,4.793-3.885,8.678-8.678,8.678h-34.712c-4.793,0-8.678-3.885-8.678-8.678v-6.685c-0.011-5.248-2.411-10.205-6.52-13.47
			c-18.114-14.534-24.411-39.309-15.434-60.728c8.976-21.419,31.055-34.303,54.119-31.58
			C392.584,36.526,411.055,54.196,414.797,77.117L414.797,77.117z"/>
	</g>
	<path style="fill:#F29C1F;" d="M250.576,347.978l0,15.22H33.627l0-16.221c-0.05-14.622,7.842-28.119,20.61-35.246l43.981-24.382
		c5.813-3.23,9.404-9.371,9.368-16.021v-11.542c0.006-1.082-0.34-2.137-0.987-3.004c-9.613-11.314-16.735-24.525-20.905-38.774
		v-70.091c0,0-3.698-45.059,56.407-45.059s56.407,45.059,56.407,45.059v70.091c-4.17,14.248-11.293,27.459-20.905,38.773
		c-0.647,0.867-0.993,1.922-0.987,3.004v12.043c-0.037,6.86,3.771,13.163,9.861,16.321l42.256,23.881
		C242.183,318.965,250.618,332.846,250.576,347.978z"/>
	<g>
		<path style="fill:#BDC3C7;" d="M224.542,163.605c-2.302,0.001-4.509-0.913-6.137-2.541c-1.628-1.628-2.542-3.835-2.541-6.137
			c0-43.064-31.33-78.102-69.839-78.102h-7.847c-38.508,0-69.839,35.038-69.839,78.102c0,4.793-3.885,8.678-8.678,8.678
			s-8.678-3.885-8.678-8.678c0-52.636,39.119-95.458,87.195-95.458h7.847c48.076,0,87.195,42.822,87.195,95.458
			c0.001,2.302-0.913,4.509-2.541,6.137C229.052,162.692,226.844,163.606,224.542,163.605z"/>
		<path style="fill:#BDC3C7;" d="M146.441,250.385H77.017c-14.372-0.016-26.018-11.662-26.034-26.034v-17.356
			c0-4.793,3.885-8.678,8.678-8.678s8.678,3.885,8.678,8.678v17.356c0.005,4.791,3.887,8.673,8.678,8.678h69.424
			c4.793,0,8.678,3.885,8.678,8.678C155.119,246.499,151.233,250.385,146.441,250.385z"/>
	</g>
	<path style="fill:#F9EAB0;" d="M380.873,94.199c-4.788-0.002-8.671-3.881-8.678-8.669c0.002-2.3-0.91-4.507-2.537-6.134
		c-1.626-1.627-3.832-2.541-6.133-2.54h-0.017c-4.793-0.005-8.674-3.894-8.669-8.687c0.005-4.793,3.894-8.674,8.687-8.669
		c14.368,0,26.018,11.644,26.025,26.013c0.002,4.791-3.878,8.679-8.669,8.687L380.873,94.199z"/>
	<g>
		<rect x="50.983" y="154.927" style="fill:#95A5A5;" width="34.712" height="52.068"/>
		<rect x="198.508" y="154.927" style="fill:#95A5A5;" width="34.712" height="52.068"/>
	</g>
</g>
<g>
</g>
<g>
</g>
<g>
</g>
<g>
</g>
<g>
</g>
<g>
</g>
<g>
</g>
<g>
</g>
<g>
</g>
<g>
</g>
<g>
</g>
<g>
</g>
<g>
</g>
<g>
</g>
<g>
</g>
</svg>
