<?xml version="1.0" encoding="iso-8859-1"?>
<!-- Generator: Adobe Illustrator 19.0.0, SVG Export Plug-In . SVG Version: 6.00 Build 0)  -->
<svg version="1.1" id="Capa_1" xmlns="http://www.w3.org/2000/svg" xmlns:xlink="http://www.w3.org/1999/xlink" x="0px" y="0px"
	 viewBox="0 0 512 512" style="enable-background:new 0 0 512 512;" xml:space="preserve">
<g>
	<circle style="fill:#4482C3;" cx="211.862" cy="300.138" r="211.862"/>
	<path style="fill:#BDC3C7;" d="M283.454,343.569c-22.284,22.335-54.806,31.055-85.274,22.864L90.748,473.864
		c-24.436-16.993-45.012-38.952-60.381-64.441l105.401-105.402c-9.004-33.827,2.806-69.781,30.114-91.68s64.968-25.619,96.032-9.483
		l-47.139,47.052c-6.797,6.94-6.797,18.042,0,24.982l12.535,12.536c6.941,6.796,18.041,6.796,24.982,0l47.051-47.052
		C317.096,274.561,310.668,316.307,283.454,343.569z"/>
	<circle style="fill:#CC4B4C;" cx="406.069" cy="105.931" r="105.931"/>
	<path style="fill:#FFFFFF;" d="M418.552,105.931l37.897-37.897c2.253-2.225,3.142-5.487,2.328-8.547
		c-0.813-3.06-3.204-5.451-6.264-6.264c-3.06-0.813-6.322,0.076-8.547,2.329l-37.897,37.896l-37.897-37.896
		c-3.456-3.394-9.001-3.369-12.426,0.056c-3.425,3.425-3.45,8.97-0.056,12.426l37.896,37.897l-37.897,37.897
		c-2.253,2.225-3.142,5.487-2.328,8.547c0.813,3.06,3.204,5.451,6.264,6.264c3.061,0.813,6.322-0.076,8.547-2.329l37.897-37.896
		l37.897,37.897c2.225,2.253,5.487,3.142,8.547,2.329c3.06-0.813,5.451-3.204,6.264-6.264c0.813-3.061-0.076-6.322-2.329-8.547
		L418.552,105.931z"/>
</g>
<g>
</g>
<g>
</g>
<g>
</g>
<g>
</g>
<g>
</g>
<g>
</g>
<g>
</g>
<g>
</g>
<g>
</g>
<g>
</g>
<g>
</g>
<g>
</g>
<g>
</g>
<g>
</g>
<g>
</g>
</svg>
